<svg xmlns="http://www.w3.org/2000/svg" viewBox="-469 904 1109 955"><g class="s" data-r fill="#000" fill-rule="evenodd"><path class="chunk" data-i="0" d="M160 1824h-2h-1l1 -2h-2v-1h6v1l-2 2zM160 1823v-1h-1v1h1zM126 1790l-2 -1l-2 1v-2h6v1h-2v1zM144 1783h-6l-2 -1v1h-2v-1l2 -1h2v1l2 -1v1h5l-1 1zM110 1827l-2 -1v-1h2v-1l2 1h2v1h-2l-2 1zM97 1793l-5 1h-1l1 -2l2 1v-1h5l-1 1h-1zM116 1791l-8 1l-2 1v-1h-2l-4 1v-1l8 -2h6l2 -1v1v1zM120 1776v-3h-6v-1h7v2h3v1h-2l-2 1zM56 1799h-10v-1h10v1zM4 1784l-1 -2l5 -1v-1l2 2h-4l-2 2z"/><path class="chunk" data-i="1" d="M56 1778h-1v-2h-1v1l-2 -1l-2 1v-1h-4h-1l3 -3h4l2 2h4v1l-2 2zM48 1775v-1h-1v1h1zM52 1775v-1h-2v1h2zM-44 1810l-2 -1l-2 -1v-1l10 -1l2 -1v1l8 -1v1l2 -1l1 1l-1 1l-3 -1h-3l-4 2h-2l-4 -1l-1 1h1v1h-2v1zM-45 1808v-1h-1v1h1zM-8 1797l-10 1v-1l14 -1v1h-4zM-53 1795h-5v-1l2 -1l2 1v-1l1 1v1zM-64 1795l-2 -1h-1l3 -3h3l-1 1h-1l1 2h-2v1zM-54 1790h5l-1 1h-1l1 1h1v2h-1v-1l-1 1v1l-1 -1l-1 -2h1v-1h-2v-1zM-56 1791h-4v-1l2 -1v1l2 -1l2 1h-2v1zM-38 1793h-2v-1l-2 1l-4 -1v-1h2v-1h-1v-2h2v2l3 1l2 1v1zM-37 1790l-2 1v-4h3l1 1h-1l1 2h-1h-1zM-37 1789v-1h-1v1h1z"/><path class="chunk" data-i="2" d="M-8 1786v-1v-1h-1v2h-3l-2 1v-1v-1h2l2 -2h2l2 1l-2 2zM-28 1790l-4 -1v-1l6 -1h1l-1 -1h-1l1 -1h6v1h-4v1h2v1l-2 1v-1l-2 1h-2v1zM-18 1788h-1v-4h5v1h-4v1l1 2h-1zM-102 1784h-4l-2 -2h2l2 -1v1v1h2v1zM-102 1780h4v-1h1v1l-1 2h4v1h-5v-2l-2 1l-2 -1h1v-1zM-103 1781h-1v-2h-3l1 -1h4v2h-1v1zM-88 1779l1 -1h-3l-1 1h3zM-82 1779v-1h-1v1h1zM-97 1779l-1 -1v1h-2v-2l6 1l2 1v-1v-1h-2v-1h13h2l1 1l1 1l-2 1l-1 -1v1h-2v1h1l-1 1h-2v-2h-2v3h-1v-2l-2 1l-1 -1l-2 1v-1l-2 1l-2 -2h-1zM-96 1775l-2 -1v1h-2v-2h4l1 1l-1 1zM-143 1776l-1 1h-1v-3l1 -1h3l-1 1l-1 1l-1 1h1z"/><path class="chunk" data-i="3" d="M-301 1800h-3v-2l2 1v-1v-2h1v4zM-280 1796h-2v-2h8v1l-6 1zM105 1772v-1h-1v1h1zM92 1773h2l1 -1h-1h-2v-1h5v1l1 1v-1h4l-1 -2h1h2v-1l2 1v3h-6l-2 2h-1h-4l-2 -1h1v-1zM70 1771l-2 -1l-2 1v-1v-1l-2 1l-1 -2h1h2l2 1v-1h2l2 2l-2 1zM70 1770v-1h-1v1h1zM-4 1752l-2 -1v-1l4 -1v1h-1v2h-1zM16 1744l-4 -1v-1h7l-1 1l-2 1zM-152 1770h-3v-2h1l2 1v-1h2l-2 2zM-266 1778l-16 3l-2 -1v1h-2l-2 -1v1l-2 -1h-2h-10v1h2v1h-20v1l-2 -1v1l-9 -1v2h-1l-2 -1v1l-2 -1h-9l1 -1h1v-2h-3l-2 -2v-2l5 1h2l3 -1v1l2 -1h2v-1h-13l1 -1h4v-1l2 1h4l2 -2l4 1l2 -2l32 -4l2 -1v1h4l2 -1v1l3 -1h2l5 1l2 -1v1l2 -1h4v-1l2 1v-1h3l5 -2h2v1l2 -1l6 -1v1l2 -1l2 1v-1h2l2 -1v1l57 -7l71 -3v-1l2 1v-1h15v2l1 3h-2l-22 2v1l-2 -1v1l-12 1v1l-2 -1v1l-48 2l-2 1v-1l-2 1l-22 3l-2 1v-1l-2 1l-9 2l-7 2l-16 2v1l-2 -1v1l-6 1l-12 2zM-330 1775l1 -1h-5v1h4zM-346 1779v-1h-1v1h1zM-344 1779l1 -1h-1l-1 1h1zM-338 1779v-1h-4v1h4zM-335 1779v-1h-1v1h1zM-336 1782v-2h-6v2h2v-1l2 1h2zM-328 1773v-1h-1v1h1zM-320 1773v-1h-2v1h2zM-326 1774l1 -1h-3v1h2zM-329 1778v-1h-1v1h1zM-331 1780v-1h-1v1h1zM-326 1782v-1h-1v1h1zM-323 1782v-1h-1v1h1zM-11 1551l-1 1h-1v2h-1v-1l-2 1h-1v-2h-1v-1h2v1l1 -1h1l2 -1v1h1z"/><path class="chunk" data-i="4" d="M-62 1550l-1 -1l-1 -1v-1h6v1h-2v1l-2 -1v2zM-40 1548l-6 -1v1h-1v-2h10l-1 1h-2v1zM-9 1548v-1h-1v1h1zM-11 1550l1 -2h-2l1 -2h-1h-4l-2 1v-1h-2v1l-2 -1l-2 1l-1 -1l1 -1h19v1l1 2h-2l-4 3h-1v-1zM-32 1547v-1l-2 1h-2v-1l2 -1h4v1l-2 1zM-48 1549h-2v-3h-2v-1h4l1 1h-1v3zM-42 1544l-5 1l1 -1l6 -1h1l-1 1h-2zM-19 1537h-3l-1 -1l1 -1h2v-1h-2v-1h2l2 1l-1 2v1zM-38 1520l-2 -1v1h-2l1 -2l1 -1v1h3v-2l1 -1h2v3l-4 1v1zM-68 1551h-4l-2 -1v1l-4 1h-2l-2 2v-2h-2l-1 -2h1v-2l2 -1l8 -1l2 2h-2v1l10 -1v1h-4v1h1l-1 1zM-80 1551l2 -1l1 -1h-1l-2 1v1z"/><path class="chunk" data-i="5" d="M-115 1546l-4 1v-4h5v1l2 -2h4v1h-2l-1 1h1v2l-2 -1v1h-3zM-117 1546v-2h-1v1l1 1zM-114 1545v-1h-2v1h2zM-76 1533l-3 1l-5 1l-4 1l-8 4h-2l-2 2v-3l3 -1l4 -1l13 -5h2l2 -1l1 1l-1 1zM-46 1472h-2v-1h2l2 -2h2v1h-2l-2 2zM-46 1470h-1v-2l-1 -1v1h-1v-2h5v2l-2 -1v1v2zM-75 1458v-3l1 1v1l2 -1v-2h1l1 4l-2 -1v1v2l-2 -1v-1h-1zM-124 1515l-2 1l1 -2h-1v-1h5l-1 1l-2 1zM-96 1498l-3 1l1 -1h1l10 -4l3 -1v1l-2 1l-2 1l-8 2zM-133 1495h-1v1l-2 -1h-2v1h-1l-1 -2v-1h2l2 1h3v1zM-68 1492l-4 -2l-3 1l-4 1l-3 1v1l-2 -2l5 -1v-2h1l2 1v-1h4l2 -2l2 -1l1 2v2l-1 2z"/><path class="chunk" data-i="6" d="M-88 1491l-6 -1l-1 -2h1h2v1l2 -1v1h9l-1 1h-6v1zM-80 1463h-2l-1 -1v-2h1v1l2 -1v3zM-77 1460v2h-1l-2 -2v-1h2v1h1zM-74 1459v1v1l-2 -1h-1l-1 -1v-1h3l1 1zM-140 1494v3h-2l-2 -1v-2l2 -1h1v1h1zM-49 1450v-1h-1v1h1zM-51 1453h-3v-1l2 -1h1l-1 -1h-1l1 -1l1 -1h-1v-1h2l2 3v1l-2 2v-1h-1v1zM-34 1419l-2 -1l-2 1v-1h1v-2h-1v1l-1 -1v-1h3v1h1v-2h1l1 2v2l-1 1zM-42 1401v-1h-1v1h1zM-41 1403h-1l-3 -3v-1h3v-1l2 1l1 1h-1l1 2l-1 1v-1h-1v1zM-76 1438h-2v2h1l-1 1h-1v-3l1 -2h2v2z"/><path class="chunk" data-i="7" d="M-86 1421h-1v-1l1 -2l2 1h1l-1 2l-2 -1v1zM-92 1409l-2 -1v-1h2v-1h-2l-1 -2h1h1l3 1h1l-1 1h-1v2l-1 1zM-60 1388h-2l2 -2h2v-1l1 1v1l-3 1zM-42 1380l-2 -2v-2h2l-1 2h1h1l-1 2zM-34 1374h-1l-1 1h-1l1 1h1l-1 1l-4 -1h-1l1 -2v-1h2l2 -1v1h2v1zM-34 1373v-1h2l2 -1v1l-2 2h-1l-1 -1zM-54 1367l-4 1l-2 -2h2h3h3h1l-1 1h-2zM-45 1366h-3v-1l10 -1v-1l1 1v1l-8 1zM-58 1361l-4 -1l-2 -2v-1h5v-2h3v-1h1v2h-2v4l-1 1zM-58 1358v-1h-1v1h1zM-60 1359l1 -1h-1l-1 1h1z"/><path class="chunk" data-i="8" d="M-42 1355h-2v-1h1v-2l1 -1l2 2h1l-1 1l-2 1zM-48 1352l2 -1l1 1l-1 1h-1v1l1 1v-1h1v2l-1 1v-1h-2v1l-1 -1l1 -2h-2h-1l2 -2l1 1v-1zM-12 1293l-2 -1h-5l-6 -1l-3 -1l-2 -2h-2l-2 -2l-3 -1l-6 -3h-1l-4 -4l-2 -4l-2 -3v-2l1 -1l1 -2l4 -1v-1l3 2v2h-1v1h2v1l4 4h1l7 4l5 3h1l2 2l10 1l2 -1v1h2v-1l2 1v-1h4l2 -1v1l2 -1v1l2 -1l6 -1l2 1v-1l2 1v2v2v2h-2v2h-2l-2 1v-1l-18 2l-2 1zM-44 1267v-1h-1v1h1zM-280 1362v-1h-1v1h1zM-257 1361v-1h-1v1h1zM-61 1339v-1h-1v1h1zM-62 1343v-1h-1v1h1zM-71 1362v-2h-1v1l1 1zM-132 1494h1v-2h-3v-1h4l1 -1l-1 -2l2 -2v-1l20 -38l2 -5l10 -15v-1l2 -2l1 -3l3 -7v-2h1l-1 -2h2v-2l1 -5h2v-1l-1 -1v1h-1v-2h3l1 -3l3 -8l7 -19v-2h-17l-2 -1v1h-15l-3 -1l-2 1h-2v-1l-2 1l-16 1l-2 -1v1h-2l-2 -1v1l-4 -1l-2 1v-1h-2v1l-2 -1v1h-40l-2 -1v1l-2 -1v1l-26 -3l-4 -1l-3 -3l-1 -3l-8 -10l-1 -3l-1 -1h-2v-2h-2v-2l-8 -6l-8 -4l-2 -1l-2 -2h-2l-5 -3v-2l-3 -1l-9 -8l-3 -1l-6 -1l-4 -1l-2 1v-1l-2 1h-1l1 3l2 5v2l4 4l6 3l2 2l8 1v2l5 1h2v1l1 1v-1l2 2h2l2 2h2l3 4l1 2h-1l1 2l-2 2l-4 1l-2 2h-2l-8 3v2h-4v2l-2 -1l-1 1l1 2l-4 1v1v1l-1 -1v-1l-1 1v3h2l2 1v-1h2v-1v-1l2 1l6 -2l7 -2h2l1 -1l2 -2l8 -1l2 2v1l1 3l-2 2v2h-1v-1l-2 1l-3 1l-4 1l-3 2l-17 14v2h-1l-3 2l-1 4l-2 2v1h2v1h-2l1 2v1l5 -1l3 -1l4 -1l3 -2l10 -8l2 -1l8 -7l1 -4l1 -1h2h4h2v2v3l-3 10l-1 2h1l-1 6l-1 2h1v4l2 5l4 -1h2l2 -2l2 -1l4 -2l2 -1v-2h2l5 -10l3 -7l1 -3l1 -1h2h3l4 1l-1 8l-2 3h-2v2l-1 4h-2v3l-2 2l-1 2h-2v2l-4 3h-1v1l-1 2h-2v2l-4 1l-2 2l-4 1h-10l-2 -2h-2l-1 -4l-1 -4l-1 -8l-1 -2h1v-6h-1l-4 4l-2 1l-14 9l-7 3h-7h-2l-3 -3l-2 -9l1 -2l2 -5v-2l8 -8h2l3 -4h-1h-2l-5 2h-1l-2 -1v1l-2 -1l-3 -1v-2v-9v-1l9 -10l2 -1l6 -3l6 -4h1l-1 -2h-2l-15 -6l-7 -4l-2 -1l-2 -3l-3 -5l-2 -3v-2l-2 -2v-2l-2 -5v-2l1 -4l5 -3h1l2 1l2 -2h2v1l2 -1l8 1l5 2h2l2 2l7 4v2l12 9l18 10l14 15l1 2l9 10h4l8 2l52 3v1l2 -1h30l2 1v-1h4l2 1v-1l2 1h2l2 -1v1l34 2v-4l-2 -1v1h-1v-2h-1v-1h6l1 -5l1 -2h-1l2 -2v-2l5 -11v-1v-1l1 1v1l1 3l-5 16l-1 2l2 2h-2l-1 2v1l-1 3l-1 2h1l-2 2l-3 14l-1 2h1l-1 1h-1v3l-2 2l-1 4l-1 2h1l-2 2l1 2l-2 2l-1 2l-1 2h1h2v1h-2l-2 1v2l-4 10l-1 2l-2 2l-1 2l-8 14v2l-2 2l-1 2l-1 2l-2 5l-1 1l-1 2h1l-1 1l-2 1l-1 4l-2 2l-1 2v2l-1 4h-1v-1l-1 1v2l-2 2l-1 1l-1 4v4h-3v1h3l-1 1l-2 1l-1 2h2l-1 1l-3 1l-1 2l-18 36l-4 10l-1 2l-2 2l-1 2v2l-1 2l2 2v2l-1 1l-4 1l-2 -2v-2l-1 -2h1v-2l2 -2l1 -3l1 -4l2 -4l2 -6l18 -34l1 -2h1v-1zM31 1145h-2v-5h-1l1 -2v-2l3 -3l8 1l1 2v4l-3 4l-7 1zM31 1144v-1h-1v1h1zM-12 1155h-4v-3v-3v-3h-1l1 -1l2 1v-2h6l1 2v1l1 3l-2 3h-2l-2 2zM-108 1134v-2h-2v-1l4 -1v2h-1v2h-1zM-24 1054l1 -1h-1l-1 1h1zM-56 1062l11 -2l9 -1v-1h-20l-2 2l-2 2h4zM-66 1063v-1h-1v1h1zM-60 1063v-1h-1v1h1zM-68 1065l1 -1l-1 -1l-2 1l-1 1h3zM-80 1076v-1h-1v1h1zM-82 1078v-2h-1v1l1 1zM-84 1080v-2h-1v1l1 1zM-91 1086v-1h-1v1h1zM-79 1087v-1h-1v1h1zM-97 1092v-1h-1v1h1zM-82 1094v-1h-1v1h1zM-86 1103v-1l-1 -1v1l1 1zM-87 1106v-1h-1v1h1zM-88 1107v-1h-1v1h1zM-89 1109v-1h-1v1h1zM-91 1114v-1h-1v1h1zM-97 1123v-1l-1 -1v1l1 1zM-98 1126v-1h-1v1h1zM-103 1127v-1h-1v1h1zM-104 1129v-1h-1v1h1zM-101 1129v-1h-1v1h1zM-69 1074v-1h-1v1h1zM-71 1076v-1h-1v1h1zM-75 1083l-1 2l-1 -1l-1 -1v1l-1 2h1h1l-2 2l-1 2l-1 4l-1 2l-1 1v-1l-1 -1v1v1l-1 1v1l-1 2h1l-1 3l-6 15v3l-2 2l-1 8l-2 2l-1 4l-2 8h-1l1 2h-1l-3 10v6l-4 10l-2 13l-1 5l-1 2h1l-1 2l1 44l1 2h-1l1 2h-1l3 15l6 21l1 2l2 2l1 3l2 7l8 12l1 2l1 2h2l1 2l1 2l4 4h2v2l2 2h2l2 2h2l9 4l15 4l6 1v1l2 -1v1l22 -1l6 -1l16 -4l17 -8l3 -2l4 -4l13 -8v-2l11 -8l1 -2l2 -2l7 -10l2 -3l2 -2l6 -15l2 -10l4 -23v-43h-1l1 -2h-1l-1 -6l-6 -26l-2 -5v-1l-2 -2v-2l-2 -2v-2l-4 -6l-10 -16l-16 -20l-1 -2l-3 -3h-1v-2l-3 -1l-14 -12l-9 -6l-4 -1l-3 -1l-2 -2v1l-2 -1h-2l-2 2h-1l-2 -2h-1l-2 -2l-8 -1l-33 4v1l-1 1v-1h-2l-2 2l-2 -1l-2 2v-1h-1v1h-1v1h-1v1h-1v1h-1v1h-1v1h-1v1l-1 1h1l-1 2h-1l-1 -1v1h-1v2h-1v1h1zM-177 1164v-1h-1v1h1zM-104 1134v-1h-1v1h1zM-107 1134h1v-2l1 -2h-1v-2l2 -2v-2l2 -2v-6l2 -2v-1h3v3h-1l2 2l1 -2l1 -4l2 -2v-4l2 -2l1 -2h-1l2 -2v-2l2 -2l1 -4l2 -2v-2l2 -2l2 -8l2 -2v-1l1 -2h-2v1h-1l1 1v1l-9 6l-9 12l-6 8v2l-1 2h-2l-1 3l-10 11l-1 2l-5 6l-3 2l-11 7l-8 5h-2l-7 1h-13l-6 -1l-6 -1l-2 -2h-2l-2 -3v-1v-3v-2l1 -2h1v1l2 -1l2 1l8 3l4 1v1l2 -1l11 2h2l6 -2l3 -1l4 -2l16 -10l7 -10l1 -2h2l6 -8l4 -8l1 -2l5 -5h2v-2h2v-2l8 -5l2 -1v-2l2 -1h2l2 -1v-1h-3v-2h-2l-9 5l-24 19l-6 4h-2l-2 2l-2 1l-5 1l-12 4h-5v1l-2 -1v1l-7 -1l-11 -1l-12 -1l-2 2h-4l-3 -2l1 -2l2 -4l2 -2h2v-2h2h12l15 2h11l13 -3h2l3 -1l2 -2l3 -1l3 -1l10 -8l11 -8l3 -3l7 -3l3 -1l2 -2l4 -2l3 -1l3 -1l2 -2l5 -2l8 -3l9 -2l10 -1v-1l2 1l6 1l1 2l1 1v-1h1v2l3 1l2 2l3 1l6 2l16 4l5 2l12 8l10 9l4 2l6 7l2 2l14 18l4 6l2 4l14 27l2 3l9 48l-1 30l-4 25l-2 10l-8 18l-2 5l-9 12l-9 9l-4 2l-8 6l-13 9l-1 1l-2 2h-2l-2 2h-2l-2 2l-2 1h-2l-4 2l-4 1l-2 1l-2 2l-5 1l-3 1l-2 1v-1v-1l-1 1l-1 1v-1l-2 2h-2v-2h-23h-2l-2 1l-3 -1l-2 -1l-2 -2l-5 -1l-8 -2l-3 -1h-2v-1l-2 1l-2 -2l-1 -1l-5 -2l-8 -5v-1l-2 -3h-2l-6 -9l-1 -2l-3 -4l-1 -2l-1 -4l-1 -2l-2 -2l-1 -2l-6 -18l-2 -4v-2l-2 -4l-2 -18h-1l1 -2h-1v-18l1 -2h-1l1 -20l-1 -2h1v-1h-2l-3 3l-7 10l-12 12l-10 7l-13 13v2h-1h-1l1 2l-2 1h-2l-2 -1l1 -4v-2l13 -13l10 -7l2 -2l4 -4h-2l-5 4l-5 2h-2l-2 2l-6 1v1v1l-2 -1l-2 2l-6 2l-6 -1l-4 -1l-2 -2l-2 -2l-1 -4l1 -2v-2l4 -1l1 1v2l3 2h2h3h4l10 -4l7 -2l5 -2l13 -8l4 -4l3 -7l1 -3l1 -2h-1l1 -2l1 -6l1 -2h-1l1 -2l1 -6l2 -6l1 -2l-1 -1l-1 1l-1 6l-2 1h-1v4h-2l-1 3l-2 2l-1 3h-1l-6 5v2l-2 2l-14 2v-1l-2 1v-1l-2 1l-16 -2l-4 -1h-2l-2 -1l-2 -2h-2l-3 -4l-2 -2v-4l-2 -2l1 -9v-2l2 -4l1 -2l2 -1l8 -3h4h1l6 5v2l1 2h-1v2l-2 2v2l-2 3h-4l-3 -3h1v-6h-2l-3 1l-1 2l-1 4v4l2 5l3 3l3 1h2l4 1l7 1l22 1l6 -7l2 -2l2 -4l2 -4l1 -2l2 -2v-2l2 -2v-2l2 -2l1 -1l4 -7v-2h1l-1 -2l2 -2v-1l2 -2v-2h2l1 -3l1 -2v1l1 -1h1v1l1 -1zM-116 1158l4 -5h2l2 -5l2 -10l1 -2l-1 -1v1v1l-4 7l-3 7l-1 3l-3 3l1 1zM-109 1139v-1h-1v1h1zM-110 1140v-1h-1v1h1zM-112 1144v-1h-1v1h1zM-113 1147v-1h-1v1h1zM-114 1148v-1h-1v1h1zM-115 1151v-1h-1v1h1zM-113 1158v-1h-1v1h1zM-118 1163v-1l1 -2l-1 -1l-1 1v2l1 1zM-112 1173v-1l-1 -1v1l1 1zM-118 1198v-2l1 -4h1l-1 -2h1l2 -13l1 -3l-1 -1v1v1l-2 2l-2 7l-1 4l-1 10h2zM-120 1199v-1h-1v1h1zM-117 1199v-1h-1v1h1zM-122 1202l1 -2h-1h-2l-1 2h1h2zM-119 1201v-1h-1v1h1zM-124 1204v-1h-1v1h1zM-125 1205v-1h-1v1h1zM-134 1214v-1h-1v1h1zM-135 1215v-1h-1v1h1zM-136 1216v-1h-1v1h1zM-138 1217v-1h-1v1h1zM-139 1218v-1h-1v1h1zM-12 1341v-1h-1v1h1zM-6 1340v-1h-1v1h1z"/><path class="chunk" data-i="9" d="M324 1832v-2l2 1l1 1h-1v2v1l-2 -2l1 -1h-1zM319 1832h-1h-1l1 -2l2 -2l1 2l-1 1v-1h-1v2zM364 1782l-3 -1l-5 1v-2l2 -1l1 1h2l3 -1v1l2 -1h2v2h-4v1zM358 1781v-1h-1v1h1zM372 1783h-2l-1 -1h1l-1 -2l-1 -2h2l2 1v-1l2 1h1l-1 1h-1l1 2l-2 1zM371 1780v-1h-1v1h1zM354 1782l-3 -1v-1l1 -1v1h1v-2h1v1h2v1h-1v2h-1zM284 1795h-2v-2h8v1l-6 1zM330 1780l-25 -1l1 -1l10 1l2 -1v1h12v1zM276 1755h-7l1 -1l4 -1h2v2zM198 1819h-2v-1h1v-2h3v2l-2 -1v1v1z"/><path class="chunk" data-i="10" d="M208 1817l-1 -1l3 -1v-2h2v1h1v-2h1l2 2h-2l-2 1l-4 1v1zM206 1806h-2v-2l2 1v-1h2l-2 2zM179 1819v-1h2l1 1l1 1h-1h-2v-1h-1zM184 1782h-8v-2h10l-2 2zM47 1740v-1h-1v1h1zM36 1742v-1h-1v1h1zM29 1743v-1h-1v1h1zM31 1743v-1h-1v1h1zM90 1735v-1h-1v1h1zM92 1735v-1h-1v1h1zM70 1738v-2h-1v1l1 1zM73 1738v-1h-1v1h1zM76 1738v-1h-1v1h1zM93 1738v-1h-1v1h1zM66 1739v-1h-1v1h1zM55 1740v-1h-1v1h1zM140 1730v-1h-1v1h1zM130 1731v-1h-1v1h1zM117 1731l1 -1l2 1v-1h4l2 1l2 -2v1l2 -1l2 1l2 -1v1l2 -1l5 -1v2h2l2 -1l3 -1v-1l1 1v1h2l5 -2l2 1v-1h10v-1l2 1v-1l32 -2v1l2 -1l68 1v1l2 -1l96 4v1l2 -1v1h11l39 6l2 1v-1l2 1l14 1v1l2 -1v1l6 1l2 -1v1l23 4l60 14l33 8l41 13l9 3v4l-2 1l-2 1h-2l-6 -4l-33 -10l-8 -4l-51 -12l-6 -2l-53 -10l-7 -1v-1l-2 1v-1h-7l-49 -8v-1l-2 1v-1l-110 -4l-2 -1v1l-28 -1l-2 -1v1l-2 -1h-24v1l-2 -1h-6v1l-2 -1l-6 1l-2 -1v1l-2 -1l-2 1l-2 -1v1l-10 1l-2 -1v1l-12 1v-1l-2 1h-6l-2 1v-1l-10 2l-2 -1v1l-16 1l-2 1v-1l-2 1l-16 1l-2 1v-1l-56 5v1l-2 -1v1h-6v1l-2 -1v1h-5l-6 2h-2v-2h-1l-2 2l-2 -2h1v-2h-1h-1l1 -2l2 1l5 1v-2l1 -1l2 2l1 -1l1 -1v1h2v1l1 -1v-1l1 1v1h3l-1 -1h-1l1 -1l2 -2l2 1h2l-1 2h1h2h1l-1 -2l2 -1h1v1l1 1l2 -2v1v1h4l1 -1h-1v-2h2l2 1l2 1v-2h-1l1 -1l8 -1v2h2h1l-1 -2h6v-1l2 1l30 -3v1l1 -1zM136 1733v-1h-1v1h1zM239 1727v-1h-1v1h1zM419 1738v-1h-1v1h1zM-141 1563h1l2 1v2l2 -1h1l23 9l11 4l11 1v1l2 -1l36 5l2 -2l1 -2v-1l1 1l1 2h-1h-1l1 2l4 1l2 -1v1h10v1l2 -1v1l17 1l2 -1h1l2 1v-1h2v1l2 -1v1l2 -1v1l2 -1v1l8 -1l2 1v-1l2 1v-1h6v-1l2 1v-1l2 1v-1l2 1v-1h2l2 1v-1l18 -1v-1l2 1v-1l2 1h2l16 -2v-1l2 1v-1h2l1 -9l1 -1h3v9h2l10 -2l21 -6l5 -2l4 -2l3 -1l3 3v4l-1 1l-10 3h-6l-24 6l-6 1v1h1l1 3l4 12l12 27l10 33l4 12l5 21l1 2h2l5 2l3 1l10 2l30 1l40 6l4 1l2 3v2l-2 2v2l-2 1l-4 1l-3 -2v-4l-1 -1l-24 -5v-1l-2 1v-1l-18 -2l-2 1v-1h-2v1l-2 -1h-6v1l-2 -1v1h-2l-2 -1v1l-22 -1l-2 -2l-4 -1l-1 -2l-2 -2l-1 -5v-4l-1 -5h-1l1 -2l-3 -10l-6 -21l-2 -9l-4 -10l-6 -17l-10 -24l-1 -4l-17 2v1l-2 -1v1h-8l-2 1v-1l-2 1h-10v1l-2 -1h-78l-2 -1v2l-4 10l-4 6l-6 9l-20 27l-24 26l-6 9l-1 1l-2 2v2l-3 4v1l-2 5v4l1 6l2 2v2h1h1l-1 2l2 2h2v2l6 5l6 4v2h2l8 9l8 10l5 2l12 16l1 2h-1l1 2l-2 3h-4v-1l-2 -2v-2l-2 -2l-2 -3l-3 -5l-2 -2l-5 -5h-1l-4 -7h-2v-2l-11 -11l-4 -2l-4 -3l-2 -2l-2 -2v-1h-2l-2 -3l-1 -2l-5 -6l-1 -4l-1 -4l-2 -3v-2l1 -3h2l1 -2l2 -3l4 -5l19 -22h1l4 -4l11 -13h2l1 -3l17 -22l7 -11l6 -13l1 -2l-41 -6l-13 -4l-14 -5l-9 -4h-2l-2 -2l-2 -1h-2l-5 -3l1 -2v1l1 -1zM-139 1565v-1h-1v1h1zM247 1256l-8 8l-3 2h-2l-3 2l-4 -1l-11 3v-1l-2 2h-4v-1l-2 1l-14 3h-4h-6h-2v-6l2 -2l20 -2v-1l2 1l2 -1v1l2 -1l13 -1l7 -2l5 -2v-2h2l1 -4l-2 -3h-2v-1l-2 -3h-2l-3 -1l-3 -1l-1 -1v-2l-1 -4l4 -3h2l2 1v-1l7 -1l10 -4l5 -3l1 -1l-1 -4v-2h-3v-2l-4 -1l-7 -2v1l-2 -1l-7 1l-5 1l-2 2h-2l-2 2l-2 1v2l-6 1l-2 -3l-1 -2h1v-2l2 -2h2v-2l9 -4l9 -5l4 -3l2 -2l2 -2l8 -9l2 -3v-2l1 -4l-1 -1l-6 1l-7 2l-2 2l-3 2l-4 2l-3 2v2l-17 14v2h-2l-1 2l-2 4h-2v2l-2 2v2l-3 2l-3 6l-1 1h-6l-2 -3l1 -8l4 -20l2 -9v-8l-1 -7l-2 -2h-2l-9 10l-2 4l-1 3l-1 3v5l-1 2v1l1 2h-1l2 14l6 23l2 4v1l2 2l-1 7l-2 5l-1 1h-2l-10 13l-12 14l-2 2h-1l-4 7h-2l-4 7l-1 1h-2l-2 3l-28 31l-2 4h-2v1l-2 2h-1v2l-3 2l-32 25l-3 1l-1 1l-3 3l1 4l6 30l12 35l2 9l16 47l2 6l1 3l2 2l5 8l4 6l2 4l2 4l2 2l2 2h1l4 6l1 2h2l2 2v3h2v2h2l4 4l6 3l2 1l2 3l-1 4v2h-2l-1 -1l-2 2l-2 -1l-15 -14v-2h-2l-2 -4l-9 -10l-4 -7l-6 -9l-1 -2l-2 -2v-2l-2 -2l-1 -1l-8 -19l-15 -46l-4 -14l-1 -5l-10 -34l-2 -6v-4l-2 -11h-3v-2l2 -2l-4 -41l1 -7l2 -2l-1 -2h1h1l1 -2v-2l1 -2h1v2v3v2l-1 4l-1 7l1 2h-1l1 2l1 8l4 26v1l2 -1l2 -2l24 -18v-2h2l4 -4v-2l2 -2h2l3 -4l7 -8l2 -2l6 -6l2 -2h1l23 -28l1 -3h2l12 -17h2l11 -15l1 -3l3 -2v-2l1 -2l-2 -2l-4 -15l-3 -12l-1 -5h-1l1 -2h-1v-21v-4l2 -5l1 -2l9 -10l2 -2h1v-3h1l2 -2h4v-1l2 1v-1l2 1l4 1l2 2l2 4l2 2l-1 2l1 6v10v4l-4 10v4h-1l1 2l3 -2l7 -10l6 -6h2v-2l4 -3l5 -3v-2h2l3 -2l6 -5l3 -1v-2h1v1l2 -2l2 1l4 -1l2 -2l2 1v-1l1 1v1l2 -1h1l2 2l3 4h-1l2 2l-1 2v1h2v2h-2v1l1 2h-2v2l-5 8l-7 7l-5 5h1l5 1l3 1l4 2l4 2l3 2v2l2 2v2v5v1l-1 2h1l-1 2h-2l-1 2l-1 2l-2 -1v1l-4 1v1v1l-2 -1v1l-3 1l-3 1h-2l-1 1l1 1h1v2h2l3 5v2l1 6zM54 1318v-1h-1v1h1zM194 1210v-2h-1v1l1 1zM246 1169v-1h-1v1h1z"/></g><g class="f live" data-r data-f="0" fill="var(--live,#000)" fill-rule="evenodd"><path class="chunk" data-i="8" d="M-331 1102l-3 2l-4 2l-11 6l-7 4l-4 1l-13 5h-3l-2 1v-1l-2 1h-16v-1l-2 1v-1h-6v-1l-2 1v-1l-3 -1l-6 -2l-5 -4l-3 -2v-2h-1l-3 -2l-2 -4l-4 -4l-2 -4l-2 -2v-2l-2 -2l-1 -7h-2l-1 -4l-1 -2v-1l1 -2l-2 -2h1v-4h-1l1 -2l1 -2l-1 -2h1l1 -4h-1l1 -1h1l1 -3l2 -6l1 -2h-1v-1h2v-1h-1l2 -2l1 -2l2 -4l1 -2l5 -4h1l6 -3l3 -1h10h4l3 2l5 2l7 8l1 2l4 4l1 3l1 3l2 5l-1 6l-2 5l-1 1l-8 5l-10 3l-1 1l1 2h-2l-1 5l-1 4h-4l-2 -3l1 -9l1 -5l4 -4h2l2 -1l4 -2l4 -2l3 -3l-1 -8l-3 -2l-4 -7l-6 -3l-2 -1l-3 -1h-5l-3 1l-2 1h-2l-4 4l-1 2l-4 6l-1 3l-3 8l-1 6v6l5 14l1 2l1 3l5 7l2 3l4 3l2 1l4 3l2 1l2 1l8 2l8 1l2 1v-1l2 1l12 -2v-1l2 1v-1h3l9 -4l10 -4l14 -8l2 -1l2 -3h2l2 -2l2 -1l9 -5l4 -4l3 -1v-2l4 -3l14 -11v-2h2l17 -21l3 -5v-1l2 -2l1 -3l1 -5l4 -17l2 -6l1 -3h1v1l1 -1l-1 -2h1l1 -4v-1l1 1l1 2v4l-2 4v2l-6 21l-2 6l-4 8l-6 11l-11 14l-1 1l-12 9v2l-17 14l-3 2h-2l-1 2v1l-3 1l-4 4l-3 2zM-255 998v-1h-1v1h1zM-256 1001v-1l-1 -1v1l1 1zM-398 1030v-1h-1v1h1zM-394 1033v-1h-1v1h1zM-388 1039v-1h-1v1h1zM-382 1047v-1h-1v1h1zM-258 1007v-1h-1v1h1z"/><path class="chunk" data-i="10" d="M309 1430l-3 2l-10 3h-7l-4 -1l-6 -2l-9 -4l-4 -2l-4 -2l-8 -6v-2l-2 -1h-1v-2h-2v-3l-1 -1h-2l-1 -5l-2 -2l-1 -1l-2 -7l-1 -3l-1 -7l-1 -2h1l-1 -2h1v-5l4 -11l1 -3l8 -13l13 -17l1 -3l15 -15l32 -27l32 -24l16 -10l21 -10l3 -1l2 -2l1 -1l6 -2l3 -1l2 -2l1 -1l17 -8l17 -6l25 -10l18 -4l10 -2l4 -1l1 1l-1 1h-5v2l-32 9l-41 16l-60 32l-41 30l-15 13l-2 1v2h-2v2l-4 3l-18 17l-2 3l-14 21l-6 9l-2 5l-1 8v13l1 5l2 2v2l3 4l2 4l1 2l4 4l8 6l8 4l4 1l2 2l3 1l4 1h9l6 -2l4 -1l4 -3l2 -1l2 -4l4 -4l2 -3v-2l1 -3l1 -6l1 -2h-1l-1 -7l-1 -4l-1 -5l-1 -2l-3 -4l-5 -5l-4 -2l-6 -1h-4h-2l-2 1l-2 1l1 6l-1 2h1v4l-3 2l-2 -2l-1 -4l-1 -1h-2v-1h1v-2v-5l1 -4h2l2 -2l2 -1h2l4 -2h6l5 2h2l7 4l5 6l3 6l5 16l1 5l-2 9l-1 6l-2 2l-3 4l-3 6l-3 2l-2 1l-2 2l-3 1zM520 973l-2 1l1 -2l1 -2l2 -2l1 -2l3 -3l1 1l-3 2l-2 4l1 2h-1l-2 1z"/><path class="chunk" data-i="11" d="M302 931v-1h-1v1h1zM315 930v-1h-1v1h1zM273 947v-1h-1v1h1zM350 954v-1h-1v1h1zM517 979v1l-4 4l-5 8l-12 12l-19 16l-12 8l-43 18l-33 10l-12 1l-30 -1l-13 -2l-30 -8l-11 -4l-3 -1v-1l-2 1l-2 -2l-1 -1l-8 -4l-3 -2l-4 -3l-4 -2l-9 -9l-1 -3l-2 -5v-4h-1l1 -2h-1l1 -16v-4l3 -7l4 -10v-1l2 -2v-4l2 -2v-2l2 -2h-1l1 -4h1v1l3 -3h-1l2 -3h2l1 -1h-1l4 -4l3 -2v-2l1 -1l2 -1l15 -4l3 -1l2 -1v1l2 -1v1l2 -1v2h2l-1 -2h1h1v2h1h1l-1 -2h6l2 1v-1l2 1h6v1l2 -1v1h3l5 2l7 4l2 1l11 13l2 3v2l1 3l3 14v4v2h1l-1 2v3l-2 4l-4 7l-3 6l-3 2v-1l-1 1h-1v2l-2 1h-1v2l-11 5l-2 1l-2 2l-10 2v-1l-2 1h-4v-1l-2 1l-3 -1l-4 -1l-3 -1l-2 -2h-2l-6 -6l-1 -2l-3 -6v-2l2 -5l1 -3l1 -2h2l2 -2l11 -2h6l3 1l5 5l1 2h-1l1 8h-2l-2 -2l-2 -2h-2l-4 -4h-2l-5 2h-3l-1 2l1 3v2l1 1l3 3l2 2l4 1h4l4 1v-1l2 1l8 -2l2 -2h1l3 -1l4 -3l4 -2l4 -5l1 -2l3 -5l1 -2l1 -3v-8l-2 -12v-2l-6 -8l-2 -2l-3 -2l-3 -2l-3 -2h-2l-5 -2h-4v-1l-2 1v-1l-19 1l-8 2h-3l-2 1l-2 2l-10 7l-1 2l-2 2l-1 3v2l-6 8l-6 14v3l-1 2h1l-1 2v14l-1 2l2 2h-1l1 2v1l2 3v2l8 8l6 4l8 3l2 1l2 2l4 1l14 5l7 2l5 2l17 5l20 3l23 1v-1l2 1v-1h6l22 -6l5 -1l16 -6l24 -11h1l2 -2h2l2 -2h2l4 -2l3 -2l23 -20l4 -2l1 -2v-1h1l3 -3l2 -2l7 -10l2 -2l4 -4l-1 3l-1 2h1zM513 984v-1h-1v1h1zM510 988v-2h-1v1l1 1zM508 990v-1h-1v1h1zM507 991v-1h-1v1h1z"/></g><g class="f live" data-f="1" fill="var(--live,#000)" fill-rule="evenodd"><path class="chunk" data-i="8" d="M-331 1104l-2 1l-3 3l-9 7l-8 4l-4 2l-14 5h-4l-1 1l-1 -2l-1 1l-17 -3l-2 -1h-1l-1 -1l-6 -1l-1 -1l-1 1l-1 -1l-3 -1l-6 -3l-5 -4l-2 -2v-1h-2l-2 -3l-2 -2l-4 -5l-2 -3l-2 -3v-1l-2 -2v-6l-2 -1v-2v-2l-1 -1l2 -1l-2 -1l1 -1l1 -3h-1l1 -1l1 -3v-1l1 -1l1 -4h-1v-1h2v-3l2 -7l1 -1l-1 -1h1l1 -1l-1 -1l1 -2l1 -1l2 -3v-2l4 -4h2l6 -3l3 -1l11 -1l5 1h3l5 2l7 5l1 2l2 3l1 2v3v6l-1 6l-2 4l-2 2l-8 4l-9 2l-1 2v1l-1 1l-1 6l-2 4l-2 1l-2 -3l1 -12l1 -5l5 -5h1l2 -1l4 -1l5 -2l3 -2l1 -7l-3 -2l-3 -4l-7 -2h-2h-3h-6l-4 1l-2 1h-1l-5 4l-1 2l-3 4l-1 3l-2 7l-1 5l-1 6l5 13v2l2 2l5 8l1 3l3 3l2 2l3 2l2 2l2 1l8 2l9 2l1 1l1 -1l1 1l14 -1l1 -1l2 2l1 -2h3l11 -4l10 -6l11 -7h1l3 -2h2l2 -2l2 -1l10 -6l5 -4l3 -2v-2l4 -3l13 -12v-1l1 -1l21 -20l2 -5l1 -2l2 -2v-2l1 -4l1 -14l1 -6v-3l1 -1l1 2l1 -1v-1l-2 -1l1 -1l1 -6h1l1 4l1 5l-1 4l-1 2l-2 17l-1 5l-3 8l-8 12l-13 13l-1 1l-10 9l-1 2l-18 17l-4 2h-2l-2 2v1l-3 1l-4 3l-3 2zM-255 1003v-1l-1 -1v2h1zM-256 1006v-2h-1v1l1 1zM-395 1033v-1h-1v1h1zM-390 1035v-1h-1v1h1zM-385 1038v-1l-1 1v1l1 -1zM-381 1044h-1v1l1 -1zM-257 1012v-1h-1v1h1z"/><path class="chunk" data-i="10" d="M307 1427l-4 1l-10 5l-6 1h-4l-5 -2l-7 -3l-3 -2l-2 -2l-7 -6v-1l-2 -2h-1l-1 -1h-1l-1 -3l-2 -1h-1l-2 -4l-3 -2l-1 -1l-4 -7l-1 -4l-2 -9l-1 -1l1 -1l-1 -2l1 -1v-5l3 -11v-3l7 -15l14 -17l2 -2l13 -13l34 -27l34 -24l16 -8l18 -10h3l2 -3h2l8 -4h3l2 -2l2 -1l17 -5l19 -5l25 -14l15 -5l11 -3l5 -1h1l-2 2h-5l-1 1l-28 12l-43 17l-61 29l-43 30l-19 12l-2 2v1l-2 1v1l-3 4h-1l-16 15l-1 2l-17 22l-4 11l-1 6v8l2 14l2 6l3 2l1 1l3 4l3 3l1 1l5 4l6 6l5 4h2l1 2l3 1l3 1l9 -1l6 -3l5 -2l5 -2l2 -1l3 -2l4 -4l2 -2l1 -2l1 -3v-7l1 -1l-1 -2l-1 -7v-5l-2 -5l-1 -3l-3 -2v-1l-3 -3l-4 -1h-4l-4 1l-1 1l-3 1l-1 2v6l-1 1h1l-1 3l-3 3l-2 -2v-2l-2 -2l-1 1v-1l1 -1v-1v-6l2 -4h1l2 -3l3 -1l2 -1l4 -1h4l4 1h1l5 1l5 4l4 5l4 18v6l-1 10l-1 5l-1 2l-3 3l-4 5l-3 2h-2l-4 2l-2 2zM522 978h-2l1 -1v-2l2 -3l1 -2l3 -3h1l-3 4l-2 4l1 1v1l-2 1z"/><path class="chunk" data-i="11" d="M305 931v-1l-1 1h1zM314 929v-1h-1v1h1zM276 951h-2h2zM349 953v-1h-1v1h1zM520 983v1l-3 4l-4 6l-14 14l-20 14l-11 7l-46 19l-37 7l-12 1l-24 -1l-14 -2l-29 -4l-10 -6l-2 -1l-2 -1l-1 1l-2 -3l-2 -1l-11 -6l-4 -3l-6 -4l-3 -2l-8 -8v-2l-1 -4l1 -3l-1 -1l1 -1l-1 -1l4 -16l1 -4l2 -7l3 -10v-1l1 -2v-2l2 -2l2 -2h-1l1 -3l1 1l3 -2l-1 -1l3 -2h2l1 -1l-1 -1l4 -4h2l3 -3v-1l1 -1l2 -1l14 -8h2l1 -1l1 -1l1 1l1 -1v1h1v-1h1v1h1v-1l5 -1h1h1h6h1l2 -1l1 1h2l6 2l8 4l2 1l10 16l2 4l1 2l1 3l4 13v4v2l1 1l-1 1v5l-1 4l-5 8l-4 6l-3 2v-1l-1 1v1l-2 2h-1v1l-10 5h-3l-2 3l-9 2l-1 -2l-2 2l-4 -1l-1 -1l-1 1l-4 -1l-5 -2l-4 -1l-2 -2h-3l-7 -6l-1 -3l-4 -7v-2l2 -5l1 -4l2 -2h1l2 -2h14l7 1l5 1l5 5l1 1l-1 1l1 7h-2l-2 -2v-1l-2 -1l-2 -1l-5 -3h-3l-6 1h-4l-2 1l1 4l2 2v2l4 2h1l3 2l4 1l5 1l4 1l1 -1l1 1l8 -1l2 -2h1h3l3 -3l3 -1l4 -4l1 -2l3 -6l1 -2l1 -3v-9l-2 -13l-1 -2l-5 -10l-3 -3l-2 -2l-4 -3l-3 -2l-3 -1l-5 -2h-4l-1 -1l-1 1l-1 -1l-13 4l-6 4l-3 2l-2 1l-2 2l-10 7l-2 1v1l-3 2l-1 1l-1 2l-4 6l-5 14l-1 4l-1 1l1 1l-1 1l-3 16l-1 1l2 2l-2 1l1 1v1l1 3v1l8 7l7 4l10 5l3 2l2 2l4 2l13 9l6 2l5 1l19 2h19l17 1l1 -1l1 1l1 -1l5 -1l27 -3l6 -1l13 -2l26 -13h2l2 -2h3l2 -2l2 -1l4 -1l3 -2l24 -18l4 -2l2 -2v-1l2 -1l3 -3l2 -3l6 -9l1 -2l2 -3l1 1l-1 2v2h1zM517 987v-1h-1v1h1zM514 991v-2h-1v1l1 1zM513 993v-1h-1v1h1zM512 994v-1h-1v1h1z"/></g><g class="f live" data-f="2" fill="var(--live,#000)" fill-rule="evenodd"><path class="chunk" data-i="8" d="M-327 1101l-3 2l-4 2l-14 6l-7 3l-4 2l-12 6l-3 2l-1 1l-1 -1l-1 1l-15 3l-1 -1l-2 1l-1 -1h-5l-1 -1l-2 1l-1 -1l-3 -1l-8 -4l-7 -5l-4 -4v-1l-2 -1l-3 -3l-2 -4l-4 -5l-1 -3l-1 -2v-2l-2 -2v-7l-1 -1v-4l-1 -2v-2l1 -1l-2 -2l1 -1v-3l-1 -1l1 -1l1 -3l-1 -1l2 -1l1 -3l-1 -1h1h1l1 -2l4 -5l1 -1l-1 -1l2 -1l-1 -1l2 -1l2 -2l2 -3l1 -2l4 -5l1 -1l6 -4l2 -2l9 -2l3 1h2l4 2l5 9l2 3l3 4l2 4l1 3l2 6v7l-2 5l-2 1l-8 5l-9 2l-1 1l1 1h-1h-1v4l-1 4h-4l-4 -3l1 -8l1 -4l4 -3h1l2 -1l3 -1l5 -3l2 -3l-1 -9l-3 -4l-3 -7l-4 -5h-1l-2 -1l-4 1l-2 1l-1 2h-2l-3 6l-1 2l-5 6l-1 2l-5 7l-2 5l-1 6l1 14l1 2l1 3l6 8l1 3l5 5l4 2l5 4l3 2l3 2l10 3h9l1 1l1 -1l1 1l10 -4l1 -1l1 1l1 -1l2 -1l8 -4l12 -4l16 -8h2l3 -4h1l2 -3l2 -1l6 -7l4 -3l2 -2l1 -1l4 -2l15 -10v-1l1 -1l15 -23l3 -4l1 -1l2 -2l1 -2l3 -5l6 -17l2 -7l1 -2v-1l1 1v-1l-1 -1l1 -1l1 -4h1v2v4l-1 4l-1 2l-6 22l-3 6l-6 6l-7 10l-9 16l-2 1l-10 8l-1 1l-17 13l-2 2l-1 1l-1 2l-1 1l-2 2l-3 4l-2 2zM-252 998v-1h-1v1h1zM-253 1001v-2h-1v1l1 1zM-399 1025v-1l-1 1h1zM-397 1028l1 -1h-1l-1 1h1zM-392 1035v-1h-1v1h1zM-386 1045v-1h-1v1h1zM-255 1007v-1h-1v1h1z"/><path class="chunk" data-i="10" d="M306 1432h-2l-10 2l-7 -2l-3 -1l-6 -4l-10 -4l-5 -2l-3 -1l-8 -4v-1l-1 -1h-1l-1 -1l-1 -1v-2l-1 -1h-1v-4l-1 -2l-1 -2l-2 -6l-1 -3l-1 -6h-1l1 -1l-1 -1l1 -1v-4l3 -12l1 -3l8 -15l10 -16l2 -2l18 -19l30 -26l30 -22l19 -9l23 -13l3 -1l1 -1l2 -1l5 -2h3l2 -2h2l17 -9l14 -9l27 -10l17 -3l7 -4l3 -1l-1 2l-3 1v2l-29 8l-39 19l-64 33l-41 29l-14 12l-1 2v1h-1v2l-3 3h-1l-20 21l-1 3l-12 19l-5 10l-2 5l-2 9v11v5l2 2v1l1 4l2 3v2l4 3l8 4l8 3h4l2 2l4 1l3 2l8 2l5 -1l3 -1l4 -2l1 -1l2 -4l4 -5l2 -4l1 -2l1 -4l1 -8l2 -1l-1 -1v-6l-1 -3v-4v-2l-2 -3v-1l-4 -4l-4 -2l-7 -2h-4l-3 1h-3l-1 2l1 5l-1 1l1 1l-1 4l-2 2l-2 -2l-1 -3l-2 -2h-1l1 -1l-1 -2v-4l2 -4h1l3 -1l2 -1l3 -1l4 -1h7l6 1l2 1l6 4l3 5l2 6l4 13v5l-1 11l-1 7l-3 3l-2 5l-4 7l-3 3h-2l-2 2l-3 1zM523 974l-2 1l1 -1l1 -3l1 -3l1 -2l2 -2l1 -1l1 1l-3 3l-1 4l1 1h-1l-2 2z"/><path class="chunk" data-i="11" d="M302 929v-1h-1v1h1zM315 929v-2h-1v1l1 1zM272 945l1 -2l-1 1v1zM348 956v-1h-1v1h1zM520 980v2l-5 4l-6 6l-13 11l-16 19l-13 8l-43 20l-35 4l-11 1h-36l-10 -1l-24 -7l-14 -2l-3 -1h-1l-1 1l-2 -2h-2l-8 -4l-3 -2l-5 -4l-3 -3l-12 -13l-1 -4l-3 -5l-1 -4l-1 -1l1 -1l-1 -1l2 -16l1 -4l4 -6l6 -8l1 -2l2 -2v-4l2 -2v-1l2 -2l-1 -1l1 -4h1v1l2 -3l-1 -1l2 -4h2l-1 -1l3 -4h1l3 -3v-1l1 -1l2 -1l16 -4h4l1 -1l1 1l1 -1l1 1l1 -1v1v1h2l-1 -1l1 -1h1v2h2l-1 -1v-1l6 1l1 1l1 -1v1h5l1 2l1 -2l1 2h2l4 3l7 5h1l15 14l4 3l1 3l1 3l4 15v3l-1 1l1 1l-1 1v3l-2 3l-3 7l-2 5l-3 3h-1v1l-1 1l-1 2h-1l-1 2l-11 5l-3 1l-3 1l-9 2h-2l-1 1h-4l-1 -1l-1 1h-4l-4 -2h-3l-3 -3h-2l-5 -7l-1 -3l-3 -8v-2v-5l1 -3l1 -1h1l2 -2l10 -1l7 1l4 2l6 6v1l1 2l-1 1l1 8h-3l-2 -2v-1l-2 -2h-2l-5 -5h-2h-5h-2l-1 1v4l1 2l1 2l3 3l1 1l2 2l3 1l5 2h4l1 -1l1 1l10 -1l3 -2h2l4 -1l4 -3l4 -3l4 -5l1 -3l3 -6v-2l1 -3l-1 -8l-5 -12l-1 -2l-8 -8l-3 -3l-3 -1l-4 -3l-2 -1l-1 -1l-4 -2l-3 -1l-1 -1v1l-1 -1l-19 -2l-9 1l-4 1h-2l-3 2l-8 9l-1 2v1l-2 2v3l-1 3l-5 8l-7 11l-1 3l-2 1l1 1l-1 1v15l-1 1l2 3l-1 1l1 1l1 2l2 4v2l11 12l6 5l8 4l3 1l3 2h4l16 2l7 1l5 2l10 4l19 2l27 1l1 -1l1 1l1 -1h5l20 -1l6 -2l21 -6l22 -11h2l2 -2h2l2 -1l2 -1l4 -2l3 -2l21 -23l2 -2l2 -1v-1h1l3 -2l3 -3l9 -8l2 -3l3 -4l1 1l-1 2l-1 2h1zM515 985h-1v1l1 -1zM512 989v-1l-1 -1l-1 1l2 1zM509 991v-1h-1v1h1zM508 992v-1h-1v1h1z"/></g><g class="f jolt-f live" data-f="3" fill="var(--live,#000)" fill-rule="evenodd"><path class="chunk" data-i="8" d="M-337 1097l-4 3l-4 4l-8 8l-3 3l-3 1l-10 2l-4 1l-2 1v-1l-2 1l-17 1l-1 -1l-1 1l-1 -1l-5 2l-1 -1l-1 1l-1 -1h-2l-4 -1l-4 -2l-3 -2v-2h-1l-3 -2l-3 -4l-6 -8l-4 -5l-3 -3v-3l-4 -4l-3 -9l-1 -1l-1 -3l-1 -2l-1 -1l1 -1l-1 -1l1 -2l-1 -1h1l1 -2l-1 -1l1 -1l1 -2l-1 -1h1l1 -3l3 -8l1 -1l-1 -1l1 -1l1 -1v-1l2 -2l1 -3l3 -3l2 -3l5 -4h2l5 -2h3l7 1l3 1l3 1l5 3l9 6l1 3l3 4l2 3l1 4l2 6l1 7l-1 5l-1 2l-6 7l-10 3l-2 2l2 1l-1 1h-2l-1 6l-2 4h-4l-3 -4l1 -13l1 -6l6 -6l2 -1l3 -1l4 -1l4 -3l2 -3l-3 -9l-3 -4l-5 -5l-7 -4h-2l-3 -1l-5 -1l-3 1h-3l-1 1l-6 4l-2 2l-5 8l-2 3l-4 8v5l1 5l10 16l1 2l3 4l8 11l2 3l3 4l2 1l3 1l2 1h2l7 1l10 -1l2 1l1 -1l1 1l15 -2h2h1h1l2 -1l6 -2l5 -7l11 -11l2 -1l4 -4l2 1l3 -2l2 -1l8 -4l4 -2l2 -1v-2l3 -3l15 -16l1 -2h2l20 -18l1 -4l1 -1l1 -2l1 -2l1 -6l7 -15l4 -4l1 -2h1l1 1l1 -1l-1 -1l1 -1l1 -3v-1l2 1v2v3l-2 3l-2 1l-10 17l-2 6l-3 9l-5 8l-12 13l-3 2l-14 13v2l-14 13l-4 1h-1l-2 1v2l-4 1l-5 4l-4 2zM-251 999v-1h-1v1h1zM-253 1001l1 -1h-2l1 1zM-402 1029h-1h1zM-398 1032v-1h-1v1h1zM-391 1037l-1 -1v1h1zM-385 1046v-1l-1 -1v1l1 1zM-256 1005v-1h-1v1h1z"/><path class="chunk" data-i="10" d="M316 1435l-4 2l-14 4l-10 -1l-6 -1l-9 -3l-10 -7l-3 -4l-2 -3l-4 -10v-1l-1 -1l-1 -1v-1h-1l-1 -2l-1 -1h-1l-1 -2h-2v-1l-3 -4l-1 -2l-1 -8v-1v-2l-1 -1l1 -1v-6l2 -13l1 -2l11 -10l13 -18v-3l13 -12l34 -29l38 -21l11 -13l22 -9h2l2 -2l2 -1l5 -3l2 -2l1 -2l1 -1l17 -13l20 -5l14 -11l20 -9l13 -3h5l1 1l-2 1h-5v1l-36 14l-35 16l-54 39l-43 29l-15 17l-2 1v1l-2 1v1l-5 2h-2l-17 13l-1 3l-14 22l-8 7l-2 5l-2 9v14l2 4l2 1v1l3 2l1 2l1 2l2 4l4 8l6 8l3 2l3 3l4 1l7 3h14l9 -2l5 -3l5 -3l2 -2l1 -3l2 -5l1 -3v-1v-3l-1 -6l1 -1l-1 -1l-3 -8l-2 -6l-3 -7l-2 -4l-4 -4v-1l-5 -5l-4 -2l-4 1l-1 1l-1 1l-1 1l-1 1l-1 4v1l-1 1l-1 2l-1 -1v-2h-1v-1l1 -1v-3l2 -3l2 -2l1 -1l1 -2l2 -2l3 -2h3h2l6 3l7 5l6 10l9 24v6l-1 7v4l-2 1l-1 4l-2 6l-1 3l-2 1l-3 3l-2 2zM523 971l-2 1h-1l2 -1l1 -2l3 -2l2 -2l3 -2l1 1l-4 2l-3 3l1 1h-1l-2 1z"/><path class="chunk" data-i="11" d="M296 929l1 -1h-1v1zM310 926v-1h-1v1h1zM273 943l1 -1h-2v1h1zM356 960v-1v2v-1zM517 977v1l-4 5l-5 9l-8 11l-23 12l-11 12l-42 21l-30 16h-19l-28 -12l-14 -5l-32 -3l-5 -2h-2v-1l-1 2l-1 -3h-1l-8 -4l-4 -2l-6 -3l-4 -2l-10 -9l-1 -2l-2 -7l-1 -5l-1 -1l1 -1l-1 -2l-3 -18v-4l1 -7l4 -11l1 -2l2 -2l1 -4l2 -2l1 -1l2 -3h-1l2 -3h1l1 1l3 -2l-1 -1l3 -2h2h1l-1 -1l3 -2h1l2 -1v-1l1 -1l1 -1l11 -6l3 -1l2 -1v1l1 -2l1 1l1 -1l1 1v1h1v-1v-1h2v2h1l1 -1l-1 -1v-1h7l1 1l1 -1l1 1h8l1 1l1 -1l2 1l3 1l7 3l10 7l2 1l10 16l1 3v2l1 2l3 10v4l-1 1l1 1v1l-1 3l-1 3l-5 6l-5 4l-4 3l-1 -1v1h-1l-1 2l-2 1l-1 1l-1 2l-10 8l-2 2l-1 2l-5 3v-1l-1 1h-2l-1 -1l-1 1h-2l-3 -2h-4l-2 -1h-3l-8 -3l-1 -2l-5 -4l-1 -2l2 -5l1 -5l2 -2h1l2 -3l14 -3h6h4l5 3v1h1l-1 1v6l-1 1l-1 -1v-1h-1h-1l-5 -2l-2 1l-5 3l-3 1l-2 1l1 4l2 1l1 1l3 2h1l2 1l4 -1h2h2l1 -1v1l4 -5l1 -2l1 -1l2 -2l3 -4l4 -2l6 -4l2 -2l5 -3l2 -2l1 -2l1 -4v-9l-1 -2l-4 -8l-3 -3l-3 -3l-4 -4l-4 -2l-3 -2l-8 -2l-5 -1l-2 -2l-1 2l-2 -2l-22 1l-6 2h-2l-1 1l-2 1l-6 4l-2 1v1l-2 1l-1 3l-2 2l-7 9l-7 18v4l-1 1l1 2l2 18l-1 1l2 2v1l1 2v1l2 3v2l11 7l7 3l9 3h2l2 3h2l9 4h5l5 1l20 3l17 9l25 9l2 -1l2 2l1 -1h9l25 -8l3 -3l13 -7l24 -11l2 -1l1 -2l2 -1l1 -2l1 -1l4 -4l3 -2l29 -16l2 -2l1 -2v-1h1l2 -3l1 -3l7 -12l2 -3l4 -4v1l-2 2l-1 2zM513 983v-1h-1v1h1zM510 988v-2v1v1zM509 990v-1l-1 1v1l1 -1zM508 992v-1l-1 1h1z"/></g><path class="grain" fill="#000" fill-rule="evenodd" d="M120 1829h-2v-1h2v1zM127 1828h-1v-1h1v1zM137 1827h-1v-1h1v1zM155 1826h-1v-1h1v1zM145 1826h-1v-1h1v1zM120 1826h-1v-1h1v1zM151 1825h-1v-1h1v1zM129 1825h-1v-1h1v1zM175 1824h-1v-1h1v1zM172 1824h-1l1 -1h1l-1 1zM168 1824h-1l1 -1h1l-1 1zM166 1824h-1v-1h1v1zM164 1824h-2v-1h2v1zM149 1824h-1v-1h1v1zM146 1824h-1v-1h1v1zM142 1824h-3l1 -1h2v1zM122 1825h-2v-1l2 -1v1v1zM165 1823h-1v-1h1v1zM156 1823h-1v-1h1v1zM154 1823h-4v-1h4v1zM147 1823h-1v-1h1v1zM132 1824h-1v-2h1l1 2h-1zM175 1822h-1v-1h1v1zM170 1822h-1v-1h1v1zM164 1822h-1v-1h1v1zM177 1821h-1v-1h1v1zM172 1821h-2v-1h2v1zM168 1822h-2v-2h2v2zM165 1821h-1v-1h1v1zM150 1821h-1v-1h1v1zM174 1821l-2 -1v-1h2v1v1zM166 1819h-1l1 -1h1l-1 1zM158 1818h-1v-1h1v1zM156 1818h-2v-1h2v1zM141 1818h-1v-1h1v1zM148 1817h-1v-1h1v1zM146 1817h-1v-1h1v1zM142 1817h-1v-1h1v1zM140 1816h-1v-1h1v1zM136 1816h-1l1 -1h1l-1 1zM134 1817h-4v-1h2l2 -1l1 1l-1 1zM132 1815h-2v-1h3l-1 1zM129 1816h-2v-2h2v2zM122 1815h-3l1 -1h2v1zM127 1814h-1v-1h1v1zM125 1814h-1v-1h1v1zM123 1814h-1v-1h1v1zM120 1813h-1v-1h1v1zM118 1813h-1v-1h1v1zM135 1812h-1v-1h1v1zM122 1811h-1v-1h1v1zM131 1810h-1v-1h1v1zM128 1810h-1v-1h1v1zM126 1810h-1v-1h1v1zM136 1809h-3l1 -1h2v1zM119 1809h-1v-1h1v1zM144 1808h-1v-1h1v1zM152 1807h-2v-1h2v1zM136 1807h-1l1 -1h1l-1 1zM144 1806h-1l1 -1h1l-1 1zM123 1806h-1v-1h1v1zM121 1806h-1v-1h1v1zM152 1805h-1v-1h1v1zM132 1805h-3l1 -1h2v1zM128 1804h-2v-1h3l-1 1zM136 1803h-2v-1h3l-1 1zM178 1802h-2v-1h2v1zM175 1802h-1v-1h1v1zM144 1802h-1v-1h1v1zM152 1801h-2v-1h2v1zM134 1801h-1v-1h1v1zM174 1799h-1v-1h1v1zM171 1799h-1v-1h1v1zM160 1798h-1v-1h1v1zM146 1798h-1v-1h1v1zM141 1798h-1v-1h1v1zM140 1797h-3l1 -1h2v1zM134 1798h-2l2 -2h1l-1 2zM132 1797h-1v-1h1v1zM130 1798h-1v-2h1l1 2h-1zM128 1798h-4v-1h2l2 -1v2zM123 1798h-1h-1l1 -2h1v2zM126 1792h-1v-1h1v1zM124 1792h-3l1 -1h2v1zM130 1791h-3l1 -1h2v1zM138 1790h-2v-1h2v1zM134 1790h-1l1 -1h1l-1 1zM120 1791h-2l-1 -1l1 -1h2l1 1l-1 1zM142 1789h-1l1 -1h1l-1 1zM145 1788h-1v-1h1v1zM130 1789l-1 -1l6 -1l-1 1h-4v1zM148 1786v1l-2 -1h2zM138 1787h-3l1 -1h2v1zM141 1786h-1v-1h1v1zM146 1786h-4v-1l3 -1l1 2zM138 1785h-1v-1h1v1zM133 1785h-1v-1h1v1zM158 1784h-1v-1h1v1zM145 1784v-1h3l1 1l-1 2l-2 -2h-1zM149 1783h-1v-1h1v1zM133 1783h-1v-1h1v1zM124 1783h-1v-1h1v1zM134 1782h-1v-1h1v1zM131 1782h-1v-1h1v1zM128 1782h-1l1 -1h1l-1 1zM126 1782h-2v-1h2v1zM173 1782h-1h-1l1 -2h3l-1 1l-1 1zM170 1782l-1 -1v-1h1v2zM167 1781h-1v-1h1v1zM163 1781h-1v-1h1v1zM158 1781h-1v-1h1v1zM156 1781h-1v-1h1v1zM153 1781h-1v-1h1v1zM150 1781h-1l1 -1h1l-1 1zM143 1781h-1v-1h1v1zM123 1781h-1v-1h1v1zM120 1781h-1l1 -1h1l-1 1zM144 1780h-1v-1h1v1zM138 1780h-1v-1h1v1zM136 1780h-1v-1h1v1zM117 1779h-1v-1h1v1zM126 1779v-1l2 -1v1l-2 1zM125 1778h-1v-1h1v1zM137 1777h-1v-1h1v1zM134 1777h-1l1 -1h1l-1 1zM148 1776h-4v-1h5l-1 1zM118 1776h-1l1 -1h1l-1 1zM156 1775h-2v-1h3l-1 1zM129 1775h-1v-1h1v1zM160 1774h-2v-1h2v1zM132 1774h-1l1 -1h1l-1 1zM143 1773h-1v-1h1v1zM139 1773h-1v-1h1v1zM134 1773h-1v-1h1v1zM129 1773h-1v-1h1v1zM164 1773l-1 -1v-1l1 1v1zM141 1772h-1v-1h1v1zM122 1772h-1v-1h1v1zM103 1832h-1v-1h1v1zM108 1831h-1v-1h1v1zM113 1830h-1v-1h1v1zM104 1830h-1v-1h1v1zM88 1830h-1v-1h1v1zM116 1829h-1v-1h1v1zM92 1829h-1l1 -1h1l-1 1zM89 1828h-1v-1h1v1zM104 1827h-1v-1h1v1zM100 1828l-1 -1v-1h1v2zM92 1827h-1l1 -1h1l-1 1zM118 1826h-3l1 -1l2 -1v2zM106 1827l-2 -1v-1h2l1 1l-1 1zM102 1826h-2v-1h2v1zM115 1825h-1v-1h1v1zM116 1814h-1v-1h1v1zM113 1813h-1v-1h1v1zM111 1813h-1v-1h1v1zM115 1812h-1v-1h1v1zM112 1812h-1v-1h1v1zM110 1812h-2v-1h2v1zM113 1811h-1v-1h1v1zM108 1810h-1v-1h1v1zM113 1809h-1v-1h1v1zM112 1808h-1v-1h1v1zM116 1807h-1l1 -1h1l-1 1zM73 1799h-1v-1h1v1zM65 1798h-1v-1h1v1zM60 1798h-3l1 -1h3l-1 1zM74 1797h-2v-1h2v1zM71 1797h-1v-1h1v1zM68 1797h-1l1 -1h1l-1 1zM66 1797h-1v-1h1v1zM62 1797h-1v-1h1v1zM76 1797h-1v-1l1 -1l1 1l-1 1zM72 1796h-1v-1h1v1zM67 1796h-1v-1h1v1zM89 1795h-1v-1h1v1zM82 1796h-1l1 -2h2l-2 2zM78 1796v-1l2 -1h1l-1 1l-2 1zM77 1795h-1v-1h1v1zM108 1794h-1v-1h1v1zM90 1794h-1v-1h1v1zM86 1794h-1v-1h1v1zM116 1793h-2v-1h2v1zM100 1792h-1v-1h1v1zM55 1786h-1v-1h1v1zM63 1785h-1v-1h1v1zM61 1785h-1v-1h1v1zM71 1782h-1v-1h1v1zM68 1782h-1v-1h1v1zM65 1782h-1v-1h1v1zM72 1781h-1v-1h1v1zM70 1781h-2v-1h2v1zM114 1780h-1v-1h1v1zM84 1780h-1l1 -1h1l-1 1zM81 1780h-1v-1h1v1zM78 1780h-1v-1h1v1zM74 1781l-2 -1v-1h2v1v1zM92 1779h-1l1 -1h1l-1 1zM82 1779h-1l1 -1h1l-1 1zM80 1779h-1v-1h1v1zM90 1779l-2 -1v-1h2l1 1l-1 1zM60 1778h-2v-1h2v1zM98 1778l-1 -1v-1h1v2zM96 1777h-4v-1h4v1zM81 1777h-1v-1h1v1zM114 1776h-1l1 -1h1l-1 1zM106 1777h-3v-1l1 -1v1h3l-1 1zM102 1776h-1v-1h1v1zM76 1776h-1v-1h1v1zM72 1777l-2 -1v1l-1 -1v-1h3l1 1l-1 1zM65 1777h-1l-1 -1l1 -1l1 1v1zM62 1777l-2 -1v-1h2v1v1zM112 1776l-1 -1v-1h1v2zM103 1775h-1v-1h1v1zM86 1776l-2 -2h4v1h-2v1zM82 1775h-1l1 -1h1l-1 1zM75 1775h-1v-1h1v1zM68 1777h-2v-1h1v-2h1v3zM114 1774h-2v-1h2v1zM78 1776l-2 -2l4 -1l1 1l-3 2zM63 1774h-1v-1h1v1zM60 1774h-1l1 -1h1l-1 1zM56 1774h-1l1 -1h1l-1 1zM54 1774h-1v-1h1v1zM110 1773h-1l1 -1h1l-1 1zM108 1773h-1v-1h1v1zM91 1773v-1h1v1h-1zM91 1774h-2v-2h1l1 1v1zM88 1773h-4v-1h4v1zM82 1773h-1v-1h1v1zM66 1773h-3l1 -1h2v1zM76 1772h-1v-1h1v1zM-8 1808h-1v-1h1v1zM14 1806h-3l1 -1h2v1zM10 1806h-1v-1h1v1zM20 1805h-1v-1h1v1zM-1 1805h-1v-1h1v1zM-8 1805h-1v-1h1v1zM-11 1805h-1v-1h1v1zM6 1804h-1l1 -1h1l-1 1zM0 1804h-1v-1h1v1zM-2 1804h-1v-1h1v1zM-4 1804h-1v-1h1v1zM17 1803h-1v-1h1v1zM15 1803h-1v-1h1v1zM4 1803h-1v-1h1v1zM20 1802h-1v-1h1v1zM14 1802h-2v-1h2v1zM25 1801h-1v-1h1v1zM22 1801h-1v-1h1v1zM38 1800h-2v-1h2v1zM34 1801h-2l-1 -1l1 -1l2 1h1l-1 1zM45 1800h-1h-1l1 -2h1v2zM42 1800h-2h-1l1 -2l2 2zM6 1796h-1v-1h1v1zM2 1796h-1l1 -1h1l-1 1zM-1 1797h-1l-1 -1l1 -1l1 1v1zM12 1795h-1v-1h1v1zM10 1795h-3l1 -1h2v1zM21 1794h-1v-1h1v1zM18 1794h-1v-1h1v1zM15 1794h-1v-1h1v1zM13 1793h-1v-1h1v1zM36 1792h-1v-1h1v1zM20 1792h-1v-1h1v1zM28 1791h-2v-1h2v1zM26 1789h-1v-1h1v1zM36 1788h-2v-1h3l-1 1zM33 1788h-1v-1h1v1zM30 1788h-2v-1h2v1zM44 1787h-1l1 -1h1l-1 1zM42 1787h-2v-1h2v1zM50 1786h-1v-1h1v1zM2 1784h-2h-1l1 -2h2l1 2h-1zM-2 1783h-1l1 -1h1l-1 1zM-4 1784h-2v-2h2v2zM12 1783l-1 -1v-1l1 1v1zM26 1781h-1v-1h1v1zM19 1782h-2v-2h2v2zM14 1782l-1 -1l3 -1v1h-2v1zM40 1780h-1v-1h1v1zM24 1780h-2v-1h3l-1 1zM21 1780h-1v-1h1v1zM-2 1780h-3l1 -1h2v1zM30 1781v-1l2 -2v2l-2 1zM28 1780h-2l2 -2l1 2h-1zM4 1779h-1v-1h1v1zM50 1779l-2 -1v-1h2v1v1zM46 1779l-2 -1v-1h2l1 1l-1 1zM42 1778h-1v-1h1v1zM40 1778h-1v-1h1v1zM34 1780l-1 -2l1 -1l2 1h3l-1 1h-2l-2 1zM17 1777h-1v-1h1v1zM15 1777h-1v-1h1v1zM3 1777h-1v-1h1v1zM42 1776h-1v-1h1v1zM24 1776h-2v-1h2v1zM6 1776h-3l1 -1h3l-1 1zM2 1776h-1v-1h1v1zM31 1775h-1v-1h1v1zM-4 1775h-1l1 -1h1l-1 1zM46 1774h-1v-1h1v1zM37 1774h-1v-1h1v1zM34 1774h-1v-1h1v1zM30 1774h-1v-1h1v1zM28 1774h-1v-1h1v1zM26 1774h-1v-1h1v1zM20 1775l-1 -1l1 -1l1 1l-1 1zM4 1772h-2v-1h2v1zM0 1772h-2v-1h3l-1 1zM-4 1772h-2v-1h3l-1 1zM-8 1772h-1v-1h1v1zM-41 1810h-1v-1h1v1zM-48 1810h-1l1 -1h1l-1 1zM-20 1809h-2v-1h2v1zM-34 1809h-1v-1h1v1zM-24 1808h-2v-1h2v1zM-49 1808h-1v-1h1v1zM-14 1807h-2v-1h2v1zM-50 1810h-2l-1 -4h1l2 2v2zM-19 1806h-1v-1h1v1zM-14 1805h-4v-1h4v1zM-22 1806h-2l2 -2v2zM-38 1801h-1v-1h1v1zM-31 1800h-1v-1h1v1zM-34 1800h-1v-1h1v1zM-36 1800h-1v-1h1v1zM-20 1799h-1l1 -1h1l-1 1zM-22 1799h-2v-1h2v1zM-28 1801l-1 -2l2 -1v2l-1 1zM-63 1796h-1v-1h1v1zM-65 1796h-1v-1h1v1zM-59 1795h-1v-1h1v1zM-44 1794h-1l1 -1h1l-1 1zM-46 1794h-1v-1h1v1zM-58 1794h-1v-1h1v1zM-60 1793h-1l1 -1h1l-1 1zM-68 1795l-1 -1v-2h1h1l-1 2v1zM-54 1791v1l-2 -1h2zM-69 1792h-1v-1h1v1zM-26 1791h-1v-1h1v1zM-33 1791l-1 -1v-1l1 1v1zM-46 1790h-1v-1h1v1zM-62 1790h-1v-1h1v1zM-65 1789h-1v-1h1v1zM-20 1788h-1v-1h1v1zM-40 1790h-1v-3l1 1v2zM-48 1789h-4v-1v-1l2 1h3l-1 1zM-63 1788h-1v-1h1v1zM-16 1787h-1v-1h1v1zM-32 1788l-2 -1h-1l1 -1h5l-1 1h-2v1zM-48 1787h-1v-1h1v1zM-60 1787h-2v-1h2v1zM-56 1786h-3l1 -1h2v1zM-72 1786h-2v-1h2v1zM-54 1785h-2v-1h2v1zM-71 1785h-1v-1h1v1zM-25 1784h-1v-1h1v1zM-52 1784h-1l1 -1h1l-1 1zM-19 1783h-1v-1h1v1zM-34 1783h-2v-1h2v1zM-49 1783h-1v-1h1v1zM-70 1783h-1v-1h1v1zM-14 1782h-1v-1h1v1zM-30 1782h-1v-1h1v1zM-32 1782h-1v-1h1v1zM-71 1782h-1v-1h1v1zM-26 1781h-1l1 -1h1l-1 1zM-68 1781h-1v-1h1v1zM-75 1781h-1v-1h1v1zM-38 1780h-1l1 -1h1l-1 1zM-74 1780h-1v-1h1v1zM-34 1779h-1v-1h1v1zM-60 1779h-1v-1h1v1zM-72 1780l-1 -1v-1h1v2zM-29 1778h-1v-1h1v1zM-58 1778h-1v-1h1v1zM-12 1777h-1v-1h1v1zM-52 1777h-1v-1h1v1zM-55 1777h-1v-1h1v1zM-68 1777h-2v-1h2v1zM-71 1777h-1v-1h1v1zM-57 1776h-1v-1h1v1zM-66 1776h-1v-1h1v1zM-49 1775h-1v-1h1v1zM-63 1775h-1v-1h1v1zM-75 1775h-1v-1h1v1zM-59 1774h-1v-1h1v1zM-62 1774h-1v-1h1v1zM-67 1774h-1v-1h1v1zM-20 1773h-1v-1h1v1zM-63 1773h-1v-1h1v1zM-50 1772h-1l1 -1h1l-1 1zM-88 1799h-1v-1h1v1zM-92 1799h-4v-1h4v1zM-99 1798h-1v-1h1v1zM-86 1797h-6v-1h6v1zM-95 1797h-1v-1h1v1zM-97 1797h-1v-1h1v1zM-84 1796h-1v-1h1v1zM-103 1796h-1v-1h1v1zM-85 1795h-1v-1h1v1zM-105 1797l-1 -1v-2h1v3zM-104 1794h-1v-1h1v1zM-102 1793h-1v-1h1v1zM-106 1793h-1v-1h1v1zM-107 1792h-1v-1h1v1zM-125 1792h-1v-1h1v1zM-102 1791h-2v-1h2v1zM-106 1791h-1v-1h1v1zM-137 1791h-1v-1h1v1zM-99 1790h-1v-1h1v1zM-104 1790h-1v-1h1v1zM-133 1790h-1v-1h1v1zM-103 1789h-1v-1h1v1zM-139 1789h-1v-1h1v1zM-80 1788h-1l1 -1h1l-1 1zM-100 1788h-1v-1h1v1zM-106 1788h-1v-1h1v1zM-134 1788h-1v-1h1v1zM-137 1788h-1v-1h1v1zM-74 1787h-4v-1h4v1zM-89 1787h-1v-1h1v1zM-97 1787h-1v-1h1v1zM-104 1787h-2v-1h2v1zM-111 1787h-1v-1h1v1zM-130 1787h-2v-1h3l-1 1zM-85 1786h-1v-1h1v1zM-87 1786h-1v-1h1v1zM-91 1786h-1v-1h1v1zM-93 1786h-1v-1h1v1zM-100 1786h-1v-1h1v1zM-102 1786h-2v-1h2v1zM-119 1786h-1v-1h1v1zM-124 1786h-2v-1h2v1zM-127 1786h-1v-1h1v1zM-78 1785h-1l1 -1h1l-1 1zM-96 1785h-1l1 -1h1l-1 1zM-111 1785h-1v-1h1v1zM-114 1785h-1v-1h1v1zM-118 1785h-1v-1h1v1zM-122 1785h-2v-1h2v1zM-86 1784h-2v-1h2v1zM-89 1783v1l-1 1v-1l-4 -1h5zM-109 1784h-1v-1h1v1zM-112 1784h-1v-1h1v1zM-116 1784h-1v-1h1v1zM-128 1784h-1v-1h1v1zM-80 1783h-1v-1h1v1zM-120 1783h-2v-1h2v1zM-123 1783h-1v-1h1v1zM-134 1783h-3l1 -1h2v1zM-84 1782h-1v-1h1v1zM-89 1781l1 1l-1 1v-2zM-110 1782h-1v-1h1v1zM-114 1783l-1 -1v-1l1 1v1zM-116 1782h-1v-1h1v1zM-130 1782h-3l1 -1h2v1zM-106 1781h-4v-1h5l-1 1zM-112 1781h-2v-1h2v1zM-136 1781h-1v-1h1v1zM-79 1779v1l-1 1v-1v-1h1zM-118 1780h-1v-1h1v1zM-120 1780h-1v-1h1v1zM-130 1780h-1v-1h1v1zM-75 1779h-1l-1 -1l1 -1l1 1v1zM-112 1779h-1v-1h1v1zM-109 1778h-1v-1h1v1zM-119 1778h-1v-1h1v1zM-105 1777h-1v-1h1v1zM-114 1777h-1v-1h1v1zM-138 1776h-1v-1h1v1zM-78 1775h-4v-1h4v1zM-84 1776h-4v-2h2v1l2 -1l1 2h-1zM-91 1775h-1v-1h1v1zM-93 1775h-1v-1h1v1zM-101 1775h-1v-1h1v1zM-108 1776h-1v-2h1l1 2h-1zM-110 1775h-1v-1h1v1zM-119 1775h-1v-1h1v1zM-133 1775h-1v-1h1v1zM-137 1775h-1v-1h1v1zM-106 1775l-1 -1v-1l1 1v1zM-109 1774h-1v-1h1v1zM-114 1775l-2 -1v-1h4v1l-2 1zM-120 1774h-1v-1h1v1zM-124 1774h-1v-1h1v1zM-128 1774h-1v-1h1v1zM-130 1774h-2v-1h2v1zM-135 1775l-1 -1v-1l1 1v1zM-76 1774l-1 -1v-1h1v2zM-88 1773h-1l1 -1h1l-1 1zM-127 1773h-1v-1h1v1zM-136 1773h-3l1 -1h2v1zM-81 1772h-1v-1h1v1zM-84 1772h-1v-1h1v1zM-90 1773h-3l1 -1l2 -1v1v1zM-115 1772h-1v-1h1v1zM-130 1773l-1 -1l1 -1h1v1l-1 1zM-190 1795h-6v-1h6v1zM-152 1794h-1v-1h1v1zM-154 1794h-1v-1h1v1zM-184 1794h-2v-1h2v1zM-188 1794h-1v-1h1v1zM-146 1793h-1v-1h1v1zM-148 1793h-2v-1h2v1zM-179 1793h-1v-1h1v1zM-144 1792h-2v-1h3l-1 1zM-203 1792h-1v-1h1v1zM-140 1791h-1v-1h1v1zM-192 1791h-3l1 -1h3l-1 1zM-196 1791h-1v-1h1v1zM-158 1790h-1v-1h1v1zM-184 1790h-3l1 -1h2v1zM-188 1790h-1v-1h1v1zM-176 1789h-1v-1h1v1zM-201 1789h-1v-1h1v1zM-198 1788h-2v-1h2v1zM-164 1787h-1v-1h1v1zM-195 1787h-1v-1h1v1zM-155 1786h-1v-1h1v1zM-147 1785h-1v-1h1v1zM-188 1785h-1l1 -1h1l-1 1zM-190 1786h-2l-2 -2l4 1v1zM-200 1785h-4v-1h4v1zM-140 1784h-3l1 -1h3l-1 1zM-182 1784h-2v-1h2v1zM-189 1784h-1v-1h1v1zM-198 1784h-2v-1h3l-1 1zM-186 1784v-1l2 -1l-2 2zM-192 1783h-5l1 -1h4v1zM-141 1782h-1v-1h1v1zM-180 1783h-2v-1v-1l2 1v1zM-188 1782h-4v-1h4v1zM-170 1781h-1v-1h1v1zM-176 1782h-2l2 -2l1 2h-1zM-184 1781h-3l1 -1h2v1zM-200 1781h-1v-1h1v1zM-172 1781l-1 -1v-1l1 1v1zM-182 1780h-2v-1h2v1zM-196 1780h-1l1 -1h1l-1 1zM-198 1780h-1v-1h1v1zM-164 1779h-1l1 -1h1l-1 1zM-176 1779h-3l1 -1h2v1zM-188 1779h-1v-1h1v1zM-202 1779h-1v-1h1v1zM-151 1778h-1v-1h1v1zM-159 1778h-1v-1h1v1zM-165 1778h-1v-1h1v1zM-174 1778h-1l1 -1h1l-1 1zM-181 1778h-1v-1h1v1zM-194 1778h-1v-1h1v1zM-197 1778h-1v-1h1v1zM-199 1779h-1l-1 -1l1 -1l1 1v1zM-146 1777h-1v-1h1v1zM-160 1777h-2v-1h2v1zM-169 1777h-1v-1h1v1zM-175 1777h-1v-1h1v1zM-184 1777h-3l1 -1h2v1zM-192 1779l-1 -2l1 -1l1 2l-1 1zM-200 1777h-1v-1h1v1zM-143 1775h1l1 1h-1h-1v-1zM-150 1776h-3l1 -1h3l-1 1zM-156 1777l-1 -1l1 -1h2v1l-2 1zM-164 1777l-2 -1v-1h2l1 1l-1 1zM-168 1776h-1v-1h1v1zM-170 1776h-1v-1h1v1zM-172 1776h-1v-1h1v1zM-178 1776h-1l1 -1h1l-1 1zM-147 1775h-1v-1h1v1zM-161 1775h-1v-1h1v1zM-163 1775h-1v-1h1v1zM-174 1775h-1l1 -1h1l-1 1zM-181 1775h-1v-1h1v1zM-146 1774h-1v-1h1v1zM-154 1774h-1l1 -1h1l-1 1zM-156 1774h-3l1 -1h2v1zM-140 1773h-1v-1h1v1zM-160 1773h-1l1 -1h1l-1 1zM-166 1773h-1v-1h1v1zM-172 1773h-1l1 -1h1l-1 1zM-174 1773h-1v-1h1v1zM-148 1772h-1l1 -1h1l-1 1zM-150 1772h-1v-1h1v1zM-152 1773l-2 -1v-1h2l1 1l-1 1zM-169 1772h-1v-1h1v1zM-231 1801h-1v-1h1v1zM-241 1800h-1v-1h1v1zM-231 1799h-1v-1h1v1zM-219 1798h-1v-1h1v1zM-222 1798h-2v-1h3l-1 1zM-234 1798h-1v-1h1v1zM-236 1798h-3l1 -1h2v1zM-240 1799l-2 -1h-1l1 -1h2v1v1zM-244 1798h-2v-1h2v1zM-210 1797h-2v-1h2v1zM-224 1797h-1v-1h1v1zM-228 1797h-1l1 -1h1l-1 1zM-231 1797h-1v-1h1v1zM-250 1796h-1v-1h1v1zM-259 1796h-1v-1h1v1zM-200 1796h-5v-2h1v1h4v1zM-240 1796h-5l1 -1h2l2 -1v2zM-252 1795h-1l1 -1h1l-1 1zM-222 1794h-1v-1h1v1zM-227 1794h-1v-1h1v1zM-232 1794h-4v-1h5l-1 1zM-236 1795h-3v-1l1 -1v1h2v1zM-211 1793h-1v-1h1v1zM-213 1793h-1v-1h1v1zM-236 1793h-1v-1h1v1zM-241 1794l-1 -1v-1h1v2zM-250 1793h-1v-1h1v1zM-265 1793h-1v-1h1v1zM-206 1792h-1l1 -1h1l-1 1zM-212 1792h-1v-1h1v1zM-217 1792h-1v-1h1v1zM-220 1792h-1v-1h1v1zM-223 1792h-1v-1h1v1zM-232 1792h-1v-1h1v1zM-256 1792h-1v-1h1v1zM-259 1792h-1v-1h1v1zM-262 1793h-2v-1v-1l2 1h1l-1 1zM-218 1791h-1v-1h1v1zM-228 1791h-2v-1h2v1zM-239 1791h-1v-1h1v1zM-254 1792l-2 -2h4v1h-2v1zM-214 1790h-1v-1h1v1zM-226 1790h-1v-1h1v1zM-244 1790h-1v-1h1v1zM-264 1790h-1l1 -1h1l-1 1zM-204 1789h-1l1 -1h1l-1 1zM-210 1789h-1v-1h1v1zM-218 1789h-3l1 -1h2v1zM-240 1789h-1v-1h1v1zM-242 1789h-2v-1h2v1zM-258 1789h-1v-1h1v1zM-206 1788h-1v-1h1v1zM-214 1788h-1l1 -1h1l-1 1zM-217 1788h-1v-1h1v1zM-233 1788h-1v-1h1v1zM-235 1788h-1v-1h1v1zM-263 1788h-1v-1h1v1zM-212 1787h-1l1 -1h1l-1 1zM-229 1787h-1v-1h1v1zM-247 1787h-1v-1h1v1zM-250 1787h-1l1 -1h1l-1 1zM-206 1786h-3l1 -1h3l-1 1zM-224 1786h-1v-1h1v1zM-258 1787h-2v-1v-1l2 1v1zM-218 1785h-1v-1h1v1zM-252 1787l-2 -1h-1l1 -2l2 1l1 1l-1 1zM-255 1785h-1v-1h1v1zM-207 1784h-1v-1h1v1zM-248 1785h-1v-1l1 -1l1 1l-1 1zM-204 1783h-1l1 -1h1l-1 1zM-216 1784l-1 -1l3 -1h1l-1 1h-2v1zM-218 1783h-1v-1h1v1zM-227 1783h-1v-1h1v1zM-210 1783l-2 -1v-1h5l-1 1h-2v1zM-202 1781h-3l1 -1h2v1zM-212 1781h-2v-1h2v1zM-228 1781h-1v-1h1v1zM-230 1781h-1v-1h1v1zM-206 1780h-5l1 -1h4v1zM-221 1780h-1v-1h1v1zM-204 1779h-1v-1h1v1zM-206 1778h-1v-1h1v1zM-209 1778h-1v-1h1v1zM-296 1799h-3l1 -1h2v1zM-290 1798h-3l1 -1h3l-1 1zM-294 1798h-2v-1h2v1zM-287 1797h-1v-1h1v1zM-293 1797h-1v-1h1v1zM-284 1797h-2v-1l2 -1l1 1l-1 1zM-304 1797v-1l2 -1v1l-2 1zM-292 1795h-2v-1h2v1zM-295 1795h-1v-1h1v1zM-298 1796l-4 -1v-1h4v2zM-288 1794h-1l1 -1h1l-1 1zM-266 1794h-4v-2l2 1h2v1zM-281 1793h-1v-1h1v1zM-277 1792h-1v-1h1v1zM-270 1791h-2v-1h2v1zM-279 1789h-1v-1h1v1zM-273 1788h-1v-1h1v1zM-318 1784h-1l1 -1h1l-1 1zM-328 1784h-1v-1h1v1zM-350 1781v-1v-3l1 1l1 2l-2 1zM130 1771h-2v-1h2v1zM127 1773h-5v-1h2l2 -2h1v3zM160 1770h-1v-1h1v1zM135 1770h-1v-1h1v1zM123 1770h-1v-1h1v1zM120 1770h-1v-1h1v1zM162 1769h-1l1 -1h1l-1 1zM158 1769h-4v-1h5l-1 1zM153 1769h-1v-1h1v1zM150 1769h-2v-1h2v1zM143 1769h-1v-1h1v1zM141 1769h-1v-1h1v1zM132 1769h-1v-1h1v1zM129 1769h-1v-1h1v1zM118 1769h-1l1 -1h1l-1 1zM128 1768h-1v-1h1v1zM125 1768h-1v-1h1v1zM171 1767h-1v-1h1v1zM134 1767h-1v-1h1v1zM131 1767h-1v-1h1v1zM140 1766h-1v-1h1v1zM176 1764h-1v-1h1v1zM161 1764h-1v-1h1v1zM172 1763h-1l1 -1h1l-1 1zM170 1763h-2v-1h2v1zM168 1761h-2v-1h2v1zM178 1760h-3l1 -1h2v1zM174 1760h-2v-1h2v1zM116 1731v-1l1 1h-1zM143 1729h-1v-1h1v1zM64 1771h-1v-1h1v1zM60 1771h-6v-1h6v1zM116 1770h-2v-1h3l-1 1zM112 1770h-1l1 -1h1l-1 1zM102 1769h-1l1 -1h1l-1 1zM100 1769h-1v-1h1v1zM98 1769h-2v-1h2v1zM94 1770l-1 -2h1h1v2h-1zM88 1770h-2v-2h2v2zM82 1770v-1l2 -1h1l-1 1l-2 1zM80 1769h-1v-1h1v1zM76 1770l-2 -1v-1h4l-2 2zM73 1769h-1v-1h1v1zM60 1770l-4 -1v-1h6l-2 2zM55 1769h-1v-1h1v1zM114 1768h-1v-1h1v1zM109 1768h-1v-1h1v1zM61 1738h-1l-2 -2h3v2zM57 1737h-1v-1h1v1zM66 1736h-2v-1h2v1zM52 1771h-1l1 -1h1l-1 1zM50 1771h-2v-1h2v1zM46 1771h-1l1 -1h1l-1 1zM36 1771h-1v-1h1v1zM34 1771h-3l1 -1h2v1zM30 1771h-3l1 -1h2v1zM26 1771h-2v-1h2v1zM22 1771h-2v-1h3l-1 1zM18 1771h-2v-1h3l-1 1zM14 1771h-2v-1h3l-1 1zM10 1771h-1v-1h1v1zM7 1771h-1v-1h1v1zM44 1771h-5v-1l1 -1v1h4v1zM4 1770h-1v-1h1v1zM2 1770h-1v-1h1v1zM0 1750h-1v-1h1v1zM-1 1749h-1v-1h1v1zM1 1747l-1 1l-1 -1h2zM1 1746h1l-1 1v-1zM-1 1747h-1l-1 -1h1h1v1zM26 1746h-1v-1h1v1zM24 1746h-1v-1h1v1zM6 1746h-2v-1h3l-1 1zM-1 1746v-1l2 1h-2zM18 1745h-1l1 -1h1l-1 1zM16 1745h-4v-1h4v1zM10 1745h-2v-1h3l-1 1zM4 1745h-2v-1h2v1zM26 1744h-1v-1h1v1zM24 1744h-1v-1h1v1zM22 1746h-1v-3l1 1v2zM6 1744h-2v-1h2v1zM21 1743h-1v-1h1v1zM24 1742h-1v-1h1v1zM32 1741h-1v-1h1v1zM40 1739h-2v-1h2v1zM52 1737h-1l1 -1h1l-1 1zM-74 1771h-1v-1h1v1zM-51 1770h-1v-1h1v1zM-127 1771h-1v-1h1v1zM-80 1771l-1 -1v-1l1 1v1zM-83 1770h-1v-1h1v1zM-89 1770h-1v-1h1v1zM-91 1770h-1v-1h1v1zM-127 1769h-1v-1h1v1zM-131 1769h-1v-1h1v1zM-128 1768h-1v-1h1v1zM-135 1768h-1v-1h1v1zM-138 1768h-1l1 -1h1l-1 1zM-127 1767h-1v-1h1v1zM-130 1767h-1l1 -1h1l-1 1zM-132 1767h-3l1 -1h2v1zM-144 1771h-1v-1h1v1zM-156 1771h-1v-1h1v1zM-160 1771h-1l1 -1h1l-1 1zM-162 1771h-1v-1h1v1zM-140 1770h-1v-1h1v1zM-149 1770h-1v-1h1v1zM-158 1770h-1v-1h1v1zM-161 1770h-1v-1h1v1zM-144 1770l-1 -2h1h1v2h-1zM-146 1769h-1v-1h1v1zM-148 1769h-1v-1h1v1zM-140 1768h-3l1 -1h2v1zM-4 1550h-2v-1h2v1zM-12 1550v-1l1 1h-1zM-4 1545h-1v-1h1v1zM-8 1544h-1v-1h1v1zM-47 1579h-1v-1h1v1zM-12 1555h-1v-1h1v1zM-16 1551v-1l1 1h-1zM-58 1550h-2v-1h2v1zM-12 1549l-1 -1h1v1zM-30 1548h-1v-1h1v1zM-51 1549l-1 -1v-1l1 1v1zM-52 1547h-3l1 -1h2v1zM-56 1548l-2 -2h2l1 2h-1zM-64 1547h-1v-1h1v1zM-26 1547l-2 -1h-1l1 -1h2l1 1l-1 1zM-70 1548l-2 -2l2 -1h3v2h-3v1zM-56 1545h-2v-1h2v1zM-62 1546h-1v-2h1l1 2h-1zM-64 1545h-2v-1h2v1zM-58 1544h-1v-1h1v1zM-60 1544h-1v-1h1v1zM-36 1543h-2v-1h2v1zM-46 1543h-3l1 -1h2v1zM-52 1544h-1v-2h1l1 2h-1zM-30 1542h-4v-1h4v1zM-42 1542h-2v-1h3l-1 1zM-50 1542h-1v-1h1v1zM-26 1541h-3l1 -1h2v1zM-38 1541h-1l1 -1h1l-1 1zM-71 1541h-1v-1h1v1zM-22 1540h-1l1 -1h1l-1 1zM-24 1540h-1v-1h1v1zM-32 1540h-2v-1h2v1zM-63 1540h-1v-1h1v1zM-18 1539h-3l1 -1h2v1zM-28 1539h-1v-1h1v1zM-36 1539h-2v-1h2v1zM-24 1538h-3l1 -1h3l-1 1zM-43 1538h-1v-1h1v1zM-27 1537h-1v-1h1v1zM-31 1538h-1h-1l1 -2h1v2zM-38 1537h-2v-1h2v1zM-17 1538h-1v-3l1 1v2zM-25 1534h-1v-1h1v1zM-28 1534h-1v-1h1v1zM-72 1532h-1v-1h1v1zM-68 1531h-2v-1h2v1zM-71 1531h-1v-1h1v1zM-74 1531h-1v-1h1v1zM-65 1530h-1v-1h1v1zM-70 1530h-1v-1h1v1zM-59 1528h-1v-1h1v1zM-62 1529h-1v-1l1 -1l1 1l-1 1zM-72 1528h-1v-1h1v1zM-51 1526h-1v-1h1v1zM-52 1525h-1v-1h1v1zM-37 1524h-1v-1h1v1zM-58 1524h-1v-1h1v1zM-34 1523h-1v-1h1v1zM-37 1522h-1v-1h1v1zM-44 1521h-3l1 -1h2v1zM-34 1521l-1 -1v-1l1 1v1zM-30 1519h-1v-1h1v1zM-44 1519h-1v-1h1v1zM-32 1519l-1 -1v-1l1 1v1zM-42 1517h-1v-1h1v1zM-85 1550h-1v-1h1v1zM-104 1545h-2v-1h2v1zM-96 1544h-4v-1h4v1zM-107 1544h-1v-1h1v1zM-86 1543h-1l1 -1h1l-1 1zM-104 1543h-3l1 -1h2v1zM-78 1542h-2v-1h2v1zM-96 1542h-1v-1h1v1zM-88 1541h-1l1 -1h1l-1 1zM-90 1541h-1v-1h1v1zM-101 1542h-3l2 -2h1v2zM-99 1537h-1v-1h1v1zM-94 1535h-1v-1h1v1zM-90 1532h-1v-1h1v1zM-82 1531h-1v-1h1v1zM-79 1530h-1v-1h1v1zM-114 1519h-1l1 -1h1l-1 1zM-115 1518h-1v-1h1v1zM-118 1519h-4v-1l2 -1v1h3l-1 1zM-124 1519l-1 -1l1 -1h2v1l-2 1zM-99 1517h-1v-1h1v1zM-90 1516h-1v-1h1v1zM-92 1516h-1v-1h1v1zM-126 1519l-3 -3l1 -1l3 3l-1 1zM-142 1563v-1l1 1h-1zM-143 1563h-1v-1h1v1zM-147 1560h-1v-1h1v1zM-148 1559h-1v-1h1v1zM-150 1559h-1v-1h1v1zM-149 1558h-1v-1h1v1zM-46 1515h-1v-1h1v1zM-48 1515h-1v-1h1v1zM-51 1515h-1v-1h1v1zM-63 1514h-1v-1h1v1zM-65 1514h-1v-1h1v1zM-68 1514h-1v-1h1v1zM-71 1514h-1v-1h1v1zM-43 1513h-1v-1h1v1zM-75 1511h-1v-1h1v1zM-73 1492h-1v-1h1v1zM-73 1478h-1v-1h1v1zM-75 1478h-1v-1h1v1zM-68 1477h-2v-1h3l-1 1zM-71 1477h-1v-1h1v1zM-62 1476h-4v-1h4v1zM-58 1475h-1l1 -1h1l-1 1zM-60 1475h-1v-1h1v1zM-72 1475h-1l1 -1h1l-1 1zM-74 1475h-2v-1h2v1zM-54 1474h-1l1 -1h1l-1 1zM-70 1474h-1v-1h1v1zM-62 1473h-2v-1h2v1zM-72 1473h-2v-1h3l-1 1zM-50 1473l-4 -1v-1h4l1 1l-1 1zM-60 1472h-1l1 -1h1l-1 1zM-66 1473l-2 -1v-1h2v1v1zM-70 1472h-1l1 -1h1l-1 1zM-64 1471h-1v-1h1v1zM-56 1470h-3l1 -1h2v1zM-61 1471h-1l-1 -1l1 -1l1 1v1zM-40 1469h-2v-1h2v1zM-52 1469h-1v-1h1v1zM-54 1469h-1v-1h1v1zM-65 1469h-1v-1h1v1zM-69 1469h-1v-1h1v1zM-72 1469h-1v-1h1v1zM-42 1468h-1v-1h1v1zM-50 1468h-1v-1h1v1zM-53 1468h-1v-1h1v1zM-56 1468h-1l1 -1h1l-1 1zM-58 1468h-3l1 -1h2v1zM-42 1466h-1v-1h1v1zM-49 1466h-1v-1h1v1zM-70 1461h-1v-1h1v1zM-64 1459h-1v-1h1v1zM-69 1459h-1v-1h1v1zM-61 1458h-1v-1h1v1zM-66 1457h-2v-1h2v1zM-68 1456h-1v-1h1v1zM-64 1456l-2 -2h2l1 2h-1zM-75 1455h-1v-1h1v1zM-50 1453v1l-1 -1h1zM-68 1454h-1v-1h1v1zM-56 1454l-1 -1v-1h1v2zM-58 1454h-2v-2l2 2zM-61 1452h-1v-1h1v1zM-80 1515h-1l1 -1h1l-1 1zM-86 1515h-3l1 -1h2v1zM-129 1515h-1v-1h1v1zM-105 1514h-1v-1h1v1zM-114 1514h-1l1 -1h1l-1 1zM-118 1514h-2v-1h3l-1 1zM-98 1513h-4v-1h5l-1 1zM-120 1513h-1v-1h1v1zM-90 1512h-1v-1h1v1zM-118 1512h-2v-1h3l-1 1zM-128 1514h-1v-3h2v1l-1 2zM-115 1511h-1v-1h1v1zM-114 1510h-1l1 -1h1l-1 1zM-126 1511l-1 -1l1 -1h2v1l-2 1zM-122 1510l-1 -1v-1h1v2zM-108 1508h-1v-1h1v1zM-120 1509l-2 -1v-1h2l1 1l-1 1zM-118 1507h-1l1 -1h1l-1 1zM-103 1506h-1v-1h1v1zM-114 1505l-3 1l1 -1l4 -1v1h-2zM-110 1504h-2v-1h3l-1 1zM-108 1503h-1l1 -1h1l-1 1zM-104 1502h-3l1 -1h2v1zM-101 1500l-3 1v-1l2 -1h3l-1 1h-1zM-139 1498h-1v-1h1v1zM-136 1497h-2v-1h2v1zM-122 1494h-1v-1h1v1zM-133 1494l1 -1v1h-1zM-113 1493h-1v-1h1v1zM-134 1493h-2v-1h2v1zM-110 1492h-2v-1h2v1zM-120 1493l-1 -1v-1l1 1v1zM-123 1491l1 1h-1v-1zM-137 1492h-1v-1h1v1zM-102 1491h-2v-1h3l-1 1zM-116 1493l-1 -1l1 -1l2 -1v2h-2v1zM-118 1492l-1 -1v-1h1v2zM-124 1490h1v1h-1v-1zM-134 1491h-2v-1h2v1zM-104 1490h-1v-1h1v1zM-106 1491h-3v-2l2 1h1h1l-1 1zM-115 1490h-1v-1h1v1zM-132 1490h-1l1 -1h1l-1 1zM-79 1489h-1v-1h1v1zM-96 1490h-3v-2h3v2zM-108 1488h-1v-1h1v1zM-113 1488h-1v-1h1v1zM-121 1487l1 1h-1v-1zM-105 1487h-1v-1h1v1zM-116 1487h-1v-1h1v1zM-106 1486h-1v-1h1v1zM-113 1486h-1v-1h1v1zM-118 1486h-1v-1h1v1zM-110 1485h-1v-1h1v1zM-96 1484h-1v-1h1v1zM-106 1484h-1v-1h1v1zM-91 1483h-1v-1h1v1zM-94 1484l-1 -1v-1h1v2zM-103 1483h-1v-1h1v1zM-108 1483h-1v-1h1v1zM-88 1482h-1l1 -1h1l-1 1zM-98 1482h-1v-1h1v1zM-86 1481h-1v-1h1v1zM-94 1481h-2v-1h2v1zM-104 1481h-1v-1h1v1zM-80 1480h-3l1 -1h2v1zM-92 1480h-1v-1h1v1zM-98 1480h-1v-1h1v1zM-78 1479h-1l1 -1h1l-1 1zM-87 1479h-1v-1h1v1zM-94 1479h-3l1 -1h3l-1 1zM-84 1478h-3l1 -1h2v1zM-92 1478h-1l1 -1h1l-1 1zM-112 1478h-1v-1h1v1zM-116 1478h-1v-1h1v1zM-80 1477h-1v-1h1v1zM-82 1477h-1v-1h1v1zM-87 1477h-1v-1h1v1zM-89 1477h-1v-1h1v1zM-104 1477h-1v-1h1v1zM-94 1476h-1l1 -1h1l-1 1zM-107 1476h-1v-1h1v1zM-115 1476h-1v-1h1v1zM-80 1475h-1v-1h1v1zM-84 1476h-2v-1l4 -1l-2 2zM-108 1475h-3l1 -1h2v1zM-114 1475h-1l1 -1h1l-1 1zM-76 1474h-2v-1h2v1zM-100 1474h-1v-1h1v1zM-111 1474h-1v-1h1v1zM-89 1473h-1v-1h1v1zM-108 1473h-1v-1h1v1zM-110 1473h-1v-1h1v1zM-113 1473h-1v-1h1v1zM-100 1472h-1v-1h1v1zM-87 1471h-1v-1h1v1zM-103 1471h-1v-1h1v1zM-110 1471h-2v-1h2v1zM-80 1470h-1v-1h1v1zM-100 1470h-2v-1h2v1zM-108 1470h-1v-1h1v1zM-103 1469h-1v-1h1v1zM-94 1468h-1v-1h1v1zM-108 1468h-1v-1h1v1zM-92 1467h-1v-1h1v1zM-89 1466h-1v-1h1v1zM-96 1466h-1l1 -1h1l-1 1zM-103 1466h-1v-1h1v1zM-81 1465h-1v-1h1v1zM-94 1465h-1v-1h1v1zM-100 1465h-1v-1h1v1zM-79 1464h-1v-1h1v1zM-83 1464h-1v-1h1v1zM-86 1465h-2v-1l2 -1v1v1zM-90 1465l-1 -1v-1l1 1v1zM-92 1465l-1 -1v-1l1 1v1zM-97 1464h-1v-1h1v1zM-89 1463h-1v-1h1v1zM-94 1463h-1v-1h1v1zM-104 1463h-1v-1h1v1zM-84 1463l-2 -1h-1l1 -1h2v1v1zM-92 1462h-1v-1h1v1zM-108 1462h-1v-1h1v1zM-89 1461h-1v-1h1v1zM-104 1461h-3l1 -1h2v1zM-83 1459h-1v-1h1v1zM-78 1458h-1v-1h1v1zM-80 1458h-1v-1h1v1zM-77 1457h-1v-1h1v1zM-141 1493v-1h1v1h-1zM-56 1451h-1v-1h1v1zM-58 1451h-1v-1h1v1zM-48 1448h-1v-1h1v1zM-63 1444h-1v-1h1v1zM-65 1444h-1v-1h1v1zM-52 1443h-1v-1h1v1zM-61 1443h-1v-1h1v1zM-71 1443h-1v-1h1v1zM-58 1442h-1v-1h1v1zM-64 1442h-2v-1h2v1zM-72 1442h-1v-1h1v1zM-75 1442h-1v-1h1v1zM-51 1441h-1v-1h1v1zM-56 1441h-1v-1h1v1zM-74 1441h-1v-1h1v1zM-44 1440h-1v-1h1v1zM-53 1441l-1 -1v-1l1 1v1zM-71 1440h-1v-1h1v1zM-50 1439h-2v-1h2v1zM-54 1439h-1v-1h1v1zM-44 1438h-1v-1h1v1zM-48 1439h-1v-1l1 -1l1 1l-1 1zM-74 1438h-1v-1h1v1zM-37 1437h-1v-1h1v1zM-41 1437h-1v-1h1v1zM-46 1437h-1v-1h1v1zM-41 1436v-1h2v3l-2 -1l1 -1h-1zM-45 1436h-1v-1h1v1zM-69 1436h-1v-1h1v1zM-73 1436h-1v-1h1v1zM-38 1435h-1l1 -1h1l-1 1zM-44 1437v-1l2 -2v2l-2 1zM-44 1435h-1v-1h1v1zM-61 1435h-1v-1h1v1zM-70 1435h-2v-1h2v1zM-50 1435l-1 -1v-1l1 1v1zM-74 1434h-1v-1h1v1zM-39 1433h-1v-1h1v1zM-65 1433h-1v-1h1v1zM-41 1434h-1v-3h2v1h-1v2zM-49 1432h-1v-1h1v1zM-62 1432h-1v-1h1v1zM-59 1431h-1v-1h1v1zM-45 1430h-1v-1h1v1zM-48 1430h-1v-1h1v1zM-58 1430h-1l1 -1h1l-1 1zM-56 1429h-1l1 -1h1l-1 1zM-41 1428h-1v-1h1v1zM-44 1428h-1v-1h1v1zM-54 1428h-1v-1h1v1zM-40 1426h-1v-1h1v1zM-50 1426h-2v-1h2v1zM-48 1425h-2v-1h2v1zM-45 1424h-1h-1l1 -2h1v2zM-43 1422h-1v-1h1v1zM-40 1421h-2v-1h2v1zM-38 1420h-2v-1h2v1zM-75 1420h-1v-1h1v1zM-71 1419h-1v-1h1v1zM-29 1418h-1v-1h1v1zM-31 1418h-1v-1h1v1zM-59 1417h-1v-1h1v1zM-61 1417h-1v-1h1v1zM-31 1416h-1v-1h1v1zM-41 1416h-1v-1h1v1zM-44 1416h-1l1 -1h1l-1 1zM-47 1416h-1v-1h1v1zM-50 1416h-5l1 -1h4v1zM-66 1416h-1l1 -1h1l-1 1zM-71 1417l-1 -1v-1l1 1v1zM-74 1416h-1l1 -1h1l-1 1zM-58 1415h-1v-1h1v1zM-48 1414h-2v-1h2v1zM-51 1414h-1v-1h1v1zM-66 1414h-1v-1h1v1zM-63 1413h-1v-1h1v1zM-71 1413h-1v-1h1v1zM-64 1412h-1v-1h1v1zM-58 1411h-1v-1h1v1zM-61 1411h-1v-1h1v1zM-63 1411h-1v-1h1v1zM-51 1410h-1v-1h1v1zM-56 1410h-1v-1h1v1zM-54 1409h-1l1 -1h1l-1 1zM-57 1409h-1v-1h1v1zM-59 1410h-1h-1l1 -2h1v2zM-51 1408h-1v-1h1v1zM-55 1408h-1v-1h1v1zM-49 1407h-1v-1h1v1zM-53 1407h-1v-1h1v1zM-70 1407h-1l1 -1h1l-1 1zM-47 1406h-1v-1h1v1zM-50 1406h-2v-1h2v1zM-63 1406h-1v-1h1v1zM-65 1406h-1v-1h1v1zM-68 1406h-1l1 -1h1l-1 1zM-44 1405h-2v-1h2v1zM-49 1405h-1v-1h1v1zM-58 1405h-5l1 -1h4v1zM-40 1403v1l-1 -1h1zM-43 1404h-1v-1h1v1zM-52 1404h-1v-1h1v1zM-55 1404h-1v-1h1v1zM-46 1403h-1l1 -1h1l-1 1zM-58 1403h-1l1 -1h1l-1 1zM-61 1403h-1v-1h1v1zM-48 1402h-3l1 -1h3l-1 1zM-75 1402h-1v-1h1v1zM-48 1400h-2v-1h2v1zM-63 1400h-1v-1h1v1zM-67 1400h-1v-1h1v1zM-73 1400h-1v-1h1v1zM-60 1399h-2v-1h2v1zM-46 1398h-1v-1h1v1zM-48 1398h-2v-1h2v1zM-63 1397h-1v-1h1v1zM-74 1397h-1v-1h1v1zM-70 1397h-2v-2h2v2zM-68 1395h-1l1 -1h1l-1 1zM-54 1394h-1v-1h1v1zM-66 1395v-1l2 -1v1l-2 1zM-62 1394l-1 -1l1 -1h1l-1 2zM-50 1392h-1v-1h1v1zM-58 1392h-2v-1h2v1zM-54 1391h-3l1 -1h2v1zM-70 1391h-1v-1h1v1zM-43 1390h-1v-1h1v1zM-53 1390h-1v-1h1v1zM-71 1390h-1v-1h1v1zM-48 1389h-1v-1h1v1zM-67 1389h-1v-1h1v1zM-38 1388h-2v-1h2v1zM-47 1388h-1v-1h1v1zM-87 1449h-1v-1h1v1zM-77 1444h-1v-1h1v1zM-80 1439l-1 -1v-1l1 1v1zM-84 1421v1l-2 -1h2zM-80 1421h-1v-1h1v1zM-82 1419h-1l1 -1h1l-1 1zM-76 1418h-1v-1h1v1zM-78 1419h-2l-1 -1l1 -1l2 1v1zM-83 1418h-1v-1h1v1zM-81 1417h-1v-1h1v1zM-76 1415h-1v-1h1v1zM-91 1411h-1v-1h1v1zM-93 1411h-1v-1h1v1zM-95 1410h-1v-1h1v1zM-90 1409h-1v-1h1v1zM-96 1409h-1v-1h1v1zM-76 1408h-2v1l-1 -1v-1h4l-1 1zM-96 1407h-1v-1h1v1zM-80 1406h-1v-1h1v1zM-95 1406h-1v-1h1v1zM-76 1405h-1v-1h1v1zM-88 1405h-1v-1h1v1zM-77 1402h-1v-1h1v1zM-88 1403h-3l1 -1l2 -1v1v1zM-76 1401h-1v-1h1v1zM-76 1398h-1l1 -1h1l-1 1zM-82 1390h-1v-1h1v1zM-80 1389h-1v-1h1v1zM-10 1344h-1l1 -1h1l-1 1zM-6 1343h-1v-1h1v1zM-44 1387h-1v-1h1v1zM-32 1386h-1l1 -1h1l-1 1zM-41 1386h-1v-1h1v1zM-52 1386h-1v-1h1v1zM-54 1386h-1v-1h1v1zM-62 1386h-1v-1h1v1zM-21 1385h-1v-1h1v1zM-35 1385h-1v-1h1v1zM-51 1385h-1v-1h1v1zM-19 1385l-1 -1v-1l1 1v1zM-47 1384h-1v-1h1v1zM-57 1384h-1v-1h1v1zM-64 1383v1v1l-1 -1v-1h1zM-29 1383h-1v-1h1v1zM-41 1383h-1v-1h1v1zM-43 1384l-1 -1v-1h1v2zM-45 1384l-1 -1v-1h1v2zM-52 1383h-2v-1h2v1zM-59 1384l-1 -1v-1h1v2zM-64 1382h1l-1 1v-1zM-65 1383h-1v-1h1v1zM-20 1382h-1v-1h1v1zM-40 1382h-1l1 -1h1l-1 1zM-47 1382h-1v-1h1v1zM-50 1382h-1l1 -1h1l-1 1zM-58 1382h-1l1 -1h1l-1 1zM-14 1381h-1v-1h1v1zM-25 1381h-1v-1h1v1zM-36 1381h-1l1 -1h1l-1 1zM-43 1381h-1v-1h1v1zM-48 1381h-1v-1h1v1zM-56 1381h-1l1 -1h1l-1 1zM-62 1381h-1v-1h1v1zM-65 1382v-2h1v2h-1zM-20 1380h-1l1 -1h1l-1 1zM-27 1380h-1v-1h1v1zM-45 1380h-1v-1h1v1zM-50 1380h-1v-1h1v1zM-54 1380h-1l1 -1h1l-1 1zM-60 1380h-1v-1h1v1zM-18 1379h-1v-1h1v1zM-30 1380h-2v-2l2 1h1l-1 1zM-32 1381h-2l-1 -1v-2h1l2 2v1zM-52 1379h-1v-1h1v1zM-59 1379h-1v-1h1v1zM-62 1379h-1v-1h1v1zM-28 1379l-1 -1v-1l1 1v1zM-32 1378h-1v-1h1v1zM-40 1378h-1l1 -1h1l-1 1zM-46 1378h-1v-1h1v1zM-50 1379l-1 -1l1 -1h1v1l-1 1zM-25 1379h-2v-3h2v3zM-29 1377h-1v-1h1v1zM-60 1377h-1l1 -1h1l-1 1zM-53 1376h-1v-1h1v1zM-57 1376h-1v-1h1v1zM-24 1376l-1 -1v-1h1v2zM-27 1376l-1 -1v-1h1v2zM-33 1374l1 1h1l-1 1h-2v-2h1zM-41 1375h-1v-1h1v1zM-50 1375h-2v-1h2v1zM-49 1374h-1v-1h1v1zM-45 1373h-1v-1h1v1zM-28 1373l-1 -1l1 -1h1v1l-1 1zM-34 1372h-1v-1h1v1zM-39 1372h-1v-1h1v1zM-42 1373l-2 -1v-1h2l1 1l-1 1zM-57 1372h-1v-1h1v1zM-32 1371h-1l1 -1h1l-1 1zM-36 1371h-1v-1h1v1zM-61 1370l-1 1v-1h1zM-30 1370h-1v-1h1v1zM-48 1370h-1v-1h1v1zM-52 1371h-3v-1l1 -1v1h2v1zM-56 1370h-1v-1h1v1zM-61 1369l1 1h-1v-1zM-62 1370h-1l1 -1v1zM-50 1369h-2v-1h2v1zM-59 1369h-1v-1h1v1zM-62 1369v-1l1 1h-1zM-28 1369h-2v-1l2 -1v1v1zM-30 1368h-1v-1h1v1zM-33 1368h-1v-1h1v1zM-36 1368h-3l1 -1h2v1zM-46 1368h-1v-1h1v1zM-40 1368l-2 -2h2v2zM-49 1367h-1v-1h1v1zM-27 1367l-1 -1v-1l1 1v1zM-31 1366h-1v-1h1v1zM-50 1366h-1v-1h1v1zM-61 1366h-1v-1h1v1zM-28 1365h-1v-1h1v1zM-30 1365h-1v-1h1v1zM-52 1365h-1v-1h1v1zM-59 1365h-1v-1h1v1zM-31 1364h-1v-1h1v1zM-34 1364h-1l1 -1h1l-1 1zM-47 1364h-1v-1h1v1zM-46 1363h-1v-1h1v1zM-52 1363h-2v-1h2v1zM-43 1362h-1v-1h1v1zM-50 1362h-1l1 -1h1l-1 1zM-45 1361h-1v-1h1v1zM-43 1360h-1v-1h1v1zM-40 1359h-2v-1h2v1zM-36 1358h-2v-1h2v1zM-29 1357h-1v-1h1v1zM-33 1357h-1v-1h1v1zM-35 1357h-1v-1h1v1zM-50 1357h-1v-1h1v1zM-54 1359l-1 -1v-2h1l2 2h-2v1zM-30 1356h-2v-1h2v1zM-38 1356h-1v-1h1v1zM-41 1356h-1v-1h1v1zM-74 1355v1l-1 -1h1zM-37 1355h-1v-1h1v1zM-52 1356l-2 -1v-1h3v2h-1zM-74 1354h1l-1 1v-1zM-75 1355h-1v-1h1v1zM-30 1354h-1v-1h1v1zM-32 1354h-1v-1h1v1zM-56 1354h-2v-1h2v1zM-75 1354l1 -1v1h-1zM-15 1353h-1v-1h1v1zM-24 1353h-1l1 -1h1l-1 1zM-28 1355h-2v-1h2v-2h2v2l-2 1zM-38 1353h-1v-1h1v1zM-71 1355l-1 -1v-2h1v3zM-18 1352h-1v-1h1v1zM-21 1352h-1v-1h1v1zM-31 1352h-1v-1h1v1zM-49 1352l1 -1v1h-1zM-56 1352h-2v-1h3l-1 1zM-15 1351h-1v-1h1v1zM-27 1351h-1v-1h1v1zM-34 1352h-4l-1 -2h1l4 1v1zM-44 1351h-2v-1h2v1zM-52 1351h-1l1 -1h1l-1 1zM-14 1350h-1v-1h1v1zM-16 1350h-2v-1h2v1zM-19 1350h-1v-1h1v1zM-36 1350h-1l1 -1h1l-1 1zM-25 1349h-1v-1h1v1zM-32 1351l-1 -1l1 -2h1v2l-1 1zM-40 1350v-1l2 -1l-2 2zM-41 1351l-1 -1v-2h1v3zM-43 1349h-1v-1h1v1zM-55 1349h-1v-1h1v1zM-17 1348h-1v-1h1v1zM-24 1348h-1v-1h1v1zM-30 1351v-1v-2h-1l1 -1h2v3l-2 1zM-20 1349h-2l-2 -3h2l2 2v1zM-26 1347h-2v-1h2v1zM-14 1346h-2v-1h2v1zM-20 1347v-1l2 -1v1l-2 1zM-21 1346h-1v-1h1v1zM-30 1346h-1v-1h1v1zM-28 1345h-1v-1h1v1zM-12 1345l-1 -1v-1l1 1v1zM-26 1345l-1 -1l1 -1l1 1l-1 1zM-17 1343h-1v-1h1v1zM-20 1343h-3l1 -1h2v1zM-76 1361h-1v-1h1v1zM-77 1359h-1v-1h1v1zM-76 1356h-1v-1h1v1zM-254 1370h-1v-1h1v1zM-274 1365h-2v-1h2v1zM-110 1134v-1l1 1h-1zM-75 1083v-1h1v1h-1zM-74 1082v-2h1v2h-1zM-71 1078v-1h1v1h-1zM-70 1077v-1h1l-1 1zM-69 1076v-1h1v1h-1zM-49 1074v2h-1v-2h1zM-68 1075v-1h1l-1 1zM-49 1073l1 1h-1v-1zM-50 1074h-1l1 -1v1zM-67 1074v-1h1v1h-1zM-50 1073v-1l1 1h-1zM-66 1073v-1h1l-1 1zM-56 1072h-1v-1h1v1zM-58 1072h-3l1 -1h2v1zM-65 1072v-1h1v1h-1zM-53 1071h-1v-1h1v1zM-57 1071h-1v-1h1v1zM-107 1129h-1v-1h1v1zM-85 1101v-2h1v1v1h-1zM-84 1099v-2h1v1l-1 1zM-78 1075v-1h1v1h-1zM-54 1060h-2v-1h2v1zM-22 1052h-1v-1h1v1zM-161 1017h-1v-1h1v1zM-160 1017v-1l2 -1v1l-2 1zM-162 1014h-1v-1h1v1zM-163 1013h-1v-1h1v1zM-162 1012h-1v-1h1v1zM-163 1011h-1v-1h1v1zM-253 994h-1v-4h1v4zM-252 988l-1 -1v-1h1v2zM-254 990h-1v-4h1v4zM-251 984h-1v-1h1v1zM-253 985l-1 -1v-1l1 1v1zM-251 981h-1v-1h1v1zM-250 979h-1v-1h1v1zM-252 980l-1 -1v-1h1v2zM-252 977h-1v-1h1v1zM-251 976h-1v-1h1v1zM452 1797h-1v-1h1v1zM454 1796h-1v-1h1v1zM453 1795h-1v-1h1v1zM446 1795h-1v-1h1v1zM444 1795h-1v-1h1v1zM440 1795h-1l1 -1h1l-1 1zM448 1795l-1 -1v-1l1 1v1zM447 1793h-1v-1h1v1zM444 1793h-1v-1h1v1zM453 1792h-1v-1h1v1zM446 1792h-1v-1h1v1zM440 1792h-1v-1h1v1zM451 1791h-1v-1h1v1zM441 1791h-1v-1h1v1zM448 1790h-1v-1h1v1zM439 1790h-1v-1h1v1zM444 1789h-1v-1h1v1zM440 1788h-1v-1h1v1zM448 1785h-1v-1h1v1zM441 1785h-1v-1h1v1zM438 1785h-1v-1h1v1zM460 1784h-1v-1h1v1zM448 1783h-1v-1h1v1zM444 1783h-1l1 -1h1l-1 1zM442 1783h-3l1 -1h2v1zM459 1782h-1v-1h1v1zM460 1781h-1v-1h1v1zM440 1779h-1l1 -1h1l-1 1zM462 1779l-1 -1v-1l1 1v1zM454 1778h-1v-1h1v1zM456 1778v-1l2 -1l-2 2zM460 1776h-1v-1h1v1zM458 1775h-1v-1h1v1zM448 1775h-2v-1h2v1zM456 1774h-1v-1h1v1zM452 1773h-2v-1h2v1zM448 1772h-1v-1h1v1zM446 1772h-1v-1h1v1zM422 1797h-1v-1h1v1zM379 1797h-1v-1h1v1zM374 1797h-1v-1h1v1zM430 1796h-1v-1h1v1zM436 1796l-4 -1v-1h5v2h-1zM431 1795h-1v-1h1v1zM428 1795h-2v-1h2v1zM420 1795h-2v-1h3l-1 1zM414 1795h-1v-1h1v1zM410 1795h-1l1 -1h1l-1 1zM407 1795h-1v-1h1v1zM403 1795h-1v-1h1v1zM396 1795h-1v-1h1v1zM391 1795h-1v-1h1v1zM380 1795h-1l1 -1h1l-1 1zM378 1795h-4v-1h4v1zM424 1793h-1v-1h1v1zM420 1793h-1l1 -1h1l-1 1zM416 1793h-1l1 -1h1l-1 1zM413 1793h-1v-1h1v1zM410 1793h-1v-1h1v1zM386 1793h-1v-1h1v1zM383 1793h-1v-1h1v1zM375 1793h-1v-1h1v1zM403 1792h-1v-1h1v1zM396 1792h-1v-1h1v1zM393 1792h-1v-1h1v1zM390 1792h-4v-1h4v1zM382 1792h-1v-1h1v1zM378 1792h-1v-1h1v1zM435 1791h-1v-1h1v1zM428 1791h-1v-1h1v1zM426 1791h-1v-1h1v1zM424 1791h-2v-1h2v1zM420 1791h-1l1 -1h1l-1 1zM418 1791h-1v-1h1v1zM432 1791h-1v-1l1 -1l1 1l-1 1zM419 1790h-1v-1h1v1zM416 1790h-2v-1h2v1zM413 1790h-1v-1h1v1zM408 1790h-1v-1h1v1zM406 1790h-3l1 -1h2v1zM402 1790h-2v-1h2v1zM393 1790h-1v-1h1v1zM422 1788h-1v-1h1v1zM436 1787h-2v-1h2v1zM426 1787h-1v-1h1v1zM423 1787h-1v-1h1v1zM422 1786h-1v-1h1v1zM419 1786h-1v-1h1v1zM434 1785h-3l1 -1h3l-1 1zM427 1785h-1v-1h1v1zM424 1785h-2v-1h2v1zM412 1785h-1v-1h1v1zM401 1785h-1v-1h1v1zM390 1785h-1v-1h1v1zM422 1784h-1v-1h1v1zM410 1784h-1l1 -1h1l-1 1zM407 1784h-1v-1h1v1zM400 1784h-1v-1h1v1zM396 1784h-1v-1h1v1zM382 1784h-3l1 -1h3l-1 1zM436 1783h-5l1 -1h5l-1 1zM430 1783h-1v-1h1v1zM418 1783h-1v-1h1v1zM416 1783h-2v-1h2v1zM405 1783h-1v-1h1v1zM411 1782h-1v-1h1v1zM400 1782h-3l1 -1h2v1zM396 1782h-1v-1h1v1zM392 1782h-1v-1h1v1zM381 1782h-1v-1h1v1zM390 1782l-1 -1l1 -1h1l-1 2zM388 1781h-1v-1h1v1zM384 1783l-1 -1l1 -2h1v2l-1 1zM379 1781h-1v-1h1v1zM376 1781h-1l1 -1h1l-1 1zM382 1781l-2 -1h-1l1 -1h2v1v1zM436 1779h-1v-1h1v1zM434 1779h-1v-1h1v1zM432 1779h-1v-1h1v1zM429 1779h-1v-1h1v1zM436 1773h-1v-1h1v1zM431 1772h-1v-1h1v1zM319 1835h-1v-1h1v1zM323 1834h-1v-1h1v1zM324 1833l-1 -1h1v1zM317 1833h-1v-1h1v1zM310 1833h-1v-1h1v1zM330 1832h-1v-1h1v1zM316 1832h-1v-1h1v1zM310 1831h-1v-1h1v1zM324 1830h-2v-1h2v1zM314 1831h-2v-1l2 -1v1v1zM330 1829h-1v-1h1v1zM326 1830l-1 -1v-1h1v2zM325 1828h-1v-1h1v1zM322 1828h-1v-1h1v1zM317 1829l-1 -1v-1l1 1v1zM313 1828h-1v-1h1v1zM328 1827h-1v-1h1v1zM372 1797h-1v-1h1v1zM341 1797h-1v-1h1v1zM358 1796h-2v-1h2v1zM346 1796h-1v-1h1v1zM372 1795h-1l1 -1h1l-1 1zM335 1795h-1v-1h1v1zM358 1794h-1v-1h1v1zM372 1793h-5l1 -1h4v1zM366 1793h-1v-1h1v1zM364 1793h-2v-1h2v1zM350 1781h-3v-1l1 -1v1h2v1zM346 1781h-5l1 -1h2l2 -1v1v1zM340 1781h-2v-1l2 -1l1 1l-1 1zM336 1781h-1v-2h3v1l-2 1zM334 1780h-1v-1h1v1zM332 1780h-1v-1h1v1zM360 1778h-2v-1h3l-1 1zM354 1777h-1v-1h1v1zM352 1777h-5l1 -1h4v1zM346 1777h-1v-1h1v1zM320 1777h-1l1 -1h1l-1 1zM368 1776h-1v-1h1v1zM360 1776h-1v-1h1v1zM342 1776h-1v-1h1v1zM340 1776h-1v-1h1v1zM338 1776h-5l1 -1h4v1zM328 1776h-1v-1h1v1zM326 1776h-1v-1h1v1zM321 1775h-1v-1h1v1zM314 1775h-4v-1h4v1zM309 1775h-1v-1h1v1zM302 1833h-4v-1h5l-1 1zM272 1832h-1l1 -1h1l-1 1zM269 1832h-1v-1h1v1zM300 1831h-1v-1h1v1zM293 1831h-1v-1h1v1zM287 1831h-1v-1h1v1zM302 1831v-1l2 -1v1l-2 1zM301 1830h-1v-1h1v1zM298 1830h-1v-1h1v1zM296 1830h-1v-1h1v1zM268 1830h-1v-1h1v1zM251 1829h-1v-1h1v1zM290 1828h-1v-1h1v1zM288 1828h-1v-1h1v1zM286 1828h-2v-1h2v1zM282 1828h-1l1 -1h1l-1 1zM280 1828h-2v-1h2v1zM265 1827h-1v-1h1v1zM262 1827h-4v-1h5l-1 1zM274 1826h-1v-1h1v1zM272 1826h-1v-1h1v1zM270 1826h-1v-1h1v1zM247 1826h-1v-1h1v1zM261 1825h-1v-1h1v1zM256 1825l-1 -1v-1l1 1v1zM253 1825l-1 -1v-1l1 1v1zM259 1796h-1v-1h1v1zM255 1796h-1v-1h1v1zM253 1796h-1v-1h1v1zM251 1796h-1v-1h1v1zM280 1795h-2v-1h3l-1 1zM276 1795h-5l1 -1h5l-1 1zM270 1795h-1v-1h1v1zM305 1794h-1v-1h1v1zM300 1794h-1v-1h1v1zM306 1792h-1v-1h1v1zM300 1792h-1v-1h1v1zM298 1792h-1v-1h1v1zM296 1793h-2v-1v-1l2 1h1l-1 1zM280 1792h-1v-1h1v1zM305 1791h-1v-1h1v1zM302 1793l-1 -2l1 -1l1 2l-1 1zM292 1793l-1 -1v-2h1v3zM289 1791h-1v-1h1v1zM286 1791h-1l1 -1h1l-1 1zM282 1792v-1l2 -1l-2 2zM298 1790h-1v-1h1v1zM296 1790h-1v-1h1v1zM278 1790h-1l1 -1h1l-1 1zM276 1791l-2 -1v-1h2v1v1zM304 1789h-1l1 -1h1l-1 1zM300 1790l-1 -1v-1h1v2zM268 1788h-1v-1h1v1zM283 1787h-1v-1h1v1zM250 1787h-1v-1h1v1zM284 1786h-1v-1h1v1zM275 1785h-1v-1h1v1zM259 1784h-1v-1h1v1zM302 1779h-1v-1h1v1zM303 1778l-1 -1v-1h1v2zM300 1778h-1v-3l1 1l1 2h-1zM306 1775h-2v-1h3l-1 1zM302 1775h-2v-1l2 -1l1 1l-1 1zM442 1771h-1v-1h1v1zM440 1771h-1v-1h1v1zM426 1771h-1v-1h1v1zM421 1770h-1v-1h1v1zM379 1763h-1v-1h1v1zM402 1762h-1v-1h1v1zM391 1762h-1v-1h1v1zM374 1762h-1v-1h1v1zM398 1761h-1v-1h1v1zM386 1758h-1v-1h1v1zM380 1757h-1l1 -1h1l-1 1zM376 1756h-1l1 -1h1l-1 1zM370 1761h-1v-1h1v1zM366 1760h-4v-1h4v1zM358 1759h-1l1 -1h1l-1 1zM356 1759h-1v-1h1v1zM320 1759h-1l1 -1h1l-1 1zM314 1759h-3l1 -1h2v1zM371 1758h-1v-1h1v1zM330 1758h-2v-1h3l-1 1zM324 1758h-1v-1h1v1zM322 1758h-1v-1h1v1zM318 1759l-1 -1l1 -1l1 1l-1 1zM316 1759l-1 -1v-1l1 1v1zM366 1757h-1v-1h1v1zM336 1757h-2v-1h2v1zM333 1757h-1v-1h1v1zM328 1757h-4v-1h4v1zM359 1756h-1v-1h1v1zM345 1756h-1v-1h1v1zM340 1756h-1v-1h1v1zM372 1755h-1l1 -1h1l-1 1zM342 1755h-1l1 -1h1l-1 1zM334 1755h-1v-1h1v1zM366 1754h-2v-1h3l-1 1zM330 1754h-2v-1h2v1zM321 1755h-3v-1h2v-1l1 1v1zM362 1753h-1v-1h1v1zM360 1753h-1v-1h1v1zM336 1753h-1l1 -1h1l-1 1zM334 1753h-1v-1h1v1zM316 1753h-3l1 -1h3l-1 1zM312 1753h-1v-1h1v1zM357 1753l-1 -1v-1l1 1v1zM354 1752h-2v-1h2v1zM351 1752h-1v-1h1v1zM346 1752h-1v-1h1v1zM342 1752h-1v-1h1v1zM348 1751h-1v-1h1v1zM347 1750h-1v-1h1v1zM321 1750h-1v-1h1v1zM310 1749h-1v-1h1v1zM345 1748h-1v-1h1v1zM342 1748h-1v-1h1v1zM343 1747h-1v-1h1v1zM341 1747h-1v-1h1v1zM336 1747h-2v-1h2v1zM332 1747h-1l1 -1h1l-1 1zM315 1747h-1v-1h1v1zM312 1747h-1v-1h1v1zM285 1761h-1v-1h1v1zM278 1761h-3l1 -1h2v1zM304 1760h-1l1 -1h1l-1 1zM299 1760h-1v-1h1v1zM264 1757h-1v-1h1v1zM305 1756h-1v-1h1v1zM260 1756h-4v-1h4v1zM250 1756h-1v-1h1v1zM285 1755h-1v-1h1v1zM282 1755h-3l1 -1h2v1zM278 1755h-1v-1h1v1zM256 1755h-2v-1h2v1zM253 1755h-1v-1h1v1zM297 1754h-1v-1h1v1zM268 1754h-1v-1h1v1zM266 1755h-4v-1l2 -1v1h2v1zM308 1753h-1v-1h1v1zM288 1753h-1v-1h1v1zM247 1753h-1v-1h1v1zM303 1752h-1v-1h1v1zM300 1752h-4v-1h5l-1 1zM290 1753l-1 -1l1 -1h4v1h-2l-2 1zM259 1752h-1v-1h1v1zM256 1752h-1v-1h1v1zM253 1752h-1v-1h1v1zM268 1751h-4v-1h4v1zM250 1751h-2v-1h3l-1 1zM260 1750h-1v-1h1v1zM258 1750h-1v-1h1v1zM256 1750h-1v-1h1v1zM308 1749h-2v-1h2v1zM272 1749h-1v-1h1v1zM283 1748h-1v-1h1v1zM308 1747h-1l1 -1h1l-1 1zM306 1747h-1v-1h1v1zM510 1197h-1v-1h1v1zM506 1197h-4v-1h4v1zM511 1196h-1v-1h1v1zM493 1202h-1v-1h1v1zM492 1201h-1v-1h1v1zM493 1200h-1v-1h1v1zM497 1199h-1v-1h1v1zM500 1198h-1v-1h1v1zM251 1168h-1v-1h1v1zM235 1828h-1v-1h1v1zM232 1828h-1v-1h1v1zM229 1827h-1v-1h1v1zM221 1826h-1v-1h1v1zM235 1825h-1v-1h1v1zM213 1825h-1v-1h1v1zM244 1824h-1v-1h1v1zM226 1824h-2v-1h3l-1 1zM219 1824h-1v-1h1v1zM199 1824h-1v-1h1v1zM196 1824h-6v-1h6v1zM186 1824h-1v-1h1v1zM184 1824h-1v-1h1v1zM242 1823h-1v-1h1v1zM240 1823h-2v-1h2v1zM236 1823h-1l1 -1h1l-1 1zM234 1823h-1v-1h1v1zM218 1823h-3l1 -1h2v1zM208 1823h-1v-1h1v1zM227 1822h-1v-1h1v1zM209 1822h-1v-1h1v1zM198 1822h-1v-1h1v1zM194 1820h-1v-1h1v1zM192 1820h-1v-1h1v1zM187 1820h-1v-1h1v1zM190 1820l-2 -2h2h1l-1 2zM202 1818h-1v-1h1v1zM194 1818h-2v-1h3l-1 1zM186 1818h-1v-1h1v1zM192 1817h-1v-1h1v1zM204 1817h-2v-1l2 -1l1 1l-1 1zM197 1816h-1v-1h1v1zM217 1813l-1 -1v-1l1 1v1zM220 1812l-2 -2h2h1l-1 2zM221 1809h-1v-1h1v1zM218 1809v-1l2 -1v1l-2 1zM218 1807h-2v-1h2v1zM214 1807h-4v-1l2 -1h2l1 1l-1 1zM210 1806h-2v-1h2v1zM203 1805h-1v-1h1v1zM200 1805l-1 -1l1 -1h1v1l-1 1zM198 1804h-2v-1h2v1zM196 1803h-1v-1h1v1zM194 1803h-1v-1h1v1zM192 1803h-1v-1h1v1zM188 1803h-2v-1h3l-1 1zM182 1802h-1v-1h1v1zM228 1801h-2v-1h3l-1 1zM188 1800h-1l1 -1h1l-1 1zM204 1799h-1v-1h1v1zM218 1798h-2v-1h2v1zM238 1786h-1v-1h1v1zM234 1786h-1l1 -1h1l-1 1zM227 1786h-1v-1h1v1zM232 1786h-2h-1l1 -2l2 2zM229 1785h-1v-1h1v1zM224 1786l-1 -1v-1h1v2zM221 1784h-1v-1h1v1zM219 1784h-1v-1h1v1zM215 1784h-1v-1h1v1zM208 1784h-1v-1h1v1zM204 1783h-1v-1h1v1zM199 1783h-1v-1h1v1zM196 1783h-2v-1h3l-1 1zM192 1783h-1v-1h1v1zM188 1782h-2v-1h2v1zM189 1781h-1v-1h1v1zM184 1779h-1l1 -1h1l-1 1zM180 1824h-4v-1h5l-1 1zM180 1820v2l-2 -2l1 -1v1h1zM180 1802h-1v-1h1v1zM188 1763h-3l1 -1h2v1zM184 1763h-1v-1h1v1zM204 1762h-1l1 -1h1l-1 1zM202 1762h-1v-1h1v1zM198 1762h-1l1 -1h1l-1 1zM196 1762h-1v-1h1v1zM224 1761h-5l1 -1h4v1zM218 1761h-1v-1h1v1zM214 1761h-1l1 -1h1l-1 1zM230 1760h-2v-1h2v1zM226 1760h-1v-1h1v1zM240 1759h-1v-1h1v1zM236 1759h-1l1 -1h1l-1 1zM194 1759h-1v-1h1v1zM192 1759h-1v-1h1v1zM234 1757h-1v-1h1v1zM244 1757l-2 -1v-1h2v1v1zM236 1753h-1v-1h1v1zM240 1752h-3l1 -1h2v1zM244 1751h-1v-1h1v1zM182 1760h-3l1 -1h2v1zM517 977h1l1 1l-2 1v-2zM522 974h-1v-1h1v1zM526 968h-1v-1h1v1zM529 964h-1v-1h1v1zM528 962h-2v-1h3l-1 1zM530 961l-1 -1v-1l1 1v1zM536 955h-1v-1h1v1zM542 952h-1v-1h1v1zM544 948h-1v-1h1v1zM547 946h-1v-1h1v1zM352 1002v1l-1 -1h1zM261 965h-1v-1h1v1z"/></svg>