<svg xmlns="http://www.w3.org/2000/svg" viewBox="-698 2767 1291 814"><g class="s" data-r fill="#000" fill-rule="evenodd"><path class="chunk" data-i="0" d="M-54 3523h-3v-1l1 -2l4 -1l1 1v2h-1v-1h-2v1h1l-1 1zM-55 3522v-1h-1v1h1zM-61 3521h-3l-1 -1l1 -1l2 1v-1l1 1v1zM-70 3511l-2 -1v-1h4l2 -2l2 1h1v2h-5l-2 1zM-58 3509h-2v-1l-2 1v-1l-1 -2h1h2l2 2h1l-1 1zM-27 3503h1l1 1h-1v2l-2 -1h-1v-2h1v1l1 -1zM-28 3503v-1h-1v-1h3v-1h1v2l-2 1h-1zM-126 3538l-6 -2h-2h-1l1 -1l2 -1v1l9 1v-3l1 1v3h-2l-2 1zM-128 3533l-6 -1h-1l1 -1h6v1v1zM-86 3530l-8 -1l-2 1v-2h10v2z"/><path class="chunk" data-i="1" d="M-79 3530h-2v-2h-5v-1h6l1 1v2zM-112 3528h-7l1 -1h6v1zM-66 3519l-15 -1v-2h1v1l15 1l-1 1zM-84 3517h-11v-2h3v1l2 -1v1h6v1zM-80 3514h-4v-1h2v-1h-3l1 -1h5v1l-1 2zM-96 3514l-1 -2h1l4 -1v1l2 -1h2v1l-6 1l-2 1zM-115 3513l-1 -1l-2 -1v-1h4l-1 2v1zM-102 3512l-2 -1v1h-1v-2l1 -1l2 1h3l-1 1h-2v1zM-142 3531h-10v-1v-1l2 1h9l-1 1zM-174 3531v-1l8 -1v1h-6l-2 1zM-174 3528h-2l-2 -2h2v1l2 -1l1 2h-1z"/><path class="chunk" data-i="2" d="M-192 3530v-1l-2 1v-2v-1l2 1v-1h2v1h1v-2h1l1 2v1h-3l-2 1zM-164 3528h-2h-1l1 -2v-1l1 1l1 2zM-164 3524v-1h2l1 1v2h-1l-1 -1v-1h-1zM-188 3525h-4v-1v-1l2 1h1v-2h-1h-1l1 -1h2v3h1l-1 1zM-246 3542l-2 -1v1l-2 -2l2 -1l2 1v2zM-217 3534h-3l1 -2h-1v-2l3 2v2zM-220 3525h-6v-1h7l-1 1zM-200 3524h-11l1 -1h4v-1l2 1h2v-1l2 1h1l-1 1zM-265 3523h-2v-3l1 -1v1l2 -1h5v1l-1 1v-1l-2 1h-3v2zM-318 3539l-8 -1v-1h6l2 1v-1h2v1l-2 1zM-292 3536l2 1v-1v-1l1 1v1h3v-1h1l-1 4l-2 1l-9 -1l9 -1l1 -1h-5v-2z"/><path class="chunk" data-i="3" d="M-300 3538h-1l-2 -1v2h-4l1 -1l2 -2v-1l2 1v-2h-2v-1l2 -1l3 1v3h1v-1l3 1l-5 1v1zM-304 3535l-4 -1h-1l1 -1h1h3l-1 1h1v1zM-300 3527h-4h-2v-1v-1l-2 1h-1v-2l1 -1l2 1l3 1h1l2 -1l1 2l-1 1zM-304 3526v-1h-1v1h1zM-310 3533l-4 -3v-4l2 -3h3l-1 1h-1v2l-1 2h1v2l1 1l2 -1v2l-2 1zM-312 3527v-1h-1v1h1zM-258 3513v-1l-2 1l-2 -2h-4v1l-2 -1h-2v-1v-1l2 1h8l2 -1v1v1h2v1l-2 1zM-284 3510l-2 -1v1h-3l1 -1h1v-1l1 -1v1h2h1l-1 2zM-290 3508h-9l1 -1h9l-1 1zM-302 3510l-2 -2l-2 2l-4 -1h-2l-4 -1v-1l17 1l-1 1h-2v1zM-308 3509v-1h-1v1h1zM-363 3543h1l1 1l-1 1h-5v-1l1 -1v1l2 -1v1l1 -1zM-347 3536h2l3 -2h2l-1 2h1l2 -1l1 1l-1 1h-5v2h-1l-1 -1h1v-1l-2 1h-2l-2 1v-1h1l-1 -1l-1 -1l1 -1l2 1v1l1 -1zM159 3460l-5 1v-1l8 -1h1l-1 1h-3z"/><path class="chunk" data-i="4" d="M150 3456h-7l1 -1h7l-1 1zM151 3447h-2v-1l1 -2h4l4 -2l4 1v-2h2v1l2 -1v1l-2 2h-4l-6 2l-3 1zM164 3443v-1h-1v1h1zM172 3443l-2 -1v1l-1 -1v-1h-1h-1l1 -1h2v1l2 -2h2l1 1l-1 1h-1v1l-1 1zM166 3438h-18v-2l2 1l10 -1l2 1v-1l4 1h1l-1 1zM-306 3469h-7l1 -1h6v1zM-306 3465l-1 -1h-2v2h-1l-1 -2v-3l-1 1v1l-1 -1v-1h-6v1v1l-1 -1v-2l-2 1v-1h-6v-1l18 1h1l-1 2v1l2 -1v1l2 -2h2v1l2 -1h3l-1 1h-1l-3 2l-2 -1v2zM-321 3481h-7l-2 -2v1v2l-2 -1l-5 -1h1l-1 -1v-1h3v2h3l-1 -1h-1l1 -1h1v-3l1 1v2l2 -1l1 1h-1l2 2l2 -1l2 -1l1 2v1zM-341 3479v-1h-1v1h1zM-337 3480h-5l-2 -1v1h-1v-2l1 -1l3 -1v2h1v-2h1v2l2 1v1zM-338 3467h2v3h-2v1l-1 -1l-2 -2l1 -1h1l1 1v-1zM-337 3469v-1h-1v1h1zM-340 3470h-2l-2 -1v1h-2v-2h2l2 -1v1v1h2v1zM-352 3468l1 2v1h-3l-1 -1h1v-3l2 1z"/><path class="chunk" data-i="5" d="M-388 3471l-2 -1h-1l1 -1l4 -1v-1l1 1v1h-1l-2 2zM-330 3464l-2 -1v1h-4v2h-1v-3l7 -2l1 1h-1l1 2h-1zM-351 3463v-1h5l-1 2l-1 1v-1v-1l-2 1l-1 -1zM-370 3465v-1h-1v1h1zM-368 3467v1h-2v1l-1 -1v-2h-2v2h-1v-2l-2 2l-2 -1h-1l1 -1h2l3 -2h1l2 -2h1l1 4h-2v1h2zM-354 3467l-2 -1v-2h1v-2h1v1l1 -1v-1l1 1l1 1v1l1 1h2v1h-3l1 1l1 1h-1h-2v-4h-2v3zM-356 3464l-2 1v-1l-1 -2h1l2 -1v3zM-329 3460h-7l2 -2v1h4v-1h1v2zM-364 3462h-2l1 -2h-1v-2l2 2l1 2h-1zM-377 3462h-1v-5l1 1l1 1v-1h2v2h-3v2zM156 3434h-11l1 -1h6v-1l2 1l4 -1l-2 2zM138 3418h-4v-2l2 1v-1v-1l2 1h2l-1 -2h1l4 1v1v1l-2 -1h-1l-3 2z"/><path class="chunk" data-i="6" d="M165 3404l1 -2h2l-1 2h1v1h-2v-1h-1zM164 3400v-1h-2v1h2zM170 3400v1h-4l-2 1v-1l-2 1l-10 2l-2 -2l-2 2h2v1l-5 1h-4h-5l-1 4h-1l-2 -3h-2v-1l2 -1v1l2 -1l1 -1h2l1 1l1 -1h-1v-2l2 1h3v1v1l1 -1v-2h4v-2l2 1l3 -1l4 1v-2l5 -1h4l3 1v1h1zM154 3403v-1l-1 -1v1l1 1zM159 3402v-1h-1v1h1zM141 3406v-1h-1v1h1zM134 3407v-1h-1v1h1zM-138 3404h-2v-1l-2 1l-14 -2l-2 1v-1h-2v1l-2 -1h-2v1l-2 -1l-8 1l-2 -1v1l-2 -1h-2l-8 -2l-5 -2l-19 -4v-1l-2 1l-2 -2v1l-2 -1l-6 1l-2 -5l1 -4v-2h2l5 -1l2 2l22 6l2 -1v1h2l2 1v-1l2 1h4l2 -1v1h2l2 -1v1h4h3h3v1l2 -1v1l8 1v-1l2 1l16 -2v1l2 -1h1h9l10 -2l5 -2l7 -2h5l3 -2h3l5 -1l3 3l-1 3l-2 5l-6 2l-12 2l-18 3v1v1l-2 -1l-2 2h-2l-8 2zM160 3357v1l-4 1l-1 -1h1v-2h-1l1 -1h1v1l1 1h2zM157 3355v-1h3l4 -1v1h-2l-2 2l-2 -1h-1zM162 3347v1v1l-2 -1v1l-1 -1l1 -2v1h2zM173 3318h-1h-1l1 -2v-1h2l1 1l-1 1l-1 1zM-100 3321l-2 -1v1l-7 -1l-4 -1l-17 -6l-4 -1l-15 -9v-2h-1l-4 -3l-1 -2l-5 -7l-4 -9l-2 -9v-5l-1 -2h1l-1 -2h1l-1 -2l1 -6l1 -7l3 -5l3 -6l5 -7v-2l1 -1l-1 -1l-2 3l-2 2l-2 1l-3 -3h1v-2l3 -4l7 -8l6 -4h2l2 -2h3l11 -3h9l5 1h2l2 2h2l9 2l1 3l8 11h2v2h2l1 2l5 7l7 17l1 4h1l-1 2h1v4l1 2h-1l1 2l1 6v12l-1 4l-2 6l-2 6l-2 2l-9 12l-1 1h-2l-2 2l-2 1l-8 2v1zM-139 3219l7 -3l4 -2l3 -1h1l1 -1h-1l-14 3l-2 2h-2l-5 5v2h1l2 -3l5 -2zM-152 3225v-1h-1v1h1zM-148 3227v-1h-1v1h1zM-140 3231v-1h-1v1h1zM-144 3236v-1h-1v1h1zM-159 3275l1 -5l2 -12l1 -2h-1l-1 -5v-2l1 -5h1l-1 -2h1l1 -4v-2l-2 2l-2 2l-1 3l-1 4l-1 3v16l1 8l1 1zM-145 3238v-1h-1v1h1zM-146 3242l-2 -2v2h2zM-145 3241v-1h-1v1h1zM-115 3218l5 -1v-1h-2h-10l-1 1h1l7 1zM-102 3225v-1l-2 -2h-2l2 2l2 1zM-126 3224v-1h-1v1h1zM-114 3226v-1h-2l-2 -1v1h-2v1h6zM-90 3238h1v-2l-2 -2v-2l-1 -1h-2v-1h1l-1 -2l-4 -2l-3 -2v2l3 4h2l1 2v1h1l4 5zM-112 3227l1 -1h-3v1h2zM-110 3228v-1h-1v1h1zM-138 3229l-1 1l-1 2h-2l-1 3l-2 5h1l2 -3l8 -5l2 -1l1 -3l2 -2l1 -2v-1l-2 2h-2v-1h-1v2h-1l-2 2l-1 1l-1 -1v1zM-108 3229v-1h-1v1h1zM-118 3234v-1h-6v1h6zM-124 3235v-1h-2v1h2zM-102 3235v-1h-1v1h1zM-126 3236v-1h-2v1h2zM-101 3236v-1h-1v1h1zM-128 3237v-1h-1v1h1zM-100 3237v-1h-1v1h1zM-129 3238v-1h-1v1h1zM-99 3238v-1h-1v1h1zM-87 3280v-4l1 -2h-1l1 -2v-2l-3 -10l-1 -2h1l-1 -2l-1 -2h1l-1 -2l-1 -1v-2l-1 -3l-2 -2v-2l-2 -2v-2h-2v2l2 2l5 12l2 13l2 13h1zM-140 3250h1l-1 -2h1l1 -4v-2l-5 4l-5 10v4v2l2 2l1 -4l2 -2v-2l2 -2l1 -4zM-144 3291v-1l-2 -2v-3l-4 -8v-4l-2 -3v-2h-1l1 7v4l2 3v2l2 3l4 4zM-158 3278v-2l-1 -1v3h1zM-142 3293v-1l-2 -1v1v1h2zM-104 3244v-1h-1v1h1zM-103 3247v-1l-1 -1v1l1 1zM-100 3254l-1 -3l-1 -2v-1l-1 -1v1l1 4l2 2zM-76 3275v-1l-1 -8h-1l1 -2h-1v-2l-1 -2h1v-2l-2 -2l-1 -4h-1l2 22v1l2 -1l2 1zM-110 3278l3 -4l1 -2v-2l-3 -12l-1 -1l-10 1l-4 2l-2 2v1v5l1 4l5 5l10 1zM-97 3269v-1l-1 -1v1l1 1zM-134 3281v-1h-1v1h1zM-133 3284v-1h-1v1h1zM-76 3286v-2l-1 -1v3h1zM-125 3285v-1h-1v1h1zM-132 3286v-1h-1v1h1zM-124 3286v-1h-1v1h1zM-105 3286v-1h-1v1h1zM-131 3287v-1h-1v1h1zM-110 3293v-2l-3 -1h-2l-1 -1l-2 -2l-6 -1l4 4l6 2l4 1zM-101 3311l9 -2l11 -11l1 -2v-2l2 -5l1 -3h-1v2l-2 2l-9 12l-1 1l-5 3h-2l-5 1l-14 1l-1 1h1l9 3l6 -1zM-137 3291v-1h-1v1h1zM-136 3292v-1h-1v1h1zM-135 3293v-1h-1v1h1zM-123 3307v-1h-1v1h1zM-120 3308l1 -1h-1l-1 1h1z"/><path class="chunk" data-i="7" d="M438 3524v-1l-2 1h-1v-2h-1v1l-1 -1v-1h3l4 1h1l-1 1l-2 1zM416 3502l-2 -1v1l-2 -1h-2v1l-2 -1v1l-2 -1h-1l1 -1h10v2zM417 3490l-1 -1l-2 -1v2h-1v-3h4v3zM422 3491l-2 -1v-1h2v-3l3 2l-1 1h-1v1l-1 1zM412 3488l-2 -2h-3l1 -1h10v1h-6v2zM380 3480h-2l1 -2h-1h-2v-1h4l1 1l-1 2zM340 3483l-1 -1l-3 -1v-1l2 -1v1l2 -1l1 1h-1v1h2v1h-2v1zM365 3480h-1h-1l1 -2h-2v1l-1 -1v-1h5v1h-1v2z"/><path class="chunk" data-i="8" d="M342 3480l-1 -2h1h2v-2l2 1l2 -1l1 2l-1 1h-4l-2 1zM360 3473l-2 -1h-1l1 -1l2 -1v2v1zM312 3466v-1l1 -1h-1v-1h2v1v1l1 -1v-1l1 1l2 2l-2 2l-2 -1v-1h-2zM316 3467v-1h-1v1h1zM350 3463l2 -1l10 2h1l-1 2l-10 -1l-2 1l-1 -2h1v-1zM353 3464v-1h-1v1h1zM360 3465v-1h-1v1h1zM349 3464h-3l-2 -1l-2 2l-1 -1l2 -2l1 -1v1l5 1v1zM324 3463l-4 -1v-3h2v1h-1l1 1h2l1 1l-1 1zM290 3498v-1l-4 -1v-3h-2v-1h4l-1 2l1 1l1 -1v-2h4l-1 1l-1 1h1v2h-1l1 1v1h-2zM314 3461v-1h-1v1h1zM318 3461v1h-4l-2 -2h-7l1 -1l2 -1h3l6 2l1 1zM205 3454l-1 -1l-23 1v-2h3v1l2 -2l8 1v-2l2 1l8 -1l2 -1l1 1l-2 2v2zM207 3436h1v2l-4 1v-1l1 -1h1l1 -1zM174 3454h6h1l-1 1h-6v-1z"/><path class="chunk" data-i="9" d="M198 3436l1 -1h-3v1h2zM205 3437h-1l-2 1v2h-2l-3 -1l-5 -1v1l-2 -1v1l-8 1h-1l1 -1h1l3 -1l2 -2l2 1h2l2 -1v-1l-2 1h-2l-2 -1h-1l1 -1l16 -1v1l2 -2l2 2l-1 2h-1h-1v1zM198 3438v-1h-1v1h1zM202 3438v-1h-2v1h2zM194 3381h-1l-3 1l-4 -1v-1h-1v-1h1l2 1v-1l2 1v-1h2v1l2 -1h2l2 -2l1 1v2l-1 2h-1v-2h-1l-1 1l-1 -1v1zM180 3436h-1h-2h-1h-1l1 -1h2l2 -1l1 2h-1zM186 3381l-2 2h-2v1l-2 -1v1l-2 -1v1l-2 -1l-1 1h1v1l-4 -1v-3l1 1v1l1 -1v-1h4v-1h1v2h1v-2h2l2 -1l1 1l1 1zM186 3336h1v3h-3v-1l1 -1h1v-1zM186 3347l-2 -1v1h-2l-1 -1l1 -1l5 -1l5 -1v-2l5 -1l3 -1l4 -1v-3l1 1l3 4v2l-2 1l-4 1l-5 1l-2 1h-6h-3v1zM203 3341v-1h-1v1h1zM202 3343v-1v-1h-2l-1 1h1l2 1zM196 3344l1 -1h-1l-1 1h1zM189 3336h-2v-2h3v-1l2 1h1l-1 1l-3 1zM210 3331l1 1v3l-1 -1v-1l-1 1v2h-1v-1l-2 1v-2h-2v1l-2 -1v-2h-1l1 -1h2l-1 1l1 1h2v-1l2 1v-1v-1h2zM194 3338h-1v-3h4v-3l1 -2h2l-1 2l-1 4h-4l1 2h-1zM222 3327v-1h-1v1h1zM218 3328v-1h-1v1h1zM221 3328v-1h-1v1h1zM225 3328v-1h-1v1h1zM222 3329v-1h-1v1h1zM224 3329v-1h-1v1h1zM223 3330v-1h-1v1h1zM208 3330v-1h4l1 -1v-2h1v1l3 -1h2l4 -2h3l3 2v2l-3 3l-6 1l-2 1l-2 -2l-2 2l-2 -2h-2v-1h-2zM222 3331v-1h-2v1h2zM216 3323v3l-2 -2h-1v2l-4 -1v1l-1 1v-1l-2 1h-1v2h-1l-1 -1h1l-1 -2h1h2v-1h-2v-3h2v2l2 1v-1l-1 -2h1l4 1l2 -2v1h1l1 1zM212 3325v-1h-1v1h1z"/><path class="chunk" data-i="10" d="M180 3366v-1h-1v1h1zM178 3367v-1h-1v1h1zM176 3368v-1h-2v-1h2l3 -2h2l1 1l1 -1h-1v-1l2 -1h2l2 1l2 -1l-1 -2h1h1l3 -2h2v-1l-4 1l-3 -1h-1l-2 2l-2 -1v1l-1 -1v-1l3 -2l14 -2v1l2 -2l2 1l3 1l-1 2v2l-2 -1v1h-2l-14 6l1 2h-1h-1h-3l-5 2h-3zM186 3357v-1h-1v1h1zM199 3358v-1h-1v1h1zM197 3359v-1h-1v1h1zM194 3361v-1h-2l-1 1h3zM185 3364v-1h-1v1h1zM176 3359l1 -1h-3v1h2zM174 3360v-1h-2v1h2zM170 3361v-1h1l-1 -1v-1l8 -2l5 1l-1 2l-1 2h-2l-3 -1l1 2h-1h-1l-3 -1v1l-1 1v-1l-1 -1zM181 3358v-1h-1v1h1zM173 3347l2 1h2v-3h1v1h2l1 2l-1 1l-8 1l-2 2l-2 -2l6 -1v-1l-1 -1zM178 3340l1 -1h-1l-1 1h1zM169 3341v-1h-1v1h1zM171 3341v-1h-1v1h1zM172 3345v-1h1l-1 -2l-2 1v-1h-1v2h-2l-1 -1l-1 1h1v1l-4 -1h-1l1 -1h1v-1l1 -2h-1l1 -1l1 1h2v-2h1l2 1v-1v-1h2v1l2 -1l2 1h1l-1 -2h2v2l2 -2h-1l1 -1l3 1v2h-3v2h1l-1 1h-3l-3 -1l1 2h-1l1 4h-1v-1h-2zM173 3342v-1h-1v1h1zM165 3343v-1h-1v1h1zM244 3274l-10 2h-13h-4l-17 -6l-9 -3l-3 -1l-2 -2h-1l-9 -5l-1 -1v-2l5 1l3 1l8 2l35 10h8v-1l2 1v-1l15 -3h3l5 -2l5 -4l3 -2l1 -4h2h2h2l1 2l-1 6l-2 2h-2l-2 2l-9 4l-5 2l-10 2zM-268 3159v-1h-1v1h1zM-269 3160v-1h-1v1h1zM-270 3161v-1h-1v1h1zM-272 3162v-1h-1v1h1zM-273 3163v-1h-1v1h1zM-275 3165v-1h-1v1h1zM-279 3169v-1h-1v1h1zM-250 3147v-1h-2v1h2zM-252 3148v-1h-1v1h1zM-262 3155v-1h-2v1h2zM248 3312l13 -2l12 -4l10 -4l21 -12l2 -1l5 -5l6 -8l1 -2l2 -2l2 -11l1 -55l-1 -5l-2 -8l-4 -12l-2 -3l-7 -9h-2l-17 -24l-2 -3l-2 -2l-8 -6l-8 -4l-2 -1l-2 -2l-2 -1h-2l-9 -2l-7 -1v-1l-2 1v-1h-1v2l3 2l1 1h-1l-2 1l-2 -2l-2 -2h-3l-5 -2h-2l-7 3l-3 1l-2 2v1h-4v-2l1 -2h1l1 -1h-1h-2l-30 12l-6 4l-14 14v1l-3 5l-1 2l-2 2v2l-2 2l-1 2l-5 14l-4 15l-1 6v23l2 14l3 8l1 2l5 8l2 3l1 2h2l5 8h2l1 1l1 4h2l1 2v2l3 3l7 4v2l11 7l5 2l5 2l2 1l2 2l2 1l8 3l3 1l5 2l12 1l2 -1v1l2 -1h8zM179 3299v-1h-1v1h1zM79 3313v-1h-1v1h1zM136 3362v-2l2 -2v-2l2 -2l-2 -2v-2l2 -2l2 1l2 -1v-2l12 -20l3 -6h-1v1l-5 -1v-2l1 -2h2l-1 2h1v2h1v-2h3l2 -2l2 -2v-3h-2v1h1l-1 1h-1l-3 2h-2l-1 -1l1 -1l2 -1l1 -1h-3l-2 2l-2 -1h-5l-5 2h-6v1l-2 -1v1l-44 3h-1l2 2v2l3 3h2v1l12 12l18 16l4 4l6 4zM162 3311v-1h-1v1h1zM171 3314v-1h-1v1h1zM155 3319v-1h-1v1h1zM168 3320v-1h-1v1h1zM154 3346v-1h2v-1l-3 1l1 1zM156 3348v-2l-2 2h2zM141 3352v-1h-1v1h1zM146 3361v-1h-1v1h1zM144 3362v-1h-1v1h1zM158 3363v-1h-4v1h4zM147 3364v-1h-1v1h1zM151 3364v-1h-1v1h1zM158 3365v-1h-4v1h4zM145 3366v-1h-1v1h1zM152 3366v-1h-6v1h6zM166 3371v-1h-1v1h1zM102 3410l6 -6l1 -2l4 -6l1 -2h1l-1 -1l-47 -13h-4l1 2v2l5 6l13 13l6 4l14 3zM116 3404v-1h-1v1h1zM114 3407v-1h-1v1h1zM116 3408v-2h-1v1l1 1zM98 3417l1 -1l-1 -1h-2v1l2 1zM120 3426v-1l-2 -1l-3 -1v1l1 2h4zM114 3427v-1h-3v-2h-1l-1 2v1h5zM114 3425v-1h-1v1h1zM90 3426l1 -1h-1l-1 1h1zM108 3426v-1h-1v1h1zM85 3428v-1h-1v1h1zM92 3428v-1h-2l-1 1h3zM88 3429v-1h-1v1h1zM112 3430v-2h-2l2 2zM115 3429v-1h-1v1h1zM114 3430v-1h-1v1h1zM92 3431v-1h-2v1h2zM102 3433v-1l-2 -1l-1 1l1 1h2zM90 3433v-1h-1v1h1zM99 3434v-1h-1v1h1zM103 3435v-1h-1v1h1zM158 3374v-1h-1v1h1zM133 3381l8 -3v-2h-2l-2 -2h-2l-2 4l-2 2l1 1h1zM138 3382v-1h-1v1h1zM120 3388v-1h-1v1h1zM172 3399l1 -1l-1 -1h-2v1l2 1zM120 3405v-1h-1v1h1zM117 3406v-1h-1v1h1zM119 3406v-1h-1v1h1zM118 3410v-1h-1v1h1zM122 3410v-1h-2v1h2zM119 3411v-1h-1v1h1zM132 3424h1l-1 -2h-2l-2 -2v2h-1l1 1h1l3 1zM126 3422v-1h-2v1h2zM126 3425l1 -1h-1l-2 -1h-2l-2 -1h-1l1 2l6 1zM124 3427v-1h-2v1h2zM120 3428v-1h-4v1h4zM-546 3474v-1h-1v1h1zM-547 3475v-1h-1v1h1zM-552 3478v-1h-1v1h1zM-554 3479v-1h-1v1h1zM-552 3481v-1h-1v1h1zM-559 3482v-1h-1v1h1zM-569 3488v-1h-1v1h1zM-462 3452v-1h-1v1h1zM-399 3442v-1h-1v1h1zM-440 3448v-1h-1v1h1zM-447 3449v-1h-1v1h1zM-452 3450v-1h-1v1h1zM-455 3451v-1h-1v1h1zM-306 3436v-1h-1v1h1zM-300 3443l2 1v-1l1 1l1 3h2l3 3v2l3 3l2 -1v2l2 2l5 8l3 3l2 1l6 4h2l2 1l2 2l3 1h2l9 6l8 5l6 3l5 2l7 3h2l14 5l13 2l7 1v1l2 -1h2v1l2 -1l19 -2l29 -7h2l4 -1v-1l2 1l2 -2l3 -1l4 -2l5 -2l10 -5l8 -6l11 -11l2 -2l8 -10l3 -6l5 -10l9 -25l2 -5l-2 -2v1h-2l-4 -1l-1 -2v-2l1 -1l10 -1l2 -2l1 -2l3 -7l2 -10l4 -14v-5l1 -2h-1l1 -2l3 -32l-1 -2h1l-1 -2l-1 -7l-6 -34l-10 -35l-6 -11l-7 -11l-3 -5l-8 -12v-2l-4 -5l-17 -22h-2v-2l-7 -6l-2 -2l-4 -3l-10 -6l-6 -5h-2l-2 -1l-2 -2l-2 -1l-10 -4l-26 -10l-13 -4h-3l-2 -2l-2 1h-2v-1v-1l-2 1l-12 -2l-8 1v-1l-2 1h-2l-2 2l-4 1l-2 2v1l1 2h-2v-1l-1 -1v1l-4 2l-12 12l-6 1h-2l-2 -1v2h1l-1 2h-2v-2l-2 2h-1l1 1v2h-2l-4 1v1l-1 1h1l-2 3h-2v1h1l-1 1h-2v2h-2l-1 1h1v1h-2v1l-2 2h-1l-1 2l-6 8l-2 2h-1l-4 7h-2l-1 2l-12 20l-3 6l-1 3l-2 2v1l-14 28l-2 5l-11 33l-1 7l-1 5l-1 31l4 32l5 14l5 10l1 2h-1v1h2l2 8h2v3l2 2l2 2v2l3 4h-1l1 2l2 4l1 3l1 3h1l-1 2l1 1h10v3l-2 3h-2v1h1v2h-1v1h1l2 1v2h1v-1l1 1l1 1v1h-1l1 1zM-294 3449v-1h-1v1h1zM-292 3451v-1h-1v1h1zM108 3440l2 -2l-2 -1l-2 -2l-8 2l-2 1l2 2v-1l4 1v-1l2 1h4zM97 3437v-1h-1v1h1zM118 3454h2v-1l2 1h2l1 -2l-11 -11h-6v1l-2 -1v1l-14 -1l1 3v2l3 3l8 5h2h2v1l1 -1v-1h5l2 2l2 -1zM112 3455l1 -1h-3v1h2zM140 3473l1 -1l-1 -2l-6 -8l-2 -2l-4 -4l-2 -1v1h-4h-1l1 2h-2v-2h-1v2h-1l-2 -1v1l-2 -1v1h-2v1h2l1 1h-1l2 2h1l23 11zM138 3455v-1h-1v1h1zM169 3456v-1h-1v1h1zM161 3457v-1h-1v1h1zM152 3459v-1h-1v1h1zM145 3461v-1h-1v1h1zM148 3462v-1h-2v1h2zM152 3473l2 -3v-1l14 -3h6v-1h-6l-1 -1l1 -2l-8 1l-1 1h1l4 1l1 1h-9l-2 1l-2 -2v1l-2 -1v1h-2l-1 2l5 5zM170 3463l1 -1h-1l-1 1h1zM176 3464l2 -2h-6v1h2v1l2 -1v1zM147 3464v-1h-1v1h1zM149 3464v-1h-1v1h1zM151 3464v-1h-1v1h1zM154 3464l1 -1h-3v1h2zM158 3464v-1h-2v1h2zM180 3464l1 -1h-1l-1 1h1zM148 3466v-1h-1v1h1zM172 3469v-1h-1v1h1zM173 3471v-1l-1 -1v1h-4l-1 1h6zM174 3472v-1h-1v1h1zM176 3472v-1h-1v1h1zM180 3472v-1h-1v1h1zM153 3475v-1h-1v1h1zM200 3490l16 -6h2v-1l-4 1h-2v-1l-2 1v-1h-8v1l-2 -1h-2v-1l-2 1l-2 -3v-2l2 -2v-2l4 1l4 -1v-1h-20v1h1l-1 1l-8 -1l-2 1v-1h-12v1h2v1h-6v-1h2l1 -1h-7l-1 2l2 2v1l22 7l23 4zM163 3487v-1h-1v1h1zM184 3494h4v-1h-3l-19 -5l-3 -1l1 3l4 6l1 2h2l8 -2l5 -2zM-604 3509v-1h-1v1h1zM-606 3510v-1h-1v1h1zM-608 3511v-1h-1v1h1zM-604 3511v-1h-1v1h1zM-610 3512v-1h-1v1h1zM-610 3514v-1h-1v1h1zM-612 3515l1 -1h-1l-1 1h1zM-614 3516v-1h-1v1h1zM191 3461l1 -1l10 1v-1l2 1v-1h4v-1l2 1h1v3h-1l-2 1v-1l-24 3l-2 1v-1l-2 1l-2 1v-1l-4 1v1h6v1l2 -1l4 1l6 1v-1h1v2h1v-2l2 2h6v-1h-2v-1l-2 1v-1v-1h-6v-1h12v1h-2v1h1v2h1v-2h2l-1 2h1h4v-1h-2v-2h-3l1 -1h6v1h-3l1 1l2 1v-1h3h4h1l2 2l-1 4l-2 2h1h2v-2h14l8 -3l32 -12l2 -1l2 -2h2v-2l2 1v-1l5 -2l1 -1h1l-1 -1h-5l-9 3l-2 2h-2l-2 -1l2 -3h2l3 -1l8 -2l3 -1l2 -1v-4l-6 -1l-3 -3v-1l8 1v-2l-2 -2l1 -2h-2l-2 -2l2 -3h3l-1 -13l3 -21l1 -11v-1l-2 1l-4 2l-42 30l-2 1l-6 5h-2v-2h-5l-1 -2v-2l1 -3l2 -1l5 -3l2 -1l2 -2h2l2 -2h2l2 -2l5 -2l6 -4l2 -2l13 -8l2 -2h2v-2h2l6 -4l2 -1l3 -3l-1 -4l-2 -7l-2 -21l-2 -2h-2v-3h4v-11l-1 -2h1l1 -8l1 -4l2 -1h1l3 -1h1l-1 1l-1 1h1v1h-2l-2 1l-1 8h-1l1 2l1 13l22 3l12 1l3 3l2 2l-1 5l-1 3l-1 2l-2 -1l-1 1v2l-1 1h-2l-6 7v1l-2 1l-8 5l-1 1v2l-5 2v15l-2 10v5h-1l1 2h-1l-1 11l1 5h2l2 -1l3 -1v-2l2 1l4 -1h2v-2h2v1l2 -1l2 -1l2 -1l10 1l2 1v-1h4v1l2 -1v1v1v7l-1 4h-1l-4 4l2 2l1 2h-1v2h-2l-6 4h-2v2h5l53 14l106 36l38 16l23 10l4 1h2l9 3l2 2l4 1l1 1v3h-5l-2 -2l-1 -1l-5 -2h-4l-9 -4l-8 -3l-3 -1l-2 -2l-2 -1l-95 -36l-4 -1l-8 -4l-4 -1l-5 -1l-24 -8l-7 -2l-64 -16h-3l-2 1l-2 2l-5 1v2h-1v-1l-2 1l-3 1v2l-1 6l4 17l2 2v3l4 11l1 4l-1 2h-2v1l-2 -1l-12 3l-30 1v-1l-2 1v-1h-2l-2 1v-1l-4 1l-2 -1v1h-4v-2h-6l-38 -10h-5l-23 6h-1l1 2v2h2l-1 2l4 4v1h1l2 1v2l1 4l-3 2l-2 1l-6 2l-10 2l-2 2l-4 1l-2 2l-2 1l-4 1l-8 6h-2l-1 2v2h-2l-6 1v-2l-1 -3l4 -4l2 -1l20 -11h2v-2l4 -1h2l2 -1l2 -2l6 -1v-3l-2 -2v-1l-4 -5v-2l-2 1l-56 13l-36 9v-1l-2 1l-1 -1h-2l-1 -1l-4 -3v2l5 22l2 2l3 3h2l2 1v2l-2 2h-3h-3h-2l-4 -4l-7 -34h1l-1 -2v-2l-1 -2h2v-2h4l5 4v2l3 3h2l2 1v-1l9 -1l45 -10l2 -1v1l2 -1l8 -1l19 -6h5h1l-4 -4l-1 -3l-8 -11l-6 -2l-5 -2l-4 -1l-3 -1l-2 -2h-2l-2 -2h-2l-2 -2l-6 -2l-3 -1l-13 -7l-9 -6l-3 -2l-1 -2l-1 -1v-2l-1 -3l-1 -7h2l1 -1l-1 -1l-2 1l-4 -1h-2l-1 -1v-4l3 -2h1l8 -4h1l2 -1v1v1l1 -1v-2l-5 -5h-2l-2 -3l-14 -1l-2 -1v1l-48 -3v-1l-2 1v-1l-48 -2v-1l-2 1h-4v-1l-2 1v-1h-2l-2 1l-4 -1l-6 22l-8 20l-5 8l-10 12l-2 4l-9 9l-4 2l-4 3l-15 8l-12 5l-10 3l-3 1l-2 2h-4v1l-2 -1v1h-2v1l-2 -1v1l-5 1l-9 2h-4l-2 1v-1l-2 1l-16 1l-2 -1v1l-2 -1l-7 -1l-39 -9l-8 -3l-4 -3l-8 -5l-11 -6l-3 -1l-2 -2l-1 -1l-5 -2l-2 -2l-2 -1l-7 -7l-3 -4l-2 -2l-4 -2l-9 -10l-2 -2l-9 -12l-2 -1l-14 2v-1l-2 1l-2 -1v1l-2 1h-8h-2v1l-2 -1l-7 1l-3 1l-2 -1v1l-6 1l-2 -1v1l-2 -1v1h-2v1l-2 -1l-6 1v1l-2 -1v1h-2l-2 -1v1l-8 1v-1l-2 1l-6 1l-2 -1v1l-2 -1h-2l-34 7v1l-2 -1l-4 1l-14 3l-2 1v-1l-2 1l-8 2l-16 3l-2 1v-1l-2 1h-3l-18 6l-10 4l-5 2l-4 1l-2 2l-4 1l-2 2l-4 1l-2 2l-1 1l-22 12h-1l-2 2l-3 1l-4 1l-12 10l-3 2l-8 3l-2 1l-2 2l-3 1l-25 14l-6 3h-2h-1l1 -1h1v-2l3 -1l2 -2l2 1v-1v-1l2 -1l6 -2l9 -7h1v-1h2l2 -2h-2v-1h-1v-1h1h1l1 1l1 -1h1v-1h2v-1h-1l1 -1l2 -2l3 -1l6 -2l13 -10l23 -13l3 -2l12 -7l2 -1l5 -3l20 -8l13 -4l6 -2h4l4 -1v-1l2 1v-1l10 -1v-1l2 1v-1l14 -2l4 -2l17 -2l25 -6l2 -1v1h2l5 -2h5v-1l2 1v-1h2v1l2 -1l6 -1l2 1v-1h9l61 -7l2 -1l-1 -3l-3 -7l-2 -4l-4 -6v-2l-1 -2l-2 -2l-1 -2l-6 -12l-2 -5l-2 -3l-8 -41v-6l-1 -4v-21l1 -11l2 -4l14 -41l3 -8l1 -2l2 -2v-2l10 -18l4 -6l6 -9l2 -3l2 -4l6 -8l5 -8h2l4 -6l8 -8l4 -6l3 -2l4 -2l2 -2l8 -7l2 -1l4 -2l4 -2l2 -2h2l4 -4v-1l12 -9l4 -3l2 -1l5 -2l4 -1h16l11 1l21 6l23 9l19 9l11 7l3 1v2h3l2 3h2v2l6 3l10 10l3 6h2l1 4h2v2l2 2h1l5 8l10 16l4 6l6 11l1 1l2 2l1 3l4 12l2 4l1 5l13 57l-2 39l-2 21l-6 17l-2 7l-1 3h1l2 1v-1l22 1v1l2 -1l38 2v1l2 -1v1l44 2l2 1v-1l2 1h4v-1h-2v-2l-2 -1h-1v-1l-3 -3l-2 -1v-2h-2v-2h-2l-2 -2l-3 -7l-1 -3v-7v-3l2 -1l2 -1v1h2l2 2l5 1l40 10l5 2l2 1l3 -2h1l3 -3l1 -2l5 -8l1 -2l-2 -2l-4 -2l-4 -4l-3 -1v-2l-5 -3l-9 -8v-2l-5 -2l-4 -4l-1 -4l-1 -1h-2l-1 -1v-2h-2v-2h-2l-3 -5v-1l-2 -2v-3h-2v-2v-2v-2v-2v-1l2 -2h1h7v1l1 -1l5 -1v1l2 -1h1h5h2v1l2 -1h2l2 1v-1l8 1v-1l2 1l2 -1v1l22 -2l10 -2l10 -1l2 2l4 1l1 -2l1 -1l3 -5l1 -2l-2 -2l-7 -6v-2h-2l-2 -4l-19 -24l-4 -5l-1 -4l-2 -7l-3 -15v-9h-1l1 -2l-1 -2h1l-1 -2l1 -4h-1l1 -2l2 -12l2 -8l4 -12l4 -9l4 -5v-2l2 -2v-2l2 -2l4 -6l16 -13l2 -1l8 -4l13 -4l15 -4l15 -3l23 1h5l7 2l5 2l13 9l2 1l9 8l2 4l16 22h2l8 10l3 7l3 8l3 10l1 5v48h1l-1 2l-1 6v4l-2 6l-1 2l-3 4v1l-4 5l-2 2h-1v2l-5 5l-18 11h-2l-2 3l-3 1l-20 6l-32 5h-4l-13 -3h-4l-3 -2l-5 -2l-3 -2l-5 -2l-2 -1v-1h-1v1h-1v-2h-2l-4 -3h-1l-5 -3l-1 1l2 2l-1 1l-2 -1v-2l-2 2l1 2h-1l-2 2v1l-2 2v1l1 2h-1v3l-3 1l-2 2l1 1h1v1l-3 4l-2 -1v1v1l-2 4l-1 1l-2 2l1 2h-2l-1 4l-2 2v2l1 2l5 1l3 1h1l-1 2v1l-1 -1l-1 -1v-1h-2v-1h-2v3h-2l-2 2h-3l1 1h3l-1 1h-2l-2 1v-1l-3 2l-1 2v3v1h2v2h4v1l1 -1v-1h1l2 -1v1l8 1h1l-1 -1h-4v-1l10 -1v1h-4v1h4l-3 1v2l-5 -1l-1 1h3v1l-18 2l-1 1h1l2 1l6 2l3 1l8 -3l5 -1l-2 1v1h-1l1 1v1h-2l-2 1v-1v-1l-2 1l-3 2l1 1l8 7h3v2l1 2l2 -1l1 1v2l1 1l4 1l2 2l2 1l4 1l2 1l2 -1v2l2 1l1 1h2l3 1l2 3v6l-2 3h-4v1l-2 -2h-2v-2l-2 -1l-1 -1l-5 -2l-2 -1l-4 -1v-1h-2v-1h-1v1h-1v-1h-4v-1h-1v-1h-1h-1l1 -1h2v-1l-3 -2l-3 -2l-2 -1l-2 -1v-2h-4v-2l-2 -3l-2 -1h-2l-2 -1l-2 -2v1h-1v-2h-2l-3 1l-1 1l1 2l-4 1v-1h-1v2h-1h-1l1 -2h-2l-3 2v2h-1h-1l1 2v1h-2l-1 1h1v1l-2 1h-1l1 1l1 3l1 2l-2 1v-1l-4 -1l-2 3l-2 2v1l3 -1l12 -5h1l1 1h-1v3l-1 -1l-1 -1v1h-2l-3 2l-2 1h-1l-1 1h1h1l-1 1l-3 1v2h1l2 -1l2 2l1 -1h-1v-1h2l2 -1l2 2l-1 2v1h-2v-3h-1v3l-4 1h-6l-4 -4v2h-2v2h2v4h-6v2l-1 2l5 -1l2 1v1l-4 -1l1 2h-1l-4 -1v1h1v2h3l5 -2l1 1v-1l2 -1l1 -1h2l3 1v-1h-1l1 -1h2v1l2 -1h3v-2l3 1h2l-2 2v-1h-2v1l2 2l6 1h1l-1 -1h-1v-2h2l3 2h2l2 -1l5 -1l3 -1l2 -1v1h2l1 1l-1 2v1h-2l-12 1v2l-2 -1l-6 1l-2 1v-1l-2 1l-6 1l-9 4h-3l4 4v-1l1 1l1 2h2v1l2 -1l22 -1l2 1v1h-16v1l-2 -1l-6 1l8 9l2 -1h1v1h-1v2h4v1h-1l1 1h8l2 -1v1l2 -1h3l-1 1l-14 2v1h1l2 4l1 1v-1h2l6 -2h4h2l-1 -2h1h2v1l4 -3v1l3 1h2v-2l1 -1l6 1h-4v1h4v1l-25 4v2h1v-1h26v-1l2 1v-1h2l2 1l2 -1h1l-1 1l-2 1l2 2l2 -2l4 -1v1l1 -1zM196 3462v-1h-2l-1 1h3zM182 3472v-1h-1v1h1zM190 3472v-1h-2v1h2zM184 3473v-1h-1v1h1zM183 3474v-1h-1v1h1zM210 3474l1 -1h-1l-1 1h1zM204 3476v-1h-1v1h1zM210 3477v-1l-1 -1v1l1 1zM207 3477v-1h-1v1h1zM216 3478l-2 -2v2h2zM204 3478v-1h-1v1h1zM206 3478v-1h-1v1h1zM218 3478v-1h-1v1h1zM224 3478v-1h-1v1h1zM210 3480v-1h-1v1h1zM214 3480v-1h-2l-1 1h3zM220 3480v-1h-1v1h1zM223 3480v-1h-1v1h1zM226 3480v-1h-1v1h1zM228 3480v-1h-1v1h1zM210 3482v-1h-8v1h8zM222 3482v-1h-10l-1 1h11zM244 3483v-1h-2v1h2zM284 3339v-1h-1v1h1zM308 3361l8 -9l3 -4h-1h-5l-18 -5h-3v6l3 14l1 5l2 1l2 -3l8 -5zM308 3442l2 -1v-3l2 -2h2l3 -4l2 -2l-1 -1l-6 1h-5l-12 4v7l5 1h6h2zM327 3428v-1h-1v1h1zM326 3429v-1h-1v1h1zM324 3431v-1h-1v1h1zM323 3432v-1h-1v1h1zM300 3447v-1h-4v1h4zM298 3459v-1h-1v1h1zM268 3470v-1h-1v1h1zM250 3482v-1h-1v1h1zM247 3484v-1h-1v1h1zM263 3486v-1h-1v1h1zM270 3486v-1h-6v1h6zM274 3486v-1h-2v1h2zM257 3487v-1h-1v1h1zM259 3487v-1h-1v1h1zM262 3489v-1h-1v1h1zM268 3490l1 -1h-1l-1 1h1zM260 3491v-1h-2v1h2zM256 3493v-1h-1v1h1zM255 3494v-1h-1v1h1zM292 3498h8v-4l-2 -3l-4 -17l-1 -10h-1l1 -2l-1 -2l-2 2h-2l-2 2l-9 5l-3 5l-2 2h-5v-6h-3l-3 2h-3l-2 2h-2l-5 2l-3 1l-1 1l1 1h4l2 1v-1l2 1l4 1h2v3h8l2 -1v1h4v-1l2 1h4l2 2v2h-3l-4 1l-4 -1v1l-1 1h1v2h-1v-1l-4 1h-1l1 -2h-4v1h2v3h-2v-2h-1l-1 -1v1l-4 3h-2l-2 -3l2 -2h2l1 -1h-1l-6 1l-2 -1v1l-2 -1v1h-2l-2 -1v1h-4l-2 -2v-3h2v-1h-2v-1h2l1 -1h-1h-3l-5 2l-2 1l-2 2h-2v1l-2 -1v1h-2l-2 2l-3 1h-2l-3 1v1l27 6l8 1v2h1v-1h2l3 -1l7 1v1l2 -1v1h16l2 -1v1l2 -1h2l2 -1v1l2 -1h3v-2h1l2 1v-1z"/></g><g class="f live" data-r data-f="0" fill="var(--live,#000)" fill-rule="evenodd"><path class="chunk" data-i="0" d="M-204 2952l-2 2h-4l-3 -4v-1l1 -3l-2 -12l-6 -18l-2 -6l-2 -2l-2 -2l-5 -1l-8 -2h-3v-1l-2 1l-6 -1l-2 -1v1l-2 -1l-8 -1h-7l-13 -1v-1l-2 1v-1l-32 -1l-2 1v-1l-2 1v-1l-10 -1l-5 -6l-2 -2l1 -14l-1 -2l2 -2l1 -5l4 -20l2 -25h1l-1 -2h1v-2l-1 -2h1l1 -4h-1l1 -2v-1l1 -3l1 -2h-1l1 -4l2 -2l25 1l4 -1l5 -2h2l2 -2l2 1l2 1h2l4 1l66 2l2 -1v1l20 -2v-1l2 1v-1l22 1l8 1l3 4l-1 2l1 5l-1 5l-1 6l3 76l3 14l-1 2v2l-2 1l-24 -1l-2 -1v1l-2 -1l-2 1l-2 -1v1l-2 -1h-3l-7 2l-4 1l-1 2l-4 24l-1 2h1l-1 2v2h1l-1 2v4zM-207 2927v-1l4 -20h1l2 -1v1l6 -1h22v1l2 -1v1h15l-2 -38l-1 -2h1l-1 -2l-3 -30h-1l1 -2h-1l1 -2l1 -11v-8l1 -7l-5 -2l-6 -1v-1l-2 1v-1l-2 1v-1l-2 1v-1h-2v1l-2 -1l-12 2l-2 -1v1h-12v1l-2 -1h-2v1l-2 -1v1l-2 -1l-3 1h-1l-2 -1v1h-48v-1l-2 1h-2v-1l-2 1h-12l-2 -2v1l-5 1l-6 1l-17 2v2l-2 2h1l-7 52l-2 11v11l2 2l91 8l11 3l6 3l2 6l2 6l4 14l1 1zM308 2875l-4 16l-4 20l-2 5v2l-2 1h-2v-1l-2 1l-6 -1v-1l-2 1v-2l-2 1v-1h-2v-1l-2 1v-1l-14 -2l-19 -3l-4 -1l-1 2v2l-1 1l-2 2v2l-2 2l-1 2l-2 5l-2 5l-2 2l-2 1v-1h-2l-2 -2l-1 -20l-1 -4l-2 -1l-1 -1l-10 -4l-32 -10l-9 -2l-7 -3l-4 -1l-7 -5l-1 -5h-1l1 -2h-1l1 -2l-1 -2h1l1 -3l6 -18l3 -6l1 -3l2 -2l1 -2l1 -5l6 -19l2 -2v-2l2 -2v-2v-1l2 1l2 -2l2 2h1l1 4l2 2l24 6l9 2l3 1l4 -4l5 1h2l17 8l24 7l4 1l2 1v-1l2 1l16 2v1l2 -1v1h6l6 2l7 6l-1 12l-2 2l-4 17zM294 2911l2 -5l8 -31l3 -23h1l-1 -2h1v-2l-4 -4h-2l-3 -2l-7 -2l-18 -2l-28 -8l-5 -2h-1l-2 1l-2 -2l-1 -1h-2l-6 -2l-6 -1h-2l-43 -10l-1 1l-13 37l-7 19v2l1 2l4 4l2 2h4l49 16l5 2l2 1l4 3l2 2l2 8h1v-2l2 -2l1 -2l1 -4h2h10h1l2 1v-1l2 2l6 1l2 1v-1l5 1l5 1v1l2 -1v1h6l9 2l7 1z"/><path class="chunk" data-i="6" d="M-131 3183h-1l-2 -1l1 -2h-1l-1 -8l-1 -4v-1l2 1h1l-1 2l2 2l-1 2h1h1v6h-1l1 2v1zM-132 3176v-1h-1v1h1zM-186 3187l-2 -1l-2 -2l-5 -2v-2h-1v1h-2v-2h-4v-3h6l4 2l6 3l2 3v2l-2 1zM-199 3178v-1h-1v1h1zM-162 3172v-1h-1v1h1zM-158 3174l2 2l2 2v3h-4v-3l-3 -2v-2h-1l-3 -3l1 -1h-1v-1l3 1l2 2h-1l1 1v1h1l1 1v-1z"/><path class="chunk" data-i="7" d="M118 3129h-4l-2 -3v-4l-1 -2h1l1 -6l-1 -2h1l1 -4v-2h-1l1 -2l-1 -6l-1 -2h-2l-3 -2h-4l-6 -2l-26 -6l-17 -4h-3l-20 -4l-3 -1l-4 -1v-2v-17l1 -5l6 -27l1 -5v-22l-1 -8l3 -3l1 -1h2l3 1v2l4 1l54 5l2 2l2 2h4l2 -2l3 -1l7 -1l2 3v8l4 5h2l8 3l4 1l2 2h2l2 2l2 1l6 2l11 8h1l2 2l1 9h-1l-2 1l-1 6l-7 33l-2 7l-2 2h-2l-6 5l-5 5l-1 2l-12 15l-6 9l-1 2l-1 1zM155 3034l-3 -3l-1 -1l-5 -2l-11 -6l-15 -6h-2l-4 -4v-2l-2 -2v-2h-1l1 -2h-2l-2 1l-2 1l-6 6l-4 1l-2 -1v-2h-1l1 -2l2 -3l3 -4l-8 -1l-7 -1v-1l-2 1v-1h-12l-2 -1v1h-22v-1l-2 1v-1h-4l1 11h-1l1 2h-1l-1 9l-5 28l-2 12v6v5h4l3 2l29 6l12 3h2l7 3l25 6l3 1h1l2 1v2l1 3l-2 19h1l2 -2l2 -3l24 -29l4 -8l6 -32l1 -6h-1v1l-1 -1l-1 -1v-1h-1zM-168 2978v-2h-1v1l1 1zM-166 2977v-1h-1v1h1zM-169 2980v-1h-1v1h1zM-69 3006h-1v-3l-9 -5l-2 -2h-1l-2 -2l-4 -1l-9 -3l-4 -2l-45 -16l-2 1v-1v-1l-2 1h-4l-4 -4v-4l4 -4h4l4 4l3 1l62 23l4 2l10 6h1l6 6v1h2l1 3l2 2l-1 9l-1 3v2l-1 2l-2 2l-1 3l-7 21l-8 26l-2 4v2l-2 1h-1l-4 1l-3 -1v-1l-2 -2h-1l-9 -4h-2l-2 1l-12 11l-2 2l-10 7l-2 1l-2 1v1l-2 2l-2 1l-6 6h-4l-4 -3l1 -6l2 -2l1 -1l4 -7l2 -2v-2l2 -2l1 -2l6 -15v-2l-2 -1h-2l-2 -1v-1l-1 -2h-2l-4 -3l-1 -1l-7 -4l-10 -4h-2v-1l-2 1v-1h-2l-3 -1l-4 -2l-15 -6l-3 -2l1 -7l5 -14l7 -16l1 -1l2 -2v-2l2 -2v-2l3 -8l2 -4v-2l1 -2l2 -2l1 -3v3h1v-3h1l1 1h-1l-1 7l-1 8l-8 17l-4 7l-4 12l-1 3l-2 2v4l-2 2l1 1l3 1l7 2l26 8l9 4l13 8l2 1l4 3v4h1l-1 2v1l1 2l-3 5l-4 10v2h-1l1 1l4 -3l11 -10v-2l5 -5h2h6l7 1l3 2h2v1l2 -1l2 2h1l1 -4l2 -2l-1 -2h1v-2h1l-1 -2h2l-1 -2l2 -2h-1l2 -2l1 -3v-2l3 -7l5 -17l1 -5l1 -4l1 -2h-1v-5h-2l-1 -3v-1l-1 1zM-248 3096l-5 -4l-4 -8l-3 -3l-1 -3l-1 -1h-2l-2 -2v1h-5v2l-6 1l-26 8l-4 1l-30 10l-6 2h-5l-4 -1l-6 -7v-1l-2 -4l-1 -3l-2 -2v-2l-2 -2l-1 -2l-13 -36l-3 -9v-2v-4v-1l2 -2h1l8 -2l3 -2h2l2 -2h2l2 -2h1l15 -8l5 -2l15 -8l10 -6l4 -2l4 -2l2 -1l1 -1v-2l3 -2l4 -1l2 -2l2 -1l5 -4l7 -3l2 -2l3 -1l3 -2l5 -2l2 -1l3 -1h8h2l4 4l1 6l2 2l1 3l4 8l8 14l2 7l2 4l1 4l2 2l1 3l1 5l1 4l2 2v1l1 2l1 3l2 2v1l2 4l1 2v5v2l-1 1l-6 2l-4 1l-2 1l-2 2l-3 1l-4 2h-1l-3 2l-1 25l-1 5l-3 3h-2l-2 1zM-269 2974v-1h-1v1h1zM-248 3079l1 -1h-1l-1 -16l1 -2v-2l7 -4l8 -4l3 -1l2 -2l2 1l2 -3h2l1 -1l-1 -2l-2 -2v-3l-12 -30l-1 -3l-5 -6v-2l-2 1v-1l1 -2h-1l-2 -2l-1 -4l-1 -2h-2v-4h-2v-2h-1l1 -2h-2l1 -2h-1h-1l-2 -5l-7 1v1l-2 -1l-2 2l-2 1l-2 -1v2l-6 2l-14 8h-2v2h-2l-6 1l-2 2l-2 1l-10 7l-48 25l-5 3h-1l-2 1l1 10l2 2l1 3l18 42l1 1l1 2h13l12 -2l15 -6l36 -14h4l2 -2h4l9 8l2 4l3 3zM-247 3082v-1h-1v1h1z"/><path class="chunk" data-i="10" d="M247 3192h-3v-2l-2 -2l1 -8l3 -2h2l3 -1l10 2v4l-5 1v4l-2 2l-5 -1h-2v3zM203 3178h-6v-2l-1 -4l2 -3l6 -1l3 2l-1 6l-2 2h-1zM312 3123h-4l-2 -3l1 -4l3 -18l1 -6l-1 -1h-2l-2 -2h-2l-2 -2l-2 -2l-3 -1l-15 -7l-4 -2l-2 -1l-4 -2l-3 -2v-8l2 -2v-2l3 -5l10 -25l3 -7l2 -7l1 -2l2 -2l2 -4l2 -3h2h4h2v1l2 3l16 4l2 2l2 1l2 2v2l-2 -1l-7 -3l-17 -4v-1l-5 5l-1 4l-2 2v2l-9 22l-9 20l-1 2l1 2h2l2 2l3 1l12 5l3 1l2 2l1 1l9 3l2 1l4 4v2l-1 2h1l-2 12l-1 4l1 1l1 -1l1 -2l1 -4l1 -2l2 -3l15 1h4l6 3l5 2l8 3h2l1 -2l1 -2l10 -34l2 -9l2 -6l1 -3l2 -2v-2l-2 -2l-1 -1l-3 -5l-9 -9l-2 -1l-6 -5l-13 -6l-23 -9l-2 -1l-2 -2h-2l-3 -3l1 -2v-2l2 -1v1l2 -1v1l2 -1v1l4 4h1l27 12l9 4l3 2l8 6l2 1l2 3v1l5 2l1 4h2l3 6l1 7l-2 2l-1 4l-2 2l1 2h-1v2l-2 2l-1 3l-12 38l-1 8l-2 1h-2l-2 -1l-8 -3l-13 -6h-2l-2 -1v1l-2 -1l-4 1h-4l-4 8l-6 8l-1 2l-1 1zM501 2984l-2 5l-1 4l-12 33v2l-1 2l-5 4h-2l-2 -3l-17 -12h-6h-3v1l-2 -1l-3 3l-1 2l-10 16v2l-2 2v2h-2l-2 2v-1h-2l-2 -3l1 -3v-2l7 -28v-7v-2l-2 -2v-2h-2l-10 -9l-9 -5l-42 -24l-1 -1l-6 -5v-3v-7v-2l4 -7v-3l2 -2v-1l6 -9v-2l2 -2l1 -2l5 -13l2 -8l1 -8h1l2 1l-1 10l-1 5l-1 3l-1 4l-1 2l-2 2v2l-3 5l-6 10l-4 10l-1 4v2l-1 3h1l-1 2l4 3l1 1l42 24l3 1l2 2l1 1l5 2l4 4v2l6 3l2 2h2v2l3 5l1 6h1l-1 2l-2 8l-2 8l-1 2v1l1 -1v-1l9 -13l1 -2h2l7 -1l8 3l11 8l2 1l2 3l3 -2l2 -5l20 -54l8 -18l1 -3l1 -6l-5 -4l-4 -2l-2 -2l-2 -1l-102 -35l-2 -1l-3 -3v-2l3 -3h2l2 2l2 1l13 4l4 2l4 1l4 2l26 9l22 8h3l2 2l3 1l23 9l8 4l5 4l1 3v4l-2 4l-2 5l-6 13l-1 3l-2 2l-1 2l-2 5l-3 9zM198 3073h-2l-2 -1v-2l-1 -3l1 -13h1l-1 -2h1l1 -32l-2 -2h-1l-3 -1l-2 -1v1l-2 -1v1h-2v-1l-2 1l-10 1l-2 -1v1l-12 -1l-3 -3l-1 -3v-7v-2l2 -2l1 -3l7 -18l2 -11l3 -16l3 -3l16 3l13 2l5 1v-1l2 -3l3 1l7 2l2 2h3l21 8l9 4h2l2 1l2 5l1 4h-1l1 2h-1l1 2v2l-2 2l-1 4l-8 41l-1 3v2l-1 2l-3 2l-3 1h-5l-4 -1l-2 -1v1l-2 -1h-1l-5 -2h-3l-5 2l-4 1l-3 9l-5 18l-1 3l-3 3zM244 3023l4 -12l2 -17l1 -8l1 -10l-4 -4h-1l-2 -2l-5 -2l-23 -6l-3 -1v-1h-1v4l-3 3h-2l-3 -3l-1 -1v1h-1v-2l-8 -2l-13 -2h-7l-2 11l-11 36l-1 5h3h33l3 1l3 3l1 14h-1l1 2h-1v6l-1 2h2v-2l2 -3l5 -1h4h15v1l2 -1v1l2 1h2l6 -2v-2l2 -7zM208 2956v-1h-1v1h1zM207 2965v-1h-1v1h1zM203 3042v-1h-1v1h1z"/></g><g class="f live" data-f="1" fill="var(--live,#000)" fill-rule="evenodd"><path class="chunk" data-i="0" d="M-203 2952l-3 2h-3l-2 -2v-1l1 -3l-1 -12l-6 -18l-4 -7l-2 -1h-1l-2 -2l-6 -1l-8 -2l-3 -1l-1 -1l-1 1l-8 -2l-1 -1l-1 1l-1 -2l-9 -1l-7 -2l-11 -1l-1 -1l-1 1l-1 -1l-29 3l-1 1l-1 -1l-1 1l-1 -1h-9l-6 -5v-1l-2 -3v-13l-1 -1l1 -2v-6l5 -22l3 -26l1 -1l-1 -1l1 -1v-2l-1 -1l1 -1v-3l-1 -2l1 -1v-1l1 -4v-2l-1 -1l1 -3l2 -3l24 2h5l5 -1h3l2 -2l1 2l3 1l2 1l4 2l69 -3l1 -1l1 1l17 -3l1 -1v1l1 -1l20 4l8 2l4 4v2l1 4l-1 5v5l3 76l2 16v2v2l-2 1l-25 -1v-1h-2h-3v-1l-1 1l-1 -1l-3 1l-5 1l-3 1l-1 2l-6 28l-1 1l1 1l-1 1l-1 1l1 1l-1 1l-1 3zM-202 2928v-1l3 -20h1l1 -1l1 1l5 -1l20 -1v1l1 -1l1 1h14l1 -36l-1 -1l1 -1h-1l-7 -32l-1 -2l1 -1l-2 -1l2 -2l-1 -13l1 -8v-6l-5 -3l-6 -1l-1 -1l-1 1l-1 -1h-1l-1 -1l-1 1v-1h-1l-1 1l-1 -1l-11 2l-1 -2l-1 2l-9 1l-1 1l-1 -1h-2l-1 1l-1 -1l-1 2l-1 -1l-3 1l-2 1l-1 -1l-1 1l-46 3l-2 -1l-1 1h-2l-1 -2l-1 1l-15 -1l-2 -3l-1 1l-6 1h-6l-16 1v2l-2 2l1 2l-6 54l-2 12l1 12l2 1l91 4l11 5l7 4l4 5l3 6l5 14l1 1zM311 2876l-6 14l-5 18l-2 5v2l-2 1l-1 1l-1 -1l-1 1h-5h-1l-1 1v-1v-1h-1l-1 1h-1h-1l-1 -1l-1 1l-1 -1l-14 1l-18 -5l-3 -1l-1 2v2l-1 1l-1 2v2l-2 2v1l-2 6l-2 6l-1 2h-1l-1 1l-1 -1l-1 1l-3 -3l-3 -23l-3 -4l-2 -1l-2 -1l-12 -5l-33 -14l-9 -2l-5 -1l-3 -1l-4 -3l-1 -3v-1v-1v-1v-1v-1l1 -1v-2l6 -15l3 -7l1 -3l3 -2l1 -3l2 -7l4 -20l1 -1v-2l2 -1l-1 -2h1l1 1l1 -2l3 2h1l2 3l2 2l23 6l10 3h4l5 -4h4h2l11 4l24 8l6 2l1 1l2 -1l1 1l19 5l1 1l1 -1l1 1l5 1l6 2l7 4l1 11l-2 2l-5 18zM294 2909l2 -5l9 -28l5 -23l1 -1l-1 -1l1 -1v-1l-5 -3h-2l-3 -1l-7 -2l-21 -5l-30 -10l-4 -2h-1v1l-2 -2h-1h-1l-4 -1l-6 1l-2 -1l-43 -10l-1 1l-14 41l-8 14v2v1l3 2l2 1h3l49 21l6 3h3l4 3h1l2 2l4 7l2 1l-1 -2l2 -1v-2l1 -4h2l10 1h2l1 1l1 -1l2 2l6 1v1l2 -1l4 2h4l1 1l1 -1h1h6h9l5 -1z"/><path class="chunk" data-i="6" d="M-133 3180h-1l-1 -1l1 -1l-1 -1v-5v-3h1h1h1l-1 1v1l1 1l-1 1h2l-1 4l-1 1l1 1l-1 1zM-132 3175v-1h-1v1h1zM-182 3191h-4l-3 -3l-6 -2v-2h-1l-1 1l-2 -1v-2h-5v-4l7 1l6 2l7 4l4 2v2l-2 2zM-200 3181v-2h-2v2h2zM-159 3175v-1h-1v1h1zM-155 3176l1 1v1l2 1l-1 1l-2 1v-2l-3 -2l-1 -1l-2 -2l-1 -1h1h2l2 2h-1l1 1h1v1l1 -1z"/><path class="chunk" data-i="7" d="M116 3130h-3l-2 -3l-1 -6l-1 -1l1 -1l1 -8l-1 -2l1 -1v-4v-2l-1 -1l1 -2l-1 -7l-1 -1h-2l-3 -1h-3h-5l-20 -2l-22 -3l-4 -1l-22 -5l-2 -1l-3 -2l-1 -2l-1 -19l1 -6l10 -26l1 -5l1 -19l-1 -8l2 -3h1h1h3v1l3 1l51 4l2 3h1l2 3h3l2 -2l4 -1h8l3 3l1 11l5 4l2 1l8 2h4l2 1h2l2 2h3l7 3l11 6l2 1l1 1l-1 9h-1l-2 2l-2 4l-11 31l-2 10l-1 2l-2 -1l-4 5h-1l-4 3l-2 3l-14 16l-5 11v2l-1 1zM157 3035l-2 -3h-2l-6 -3l-12 -4l-14 -5h-1l-5 -4l-1 -2l-2 -2v-2l-2 -1l1 -1h-1h-1l-2 1h-3l-5 5h-4l-2 -2l-1 -1l-1 -1l1 -1l2 -3l2 -4l-8 -4l-6 -2l-1 -1l-1 1v-1l-11 -1l-1 -1l-1 1l-21 2l-1 -1l-1 1l-1 -1l-3 1l1 9l-1 1l1 1v1l-1 8l-8 28l-3 14v6v6h4l3 1l36 8l13 4h1l5 2l21 1h3l2 1l2 1v1v3l-3 22h1l2 -3l2 -3l25 -29l3 -9l11 -28l1 -4v-1l-1 1h-1v-1l-1 -1v-1h-1zM-167 2979v-1l-1 -1v1l1 1zM-165 2979l-1 -2v1l1 1zM-168 2981v-1h-1v1h1zM-72 3004h-1v-3l-9 -5l-2 -1l-2 -1l-1 -2h-3l-6 -4l-3 -1l-50 -11l-1 1v-1l-1 -1l-1 1l-4 -1l-3 -5l-1 -6l3 -4h5l4 6l3 1l61 18l3 2l11 6h2l6 5v2h1l2 4l2 2l-2 10v4l-1 3l-1 3l-1 2l-1 3l-4 21l-8 27l-2 4l-1 1l-2 2h-1h-4h-3v-1l-1 -1l-2 -1l-8 -3h-2h-2l-10 9l-4 2l-11 8l-3 2l-2 1v1l-2 2l-3 1l-6 5h-4l-4 -4v-5l1 -2v-1l5 -8v-3l1 -2l2 -3l1 -3l7 -17l1 -1l-2 -2l-2 -1l-2 -1v-1l-1 -1h-2l-2 -3h-1l-6 -2l-9 -2h-2l-1 -1l-1 1l-1 -1h-1l-3 -1l-4 -1l-14 -8l-2 -2v-6l3 -12l8 -17v-2l3 -2v-2l2 -3l1 -1l3 -8v-4l1 -2v-2l2 -2l1 -4v3v1h1l-1 -3h2v1v1v7l-1 8l-7 17l-5 8l-5 12l-1 3l-1 1v3l-1 2l1 1l2 1l6 3l28 7l8 1l10 7l2 1l3 4l1 4l1 1l-1 1l1 2v2l-2 5l-5 11v2l-1 1l7 -3l12 -9v-1l4 -5h2l6 1l7 3l3 1l1 1l1 1l1 -1l2 2l1 -1l2 -4l2 -2l-1 -1l1 -2v-1l1 -1l-1 -1l1 -1h1h1l-1 -2l2 -2l-1 -1l2 -2l1 -3l1 -3l2 -7l3 -18l1 -6v-5l1 -1l-1 -1l-1 -5h-1l-2 -3v-1h-1v1zM-245 3101l-7 -5l-6 -9l-4 -5l-2 -4l-2 -2h-1l-2 -2l-1 1h-5v2l-5 1l-24 5l-4 2l-31 12l-5 2l-3 1h-3l-4 -5v-2l-1 -4l-1 -3l-2 -2v-2l-2 -3l-1 -2l-18 -36l-3 -11l-1 -2v-5v-1l1 -2h2l6 -2l3 -1l1 -1l2 -2h2l2 -3h2l17 -7l5 -1l14 -4l12 -7l4 -3l6 -3h2l2 -2v-1l3 -3l4 -1l2 -2l2 -1l5 -2l5 -3l2 -1l3 -1l3 -1l5 -3l2 -2l3 -1h9h2l5 5l1 7l2 2l1 2l4 5l4 11l1 7l1 4l1 4l2 3v3l2 6l1 4l3 2l1 1l1 2l1 3l3 2l1 2l3 4l1 2v7v1l-2 2l-6 2l-5 2h-2l-2 2h-3l-4 1l-1 1l-2 2l3 27l-2 7l-3 3h-3l-2 1zM-269 2978v-1h-1v1h1zM-246 3080h1l-2 -2l-3 -18v-2l1 -1l6 -3l8 -3l4 -1l2 -2l1 1l3 -3h2l1 -2l-1 -1v-1l-3 -2l-1 -3l-11 -34l-1 -3l-2 -6l-1 -1l-1 1v-1l1 -1h-1h-1l-1 -1v-3l-2 -1h-1v-2l-2 -1l-2 -1l2 -1h-1h-1l-1 -1l2 -1h-1h-1l-3 -4h-7l-1 1l-1 -1l-2 2l-3 1l-1 -1h-1v1l-4 2l-12 6l-1 1l-1 2h-2l-7 1l-3 3l-2 1l-12 8l-52 22l-4 3h-1l-1 1l2 12l2 3v2l24 39v2l1 1l8 -1l10 -4l18 -5l33 -14l4 -1l2 -2h5l11 10l3 6l4 3h1zM-245 3084v-1h-1v1h1z"/><path class="chunk" data-i="10" d="M250 3194h-4v-2l-3 -2v-8l3 -2l3 -1h4l12 2v3l-4 2v3l-3 2h-6h-2v3zM202 3176l-5 -1l-1 -2l-1 -5l2 -2l6 -2l2 3l-1 7l-1 2h-1zM312 3127h-3l-3 -4v-5l4 -22l1 -6l-2 -1h-2l-2 -2h-3l-3 -2h-1l-3 -2l-3 -1l-13 -9l-3 -2h-1l-3 -3l-1 -2v-6l2 -2v-1l3 -3l14 -23l1 -8l2 -7v-3l2 -2l1 -3l3 -2l1 -1l5 1l1 1l1 1l2 2l13 3l2 2h2l2 1l-1 1h-2l-6 -1l-14 -3l-1 -1l-3 4l-1 3l-2 2v3l-9 22l-13 15v2v1h1l1 2l3 1l10 6l2 1l3 3h1l12 5l3 1l5 3v3l-1 1l1 1l-3 12l-1 6l1 1l1 -2l1 -2l2 -5l1 -3l3 -3l14 3l4 2l6 3l6 3l8 3h2l1 -1l1 -2l11 -38l1 -8l1 -5l-1 -2l2 -1v-2l-3 -2l-1 -1l-4 -6l-8 -12l-1 -2l-6 -6l-12 -6l-21 -4l-2 -1l-2 -1h-1l-3 -4l1 -1l1 -2l1 -1l1 1l2 -2v2l2 -2v1v1l2 3l2 1l24 5l8 4l2 3l6 8l2 1l2 4v2l5 3l2 4l2 1l5 6l2 7l-1 1v3l-2 2l1 1h-1l1 2l-2 2v2l-13 41l-2 6h-2h-2h-1l-8 -1l-14 -7l-3 -1l-1 -1l-1 1l-1 -2l-4 1h-4l-6 10l-6 9l-1 3l-1 1zM504 2984l-2 5l-2 3l-15 32v3l-1 2l-3 5h-2l-2 -3l-16 -12l-7 1l-2 1h-2h-1l-4 3l-1 2l-9 12v2l-2 2v3h-1l-2 2v-1h-1l-2 -2l1 -4l1 -2l5 -22v-7l-1 -2l-1 -3l-1 -2l-3 -1l-14 -12l-10 -8l-35 -21h-1l-5 -6v-2v-7l1 -2l2 -6l1 -2l1 -2l1 -1l3 -7v-1l2 -2l1 -3l6 -15l3 -10l1 -10h1l2 2l-1 12l-1 6l-2 4l-2 5l-1 3l-2 2v1l-2 5l-5 8l-3 7l-1 4v2l-1 3h1l-1 2l3 3h1l35 22l2 1l2 2l2 1l6 3l7 7v1l7 5l3 3l3 1l1 2l3 6v5l1 1l-1 1l-3 7l-3 6v2h1v-1l9 -10l2 -2l2 -1l7 -2h9l10 8l2 1l2 3l2 -3l2 -6l23 -49l6 -17l1 -3v-5l-6 -5l-5 -2l-2 -3h-3l-98 -36l-3 -1l-2 -3v-3l2 -3l1 1l2 2l3 1l13 6l5 1l4 1h4l22 6l23 10l3 1l2 2l3 1l22 10l11 5l6 5l1 3v4l-1 4l-2 4l-6 11v2l-2 2v3l-2 5l-5 8zM200 3075h-3l-2 -2l-1 -2l-1 -3l-2 -14l1 -1l-1 -2v-1l1 -33l-1 -1l-1 -1l-3 -1v-1l-1 1l-1 -1l-1 1l-1 -1l-1 2l-8 1l-1 -1l-1 1l-11 1l-3 -3l-1 -3l-1 -7v-2l2 -2v-2l5 -14l2 -12l4 -21l3 -3l18 6l14 4h5v-1l2 -2h3l6 2l1 1h3l19 3l10 5l2 1l1 1l3 6l1 4h-1l1 2h-1l1 2v1l-2 2l-1 4l-9 45v3l-1 2v1l-2 3h-3l-4 -1l-4 -2l-2 -2l-1 1l-1 -1l-1 -1l-6 -2h-4l-7 1l-4 1l-4 11l-2 22v3l-2 2zM243 3024l3 -13l2 -19l2 -8l2 -10l-4 -4l-2 -1l-2 -1l-6 -2l-20 -4h-2v-1h-1v3l-2 2h-2l-2 -1v-1h-1l-1 1v-1l-8 -1l-15 -2l-8 -1l-2 14l-10 30v5h3l28 -1l3 2l2 2l-1 12l-1 1l1 1l-1 1v6l-1 1l1 1l1 -1v-2l3 -3h6l5 -1l18 3l1 1l1 -1l1 1l1 1l2 1l5 -1v-2l1 -7zM211 2959v-1h-1v1h1zM210 2965v-1l-1 1h1zM199 3039v-1h-2l1 1h1z"/></g><g class="f live" data-f="2" fill="var(--live,#000)" fill-rule="evenodd"><path class="chunk" data-i="0" d="M-208 2948l-2 3h-3l-3 -4v-1v-3l-1 -11l-1 -15l-1 -6l-2 -1h-1l-2 -3l-5 -1l-9 -2l-3 -1l-1 -1l-1 1l-8 -1l-1 -1l-1 1l-1 -1l-8 -1l-8 -1l-13 -1l-2 -1l-1 1l-1 -1l-30 -2l-1 1l-1 -1l-1 1v-1h-7l-4 -4v-1l-1 -1l1 -12l-1 -1l2 -2v-6v-21l-1 -25l1 -1l-1 -1l1 -1v-2l-1 -2l1 -1l2 -3l-2 -1l2 -1v-2l1 -4l1 -1l-1 -1l1 -3l3 -3l25 5h5l6 -2h3l2 -2l1 1h4l2 1h4l63 -3l1 -1l1 1l16 -1l1 -1l1 1v-1l25 1l9 2l4 5l-1 3v7l-1 5l-1 7l3 68v12l-1 2v2l-2 2l-23 1l-1 1l-1 -1l-3 1h-1l-1 1l-1 -1l-3 1l-7 2l-3 1l-2 1l-8 20l-1 1l1 1l-1 1v2l1 1l-1 1v5zM-209 2925l8 -16h2l1 -1v1l5 -2l19 -4l1 1l1 -1l1 1l13 -2l3 -34l-1 -1l1 -1l-1 -1l-3 -28l-1 -1l1 -1l-1 -1l1 -1l-1 -10v-9v-8l-5 -4l-6 -1l-2 -1l-1 1l-1 -2l-1 1l-1 -1l-1 1l-1 -1h-1l-1 1l-2 -1h-12h-1h-1h-11l-1 1v-1h-2l-1 1l-1 -1l-1 1l-1 -1l-3 1h-2l-2 1l-43 4l-1 -1l-1 1h-2h-1h-1h-13l-2 -1h-1l-5 1l-6 1h-19v2l-2 2l1 1l-3 53l-1 11v10l1 1l88 10l14 3l6 4l2 6l1 5v11h1zM305 2872l-4 16l-3 20l-2 6l-1 1l-2 2l-2 -1l-1 -1l-1 1l-7 -2l-1 -1l-1 1v-1v-1v-1l-1 2l-1 -2h-1l-1 -1l-1 1l-1 -1h-10l-17 1h-4v2l-1 2l-1 1l-2 2v2l-3 1v1l-4 4l-3 4l-2 1h-1l-1 1l-1 -1h-1l-2 -1l2 -13v-3l-2 -2h-1l-12 -7l-35 -15l-8 -2l-6 -2l-4 -2l-7 -5l-1 -4l-1 -1l2 -1l-1 -1l1 -1v-1l-1 -1l1 -1l1 -2l7 -18l2 -6v-2l2 -2v-2l2 -3l8 -17l2 -2v-2l3 -3v-2v-1l1 2l2 -3l2 2h2l1 4l3 2h20l6 1h3l4 -4h4l2 1l21 12l24 10l4 1l1 1l1 -1l1 1l18 2l1 1l1 -1l2 1h7l7 2l5 6l-4 10l-2 1l-7 15zM291 2907l2 -5l9 -29l7 -20l1 -1l-1 -1l1 -1l1 -1l-4 -4h-2l-3 -2l-9 -2l-19 -2l-28 -9l-6 -3l-2 -1l-2 1l-2 -3l-2 -1l-3 -1l-7 -3h-6l-1 -1l-36 -1l-1 2l-16 29l-5 21v2v3l4 3l2 2l3 1l52 20l6 3h2l3 4h1l1 1l1 8h1v-1l3 -2v-3l2 -4l2 -1l8 -2h2l1 1l1 -1l1 1l6 -1l1 1l1 -1h4h4h1l1 -1l1 1h4l8 3l7 1z"/><path class="chunk" data-i="6" d="M-134 3182l-1 1l-1 -2l1 -1l-1 -1v-9l-1 -6l1 1h1h1l-1 2l-1 1l2 2l-1 2h2l-1 7l-1 1l1 1v1zM-134 3175v-2h-1v2h1zM-185 3185l-2 -1l-2 -1l-3 -2v-1h-1v1h-1l-1 -1l-3 -1l-1 -2h6l3 1l5 2l2 2l-1 2l-1 1zM-196 3179v-1h-1v1h1zM-161 3172v-1l-1 1h1zM-157 3173l2 2v1l2 2v2h-4v-2l-3 -3v-1h-1l-2 -3h1l-1 -1v-1l2 1l2 2h-1l1 1l1 1l1 1v-2z"/><path class="chunk" data-i="7" d="M118 3128h-4l-3 -3l-1 -6l-1 -1l1 -1l1 -5l-1 -1l1 -1v-3l1 -1l-1 -1v-1v-6l-2 -2l-1 -1l-2 -1l-3 -2l-5 -2l-28 -6h-14l-2 -1l-20 -2l-4 -1l-5 -3l-1 -2l-2 -20v-5l5 -26l2 -6l4 -24v-7l3 -2h2l2 -1l2 1v1l3 2l54 8l3 2h1l2 2h3l2 -3l3 -1l5 -1l3 3l1 9l5 5h2l8 3h3l1 2h2l2 1l2 1l4 1l8 5h1l2 1v11h-2l-1 2l-1 7v35l-2 8l-2 1l-4 1l-6 5h-2l-5 5l-2 3l-10 12l-4 8l-1 3l-2 1zM151 3030l-2 -2l-1 -1l-2 -1l-8 -3l-15 -4l-2 -1l-4 -5l-1 -2l-1 -2l-1 -2l-1 -1l1 -1v-1l-2 1l-2 1l-2 1l-7 7l-4 1l-2 -1v-1l-1 -1l1 -1l3 -4l3 -5l-9 -1h-9l-1 -1l-1 1l-2 -1l-14 -1l-1 -1l-1 1l-18 -3v-1l-1 1l-1 -1l-2 -1l-2 11l-1 1l1 1l-1 1l-2 9l-7 30l1 12l1 6l2 6l5 1l3 2l28 5l12 1h2l7 1l21 8l2 2l2 1l1 1v2l1 3l1 16v1l2 -2l1 -2l26 -29l3 -8l3 -35l1 -7l-1 1l-1 -1v-1v-1h-1zM-168 2981v-2h-1v1l1 1zM-165 2979v-1h-2l1 1h1zM-169 2983v-1h-1v1h1zM-70 3006l-1 -1l-1 -3l-8 -8l-2 -1l-1 -1l-2 -2l-3 -1l-10 -3l-4 -1l-40 -13l-1 1h-1v-1v-1l-1 1l-6 1l-5 -3l-1 -5l3 -4h6l5 4h3l59 20l3 2l8 8h2l6 8v1l2 1l2 4l3 3l1 8v2v2v3l-2 2l-1 2l-8 21l-8 24l-1 5l-1 2l-1 2h-1l-3 1l-3 -1v-1l-2 -2h-1l-11 -3h-3l-3 1l-13 11l-3 1l-8 6l-1 1l-2 1v2l-1 1l-3 1l-5 8h-5l-3 -5l1 -6l2 -3v-1l5 -8l1 -2v-1l1 -2v-2l4 -13v-1l-2 -1l-2 -1l-2 -1l-1 -2l-1 -1l-3 -1l-3 -4h-2l-7 -6l-8 -5h-1v-1l-1 1l-1 -1l-1 -1h-1l-3 -1l-15 -2l-3 -1l1 -6l4 -17l6 -17v-1l2 -2l-1 -2l3 -1v-2l3 -7l1 -4l1 -2l1 -2l2 -2l1 -4v3h1l1 -1l-1 -2h2h1l-1 1v7l-2 9l-7 16l-3 6l-3 14l-1 4l-2 2v3l-2 2l2 1h3l6 1l17 3l9 5l17 12l3 1l4 4v4l1 1l-1 1v1v3l-2 4l-4 9v2h-1l1 1l4 -2l11 -10v-1l7 -7h1l7 -1l8 2l3 1h2l1 2l1 -2l2 2h1l1 -5l2 -2l-1 -1l1 -1l-1 -1h1l-1 -1l1 -1h1l-1 -1l2 -2l-1 -1l2 -1v-2l1 -2l2 -6l6 -17l1 -6v-5l1 -1l-2 -1l-1 -5l-2 -1l-1 -3l-1 -1v1zM-247 3094l-4 -3l-3 -5l-2 -3l-2 -2l-2 -1h-1l-2 -2l-1 1l-4 -1v2l-7 1l-32 8l-4 1l-26 5h-8h-6l-4 -1l-7 -6v-2l-1 -3l-1 -2l-1 -1v-1l-1 -1v-2l-12 -33l-4 -9l-1 -3l-1 -4l1 -2l2 -2h1l10 -2l3 -1h2l1 -2h3l1 -1l2 -1l16 -6l6 -2l16 -9l8 -7l2 -2l4 -2h2l1 -2l3 -2l4 -1l3 -2l2 -1l7 -3l7 -5l3 -2l2 -2l3 -2l5 -4l2 -1l2 -1l8 -1h1l3 2v5l1 2v2l2 10l8 17l5 8l2 4l2 3l2 2l1 4l2 6l1 3l2 3l1 2l1 2v3l2 2l1 1l2 4v2l1 4v1l-2 2l-4 2l-3 2l-3 1l-1 3l-3 1l-4 2l-1 1l-3 3l-4 18l-2 4l-2 3h-2l-1 1zM-265 2974v-1h-1v1h1zM-246 3081l-1 -1v-13l1 -2v-2l8 -5l9 -5l3 -1l1 -2l1 1l2 -3h1l1 -2l-1 -1v-1l-1 -2l-1 -3l-16 -31l-2 -3l-5 -7l-1 -2l-1 1l-1 -1v-1l1 -1v-1h-1l-1 -1l-1 -7l-1 -1l-1 -1v-4h-1v-2v-1l1 -1l-1 -1v-1v-1h-1l-1 -4l-5 3v1l-1 -1l-2 2l-2 2l-1 -1l-1 1v1l-6 3l-17 8l-2 1l-1 1h-2l-6 1l-2 2l-2 1l-8 7l-47 26l-5 2h-2l-2 2l3 11l3 1v3l13 36v1l2 1l14 1h11l12 -5l40 -11h4l1 -1l6 1l10 9l2 3l2 1h1zM-246 3083v-1h-1v1h1z"/><path class="chunk" data-i="10" d="M247 3193h-2v-2l-1 -3l1 -6l2 -2h3h3l9 2v3l-5 2l-1 3l-3 2l-4 -1h-1l-1 2zM201 3178l-7 -1v-2l-1 -5l3 -2l6 -1l3 3l-1 6l-1 2h-2zM315 3124l-3 1l-3 -2v-5l1 -17l-1 -5l-1 -2h-1l-2 -3h-2l-2 -3h-1l-2 -3l-2 -1l-15 -9l-4 -1l-3 -1l-4 -2l-3 -2l1 -8l2 -1v-2l2 -6l11 -27l4 -5l4 -5l1 -2l2 -2l3 -3l2 -3l1 -1l3 -1h2v1l2 2l13 1l2 3l3 1l1 2v2l-2 -1l-6 -3l-15 -2l-5 4l-1 3l-3 2l-1 2l-11 21l-8 23l-1 2l2 2h1l2 1l3 1l12 6h3l2 3h1l8 6l3 2l4 4v4l-1 1l2 1l-1 10v4l1 1l1 -2v-1l2 -3v-2l3 -2h18h5l6 1l4 1l5 1h1l1 -2l1 -2l13 -29l3 -9l3 -6l1 -3l2 -3v-2l-2 -2l-1 -2l-4 -7l-12 -9l-3 -1l-9 -5l-13 -8l-21 -11l-3 -1l-2 -1h-1l-3 -2l1 -2v-1l1 -2l1 1l1 -1h1l1 -1h1v1l3 3h2l25 13l10 7l4 2l10 6l3 1l3 2l1 2l5 2l2 4l1 1l3 6l1 9l-2 3l-1 4l-2 3v1l-1 1v2l-2 1l-1 2l-16 33l-1 8l-2 1h-1l-2 -1l-6 -1l-11 -3h-3l-1 -1l-1 1l-1 -1l-6 1l-4 1l-5 6l-4 6l-1 2l-1 2zM496 2981l-2 6l-1 5l-9 30l-1 2v1l-6 5h-3l-3 -3l-13 -10h-5l-2 1l-1 1l-1 -1l-3 4v3l-9 15l-1 1l-2 1l-1 2h-1l-3 2l-1 -1h-1l-2 -1l1 -3l1 -1l8 -29l-1 -8l-1 -2l-1 -1l-1 -2h-2l-9 -7l-9 -6l-45 -28l-1 -1l-4 -3v-2v-6l1 -2l5 -6v-3l3 -2v-1l6 -10v-2l2 -3v-2l4 -13l1 -5v-6h2l2 1v7l-1 3v2l-2 4v2l-2 3v1l-1 6l-6 12l-5 10l-2 3l-1 2l-1 2h1l-2 1l3 3h2l42 28l3 1l2 2l2 1l4 3l4 3v1l5 3l2 1h2l1 2l3 4l1 5l1 1v2l-1 9l-3 10v2v1l1 -1v-2l7 -14l2 -3l1 -1h7l6 2l8 6l2 1l3 3l3 -3l3 -3l21 -54l11 -15l1 -3l1 -5l-2 -3l-3 -1l-2 -2h-3l-103 -38h-3l-3 -2v-2l3 -2l3 -1l2 2h3l11 2l3 1l2 1l3 2l24 10l23 7h3l3 3l4 1l28 11l6 3l3 3v2l-1 3l-1 4l-1 5l-8 13l-1 2l-2 2l-1 2l-3 4l-6 10zM200 3076h-3l-2 -1v-2l-1 -3l2 -13l1 -1l-1 -1l1 -2l-3 -35l-1 -2l-2 -1h-4l-1 -1h-1l-1 -1l-1 1h-1l-1 -1l-1 1l-11 1l-1 -1l-1 1h-10l-2 -2v-2l1 -6l1 -2l3 -2l1 -2l7 -20l2 -11v-13l3 -2l19 1l11 1l4 -1v-1l3 -3h1l6 2l1 2l3 1l20 7l8 4l3 1l1 1l3 5l1 4l-1 1l1 2l-1 1l2 1v3l-3 2v5l-1 42v3l-1 2l-1 1l-3 3l-4 1l-7 1l-6 -1h-1h-1h-1h-2l-6 -2h-4l-4 1h-3l-2 8l-4 18l-1 4l-3 3zM248 3026l1 -13l-2 -18v-8l1 -12l-4 -4h-1l-2 -1l-4 -2l-21 -7l-2 -1l-1 -1v1v4l-3 2h-3l-2 -2v-1v-1l-1 1h-1v-1l-6 -2l-12 -1h-7l-2 9l-13 38l-1 3l2 1l30 -2l4 1l2 3l3 16l-1 1l1 2h-1l1 7l-1 1l1 1h1v-3l2 -2l4 1h3l16 1l2 1l1 -1l1 1l2 1h3l7 -3l1 -2l2 -8zM209 2955v-1h-1v1h1zM207 2964v-1h-1v1h1zM204 3044v-1h-1v1h1z"/></g><g class="f jolt-f live" data-f="3" fill="var(--live,#000)" fill-rule="evenodd"><path class="chunk" data-i="0" d="M-206 2949l-2 3h-3l-3 -5l1 -1v-4l-1 -13l-5 -15l-3 -4h-1l-1 -1l-3 1l-5 1h-2l-1 -1l-1 1l-7 -1l-2 -1h-1l-1 -1l-12 -2l-11 -3l-15 -5l-2 -2v1l-2 -1l-30 -3l-1 1l-1 -1l-2 1l-1 -1l-11 1l-6 -6v-1l-1 -3l5 -16l2 -2l3 -4l9 -11v-27v-1l-1 -2l1 -1l-1 -2l-1 -2l1 -1v-3l-1 -1l1 -1v-1v-3l1 -1l-2 -1l1 -3l3 -2l30 3l3 -1l3 -3l2 -1l1 -3l1 2h2l2 1h3l60 -3l1 -1l1 2h27l1 -1l1 2l1 -2l20 5l7 1l5 3l1 2l1 4v4l1 6l-11 75l7 18l1 2v1l-1 1l-27 -9l-1 -2l-1 1l-1 -1l-3 1l-1 -2l-1 1l-1 -1h-3l-7 2l-4 2l-1 2l-4 29v1v1v1v2v1v1v3zM-209 2924v-1l4 -23h1l2 -2l1 1l6 -3l19 2l1 2v-1l1 2l13 5v-44l1 -1v-1l6 -24l-1 -1l1 -1l-1 -1l1 -1v-9l-1 -8l-2 -7l-5 -1l-5 -1l-2 -1v1l-1 -1l-1 1l-1 -1l-1 1l-1 -1h-1l-1 1l-1 -1h-16l-2 -1l-1 1l-15 -3h-1l-1 -1l-3 -1v1l-2 -1h-1l-1 -1l-3 -1h-2l-1 -1l-1 1l-40 5l-1 -1l-1 1l-2 1h-1v1l-10 3l-2 -2l-1 2l-3 2l-6 2l-18 -1v1l-3 2l2 1l-10 45l-4 8l-3 12l2 1l101 18l6 1l3 1l3 3l2 4l4 15v1zM307 2871l-2 19l-5 24l-3 5v1l-2 1l-2 -1l-1 -1l-1 1l-7 -2l-1 -1l-1 1l-1 -1l-1 -1v1l-2 -1h-1l-1 -1h-1l-2 -1l-13 -4l-15 -7h-3l-2 2l-1 2l-1 2l-3 3v3l-2 2l-1 3l-3 6l-1 6l-1 2h-1v1l-1 -1l-1 -3l-1 -22l-2 -3l-1 -1h-2h-8l-34 -9l-14 -6l-11 -4l-5 -3l-5 -5l-1 -4v-1l1 -1l-1 -1l1 -1l1 -1l-1 -1l1 -1l1 -3l13 -19l4 -4l2 -3l1 -1l1 -2l2 -5l5 -22l2 -2v-2l2 -2l1 -1h1l3 -1h1h1v2l1 1l20 8l10 6l3 1l3 -3l5 2l2 1l17 10l34 9l6 1l1 1l1 -1l1 1l10 -1l1 1v-1l3 -1l4 -1l5 3v13l-2 2v17zM291 2914l2 -5l9 -40v-20l1 -1l-1 -1l1 -1v-1l-3 -2h-1h-2l-2 1h-12l-40 -11l-5 -3l-2 -1l-1 1l-2 -2h-1l-2 -1l-5 -3l-5 -2l-2 -1l-41 -14l-1 2l-15 39l-12 17v2v3l3 4h1l3 2l5 1l54 21l6 -1h2l4 1h1l1 1l1 7l1 1l1 -2l2 -2l1 -3l3 -4h2h10h1v1l1 -1l1 2l3 3l1 1l1 -1l2 3l4 1l1 2v-1l1 1l6 2l11 3l8 2z"/><path class="chunk" data-i="6" d="M-133 3178h-2l-2 -2l1 -1l-2 -2l-2 -7l-1 -3v-1l1 1h1v1v1l2 2h-1l1 1l1 1l2 5l-1 1l1 1l1 2zM-136 3170v-1h-1v1h1zM-184 3187h-3l-2 -1l-4 -2v-1l-1 1h-1l-1 -2h-3l1 -2h5l3 1l5 2l2 1v2l-1 1zM-196 3181v-1h-1v1h1zM-164 3168l1 -1h-1l-1 1h1zM-161 3169l2 1l-1 1l1 2l-1 2l-3 1l1 -3l-2 -2v-1h-1l-1 -2l1 -1h-1v-1h2l2 2h-1v1l1 -1v1v1l1 -1z"/><path class="chunk" data-i="7" d="M121 3135h-3l-3 -2v-5l-2 -1l2 -1v-6l-1 -2l1 -1l1 -5v-2l-1 -1l1 -2l-3 -10l-2 -2l-3 -1l-5 -1l-6 -1l-8 -1l-18 -5l-14 -4l-3 -1l-20 -2h-3l-3 -1v-12l1 -6l1 -39l-1 -5l-6 -18v-10l3 -3l1 -1h2l4 1v2l5 1l59 10l3 3h1l3 2l5 1l3 -2h5h8l3 2l-2 5l3 1h1h4h2l1 1h2l1 2l3 1l5 4l13 12l1 1l2 2l2 9h-1l-1 1l1 5l-8 38l-3 7l-2 1l-3 -1l-3 5h-1l-3 5v3l-11 20l-7 7l-2 1l-1 1zM154 3032l-3 -5l-2 -1l-6 -5l-11 -6l-10 -2h-1l-3 -1v-1v-1h-1l-1 -1l1 -1h-2l-3 1l-3 1l-7 5l-4 2l-2 -2v-1l-1 -1l1 -1l2 -4l2 -3l-10 -3l-6 -2l-1 -2v1l-1 -1l-10 -2l-1 -1l-1 1l-28 1l-1 -1l-2 1l-1 -1l-5 1l3 10l-1 1l1 1l-1 1l2 8l3 35l-2 14l-1 5v3h4h3l25 2l8 3h1l4 2l31 4l5 2h2l3 2v3l2 4l-1 27l3 -2l2 -4l19 -33l4 -8l7 -36v-5l-1 -1l-1 1v-1l-1 -1l-1 -1v-1h-1zM-164 2981v-2v1v1zM-162 2980v-1h-1v1h1zM-164 2983v-1h-1v1h1zM-64 3012h-1l-1 -2l-15 -6l-3 -1l-2 -1l-4 -3l-5 -1l-10 -8l-3 -3l-36 -12l-1 1h-1l1 -1h-1h-1h-5l-2 -3l1 -4l5 -3l5 1l2 4h2l54 21l6 3l17 8h2l7 5l1 1h1l1 3l2 1l-3 8l-1 3l-2 1l-1 2l-3 2l-1 2l-10 22l-7 19l-3 2l-1 1l-2 1l-2 1h-4h-2l-1 -1h-1l-6 1l-1 1l-2 1l-8 13l-2 3l-9 7l-3 2h-2v1l-3 1h-4l-8 4l-5 1l-4 -1v-4l3 -1v-1l7 -5l2 -1v-2l3 -2l1 -3l3 -21v-2l-2 -2l-2 -1l-2 -1l-1 -2l-1 -2h-2l-3 -4l-1 -1l-7 -4l-13 -5h-2l-1 -1l-2 1l-1 -1h-2l-4 -2l-5 -1l-13 -8l-1 -2l3 -7l9 -10l11 -9l1 -1l1 -3l1 -1l1 -3v-1l2 -10l1 -5v-2l1 -2l1 -2l1 -3v2l1 1v-1v-2h2v1h-1l-1 7l-2 8l-6 17l-4 4l-8 7l-2 2l-3 2l-1 3l-3 2l1 2h2l6 3l31 11l8 4l13 11l2 1l5 5l1 3l2 2l-1 1l1 2l1 2l-1 7l-2 13v1l-1 1l1 1l5 -4l8 -14v-1l5 -6h2h6l6 1h2h2l1 -1l1 1l1 -1l2 -1l2 -2l1 -1l1 -1v-1h1v-1l1 -2v-1l1 -2l1 -3v-2l2 -9l7 -18l2 -4l1 -3l2 -1l-1 -1v-3h-2l-1 -2l-1 -1h-1v1zM-244 3095l-5 -2l-4 -6l-2 -3l-2 -3l-1 -1h-1l-2 -2l-2 1h-4l-1 2h-6l-24 6l-3 3l-42 12l-7 -1l-4 -1l-2 -1l-5 -7v-2l-1 -5l-1 -3l-2 -2v-3l-1 -2l-1 -3l-10 -29l-1 -10l-1 -2v-5v-1l2 -1h1h9l4 -1h1l3 -2h2l2 -2l1 -1l12 -11l4 -4l17 -7l14 -4l4 -2l4 -3h1l1 -2v-1l2 -4l2 -2l2 -3l1 -1l4 -5l7 -5l3 -2l3 -1l2 -1l5 -1l2 -1h2h5l1 1l4 5l2 5l2 2l1 2l5 6l9 16l4 10l2 6l2 5l2 3l2 4l3 6l2 3l2 1l1 1l1 1l1 2l3 1v1l2 3v1v4l-1 1l-1 1l-6 1l-5 2h-3l-3 2h-3l-5 2l-2 1l-2 3v29l-1 4l-2 2h-3h-1zM-272 2970v-1l-1 1h1zM-243 3081l-1 -1l-3 -18v-2v-2l7 -6l10 -3l5 -1l3 -1l1 1l4 -2h1l2 -2h-1v-1h-2l-1 -2l-16 -33l-1 -4l-5 -10l-1 -2v-1l-1 1h-1v-2l1 -1h-1h-1l-1 -2l-2 -5l-2 -1l-2 -1l-1 -2l-1 -1l-1 -1l-1 -1h1l-1 -1h-1l1 -1h-1l-1 -1l-3 -4h-6l-1 1l-1 -1l-2 2l-4 1v-2l-1 1l-1 1l-5 3l-10 12l-1 1l-1 2h-1l-3 2l-1 2l-2 1l-12 5l-49 30l-5 2h-2l-2 1l-1 9l2 1v2l14 42v2l1 2l12 2l17 -4l19 -7l39 -9l4 -1l2 -2l4 -2l8 8l2 4l3 2h1zM-243 3084v-1h-1l1 1z"/><path class="chunk" data-i="10" d="M251 3191l-2 1v-1l-2 -1v-5l2 -3l2 -1l3 -2l8 -2l-1 3l-3 3v2l-2 3l-3 1h-1l-1 2zM205 3182l-7 -3l-1 -2l-2 -5l3 -1h8l4 3l-2 7l-1 1h-2zM314 3122h-3l-1 -2l2 -4l7 -15l1 -5l-2 -1l-1 1l-3 -1h-2l-3 -1h-2l-3 -2h-4l-21 -13l-5 -2l-2 -2l-4 -5l-3 -4l1 -11l3 -2l1 -2l3 -5l10 -18l1 -7l3 -9l1 -4l2 -3l3 -5l4 -3h2h4l2 1v1l1 3l12 5l1 2l3 1l2 2v2l-3 -1l-6 -3l-14 -5v-1l-6 6l-2 5l-2 3l-1 3l-6 18l-11 20l-1 3l2 3h1l2 3l4 2l15 11l3 1l3 3h2l13 3h2l4 2v3v1l1 1l-3 11l-1 4v1l2 -2v-1l2 -5l1 -2l1 -3l7 -3h3l5 2l5 3l10 2h2l2 -2l1 -3l11 -32l2 -10l2 -5l1 -2l2 -2v-1h-2v-1l-3 -2l-8 -8l-1 -2l-8 -7l-17 -10l-23 -11l-2 -1l-1 -2l-2 -4l1 -1v-2l2 -1v2l1 -1v1l1 -1v1v1l1 4l1 1l29 13l13 7l3 3l8 8l2 1l2 3v1l5 2l1 2h2l4 1v4l-3 1l-2 3l-3 3h1l-1 1v3l-2 2l-1 3l-11 38l-3 8l-2 1l-3 1l-2 -1l-9 -1l-13 -5l-2 -1v-1l-1 2v-1l-2 1l-2 2l-4 8l-6 6l-1 2l-2 1zM499 2979l-1 4l-1 3l-13 46l-1 2v1l-4 3h-2l-3 -5l-20 -20l-5 -1h-3l-1 -1l-4 3l-1 2l-14 19l-1 2l-2 3v3h-1l-2 3l-1 -2h-1l-1 -3l1 -5l1 -2l16 -26l2 -3v-1v-1v-1l-2 -1l-13 -8l-12 -6l-49 -31l-2 -1l-4 -6v-3l1 -5l1 -2l3 -7l1 -3l1 -2l1 -2l8 -8l1 -1l2 -1l2 -2l9 -9l2 -8l1 -10h1v1l-1 12l-1 5l-2 3l-2 3l-1 1l-2 1l-1 1l-4 3l-9 8l-6 10l-1 4l-1 3v2v1v1l2 4l2 1l51 33l3 1l3 1l2 1l7 2l6 5v1l5 3l2 2h1v1l1 3l-2 3h1l-1 1l-5 4l-5 6l-1 3l-1 1l2 -1l1 -2l11 -10l1 -1h1h5l7 2l13 13l2 2l4 5l2 -2l3 -5l17 -58l12 -22l2 -3l1 -6l-4 -4l-5 -2l-2 -1l-2 -1l-106 -32h-1l-1 -2v-4l2 -3l2 -1l1 2l1 1l14 2l5 1h5l4 1l24 14l28 15l3 1l2 1h4l21 2l8 3l5 4v3v3l-2 4l-3 6l-10 15l-1 3l-2 2l-1 3l-1 4l-2 6zM202 3075h-2l-2 -1v-2l-1 -3l-1 -13l1 -1l-2 -1h2l-2 -30l-2 -2l-1 -1l-4 -1l-1 -2l-1 1l-1 -1l-2 1h-1l-1 -2l-1 2l-13 -1l-1 -2l-1 2l-12 -5l-3 -3l-2 -3v-7v-3l2 -2l1 -3l11 -15l6 -7l5 -16l2 -3h10h14h5l1 -2l4 -2h2l6 1l1 2h3l20 11l12 8l3 2l2 1l4 6l2 4l-1 1l1 1l-1 1l1 1l1 2l-1 2v5l-15 34l-2 3l-1 2l-1 1l-3 3l-2 3h-3h-2v-1l-1 1v-1h-1l-3 -1l-3 1l-5 2l-4 2l-4 9l-8 15l-1 4l-3 3zM248 3022l6 -8l4 -13v-9l-3 -14l-5 -5l-2 -1l-3 -2l-7 -4l-24 -11h-2l-1 -1v1l-2 4l-3 3h-3l-2 -2l1 -1h-1l-1 1v-1h-8l-11 1l-5 1l-2 9l-19 29v6l3 1l38 4l3 2l3 4l5 16l-1 1l1 1l-1 1l1 6l-1 1l1 1l1 -1v-2l4 -3l5 -1l5 -2l13 -3v1l1 -1v1h1h1l5 -2l1 -2l4 -6zM207 2951v-1h-1v1h1zM203 2960l1 -1l-1 1l-1 1l1 -1zM208 3046h-2h2z"/></g><path class="grain" fill="#000" fill-rule="evenodd" d="M-168 2973h-1v-1h1v1zM-166 2969v-1l1 1h-1zM-164 2967l-1 -1v-1l1 1v1zM-282 2792h-1v-1h1v1zM-62 3524h-2v-1h2v1zM-66 3524h-2v-1h3l-1 1zM-70 3524h-2v-1h3l-1 1zM-73 3524h-1v-1h1v1zM-70 3522h-1v-1h1v1zM-58 3521h-2v-1h3l-1 1zM-62 3518h-1l1 -1h1l-1 1zM-60 3517h-1v-1h1v1zM-67 3517h-1v-1h1v1zM-66 3516h-1v-1h1v1zM-71 3515h-1v-1h1v1zM-72 3513h-1v-1h1v1zM-56 3512h-2v-1h2v1zM-67 3512h-1v-1h1v1zM-74 3512h-1v-1h1v1zM-73 3511h-1v-1h1v1zM-75 3511h-1v-1h1v1zM-56 3510h-1v-1h1v1zM-44 3509h-1l1 -1h1l-1 1zM-51 3509h-1v-1h1v1zM-72 3509h-1v-1h1v1zM-46 3508h-1l1 -1h1l-1 1zM-68 3508h-1v-1h1v1zM-74 3508h-1v-1h1v1zM-48 3507h-2v-1h3l-1 1zM-52 3508h-3v-2h1v1h2v1zM-69 3507h-1v-1h1v1zM-31 3507l-1 -1v-1l1 1v1zM-50 3506h-1v-1h1v1zM-56 3508l-3 -2l1 -1h2l1 1h-1v2zM-64 3506h-1l1 -1h1l-1 1zM-34 3505h-1l1 -1h1l-1 1zM-40 3506h-5v-2h1v1h4v1zM-51 3505h-1v-1h1v1zM-30 3504h-1v-1h1v1zM-46 3504h-1l1 -1h1l-1 1zM-29 3503h-1v-1h1v1zM-39 3503h-1v-1h1v1zM-48 3503h-1l1 -1h1l-1 1zM-40 3502h-1v-1h1v1zM-34 3501h-1v-1h1v1zM-56 3501h-1v-1h1v1zM-58 3502h-2v-2l2 2zM-63 3501h-1v-1h1v1zM-26 3500h-1v-1h1v1zM-30 3500h-1v-1h1v1zM-65 3500h-1v-1h1v1zM-136 3536h-1v-1h1v1zM-129 3535l-1 -1v-1l1 1v1zM-85 3532h-1v-1h1v1zM-124 3533h-3v-1l1 -1v1h3l-1 1zM-82 3531h-1v-1h1v1zM-103 3531h-1v-1h1v1zM-105 3531h-1v-1h1v1zM-108 3531h-2v-1h2v1zM-111 3531h-1v-1h1v1zM-120 3531h-1v-1h1v1zM-136 3531h-2v-1h2v1zM-138 3532h-2v-2l2 2zM-84 3530h-1v-1h1v1zM-98 3529h-1l1 -1h1l-1 1zM-90 3528h-1v-1h1v1zM-100 3529h-2v-1v-1l2 1v1zM-103 3529h-6v-1l1 -1v1l3 -1h2v2zM-110 3528h-1v-1h1v1zM-120 3528h-2v-1h2v1zM-123 3528h-1v-1h1v1zM-125 3528h-1v-1h1v1zM-127 3528l-1 -1v-1h1v2zM-130 3527h-1v-1h1v1zM-134 3527h-1v-1h1v1zM-139 3527h-1v-1h1v1zM-92 3526h-1l1 -1h1l-1 1zM-130 3525h-1v-1h1v1zM-139 3525h-1v-1h1v1zM-77 3522h-1v-1h1v1zM-82 3518l-1 -1v-1h1v2zM-96 3516h-3l1 -1h2v1zM-100 3516h-2v-1h2v1zM-105 3516h-1v-1h1v1zM-86 3515h-1v-1h1v1zM-77 3514h-1v-1h1v1zM-101 3514h-1v-1h1v1zM-124 3513h-1v-1h1v1zM-86 3512h-1v-1h1v1zM-106 3513l-2 -1h-1l1 -1h2v1v1zM-110 3513l-1 -1v-1l1 1v1zM-97 3512l-1 -1v-1h1v2zM-109 3511h-1v-1h1v1zM-120 3511h-1l1 -1h1l-1 1zM-122 3513l-1 -1l-3 -1v-1h4v3zM-106 3510h-1v-1h1v1zM-108 3510h-1v-1h1v1zM-110 3510h-1v-1h1v1zM-112 3510h-1v-1h1v1zM-110 3506h-1v-1h1v1zM-157 3537h-1v-1h1v1zM-162 3537h-1v-1h1v1zM-138 3536h-5l1 -1h4v1zM-153 3535h-1v-1h1v1zM-146 3535h-4v-1l4 -1l1 1l-1 1zM-151 3535l-1 -1v-1l1 1v1zM-155 3535h-3v-1v-1l2 1v-1l1 1v1zM-159 3535h-1l-1 -1l1 -1l1 1v1zM-169 3534h-1v-1h1v1zM-173 3534h-1v-1h1v1zM-187 3534h-1v-1h1v1zM-162 3534h-2l2 -2h1l-1 2zM-166 3534h-2l2 -2h2l-2 2zM-168 3533h-1v-1h1v1zM-172 3533h-1v-1h1v1zM-174 3533h-1v-1h1v1zM-177 3533h-1v-1h1v1zM-180 3534h-2l2 -2h1l-1 2zM-184 3534h-2l2 -2h2l-2 2zM-186 3533h-1v-1h1v1zM-192 3534h-2h-1l1 -2h4l-2 2zM-198 3533h-1v-1h1v1zM-200 3533h-2v-1l2 -1v1v1zM-184 3531h-1l1 -1h1l-1 1zM-201 3531h-1v-1h1v1zM-153 3531h-2v-2h2v2zM-158 3531v-1l2 -1v1l-2 1zM-159 3530h-1v-1h1v1zM-162 3530h-1l1 -1h1l-1 1zM-164 3530h-1v-1h1v1zM-176 3530h-4v-1h5l-1 1zM-202 3530h-1v-1h1v1zM-160 3529h-1v-1h1v1zM-185 3530l-1 -1v-1h1v2zM-199 3531l-1 -1v-2h1v3zM-161 3528h-1v-1h1v1zM-195 3529h-2v-2h2v2zM-198 3528h-1v-1h1v1zM-168 3528l-2 -2h2v2zM-170 3528h-2l-1 -2h1l2 2zM-180 3528h-2v-2h2v2zM-183 3527h-1v-1h1v1zM-186 3527h-1l1 -1h1l-1 1zM-163 3525l-1 1v-1h1zM-179 3526h-1v-1h1v1zM-197 3526h-1v-1h1v1zM-200 3527h-2v-1v-1l2 1v1zM-142 3525h-2v-1h3l-1 1zM-158 3525h-1v-1h1v1zM-164 3525l-1 -1h1v1zM-173 3525h-1v-1h1v1zM-180 3525h-1v-1h1v1zM-144 3524h-1v-1h1v1zM-148 3524h-2v-1h2v1zM-152 3525h-2v-1l2 -1v1v1zM-160 3524h-1v-1h1v1zM-168 3524h-4v-1h5l-1 1zM-194 3524h-2v-1h2v1zM-197 3524h-1v-1h1v1zM-176 3523h-1v-1h1v1zM-179 3523h-1v-1h1v1zM-182 3523h-1l1 -1h1l-1 1zM-186 3523h-1v-1h1v1zM-151 3522h-1v-1h1v1zM-202 3521h-1v-1h1v1zM-191 3519h-1v-1h1v1zM-203 3515h-1v-1h1v1zM-248 3544h-1v-1h1v1zM-250 3545l-1 -1v-1l1 1v1zM-244 3543h-1v-1h1v1zM-257 3543h-1v-1h1v1zM-260 3543h-1v-1h1v1zM-252 3544h-3v-3l1 1v1h2v1zM-256 3542h-1v-1h1v1zM-259 3541h-1v-1h1v1zM-262 3541h-1v-1h1v1zM-265 3541h-1v-1h1v1zM-252 3540h-2v-1h3l-1 1zM-267 3540h-1v-1h1v1zM-244 3539h-1v-1h1v1zM-249 3539h-1v-1h1v1zM-260 3539h-5l1 -1h4v1zM-246 3538h-1v-1h1v1zM-250 3538h-2v-1h2v1zM-256 3540h-2v-3h5l-1 1h-2v2zM-265 3538h-1v-1h1v1zM-245 3537h-1v-1h1v1zM-252 3537h-1v-1h1v1zM-253 3536h-1v-1h1v1zM-252 3535h-1v-1h1v1zM-260 3535h-2v-1h3l-1 1zM-263 3535h-1v-1h1v1zM-215 3534h-1v-1h1v1zM-222 3534h-2v-1h3l-1 1zM-225 3534h-1v-1h1v1zM-204 3533h-1l1 -1h1l-1 1zM-206 3533h-5l1 -1h4v1zM-214 3533h-1v-1h1v1zM-233 3533h-1v-1h1v1zM-236 3533h-1v-1h1v1zM-252 3533h-1v-1h1v1zM-221 3532h-1v-1h1v1zM-228 3532h-1v-1h1v1zM-231 3532h-1v-1h1v1zM-234 3532h-1v-1h1v1zM-237 3532h-1v-1h1v1zM-257 3532h-1v-1h1v1zM-264 3532h-2v-1h3l-1 1zM-206 3531h-1v-1h1v1zM-212 3532v-1l4 -1v1h-2l-2 1zM-213 3531h-1v-1h1v1zM-235 3531h-1v-1h1v1zM-232 3530h-1l1 -1h1l-1 1zM-236 3530h-2v-1h2v1zM-204 3529h-3l1 -1h3l-1 1zM-210 3529h-2v-1h2v1zM-214 3529h-1l1 -1h1l-1 1zM-216 3529h-1v-1h1v1zM-220 3529h-1l1 -1h1l-1 1zM-222 3529h-1v-1h1v1zM-227 3529h-1v-1h1v1zM-224 3527h-2v-1h3l-1 1zM-227 3527h-1v-1h1v1zM-234 3529l-1 -1v-2h1l1 2l-1 1zM-208 3526h-4v-1h4v1zM-232 3526h-1v-1h1v1zM-236 3526h-1l1 -1h1l-1 1zM-261 3527l-1 -1v-1l1 1v1zM-263 3526h-1v-1h1v1zM-230 3525h-1v-1h1v1zM-212 3524h-4v-1h4v1zM-217 3525l-1 -1v-1l1 1v1zM-237 3524h-1v-1h1v1zM-239 3524h-1v-1h1v1zM-242 3524h-1l1 -1h1l-1 1zM-244 3524h-2v-1h2v1zM-248 3524h-1l1 -1h1l-1 1zM-262 3524h-1v-1h1v1zM-224 3522h-1v-1h1v1zM-231 3522h-1v-1h1v1zM-235 3522h-1v-1h1v1zM-238 3522h-5l1 -1h4v1zM-208 3521h-1v-1h1v1zM-254 3521h-1v-1h1v1zM-256 3520v1l-1 -1h1zM-219 3520h-1v-1h1v1zM-222 3520h-1v-1h1v1zM-236 3520h-1v-1h1v1zM-238 3520h-1v-1h1v1zM-256 3519l1 1h-1v-1zM-257 3520h-1l1 -1v1zM-250 3519h-1v-1h1v1zM-252 3519h-3l1 -1h2v1zM-257 3519v-1h1v1h-1zM-204 3518h-1v-1h1v1zM-206 3518h-1v-1h1v1zM-205 3517h-1v-1h1v1zM-218 3517h-2v-1h2v1zM-221 3517h-1v-1h1v1zM-226 3517h-1v-1h1v1zM-228 3517h-3l1 -1h2v1zM-232 3517h-3l1 -1h2v1zM-236 3517h-1v-1h1v1zM-252 3517h-1v-1h1v1zM-255 3517h-1v-1h1v1zM-259 3517h-1v-1h1v1zM-264 3517h-3l1 -1h2v1zM-242 3516h-1v-1h1v1zM-232 3515h-5l1 -1h4v1zM-252 3514h-2v-1h2v1zM-224 3513h-1l1 -1h1l-1 1zM-240 3513h-1l1 -1h1l-1 1zM-242 3513h-4v-1h4v1zM-262 3513h-1v-1h1v1zM-264 3514l-1 -1v-1h1v2zM-252 3512h-2l2 -2h1l-1 2zM-267 3509h-1v-1h1v1zM-268 3542h-1v-1h1v1zM-270 3542h-1v-1h1v1zM-269 3541h-1v-1h1v1zM-274 3541h-1v-1h1v1zM-276 3541h-2v-1h2v1zM-279 3541h-1v-1h1v1zM-282 3541h-4v-1h5l-1 1zM-300 3541h-1v-1h1v1zM-302 3541h-6v-1h6v1zM-309 3541h-1v-1h1v1zM-312 3541h-1l1 -1h1l-1 1zM-318 3541h-1v-1h1v1zM-320 3541h-1v-1h1v1zM-323 3541h-1v-1h1v1zM-324 3540h-1v-1h1v1zM-329 3540h-1v-1h1v1zM-275 3539h-1v-1h1v1zM-281 3539h-1v-1h1v1zM-284 3539h-1v-1h1v1zM-297 3540l-1 1h-1l-1 -3h2l1 2zM-301 3540l-1 -1v-1h1v2zM-268 3538h-2v-1h2v1zM-278 3539h-2v-1l4 -1v1l-2 1zM-273 3537h-1v-1h1v1zM-278 3537h-1v-1h1v1zM-283 3538l-1 -1v-1h1v2zM-295 3536h1v1l-1 -1zM-305 3537h-1v-1h1v1zM-308 3539l-2 -1v1l-2 -1l2 -2h3v2l-1 1zM-320 3536h-1l1 -1h1l-1 1zM-266 3536h-4v-2h2l2 1v1zM-294 3536v-2l2 2h-2zM-312 3535h-2v-1h2v1zM-316 3535h-1l1 -1h1l-1 1zM-318 3535h-1v-1h1v1zM-321 3535h-1v-1h1v1zM-322 3536h-2v-2l2 2zM-276 3534h-2v-1h2v1zM-279 3534h-1v-1h1v1zM-282 3534h-5l1 -1h5l-1 1zM-288 3534h-4v-1h4v1zM-294 3534h-4v-1h4v1zM-317 3534h-1v-1h1v1zM-330 3534h-2v-1h2v1zM-270 3534h-2l2 -2h1l-1 2zM-324 3533h-1v-1h1v1zM-268 3532h-1v-1h1v1zM-271 3532h-1v-1h1v1zM-318 3532h-1l1 -1h1l-1 1zM-272 3531h-1v-1h1v1zM-303 3531h-1v-1h1v1zM-306 3531h-1v-1h1v1zM-330 3531h-1l1 -1h1l-1 1zM-277 3530h-1v-1h1v1zM-279 3530h-1v-1h1v1zM-283 3530h-1v-1h1v1zM-285 3530h-1v-1h1v1zM-288 3530h-1v-1h1v1zM-290 3530h-6v-1h6v1zM-297 3530h-1v-1h1v1zM-302 3530h-1l1 -1h1l-1 1zM-304 3530h-1v-1h1v1zM-327 3530h-1v-1h1v1zM-326 3529h-1v-1h1v1zM-329 3529h-1v-1h1v1zM-302 3528h-1v-1h1v1zM-322 3527h-1v-1h1v1zM-320 3526h-1v-1h1v1zM-331 3526h-1v-1h1v1zM-298 3525h-1l1 -1h1l-1 1zM-296 3524h-1l1 -1h1l-1 1zM-268 3523h-2v-1h2v1zM-271 3523h-1v-1h1v1zM-294 3523h-1v-1h1v1zM-274 3522h-1l1 -1h1l-1 1zM-276 3522h-1v-1h1v1zM-292 3522h-1v-1h1v1zM-272 3521h-1v-1h1v1zM-291 3521h-1v-1h1v1zM-268 3521l-2 -1v-1h2v1v1zM-275 3520h-1v-1h1v1zM-272 3519h-1v-1h1v1zM-277 3520h-3h-1l1 -2l2 1v-1h1v2zM-283 3519h-1v-1h1v1zM-293 3519h-1v-1h1v1zM-317 3520l-1 -1v-1h1v2zM-274 3519l-1 -1v-1l1 1v1zM-284 3518h-2v-1h2v1zM-292 3518h-1v-1h1v1zM-290 3518l-1 -1v-1h1v2zM-288 3517l-1 -1v-1l1 1v1zM-298 3516h-1v-1h1v1zM-300 3516h-1v-1h1v1zM-306 3516h-1v-1h1v1zM-278 3517h-6v-1h4v-2l2 2v1zM-286 3515h-1v-1h1v1zM-304 3516l-1 -1v-1h1v2zM-314 3516l-1 -1l3 -1v1h-2v1zM-268 3514h-1v-1h1v1zM-270 3514h-3l1 -1h2v1zM-275 3514h-1v-1h1v1zM-278 3514h-1v-1h1v1zM-272 3512h-1v-1h1v1zM-274 3512h-1v-1h1v1zM-283 3512h-1v-1h1v1zM-312 3512h-1v-1h1v1zM-316 3515l-2 -1v-3l1 1l1 2v1zM-289 3511h-1v-1h1v1zM-297 3511h-1v-1h1v1zM-319 3511h-1v-1h1v1zM-323 3511h-1v-1h1v1zM-329 3511h-1v-1h1v1zM-290 3510h-3l1 -1h2v1zM-295 3511l-1 -1v-1l1 1v1zM-298 3510h-1v-1h1v1zM-312 3510h-1v-1h1v1zM-314 3510h-2v-1h2v1zM-318 3510h-1v-1h1v1zM-272 3510h-2v-2h2l1 2h-1zM-275 3510h-2v-2h2v2zM-322 3511l-1 -2l1 -1l1 2l-1 1zM-317 3508h-1v-1h1v1zM-321 3508h-1v-1h1v1zM-324 3508h-1v-1h1v1zM-330 3508h-1v-1h1v1zM-300 3506h-1l1 -1h1l-1 1zM-306 3506h-1v-1h1v1zM-308 3506h-1v-1h1v1zM-312 3506h-1l1 -1h1l-1 1zM-314 3506h-1v-1h1v1zM-320 3506h-1l1 -1h1l-1 1zM-326 3506h-1v-1h1v1zM-323 3505h-1v-1h1v1zM-328 3506l-1 -1v-1h1v2zM-332 3506v-1l2 -1l-2 2zM-316 3504h-1l1 -1h1l-1 1zM-318 3504h-1v-1h1v1zM-303 3503h-1v-1h1v1zM-321 3502h-1v-1h1v1zM-328 3503h-2v-1v-1l2 1v1zM-281 3501h-1v-1h1v1zM-312 3501h-1v-1h1v1zM-315 3501h-1v-1h1v1zM-318 3501h-3l1 -1h3l-1 1zM-324 3502l-1 -1v-1h1v2zM-282 3500h-1v-1h1v1zM-302 3500h-1l1 -1h1l-1 1zM-308 3501h-2v-2h6v1l-4 1zM-358 3543h-1v-1h1v1zM-364 3543v-1l1 1h-1zM-356 3542h-1v-1h1v1zM-362 3542h-1v-1h1v1zM-335 3541h-1v-1h1v1zM-338 3541h-1v-1h1v1zM-342 3541h-1v-1h1v1zM-344 3541h-1v-1h1v1zM-346 3541h-1v-1h1v1zM-360 3541h-1v-1h1v1zM-368 3543l-2 -3h2l1 2l-1 1zM-333 3540h-1v-1h1v1zM-336 3540h-2v-1h2v1zM-340 3540h-1v-1h1v1zM-350 3540h-1v-1h1v1zM-352 3540h-1v-1h1v1zM-358 3540h-1v-1h1v1zM-367 3540h-1v-1h1v1zM-351 3539h-1v-1h1v1zM-367 3538h-1v-1h1v1zM-354 3538l-1 -2h1h2l-2 2zM-357 3537h-1v-1h1v1zM-336 3537l-1 -1l1 -1h1v1l-1 1zM-348 3536v-1l1 1h-1zM-345 3535h-1v-1h1v1zM-351 3535h-1v-1h1v1zM-369 3538h-1v-4h1v4zM-333 3534h-1v-1h1v1zM-344 3534h-1v-1h1v1zM-348 3534h-1l1 -1h1l-1 1zM-362 3534h-1v-1h1v1zM-336 3534h-4v-1h2l2 -1l1 2h-1zM-332 3532h-1v-1h1v1zM-337 3532h-1v-1h1v1zM-341 3532h-1v-1h1v1zM-344 3532h-1v-1h1v1zM-354 3532h-1v-1h1v1zM-366 3533l-2 1h-1l3 -3h2v1l-2 1zM-345 3531h-1v-1h1v1zM-348 3532h-4l-2 -2h2l4 1v1zM-357 3532h-1h-1l1 -2h1v2zM-359 3531h-1v-1h1v1zM-362 3531h-1l1 -1h1l-1 1zM-332 3530h-1v-1h1v1zM-337 3528h-1v-1h1v1zM-335 3511h-1v-1h1v1zM-337 3511h-1v-1h1v1zM-342 3511h-1v-1h1v1zM-348 3510h-2v-1h2v1zM-351 3510h-1v-1h1v1zM-333 3509h-1v-1h1v1zM-336 3509h-1v-1h1v1zM-346 3511l-1 -1h1v-2l2 2l-2 1zM-347 3509h-1v-1h1v1zM-352 3509h-2v-1h2v1zM-338 3509l-1 -1v-1l1 1v1zM-340 3509l-1 -1v-1l1 1v1zM-344 3508h-1v-1h1v1zM-346 3508h-1v-1h1v1zM-364 3507h-3l1 -1h2v1zM-334 3506h-1v-1h1v1zM-339 3507l-1 -1v-1l1 1v1zM-342 3506h-2v-1h3l-1 1zM-347 3507h-1l-1 -1l1 -1l1 1v1zM-350 3507l-1 -1v-1l1 1v1zM-373 3506h-1v-1h1v1zM-340 3505h-1v-1h1v1zM-354 3507v-1l2 -2v2l-2 1zM-370 3505h-1v-1h1v1zM-374 3505h-1v-1h1v1zM-345 3504h-1v-1h1v1zM-348 3505h-2l-1 -1l1 -1l2 1v1zM-360 3504h-2v-1h2v1zM-364 3504h-3l1 -1h2v1zM-342 3504v-1l2 -1h1l-1 1l-2 1zM-343 3503h-1v-1h1v1zM-358 3504h-1v-2h1l1 2h-1zM-368 3504l-1 -1v-1h1v2zM-332 3503l-2 -1h-1l1 -1h3v1l-1 1zM-336 3503h-2v-1l2 -1v1v1zM-369 3501l-1 1v-1h1zM-354 3501h-1v-1h1v1zM-366 3501h-1v-1h1v1zM-370 3501h-2v-1h2v1zM-373 3501h-1v-1h1v1zM-376 3502l-1 -1v-1h1v2zM-370 3500v-1h2l-1 2v-1h-1zM-647 3538h-1v-1h1v1zM-649 3538h-1v-1h1v1zM-651 3537h-1v-1h1v1zM-651 3535h-1v-1h1v1zM-649 3534h-1v-1h1v1zM-647 3533h-1v-1h1v1zM-645 3532h-1v-1h1v1zM-643 3531h-1v-1h1v1zM-639 3528h-1v-1h1v1zM-634 3527h-2v-1h2v1zM-633 3526h-1v-1h1v1zM-630 3524h-1l1 -1h1l-1 1zM-628 3523h-1v-1h1v1zM-629 3522h-1v-1h1v1zM-625 3521h-1v-1h1v1zM-628 3521h-1l1 -1h1l-1 1zM-626 3520h-1v-1h1v1zM-621 3519h-1l-1 -1h1h1v1zM-624 3519h-2v-1h2v1zM-621 3518v-1h1v1h-1zM-623 3518h-1v-1h1v1zM-619 3516h1v1l-1 -1zM-621 3517h-1v-1h1v1zM-621 3516l1 -1h1v1h-2zM-617 3514l1 -2l2 1l-1 1h-2zM-672 3556h-1v-1h1v1zM-671 3554l-1 1v-1h1zM-672 3554h-2v-1h2v1zM-668 3552h-1v-1h1v1zM-672 3553v-1l2 -1v1l-1 2l-1 -1zM-665 3548h-1v-1h1v1zM-659 3547h-1v-1h1v1zM-664 3545h-1v-1h1v1zM-653 3542h-1v-1h1v1zM-658 3542h-1v-1h1v1zM-660 3542h-2l2 -2h1l-1 2zM-652 3540h-1v-1h1v1zM-655 3540h-1v-1h1v1zM-658 3540h-1v-1h1v1zM-654 3538v1l-1 -1h1zM-654 3537h2v1h-2v-1zM-655 3538h-1l1 -1v1zM-655 3537v-1h1v1h-1zM-653 3536h-1v-1h1v1zM168 3476h-3l1 -1h2v1zM153 3471h-1v-1h1v1zM167 3465h-1v-1h1v1zM168 3459h-2v-1h3l-1 1zM165 3459h-1v-1h1v1zM170 3459v-1l4 -1h1l-1 1h-2l-2 1zM125 3458h-1v-1h1v1zM153 3456h-1v-1h1v1zM160 3455h-6v-1h6v1zM167 3454h-1v-1h1v1zM165 3454h-1v-1h1v1zM160 3453h-1v-1h1v1zM158 3453h-2v-1h2v1zM155 3453h-1v-1h1v1zM118 3453h-2v-1h2v1zM170 3452h-1l1 -1h1l-1 1zM166 3452h-2v-1h3l-1 1zM163 3452h-1v-1h1v1zM161 3452h-1v-1h1v1zM122 3452h-2v-1h3l-1 1zM178 3451h-1v-1h1v1zM176 3451h-5l1 -1h4v1zM146 3451h-2v-1h2v1zM141 3452h-1h-1l1 -2h1v2zM139 3451h-1v-1h1v1zM148 3450h-2v-1h3l-1 1zM152 3449h-1v-1h1v1zM136 3448h1v2l-2 -1h1v-1zM158 3448h-1l1 -1h1l-1 1zM153 3448h-1v-1h1v1zM140 3449h-2v-2h2v2zM135 3448l1 -1v1h-1zM162 3447h-1l1 -1h1l-1 1zM144 3447h-1v-1h1v1zM142 3449l-1 -2l1 -1l1 2l-1 1zM167 3446h-1v-1h1v1zM161 3446h-1v-1h1v1zM146 3448h-2l1 -2v-1h1l2 1l-2 2zM175 3444h-1v-1h1v1zM168 3443h-1v-1h1v1zM176 3440h-1v-1h1v1zM178 3441h-2v-1h1v-2h2v2l-1 1zM170 3438h-2v-1h2v1zM173 3437h-1v-1h1v1zM171 3437h-1v-1h1v1zM174 3436h-1v-1h1v1zM172 3436h-1v-1h1v1zM169 3436h-1v-1h1v1zM106 3437h-1v-1h1v1zM-7 3488h-1v-1h1v1zM-10 3488l-1 -1l1 -1h1l-1 2zM-4 3486h-1v-1h1v1zM-11 3486h-1v-1h1v1zM-4 3483h-1v-1h1v1zM-7 3483h-1v-1h1v1zM-2 3482h-1v-1h1v1zM-3 3480h-1v-1h1v1zM-5 3480h-1v-1h1v1zM-3 3478l-1 -1v-1h1v2zM-7 3477h-1v-1h1v1zM-11 3476h-1v-1h1v1zM-2 3475h-1v-1h1v1zM-6 3476l-1 -1v-1h1v2zM-4 3474h-1v-1h1v1zM-7 3474h-1v-1h1v1zM-3 3473h-1v-1h1v1zM-8 3473h-1v-1h1v1zM-11 3473h-1v-1h1v1zM-9 3472h-1v-1h1v1zM-10 3471h-1v-1h1v1zM-8 3470h-1v-1h1v1zM-7 3469h-1v-1h1v1zM-10 3469h-1v-1h1v1zM-11 3467h-1v-1h1v1zM-11 3456h-1v-1h1v1zM-10 3455h-1v-1h1v1zM-9 3453h-1l-1 -1l1 -1l1 1v1zM-11 3445h-1v-1h1v1zM-29 3499h-1v-1h1v1zM-32 3499h-1v-1h1v1zM-52 3498h-1l1 -1h1l-1 1zM-54 3498h-1v-1h1v1zM-66 3499l-1 -1v-1l1 1v1zM-32 3497l-2 -1v-1h2v1v1zM-38 3496h-1v-1h1v1zM-45 3496h-1v-1h1v1zM-48 3496h-1v-1h1v1zM-50 3497l-1 -1v-1l1 1v1zM-60 3497l-2 -1v-1h2v1v1zM-34 3495h-2v-1h2v1zM-65 3495h-1v-1h1v1zM-15 3494h-1v-1h1v1zM-18 3494h-1l1 -1h1l-1 1zM-43 3494h-1v-1h1v1zM-24 3493h-2v-1h2v1zM-38 3494h-1v-2h1l1 2h-1zM-40 3493h-1v-1h1v1zM-46 3493h-1v-1h1v1zM-54 3494h-2v-1l4 -1l-2 2zM-65 3493h-1v-1h1v1zM-13 3492h-1v-1h1v1zM-23 3492h-1v-1h1v1zM-36 3493l-1 -1l1 -1h1v1l-1 1zM-63 3492h-1v-1h1v1zM-29 3491h-1v-1h1v1zM-42 3492l-4 -1h-2v-1l6 1v1zM-52 3491h-1v-1h1v1zM-14 3490h-1v-1h1v1zM-44 3490h-1v-1h1v1zM-58 3490h-1v-1h1v1zM-61 3490h-1v-1h1v1zM-40 3489h-2v-1h2v1zM-48 3490h-4v-2l2 1h2v1zM-53 3489h-1v-1h1v1zM-56 3489h-2v-1h2v1zM-14 3488h-1v-1h1v1zM-23 3488h-1v-1h1v1zM-37 3488h-1v-1h1v1zM-44 3488h-1v-1h1v1zM-12 3487h-1v-1h1v1zM-30 3487h-1v-1h1v1zM-39 3487h-1v-1h1v1zM-30 3472h-1v-1h1v1zM-27 3471h-1v-1h1v1zM-14 3470h-1v-1h1v1zM-25 3470h-1v-1h1v1zM-18 3469h-1l1 -1h1l-1 1zM-20 3469h-3l1 -1h2v1zM-36 3469h-1v-1h1v1zM-12 3468h-1v-1h1v1zM-19 3467h-1v-1h1v1zM-28 3467h-1v-1h1v1zM-33 3467h-1v-1h1v1zM-36 3467h-1v-1h1v1zM-15 3466h-1v-1h1v1zM-23 3466h-1v-1h1v1zM-29 3466h-1v-1h1v1zM-32 3466h-1v-1h1v1zM-34 3466h-1v-1h1v1zM-37 3466h-1v-1h1v1zM-28 3465h-1v-1h1v1zM-38 3465h-1v-1h1v1zM-20 3464h-1v-1h1v1zM-25 3464h-1v-1h1v1zM-27 3464h-1v-1h1v1zM-36 3464h-1v-1h1v1zM-34 3463h-1v-1h1v1zM-22 3463h-2v-1l2 -1v1v1zM-13 3460h-1v-1h1v1zM-18 3460l-2 1l-1 -1l1 -1l4 -1h1l-1 2h-2zM-14 3457h-1v-1h1v1zM-13 3456h-1v-1h1v1zM-14 3444h-4v-1h4v1zM-19 3444h-1v-1h1v1zM-23 3443h-1v-1h1v1zM-26 3442h-1v-1h1v1zM-34 3440h-1v-1h1v1zM-292 3499h-3l1 -1h2v1zM-298 3500l-1 -1l3 -1v1h-2v1zM-280 3499l-1 -1v-1l1 1v1zM-282 3498h-2v-1h2v1zM-289 3499l-1 -1v-1l1 1v1zM-308 3498h-1v-1h1v1zM-310 3498h-1v-1h1v1zM-281 3497h-1v-1h1v1zM-295 3497h-1v-1h1v1zM-297 3497h-1v-1h1v1zM-313 3497h-1v-1h1v1zM-315 3497h-1v-1h1v1zM-304 3496h-1l1 -1h1l-1 1zM-323 3496h-1v-1h1v1zM-300 3495h-1v-1h1v1zM-310 3495h-1v-1h1v1zM-322 3493h-1v-1h1v1zM-328 3492h-1v-1h1v1zM-308 3491h-1v-1h1v1zM-305 3490h-1v-1h1v1zM-320 3490h-2v-1h2v1zM-323 3490h-1v-1h1v1zM-307 3489h-1v-1h1v1zM-317 3489h-1v-1h1v1zM-304 3489l-1 -1v-1l1 1v1zM-306 3488h-1v-1h1v1zM-307 3487h-1v-1h1v1zM-310 3487h-1v-1h1v1zM-308 3486h-1v-1h1v1zM-311 3486h-1v-1h1v1zM-329 3488l-1 -1l-1 -1l1 -1h1v3zM-310 3485h-1v-1h1v1zM-312 3484h-1v-1h1v1zM-329 3484h-1v-1h1v1zM-315 3483h-1v-1h1v1zM-324 3483h-1v-1h1v1zM-320 3481v1l-1 -1h1zM-308 3481h-1v-1h1v1zM-312 3481h-1l1 -1h1l-1 1zM-296 3480h-1v-1h1v1zM-301 3480h-1v-1h1v1zM-316 3481h-2v-1l2 -1l1 1l-1 1zM-321 3480v-1h3v1l-2 1v-1h-1zM-294 3479h-1v-1h1v1zM-304 3480h-2l-1 -2h1l2 1h1l-1 1zM-308 3479h-1v-1h1v1zM-312 3479h-4v-1h4v1zM-325 3479h-1v-1h1v1zM-293 3478h-1v-1h1v1zM-298 3478h-1v-1h1v1zM-300 3478h-1v-1h1v1zM-294 3477h-1v-1h1v1zM-292 3476h-1v-1h1v1zM-297 3476h-1v-1h1v1zM-300 3476h-2v-1h2v1zM-296 3474h-1v-1h1v1zM-325 3474h-1v-1h1v1zM-302 3472h-1v-1h1v1zM-304 3472h-1v-1h1v1zM-301 3471h-1v-1h1v1zM-324 3471h-2v-1h2v1zM-328 3471h-1v-1h1v1zM-326 3470h-2v-1h2v1zM-329 3470h-1v-1h1v1zM-304 3470l-1 -2h1h4v1h-2l-2 1zM-316 3469h-4v-1h5l-1 1zM-295 3468h-1v-1h1v1zM-326 3468h-1v-1h1v1zM-318 3467h-4v-1h5l-1 1zM-296 3466h-1v-1h1v1zM-300 3466h-1v-1h1v1zM-302 3466h-2v-1h2v1zM-305 3465l-1 1v-1h1zM-311 3466h-1v-1h1v1zM-305 3465v-1h1v1h-1zM-295 3465l-1 -1v-1l1 1v1zM-298 3466l-3 -2l1 -1h2l1 1h-1v2zM-316 3464h-1v-1h1v1zM-318 3465h-2v-1l2 -1l1 1l-1 1zM-322 3464h-4v-1h5l-1 1zM-327 3464h-1v-1h1v1zM-296 3463h-1v-1h1v1zM-314 3463h-1v-1h1v1zM-322 3462h-1v-1h1v1zM-327 3462h-1v-1h1v1zM-306 3461h-2v-1h2v1zM-282 3459h-1v-1h1v1zM-288 3454h-1v-1h1v1zM-300 3442h1l-1 1v-1zM-305 3436h1l-1 1v-1zM-360 3499h-1v-1h1v1zM-370 3499h-1v-1h1v1zM-353 3497h-1v-1h1v1zM-371 3498h-1h-1l1 -2h1v2zM-361 3496h-1v-1h1v1zM-332 3490h-1l1 -2h2l-2 2zM-357 3489h-1v-1h1v1zM-332 3488h-1v-1h1v1zM-334 3488h-1v-1h1v1zM-362 3488h-1v-1h1v1zM-367 3488h-1v-1h1v1zM-354 3487h-2v-1h3l-1 1zM-370 3487h-1v-1h1v1zM-373 3487h-1v-1h1v1zM-375 3487h-1v-1h1v1zM-379 3486h-1v-1h1v1zM-368 3485h-1v-1h1v1zM-370 3485h-1v-1h1v1zM-386 3484h-1v-1h1v1zM-388 3483h-2v-1h2v1zM-390 3482h-1v-1h1v1zM-377 3481h-1v-1h1v1zM-383 3480h-1v-1h1v1zM-387 3478h-1v-1h1v1zM-333 3477h-1v-1h1v1zM-336 3477h-2v-1h2v1zM-390 3477h-1l1 -1h1l-1 1zM-341 3476l1 -1v1h-1zM-332 3475h-1v-1h1v1zM-342 3476h-2l2 -2v2zM-387 3475h-1v-1h1v1zM-394 3474h-1v-1h1v1zM-332 3473h-1v-1h1v1zM-379 3473h-1v-1h1v1zM-391 3473h-1v-1h1v1zM-333 3472h-1v-1h1v1zM-337 3472h-1v-1h1v1zM-347 3472h-1v-1h1v1zM-349 3472h-1v-1h1v1zM-372 3472h-3l1 -1h3l-1 1zM-390 3472h-1v-1h1v1zM-335 3471h-1v-1h1v1zM-385 3471h-1v-1h1v1zM-392 3471h-1v-1h1v1zM-334 3470h-1v-1h1v1zM-356 3470h-1v-1h1v1zM-382 3470h-2v-1h2v1zM-348 3470h-2l2 -2h1l-1 2zM-375 3469h-1v-1h1v1zM-378 3469h-2v-1h2v1zM-358 3468h-1v-1h1v1zM-380 3468h-1v-1h1v1zM-339 3467v-1h1v1h-1zM-357 3467h-1v-1h1v1zM-365 3466h1v2l-3 -1h1l1 -1zM-367 3467h-1v-1h1v1zM-382 3467h-1v-1h1v1zM-342 3466h-2v-2h2l1 2h-1zM-345 3465h-1v-1h1v1zM-361 3465h-1v-1h1v1zM-363 3465h-1v-1h1v1zM-367 3466v-2h1l1 2h-2zM-340 3465v-1l2 -1v1l-2 1zM-341 3464h-1v-1h1v1zM-344 3464h-1v-1h1v1zM-362 3464h-1v-1h1v1zM-364 3464h-1v-1h1v1zM-340 3463h-1v-1h1v1zM-343 3463h-1v-1h1v1zM-360 3464l-1 -1v-1h1v2zM-367 3463h-1v-1h1v1zM-334 3462h-1v-1h1v1zM-370 3462h-1v-1h1v1zM-376 3463l-1 -1l1 -1h2v1l-2 1zM-343 3461h-1v-1h1v1zM-345 3461h-1v-1h1v1zM-348 3461h-1v-1h1v1zM-350 3461h-2v-1h2v1zM-356 3461v-1l3 1h-3zM-361 3461h-1v-1h1v1zM-358 3461l-2 -1v-1h3v1l-1 1zM-368 3460h-2v-1h3l-1 1zM-372 3460h-1v-1h1v1zM-336 3459h-4v-1h4v1zM-341 3459h-1v-1h1v1zM-344 3459h-2v-1h2v1zM-347 3459h-1v-1h1v1zM-349 3459h-1v-1h1v1zM-352 3459h-2v-1h2v1zM-363 3459h-1v-1h1v1zM-366 3458h-2v-1h2v1zM-370 3458h-1v-1h1v1zM-352 3457h-1v-1h1v1zM-356 3457h-1v-1h1v1zM-375 3457h-1v-1h1v1zM-370 3456h-1v-1h1v1zM-372 3456h-3l1 -1h2v1zM-377 3456h-1v-1h1v1zM136 3435h-2v-1h3l-1 1zM132 3435h-1v-1h1v1zM130 3435h-5l1 -1h4v1zM142 3435l-1 -1l3 -1v1h-2v1zM177 3433h-1v-1h1v1zM174 3433h-1l1 -1h1l-1 1zM166 3434v-1l2 -1l-2 2zM164 3433h-2v-1h3l-1 1zM160 3434h-2l2 -2v2zM178 3432h-1l1 -1h1l-1 1zM136 3421h-1v-1h1v1zM144 3420h-1l1 -1h1l-1 1zM142 3420h-1v-1h1v1zM135 3420h-1v-1h1v1zM120 3419h-1l1 -1h1l-1 1zM118 3418h-2v-1h3l-1 1zM133 3417h-1v-1h1v1zM128 3417h-1l1 -1h1l-1 1zM124 3418l-2 -1h-1l1 -1h2l1 2h-1zM132 3416h-1v-1h1v1zM127 3416h-1v-1h1v1zM125 3416h-1v-1h1v1zM147 3415h-1v-1h1v1zM130 3415h-1l1 -1h1l-1 1zM150 3414h-2v-1h3l-1 1zM139 3414h-1v-1h1v1zM134 3415l-2 -1v-1h3v1l-1 1zM148 3413h-1v-1h1v1zM138 3413h-2v-1h2v1zM157 3412h-1v-1h1v1zM155 3413h-1l-1 -1l1 -1l1 1v1zM146 3412h-1v-1h1v1zM144 3414l-4 -2h-1l1 -1h2l2 3zM154 3411h-1v-1h1v1zM145 3411h-1v-1h1v1zM163 3410h-1v-1h1v1zM157 3410h-1v-1h1v1zM150 3412l-2 -1l-2 -1v-1l4 1l1 2h-1zM132 3410h-2v-1h2v1zM167 3409h-1v-1h1v1zM161 3409h-1v-1h1v1zM156 3409h-1v-1h1v1zM152 3410l-2 -2h2l1 2h-1zM138 3409h-2v-1h3l-1 1zM169 3408h-1v-1h1v1zM159 3408h-1v-1h1v1zM154 3408h-1v-1h1v1zM144 3408h-2v-1h3l-1 1zM172 3407h-1v-1h1v1zM164 3408h-2v-2l2 2zM161 3407h-1v-1h1v1zM158 3407h-1v-1h1v1zM149 3407h-1v-1h1v1zM123 3407h-1v-1h1v1zM174 3406h-1l1 -1h1l-1 1zM169 3406h-1v-1h1v1zM166 3405v1v1l-1 -1v-1h1zM160 3406h-1v-1h1v1zM154 3406h-3l1 -1h2v1zM130 3406h-1v-1h1v1zM178 3405h-1v-1h1v1zM172 3405h-1v-1h1v1zM165 3405h-1l-1 -1h1h1v1zM158 3405h-2v-1h2v1zM162 3404h-1l1 -1h1l-1 1zM123 3403h3v1h-3v-1zM178 3402v1l-2 -1h2zM127 3403h-1v-1h1v1zM176 3402h-1v-1h1v1zM174 3404l-2 -2v-1l3 3h-1zM171 3402h-1v-1h1v1zM131 3402h-1v-1h1v1zM129 3402h-1v-1h1v1zM134 3400h-1l1 -1h1l-1 1zM137 3399h-1v-1h1v1zM162 3398h-1v-1h1v1zM140 3398h-1v-1h1v1zM135 3398h-1v-1h1v1zM167 3397h-1v-1h1v1zM141 3397h-1v-1h1v1zM136 3397h-1v-1h1v1zM138 3397l-1 -1l3 -1v1h-2v1zM142 3395h-1v-1h1v1zM146 3394h-1v-1h1v1zM153 3393h-1v-1h1v1zM150 3393h-4v-1h4v1zM132 3393h-6v-1h6v1zM124 3392h1l-1 1v-1zM156 3392h-1v-1h1v1zM138 3392h-6v-1h6v1zM159 3391h-1v-1h1v1zM155 3391h-1v-1h1v1zM142 3391h-3l1 -1h3l-1 1zM158 3390h-2v-1h2v1zM148 3390h-2v-1h2v1zM136 3390h-1v-1h1v1zM134 3390h-2v-1h2v1zM154 3389h-2v-1h3l-1 1zM139 3389h-1v-1h1v1zM137 3389h-1v-1h1v1zM130 3388h-1v-1h1v1zM152 3387h-1v-1h1v1zM150 3388h-4v-1l2 -1h2v2zM132 3388l-1 -2h1h1v2h-1zM154 3386h-2v-1h3l-1 1zM144 3386h-1v-1h1v1zM134 3386h-1l1 -1h1l-1 1zM138 3385h-1v-1h1v1zM131 3385h-1v-1h1v1zM141 3384h-1v-1h1v1zM144 3383h-1v-1h1v1zM176 3380h-1l1 -1h1l-1 1zM144 3381h-2v-1l2 -1v1v1zM163 3376h-1v-1h1v1zM165 3375h-1v-1h1v1zM168 3374h-1v-1h1v1zM162 3374h-1l1 -1h1l-1 1zM171 3373h-1v-1h1v1zM107 3423h-1v-1h1v1zM113 3422l1 -1v1h-1zM116 3420h-1l1 -1h1l-1 1zM114 3419h-1l1 -1h1l-1 1zM112 3419h-1v-1h1v1zM176 3371h-1v-1h1v1zM168 3371v-1h3l-1 1h-2zM178 3370h-1v-1h1v1zM171 3370l1 -1h1v1h-1h-1zM173 3369v-1h3v1h-3zM170 3368v-1h2v-1h1v2h-3zM170 3364h-2v-1h2v1zM174 3363h-1v-1h1v1zM158 3360h-1v-1h1v1zM151 3361l-1 -1v-1l1 1v1zM162 3359h-2v-1h2v1zM154 3360h-2v-2h2v2zM146 3359v-1h3l-1 2v-1h-2zM164 3358h-1l1 -1h1l-1 1zM152 3358h-2v-1h2v1zM168 3357h-2v-1h2v1zM160 3357v-1h3l-1 1h-2zM154 3357h-1l1 -1h1l-1 1zM163 3356l1 -1h1v1h-1h-1zM173 3355h-1v-1h1v1zM165 3355v-1h1h2v1h-3zM176 3354h-1l1 -1h1l-1 1zM168 3353h2l1 1h-1h-2v-1zM174 3353h-2v-1h2v1zM178 3352h-4v-1h4v1zM164 3353v-1l2 -1h2v2l-2 -1v1h-2zM166 3350h-2v-1h3l-1 1zM158 3351h-1v-1l1 -1l1 1l-1 1zM170 3349h-1l1 -1h1l-1 1zM173 3347h-3v-1l2 -1v1h1v1zM168 3348l-2 -2l2 -1v1l1 2h-1zM178 3344h1l-1 1v-1zM171 3345h-1v-1h1v1zM177 3342h1v2h-2l1 -2zM177 3342h-1l1 -1v1zM160 3343h-3v-1l1 -1v1h3l-1 1zM161 3341h-1v-1h1v1zM159 3341h-1v-1h1v1zM164 3335h-2v-1h2v1zM170 3334h-2v-1h3l-1 1zM175 3333h-1v-1h1v1zM164 3332l-2 -1v-1h3v2h-1zM176 3330h-1v-1h1v1zM170 3330h-4v-1h4v1zM174 3329h-2v-1h3l-1 1zM179 3328h-1v-1h1v1zM170 3327h-1v-1h1v1zM168 3327h-1v-1h1v1zM173 3326h-1v-1h1v1zM179 3324h-1v-1h1v1zM169 3324h-1v-1h1v1zM176 3321h-1v-1h1v1zM178 3320h-1v-1h1v1zM171 3320h-1v-1h1v1zM174 3319h-1v-1h1v1zM177 3318h-1v-1h1v1zM169 3316h1l-1 3v-3zM154 3316h-1v-1h1v1zM178 3315h-1v-1h1v1zM176 3315h-1v-1h1v1zM175 3308h-1v-1h1v1zM78 3316h-1v-1h1v1zM88 3308v-1l1 1h-1zM-137 3229l-1 1v-1h1zM-132 3171h-1v-1h1v1zM-136 3167l-1 -1v-1l1 1v1zM-137 3165h-1v-1h1v1zM-136 3164h-1v-1h1v1zM-138 3163h-1v-1h1v1zM-203 3178h-1v-1h1v1zM-159 3174v-1h1v1h-1zM-160 3173v-1h1v1h-1zM-165 3171h-1l-2 -1l2 -2l1 2v1zM-168 3169h-2v-1h2v1zM-170 3167l-1 -1v-1l1 1v1zM-204 3179h-1v-1h1v1zM-205 3178l-1 -1v-1h1v2zM-266 3157h2l1 1h-1h-2v-1zM-260 3153v-1h2v1h-2zM-255 3150l1 -1v1h-1zM-231 3136h-1v-1h1v1zM-226 3133h-1v-1h1v1zM156 3035v1l-1 -1h1zM155 3035h-1v-1h1v1zM-68 3006v1l-1 -1h1zM-75 3002h-1v-1h1v1zM-225 3038h-1v-1h1v1zM-242 2999h-1v-1h1v1zM-248 2988h-1v-1h1v1zM474 3532h-5l1 -1h4v1zM480 3531h-1l1 -1h1l-1 1zM478 3531h-1v-1h1v1zM483 3530h-1v-1h1v1zM476 3530h-3l1 -1h3l-1 1zM487 3529h-1v-1h1v1zM485 3529h-1v-1h1v1zM481 3529h-1v-1h1v1zM488 3528h-1v-1h1v1zM486 3527h-2v-1h3l-1 1zM457 3527h-1v-1h1v1zM452 3526h-2v-1h2v1zM449 3526h-1v-1h1v1zM448 3525h-1v-1h1v1zM441 3525h-1v-1h1v1zM446 3527l-2 -1v-2v-1l2 1v3zM443 3524h-1v-1h1v1zM430 3523h-2v-1l2 -1v1v1zM432 3521h-2v-1h2v1zM429 3521h-1v-1h1v1zM426 3521l-1 -1l1 -1h2v1l-2 1zM424 3521h-2v-1v-1l2 1v1zM421 3519h-1v-1h1v1zM416 3519h-1v-1h1v1zM418 3518h-1v-1h1v1zM414 3518h-1v-1h1v1zM411 3518h-1v-1h1v1zM390 3518h-1v-1h1v1zM413 3517h-1v-1h1v1zM409 3517h-1v-1h1v1zM405 3517h-1v-1h1v1zM407 3516h-1v-1h1v1zM400 3516h-2v-1h2v1zM377 3516h-1v-1h1v1zM393 3515h-1v-1h1v1zM397 3514h-1v-1h1v1zM386 3514h-1l1 -1h1l-1 1zM390 3513h-1v-1h1v1zM382 3513h-3l1 -1h2v1zM386 3512h-1v-1h1v1zM383 3512h-1v-1h1v1zM432 3510l-1 -1v-1h1v2zM432 3507h-1v-1h1v1zM425 3506h-1v-1h1v1zM428 3505h-1v-1h1v1zM416 3505h-1v-1h1v1zM410 3505h-1v-1h1v1zM405 3505h-1v-1h1v1zM430 3504h-1v-1h1v1zM404 3504h-4v-1h4v1zM425 3503h-1v-1h1v1zM400 3503h-1v-1h1v1zM386 3503h-4v-1h5l-1 1zM426 3502h-1v-1h1v1zM418 3501h-1v-1h1v1zM403 3502h-2v-2h2v2zM400 3501h-1v-1h1v1zM398 3501h-2v-1h2v1zM395 3501h-1v-1h1v1zM392 3501l-2 -1v-1h2l1 1l-1 1zM388 3500h-1l1 -1h1l-1 1zM386 3500h-2v-1h2v1zM382 3501l-1 -1l1 -1h1v1l-1 1zM378 3500h-1l1 -1h1l-1 1zM367 3512h-1v-1h1v1zM366 3510h-1v-1h1v1zM410 3499h-1v-1h1v1zM408 3499h-1v-1h1v1zM401 3499h-1v-1h1v1zM405 3497h-1v-1h1v1zM411 3496h-1v-1h1v1zM407 3496h-1v-1h1v1zM398 3496h-2v-1h2v1zM390 3496h-1v-1h1v1zM384 3496h-2v-1h2v1zM381 3496h-1v-1h1v1zM376 3496h-1v-1h1v1zM394 3495h-1v-1h1v1zM422 3494h-1v-1h1v1zM396 3494h-1v-1h1v1zM424 3493h-1v-1h1v1zM420 3493h-2v-1h2v1zM425 3492h-1v-1h1v1zM422 3492h-1v-1h1v1zM416 3492h-1v-1h1v1zM412 3491h-1l1 -1h1l-1 1zM426 3491l-1 -1v-1l1 1v1zM411 3490h-1v-1h1v1zM408 3490h-2v-1h3l-1 1zM404 3489h-2v-1h2v1zM399 3489h-1v-1h1v1zM427 3489l-1 -1v-1l1 1v1zM419 3488h-1v-1h1v1zM409 3488h-1v-1h1v1zM401 3488h-1v-1h1v1zM392 3487h-1l1 -1h1l-1 1zM420 3486h-1v-1h1v1zM406 3486h-1v-1h1v1zM404 3487l-1 -1v-1l1 1v1zM396 3486h-1v-1h1v1zM385 3486h-1v-1h1v1zM383 3486h-1v-1h1v1zM426 3486h-2v-2l2 2zM422 3485h-2v-1h2v1zM402 3486h-3v-2h1l2 2zM376 3485h-1v-1h1v1zM398 3488h-2l1 -2v-3l1 1v4zM394 3484h-1l1 -1h1l-1 1zM392 3484h-1v-1h1v1zM388 3483h-2v-1h2v1zM385 3483h-1v-1h1v1zM392 3482h-1l1 -1h1l-1 1zM378 3482h-1l1 -1h1l-1 1zM375 3482h-1v-1h1v1zM391 3481h-1v-1h1v1zM386 3481h-2v-1h2v1zM373 3481h-1v-1h1v1zM388 3480h-1v-1h1v1zM383 3480h-1v-1h1v1zM377 3480h-1v-1h1v1zM386 3479h-1l1 -1h1l-1 1zM376 3479h-1v-1h1v1zM384 3478h-1v-1h1v1zM376 3477h-1v-1h1v1zM373 3477h-1v-1h1v1zM374 3496h-3l1 -1h2v1zM366 3495h-1v-1h1v1zM360 3495h-1v-1h1v1zM371 3493h-1v-1h1v1zM354 3493h-1v-1h1v1zM352 3492h-1v-1h1v1zM353 3490h-1v-1h1v1zM358 3489h-1v-1h1v1zM350 3489h-1l1 -1h1l-1 1zM356 3488h-1v-1h1v1zM338 3488h-1v-1h1v1zM353 3487h-1v-1h1v1zM335 3487h-1v-1h1v1zM351 3486h-1v-1h1v1zM334 3486h-1v-1h1v1zM331 3486h-1v-1h1v1zM329 3484h-1v-1h1v1zM336 3483h-1v-1h1v1zM328 3483h-1v-1h1v1zM334 3482h-1v-1h1v1zM329 3482h-1v-1h1v1zM347 3481h-1v-1h1v1zM344 3481h-1v-1h1v1zM368 3481h-2v-1l2 -1v1v1zM361 3480h-1v-1h1v1zM357 3480h-1v-1h1v1zM352 3480h-2v-1h2v1zM334 3480h-1l1 -1h1l-1 1zM329 3480h-1v-1h1v1zM326 3482l-2 -2h2v-1l1 1l-1 2zM370 3479h-1v-1h1v1zM359 3480l-1 -1v-1h1v2zM350 3479h-1v-1h1v1zM333 3479h-1v-1h1v1zM326 3479h-1v-1h1v1zM324 3479h-1v-1h1v1zM360 3478h-1v-1h1v1zM358 3478h-2v-1h2v1zM351 3478h-1v-1h1v1zM330 3478h-1l1 -1h1l-1 1zM327 3478h-1v-1h1v1zM325 3478h-1v-1h1v1zM371 3477h-1v-1h1v1zM356 3477h-1v-1h1v1zM352 3478l-1 -2h1h2l-2 2zM368 3476h-2v-1h3l-1 1zM349 3476h-1v-1h1v1zM347 3476h-1v-1h1v1zM338 3476h-1v-1h1v1zM364 3476l-1 -2h1h1v2h-1zM360 3475h-1v-1h1v1zM345 3475h-1v-1h1v1zM342 3475h-2v-1h3l-1 1zM366 3474h-1v-1h1v1zM357 3474h-1v-1h1v1zM334 3475l-4 -1v-1h4l1 1l-1 1zM329 3474h-1v-1h1v1zM348 3473h-1v-1h1v1zM324 3473h-3l1 -1h3l-1 1zM320 3473h-1v-1h1v1zM366 3472h-2v-1h3l-1 1zM362 3472h-1l1 -1h1l-1 1zM356 3472h-3l1 -1h2v1zM352 3472h-3l1 -1h2v1zM347 3472h-1v-1h1v1zM344 3472h-1v-1h1v1zM316 3472h-1l1 -1h1l-1 1zM369 3471h-1v-1h1v1zM345 3471h-1v-1h1v1zM314 3471h-1v-1h1v1zM370 3470h-1v-1h1v1zM367 3470h-1v-1h1v1zM361 3470h-1v-1h1v1zM352 3470h-1v-1h1v1zM334 3470h-1l1 -1h1l-1 1zM332 3470h-1v-1h1v1zM318 3470h-1v-1h1v1zM313 3470h-1v-1h1v1zM328 3469h-2v-1h2v1zM324 3469h-2v-1h3l-1 1zM370 3468h-5l1 -1h4v1zM357 3468h-1v-1h1v1zM354 3468h-1l1 -1h1l-1 1zM336 3468h-1l1 -1h1l-1 1zM334 3468h-5l1 -1h4v1zM326 3468h-1v-1h1v1zM314 3467v1l-2 -1h2zM311 3468h-1v-1h1v1zM365 3467h-1v-1h1v1zM347 3467h-1v-1h1v1zM338 3467h-1l1 -1h1l-1 1zM328 3467h-1v-1h1v1zM312 3467l-1 -1h1v1zM369 3466h-1v-1h1v1zM367 3466h-1v-1h1v1zM349 3467l-1 -1v-1l1 1v1zM342 3467h-2l-1 -1l1 -1l2 1v1zM332 3466h-3l1 -1h3l-1 1zM365 3465h-1v-1h1v1zM339 3465h-1v-1h1v1zM336 3465h-1v-1h1v1zM327 3465h-1v-1h1v1zM322 3465h-1v-1h1v1zM320 3466h-2v-2h2v2zM337 3464h-1v-1h1v1zM349 3463v-1h1v1h-1zM330 3463h-2v-1h2v1zM312 3465h-3v-1l1 -2h1l1 2v1zM355 3462h-1v-1h1v1zM341 3463l-1 -1v-1l1 1v1zM339 3463h-1l-1 -1l1 -1l1 1v1zM336 3462h-1l1 -1h1l-1 1zM332 3463l-1 -1v-1l1 1v1zM350 3461h-1v-1h1v1zM327 3463l-1 -1v-2h5l-1 1h-3v1v1zM339 3460h-1v-1h1v1zM317 3460v-1h2l-1 2v-1h-1zM334 3459h-1v-1h1v1zM330 3459h-1v-1h1v1zM322 3458h-2v-1h2v1zM316 3457h-1v-1h1v1zM312 3457h-1l1 -1h1l-1 1zM286 3499h-2v-1h2v1zM288 3498h-1v-1h1v1zM284 3498h-1v-1h1v1zM286 3497h-1v-1h1v1zM277 3496h-1v-1h1v1zM274 3496h-1v-1h1v1zM270 3496h-5l1 -1h4v1zM292 3496h1v-2h1v3h-2v-1zM264 3496h-6l2 -2v1h4v1zM282 3493h-1l1 -1h1l-1 1zM261 3492v2h-1v-2h1zM277 3492h-1v-1h1v1zM274 3492h-2v-1h2v1zM271 3490v-1h4v1h-1h-3zM306 3464l-1 -1v-1h1v2zM304 3463h-1v-1h1v1zM304 3460h-1v-1h1v1zM301 3459h-1v-1h1v1zM307 3456h-1v-1h1v1zM308 3422h-1v-1h1v1zM297 3312h-1v-3l1 1v2zM250 3137h-1l1 -1h1l-1 1zM250 3135h-1v-1h1v1zM249 3132h-1v-1h1v1zM248 3129h-2v-1h2v1zM246 3128h-1v-1h1v1zM192 3475h-1v-1h1v1zM190 3475h-1v-1h1v1zM187 3475h-1v-1h1v1zM190 3461v-1l1 1h-1zM188 3461h-2v-1h3l-1 1zM188 3456h-2v-1h3l-1 1zM185 3456h-1v-1h1v1zM196 3455h-5l1 -1h4v1zM202 3454h-1l1 -1h1l-1 1zM200 3454h-1v-1h1v1zM183 3451h-1v-1h1v1zM196 3450h-1v-1h1v1zM192 3450h-1l1 -1h1l-1 1zM190 3450h-1v-1h1v1zM185 3442h-1v-1h1v1zM197 3441h-1v-1h1v1zM194 3440h-1v-1h1v1zM182 3438h-1v-1h1v1zM182 3457h-5l1 -1h4v1zM180 3453h-1v-1h1v1zM180 3443h-1l1 -1h1l-1 1zM186 3435h-1v-1h1v1zM184 3436h-2l-1 -2h1l2 2zM206 3432h-2v-1h2v1zM203 3432h-1v-1h1v1zM188 3432h-1v-1h1v1zM184 3432h-2v-1h3l-1 1zM181 3432h-1v-1h1v1zM183 3385h-1v-1h1v1zM186 3384h-1l1 -1h1l-1 1zM188 3383h-1l1 -1h1l-1 1zM195 3381l-1 1v-1h1zM201 3381h-1v-1h1v1zM181 3379h-1v-1h1v1zM200 3378h-1v-1h1v1zM180 3404h-1l1 -1h1l-1 1zM180 3386h-2v-1h2v1zM188 3362h-1v-1h1v1zM203 3360h-1v-1h1v1zM184 3350h-3l1 -1h2v1zM186 3349h-2v-1h3l-1 1zM188 3348h-1l1 -1h1l-1 1zM192 3347h-2v-1h3l-1 1zM182 3345h-2v-1h2v1zM184 3344h-2v-1h3l-1 1zM190 3343h-3l1 -1h2v1zM181 3343h-1v-1h1v1zM191 3342h-1v-1h1v1zM188 3341h-1l1 -1h1l-1 1zM193 3340h-1v-1h1v1zM182 3340h-1l1 -1h1l-1 1zM196 3339h-1v-1h1v1zM192 3339h-1v-1h1v1zM203 3337h-1v-1h1v1zM200 3338l-2 -2h2v2zM190 3338h-2v-1l4 -1l-2 2zM185 3337h-1v-2l2 1h-1v1zM202 3336l-2 -1h-1l1 -1h2v2zM182 3335h-1l1 -1h1l-1 1zM213 3334h-1v-1h1v1zM186 3334h-2v-1h3l-1 1zM217 3334l-1 -1v-1h1v2zM201 3333h-1v-1h1v1zM196 3334h-3v-2h3v2zM189 3333h-1v-1h1v1zM191 3332h-1v-1h1v1zM204 3331v-1h4v1h-4zM188 3331h-1v-1h1v1zM185 3331h-1v-1h1v1zM203 3330h-1v-1h1v1zM194 3331l-4 -1h-1l1 -1h4v1v1zM199 3329h-1v-1h1v1zM198 3330h-2v-2l2 2zM212 3328h-1v-1h1v1zM202 3328h-1v-1h1v1zM187 3328h-1v-1h1v1zM184 3327h-1l1 -1h1l-1 1zM200 3326h-1v-1h1v1zM198 3327h-1v-1l1 -1l1 1l-1 1zM203 3325h-1v-1h1v1zM216 3322h1l-1 1v-1zM182 3323h-2v-1h2v1zM215 3322v-1h1v1h-1zM210 3322h-1v-1h1v1zM184 3322h-1l1 -1h1l-1 1zM217 3321h-1v-1h1v1zM211 3321h-1v-1h1v1zM187 3321h-1v-1h1v1zM214 3321v-1v-1l1 1v1h-1zM213 3321l-1 -1v-1l1 1v1zM192 3319h-1v-1h1v1zM195 3318h-1v-1h1v1zM200 3316h-1v-1h1v1zM204 3315h-2v-1h2v1zM190 3315h-4v-1h4v1zM184 3316h-3l1 -1l2 -1l1 2h-1zM206 3314h-1v-1h1v1zM198 3314h-1v-1h1v1zM196 3314h-4v-1h4v1zM204 3313h-4v-1h4v1zM188 3313h-1v-1h1v1zM185 3313h-1v-1h1v1zM187 3312h-1v-1h1v1zM190 3311h-2v-1h3l-1 1zM194 3310h-1v-1h1v1zM196 3311l-1 -1v-2h1v3zM193 3308l-1 1v-1h1zM193 3308v-1h1v1h-1zM192 3308h-1l1 -1v1zM180 3351h-2v-1h2v1zM180 3332h-1l1 -1h1l-1 1zM180 3317h-3l1 -1h3l-1 1zM180 3314h-1v-1h1v1zM185 3304h-1v-1h1v1zM193 3296h-1v-1h1v1zM191 3296h-1v-1h1v1zM192 3295h-1v-1h1v1z"/></svg>