<svg xmlns="http://www.w3.org/2000/svg" viewBox="-650 3685 1293 738"><g class="s" data-r fill="#000" fill-rule="evenodd"><path class="chunk" data-i="0" d="M-304 3818h-5h-2v-2l3 -2h3l14 -6h3l2 -2v1h2l4 -1l2 -2v1l1 -1l1 -1v1h2l5 -2l68 -20l13 -4l3 2v6l-3 2l-42 10l-23 6l-30 10l-18 4h-3zM14 4337l-1 -1h-2l-3 -1v-1l4 1h2l1 1l-1 1zM-41 4370h3l-2 2l-10 -1v-1h2v-1l2 2l4 -1v1l1 -1zM-56 4371h-2v-1l-2 1l-1 -1l1 -1h2l2 1v1zM-12 4362h-6v-1h7l-1 1zM-36 4360l-8 -1v-1v-1l2 1h6v2z"/><path class="chunk" data-i="1" d="M-42 4354h-4h-2v-1h8v1h-2zM-64 4355l-1 -1l-3 -1h-1l1 -1h6v2l-2 -1v1v1zM-17 4353h-1l-2 -1v1l-2 -1v-2l2 1v-1l2 1h1v2zM-12 4351l-2 1l-4 -4h2l2 2h2v-2h2h1l-1 2v1h-2zM-74 4380h-2l-1 -2h1l2 1l1 -1v-2h2v2l-3 2zM-80 4379h-2l-1 -1v-2h1v1h2l1 1l-1 1zM-100 4377h-9v-2l7 1v-1l2 1h1l-1 1zM-114 4377l-2 -2v1l-2 -2h4h1l-1 2v1zM-78 4375l-14 -1l2 -2h1h2h2l6 2h1h1l-1 1zM-94 4373h-11l1 -1h10v1z"/><path class="chunk" data-i="2" d="M-116 4369l2 3l-2 1l-11 -1l1 -1l10 1l-4 -4v-1l2 -1h2v2h-1l1 1zM-138 4377v-1l-2 1v-1l-4 -1h-1l1 -1h6v1l2 -1h4h1l-1 2l-2 -1v1l-2 -1l-2 2zM-148 4376v-1l-2 1l-1 -2l-1 -2h3v2h3l-2 2zM-154 4372l-2 -1v1l-2 -1l-1 1h-2v-2h7v2zM-139 4370l-3 2v-1l-6 1h-1l1 -1l2 -2l2 1v-1h2v1l2 -1l1 1zM-168 4367h-6v-1h7l-1 1zM-142 4366h-11l1 -1h10v1zM-234 4383h-12v-1l-2 1h-2l-2 -1v-1h10l2 1v-1l2 1h2v-2h3l-1 1h-1l1 1h1l-1 1zM-229 4380h-1v2l-2 -2h1l-1 -1h-2v-1l5 1v1zM-237 4380h-1l-2 -1v1h-3v-2h1v1l2 -2l2 1h3l-1 1l-1 1z"/><path class="chunk" data-i="3" d="M-244 4377l-1 -1l1 -1h7l-1 1h-4l-2 1zM-253 4375h3v1l2 -1h2v1h-1l1 2h2v2l-3 -1l-2 1h-1l-2 -1v1l-2 -1v1v1h-8v-1h4l2 -2l2 -1l2 1l1 -2h-1l-1 -1zM-255 4380v-1h-1v1h1zM-261 4369v-1l-1 -1v1l1 1zM-260 4373v-1h-1v1h1zM-254 4377h-2v-1h-1v2h-1v-2h-2l-4 -4l1 -2h-1v-2l2 -2h2h1l-1 2l-2 2v1l4 1v2l2 1h1v1h1v1zM-216 4364h-1v-2l1 -2h3v2h-1v-1l-2 1l1 2h-1zM-238 4359l-4 -1h-1l1 -1h2v1l2 -1v1v1zM-202 4356h-2l-2 -2v-1h2v1h1v-2h1l1 2l-1 2zM-252 4352h-2l-2 -1v1h-2l1 -2h-1h-7l1 -1l9 1h2l3 -1l1 1l-1 1l-2 1zM-250 4343l-2 -1v1l-2 -1h-2v-1h10v1h-4v1zM-318 4385l-1 -1v-2l-1 -2h2h1l-1 2v1h2v1l-2 1zM-266 4357l-3 -3v-1h3v-1l2 2h-2h-1l2 2l-1 1z"/><path class="chunk" data-i="4" d="M-298 4353h-2v-1h1v-2h2v-2h1v3h-2v1h1l-1 1zM-298 4348h-1v-3h3v1v1l-2 -1v2zM-567 4358v-1l1 -1h-1v-1h1l2 1l-1 2h-2zM-592 4377v1l-6 -1v-1h4v1h2zM16 4309l-2 -1v1l-1 -1v-1h1l2 -1v2h1l-1 1zM34 4302h-2l2 -3h2v-1h1v2l-1 1l-2 1zM-257 4330l-1 1l-2 -1v-1h2v1h1zM-258 4311h-7l1 -1h7l-1 1zM-244 4309l-6 -1l1 -2h-1h-1l1 -1h1l3 -1h1l-1 2l-2 -1v1v1h2l2 -1v2v1zM-258 4308l-2 -1v1h-1v-2h3l2 -2l2 1v-1v-1h4v1h-2v2h-2v1l-2 -1l-2 2z"/><path class="chunk" data-i="5" d="M-249 4286l-1 -1v-1h2v2h-1zM-272 4324h-1l1 -2h-2l2 -2l2 2l-2 2zM-293 4320h5v1l2 -1h2v1h-2v1h3l-1 1h-6l-3 -2v-1zM-288 4322v-1h-1v1h1zM-280 4324l-4 -5h-3l1 -1h2l3 2l1 4zM-318 4308l-4 1v-1h-1v2h1v1h-2l-1 -1h1v-1h-3l1 -1h1l3 -2h4v-1l1 1v1h-1v1zM-268 4305v1l-4 1h-2v-1l2 -1l2 -1v1h2zM-285 4306h-1v2h-3l-4 1v-1l1 -1v1l2 -1h2v-1h-2v-2l2 1l3 -1v2zM-299 4305l1 -1h2v2h1l-1 2l-2 -1v1l-2 -2h1v-1zM-297 4306v-1h-1v1h1zM-308 4307h-4v-1h2l-1 -2h1h3v2l-1 1zM-308 4306v-1h-1v1h1zM-300 4306h-1v2h-1h-1l1 1h2v1l-2 2v1l-2 -1v1l-1 -1v-1h1h1l-1 -1l-2 -1l-1 -1l1 -1h4v-3h1l-1 -2h4v1h-2v1l1 1h-1v1z"/><path class="chunk" data-i="6" d="M-270 4304v-2h-4l-2 1v-1h-2v-1l18 1h1l-1 2l-2 -1h-4l-2 2v-1v-1l-2 1zM-316 4301l2 -1h1l-3 3l-1 -1h1v-1zM-317 4302h-1l-2 3l-1 -1l-1 -2l-2 1v-1h-2l1 -2l1 -1v1v1l1 -1v-1l1 1l2 2l3 -1v1zM176 4254h-8v-1h8v1zM-72 4242l-2 1l-2 -1v1h-2l-2 2h-2v-1h-1v2h-1v-1l-2 1h-12l-2 -1v1l-4 -1l-2 -1v1h-2v-1l-2 1l-1 -1h-2h-13l-6 -1l-7 -2l-5 -1l-19 -4l-3 -2l-3 1h-1l-2 1v-1h-2l-2 -5v-2h1l-1 -2h1v-2h2h5h2v2h4l12 4l10 1v1l2 -1v1l26 1v1l2 -1h1h19v-1l2 1h8l2 1v-1l7 -1l14 -5l5 -1v-1l2 1h2l6 -2l4 -1l3 3l-1 6l-4 3l-19 3l-7 2v1l-2 -1h-1v2h-1v-1l-2 1zM-49 4163l-2 -1h-2l-3 1l-2 -1v1l-2 -1h-3l-5 -2l-6 -2l-2 -1v1l-2 -2h-2l-13 -8l-5 -3l-5 -5l-2 -2l-3 -4l-3 -7l-3 -9l-1 -5l-1 -9l-1 -2h1l-1 -2l1 -3l2 -10l2 -5l2 -2l5 -8l3 -4v-2l-2 2l-4 5h-2l-2 -1l1 -4l5 -8l2 -1l4 -3v-2l2 1l1 -1v-2h1l2 1v-1v-1l20 -5l2 1v-1l2 1l5 1l3 1l4 1l2 1v1l2 -1l5 1l1 4l11 12l1 2l6 8l1 2l2 4l3 5l2 5l3 20l1 6l1 2h-1v5l-2 4l-4 10v2l-1 2h-2l-3 5l-2 3h-2v1l-2 3h-2v2h-2l-4 1l-2 2l-3 1zM-74 4056l-2 -2v1l-4 1h-3l-5 1l-4 3l-4 4l-1 2h1h1v-2h2l5 -4l4 -1l6 -3h4zM-100 4065v-1h-1v1h1zM-101 4066v-1h-1v1h1zM-97 4068v-1h-1v1h1zM-98 4069v-1h-1v1h1zM-91 4075v-1h-1v1h1zM-72 4055v-1h-2v1h2zM-64 4059h2l1 -1l-1 -1l-7 1h-3v2l8 -1zM-52 4066h2l-2 -2h-4l2 3l2 -1zM-62 4069v-1l-8 -1v1l8 1zM-40 4080h1l-1 -4l-2 -3h-2l-1 -1v-2l-3 -3h-4v1l4 4h2l5 6l1 2zM-60 4070v-1h-1v1h1zM-58 4071v-1h-1v1h1zM-103 4078v-1h-1v1h1zM-76 4078l2 -2l-4 1l-1 1l1 1l2 -1zM-108 4116l-1 -2l3 -14h1l-1 -2h1l-1 -2v-4h-1l1 -2v-4h1l-1 -2h1l1 -6l-2 2v1l-2 4l-2 5l-1 4v12l1 10h2zM-94 4079v1l-2 2v2l8 -8l4 -2l3 -2l4 -6l-1 -1v1h-2l-2 2l-2 -1l-1 1h1l-1 2l-1 1v-1h-2l-1 2h-1v1h1l-3 3v2h-1v-2h-1v2h-1l1 1zM-79 4080v-1h-1v1h1zM-96 4085v-1h-1v1h1zM-96 4108l1 -4l3 -8l1 -2l2 -2l1 -6v-1l-6 5l-4 7v1l-1 2h1l1 8h1zM-60 4119h2v-1l2 -2l-1 -2h1l-2 -9l-1 -5h-2l-9 -1l-2 2l-5 5l1 4l2 4l4 5h10zM-94 4133v-2l-4 -9l-3 -8v-2l-1 -1l-1 1l1 5l1 4l2 5l3 5v2h2zM-108 4119v-1l-1 -1v1l1 1zM-84 4122v-1h-1v1h1zM-83 4126v-2h-1v1l1 1zM-82 4128v-2h-1v1l1 1zM-88 4132v-1h-1v1h1zM-87 4133v-1h-1v1h1zM-93 4134v-1h-1v1h1zM-86 4134v-1h-1v1h1zM-85 4135v-1h-1v1h1zM-84 4136v-1h-1v1h1zM-68 4076l1 -1h-5v1h4zM-72 4077v-1h-1v1h1zM-51 4078v-1h-1v1h1zM-50 4079v-1h-1v1h1zM-37 4122l1 -10h-1l1 -2l-2 -2h1l-1 -2v-2l-2 -2l1 -2v-1l-1 -3l-2 -4l-1 -4l-1 -2l-2 -2l-1 -4h-1l-2 -1v1l4 6l4 10l2 12l2 14h1zM-38 4083v-1l-1 -1v1l1 1zM-55 4084v-1h-1v1h1zM-54 4086v-1h-1v1h1zM-53 4088v-2h-1v1l1 1zM-50 4096l-1 -3v-2l-1 -3h-1l1 6l2 2zM-26 4118h1l-1 -6l-3 -14h-1l1 -2l-2 -2l-1 -1l2 23v1l2 -1v1l2 1zM-47 4110v-1h-1v1h1zM-75 4127v-1h-1v1h1zM-50 4153l3 -1h3l4 -3h1v-1l3 -3l3 -3l1 -2l2 -2l1 -3l2 -5l1 -4h-1l-1 2l-2 4l-8 10l-4 4l-2 2l-12 2h-12v1l9 2h9zM-60 4135l1 -1h-1h-1l-12 -6l-1 -1l-1 1l5 4h1l2 1l3 1l4 1zM-55 4128v-1h-1v1h1zM-107 4017l1 1l2 2v2l-2 2l-1 -2l-3 -4l-2 -2h-1v-2h1v-1h2l2 3h-1l1 1v1l1 -1zM-105 4022v-1h-1v1h1zM-81 4025h-1l-2 -1l1 -2h-1l1 -2v-1l-2 -6v-1l1 -1v1l2 -1v1v1l-1 2h2l-1 7l2 -1v1l-1 3zM-113 4014l-3 -1h-1l1 -1h1h2h-1v1h1v1zM-136 4029l-1 -1l-6 -4h-2l-3 -1v-2h-4v-1h3l-1 -1h-3l1 -1h5l4 2l4 2h1l4 4v2l-2 1zM-145 4021v-1h-1v1h1z"/><path class="chunk" data-i="7" d="M486 4367l-4 -1l-4 -1v-1l4 -1l2 2l1 -1l1 -1v1h2l-1 2l-1 1zM475 4363h-3l-1 -1l1 -1l2 1v-1l1 1v1zM460 4344l-6 -1l-2 1v-1h-2v1h-1v-2h11v2zM476 4329l1 1l-1 4h-1v-3h1v-1v-1zM464 4329v2l-1 2h-2l-5 -1l1 -2v-1h1v2h4v-2h2zM458 4329v-1h-1v-1h15v1l-8 1h-4h-2zM451 4328h-2h-2h-1h-1l1 -2v-1l2 1h3v2zM376 4324l-2 -1v-1h2v-1l1 1v2h-1zM418 4323h-2v-1h1v-2h4v2h-1v-1h-2v2zM391 4324h-2v-3h3l2 -1l1 2l-1 1l-2 -1h-1v2z"/><path class="chunk" data-i="8" d="M399 4321h-4v-2h5l2 -1v1l2 -1v1h2v1l-7 1zM412 4307l-2 1l-2 -2h-2v-1l8 1v1h-2zM397 4306h-2v-2h5l2 1l2 -2v1l1 4h-1v-1l-6 -1v-1l-1 1zM403 4306v-1h-1v1h1zM385 4305h-5v-1l2 -1v1l2 -1h4l-1 2l-2 -1v1zM366 4310l-3 -2h-1v-1h2v-1l2 1v-1h4l-2 2l-2 2zM372 4304l-8 -1l-1 -1l1 -1l8 2v1zM260 4178h-2v-1l-2 1v-2h-2v-2l2 -1v1v1l2 -1l1 2l1 2zM264 4176l-2 -1v-2h2l4 -1v1h-2l-1 1v2h-1zM277 4171v-1h-1v1h1zM274 4172l1 -1h-3v1h2zM271 4172l-1 -1v-1h4v-1h2v-1h2v4l-4 1h-3l1 -1h-1zM270 4169v-1l2 -1v1l2 -1l2 1h-2v1h-4z"/><path class="chunk" data-i="9" d="M252 4170h-2l-1 -2l1 -1h2v1h-1l1 1h1l-1 1zM259 4165v-1h-1v1h1zM261 4166v-1h-1v1h1zM261 4168v-1h-1v1h1zM251 4172v-1l8 -2v-3l-1 -1h-4v-1h3l5 -2h2l2 1l-1 3v2l-12 4l-1 2v-2h-1zM282 4122h-4v-1l-2 1v-1l-5 -1l-8 -2l-3 -1l-2 -3h-2v-2l-3 -2l-1 -6h-1l1 -2h-1v-2l1 -2h-1l1 -2l1 -4l2 -2l3 -3l9 -7l3 -1l10 -1l2 -1v1l4 1l5 5v1l2 3v2l1 10l-1 2h1v2h-1l1 2v2h-2l1 2h-1h-1l1 2v1h-2v1h1l-1 2l-4 4v-1l-1 1l-1 1v-1l-2 2zM246 4317h-12v1h-1v-2h-1l-2 1v-1h-10v-1h14v1l2 -1v1h11l-1 1zM248 4313h-7v2h-1l-1 -1h1v-1h-2v1v1l-1 -1v-1h-4v-1l1 -1v1l2 -1v1h13l-1 1zM220 4287l-6 1v-1l5 -1l6 -1l-1 1l-4 1zM224 4284l-2 -1h-1l1 -1l4 -1l1 1l-1 1h-2v1zM233 4280h1v-1h2v1h1l-1 1l-2 1h-1v-2zM234 4284v1h-5v-2l-1 -3v-1l2 1h2v2h-2v2l2 -1v1h2zM214 4279h-9l1 -1h6l2 -1l1 1l-1 1z"/><path class="chunk" data-i="10" d="M241 4279v-1h-1v1h1zM236 4279v-1h-17l1 -1l17 -1v2h1v-2l6 1v-1h1v2h1v-2h4l-1 -2h1l5 1h2v3l-1 2l-7 1v-2h-6v1l-1 1v-1h-2l-2 1l-1 -1l-1 -1zM251 4280v-1h-1v1h1zM193 4253v-1l3 1h2v1h-3l-1 -1h-1zM187 4247h3l1 1l-1 1l-6 1v1h2v1h-3v-2l1 -2h-2h-1l1 -1h3l1 1l1 -1zM201 4236l-1 1l-2 -2l-1 1v2h-1v-1h-4v-1h2l7 -4h2v2l-2 1l-1 1h1zM207 4215v-1l11 -4l4 -2h3l-1 1h-1l-7 3v2l-2 -1h-1l-3 1l-3 1zM188 4260h-2v2l-2 -1l-2 1l-2 1l-1 -1v-2l1 1l2 -1l2 -1v1l2 -1h2v1zM176 4259l1 -1h-1l-1 1h1zM174 4260v-1h-2l-1 1h3zM169 4261v-1h-1v1h1zM164 4262l1 -1h-1l-1 1h1zM162 4263v-1h-1v1h1zM159 4264v-1l1 -1v-1l18 -5h4l2 1v1l-5 1v1h-3h-1v1l-8 1v1h-5v1h-3zM181 4258v-1h-1v1h1zM174 4249v-1h-2v1h2zM175 4250v-1h-1v1h1zM186 4241v-1h-1v1h1zM183 4241h1l2 -3h2v2h2v1l-6 1v2l-2 -1v1v1h-2v-1h-1v2h-3v1l-2 -1v2h4l2 2v-2l2 2v1l-17 1v-4h1l2 -2h2l7 -3l3 -1v1l1 -1l1 -1v1l1 -1zM244 4200v-2h-4v1l4 1zM238 4200v-1h-1v1h1zM240 4201l1 -1h-1l-1 1h1zM241 4204v-1h-1v1h1zM233 4207h-3l-2 1h-3l2 -1l3 -1l2 -2h2l3 -2h1l1 -1h-5v-1h-4v-1h2v-1l2 1v-1l10 -1l2 -1v1l2 -1h4v-1h-2v-1h4l2 2v-1l1 1l-1 2h1v2h-1v-1h-2l-5 2l-3 1l-2 2l-4 1v-1h-1v2h-2v-2h-1l-2 2h-1v1zM249 4198v-1h-1v1h1zM246 4199v-1h-1v1h1zM249 4201v-1h-1v1h1zM246 4202v-1h-2v1h2zM226 4194h1v-1h1v1v1h-2v-1z"/><path class="chunk" data-i="11" d="M226 4190v-1h2v-1l2 1v-1h2v2v1l2 -1l-1 -2h1h1v2h1h2v1h-2l-2 2l-2 -1v2l-4 -1v-1l-2 -2zM231 4191v-1h-1v1h1zM230 4192v-1h-1v1h1zM231 4193v-1h-1v1h1zM226 4188h-3h-3h-4v-1h3v-1l1 -1v1l4 1h2v1zM214 4187l-2 -1v-1l4 -1h2l-2 2l-2 1zM242 4188v-1h-2v1h2zM258 4181l1 1v2l-1 1l-2 1h-5h-3v1l-2 -1v2h-2v-1l-1 1v1h-2l-3 1v-2h-3v-1l9 -2h1l-1 -1h-2v-1h4v1h1v-2h5l2 -3l4 1h-1l1 1zM254 4184v-2l-2 1h-2v1h4zM245 4187v-1h-1v1h1zM228 4188l-2 -2v-2l1 -4h1h1l-1 2h2l1 2h-1v1h2v1l-2 1h-1v-1v-1l-1 1v2zM229 4184v-1h-1v1h1zM237 4179h4l1 3v1l-2 -1v-2h-2l-3 1v1l-1 1v-1h-2v-1h2l2 -2v1l1 -1zM248 4175v-1h-1v1h1zM249 4177l-1 1l-2 1v-1l1 -2l-1 -1h-2l-4 1v-1l3 -1l5 -1l3 -1l-1 2h-1v2h-1v1h1zM309 4026h-2l-1 5h-2l-7 1v2h-3v-2l-2 -2v-6l2 -2v-1l5 -2h2l10 2v4l-2 1zM254 4021l-5 -1h-2v-2v-4v-2l1 -1l3 -1l3 1h2l1 1v6l-3 3zM-211 3996v-1h-1v1h1zM-212 3997v-1h-1v1h1zM-213 3998v-1h-1v1h1zM-219 4003v-1h-1v1h1zM-221 4004v-1h-1v1h1zM-202 3989h2v-1h-2v-1h-1v1h1v1l-1 1h1v-1zM313 4152l11 -4l7 -2l3 -1l2 -2l1 -1l15 -9l2 -1l10 -10l2 -2l2 -4l2 -2l2 -5v-4l2 -45h1l-1 -2h1l-1 -2h1l-1 -10l-8 -23l-3 -3l-13 -17l-2 -3l-10 -13l-2 -3h-2l-1 -2v-1l-13 -8l-4 -3l-7 -2l-4 -2l-13 -1l-1 1l3 2l-2 2l-2 -2h-1l-2 -1l-3 -1h-9l-4 1l-3 1l-2 3h-2v1l-2 -2l2 -2v-1l-5 1l-28 10l-9 8l-7 6l-1 3l-3 3l-5 9v1l-2 2v2l-2 2v2l-4 10l-1 3l-3 13l-1 6v19l2 17l1 3l2 5l1 2l14 20l1 1h2l2 3v2h2l1 2l1 3l8 5v2l2 1l4 4h4v2h3v2l4 1h2v2l5 1l4 3v-1l4 3l2 1v-1l2 1h1l3 1l3 1l5 1l35 -2zM291 3965v-1h-1v1h1zM265 3967v-1h-1v1h1zM-235 4021v-1h-1v1h1zM-237 4023v-1h-1v1h1zM136 4151v-1h-1v1h1zM130 4153v-1h-1v1h1zM186 4204l1 -2l1 -1v-2l1 -3l-2 -2l3 -3l4 -1l10 -18l4 -8l1 -2h-1v-1h2l4 -5l1 -2l-1 -1h-2v1l-1 1v-1l-1 -1v1l-1 1v-1v-1h-3l-44 6l-2 1v-1l-20 1h-1l3 4l2 3h2l2 3l12 12l3 2v2l1 1l12 9l6 4l4 4zM144 4180v-1h-1v1h1zM-1 4249v-1h-1v1h1zM154 4252l1 -2l1 -2l6 -8l1 -2l2 -2l-1 -1l-24 -7h-6l-18 -6h-2h-1l1 2l1 2l3 6l14 14h2l4 4l16 2zM170 4230v-1h-2v1h2zM175 4234v-1h-1v1h1zM148 4259l1 -1l-1 -1h-2v1l2 1zM-490 4314v-1h-1v1h1zM-494 4316v-1h-1v1h1zM-496 4317v-1h-1v1h1zM-494 4319v-1h-1v1h1zM-496 4320v-1h-1v1h1zM-503 4321v-1h-1v1h1zM-498 4321v-1h-1v1h1zM-505 4322v-1h-1v1h1zM-500 4322v-1h-1v1h1zM-508 4324v-1h-1v1h1zM-401 4292v-1h-1v1h1zM-399 4292v-1h-1v1h1zM-411 4294v-1h-1v1h1zM-347 4284v-1h-1v1h1zM-345 4284v-1h-1v1h1zM-357 4285v-1h-1v1h1zM-251 4284v-1h-1v1h1zM-238 4296l1 2l1 1v-1l2 2v1l5 7l5 4h1l5 4l4 1l2 1l2 2h2l6 4l12 8l8 3l11 4l7 3l27 6l4 -1l3 1l2 -1v1l2 -1l9 -1l33 -7h2l11 -4l13 -5l7 -4l6 -3v-2l5 -3l3 -2v-2h1l2 -2l14 -17l6 -10l3 -9l9 -23v-4h-4v-1l-2 1v-1h-2l-1 -2v-2l1 -1h4l2 -1v1h4l2 -1l1 -3l3 -10l4 -15l6 -52h-1l1 -2h-1l-1 -5l-12 -54l-10 -26l-20 -33l-2 -3l-18 -21l-4 -5h-2v-1l-2 -2l-6 -4l-2 -1v-2l-2 -1l-12 -7l-12 -7l-9 -3l-16 -6l-13 -5h-2v-1l-2 1v-1h-2v-1l-2 1v-1v-1l-2 1h-2v-2l-2 1l-4 -1v-1l-2 1l-14 -2v1l-2 -1v1h-4v1l-2 -1l-2 2l-2 1l-4 1v3l-1 1l-1 -2l-2 1v1l-1 2l-7 4l-3 3v2l-3 2l-2 1v-1h-4l-2 2h-1l-2 -1v1h-1v1h-2v2h1l-1 2h-2v2l-2 1l-7 4v2l-3 2l-4 4v2l-4 1v1h1l-2 2l-14 18l-9 14l-7 12l-15 30l-2 7l-11 35l-3 17l-1 17h1l-1 2h1v2h-1l1 2l7 42h1l-1 2l2 2l1 2v2l4 7l1 2l1 3l2 2l1 4l2 2v2l3 2v2l3 5l1 3l1 2l2 2l-1 2h1l-1 2h1v2l1 1h6l2 -1l2 2v4l-4 2l-1 1h1h1v1h-1v1h1v1h1l2 1l2 1v2h-1l1 1v1h1l1 1v-1l2 2v2h2h1l-1 2h3v1l-1 1h1l1 1v1h1l1 1v-1zM142 4268v-1h-1v1h1zM140 4269v-1h-1v1h1zM138 4270v-1h-2v1h2zM159 4270v-1h-1v1h1zM171 4270v-1h-1v1h1zM135 4271v-1h-1v1h1zM141 4271v-1h-1v1h1zM162 4271v-1h-2v1h2zM164 4272h1l-1 -2h-1v2h1zM138 4272v-1h-2v1h2zM135 4273v-1h-1v1h1zM139 4273v-1h-1v1h1zM151 4275h1l1 -1l-3 -2v2l-2 2l3 -1zM134 4274v-1h-1v1h1zM140 4275v-1h-2v1h2zM136 4276v-1h-2v1h2zM156 4278l-2 -2l-1 2h1h2zM152 4278v-1h-1v1h1zM147 4281v-1l-1 -1v1l1 1zM152 4282l-1 -2h1l1 -1h-5v1l2 2h2zM158 4282v-1h2v-1h-2l-2 -1l-3 1v2h1v-1l4 1zM156 4298v-1h4v-1l2 1v-1l8 1l1 -1h-3v-2l2 1l2 1h2v-2h-2l-1 -1h1l1 -1l-9 -8h-1l-19 -1l-2 1l1 4l3 3l10 7zM175 4294v-1h-1v1h1zM163 4298v-1h-1v1h1zM191 4315l-1 -3l-6 -8l-1 -2l-3 -2h-1v-2l-1 -1l-2 1h-4l-1 1h7v1l-12 -1v2h-4v1l5 2l10 5h1l2 2l3 1l6 2l2 1zM-535 4343v-1h-1v1h1zM-538 4345v-1h-1v1h1zM-539 4346v-1h-1v1h1zM-551 4350v-1h-1v1h1zM-553 4351v-1h-1v1h1zM-555 4352v-1h-1v1h1zM113 4365v-1h-1v1h1zM217 4118v-1h-1v1h1zM229 4141v-1h-1v1h1zM221 4156v-1h-1v1h1zM203 4190v-1h-1v1h1zM192 4193v-1h-2v1h2zM224 4193l1 -1h-1l-1 1h1zM220 4194l1 -1h-1l-1 1h1zM223 4194v-1h-1v1h1zM190 4195v-1h-1v1h1zM218 4195l1 -1h-1l-1 1h1zM215 4196v-1h-1v1h1zM216 4198v-1h-2v1h2zM212 4199l1 -1h-1l-1 1h1zM210 4200v-1h-1v1h1zM208 4201v-1h-2v1h2zM205 4202v-1h-1v1h1zM195 4203v-1h-1v1h1zM202 4203v-1h-2v1h2zM222 4203v-1h-1v1h1zM194 4204v-1h-1v1h1zM199 4204v-1h-1v1h1zM196 4205l1 -1h-1l-1 1h1zM201 4206v-1h-1v1h1zM204 4207v-1h-1v1h1zM230 4245v-1v-1h-2v-1h-1v2l3 1zM225 4247v-1h-1v1h1zM219 4249v-1h-1v1h1zM202 4264v-1h-1v1h1zM231 4296v-1h-1v1h1zM246 4296v-1h-4v1v1l2 -1h2zM240 4297l1 -1h-7v1h6zM234 4298v-1h-6l-1 1h7zM215 4299v-1h-1v1h1zM226 4299l1 -1h-5l-1 1h5zM210 4300v-1h-2v1h2zM220 4300v-1h-2v1h2zM204 4301v-1h-1v1h1zM212 4301v-1h-1v1h1zM215 4301v-1h-1v1h1zM201 4302v-1h-1v1h1zM206 4302v-1h-1v1h1zM198 4303v-1h-1v1h1zM202 4303l1 -1h-1l-1 1h1zM194 4304v-1h-1v1h1zM196 4305v-1h-1v1h1zM204 4306v-2h-2l2 2zM200 4306v-1h-1v1h1zM197 4308v-1h-1v1h1zM199 4308h-1l-2 2l5 4v2h1l1 -2l1 -2l15 -4h5v-2h-2l-2 1v-1l-2 1v-1h-1v2l-11 1h-2v-1l-1 -1v1l-1 1l-1 -1l-2 -1v1zM206 4308v-1h-1v1h1zM227 4310v-1h-1v1h1zM220 4311v-1h-1v1h1zM212 4312v-1h-2v1h2zM215 4312v-1h-1v1h1zM209 4313v-1h-1v1h1zM213 4313v-1h-1v1h1zM209 4315v-1h-1v1h1zM214 4315v-1h-2v1h2zM192 4316v-1h-1v1h1zM208 4316v-1h-1v1h1zM212 4316v-1h-2v1h2zM213 4317v-1h-1v1h1zM223 4340l12 -4h3l1 -1l-5 -1l-16 -4h-2l-3 -1l1 3l2 2l1 2l3 4h3zM348 4211v-1l3 -2l11 -8v-2h2v-2l5 -4l-1 -2l-11 -2l-8 -2h-5l-2 -1v1v4l5 20l1 1zM252 4293v-1h-1v1h1zM256 4294v-1h-1v1h1zM250 4295l1 -1h-1l-1 1h1zM253 4295v-1h-1v1h1zM248 4296v-1h-1v1h1zM265 4311l5 1l2 2v2l-2 2h-1l1 1l20 -1l2 -2l3 -1l30 -11l8 -4l6 -4l1 -1h1l-1 -1h-4l-10 3l-2 2h-4v-1l2 -2h1l5 -2l12 -3v-5l-6 -1l-3 -3l1 -1l7 1l-1 -3v-3h-2l-2 -2l2 -2l3 -1l1 -22l2 -21h1l-1 -2v-1l-2 2l-2 1l-46 31l-2 1l-2 2v2h-4v-2h-5v-6l3 -2l2 -2l5 -1v-2l3 -1l13 -8h1l4 -3h2l4 -4l2 -1l20 -14h2l1 -2l-1 -4l-2 -7l-2 -21h-2v-2h-2v-2l2 -1h2l1 -23l3 -3l4 -1h1l-1 2v1h-3l-1 4v19l2 2l32 3l2 2h2v1h-1l2 2l-1 6v2h-2v2l-4 3v-1h-1v2l-3 2h-1v2l-3 3l-3 1l-9 8l-3 2v2h-1l1 2l-1 11l-2 17l-1 2h1l-1 2v12l1 1v-1h2l5 -2l6 -2l7 -3h2v-1l2 1v-1l2 1h4v-1l2 1l8 1l1 2v2h1l-1 2l-1 3v1l-4 4l-2 2l3 2l-1 4l-2 1l-4 1l-2 2l-2 2l61 15l4 1l98 34h3l2 2l2 1l34 13l23 10l13 4l2 2l4 1l1 1v3h-1l-2 1v-1l-7 -3l-11 -4l-7 -2l-109 -44l-4 -1l-4 -1l-33 -10l-18 -6l-57 -13v-1l-2 1l-2 1l-11 5h-1l-2 1v6l4 17l6 17l1 4l-3 3l-4 -1l-2 2h-4l-6 2v1l-2 -1v1l-2 -2l-3 1l-4 -1l-11 2l-2 -1v1l-2 -1h-6l-2 -1v1h-10v-2v-1l-2 2l-5 -1h-4l-5 -2l-28 -8h-4l-24 6v4l2 2l2 2l2 2l2 4l1 4l-1 2h-2v1l-2 -1l-2 2l-12 4l-5 2l-8 3l-3 1l-2 2l-4 2l-2 2h-2l-1 2v2l-1 1h-6l-1 -1l-1 -4l2 -3l2 -1l8 -4h2l2 -3l4 -1l2 -2h2l2 -2h2l2 -2h2l10 -4l3 -1l-1 -3l-4 -6l-1 -3l-5 1l-53 12l-25 6l-6 2h-4h-6h-2l-2 -3l-1 1l1 5l3 17l2 2l3 3h2l2 1v2l-2 2h-2h-4l-4 -1v-2l-2 -2v-1l-2 -2l-4 -30h-1l1 -2h-1l1 -4v-2h4v-1l1 1l5 6l4 4l12 -2l61 -14l19 -4l-2 -3l-10 -15l-4 -1l-7 -2l-3 -1l-2 -2l-2 -1l-10 -4l-4 -1l-2 -2l-3 -1l-9 -4l-2 -1l-2 -2l-3 -2l-8 -5l-3 -6l-1 -3l-1 -6l4 -4l-10 1l-1 -1l1 -2l2 -4l2 1v-1v-1l2 1l2 -2l3 -1l4 -1v-2l-7 -6l-2 -2h-6v-1l-2 1l-10 -1v-1l-2 1v-1l-64 -3v-1l-2 1v-1l-44 -1l-6 19l-4 11l-2 7l-1 2l-2 2l-1 2l-7 12l-11 14l-15 12l-11 5l-5 3l-18 6l-13 4l-2 1v-1l-2 1l-27 4h-16l-12 -1l-34 -10l-7 -2l-4 -3l-7 -5l-5 -2l-2 -2h-2l-2 -2l-4 -1l-2 -2l-1 -1l-9 -4l-7 -8l-2 -4l-1 -1l-6 -4l-8 -7l-13 -17h-2l-5 1l-2 1v-1l-2 1h-4l-2 1v-1h-2v1l-2 -1l-10 1v1l-2 -1l-16 2v1l-2 -1l-2 1h-2l-7 1h-3l-28 3l-2 1v-1l-2 1l-7 1l-57 11v1l-2 -1v1l-4 1l-25 6l-7 2l-12 4l-9 5h-1l-2 2l-3 1l-10 4l-5 3l-2 2l-2 1h-2l-4 3l-2 2h-2l-2 2l-2 1l-8 4l-8 5v2l-5 3l-7 2l-4 2l-2 1l-2 2h-2l-4 3h-2l-2 3l-10 5l-7 4l-3 1v-1h-2v-1l4 -1l2 -2h2l2 -2h1l2 -2h1l2 -2v-2h1v2h1l2 -2h1v-2l2 -1h1v-1h2h1v-1h1l1 -1h1l3 -2v-2h-1v-1h2v2h2v-1l-1 -1l1 -1h-1v-1l2 -1l4 -1l3 -1l2 -2l8 -6l2 -1l2 -3h2l2 -2h2l20 -12l17 -10l10 -4l8 -4h1l2 -1v1l2 -1h1l3 -1l2 -1l2 -1v1l2 -1h3l7 -2l6 -1v-1l2 1v-1l6 -1l2 1l2 -2v1l2 -1h5l17 -4v-1l2 1v-1l5 -1h4l6 -2l23 -4l4 -1l2 -1v1l2 -1h6v-1l2 1v-1h4l2 -1v1h2l2 -1v1l2 -1h8l54 -6v-1l2 1v-1h5l-1 -2l-4 -11l-14 -26l-1 -2l-2 -2l-1 -2l-1 -4l-6 -21v-1l-1 -2h1l-3 -14h1l-1 -2l-1 -6l1 -4l-1 -3v-18l1 -8l4 -13l5 -15l1 -4l7 -19l1 -2l10 -20l1 -2l2 -2v-2l3 -2v-2l2 -2v-2l2 -2v-2l2 -2l2 -4l6 -7l5 -9l9 -11h2v-2h2l4 -7l2 -1l2 -1v-2l4 -3l2 -2l14 -11h2l2 -1l2 -2h1v-1l1 -1h2l2 1v-2l12 -12l3 -2l3 -2l7 -3l3 -1l5 -1l12 -1l12 2l19 6l26 9l10 4l2 1l2 2h2l8 5l18 12l2 1l12 12v3h2l2 3l8 11l5 5l17 30l3 2l1 3l6 13l16 62v6l-2 48l-1 2h1l-1 2l-1 4l-2 13l-2 7l-4 10l-1 3l109 5l2 1v-1l2 1h6v-1l-2 -1l-3 -3l-3 -3l-4 -3v-2h-2l-2 -2l-3 -7l-1 -3v-7v-3h2l4 -1l2 2l4 1l8 2l12 4l21 4l5 2h4h2l2 -2l1 -2l7 -10v-2l-2 -2l-4 -2l-8 -7l-18 -16l-2 -1v-2l-2 -1l-2 -1v-3h-2v-2h-2v-2h-2l-1 -3l-3 -3l-1 -3l-2 -2h1v-1h-2v-1h1l-1 -2v-1v-3v-2l2 -2h2l2 -1v1l2 -1l2 2l1 -1v-1l1 1v1l1 -1v-1l1 1v1h4l2 -2l2 1v-1l2 1v-1h6v1l2 -1v1l2 -1v1l6 -1h9h1l2 1v-1l24 -3l2 -1v1l2 -1h6l2 2l4 1l1 -2l3 -5l2 -2v-1l-2 -2l-8 -8v-1h-2l-20 -27l-4 -5l-2 -8l-2 -4l-2 -23h-1l1 -2h-1l1 -2h-1l1 -2l1 -11l1 -9h1l-1 -2h1l2 -6l3 -7l6 -15l7 -12l7 -7h2l10 -11l3 -1l39 -12l12 -2l19 1l11 2l4 1l5 2l3 1l14 9l8 9l2 2l14 20l10 12l4 5l6 16v3l1 5l1 49l-1 2h1l-1 2v4l-1 2h1l-1 2v1l-4 8l-3 5l-8 11l-6 3v2h-3l-2 2l-16 10l-10 4l-4 1h-2l-22 5h-21l-13 -2l-3 -1l-14 -7h-1l-2 2h-1v-2h1l-2 -2h-1l-2 -2l-5 -3l-2 1v2l-2 -2l2 -2l-2 -1l-4 3v2l-2 2v2l-2 2v4l-2 2v-1l-3 3l-1 2l-2 4l-6 13l-1 1l-1 2h1l-1 1h-1l1 1h1l-1 1h-2v1l-1 2l1 1l1 -1v-1h1l2 1l2 -2h1l3 2h2l1 2h-1h-1l-2 -1l-3 -1v2l-1 1v-1v-1h-1l-3 2l-2 -1v1l-1 1h1l-1 1l-2 -1l-1 2h1l4 -1l2 1h2v1l-8 1l-2 -1l-1 1l-1 4h-1l1 2h2l-1 -2h1h1v2h1v-1l2 -1h2l4 -2h2l2 -1v-1h-1l1 -1l1 -1h-3h-1l1 -2l2 1v-1h2v2l2 1v-1l-1 -3l4 -1h1l2 1v-1l2 1v-1v-1l2 1v2h1v1h-1v1h-1l1 1v1h-2v-1l-1 1l-1 1l-1 -1l-2 -1v1h-1h-1l1 2l-2 1l-2 1l-10 3h-1l1 1l10 -1v-1l2 1v-1l10 -1l-2 1l-1 1h1l1 1h-1l-3 -1h-1l-1 1h1v1h-3h-5h-2v-1l-2 1h-2v1h2l1 1l-12 1h-1l-2 -1v1v1l2 1l11 5l1 1h2v2h2l6 7h2l1 1h-1v1h3v2l4 1v2l12 5h1l2 -1v2l5 2l3 1l2 3l1 2h-1l1 2l-1 2l-2 3h-2l-2 1v-1h-2l-2 -1v-2h-2l-2 -3h-2l-2 -2h-2l-3 1l-3 1v1h1l-1 1l-2 -1v2l-2 -1h-1v1l-1 1v-1l-2 1l-2 1v-1h-2l-2 3l-2 -1h-1v2h-1l-2 -1v2l-2 -1l-2 1h-2l-2 1v1l-2 -1l-4 1l-2 2h-1l-1 -1v-4h-2v1h1l-1 1l-4 -1l3 -2h4l4 -1v1h1h1h-3h-2l-1 4h1v-1l8 -1l2 -2h4l2 -2v1l4 -1l2 -2v1l1 -1v-1h1l2 1v-2h2l-1 -2h1l2 2h1v-2h1v2h1v-2l1 -1l4 1l-3 -4h1v-1l-2 -1h-3h-1h-1l1 -2l-2 -1l-1 -1l-6 -3h-7v-2h4l1 -1h-3v-1l1 -1h-1l-2 -2l-6 -4h-2l-4 -1l-1 -1h1l-2 -2l-2 -1l-2 -1l-3 4l-2 4h1v-1h2l1 1h-1l-4 1l-1 1l1 2l-2 1l-2 1v2l6 1v-1h-1l1 -1h3l1 1v-1l4 -1v1l1 -1v-1h2v1l-1 2h-4v2h-4v-1l-1 1l-1 1v-1l-2 1v-1h-2v-1l-1 1h-1h-1l1 2h-2l2 2v2l-2 1l-2 -1l-2 -1v1l-3 4v1l-1 2l-1 1h-1v4l-1 -2h-1l-1 2l-1 2h2v4h-2v1l-2 -1l-3 2v2h4v1h-1l-1 1h1h1l-3 1v-1v-1l-2 1l2 2h1v2h1v-2h4l3 -2h1l1 -1h5v-1l2 1l1 -2h1l2 1h1l-1 2l-2 -1l-2 2l-2 -1v1l-12 2l-1 1l1 1l30 -5l11 -2l8 -1v3l-1 2l-26 3v-1h-1v2l-5 -1v1v1l-2 -1h-1l1 2h-2v-1l-2 1v-1l-1 1h-1l-2 2l-2 -1h-2v1h2l2 3h4l2 -1v1l2 -1v1l2 -1v2h-6h-1l1 2h6l2 1v-1h1v2h-5l10 10h1l3 1v-1v-1l2 1l22 -5l2 1v1l-4 1l-24 5v1l2 2h2v2l2 3l2 -1h2l12 -4l12 -1v-1h-1l1 -1h2v1l2 -1h2v1v1l1 -1l1 -2h8v1l1 -1v-1h6v-2h13l1 1v2l-1 2l-50 7l-1 1v2h3v-1l2 1l2 -2v1h10v-1l2 1h2v-1l2 1v-1l20 -1v-1l2 1v-1l2 1v-1l2 1l6 -1l2 2l-2 2l-10 1l-2 1v-1l-4 1l-2 1v-1l-8 1l-2 1v-2h-1v2h-1l-2 1v-1l-2 1l-9 1l1 1h5l-1 1h-7v2h1v-1l2 1l2 1h1l-1 1h-2l-2 -1v1l-4 -1h-2l-3 1v-2h-2l-1 1l-1 1l5 4h2l7 3h2l28 7h4l6 -2l7 -2l2 -1l2 -1v-1h-16l-2 1v-1h-4l-1 -1l-1 -2v-2l1 -2h5v-1h-2v-1h2l2 1v-1h4v-1h-2l-2 -2h-2v-1l14 -1v1l1 -1zM260 4314v-1h-2l-1 1h3zM262 4314v-1h-1v1h1zM271 4314v-1h-1v1h1zM257 4315v-1h-1v1h1zM262 4316l1 -1h-3v1h2zM258 4318v-2h-1v1l1 1zM260 4317v-1h-1v1h1zM266 4317v-1h-1v1h1zM256 4318v-1h-2v1h2zM251 4319v-1h-1v1h1zM253 4319v-1h-1v1h1zM256 4324v-1h-2v1h2zM258 4324v-1h-1v1h1zM260 4324v-1h-1v1h1zM264 4324l1 -1h-3l-1 1h3zM267 4324v-1h-1v1h1zM273 4324v-1h-1v1h1zM287 4325v-1h-1v1h1zM294 4326v-1h-1v1h1zM332 4344l2 -2h-1v-2h1l-1 -2h1v-1h-3v1l-1 1l-2 -2h-6l-2 1v-1h-4l-2 1v-1l-2 1l-9 -1v-1l1 -2h-1l1 -2l-16 -1l-2 -1v-2l2 -1l1 -1l-9 1l-7 3h-1l-2 2l-2 -1v1h-2l-3 2h-1h-1l1 2h4l24 7l5 -1l3 1l2 -1v1l28 1l2 -1v1l2 -1v1zM297 4328v-1h-1v1h1zM299 4328v-1h-1v1h1zM304 4330v-2h-2l2 2zM306 4329v-1h-1v1h1zM302 4330v-1h-2l-1 1h3zM354 4286l2 -1l2 -1l2 -2l9 -10l-1 -1l-17 3l-3 2h-2l-1 2l1 4v2h4l4 2zM371 4276v-1h-1v1h1zM348 4289l1 -1h-3v1h2zM318 4312v-1h-1v1h1zM328 4327v-1h-2v1h2zM328 4329v-1h-2v-1l-1 1v1h3zM331 4328v-1h-1v1h1zM330 4329v-1h-1v1h1zM328 4331l1 -1h-1l-1 1h1zM376 4271l2 -1v-1l-2 1v1zM308 4335v-1h-1v1h1zM318 4336l2 -2l-2 1v1zM316 4336v-1h-2v1h2zM333 4335h5v1l2 -1h4v1h-1v2h-2v2h-3l-1 2h1l5 -1l7 -1l-1 -5l-5 -25l-1 -7l-3 1h-2l-5 4h-1l-7 6v2l-3 3l-5 -1v-6h-2l-18 8h-1h-1l1 2h2h2h2v1l2 -1v1l4 1h2l-1 2l2 2h-1h-2v-1l-1 1v1h3v1l2 -1l2 1v-2l2 1v-1h2h4h2l1 -2h-1h-6v-1h12l3 3v2l-1 1l-6 1l-2 -2v1h-2l-6 -1l-5 1v1l-5 -1l-1 1h1l2 2h1l3 1l1 -1h2v-2h1v1h1l1 1v-1h4v1h-1v2h1v-1h2v1l2 -1l3 1h2l1 -1v1l1 -1zM311 4337v-1h-1v1h1zM336 4343l1 -1h-1l-1 1h1z"/></g><g class="f live" data-r data-f="0" fill="var(--live,#000)" fill-rule="evenodd"><path class="chunk" data-i="0" d="M-208 3993l1 -1h2l-3 3h-1v-1h1v-1zM-202 3862h-5l-18 5l-15 5l-12 4l-6 3l-3 1v-2l1 -2h2l6 -4l14 -7l2 -1l2 -2l3 -1l12 -3l6 -2h4l6 -2h4l16 -3h8h1l2 1v2l2 2v2l-2 2l-4 -1l-2 -1v1l-2 -1l-22 4zM-204 3824l-9 2l-17 4l-34 12h-4l-2 -2h-1v-2l3 -2h2l55 -18l35 -7l2 -1v1h2l3 3l-1 2l1 2h-1l1 2l-3 2h-3v-2h-7l-2 1v-1l-20 4zM-230 3971l-4 1l-2 -2v-2l-4 -10l-2 -4l-1 -2l-2 -2l-1 -4v-2l-3 -8v-2l-1 -2l-2 -2v-2l-1 -2l-1 -4h2l-2 -2l-8 2l-2 2l-2 -1v1l-7 1l-4 1l-15 4l-16 2l-4 1l-2 1v-1l-5 -2l-1 -6l-6 -15l-1 -4v-2l-2 -6l-1 -2h1l-1 -2l-4 -18l-1 -2h1l-1 -2v-1l-2 -5l-1 -2l-2 -2v-3l-7 -26l-4 -27h-1l1 -2h-1v-4l3 -6l1 -2h2v-2h2l8 -4l4 -1l2 -2l2 -1l4 -2h2l2 -2v1l2 -1v1l1 -1l1 -2l4 -1l2 -2l3 -1l20 -8l1 -1l2 -2l3 -1l7 -2l7 -4l11 -4l4 -1l2 -2l6 -1l2 -2v1l2 -1l12 -4l6 -3l2 -1l2 -2l4 -1l2 -2l6 -1v-2h4l2 -2v1l2 -1h1l2 -1l4 -1l3 -1l2 -2h2l26 -11h2l2 -1h10l2 1l2 16l1 2h-1l1 2l1 7l2 14l-1 4l3 14l3 11l13 40l1 2l2 2v4l2 2v1l5 11v2l2 2l3 7l1 3l2 2h-1l1 2v2l2 5l2 4l1 1l3 4v2l-2 3h-2l-2 1v-1l-16 2l-7 1l-12 2l-63 17v1l-2 -1v1l-6 2l-17 6l-7 57v2h-2zM-150 3720l-1 -2l-1 -1v1l-2 -1v1l-3 1l-4 1l-4 2l-13 4l-2 1l-2 2l-2 1l-4 1l-7 3l-32 14l-19 8h-2l-2 2l-4 1l-7 2l-3 1l-2 2v-1l-1 1v1h-1l-2 2l-2 -1v2l-3 1l-4 1l-3 1l-2 2h-1l-26 12l-3 1l-2 2l-3 1l-6 3l-5 2l-5 2l-3 1l-2 2l-2 1l1 13l3 26l4 11l6 16l2 7l6 26v3h1l-1 2l2 2v2l2 3v3l2 2v1l1 2l1 3l2 2h-1l1 1l20 -3l6 -2v1l1 -1v-1l5 -1v1l1 -1v-1l4 -1l17 -5l8 -1l1 2l1 3v5v2h-2l-1 2l3 2l2 5l2 6l8 16v2h2l2 -28l1 -9l-1 -2h1l-1 -2v-2l2 -2v-2l4 -4l16 -5l11 -4l5 -1l19 -6l9 -2l6 -2l11 -2l15 -4h2l2 -1v1l2 -1l14 -3l8 -1v-1h-1l-1 -4l-1 -6h-1l1 -2l-2 -2v-2l-3 -2l-4 -7v-2l-2 -5l-1 -4l-1 -4l-2 -2h1l-2 -2l-1 -3l-10 -33l-6 -21l-8 -45v-6h-1l-1 -1v1z"/></g><g class="f live" data-f="1" fill="var(--live,#000)" fill-rule="evenodd"><path class="chunk" data-i="0" d="M-206 3995h1l1 -1h1l-3 3h-1v-1l1 -1zM-201 3861l-5 1l-20 4l-15 4l-8 5l-5 4l-2 1v-2l1 -2l1 -1l5 -5l11 -6l2 -1l2 -1l3 -1l13 -4l7 -1l4 -2l5 -1l4 -2l12 -3h7h2l1 2v2l1 2v1l-3 3l-3 -1l-1 -1l-1 1l-1 -1l-17 5zM-204 3825l-8 2l-14 7l-38 12l-3 -1l-3 -2l-2 -1v-1l2 -2h2l58 -18l38 -10l1 -1h1h2l2 1l-1 3v1l-1 1l1 1l-2 3h-3v-1l-8 1l-1 1l-1 -1l-22 5zM-230 3974l-4 1l-3 -2l-1 -1l-4 -11l-2 -5l-1 -3l-2 -3l-1 -5v-2l-3 -11l-1 -3l-1 -3l-2 -2l-1 -1l-1 -2v-3l2 -1l-1 -1l-10 2l-3 2v-1l-1 1l-5 2l-3 1l-11 8l-16 5l-5 1h-1h-2l-5 -2l-1 -6l-7 -17l-1 -4l-1 -3l-2 -7l-1 -1l1 -1l-1 -1l-4 -21l-1 -2l1 -1l-1 -1v-2l-3 -5v-3l-3 -2v-3l-3 -20l-2 -29l-1 -1h1l-1 -1v-3l1 -5l2 -1l1 -1v-1h2l9 -4l4 -1l2 -3l3 -1l4 -2l2 -1l2 -2h1v-1l1 1h1v-1l1 -2l3 -2l2 -2h2l19 -8l1 -1l3 -2h3l8 -4l7 -5l9 -6l3 -1l2 -2l4 -1l2 -2l1 1l1 -1l12 -3l6 -3h3l1 -2l4 -1l1 -3l5 -1v-2h3l2 -3l1 2l1 -2h2l2 -1l5 -1h4l2 -2l2 -1l26 -5l2 -1h1l10 1l2 2l5 16l1 1l-1 1h2l2 6l4 13v4l1 15v10l14 40v2l3 3v3l2 2l1 1l4 12v3l3 2l3 8l1 3l2 2l-1 1l1 1v3l3 5l2 3v1l4 2l-1 2l-3 2h-2l-1 1h-1l-16 2l-6 2l-10 3l-69 12l-1 1l-1 -2l-1 1l-7 2l-15 7l-5 62v2h-2zM-152 3724l-1 -3h-1l-1 1l-1 -2v1h-2l-4 1l-3 1l-14 2l-3 1l-2 2h-2l-5 2l-7 2l-32 13l-18 7h-2l-2 3l-2 1l-5 4h-2l-2 3l-1 -1l-1 2h-1l-2 2l-1 -1v1l-1 1l-3 1l-5 1l-3 1l-2 1l-2 1l-24 13l-2 1l-2 2l-3 1l-6 4l-6 3l-5 2l-2 1l-2 1h-1l-1 2v11l1 25l2 9l7 18l3 8l6 26v3l2 1l-2 1l3 3v2l2 4v3l3 2l1 2l1 2l1 3l2 2l-1 2h1l21 -6l4 -3v1l1 -1v-1l3 -2v1l1 -1v-1l3 -1l16 -5l8 -1l2 1l1 2v4l-1 1l-1 1l-2 1l3 3l3 5l2 7l7 21l1 2h2l3 -31v-10v-2v-1l-1 -1v-3l2 -2v-1l3 -5l15 -7l12 -2l5 -1l19 -1l10 -2l7 -1l14 -3l16 -4h2v-1l1 1l1 -1l12 -2h8l1 -1l-2 -1v-3l-2 -5l-1 -1l2 -2l-3 -2l1 -2l-4 -4l-3 -7l-1 -2l-1 -6l-2 -4l-1 -4l-3 -2l2 -1l-3 -3l-1 -2l-11 -36v-16l-12 -44l-2 -5h-1l-1 -1v1z"/></g><g class="f live" data-f="2" fill="var(--live,#000)" fill-rule="evenodd"><path class="chunk" data-i="0" d="M-212 3989h1v-1h2l-2 3h-2l1 -1v-1zM-206 3857l-5 1l-16 7l-12 6l-12 4l-8 2l-3 1v-2l2 -1h2l7 -3l14 -7l2 -1l2 -2l2 -1l9 -6l6 -2l4 -1l6 -2h4l16 -1l9 1h2l2 2l1 2l1 2l1 2l-2 2l-5 -2l-1 -1l-1 1l-1 -2l-26 1zM-202 3823l-8 2l-19 4l-31 14l-4 1l-2 -2h-1v-1l3 -3l2 -1l55 -20l28 -9l1 -1l1 1h2l2 3l-1 3l1 1l-1 1l1 1l-3 3h-4v-2h-7l-1 1v-1l-14 5zM-226 3973l-3 1l-2 -3l-1 -1l-6 -12l-3 -4l-1 -2l-3 -2l-1 -3l-1 -2l-4 -7l-1 -2l-1 -2l-2 -2v-2l-1 -2l-1 -5h1h1l-2 -2h-7l-1 2l-1 -1l-1 1l-6 -1h-4l-18 3l-16 4l-3 1v1l-1 -1l-2 -1v-5l-5 -12l-1 -4l-2 -2l-3 -6l-1 -2h1l-1 -2l-8 -19l-1 -1l1 -1l-2 -1v-1l-2 -5l-1 -3l-2 -2v-3l-5 -32l-1 -19l-1 -1l2 -1h-1l1 -4l3 -6l1 -2l1 -1v-2l2 -1l6 -5l3 -1l2 -2l3 -1l4 -2h2l2 -2l1 1l1 -1l1 1h1v-1l2 -1l5 -1l2 -2h3l16 -11l2 -1l1 -2l2 -1l6 -4l7 -4l12 -3h3l2 -2h6l2 -2l1 1l1 -1l12 -5l7 -4l3 -1l2 -2l5 -1l2 -2l6 -1v-1h3l2 -2l1 1l1 -1h1h2l3 -1h3l1 -1l2 -1l31 -11l2 -1l3 -1h12l1 2l2 18l1 1l-1 1l1 1v8l-1 11l-1 3l1 10l2 12l15 46v3l3 2v3l3 3v1l6 11l1 2l2 1l3 5l1 1l1 1l-1 1l1 1v2l1 4v4v2l2 3v4l-2 3h-1l-1 1l-1 -1l-10 2l-7 2l-13 2l-63 22l-1 1l-1 -1l-1 1l-6 1l-18 5l-4 56v2l-1 1zM-145 3722l-1 -3l-1 -1l-1 1l-1 -1l-1 2h-4l-5 3l-5 1l-16 4h-3l-2 2h-1l-3 1l-7 1l-33 15l-18 6l-3 1l-2 1h-4l-9 3h-3l-2 3l-1 -1h-1v1l-1 1l-3 2v-1l-1 1v1l-3 1l-3 3l-2 1l-1 2l-1 1l-23 11h-3l-2 2l-4 1l-6 3l-5 3l-4 4l-2 1l-2 3h-1l-1 1v10l1 23l2 14l6 18l2 8l11 27l1 2l1 1l-1 1l2 2v2l1 2v2l1 1l1 1v1v2l1 1l-1 2l20 -5l6 -1l1 1l1 -1v-1l5 -1l1 2l1 -1v-1h4l14 -5l7 -1l1 2l1 5v7v2h-1l-2 2l3 3l3 5l3 6l11 14l2 1l1 1v-26l-1 -10l-1 -2l1 -1l-1 -1v-4l2 -2v-2l5 -4l16 -3l12 -1l6 -2l22 -6l8 -3l4 -3l10 -3l17 -4h3l2 -1l1 1l1 -1l14 -5l5 -2l1 -1l-1 -1v-3v-5l-1 -1l1 -1l-2 -1v-1l-3 -2l-4 -6l-1 -2l-3 -5l-2 -4l-1 -4l-3 -2l1 -1l-2 -2l-1 -3l-12 -35l-7 -25l2 -37l-1 -7h-1v-2l-1 1v1z"/></g><g class="f jolt-f live" data-f="3" fill="var(--live,#000)" fill-rule="evenodd"><path class="chunk" data-i="0" d="M-209 3990v1l1 -1h1v1l-2 2l-1 -1l1 -1v-1zM-203 3865l-5 -1l-20 -1l-19 4l-13 6l-3 3h-2v-3l1 -1l1 -1l4 -4l15 -10h3l3 -3h2l13 -1l6 2h4l7 2h5h20h8h2l2 2v2l2 2v1l-3 3h-4l-1 -1l-2 1l-1 -1l-25 -1zM-210 3817l-10 4l-11 9l-31 12l-4 1l-3 -2h-1v-1l3 -3h3l48 -24l37 -5h1h1l2 1l2 2v3l1 1l-1 1l1 1l-2 2l-2 -1l-1 -2l-6 -2l-1 1l-1 -1l-25 3zM-230 3967h-3h-2v-1l-1 -3v-2v-2l-1 -2l-1 -3v-2l-3 -11l-1 -3l-2 -3l-3 -3l-1 -2l-2 -3l-2 -5h2v-1l-2 -1l-13 3l-2 2l-2 -1l-1 1l-9 1l-5 1l-12 2h-12h-5l-1 1l-1 -1l-5 -3l-1 -6l-3 -12v-3v-1l1 -3h-1l1 -1v-1l-4 -18l-1 -1l1 -2l-2 -1v-2l-4 -8l-2 -3l-4 -3l-1 -4l-14 -23l1 -34l-1 -1l1 -1v-1l1 -4l4 -6l2 -2h2l1 -1l2 -1l8 -3h2l2 -2h1l2 -2h1l1 -2v1l1 -1v1l1 -1v-1l1 -2l2 -1l2 -3l2 -1l25 -11h2l2 -2h2h7l6 -3l12 -2l4 -1l2 -2l7 -1l3 -3l1 2l1 -1l11 -4l4 -2l3 1l1 -2l4 1l3 -2l7 1v-2l5 1l3 -2l2 1l2 -1h2l3 -1l6 -1l5 -1l2 -3h1l21 -11l2 -1h2l11 1h2l-1 7h1l-1 1l1 1v5l-1 18l-1 6l1 17l2 10l28 46l1 2l1 1v3l2 1v1v7v2v1l2 7v2l1 2v1l1 1v3l2 4l3 4l1 1l3 2l1 3l-3 2h-2l-1 1l-2 -1l-21 3l-8 4l-8 4l-55 19v1l-1 -1l-1 2l-5 2l-19 5l-9 50l-1 1l-2 1zM-150 3721l-1 -1l-1 1l-1 -1l-1 1l-2 1l-3 2l-3 1l-8 8l-2 1l-2 3l-2 1l-4 2l-10 2l-37 8l-21 9h-3l-3 2h-4l-6 1h-2l-2 1l-1 -2v1v1h-1l-1 1l-2 -1v1h-2l-4 1h-3l-3 3h-2l-32 14h-2l-1 2h-2l-4 1l-3 1l-5 2h-2l-3 2l-2 2l-4 17l2 31l8 9l13 20l3 8l3 22v2v1l-1 1l2 1v2l1 2v3l2 2v1l1 2l1 3l2 2h-1v1h16l4 -1l1 1h1v-2l4 -1l1 1l1 -1v-1l4 -1l21 -7l8 -1l3 2l3 3l2 5v2l-1 1l-2 2l5 4l4 6l3 8l3 17l1 1l1 -1l2 -30v-11l-1 -1l1 -1l-1 -1l-1 -2l2 -1v-1l6 -3l18 -6l8 -5l4 -3l19 -6l13 -2l7 -1l9 -1l7 -6l1 -1l1 -2v1l1 -1l15 -6h10v-1l-1 -1v-3l-1 -5l-1 -1l1 -1l-1 -2v-2l-1 -3v-5v-1v-2v-2v-2l-2 -1l1 -1l-2 -1l-1 -2l-23 -44l-6 -18l-5 -47l1 -3h-1h-1z"/></g><path class="grain" fill="#000" fill-rule="evenodd" d="M-118 4010h-1v-1h1v1zM-120 4010h-1v-1h1v1zM-86 4010v-1l2 -1l-2 2zM-121 4009h-1v-1h1v1zM-86 4008h-1v-1h1v1zM-87 4006h-1v-1h1v1zM-88 4005h-1v-1h1v1zM-179 3977l-1 1l-2 -1h3zM-176 3976h-1v-1h1v1zM-149 3720l-1 1v-1h1zM301 3979h-1l-1 -1l1 -1l1 1v1zM300 3976h-1v-1h1v1zM299 3973h-1v-1h1v1zM294 3971v-1l2 -1v1l-2 1zM-622 4398h-1v-1h1v1zM-624 4397h-1v-1h1v1zM-620 4397h-2v-1l2 -1v1v1zM-625 4396h-1v-1h1v1zM-3 4365h-1v-1h1v1zM-1 4365l-1 -1v-1l1 1v1zM-4 4364h-2v-1h2v1zM-11 4364h-1v-1h1v1zM-3 4363h-1v-1h1v1zM-8 4363h-3l1 -1h3l-1 1zM-2 4362h-1v-1h1v1zM-4 4362h-1v-1h1v1zM-8 4361h-1l1 -1h1l-1 1zM-8 4354h-1v-1h1v1zM-9 4353h-1v-1h1v1zM2 4352h-1v-1h1v1zM-5 4352h-1v-1h1v1zM0 4351h-1l1 -1h1l-1 1zM-2 4350h-1l1 -1h1l-1 1zM-6 4351h-3v-2h1l2 1v1zM14 4349h-1v-1h1v1zM-3 4349h-1v-1h1v1zM23 4348h-1v-1h1v1zM21 4348h-1v-1h1v1zM19 4348h-1v-1h1v1zM12 4348h-2v-1h3l-1 1zM9 4348h-1v-1h1v1zM6 4350l-5 -1v-1l1 -1v1l4 1h1l-1 1zM22 4347h-1v-1h1v1zM17 4347h-1v-1h1v1zM-8 4348v-1l2 -1l-2 2zM24 4346h-1l1 -1h1l-1 1zM20 4346h-1l1 -1h1l-1 1zM18 4346h-1v-1h1v1zM8 4346h-1v-1h1v1zM-3 4346h-1v-1h1v1zM23 4345h-1v-1h1v1zM4 4346l-2 -2h2l1 2h-1zM24 4344h-1l1 -1h1l-1 1zM10 4344h-1l1 -1h1l-1 1zM-8 4343h-1v-1h1v1zM26 4342h-1v-1h1v1zM24 4342h-2v-1h2v1zM20 4344v-2v-1l2 1l-2 2zM19 4342h-1v-1h1v1zM-5 4342h-1v-1h1v1zM18 4341h-1v-1h1v1zM21 4340h-1v-1h1v1zM19 4340h-1v-1h1v1zM16 4340h-1v-1h1v1zM-2 4341l-2 -1v-1h2v1v1zM18 4339h-1v-1h1v1zM14 4339h-1v-1h1v1zM0 4339h-1v-1h1v1zM-11 4339h-1v-1h1v1zM17 4338h-1v-1h1v1zM12 4338h-1v-1h1v1zM6 4338h-2v-1h2v1zM2 4338h-1v-1h1v1zM-8 4338h-1v-1h1v1zM9 4337h-1v-1h1v1zM-9 4337h-1v-1h1v1zM32 4336h-2v-1h2v1zM6 4336h-1v-1h1v1zM-4 4336h-1v-1h1v1zM39 4335h-1v-1h1v1zM35 4335h-1v-1h1v1zM24 4335h-2v-1h2v1zM17 4335h-1v-1h1v1zM3 4335h-1v-1h1v1zM-6 4335h-1v-1h1v1zM38 4334h-1v-1h1v1zM28 4334h-3l1 -1h2v1zM6 4334h-1l1 -1h1l-1 1zM0 4334h-1l1 -1h1l-1 1zM40 4333h-1v-1h1v1zM4 4333h-1l1 -1h1l-1 1zM2 4333h-1v-1h1v1zM41 4332h-1v-1h1v1zM26 4332h-1v-1h1v1zM7 4332h-1v-1h1v1zM3 4332h-1v-1h1v1zM0 4332h-2v-1h3l-1 1zM-4 4332h-2v-1h3l-1 1zM-8 4332h-2v-1h2v1zM-73 4376h-1h-1l1 -2h1v2zM-75 4375h-1v-1h1v1zM-28 4374h-2v-2h2l1 2h-1zM-56 4373h-3l1 -1h3l-1 1zM-63 4373h-1v-1h1v1zM-66 4373h-2v-1h3l-1 1zM-31 4373h-3v-1l2 -1h1v2zM-34 4372h-1v-1h1v1zM-30 4371h-1v-1h1v1zM-54 4371h-1v-1h1v1zM-42 4370v-1l1 1h-1zM-44 4370h-1v-1h1v1zM-55 4370h-1v-1h1v1zM-62 4371h-2v-2h2l1 1l-1 1zM-66 4370h-5l1 -1h5l-1 1zM-72 4370h-3l1 -1h2v1zM-16 4368h-2v-1h2v1zM-46 4368h-1v-1h1v1zM-28 4367h-1v-1h1v1zM-12 4366h-5l1 -1h4v1zM-14 4364h-3l1 -1h2v1zM-18 4364h-1v-1h1v1zM-18 4361h-1v-1h1v1zM-20 4361h-4v-1h4v1zM-26 4360h-3l1 -1h3l-1 1zM-32 4360h-3l1 -1h3l-1 1zM-16 4358h-2v-1h3l-1 1zM-45 4358h-1v-1h1v1zM-48 4358h-4v-1h5l-1 1zM-53 4358h-1v-1h1v1zM-37 4357h-1v-1h1v1zM-32 4356h-4v-1h4v1zM-47 4356h-1v-1h1v1zM-21 4355h-1v-1h1v1zM-66 4355h-1v-1h1v1zM-68 4355h-1v-1h1v1zM-71 4355h-1v-1h1v1zM-26 4354h-2v-1h2v1zM-30 4354h-3l1 -1h3l-1 1zM-36 4355h-2v-1l2 -1v1v1zM-38 4354h-1v-1h1v1zM-55 4354h-1v-1h1v1zM-72 4354h-1v-1h1v1zM-74 4354h-1v-1h1v1zM-23 4354h-1l-2 -2h3v2zM-50 4353h-5l1 -1h5l-1 1zM-60 4355v-1l-1 -2h1l2 2l-2 1zM-73 4353h-1v-1h1v1zM-75 4353h-1v-1h1v1zM-14 4344h-1v-1h1v1zM-15 4342h-1v-1h1v1zM-16 4338l-1 -2h1h1v2h-1zM-14 4336l-2 -2h2h1l-1 2zM-77 4380h-1v-1h1v1zM-83 4379h-1v-1h1v1zM-84 4378h-4v-1h4v1zM-89 4378h-1v-1h1v1zM-92 4378h-2v-1h3l-1 1zM-95 4378l-1 -1v-1h1v2zM-110 4377h-1v-1h1v1zM-112 4377h-1v-1h1v1zM-117 4377h-1v-1h1v1zM-81 4376h-1v-1h1v1zM-98 4377l-1 -1l1 -1h1v1l-1 1zM-120 4376h-1l1 -1h1l-1 1zM-121 4375h-1v-1h1v1zM-124 4375h-2v-1h3l-1 1zM-128 4376l-2 -2h2h1l-1 2zM-92 4373h-1v-1h1v1zM-106 4373h-1v-1h1v1zM-107 4372h-1v-1h1v1zM-108 4373h-4l-1 -1l1 -1l2 1h2v1zM-128 4372h-3l1 -1h2v1zM-137 4372h-1v-1h1v1zM-108 4371h-1v-1h1v1zM-113 4371h-1v-1h1v1zM-76 4370h-3l1 -1h2v1zM-81 4370h-1v-1h1v1zM-119 4370h-1v-1h1v1zM-128 4370h-1v-1h1v1zM-130 4370h-2v-1h2v1zM-134 4370h-2v-1h2v1zM-83 4369h-1v-1h1v1zM-85 4369h-1v-1h1v1zM-87 4369h-1v-1h1v1zM-90 4369h-2v-1h2v1zM-97 4369h-1v-1h1v1zM-110 4370h-2v-2l2 1h1l-1 1zM-116 4368h1l-1 1v-1zM-122 4370h-5l1 -1h2l2 -1l1 2h-1zM-137 4370l-1 -1v-1h1v2zM-109 4368h-1v-1h1v1zM-112 4367v1l-1 -1h1zM-94 4367h-5l1 -1h4v1zM-104 4367h-1v-1h1v1zM-113 4367h-1v-1h1v1zM-131 4367h-1v-1h1v1zM-132 4368h-2l-1 -2h1l2 2zM-136 4367h-1v-1h1v1zM-100 4366h-1v-1h1v1zM-113 4366v-1h2l-1 2v-1h-1zM-118 4366h-1v-1h1v1zM-120 4366h-2v-1h2v1zM-124 4367h-2v-1l2 -1l1 1l-1 1zM-126 4366h-1v-1h1v1zM-135 4366h-1v-1h1v1zM-102 4367l-1 -1v-2h1v3zM-104 4365h-1v-1h1v1zM-128 4365h-1v-1h1v1zM-130 4365h-1v-1h1v1zM-132 4365h-1v-1h1v1zM-121 4363h-1v-1h1v1zM-197 4388h-1v-1h1v1zM-198 4387h-1v-1h1v1zM-200 4387l-1 -1l1 -1l1 1l-1 1zM-202 4386l-1 -1v-1h1v2zM-192 4383h-1v-1h1v1zM-196 4385l-2 -1l2 -2h1l-1 2v1zM-198 4383h-3l1 -1h2v1zM-204 4383v-1l2 -1v1l-2 1zM-198 4381h-2v-1h2v1zM-199 4379h-1v-1h1v1zM-200 4380h-2l-2 -2l4 1v1zM-196 4378h-1v-1h1v1zM-151 4376h-1v-1h1v1zM-176 4376h-1v-1h1v1zM-185 4376h-1v-1h1v1zM-152 4375h-4v-1h4v1zM-158 4375h-5l1 -1h5l-1 1zM-164 4375h-1v-1h1v1zM-166 4375h-5l1 -1h4v1zM-174 4376l-2 -2h4v1h-2v1zM-201 4375h-1v-1h1v1zM-203 4375h-1v-1h1v1zM-182 4374h-1l1 -1h1l-1 1zM-186 4374h-1v-1h1v1zM-153 4373h-1v-1h1v1zM-162 4373h-1v-1h1v1zM-165 4373h-1v-1h1v1zM-170 4373h-2v-1h3l-1 1zM-173 4373h-1v-1h1v1zM-185 4373h-1v-1h1v1zM-187 4373h-1v-1h1v1zM-168 4372h-1l1 -1h1l-1 1zM-172 4372h-1v-1h1v1zM-174 4372h-1v-1h1v1zM-179 4372h-1v-1h1v1zM-182 4372h-1v-1h1v1zM-150 4371h-1l1 -1h1l-1 1zM-152 4371h-1v-1h1v1zM-169 4371h-1v-1h1v1zM-176 4372h-2l2 -2v2zM-178 4371h-1v-1h1v1zM-180 4371h-1v-1h1v1zM-186 4371h-1l1 -1h1l-1 1zM-182 4370h-1v-1h1v1zM-184 4370h-1v-1h1v1zM-167 4369h-1v-1h1v1zM-170 4369h-2v-1h3l-1 1zM-173 4369h-1v-1h1v1zM-155 4368h-1v-1h1v1zM-158 4368h-2v-1h3l-1 1zM-162 4368h-2v-1h3l-1 1zM-166 4368h-1v-1h1v1zM-185 4368h-1v-1h1v1zM-164 4367h-2v-1h2v1zM-175 4367h-1v-1h1v1zM-178 4367h-1v-1h1v1zM-138 4366h-3l1 -1h2v1zM-154 4366h-1v-1h1v1zM-156 4366h-5l1 -1h4v1zM-162 4366h-1v-1h1v1zM-198 4366h-2v-1h2v1zM-201 4366h-1v-1h1v1zM-155 4365h-1v-1h1v1zM-140 4364h-2v-1h2v1zM-179 4364h-1v-1h1v1zM-183 4364h-1v-1h1v1zM-186 4364h-5l1 -1h4v1zM-196 4364h-1v-1h1v1zM-198 4364h-1v-1h1v1zM-155 4363h-1v-1h1v1zM-199 4363h-1v-1h1v1zM-201 4364h-1h-1l1 -2h1v2zM-174 4362h-1v-1h1v1zM-182 4362h-1l1 -1h1l-1 1zM-186 4362h-1v-1h1v1zM-190 4362h-1l1 -1h1l-1 1zM-192 4362h-1v-1h1v1zM-203 4361h-1v-1h1v1zM-200 4360h-2v-1h2v1zM-165 4359h-1v-1h1v1zM-168 4359h-5l1 -1h4v1zM-178 4359h-1v-1h1v1zM-180 4359h-1v-1h1v1zM-189 4359h-1v-1h1v1zM-192 4359h-1l1 -1h1l-1 1zM-182 4359h-6v-1h2l2 -1v1h2v1zM-198 4358h-1v-1h1v1zM-185 4357h-1v-1h1v1zM-194 4357h-1v-1h1v1zM-197 4357h-1v-1h1v1zM-174 4356h-1l1 -1h1l-1 1zM-176 4355h-2v-1h2v1zM-179 4355h-1v-1h1v1zM-194 4355h-1v-1h1v1zM-197 4355h-1v-1h1v1zM-205 4386h-1v-1h1v1zM-207 4385h-1v-1h1v1zM-214 4385h-1v-1h1v1zM-206 4384h-1v-1h1v1zM-216 4384h-1v-1h1v1zM-218 4384h-1v-1h1v1zM-222 4384h-1v-1h1v1zM-224 4384h-1v-1h1v1zM-210 4383h-2v-1h2v1zM-214 4383h-1v-1h1v1zM-217 4383h-1v-1h1v1zM-221 4383h-1v-1h1v1zM-226 4383h-1v-1h1v1zM-228 4383h-2v-1h2v1zM-231 4383h-1v-1h1v1zM-252 4383h-1v-1h1v1zM-256 4383h-1l1 -1h1l-1 1zM-205 4382h-1v-1h1v1zM-213 4382h-1v-1h1v1zM-220 4382h-1v-1h1v1zM-253 4382h-1v-1h1v1zM-207 4381h-1v-1h1v1zM-210 4381h-1l1 -1h1l-1 1zM-223 4381h-1v-1h1v1zM-228 4380v1l-1 -1h1zM-265 4381h-1v-1h1v1zM-216 4380h-1l1 -1h1l-1 1zM-218 4380h-1v-1h1v1zM-228 4379h2v1h-2v-1zM-214 4379h-1v-1h1v1zM-222 4379h-1l1 -1h1l-1 1zM-225 4379h-1v-1h1v1zM-229 4379v-1h1v1h-1zM-205 4378h-1v-1h1v1zM-212 4378h-1v-1h1v1zM-215 4378h-1v-1h1v1zM-217 4378h-1v-1h1v1zM-211 4377h-1v-1h1v1zM-213 4377h-1v-1h1v1zM-218 4377h-1v-1h1v1zM-221 4377h-1v-1h1v1zM-223 4377h-1v-1h1v1zM-260 4377h-1v-1h1v1zM-204 4376h-1v-1h1v1zM-230 4377l-1 -1l1 -1h2v1l-2 1zM-232 4376h-3l1 -1h2v1zM-264 4377h-4v-1l2 -1v1h3l-1 1zM-220 4375h-1v-1h1v1zM-255 4375v-1l2 1h-2zM-204 4374h-1v-1h1v1zM-211 4374h-1v-1h1v1zM-214 4374h-1v-1h1v1zM-226 4374h-1v-1h1v1zM-266 4374h-2v-1h2v1zM-250 4373h-4v-1h4v1zM-255 4373h-1v-1h1v1zM-225 4373l-1 -1v-1l1 1v1zM-232 4372h-1v-1h1v1zM-234 4372h-2v-1h2v1zM-238 4372h-3l1 -1h3l-1 1zM-244 4372h-1v-1h1v1zM-250 4370h-2v-1h2v1zM-246 4369h-1v-1h1v1zM-257 4369h-1v-1h1v1zM-213 4368h-1v-1h1v1zM-250 4368h-1v-1h1v1zM-254 4370l-1 -2l1 -1h2v1h-1v2h-1zM-248 4368l-1 -1l1 -1h1l-1 2zM-255 4368h-1l-2 -2h3v2zM-216 4366h-1v-1h1v1zM-246 4366h-1v-1h1v1zM-212 4365h-1v-1h1v1zM-214 4366l-1 -1v-1h1v2zM-218 4365h-1l1 -1h1l-1 1zM-220 4365h-1v-1h1v1zM-244 4365h-1l1 -1h1l-1 1zM-213 4364h-1v-1h1v1zM-242 4364h-1v-1h1v1zM-267 4364h-1v-1h1v1zM-211 4363h-1v-1h1v1zM-223 4363h-1v-1h1v1zM-218 4363h-4v-1l2 -1h2v2zM-229 4364h-1v-3l1 1v2zM-206 4361h-1l1 -1h1l-1 1zM-208 4363l-1 -1v-2h1v3zM-210 4362l-2 -2h2v2zM-217 4361h-1v-1h1v1zM-231 4361h-1v-1h1v1zM-240 4361h-1v-1h1v1zM-267 4362l-1 -1v-1h1v2zM-224 4359l2 1h1l-1 1l-3 -1h1v-1zM-225 4360h-1l1 -1v1zM-234 4361l-2 -1v-1h2v1v1zM-237 4361h-1l-1 -1l1 -1l1 1v1zM-241 4360h-1v-1h1v1zM-206 4359h-1v-1h1v1zM-215 4359h-1v-1h1v1zM-218 4359h-2v-1h2v1zM-222 4359h-1v-1h1v1zM-225 4359v-1h1v1h-1zM-226 4359h-1v-1h1v1zM-228 4359h-1v-1h1v1zM-232 4359h-1l1 -1h1l-1 1zM-245 4358h-1v-1h1v1zM-248 4358h-1v-1h1v1zM-252 4358h-1v-1h1v1zM-256 4358h-4v-1h4v1zM-228 4357h-1v-1h1v1zM-263 4357h-1v-1h1v1zM-222 4356h-1l1 -1h1l-1 1zM-224 4356h-1v-1h1v1zM-226 4356h-2v-1h2v1zM-211 4355h-1v-1h1v1zM-214 4355h-2v-1h2v1zM-218 4356h-2l2 -2h1l-1 2zM-207 4354h-1v-1h1v1zM-212 4353v1l-1 -1h1zM-227 4354h-1v-1h1v1zM-238 4354h-1v-1h1v1zM-257 4354h-1v-1h1v1zM-206 4353h-1v-1h1v1zM-213 4353h-1v-1h1v1zM-216 4353h-1l1 -1h1l-1 1zM-236 4353h-1l1 -1h1l-1 1zM-241 4354l-1 -1v-1h1v2zM-243 4353h-1v-1h1v1zM-261 4354l-1 -1v-1h1v2zM-212 4352l2 -1h1v2h-3v-1zM-213 4352l1 -1v1h-1zM-220 4353l-1 -1v-1l1 1v1zM-240 4352h-1v-1h1v1zM-242 4352h-1v-1h1v1zM-248 4352h-1v-1h1v1zM-260 4352h-1l1 -1h1l-1 1zM-262 4352h-2v-1h2v1zM-266 4352h-2v-1h2v1zM-225 4353l-1 -1l-1 -2h1h1v3zM-230 4352v-1l2 -1l-2 2zM-238 4352l-2 -2h2l2 -1v2h-2v1zM-240 4350h-3l1 -1h2v1zM-244 4350h-1v-1h1v1zM-246 4352l-2 -2l2 -1v1l1 2h-1zM-266 4350h-2v-1h2v1zM-258 4348h-1v-1h1v1zM-263 4348h-1v-1h1v1zM-262 4346h-2v-1h2v1zM-253 4345h-1v-1h1v1zM-255 4345h-1v-1h1v1zM-263 4344h-1v-1h1v1zM-236 4343h-1v-1h1v1zM-260 4343h-2v-1h2v1zM-232 4342h-1v-1h1v1zM-244 4342h-1v-1h1v1zM-257 4342h-1v-1h1v1zM-230 4341h-1v-1h1v1zM-240 4341h-4v-1h4v1zM-245 4341h-1v-1h1v1zM-232 4340h-1v-1h1v1zM-235 4340h-1v-1h1v1zM-258 4340h-5l1 -1h4v1zM-231 4339h-1v-1h1v1zM-247 4339h-1v-1h1v1zM-266 4339h-2v-1h3l-1 1zM-254 4338h-1v-1h1v1zM-253 4334h-1v-1h1v1zM-254 4332v1l-1 -1h1zM-254 4331l1 1h-1v-1zM-255 4332h-1l1 -1v1zM-264 4333l-1 -1v-1l1 1v1zM-314 4387h-1l1 -1h1l-1 1zM-312 4386h-1v-1h1v1zM-309 4386h-1h-1l1 -2h1v2zM-293 4384h-1v-1h1v1zM-307 4384h-1v-1h1v1zM-270 4383h-1v-1h1v1zM-272 4383h-1v-1h1v1zM-287 4383h-1v-1h1v1zM-290 4384l-1 -1v-1h1v2zM-296 4383h-1v-1h1v1zM-310 4383h-1v-1h1v1zM-276 4383l-2 -1v1l-1 -1v-1h4v1l-1 1zM-288 4382h-1v-1h1v1zM-291 4382h-1v-1h1v1zM-303 4382l-1 1l-1 -1l1 -1h3l-1 1h-1zM-307 4382h-1v-1h1v1zM-316 4382h-1v-1h1v1zM-294 4382l-1 -1v-1h1v2zM-268 4381h-2v-2h2l1 1l-1 1zM-272 4380h-1l1 -1h1l-1 1zM-274 4380h-6v-1h6v1zM-292 4380h-2v-1h2v1zM-296 4380h-1v-1h1v1zM-303 4380h-1v-1h1v1zM-289 4379h-1v-1h1v1zM-294 4379h-1v-1h1v1zM-301 4379h-1v-1h1v1zM-305 4379h-1v-1h1v1zM-308 4379h-2v-1h3l-1 1zM-276 4378h-1v-1h1v1zM-281 4378h-1v-1h1v1zM-284 4378h-2v-1h3l-1 1zM-292 4378h-1l1 -1h1l-1 1zM-296 4378h-1v-1h1v1zM-300 4382l1 -4v-1l1 1v2l-2 2zM-319 4378h-1v-1h1v1zM-269 4377h-1v-1h1v1zM-271 4377h-1v-1h1v1zM-273 4378h-1l-2 -2h3v2zM-288 4377h-3l1 -1h2v1zM-316 4377h-1v-1h1v1zM-292 4376h-1v-1h1v1zM-294 4377l-2 -1v-1h2l1 1l-1 1zM-298 4376h-1l1 -1h1l-1 1zM-300 4376h-4v-1h4v1zM-308 4376h-1v-1h1v1zM-312 4376h-1l1 -1h1l-1 1zM-314 4376h-1v-1h1v1zM-318 4377l-1 -1v-1l1 1v1zM-273 4375h-1v-1h1v1zM-286 4377l-2 -1v-1l4 -1h1l-1 2h-2v1zM-289 4375h-1v-1h1v1zM-316 4375h-2v-1h2v1zM-269 4374h-1v-1h1v1zM-282 4374h-1v-1h1v1zM-285 4374h-1v-1h1v1zM-290 4374h-1v-1h1v1zM-292 4374h-3l1 -1h2v1zM-296 4374h-3l1 -1h2v1zM-300 4374h-6v-1h6v1zM-308 4374h-2v-1h3l-1 1zM-284 4373h-1v-1h1v1zM-311 4374h-3l2 -2h1v2zM-281 4372h-1v-1h1v1zM-278 4371h-1v-1h1v1zM-276 4370h-1v-1h1v1zM-283 4369h-1v-1h1v1zM-273 4368h-1v-1h1v1zM-271 4367h-1v-1h1v1zM-268 4366h-1v-1h1v1zM-270 4365h-1v-1h1v1zM-280 4354h-1l1 -1h1l-1 1zM-282 4354h-1v-1h1v1zM-285 4354h-1v-1h1v1zM-288 4354h-1l1 -1h1l-1 1zM-269 4353h-1v-1h1v1zM-271 4353h-1v-1h1v1zM-270 4352h-1v-1h1v1zM-277 4352h-1v-1h1v1zM-293 4352h-1v-1h1v1zM-294 4353h-2v-1v-1l2 1v1zM-300 4352h-2v-1h2v1zM-282 4351h-2v-1h2v1zM-286 4351h-1v-1h1v1zM-270 4350h-3l1 -1h3l-1 1zM-274 4350h-2v-1h2v1zM-284 4350h-1v-1h1v1zM-289 4351l-1 -1v-1l1 1v1zM-291 4350h-1v-1h1v1zM-302 4350h-1v-1h1v1zM-318 4350h-1v-1h1v1zM-300 4350h-1v-2h1l1 2h-1zM-276 4348h-1v-1h1v1zM-281 4348h-1v-1h1v1zM-288 4348h-2v-1h2v1zM-291 4348h-1v-1h1v1zM-303 4349l-1 -1v-1l1 1v1zM-321 4349l-1 -1v-1l1 1v1zM-274 4348h-1v-2h1l1 2h-1zM-278 4348h-2l2 -2h1l-1 2zM-280 4347h-1v-1h1v1zM-285 4347h-1v-1h1v1zM-301 4347h-1v-1h1v1zM-317 4347h-1v-1h1v1zM-324 4347h-1v-1h1v1zM-312 4346h-2v-1h3l-1 1zM-315 4346h-1v-1h1v1zM-277 4345h-1v-1h1v1zM-283 4345h-1v-1h1v1zM-288 4346l-2 -2h2v2zM-292 4346l-2 -2h2h1l-1 2zM-295 4345h-1v-1h1v1zM-307 4345h-1v-1h1v1zM-310 4345h-1v-1h1v1zM-317 4345h-1v-1h1v1zM-320 4345h-1v-1h1v1zM-270 4344h-3l1 -1h2v1zM-275 4344h-1v-1h1v1zM-278 4344h-2v-1h2v1zM-281 4345l-1 -1v-1l1 1v1zM-318 4344h-1v-1h1v1zM-264 4343h-5l1 -1h4v1zM-305 4343h-1v-1h1v1zM-308 4343h-1v-1h1v1zM-316 4343h-1l1 -1h1l-1 1zM-320 4343h-1v-1h1v1zM-326 4343h-1v-1h1v1zM-314 4342h-1v-1h1v1zM-324 4342h-2v-1h2v1zM-309 4341h-1v-1h1v1zM-320 4341h-1l1 -1h1l-1 1zM-323 4341h-1v-1h1v1zM-314 4340h-1v-1h1v1zM-321 4340h-1v-1h1v1zM-305 4339h-1v-1h1v1zM-271 4338h-1v-1h1v1zM-274 4338h-1v-1h1v1zM-297 4336h-1v-1h1v1zM-273 4335h-1v-1h1v1zM-296 4335h-1v-1h1v1zM-282 4333h-1v-1h1v1zM-292 4333h-1v-1h1v1zM-271 4332h-1v-1h1v1zM-283 4332h-1v-1h1v1zM-586 4370h-1v-1h1v1zM-584 4369h-1v-1h1v1zM-580 4367h-1v-1h1v1zM-583 4368l-1 -1v-1h1v2zM-579 4366h-1v-1h1v1zM-580 4365h-1v-1h1v1zM-578 4364h-1v-1h1v1zM-574 4362v1l-1 -1h1zM-576 4363h-1v-1h1v1zM-574 4361l1 1h-1v-1zM-575 4362h-1l1 -1v1zM-571 4361h-1v-1h1v1zM-575 4361v-1h1v1h-1zM-572 4360h-1v-1h1v1zM-567 4359h-1l-1 -1h1h1v1zM-571 4360v-2h1v2h-1zM-567 4357h-1v-1h1v1zM-563 4355h-1v-1h1v1zM-560 4353v-1h1v1h-1zM-618 4395l-1 -1v-1l1 1v1zM-620 4394h-1v-1h1v1zM-617 4393h-1v-1h1v1zM-619 4393h-1v-1h1v1zM-618 4391h-1v-1h1v1zM-607 4388h-1v-1h1v1zM-612 4388h-1v-1h1v1zM-615 4388h-1v-1h1v1zM-606 4387h-1v-1h1v1zM-610 4386h-1l1 -1h1l-1 1zM-612 4386h-2v-1h2v1zM-605 4385h-1v-1h1v1zM-604 4384h-1v-1h1v1zM-607 4384h-1v-1h1v1zM-610 4384h-1v-1h1v1zM-606 4383h-1v-1h1v1zM-609 4383h-1v-1h1v1zM-600 4382h-2v-1h2v1zM-604 4382h-1v-1h1v1zM-608 4382h-1l1 -1h1l-1 1zM-603 4381h-1v-1h1v1zM-606 4381h-1v-1h1v1zM-597 4380h-1v-1h1v1zM-602 4380h-1l1 -1h1l-1 1zM-605 4380h-1v-1h1v1zM-595 4379h-1v-1h1v1zM-598 4378h-1v-1h1v1zM-600 4377h-1v-1h1v1zM-594 4374h-1v-1h1v1zM-592 4373h-1v-1h1v1zM-590 4372h-1v-1h1v1zM-588 4371h-1v-1h1v1zM-589 4370h-1v-1h1v1zM150 4281h-1v-1h1v1zM178 4277h-1l1 -1h1l-1 1zM170 4272v1l-1 -1h1zM44 4331h-1v-1h1v1zM42 4331h-1v-1h1v1zM34 4331h-3l1 -1h2v1zM10 4331h-1l1 -1h1l-1 1zM-2 4331h-1v-1h1v1zM-7 4331h-1v-1h1v1zM43 4330h-1v-1h1v1zM40 4330h-1v-1h1v1zM26 4330h-1l1 -1h1l-1 1zM15 4330h-1v-1h1v1zM44 4329h-1v-1h1v1zM41 4329h-1v-1h1v1zM30 4329h-1v-1h1v1zM39 4328h-1v-1h1v1zM45 4327h-1v-1h1v1zM48 4324h-1v-1h1v1zM44 4325l-1 -1v-1l1 1v1zM47 4323h-1v-1h1v1zM45 4321h-1v-1h1v1zM45 4319h-1v-1h1v1zM46 4316h-1v-1h1v1zM47 4315h-1v-1h1v1zM41 4314h-1v-1h1v1zM35 4314h-1v-1h1v1zM39 4313h-1v-1h1v1zM42 4312h-1v-1h1v1zM36 4312h-3l1 -1h3l-1 1zM26 4312h-1v-1h1v1zM17 4312h-1v-1h1v1zM40 4311h-1v-1h1v1zM30 4311h-1v-1h1v1zM19 4311h-1v-1h1v1zM37 4310h-1v-1h1v1zM33 4308h-1v-1h1v1zM28 4308h-1l1 -1h1l-1 1zM19 4308h-1h-1l1 -2h1v2zM26 4306h-1v-1h1v1zM22 4307h-1v-1l1 -1l1 1l-1 1zM18 4305h-1v-1h1v1zM28 4305l-1 -1v-1l1 1v1zM32 4303h-1v-1h1v1zM30 4304l-1 -1v-1h1v2zM39 4301h-1v-1h1v1zM29 4301h-1v-1h1v1zM39 4298h-1v-1h1v1zM40 4297h-1v-1h1v1zM41 4296h-1v-1h1v1zM42 4293l-1 -1v-2h1v3zM40 4288h-1v-1h1v1zM39 4287h-1v-1h1v1zM35 4286h-1v-1h1v1zM32 4286h-2v-1h2v1zM26 4285h-1v-1h1v1zM18 4282h-1v-1h1v1zM-255 4331v-1l1 -1v1v1h-1zM-257 4329l1 1h-1v-1zM-266 4330h-1v-1h1v1zM-258 4329v-1l1 1h-1zM-260 4329h-1v-1h1v1zM-258 4328h-1v-1h1v1zM-261 4328h-1v-1h1v1zM-264 4327h-1v-1h1v1zM-266 4327h-1v-1h1v1zM-262 4326h-1l1 -1h1l-1 1zM-254 4323h-1v-1h1v1zM-258 4323h-1v-1h1v1zM-264 4325l-2 -2v1h-1v-2h3v3zM-263 4322h-1v-1h1v1zM-252 4322l-1 -1v-1h1v2zM-255 4321h-1v-1h1v1zM-258 4321h-1l1 -1h1l-1 1zM-246 4320h-1v-1h1v1zM-242 4319h-1v-1h1v1zM-248 4320l-2 -2h2v2zM-244 4317h-1v-1h1v1zM-247 4317h-1v-1h1v1zM-250 4318l-1 -1v-1h1v2zM-258 4317h-2v-1h2v1zM-242 4316h-1v-1h1v1zM-245 4316h-1v-1h1v1zM-245 4314h-1v-1h1v1zM-256 4314h-1l1 -1h1l-1 1zM-250 4313h-2v-1h2v1zM-258 4314l-1 -1v-1h1v2zM-265 4313h-1v-1h1v1zM-256 4312h-1v-1h1v1zM-247 4311h-1v-1h1v1zM-252 4311h-1v-1h1v1zM-254 4311h-2v-1h2v1zM-245 4310h-1v-1h1v1zM-251 4309h-1v-1h1v1zM-262 4309h-1v-1h1v1zM-227 4308h-1v-1h1v1zM-264 4308l-4 -1v-1h5v2h-1zM-262 4305h-1v-1h1v1zM-239 4296v-1h1v1h-1zM-240 4295v-1h1v1h-1zM-241 4294v-1h1v1h-1zM-254 4279l1 1h-1v-1zM-255 4279v-1h1v1h-1zM-261 4268h-1v-1h1v1zM-268 4331h-2v-1h2v1zM-290 4331h-1v-1h1v1zM-307 4331h-1v-1h1v1zM-310 4331h-1v-1h1v1zM-275 4330h-1v-1h1v1zM-282 4330h-1v-1h1v1zM-313 4330h-1v-1h1v1zM-317 4330h-1v-1h1v1zM-319 4330h-1v-1h1v1zM-322 4329h-2v-1h2v1zM-313 4328h-1v-1h1v1zM-327 4328h-1v-1h1v1zM-331 4328h-1v-1h1v1zM-321 4327h-1v-1h1v1zM-307 4326h-1v-1h1v1zM-316 4325h-1v-1h1v1zM-324 4324h-1v-1h1v1zM-268 4322h-1v-1h1v1zM-275 4322h-1v-1h1v1zM-277 4323h-1l-1 -1l1 -1l1 1v1zM-293 4321l-1 1v-1h1zM-269 4321h-1v-1h1v1zM-279 4322l-1 -1v-1h1v2zM-294 4321l-1 -1h1v1zM-277 4320h-1v-1h1v1zM-294 4320v-2h1v2h-1zM-280 4319h-2v-1l2 -1v1v1zM-288 4318h-2v-1h2v1zM-292 4319l-1 -1l1 -1h1v1l-1 1zM-281 4317h-1v-1h1v1zM-284 4317h-1v-1h1v1zM-282 4315h-1v-1h1v1zM-286 4315h-1v-1h1v1zM-292 4315h-1v-1h1v1zM-328 4315h-2v-1h2v1zM-283 4314h-1v-1h1v1zM-298 4314h-1l1 -1h1l-1 1zM-300 4314h-2v-1h2v1zM-276 4313h-2v-1h3l-1 1zM-280 4313h-1v-1h1v1zM-284 4313h-1v-1h1v1zM-282 4312h-1l1 -1h1l-1 1zM-285 4312h-1v-1h1v1zM-292 4312h-1v-1h1v1zM-306 4312h-1v-1h1v1zM-319 4312h-1v-1h1v1zM-329 4312h-1v-1h1v1zM-331 4312h-1v-1h1v1zM-268 4311h-1v-1h1v1zM-272 4311h-1v-1h1v1zM-286 4311h-2v-1h2v1zM-288 4312h-2l-2 -2l4 1v1zM-296 4312l-2 -1v-1h5l-1 1l-2 1zM-298 4312h-2v-2l2 2zM-279 4310h-1v-1h1v1zM-282 4310h-2v-1h2v1zM-288 4310h-1v-1h1v1zM-308 4310h-1v-1h1v1zM-314 4310h-1v-1h1v1zM-331 4310h-1v-1h1v1zM-266 4309h-4v-1h5l-1 1zM-309 4309h-1v-1h1v1zM-312 4309h-1l1 -1h1l-1 1zM-317 4308l1 2l-2 1v-1v-2h1zM-317 4307l1 1h-1v-1zM-275 4307h-1v-1h1v1zM-284 4306v1l-1 -1h1zM-293 4307h-1v-1h1v1zM-306 4307h-1v-1h1v1zM-314 4308l-1 -1l1 -1h1l-1 2zM-274 4306h-1v-1h1v1zM-276 4306h-2v-1h2v1zM-281 4306h-1v-1h1v1zM-304 4306h-1l1 -1h1l-1 1zM-284 4304h1l-1 2v-2zM-291 4306l-1 -1v-1h1v2zM-323 4306h-3l2 -2h1v2zM-274 4304h-1v-1h1v1zM-276 4304h-3l1 -1h2v1zM-280 4304h-3l1 -1h2v1zM-285 4304l1 -1v1h-1zM-303 4304h-1v-1h1v1zM-326 4305l-1 -1v-1l1 1v1zM-304 4303h-3l1 -1h2v1zM-279 4302h-1v-1h1v1zM-282 4302h-5l1 -1h5l-1 1zM-288 4302h-1v-1h1v1zM-310 4302h-1v-1h1v1zM-327 4302h-1v-1h1v1zM-287 4301h-1v-1h1v1zM-290 4302l-1 -1l1 -1h1l-1 2zM-294 4301h-1v-1h1v1zM-296 4301h-1v-1h1v1zM-298 4301h-2v-1h2v1zM-302 4301h-1l1 -1h1l-1 1zM-304 4301h-1v-1h1v1zM-317 4301v-1h1v1h-1zM-326 4301h-1v-1h1v1zM-318 4300h-1l1 -1h1l-1 1zM-329 4300h-1v-1h1v1zM-306 4299h-1v-1h1v1zM-310 4299h-1v-1h1v1zM-315 4299h-1v-1h1v1zM-324 4299v-1l1 1h-1zM-325 4298h-1v-1h1v1zM-327 4298h-1v-1h1v1zM-336 4326h-2v-1h2v1zM-340 4325h-1v-1h1v1zM-339 4323h-1v-1h1v1zM-342 4323h-1v-1h1v1zM-343 4322h-1v-1h1v1zM-344 4321h-1v-1h1v1zM-337 4317h-1v-1h1v1zM-345 4317h-1v-1h1v1zM-344 4316h-1v-1h1v1zM-343 4315h-1v-1h1v1zM-339 4313h-1v-1h1v1zM-336 4313l-1 -1v-2h1h1l-1 2v1zM-333 4310h-1v-1h1v1zM179 4266h-1v-1h1v1zM167 4254h-1v-1h1v1zM165 4252l-1 1v-1h1zM167 4245h1v1h-1v-1zM170 4245h-1v-1h1v1zM172 4244h-1v-1h1v1zM174 4243h-1v-1h1v1zM177 4242h-1v-1h1v1zM178 4234v1l-1 -1h1zM179 4231h-1v-1h1v1zM132 4168h-1v-1h1v1zM144 4150h-1v-1h1v1zM-94 4079v-1h1l-1 1zM-89 4072h1l-1 1v-1zM-108 4017v-1h1v1h-1zM-113 4013v-1h1v1h-1zM-117 4012h-1v-1h1v1zM-154 4021h-1v-1h1v1zM-153 4020h-1v-1h1v1zM-155 4020h-1v-1h1v1zM-116 4011h-1v-1h1v1zM-119 4011h-1v-1h1v1zM526 4374h-1v-1h1v1zM524 4374h-1v-1h1v1zM513 4373h-1v-1h1v1zM535 4371h-1v-1h1v1zM532 4371h-2v-1h3l-1 1zM515 4370h-1v-1h1v1zM534 4369h-1l1 -1h1l-1 1zM504 4369h-1v-1h1v1zM499 4368h-1v-1h1v1zM498 4367h-2v-1h2v1zM494 4368l-1 -2h1h1v2h-1zM491 4367h-1v-1h1v1zM492 4366h-1v-1h1v1zM490 4366l-1 -1v-1h1v2zM464 4365h-1v-1h1v1zM481 4363h-1v-1h1v1zM478 4363h-2v-1h3l-1 1zM471 4363h-1v-1h1v1zM455 4363h-1v-1h1v1zM466 4362h-1v-1h1v1zM468 4362l-2 -1v-1h5l-1 1l-2 1zM465 4360h-1v-1h1v1zM458 4360h-1v-1h1v1zM438 4360h-1v-1h1v1zM464 4359h-2v-1h2v1zM460 4359h-1v-1h1v1zM454 4359h-1v-1h1v1zM459 4358h-1v-1h1v1zM450 4358h-1v-1h1v1zM452 4357h-2v-1h2v1zM441 4357h-1v-1h1v1zM449 4356h-1v-1h1v1zM447 4356h-1v-1h1v1zM441 4355h-1v-1h1v1zM482 4351h-1v-1h1v1zM484 4349h-1v-1h1v1zM464 4347h-1l1 -1h1l-1 1zM462 4347h-3l1 -1h2v1zM458 4347h-1v-1h1v1zM483 4346h-1v-1h1v1zM480 4346h-1v-1h1v1zM454 4347l-2 -1v-1h5l-1 1h-2v1zM473 4345h-1v-1h1v1zM448 4345h-1v-1h1v1zM477 4344h-1v-1h1v1zM475 4344h-1v-1h1v1zM471 4344h-1v-1h1v1zM464 4344h-2l-1 -2h1l2 2zM448 4343h-1v-1h1v1zM444 4343h-1l1 -1h1l-1 1zM442 4343h-1v-1h1v1zM437 4343h-1v-1h1v1zM438 4342h-1v-1h1v1zM460 4341h-4v-1h4v1zM454 4340h-1v-1h1v1zM452 4340h-1v-1h1v1zM452 4338h-1v-1h1v1zM438 4338h-1v-1h1v1zM444 4337h-2v-1h2v1zM441 4337h-1v-1h1v1zM474 4336h-4v-1h4v1zM446 4336h-1v-1h1v1zM475 4335h-1v-1h1v1zM470 4335h-3l1 -1h2v1zM466 4334h-1v-1h1v1zM470 4333h-1v-1h1v1zM454 4332h-1l1 -1h1l-1 1zM430 4359h-1l1 -1h1l-1 1zM425 4358h-1v-1h1v1zM436 4356h-1l1 -1h1l-1 1zM432 4354h-1v-1h1v1zM434 4345h-1l1 -1h1l-1 1zM432 4345h-1v-1h1v1zM432 4343h-1v-1h1v1zM426 4344h-1v-2h1l1 2h-1zM436 4342h-4v-1h4v1zM428 4342h-1l1 -1h1l-1 1zM434 4338h-1v-1h1v1zM430 4338h-4v-1h5l-1 1zM410 4337h-1v-1h1v1zM419 4335h-1v-1h1v1zM411 4335h-1v-1h1v1zM413 4333h-1v-1h1v1zM405 4333h-1v-1h1v1zM399 4333h-1v-1h1v1zM397 4332h-1v-1h1v1zM329 4339h-1v-1h1v1zM332 4335v-1l1 1h-1zM331 4335h-1v-1h1v1zM324 4334h-1v-2h3l-2 2zM317 4333v-1h1v1h-1zM309 4334v-1l2 -1h1h1v2h-4zM322 4332h-1v-1h1v1zM320 4332h-1v-1h1v1zM468 4331h-1v-1h1v1zM466 4332l-1 -1v-1h1v2zM453 4331h-1v-1h1v1zM475 4331h-1v1v1l-3 -3h1l3 -1v2zM451 4330h-1v-1h1v1zM449 4331l-1 -1v-1l1 1v1zM446 4330h-1l1 -1h1l-1 1zM457 4329h-1v-1h1v1zM448 4329h-1v-1h1v1zM440 4329h-2v-1h3l-1 1zM475 4329v-1h-1h-1l1 -1h2v2h-1zM456 4328h-2v-1h2v1zM454 4329h-2v-1v-1l2 1v1zM444 4327h-1v-1h1v1zM440 4327h-1v-1h1v1zM442 4326h-1v-1h1v1zM440 4325h-2v-1h2v1zM444 4324h-1v-1h1v1zM442 4324h-1v-1h1v1zM440 4323h-1v-1h1v1zM398 4330h-1v-1h1v1zM432 4328h-1l1 -1h1l-1 1zM384 4328h-1v-1h1v1zM381 4328h-1v-1h1v1zM424 4327h-1v-1h1v1zM378 4326h-1v-1h1v1zM435 4325h-1v-1h1v1zM433 4325h-1v-1h1v1zM388 4325h-4v-1h4v1zM425 4324h-1v-1h1v1zM393 4324h-1v-1h1v1zM436 4323h-1v-1h1v1zM434 4323h-1v-1h1v1zM415 4323h-1v-1h1v1zM399 4323h-1v-1h1v1zM388 4323h-3l1 -1h2v1zM433 4322h-1v-1h1v1zM428 4322h-1l1 -1h1l-1 1zM414 4322h-1v-1h1v1zM404 4322h-1v-1h1v1zM402 4322h-2v-1h2v1zM380 4322h-2v-1h2v1zM374 4322h-1v-1h1v1zM426 4322h-2l-2 -2l4 1v1zM416 4321h-1v-1h1v1zM409 4322l-1 -1v-1h1v2zM382 4321h-1l1 -1h1l-1 1zM376 4321h-1v-1h1v1zM428 4320h-1l1 -1h1l-1 1zM412 4320h-2v-1h3l-1 1zM408 4320h-1v-1h1v1zM378 4321l-1 -1v-1l1 1v1zM425 4320l-1 -1v-1h1v2zM420 4319h-1v-1l1 -1l1 1l-1 1zM400 4318h-1v-1h1v1zM394 4318h-2v-1h2v1zM382 4318h-1v-1h1v1zM376 4318h-1v-1h1v1zM418 4318h-5v-2h1v1h4v1zM410 4317h-1l1 -1h1l-1 1zM391 4318l-1 -1v-1h1v2zM389 4317h-1v-1h1v1zM406 4316h-3l1 -1h2v1zM402 4316h-1v-1h1v1zM384 4316h-3l1 -1h2v1zM380 4316h-1v-1h1v1zM418 4314h-1l1 -1h1l-1 1zM416 4314h-1v-1h1v1zM414 4314h-2v-1h2v1zM409 4314h-1v-1h1v1zM407 4314h-1v-1h1v1zM404 4314h-1l1 -1h1l-1 1zM402 4314h-2v-1h2v1zM399 4315l-1 -1v-1l1 1v1zM390 4314h-1v-1h1v1zM395 4313h-1v-1h1v1zM393 4313h-1v-1h1v1zM391 4313h-1v-1h1v1zM407 4312h-1v-1h1v1zM383 4312h-1v-1h1v1zM380 4312h-1l1 -1h1l-1 1zM420 4313l-1 -1v-2h1v3zM418 4311h-1v-1h1v1zM401 4311h-1v-1h1v1zM398 4311h-1v-1h1v1zM394 4311h-1v-1h1v1zM392 4311h-1v-1h1v1zM390 4311h-1v-1h1v1zM378 4311h-1v-1h1v1zM408 4310h-4v-1h4v1zM403 4310h-1v-1h1v1zM400 4310h-1v-1h1v1zM397 4310h-1v-1h1v1zM380 4310h-1v-1h1v1zM399 4309h-1v-1h1v1zM396 4309h-3l1 -1h2v1zM386 4309h-3l1 -1h2v1zM376 4311l-1 -1v-2h1l1 2l-1 1zM418 4308h-1l1 -1h1l-1 1zM416 4309l-1 -1v-1l1 1v1zM408 4308h-2v-1h2v1zM401 4308h-1v-1h1v1zM382 4308h-1v-1h1v1zM398 4306v2h-1v-2h1zM395 4307h-1v-1h1v1zM388 4307v-1l2 -1v1l-2 1zM387 4305v2h-2v-2h2zM380 4306h-1v-1h1v1zM394 4305h-1v-1h1v1zM392 4305h-2v-1l2 -1v1v1zM378 4304h-1l1 -1h1l-1 1zM376 4304h-1v-1h1v1zM380 4303h-1v-1h1v1zM373 4303h-1v-1h1v1zM390 4302h-1l1 -1h1l-1 1zM388 4302h-1v-1h1v1zM384 4301h-1v-1h1v1zM374 4300h-1v-1h1v1zM319 4328h-1v-1h1v1zM312 4329v-3h2v2l-2 1zM317 4327h-2v-2h2v2zM372 4315h-4v-1h5l-1 1zM366 4314h-2v-1h2v1zM364 4313h-1v-1h1v1zM363 4311l-1 1v-1h1zM374 4311h-5l1 -1h4v1zM368 4311h-2v-1h2v1zM363 4310h1l-1 1v-1zM362 4311h-1v-3h1l1 2h-1v1zM372 4307h-1v-1h1v1zM357 4306h-1v-1h1v1zM364 4306h-6v-1l2 -1h2l2 1v1zM355 4305h-1v-1h1v1zM352 4305h-1l1 -1h1l-1 1zM350 4305h-1v-1h1v1zM363 4302h-1v-1h1v1zM361 4302h-1v-1h1v1zM354 4302h-2v-1h3l-1 1zM362 4301h-1v-1h1v1zM358 4302h-2l2 -2l1 2h-1zM350 4301h-1l1 -1h1l-1 1zM356 4300h-1v-1h1v1zM365 4299h-1v-1h1v1zM362 4299h-1v-1h1v1zM358 4299h-1v-1h1v1zM335 4298h-1v-1h1v1zM252 4315h-3l1 -1h3l-1 1zM248 4315h-4v-1h4v1zM264 4311v-1l1 1h-1zM258 4311h-1v-1h1v1zM255 4311h-1v-1h1v1zM252 4311h-2v-1h2v1zM249 4311h-1v-1h1v1zM248 4282h-4v-2l2 1h2v1zM248 4275h-1v-1h1v1zM248 4224l-3 -1v-1l1 -2h2v2h1l-1 2zM246 4205h-1v-1h1v1zM248 4204h-1l1 -1h1l-1 1zM347 4154h-1h-1l1 -2h1v2zM251 4203h-1v-1h1v1zM255 4201h-1v-1h1v1zM248 4195h-1l1 -1h1l-1 1zM248 4189h-1l1 -1h1l-1 1zM254 4187h-2v-1h2v1zM258 4180h1l-1 1v-1zM251 4181h-1v-1h1v1zM248 4180h-1l1 -1h1l-1 1zM246 4180h-1v-1h1v1zM245 4178h-1v-1h1v1zM254 4177h-1v-1h1v1zM249 4176h3v4h-1v-3h-2v-1zM267 4175h-1v-1h1v1zM262 4176h-2l-1 -2h1l2 2zM252 4174v1l-2 -1h2zM270 4175h-2v-1l2 -1v1v1zM271 4173h-1v-1h1v1zM260 4173h-2v-1h2v1zM245 4173h-1v-1h1v1zM270 4172h-1l1 -1v1zM264 4172h-1v-1h1v1zM262 4172h-2v-1h2v1zM266 4171h-2v-1h3l-1 1zM246 4171h-2v-1h2v1zM270 4170h-3v-2l3 1v1zM255 4169h-1v-1h1v1zM248 4171l-1 -1l-1 -1h-1l1 -1h2l1 2l-1 1zM254 4168h-1v-1h1v1zM258 4168l-2 -1h-1l1 -1h2v2zM249 4167h-1v-1h1v1zM245 4167h-1v-1h1v1zM254 4166h-1v-1h1v1zM252 4166h-2v-1h2v1zM253 4165h-1v-1h1v1zM250 4162h-2v-1h2v1zM249 4158h-1v-1h1v1zM254 4157h-1v-1h1v1zM250 4157h-1l1 -1h1l-1 1zM246 4152h-1v-1h1v1zM227 4318h-1v-1h1v1zM224 4318h-2v-1h2v1zM206 4318h-1v-1h1v1zM230 4314h-2v-1h2v1zM226 4314h-2v-1h3l-1 1zM232 4313h-1v-1h1v1zM203 4313h-1v-1h1v1zM230 4312h-1l1 -1h1l-1 1zM201 4308l-1 1l-1 -1h2zM200 4298h-1l1 -1h1l-1 1zM198 4298h-1v-1h1v1zM195 4298h-1v-1h1v1zM212 4297h-1v-1h1v1zM210 4297h-2v-1h2v1zM218 4296h-1v-1h1v1zM195 4296h-1v-1h1v1zM190 4296h-1v-1h1v1zM230 4293h-1l1 -1h1l-1 1zM225 4293h-1v-1h1v1zM187 4291h-1v-1h1v1zM193 4290h-1v-1h1v1zM190 4290h-1v-1h1v1zM196 4289h-3l1 -1h3l-1 1zM200 4288h-1l1 -1h1l-1 1zM206 4287h-4v-1h4v1zM228 4286h-2v-1h2v1zM210 4286h-3l1 -1h2v1zM226 4285h-1v-1h1v1zM213 4285h-1v-1h1v1zM211 4285h-1v-1h1v1zM218 4285l-2 -1h-1l1 -1h3v1l-1 1zM234 4282l2 1l1 1h-1h-2v-2zM242 4283h-2l-1 -1l1 -1l2 1v1zM181 4282h-1v-1h1v1zM232 4280v-1l1 1h-1zM194 4280h-1l1 -1h1l-1 1zM187 4281h-1l-2 -1v1l-1 -1v-1h4v2zM182 4280h-1v-1h1v1zM204 4279h-1v-1h1v1zM202 4279h-4v-1h4v1zM196 4279h-1l1 -1h1l-1 1zM193 4279h-1v-1h1v1zM192 4280h-4v-1h2v-1l2 2zM216 4279l-1 -1l1 -1h2v1l-2 1zM190 4277h-1v-1h1v1zM186 4277h-1l1 -1h1l-1 1zM184 4277h-3l1 -1h2v1zM200 4276h-1v-1h1v1zM195 4276h-1v-1h1v1zM193 4276h-1v-1h1v1zM191 4276h-1v-1h1v1zM188 4276h-1v-1h1v1zM237 4275h-1v-1h1v1zM216 4275h-1v-1h1v1zM212 4275h-1l1 -1h1l-1 1zM210 4275h-2v-1h2v1zM189 4260l-1 1v-1h1zM193 4260h-1v-1h1v1zM203 4257h-1v-1h1v1zM215 4253h-1v-1h1v1zM204 4253l-2 -1v-1h2v1v1zM200 4253l-2 -1h-1l1 -1h2v1v1zM202 4251h-2v-1h2v1zM191 4251h-1v-1h1v1zM206 4251l-2 -1h-1l1 -1h2l1 1l-1 1zM213 4249h-1v-1h1v1zM208 4249h-2v-1h3l-1 1zM200 4249h-1v-1h1v1zM216 4248h-1v-1h1v1zM212 4248h-2v-1h2v1zM204 4248h-1l1 -1h1l-1 1zM196 4248h-1v-1h1v1zM192 4249l-1 -1l1 -1h2v1l-2 1zM214 4247h-1l1 -1h1l-1 1zM185 4247v-1l2 1h-2zM221 4246h-1v-1h1v1zM217 4246h-1v-1h1v1zM200 4247h-4v-1l4 -1l1 1l-1 1zM192 4246h-2v-1h2v1zM224 4245h-1v-1h1v1zM220 4245h-2v-1h2v1zM208 4247l-2 -1l2 -2v2h1l-1 1zM206 4245h-2v-1h2v1zM212 4246l-1 -1l-1 -1v-1h2v3zM202 4244h-3l1 -1h2v1zM223 4244h-2v-2h2v2zM216 4243h-2v-1h2v1zM220 4242h-1l1 -1h1l-1 1zM211 4242h-1v-1h1v1zM209 4242h-1v-1h1v1zM215 4241h-1v-1h1v1zM182 4241v-1l1 1h-1zM181 4240h-1v-1h1v1zM190 4239l4 -1h1l-1 1l-4 1v-1zM189 4238h1v1l-1 -1zM184 4239h-1l1 -1h1l-1 1zM199 4238h-1v-1h1v1zM192 4238h-1v-1h1v1zM188 4238v-1l1 1h-1zM201 4235h1l1 1h-1h-1v-1zM208 4235h-4v-1h4v1zM210 4234h-2v-1h2v1zM194 4233h-1v-1l1 -1l1 1l-1 1zM198 4231h-2v-1h2v1zM195 4231h-1v-1h1v1zM185 4231v-1h1v1h-1zM200 4231l-2 -1v-1h2v1v1zM206 4229l-4 1h-1l1 -2l2 1v-1h2v1zM184 4230h-2v-2l2 2zM186 4228h-1v-1h1v1zM230 4227h-1v-1h1v1zM226 4228h-2l2 -2h1l-1 2zM201 4227h-1v-1h1v1zM193 4227h-1v-1h1v1zM189 4227h-1v-1h1v1zM182 4227h-1l1 -1h1l-1 1zM234 4226h-1v-1h1v1zM231 4226h-1v-1h1v1zM237 4225h-1v-1h1v1zM235 4225h-1v-1h1v1zM226 4225h-1v-1h1v1zM194 4225h-1l1 -1h1l-1 1zM189 4225h-1v-1h1v1zM187 4226h-1h-1l1 -2h1v2zM243 4224h-1v-1h1v1zM232 4224h-2v-1h3l-1 1zM197 4224h-1v-1h1v1zM192 4224h-2v-1h2v1zM238 4223h-1v-1h1v1zM194 4223h-2v-1h3l-1 1zM186 4223h-1l1 -1h1l-1 1zM244 4222h-1v-1h1v1zM191 4222h-1v-1h1v1zM189 4222h-1v-1h1v1zM213 4218h-1v-1h1v1zM216 4217h-2v-1h2v1zM218 4216h-1v-1h1v1zM212 4216h-1l1 -1h1l-1 1zM221 4215h-1v-1h1v1zM215 4215h-1v-1h1v1zM224 4214h-1v-1h1v1zM221 4213h-1v-1h1v1zM219 4213h-1v-1h1v1zM229 4212h-1v-1h1v1zM222 4212h-1v-1h1v1zM232 4211h-1v-1h1v1zM225 4211h-1v-1h1v1zM234 4210h-1v-1h1v1zM228 4210h-1l1 -1h1l-1 1zM237 4209h-1v-1h1v1zM232 4209h-3l1 -1h2v1zM234 4207v1l-1 -1h1zM242 4207h-2v-1h2v1zM234 4207v-1h3l-1 1h-2zM244 4206h-1v-1h1v1zM216 4206h-4v-1h4v1zM180 4253h-2v-1h2v1zM180 4241h-2v-1h2v1zM180 4230h-1v-1h1v1zM228 4203h-2v-1h3l-1 1zM230 4201h4v1l-4 -1zM226 4201v-1h4v1h-4zM204 4199h-1v-1h1v1zM206 4198h-1l1 -1h1l-1 1zM236 4197h-1v-1h1v1zM221 4196l-1 1l-1 -1h2zM210 4197h-2v-1h2v1zM239 4192h-1v-1h1v1zM203 4192v-1h2v1h-1h-1zM215 4191h-1v-1h1v1zM212 4191h-1v-1h1v1zM208 4192l-1 -1v-1h1v2zM219 4190h-1v-1h1v1zM222 4189h-1l1 -1h1l-1 1zM236 4186h-3l1 -1h2v1zM234 4184h-1v-1h1v1zM226 4184h-1v-1h1v1zM224 4185l-3 -1h-1h-1l1 -1l4 1h1l-1 1zM210 4185l-2 -1v-1h2v1v1zM239 4185h-2v-1l-1 -2h2l1 2v1zM223 4183h-1v-1h1v1zM212 4184l-1 -1l1 -1h1l-1 2zM226 4182h-2v-1h2v1zM215 4182h-1v-1h1v1zM210 4182h-1v-1h1v1zM244 4181h-1v-1h1v1zM220 4182l-2 -1h-1l1 -1h2v2zM212 4181h-1v-1h1v1zM232 4180h-2v-1h2v1zM222 4181l-1 -1l1 -1h1v1l-1 1zM244 4179h-1v-1h1v1zM228 4179h-1l1 -1h1l-1 1zM241 4178h-1v-1h1v1zM236 4179v-1h-1l1 -1h1v2h-1zM234 4180h-1v-3l1 1v2zM227 4178h-1v-1h1v1zM210 4178h-1v-1h1v1zM240 4177h-2v-1h2v1zM230 4178h-1v-2h1l1 2h-1zM221 4177h-1v-1h1v1zM232 4176h-1l1 -1h1l-1 1zM225 4176h-1v-1h1v1zM222 4176h-1v-1h1v1zM236 4176l-1 -1v-1h1v2zM229 4175h-1v-1h1v1zM213 4175h-1v-1h1v1zM242 4174h-1v-1h1v1zM238 4175l-1 -1l1 -1h1v1l-1 1zM216 4175h-2v-1l2 -1v1v1zM240 4173h-1v-1h1v1zM226 4173h-2v-1h3l-1 1zM243 4172h-1v-1h1v1zM230 4172h-3l1 -1h3l-1 1zM222 4173l-1 -1l1 -1h1v1l-1 1zM220 4174h-2v-2l2 -1v1l1 2h-1zM218 4172h-1v-1h1v1zM236 4171h-3l1 -1h2v1zM242 4170h-3l1 -1h3l-1 1zM228 4170h-1l1 -1h1l-1 1zM237 4169h-1v-1h1v1zM232 4169h-3l1 -1h2v1zM227 4169h-1v-1h1v1zM218 4169h-1v-1h1v1zM242 4168h-1v-1h1v1zM234 4169l-1 -1l1 -1h1v1l-1 1zM222 4168h-2v-1h2v1zM236 4167h-1l1 -1h1l-1 1zM240 4166h-2v-1h2v1zM228 4166h-2v-1h2v1zM217 4166h-1v-1h1v1zM242 4165h-2v-1h2v1zM231 4165h-1v-1h1v1zM244 4164h-1v-1h1v1zM232 4164h-1v-1h1v1zM236 4163h-2v-1h2v1zM218 4164l-1 -1v-1h1v2zM238 4162h-1v-1h1v1zM219 4162h-1v-1h1v1zM230 4161h-1v-1h1v1zM221 4161h-1v-1h1v1zM244 4160h-1v-1h1v1zM234 4160h-1v-1h1v1zM225 4160h-1v-1h1v1zM223 4160h-1v-1h1v1zM238 4159h-3l1 -1h3l-1 1zM228 4159h-1v-1h1v1zM224 4159h-1v-1h1v1zM206 4161l-1 -1v-2h1v3zM244 4158h-3l1 -1h2v1zM205 4158h-1v-1h1v1zM232 4157l-3 1l1 -1l4 -1v1h-2zM206 4157h-1v-1h1v1zM236 4156h-2v-1h3l-1 1zM227 4156h-1v-1h1v1zM208 4156h-1v-1h1v1zM238 4155h-1v-1h1v1zM230 4155h-1v-1h1v1zM240 4154h-1v-1h1v1zM236 4154h-3l1 -1h2v1zM242 4154l-2 -1v-1h3v2h-1zM238 4153h-1l1 -1h1l-1 1zM228 4148h-1v-1h1v1zM237 4147h-1v-1h1v1zM227 4147h-1v-1h1v1zM229 4146h-1h-1l1 -2h1v2zM230 4143h-1v-1h1v1z"/></svg>