<svg xmlns="http://www.w3.org/2000/svg" viewBox="-573 7193 1221 1083"><g class="s" data-r fill="#000" fill-rule="evenodd"><path class="chunk" data-i="0" d="M-103 8076h1v-2l2 -1h3v2l-2 1h-2l-2 1v-1zM-152 8078l-9 -1l-3 -1l-2 -2l-16 -2l-2 -2v-2l2 -2l6 -1v1l2 -1v1l6 1h2v2l10 1l2 2v1h-9l1 1l10 1l1 1l-1 2zM-163 8073v-1h-1v1h1zM-156 8061l-4 -1h-2h-14l1 -2l-1 -1h-6l-2 -3l1 -3h2l7 -1l8 2l6 1v2l8 2l1 1v2h-3l-2 -1v1v1zM-174 8058v-1h-1v1h1zM-173 8059v-1h-1v1h1zM-245 8089l1 -1h-1l3 -3l1 1l-2 2v2l-1 1h-2v2h-2v3l-2 2l1 2h-1l-3 -2l1 -2l-1 -2l1 -1h2l2 -3h2h1v-1zM-247 8092v-1h-1v1h1zM-249 8094v-1h-1v1h1zM-250 8095v-1h-1v1h1zM-264 8086h-1v-2h1v-1h2v1h-1v1h-1v1zM-272 8098v-2h1l1 1v2l-2 -1zM-268 8096v-1h-2v1h2zM-272 8103v-1v-1h-2v-1l2 -2v2l2 1v-1v-1l1 -1l-1 -1v-1h-1v-2h-1l1 -2h1v2h1l1 -2v-4h2l2 -1l1 1l-1 1l-2 1v2h-1l2 2l-2 2v2h-1v1h2v1h-1v2h-1v-2h-1l-1 3h-2zM-267 8095v-1h-1v1h1zM-276 8069h-2l1 -3l1 -2h2h1l-2 2v2l-1 1zM-277 8063h-1l-1 -1h1v-2l2 -1l1 1l-2 2v1z"/><path class="chunk" data-i="1" d="M-281 8057v-1l1 -1l1 1l1 2h-2v-1h-1zM-250 8020v2l-2 -1v1l1 2h-1h-1v2l-1 1h-2l-1 1v2h-1v-2l-1 -2l1 -1l2 1l1 -2l2 -4l2 -1v1h1zM-246 8020l-2 -2v-2h2v1l1 -1l1 -1l1 1l-3 4zM-237 8012l-1 2l-4 1h-2v-1l4 -3l1 -1l2 1l-1 1h1zM-230 8014l-3 -1v-1l1 -2h2v-1l1 1l-1 4zM-262 8005l1 -1l1 -1v1h1l-1 2h-2v-1zM-260 8003v-1h-2v-2l4 -1v-2l1 -1h1v1h1l-3 3h-1v3h-1zM-251 7994l3 -3l2 -2h2l-2 3h-2l-2 2h-1zM-255 7992v-2l1 -1l2 1l1 -1v1l-3 3v-1h-1z"/><path class="chunk" data-i="2" d="M-235 7993l3 -3h-1v-2h1l-1 -2h2v2h4l-5 6l-4 6h-1v-2h-1v1l-5 1v2h-1v-2l-6 -1h-2v-2h2l2 -2h1l-1 1l2 2v-1h4l1 -1v-2h1v2l2 -2h2l1 -1zM-237 7987v-1h-1v1h1zM-236 7988l1 -1h-1l-1 1h1zM-240 7991l1 -1l1 -2l-2 -1v-1h2h4v2l-1 2v3h-1l-1 -1h1v-2v-1l-2 1v2h-2v-1zM-247 7987l1 -1l2 -2v2l-1 2h-2v-1zM-93 7917v2h-1h-1l1 1h2v-1l1 1v1h-2v3h-3l-2 -2v2h1l-1 1h-1v-2l-1 -3l1 -2l3 -3v1v1l2 -1v1h1zM-97 7921v-1l1 -2h-2v2l1 1zM-98 7922v-1h-1v1h1zM-94 7923v-1v-1h-2v1l2 1zM-264 7968l-1 -1l-1 -1v-1l4 1h1l-1 1h-2v1zM-237 7966l3 -2l2 -1l2 -1l1 2l-1 2h-2l-6 4l-2 1l-2 3h-1v-2h-2l-5 1h-1l1 -1h2v-2h2h1l-1 -2h2h3l3 -1l1 -1zM-250 7962h-2l1 -2l1 -1v1l2 -1l1 1l-1 1l-2 1zM-236 7959h-2h-5h-3v-1h1l-1 -1h-2v1l-2 -1v1l-4 -1l-2 -1l2 -3h2l3 -1l9 -3l3 3v2l-1 2h-2v1h2l2 1v1zM-243 7958v-1h-1v1h1zM-69 7908l-1 1l-2 -1l2 -3h3v1h1v1h-2v-1h-1v1l-1 1h1z"/><path class="chunk" data-i="3" d="M-66 7904v-1h2v1h1l-1 1h-1v-1h-1zM-64 7903v-1l2 -1v1l1 2h-1h-1l-1 -1zM-38 7899l-1 -1l1 -1h1v-1v-1l1 1v2l-2 1zM-42 7899l-1 -1l1 -1h1v-1l3 -3l1 1l-2 2l-3 3zM-61 7872h-1l-2 2v-2l4 -3v1v1l-1 1zM-57 7869h-1l-1 -1l3 -2v2h-1v1zM-49 7864h1v-2l2 -2h3v1l-1 1h1l-1 1h-2v1h1v2l-1 1l-2 -1v2l-2 -1v1l-1 2h1v1h-2l-2 1v2h-2l-2 2v2l-2 1h-1v1l-1 2h-2v1l-1 -1v-1h1l2 -1l8 -10l2 -2h1l1 -3l1 -1zM-69 7859v-2h1v-1h1v-1h1v1l-1 2h-1v1h-1zM-41 7859v-1h-1v1h1zM-43 7860l-1 -2h-1l1 -2h2l1 -2h-1v-1h2l2 3l-2 2l-2 3v-1h-1z"/><path class="chunk" data-i="4" d="M-98 7895v-1h-1v1h1zM-97 7899h-1l-1 1h1v1l-2 -1h-2v2h-2l-2 -2l1 -4v2h1v-2h1v-2h2v-2h1v2l2 -1l3 -1l-1 2v2h-2v1h2v1h-1v1zM-102 7899v-1h-1v1h1zM-104 7901l1 -1l-1 -1l-1 1v1h1zM-95 7892l1 -2v-1l1 -1h1l-1 4h-2zM-94 7889h-1v-1l1 -2h1v2h-1v1zM-74 7884l-2 -1v1l-2 -2l2 -1l2 -2l1 1v2l-1 2zM-74 7882v-1h-1v1h1zM-56 7848l-2 1l-1 -1l5 -4h1v-2l1 -1h2v1l-2 2l-2 3l-2 1zM-46 7825l-2 1v-2l3 -2v2h-1v1zM-45 7824h1l1 -2l1 -1l1 1l-2 4l-3 -1l1 -1zM-32 7820h-2h-2l-2 -1v2h-2l-1 -1l3 -2v-1h-2v-1l2 -2l2 1l2 -2h4l1 1v5l-3 1zM-32 7817v-1h-1v-2h-1v3h2zM-37 7817v-1h-1v1h1zM-35 7817v-1h-1v1h1zM-34 7818v-1h-1v1h1zM-30 7818v-1h-1v1h1zM-32 7820v-2h-1v1l1 1zM-57 7810h1v-1h2v1l-2 1h-1v-1z"/><path class="chunk" data-i="5" d="M-58 7811h-2v2h-3l1 -1h1l-1 -2h2v-2h1l1 2v1zM-49 7801v-1h-1v1h1zM-51 7804v-2h-1v1l1 1zM-54 7804v-1h-1v1h1zM-58 7810v-4l2 -2h-1l1 -1l3 -1v-2l5 -4v2l-1 2h2v2h1v1h-2v-1h-1v1h-1v1h-1l1 1l-2 2v-1v-1l-1 1l-1 3v-2h-2v2l-1 1h-1zM-42 7793l1 -1h1h1l-1 2h2v2h-2v2l-4 3h-2v-1h2l2 -2v-1h-2l-1 -1l1 -2l2 1v-1v-1zM-43 7792v-1h-1v1h1zM-44 7794h-2l-2 2l2 -4l2 -2h1l2 2h-1v1h-2v1zM-92 7831h-4v-1h1l-1 -4v-1l3 3h-1l2 2h1l-1 1zM-90 7813l1 1l-1 1l-2 6l-1 1v1l-1 -1l1 -2l1 -4l1 -2h1v-1zM-55 7756h-2v-2h-1v-1h2v-1l2 1h1l-1 1h-1v2zM-47 7753l-3 1h-1l1 -2v-1l2 1h1v1zM-38 7744v1l-4 1l1 -2l-1 -1l-2 1v-1h-1v-1l3 -2v2h1l1 1h1v1h1z"/><path class="chunk" data-i="6" d="M-42 7740v-1h3v-1v-1l1 1l-1 3v-1h-1h-2zM-44 7737l1 1l-1 1l-5 1l-1 4v1l-2 -1h-1v-2l8 -7v1l1 1zM-45 7738v-1h-1v1h1zM-51 7743v-1h-1v1h1zM-35 7727h1v-1h1v-1l1 1l-1 2h1h1l-1 2h-2l-1 -2v-1zM-76 7763l-1 -1l-1 -2l2 -1h2v1h-1v2l-1 1zM-10 7723v-1l2 -3l1 1l-1 2l1 2l-3 3l-2 -1v1l-1 -1v-1l3 -1h1l-1 -1zM-39 7733v-1h-1v1h1zM-41 7734v-1h-1v1h1zM-44 7734v-1h2l3 -6h2l1 -3h1l-1 -1v-1h2v-1l1 1l-1 2l1 1h-1v1h-1v1h-1v1h-2v2h-1l1 2v2l-2 1h-3v-1h-1zM-61 7716l-4 -1v-2h1l1 -1h-1v-1h2v-1l2 1l1 1h-1l-1 4zM-76 7727h-2l-5 -5v-2l2 -2h-1l4 -5h2v-1l2 1l4 1h2v2l2 2v-1h2v1l-3 4h1h1v2l-1 2l-8 -1l-2 2zM-74 7718l1 -1h-1l-1 1h1zM-73 7724v-1h-1v1h1zM-37 7641l1 1h1l1 4l4 4h2l20 10h2l2 -1v1l2 -1h4v-1l2 1h2l2 -2l2 1l2 -1v1l2 -1l1 -1h2l1 1l2 -1l3 4h-1l-1 5h-1l-2 1v-1l-2 1v-1l-6 1l-2 1v-1l-10 2l-11 -1l-4 -1l-17 -8h-2l-5 -6l-1 -1l-2 -5v-2l1 -2l1 -1l4 -1v1h1zM-34 7647v-1h-1v1h1z"/><path class="chunk" data-i="7" d="M-5 7530l-1 1l-2 -1v-3v-3v-4l2 1v-1h2h3h1l2 2h-1v2h1l-1 2v2h-3l-2 2h-1zM44 7520l-3 -1l-4 1l1 -10l2 -1h1l4 -1l3 1l1 1v2h1l-1 2l-1 4l-2 1l-2 1zM39 7519v-1h-1v1h1zM-454 7527v-1h-1v1h1zM-270 7509v-1h-1v1h1zM-271 7511v-1h-1v1h1zM-447 7534v-1h-1v1h1zM-444 7539v-1h-1v1h1zM-457 7550v-1h-1v1h1zM-314 7552v-1h-1v1h1zM-498 7646h-1v-2h-1v1l-2 -1h-1v-2h-1v1h-2v-1h1l-1 -1l-2 1v-2l-2 1l-1 -1h1v-1h-2v-1h-1v1h-1v-2l-2 -1l-3 -1v-1h-1v-1h-2l-13 -13l-1 -3l-5 -7l-1 -2l-2 -5l-3 -12l-1 -7l-1 -2h1v-2h-1l1 -2h-1l1 -2v-6l1 -2h-1l1 -2l1 -2l2 -6l2 -4v-2h1l-1 -2l4 -4l1 -3h2v-2h2v-1l1 -2h2l8 -6h2l2 -2l2 -1l16 -5l4 -1l30 -1l4 1l4 1l4 1l1 1v2l1 1h2l5 5v2l2 2v2h-1l1 2l1 2h-2v1h2v1h-1v3h-2v3l-2 2v2h-2l-1 4l-6 5l-2 1l-8 7l-8 5h-2l-4 2l-4 1l-2 1l-2 1v-1h-2l-4 -4v-4l4 -4h1l3 -2h3l5 -1l2 -2l4 -1v-2l4 -1l2 -3v-1h3v-1l4 -4l-1 -2h1v-2l2 -2l-1 -3v-1l-2 -2h-1v-2l-3 -2h-2l-2 -2l-4 -1v1l-2 -1h-6v1l-2 -1v1h-8l-9 2l-14 6l-3 1l-8 5l-2 1l-6 9l-1 4l-3 9v5h-1l1 2h-1l1 8h-1l1 2l1 2h-1l1 2l2 2l-1 2l1 2h-1l2 2l-1 2h1l2 2h-1v2l1 1h2v1l2 2v2l4 4h1v3h3v1l4 5l2 -1v2l2 1v-1h1v2l1 1l3 1h2l3 1v-1l2 2v1l2 -1v1h2l2 3l2 -1v1v1h2v-1l2 2l2 -1v1h4v1l2 -1v1l19 1l17 -4l12 -3l20 -7l27 -14l7 -5l5 -3l30 -24v-2l5 -2l2 -1l3 -3v-2h1l2 -2l1 -3h1l4 -3l1 -4l1 -2h2l1 -4l7 -6h1l1 -2l13 -16l2 -4l3 -2l1 -1l1 -1h-1l1 -2h2l-1 -2h1h1l5 -8l1 -2l2 -2l1 -2v-2l1 -3l1 -5l2 1l2 -1l2 -1l1 1v4h-1l1 2l-2 6l1 2h-2l1 2l-1 1l-5 9l-15 21l-20 23l-3 4h-2l-7 10l-18 17l-2 1l-20 16l-20 14l-7 4h-1l-2 2h-2l-2 2h-2l-3 2l-5 2l-33 12l-15 2h-28v1l-2 -1h-1h-5v-2l-2 1l-4 -1l1 -2h-1h-1l-1 -1v1zM-493 7648v-1h-1v1h1zM-42 7451l-3 -3l1 -1l2 1h1l-1 2v1zM-332 7482l-5 4h-1l-2 2l-3 1h-2l-3 1l-2 2h-2l-5 2l-21 5v-1l-2 1l-17 -3l-7 -1l-2 -2l-2 -2h-2l-10 -9l-1 -2l-2 -4l-1 -2h-2l-2 -4l-2 -2l-1 -3l-1 -4l-1 -3h-1l1 -2l-1 -3h-2v-1h1v-11l1 -5l1 -6h-1v-1h2v-3h1l-1 -2h2l-1 -2h1l4 -8l3 -4l2 -2l1 -2l9 -4l4 -1h8l6 1l3 2l6 3l3 3l2 4l3 4l2 2l2 2l2 8l-1 6l-1 4l-4 4h-2v2h-2l-2 2h-3l-6 2v2h-1v-2h-1v3l-2 5v2l-3 2h-3v-2v-9l1 -3v-2l1 -2l3 -3h2l3 -1l3 -1v-1l2 1l1 -1v-2l1 -1h2l2 -3h-1v-4l-2 -2l-2 -4l-9 -9l-1 -1h-2l-4 -2h-3l-4 2l-4 2l-4 4l-8 13v2l-2 9v6l5 14l1 2l3 6l3 4l2 2l6 7l2 1h2l2 1l2 2l16 3v-1l2 1h4l2 -1v1l2 -1l2 -1v1l4 -1l2 -1v1l2 -1h2l2 -2l3 -1h3l2 -1l2 -2h2l2 -2h2l2 -2l2 -1l9 -4l2 -1v-2h3l2 -2l2 -1l4 -3h2l2 -3l2 -1l22 -18l8 -7l14 -17l2 -3v-2l1 -2l2 -2v-2l2 -2l1 -2l6 -23v-2l1 -3l2 -2h-1v-1h2l1 -9h1v2v5l-8 34l-3 7l-1 2l-2 2v2l-5 8l-11 14l-6 6l-22 19l-26 18l-2 1zM-246 7369v-3h-1v2l1 1zM-247 7372v-1h-1v1h1zM-247 7374v-1h-1v1h1zM-248 7377v-1l-1 -1v1l1 1zM-250 7383v-1h-1v1h1zM-380 7414v-1h-1v1h1zM308 7810h-2h-10l-9 -2l-5 -2l-11 -6l-7 -5l-1 -1v-2h-1l-4 -4l-1 -2l-3 -3l-1 -3l-2 -2l-1 -2l-2 -7l-1 -3l-1 -6l-1 -2h1v-7l2 -9l2 -5l4 -6l20 -29l10 -9l34 -31l34 -24l55 -30l3 -1l2 -2l2 -1l11 -4l12 -5l30 -11l21 -6l7 -2h2l3 -1v-1h1v2h1v1h-2v-1l-2 1h-1v2l-3 1h-2l-2 1v-1l-2 2h-4l-22 6l-39 16l-18 8l-1 1l-2 2l-3 1l-12 6l-11 6h-2l-2 2h-2l-2 2l-14 9l-32 23l-32 30l-2 2v1h-2l-7 7l-2 4l-13 18l-7 12l-3 8l-1 5v13l1 3l2 5l6 10l6 7l4 2l4 3l2 2l5 2h1l2 2l4 1h2l3 1h9l7 -2l5 -2l2 -1l4 -5l2 -2l2 -4l1 -2l2 -2l1 -10h1l-1 -2h1l-1 -2v-4l-2 -4l-2 -5v-3l-3 -2v-2l-3 -3l-5 -2l-8 -3h-2l-2 1l-3 1l-2 2l1 12l-1 1h-2l-2 -3l-3 -5v-6v-3l3 -3l4 -1l2 -2h10l7 2h2l1 1l11 11v1l6 18l1 7l-3 14l-2 2l-1 2l-4 4l-1 2l-3 4l-11 5l-5 3zM288 7316v-1h-1v1h1zM312 7306v-1h-1v1h1zM518 7363v1l-5 6l-5 6l-4 2l-20 18l-6 4l-10 5l-2 1l-2 2h-2l-2 2l-3 1l-7 3l-32 12l-31 6l-25 1v-1l-2 1v-1l-14 -2h-4l-28 -8l-14 -6h-2l-2 -1v1h-1v-2l-4 -1l-3 -1l-2 -2h-1l-2 -2h-2v-2l-5 -3l-10 -9l-1 -4l-2 -2l-1 -7v-17l1 -5l2 -7l3 -8l2 -5l1 -2l1 -3h2v-2h1l-1 -1v-2h2v-2l1 -1h-1l2 -2l1 -1h1v-1h1l-1 -1v-1l2 -1v1h1l1 -4h2v-2l8 -5l2 -1l12 -3l6 -1l2 -1v1l2 -1l2 2l1 -1v-1l1 1v1l2 -1h10v1l2 -1v1l4 1l6 2l4 1v2l5 3h2l2 5h2l6 9l1 2l2 3l2 13h1l-1 2h1v6h-1l1 2h-1l-1 3l-3 7v2l-4 6l-6 6h-3v2h-1v-1l-1 1l-3 3v-1h-1v2l-3 1l-8 3l-3 1h-17l-2 -1l-8 -3l-5 -5l-2 -4l-1 -3l-1 -3l-1 -2h1l1 -6l2 -2l2 -2l15 -4h2l5 2l5 4v2h1l-1 2l1 2h-1l1 2v3h-2l-4 -4h-2l-4 -4v1l-2 -1v1h-4l-5 2v4l2 2v3l3 1l2 2l4 1l2 1v-1l2 1l8 -1l4 -1l6 -2l2 -1l2 -2l4 -1l6 -6l3 -6l2 -2l1 -6v-7l-2 -13l-2 -2v-2l-10 -10h-2l-7 -4h-3l-6 -1v-1l-2 1v-1l-14 1l-10 1l-7 2v2l-5 2v2l-7 4v2l-2 2l-1 2l-2 4v2l-3 2v2l-2 2l-1 3l-2 6l-1 3l-1 6l-1 16h1l-1 2l1 2h-1l2 2v4l9 9h2v2l2 1l5 2l2 1l3 1l2 2h2l17 7l29 9l19 3h28l12 -1l19 -6l5 -2l4 -1l11 -4l9 -4h1l2 -2l3 -1l8 -3l3 -1l2 -2h1l5 -3l19 -14v-2l9 -6l8 -9l2 -3l12 -15l2 -2l2 -2v1h2v1h-3v2h-1v1l-3 3h1v2h-3v2h1l-1 2l-4 4l-1 -1v1h-1l1 1zM516 7365v-1h-1v1h1zM188 8106h-3v-3h4l-1 1h-1l1 2z"/><path class="chunk" data-i="8" d="M138 8180l-7 1l1 -1h2l2 -1v1l2 -1h3l-1 1h-2zM154 8179h-8v-1h4v-2l2 2l2 -1v1v1zM160 8178h-4h-1l1 -2l-2 -2h7l-1 1h-3l1 1l2 2zM52 8174h-4l-2 1v-1h-4v-1h10v1zM-156 8188h1l-1 -1v-1h4v1h-1v3h-3v-2zM-151 8186h1v-2h2v1l-1 1h1l-2 2l-2 1v-1v-1l1 -1zM130 8157l-2 -1v1h-2l-1 -1l1 -1h2v-1l3 2l-1 1zM128 8145h-4v-1l-1 -2h1h2v-1l1 1v1h3v1l-2 1zM110 8150l-2 -1l-2 -1v-1h2v1l2 -1h1v1l-1 2z"/><path class="chunk" data-i="9" d="M102 8147h-10v-1h11l-1 1zM28 8150l-1 -1l-1 -1v-1h4v1h-2v2zM-124 8174h-1l2 -2l1 -4h2l-1 2l-1 2l-2 2zM-166 8202l-2 -1l-4 -3v-2l-1 -4h1l-1 -2h1v-8l1 -2h-1l1 -2l1 -12l-1 -2h1l-1 -2h1v-10h-1l1 -2v-30l2 -3h2l2 1l1 38h-1l1 2v2h-1l1 2v12l-1 2h1l-1 2v2h-1l1 2h-1v4h-1l1 2v1v3l1 4h2l-1 2h1l-1 2v1h-1l-2 1zM-250 8161l-1 -1v-2l1 -1l2 1v1h-2v1v1zM-280 8114l-1 -1l-1 -1l1 -2v-1l1 1v1l2 -1l1 2h-1h-2v2zM118 8109l-12 -1l2 -2v1h14l2 -2h3v2h1l1 -1h-1v-1h10v1h-3l1 1h5l-1 -1h-1l1 -1h2v1v1l1 -1l1 -1l2 2h2v-2l4 1h2v-1l2 1l2 -1v1h6l2 -2h2l2 1v-1h4v1l2 -1h1l2 1v-2h1l1 1h-1v1h4v1l-66 2v1zM125 8107v-1h-1v1h1zM131 8107v-1h-1v1h1zM-82 7460l1 -1h-1l-1 1h1zM-19 7426v-1h-1v1h1zM-16 7429v-1h-1v1h1zM-42 7436l12 -2l1 -1h-17v3h4zM-48 7435v-1h-1v1h1zM-50 7437l1 -1l-1 -1l-1 1v1h1zM-47 7436v-1h-1v1h1zM-46 7437v-1h-1v1h1zM-52 7438l1 -1h-1l-1 1h1zM-59 7439v-1h-1v1h1zM-60 7440v-1h-2l-1 1h3zM-58 7447v-1h-1v1h1zM-63 7452v-1h-1v1h1zM-67 7457l-2 1l1 2l-2 4l-1 2l-1 1l-1 -1l-1 -1v1l1 2l-1 2v2l-1 2l-2 2v2l-9 24l-4 12l-1 2h1l-1 2v1l-1 3l-2 2l1 2v1l-1 3l-6 23l-1 3l-1 2h1l-1 2l-2 14h1l-1 2h1v44l1 2h-1l1 2l1 6l1 2h-1l2 8l1 4l12 29l6 9l6 8l2 2h2l2 2v2h3v2l3 1l10 4l15 4l12 3h2l24 -3l11 -3l9 -4l5 -2l5 -2l3 -2h2l1 -2v-1l11 -7l12 -9v-2h2l5 -5l2 -4l7 -8l1 -3l9 -25l4 -23l1 -30l-2 -17h1l-1 -2l-7 -32l-2 -2v-1l-2 -4l-3 -5l-1 -2l-8 -12v-2l-4 -6l-16 -20l-1 -2l-5 -4l-2 -1l-14 -11l-2 -1l-1 -1v-2h-1v1l-2 -1v-2l-2 1l-2 -2l-2 -1l-8 -3h-2l-2 2h-2l-2 -2l-3 -1h-28l-15 4h-4l-1 2l-1 1v-1h-1v1l-1 3h-1v-2h-1l-2 2v2h1l-1 2l-2 -1v1v2h-1l-1 -1v1h-1v1zM-70 7462v-1h-1v1h1zM-71 7463v-1h-1v1h1zM-89 7468v-1h-1v1h1zM-76 7474v-2h-1v1l1 1zM-77 7476v-1h-1v1h1zM-78 7477v-1h-1v1h1zM-82 7487v-1h-1v1h1zM-88 7495v-1l-2 -1v1v1h2zM-89 7498v-2h-1v1l1 1zM-90 7499v-1h-1v1h1zM-90 7501v-1h-1v1h1zM-97 7507v-1h-1v1h1zM-98 7510v-2h-1v1l1 1zM-96 7511v-1l-1 -1v1l1 1zM-99 7511v-1h-1v1h1zM-102 7512v-1h-1v1h1zM-104 7528h2l4 -14l1 -2l-1 -1l-2 3v2h-2l1 2h-1h-1v4h-2l-1 3v4l2 -1zM-100 7513v-1h-1v1h1zM-103 7514v-1h-1v1h1zM-101 7514v-1h-1v1h1zM-102 7516v-1h-1v1h1zM-103 7517v-1h-1v1h1zM-104 7520v-1h-1v1h1zM-106 7525v-1h-1v1h1zM-108 7529v-1h-1v1h1zM-106 7531v-1l-1 -1v1l1 1zM-74 7469v-1h-1v1h1zM-75 7471v-1h-1v1h1zM-107 7532v-1h-1v1h1zM-104 7532v-1h-1v1h1zM-108 7534v-2h-1v1l1 1zM-104 7534v-1h-1v1h1zM-110 7539v-1l1 -2l-1 -1l-1 1v2l1 1zM-102 7542v-1h-1v1h1zM-103 7545v-1h-1v1h1zM-112 7575l1 -1v-2h2l1 -11l4 -12v-3h-1l-5 14l-1 3l-2 11l1 1zM-109 7574v-1h-1v1h1zM-114 7577l1 -1l-1 -1h-2v1l2 1zM-110 7576v-1h-1v1h1zM-108 7576v-1h-1v1h1zM-116 7579v-3h-1v2h-1v1h2zM-113 7579v-1h-1v1h1zM-118 7581v-1h-1v1h1zM-127 7590v-1h-1v1h1zM-128 7591v-1h-1v1h1zM-129 7592v-1h-1v1h1zM-130 7593v-1h-2v1h2zM-132 7594v-1h-1v1h1zM-54 7710v-1h-1v1h1zM53 7953l16 -5l18 -8l12 -4l3 -1l2 -2l2 -1l1 -1h-1h-1v-2h-2l-1 -5l-2 -2v-4l-8 -20l-10 -38l-10 -50l-1 -6h-1l1 -2h-1l-1 -10l-2 -7v-2l-7 -26v-5v-1l-2 1l-1 -2l2 -2l-1 -12l-1 -37l2 -11v-2l1 -2l-4 2l-4 3l-5 3l-9 7l-2 1l-21 10l-1 1l-2 1v-1l-2 1l-2 1l-4 1l-7 2l-9 -1v1l-2 -1v1l-14 1l-2 -2l-2 1l-2 -1l-5 -2l-11 -3h-4l2 2v2l-2 2l-2 -1v1l-2 22l1 2l-2 2l-1 4l1 2h-1h-1l-3 16v5h-2v4v5h-2v4v1l4 -3l2 -2l3 -1l12 -4l5 -1l1 2v4l-1 2l-6 1l-9 3l-5 4l-4 3l-4 2l-1 1l-5 16v4h1l-1 1h-1l-1 3l1 2h-1h-1l-4 12l-1 2l-2 2l-1 4l-3 10l-2 4l-2 4l-2 2l1 2l-2 2h1l-1 2l-3 9l-5 15l-1 4l-2 2v2l-3 6l1 2v2h-1l1 2h-1v2h-1l1 2v6h-1l1 2h-1v9h2l3 3l3 4h3l16 6l12 4l9 1l2 2l4 1v-1l2 2l5 1l10 2l12 3l53 -2v1l2 -1l27 -4zM-56 7714l2 -2v-1l-2 2v1zM61 7684v-1h-1v1h1zM-134 7994h2v-2l3 -2l-1 -2l1 -4l2 -2h-1v-2h2l-1 -2h1l1 -8l1 -2h-1l1 -11l-1 -3h-1l1 -2v-1l-1 -6l-2 -4l-3 -5l-1 -3l-4 -1l-6 -2l-3 -1h-16v-2h-9v1l-2 -1v1l-4 1h-2l-2 3h1v5h-2v1l-3 3l-3 3l-3 6l-1 2l-1 4l-1 2h1l1 4v2h4v3l2 -1l6 -2l5 -2l2 -1l2 -2l5 1v2h1l-1 2v2l-5 1l-2 3h-2l1 2l-2 2l1 8l2 2v3l10 -1l2 -1v1l2 -1h1v-5l3 -2h2l3 4l6 8l1 2l4 3l4 -1zM-193 7936v-1h-1v1h1zM-194 7938v-1h-1v1h1zM-128 8061v-1l4 -1l5 -1l-1 -20l-2 -9l-2 -8l-5 -19l-1 -2l-2 1h-1h-7l-2 -1h-2l-2 -1v-2l-4 -5l-1 -2l-3 -4h-1l-1 4v2l-8 2h-9l-3 -1l-2 -1l-1 -3l-2 -6l-1 -3v-7l-8 1l-1 2l-1 2l-4 4l-8 12v2l-2 2v6l3 12l1 8h2l2 2v1h-3v2l7 26v5h1l1 -10v-5l-1 -5l3 -2h1l25 -1v1l2 -1v1l4 1l6 2l4 1l2 2l4 1l14 2l1 1v2h1l-1 2l-2 8l1 1zM-268 8032l-1 -4l-2 1l3 3zM-264 8005v-1h-1v1h1zM-262 8006l-2 2l-3 1l1 2v2l4 12v3l2 2l-1 2h1v2l3 4l15 15l8 6l2 2l1 -1l1 -4l-1 -2h1l3 -20l1 -4l8 -25l1 -3l2 -2l1 -2l1 -2h-1l-3 -16l-4 -19l-3 -11l-3 -6l-5 -12l-1 -4l-7 -7l-2 -1l-4 -2l-2 -1l-4 -4v1h-4l-3 2l-5 2l-2 2h-2l-2 5h-2l-2 3v3h-2l-1 7l-2 2v8h-1l1 2h-1l5 22l8 27l3 -2l4 -2l2 -3h3l1 1l-4 1v1l-1 1l-3 3l-4 1v1l3 1h1v3l-1 1h1zM-265 8007v-1h-1v1h1zM-266 8008v-1h-1v1h1zM-200 8074v-2h1l-1 -2l-2 -14l-2 -11l-6 -31l-1 -6h-1l-1 3l-1 5l-4 11l-3 10l-1 9h-1l1 2l-2 16l2 1l2 1l15 6l5 2zM-199 8026v-1h-1v1h1zM-140 8078l1 -6l2 -2l2 -11l1 -4v-2l-8 -1l-6 -1l-2 -2l-2 -1l-7 -2l-2 -1l-21 -1v-1l-2 1l-2 2v2l-2 3l-2 13l-3 14l1 1l14 4h2l14 4l5 1l13 4h3l1 -14zM-106 8102l2 -1l3 -1l9 -4h2l4 -4l-1 -2h1l-1 -2h1l-1 -2l1 -2h-1l-1 -10l-4 -4h-2l-15 -8h-1l-2 -1v1l-2 3h-2l-2 -2l-6 1l-2 2v1l-1 3h3v2h2l-1 6l-3 3l-3 -1h-1l-2 -1v1v2l1 1v-1l1 -1v1l4 1v1l-4 4l2 2h1l2 -5l2 -3v-2l1 -1h2l4 -5l-2 -2l-2 -4l-2 -2v-2h2l2 2l3 6l1 1h4l5 5l1 4l-1 2h1v2h-1l1 2v1h-2v1h1v2l-3 5v1l-1 2h1l2 2zM-110 8075v-1h-1v1h1zM-133 8079v-1h-1v1h1zM-109 8079v-1h-1v1h1zM-85 8079v-1h-1v1h1zM-111 8098l1 -2l1 -4l1 -3l1 -5h1l-1 -2l-1 -2l-1 -1v1v2v6l-2 5l-1 5h1zM-131 8085v-1h-1v1h1zM-130 8087v-1h-1v1h1zM-123 8089l-1 1l-2 2l-1 3v2h2l5 -1v2l2 -1h1v1l1 1l1 -1l1 -6l2 -4l1 -2l-2 -2l-1 -4v-2h-2l-2 2l-2 5l-1 3l-1 1v-1v-1l-1 1v1zM-126 8091v-1h-1v1h1zM-83 8091v-1h-1v1h1zM-131 8092v-1h-1v1h1zM-130 8097v-1l1 -3h1l1 -1l-1 -1l-2 1h-1v2l-2 2h1l2 1zM-83 8094v-2h-1v1l1 1zM-107 8095v-1l-1 -1v1l1 1zM-128 8096v-1h-1v1h1zM-108 8097v-1h-1v1h1zM-122 8098v-1h-2v1h2zM-86 8107v-1l1 -6h-1l-1 2l-1 2h1v2l1 1zM-98 8105v-1h-2v1h2zM-96 8105l1 -1h-1l-1 1h1zM-93 8105v-1h-1v1h1zM-100 8107v-1h-2v1h2zM-98 8108v-2h-1v1l1 1zM-96 8107v-1h-1v1h1zM-281 8036v-1h-1v1h1zM-287 8060v-1h-1v1h1zM-288 8076v-2h-1v1l1 1zM-138 8168l3 -2v-2l2 -2h-1h-1l-2 -2h-1l-4 4l-2 2l2 2h4zM-145 8170v-1h-1v1h1zM-140 8172v-1l-4 -1h-1l3 3l2 -1zM-89 8119v-1l1 -3v-4l1 -3l-1 -1v1v1l-2 5v4l1 1zM-94 8119v-1h-1v1h1zM-114 8151l5 -5l1 -3l6 -8l4 -7l2 -5l1 -3h-1v2l-4 6l-3 6l-5 4v2l-2 2h-1l-3 5v3v1zM-94 8144v-2l1 -2l1 -4l2 -14l-1 -1v1l-1 6l-3 16h1zM-104 8130v-1h-1v1h1zM-96 8134v-1h-1v1h1zM-116 8154v-1h-1v1h1zM-127 8158l-1 2l5 -1h2l2 -6l3 -8l1 -1l1 -2l-5 -1l-5 -2l-1 -1l1 -2h2l2 2h2l6 1l7 -7v-2h-6l-4 -2h-1l-4 -4l2 -1v1l5 2l3 2h2l3 -2h1l2 1v-1l2 -2v-2l2 -2l1 -3v-2l1 -3l2 -2l1 -2l1 -2h-2l-4 3l-6 -1l1 -2v-1l-7 -2h-2v3h-2v2l-2 4l-3 5v1l-2 2l-1 3l-6 19v2l-2 2l-1 4l-3 2v3h-2v2h2v1h-1l1 1l2 1l2 -2l-2 -1l-1 -1h1l4 -1v3h1zM-136 8158v-1h-1v1h1zM-137 8159v-1h-1v1h1zM-129 8160v-1h-1v1h1zM-128 8169l1 -1v-2l3 -2v-1h-4v1l-2 -1h-2v3l-2 2h2v-1l2 1l2 1zM-133 8166v-2h-1v1l1 1zM-135 8168v-1h-1v1h1zM-134 8174l2 -2v-1h-2v1l-2 -2h-4l2 2v-1l1 1v2h3zM44 8117v-1v-1h-2v1l2 1zM47 8117v-1h-1v1h1zM50 8118v-1h-2v1h2zM42 8119v-1h-1v1h1zM37 8120v-1h-1v1h1zM59 8114v-1h-1v1h1zM86 8114l1 -1h-3l-1 1h3zM90 8114v-1h-2v1h2zM71 8115v-1h-1v1h1zM74 8115l1 -1h-1l-1 1h1zM77 8115v-1h-1v1h1zM81 8115v-1h-1v1h1zM61 8116v-1h-1v1h1zM63 8116v-1h-1v1h1zM67 8116v-1h-1v1h1zM70 8116v-1h-1v1h1zM-140 8174v-1h-1v1h1zM-141 8177l-1 -1v1l-1 1h1v1h-2l-1 1h1v1h-4v-1l3 -2v-2h1h1l-1 -1l-3 -1l-2 -4l-2 -3h1v-1h2l-1 -2h1l6 -6l2 -2l4 -6l7 -15l3 -10l4 -11l4 -6v-2h-3l1 -1h3v-3l1 -2h-2l-4 3l-6 -1v-1l-2 1v-1h-3l-5 1l-16 -4l-2 -1v1l-2 -1l-4 -3l-3 -1h-2l-8 -2l-6 -1l-5 -2l-10 -3l-2 -2l-4 -1l-4 -3l-1 -1l-8 -2l-3 -1l-2 -2l-5 -1l-5 -2l-8 -4l-2 -1l-14 -14h-2l-2 -3v-1h-2l-2 -2v1h-1v-2h-1l-4 -3h-2l-2 -2l-5 -5l-1 -1l-2 -5l-1 -2h1h1l-1 -2l2 -1l1 -1h2l5 1v-3l-1 -4l-1 -2h1l-1 -4l-4 -16l-10 -35l-1 -5l-1 -9l2 -7l2 -8h1l-1 -2h1l1 -2l2 -5h2l1 -1v-2l7 -6h1l6 -4l5 -2l4 -1h7l3 1l8 7l4 2l2 3l2 2l2 4l2 2v2l2 4l2 8l1 6l-2 2l1 2l1 4l1 3l1 4l1 3l2 2l1 4v2l1 4l2 5l1 7h1l1 -2l1 -2l11 -14l-2 -2l-1 -5v-12v-2l2 -3v-2l2 -2h-4l1 -8l3 -2l4 -3l2 -1l9 -4h3l2 -2h3h3h2l5 1l1 -9l4 -17l1 -3l2 -2l1 -4l2 -2v-3l4 -10l2 -5l10 -19l14 -16l1 -3l17 -16l7 -5v-2h1l4 -3v-2l14 -14v-2l1 -2h-1l1 -2h-1l1 -2l-1 -2l2 -2l1 -3v-1l-1 -2h1l1 -6h-1l1 -2v-1l2 -3v-2v-1l-3 3v1l-1 -1v-3h2v-2h2l1 -1l3 -13l1 -5h1l-1 -2h1v-3l2 -3l2 -5l2 -13l-2 -1h-1l-5 -3l-7 -3v-2h-1l-2 -1v-2l-2 -1l-2 -1v-2h-2v-2l-6 -8l-1 -2l-2 -2l-1 -4l-2 -2l-1 -3l-5 -14l-2 -4l-2 -8l-2 -4l-2 -19l-1 -18h1l-1 -2v-24h-1v2h-2l-5 8l-17 17h-2l-4 5h-5v-4l3 -3l6 -4l3 -3h-1l-2 1l-2 2l-3 1h-2l-3 1v1l-2 -1v1l-2 -1h-1l-1 -2v-2l1 -2l8 -3l7 -3l6 -4l2 -1l7 -6l1 -2l3 -7v-1l-1 -2h1l5 -20v-2l1 -2v-1l-1 1l-2 4l-2 2h1l-4 4v3h-2l-1 4h-2v1l-4 4h-1l-1 4h-2l-2 2h-6v1l-2 -1v1l-16 -1l-9 -1l-3 -1l-5 -2l-5 -2l-1 -4l-2 -2l-1 -4v-8v-3l2 -3v-2l4 -3l2 -1l4 -1l6 -1l5 4l1 2v2l1 2l-1 2l-2 2v2l-4 3h-2l-3 -3v-2l1 -4h1l-1 -1l-4 1l-2 2v2l-1 2v4l1 2l2 4l2 2l2 1l5 1l6 1l25 1l8 -8v-2l4 -6l1 -2l2 -2l1 -2l7 -15l2 -3v-2l2 -2l1 -4l2 -2v-2l2 -1v1v1l1 -1v-1l1 -1v-2l2 -2l1 -1v1l1 1v-1v-1l1 -1l-1 -1v-1l1 -2l1 -7h2v-1l2 -2l1 2v3h2l1 -3l5 -13v-1l2 -2l-1 -2l2 -2v-2l2 -2v-1l3 -5l1 -4l2 -2v-2l2 -2l-2 -1v1v1l-2 -1v2l-2 1v-1h-1v1h-1v1h-1v1l-1 1h1l-6 6v2h-1l-2 2l-1 3h-1l-2 1v2l-2 2v2l-2 2v2l-2 2h-2v2l-3 4l-8 10l-1 2l-2 1l-2 1l-12 9l-7 4l-5 2l-4 1l-2 1v-1l-2 1l-14 -1l-5 -1l-7 -2l-4 -3h-1l1 -2h-2v-1h2v-1h-1l1 -2l2 -2l8 1l2 2h1l5 1l4 1l2 1v-1l10 1v-1l2 1v-1l6 -1l2 -2h2l2 -2l3 -2l7 -4l2 -1l3 -3l15 -20l5 -8l1 -2l2 -2l10 -8l2 -2l2 -2l2 -1l2 -2h3v-1l-1 -1v1h-1v-2l-1 -1v1h-2l-5 2l-3 2l-13 12l-12 8l-15 8l-12 2l-5 1h-11l-10 -1h-12l-6 1l-3 -3l1 -2l6 -7l12 -1l16 4h4l2 1v-1l2 1v-1l10 -2l8 -2l4 -1l4 -1l2 -2l2 -1l12 -9l3 -1v-1l3 -3l6 -5l10 -4l6 -4v-1l2 1v-1l3 -1h2l9 -6h2l13 -3l11 -1l2 1v-1l2 1l1 1h2l2 1v2l5 3l9 3l15 5l5 2l5 2l9 6l11 9l2 2l6 5l2 3l14 19l4 5l3 7l13 24l4 14l2 6l3 16l1 2h-1l1 2l1 40l-1 2h1l-1 2v6l-6 24l-6 16v2l-2 2v2l-2 2l-2 5h-2l-2 3l-5 8h-2v2l-5 3l-1 1h1v2h1l-1 2v2h-1l2 2l-1 2h1l-1 5l-1 9h1l-1 2h1l2 13l4 23h2l3 -2l19 -15l18 -19l18 -20h2l28 -35l1 -3h2l5 -8h2l1 -2l10 -14l1 -2l1 -2h-1v-2l-1 -2l-5 -17l-2 -10l-2 -28l1 -4l1 -4l1 -3h2l8 -11h2v-3h1l2 -2h8l2 2h2l2 2v1h2v2l2 2v2l-1 2l1 5v10l-1 4l-1 5l-3 11l1 1l1 -1l1 -3l9 -11l1 -1h2l3 -3v-2h2v-2l17 -12l8 -4l3 -1v-2h3v1l2 -1v1h4v-1l1 1l1 1v-1h1v2h1v-1l3 3l-1 2l2 2h-1v2h1l-1 2l-1 6l-2 2v1l-3 5l-9 8l-3 2v2h1v-1l2 1l5 1l3 1h2l6 4l1 2l2 4l2 3l-1 2v1l-1 2h1l-2 2h-1v2h-1l-2 2l-2 2v-1l-2 1l-3 1v1l-1 1v-1l-6 1v1v1l-2 -1l-1 2l6 6l1 4v5l-2 5h-2v2l-2 1l-4 3h-2v-1l-2 2l-2 -1v1l-10 1v1l-2 -1v1l-4 1v-1l-2 1h-6l-15 3l-7 1l-2 -2v-4l4 -3l8 -1l2 1v-1l2 1l2 -2h6v-1l2 1l2 -1v1l14 -3h4l6 -3l4 -3l-1 -2h1l-2 -2v-2l-2 -1h-2v-1l-2 -2h-1l-3 -2h-2l-2 -2l1 -4v-2l5 -1v-1l2 1v-1h4l2 -2h3l5 -2h2l4 -3l3 -3v-2l-5 -5l-5 -1h-19l-2 2h-1l-5 3v1l-2 2l-3 -1h-1l-2 -1v-4l2 -3h2v-1v-1l2 1l2 -2h1l4 -2l1 -1l2 -2h2l4 -3l8 -7l3 -3v-1h2l1 -3l4 -5v-2l1 -3l-1 -2l-5 1l-3 1l-4 1l-2 1l-4 3l-2 1l-4 4l-16 14l-2 2v1h-2l-1 4h-1l-2 1v2l-3 2l1 2h-2v2h-2l1 2l-2 2l-3 4h-2h-2h-2l-2 -2v-6h1l-1 -2h1l1 -10l4 -13l1 -6v-8l-1 -7l-2 -2h-2l-5 4l-5 8l-2 2l-1 5l-1 7h1l-1 2l2 19l6 20l1 3l3 4v6l-2 2l-5 8h-2l-3 6h-2l-1 2l-7 10l-4 3h-1l-4 5l-27 33h-2v1l-6 7h-2l-1 1l-6 8l-9 9l-5 3v2l-3 2l-26 19l-2 1l-1 2l4 24l1 2h-1l1 2v5l11 37l1 6l-2 2h-4v2l1 2l7 30l12 40l2 8l1 2l2 2l1 3v2l1 3l2 2l1 6l2 -1l1 -1h2l2 -1h5h2v5l-2 1l-6 1l-2 2h-2l-5 2l-6 3l-3 1l-2 2l-4 1l-7 3l-12 4l-7 2l-7 3l-1 2v2l-1 2h-1l-2 1v-1l-8 -1l-1 4l1 2l1 3l1 3l-1 4v17h3l1 1l2 34h1l-1 2h1l-1 2h1l2 70l1 2h-1l1 6h2l7 1v-2h2v1h-1l1 1l2 -1v1l22 -2l1 1l-1 2v1h-2v1l-2 -1l-6 1l-2 1v-1h-4v1l-2 -1l-16 1l1 13h1l-1 2h1v29h2v1h-1v10h5v1h-4l4 35l2 2h3l29 8l10 2v-1l2 2h2v3h-1l1 2l1 4l-1 1l-5 -1l-2 -5l-18 -3l-25 -7l-5 -5l-3 -35h-2v-1h2v-4l-2 -10l1 -2h-1v-8h-1l1 -2l-1 -16l1 -2h-1l-1 -12l-2 1l-6 -1h-1l1 1h1l-1 1h-4l-2 1v-1l-2 1h-2v-1h1l-1 -2h-2l-1 -2h1l2 1l2 1v-2h2l-1 2h1h1v-2h1v2h1v-4h3l2 2v-1h2v1h1v-2h1v1l1 -1l-1 -18l-1 -2h1l-1 -2h1l-1 -2l-1 -43l-2 -15l-2 -1v1l-2 -1h-2l-1 -1l-1 -6l-1 -61l-45 3v1l-2 -1v1h-2l-1 13h-1l1 2v2l-1 2h1l-1 2v4l1 2h-1l-1 12l-13 108l-2 12v2l1 2h-1l1 2h-1l1 2h-1l-1 7l-1 5l-1 6h-1l1 2h-1v2v4v2l1 2h-1v12l-1 2h1l-1 2l-1 20l1 2l-1 2h1l-1 2h1l-1 2v2l2 1v-1v-1h4l1 1l3 6l1 2l1 1l4 1l2 2l2 1l20 17l2 2l2 1h2l2 1l3 2l-1 2l1 2l-3 2h-2l-1 -2v-1l-2 -1l-4 -2h-1l-12 -12v-1h-2v-1l-2 -3l-7 -3l-5 -2l-4 -2l-2 -1v-1l-4 -4h-2l-2 -2h-2v-2l-1 -2l2 -42l1 -2h-1l1 -2h-1l1 -2v-2h-1l1 -2h-1l1 -2l1 -10l1 -7l1 -15h-4l-17 4h-3l-5 1l-1 -1v-2l1 -2h2l3 -2l19 -3v-1l2 1v-1h4v-2l4 -28l6 -63l6 -44l1 -4l3 -6l1 -4h-7l-2 1v-1l-2 1v-1l-6 -1l-12 -2l-4 -1l-5 -1l-4 -2h-3l-2 -2l-28 -8l-10 -4h-2l-7 -8l-1 -2v-1l-2 2l-5 -1v-2l-2 -2l1 -16h-1l1 -2h-1l1 -2l1 -9l1 -6l1 -3l2 -2l2 -7l11 -30l10 -27l1 -3h2l1 -4l4 -10v-1l-1 -2l2 -2l-1 -1l-6 6l-2 2l-1 1h-1l-2 2h-1v2l-5 2v2h-2l-12 12l-2 3l-12 16l-3 5l-3 5l-3 5l-2 5l-6 16l-1 2l-2 5l-6 18l-2 5v2l-1 2h7l2 -1v1h4v1l2 -1v1l5 1l9 2l7 12l3 5l2 4v2l1 6l-2 18h1l2 2l-1 5l-1 2l-6 13l-2 2h1l1 3l4 17l1 4l5 22h-1l1 2v10l2 1l1 1h2l6 4l1 1l2 2l3 1h2l5 4l2 2l1 5l1 5h1l-1 2l2 1v-1l8 1l1 1l-1 4v2h-2l-6 26l-5 22l-5 15l-6 18v3l2 2v2l-1 2h1l-1 2l-1 2h1l-1 1h-1v1l1 2h-1l-1 4l-2 8l-3 8l-4 1l-5 1l-55 -1h-2l-4 1l-30 -7l-7 -3l-4 -1l-2 -1l-2 -2h-3v2l-3 2l-2 1v-1h-2l-2 -2l-1 -9l-5 -1l-2 -2h-1l-5 -3l-24 -14l-12 -13l-8 -9l-2 -6l-1 -2h-2v-3l-1 -2l2 -2h-1l1 -24h1l-1 -2h1l2 -14h1l-1 -2v-1h2v-7h-1h-1l1 -1l1 -1h-1v-2v-3v-3l2 -2l1 -11h-2v-1l2 -2l-1 -1h-1l1 -1h1v-12l2 -2l-1 -2v-2l2 1v-1l-1 -2l2 -2l1 -2v-1l1 1v1l1 4l-1 3l-1 8l1 2h-1v2h2l-2 2l1 2h-1v1h1v1l-1 2h1l-1 2v6h1l-1 2v4h2l1 2h-1h-1v2l-1 10h1l-1 2v3l-1 1h1l-1 2l-1 2h1l-1 2l-2 12l1 2h-1v2h1l-1 2v2h1l-1 2v2l1 2h-1l2 10l-1 2h1v2l2 2v2l2 2l6 9l13 11l17 10l2 2h2v1l1 -1h1v2h2l2 2l2 1h2v-2v-11h-1l1 -2h-1l1 -2h-1l1 -4h-1l1 -2l-1 -10h-1l1 -2v-10h-1h-1l1 -2l1 -4h-1l1 -2v-2h-1l1 -2v-16h-1l1 -2h-1l1 -2l-1 -4h1l-1 -2v-8l2 -12l2 -1h3l1 13h-1l1 2v8h-1l1 2v2l-1 2h1v4l-1 2h1l-1 4h1l-1 2h1l-1 2h1l2 22v1l-1 1h1l-1 2v10h1l-1 2h1v4h1l-1 2v18l-1 4l1 1l2 1h2l2 1l2 2l2 1l9 3l3 1v1l2 -1v1l4 1l12 2l18 2v-1l2 1l4 1l2 -1h2v1l2 -1l2 1v-1h2v1l2 -1h34l1 -2l1 -1v-2l1 -2l3 -11l2 -2l1 -3v-2l1 -3h-1l-1 2l-3 6l-1 2h-4v-2h2l2 -2v-2h2l-1 -2h1v-2l2 -2l1 -2l3 -11l3 -25l-1 -1l-1 1l-1 2l-2 4l-13 16l-9 11v1v1l-2 -1v2h-1l1 2h-2v-1l-2 1v2l-4 1l-4 1v-1l-2 1v-1h-1zM-138 8174v-1h-1v1h1zM-101 8176v-2h-1v1l1 1z"/><path class="chunk" data-i="10" d="M362 8172l-4 1l-1 -1l1 -1h2v1l2 -1h3l-1 1h-2zM275 8201h-5v-1v-1l2 1h2v-1l1 1v1zM186 8198h-2v-1l-2 1l-1 -2h1l3 1h1h1l-1 1zM191 8177h-5v-1h2h1l-1 -2h5l-1 1h-1v2zM239 8175h-3v-2h4l2 1v1h-2v-1h-1v1zM469 8152h1v4l-4 1l-1 1h1v1l-7 -2h-2v2h1h1l-1 1h-3l1 -2v-2h2l2 -2h4v1l1 -1l1 -3v1h2v2h1v-2zM460 8156v-1h-1v1h1zM462 8157l1 -1l-1 -1l-2 1v1h2zM468 8156v-1h-2v1h2zM382 8171h-8v-1h9l-1 1zM373 8172h-3l-2 -1v1h-2l2 -2h5v2zM326 8156h-6v-1h7l-1 1z"/><path class="chunk" data-i="11" d="M348 8130h-2l1 -2h-1l2 -2v1h2v2l-2 1zM346 8126h-6v-1h7l-1 1zM340 8128l-6 -1h-1l1 -1h1h3h2v2zM293 8167l-1 1h-1v-2h-3v-1l5 1h-1v1h1zM620 8163l-4 -1l-2 -3h-2l-31 -10h-2l-4 -1l-183 -37l-12 -1v-1l-2 1v-1l-44 -2v-1l-2 1v-1l-4 1v-1l-2 1v-1h-36l-2 -1v1l-2 -1l-1 1h-2l-17 -1l-3 -3l1 -1h8v-1l2 1l20 1l2 -1v1l2 -1v1h2l2 -1v1l2 -1h10v1l2 -1h2v1l2 -1v1l2 -1l22 1v1l2 -1v1h12l2 1v-1l2 1h8l2 1v-1l10 1l2 1v-1l2 1l20 2l2 1v-1l2 1l18 3l2 -1v1h2v-1l2 2h2l2 -1v1l2 -1v1h2v1l2 -1l2 1l2 -1v1h4v1l2 -1l8 1l2 2v-1h2v1l2 -1v1l4 1v-1l2 1l4 1v-1l2 1l49 11l79 22l13 5h1l2 1l-1 4h-1l-2 1zM388 8109v-1h-1v1h1zM494 8124v-1h-1v1h1zM282 8110h-24l-2 -1v1h-1v-2h-9h-3h-6h-2l-1 -1l-2 1v-1l-4 -1l-2 1v-1l-2 1v-1l-2 1v-1h-12l-2 -1v1l-2 -1v1h-2l-2 -1v1h-4v-1l-2 1l-2 -1v1h-2l-2 -2v-1l2 1l4 -1v1l2 -1l2 1h2l4 -1v1l2 -1l62 4v1l2 -1l2 1v-1h8v3z"/></g><g class="f live" data-r data-f="0" fill="var(--live,#000)" fill-rule="evenodd"><path class="chunk" data-i="7" d="M-254 7272v-1h-1v1h1zM-249 7272l-3 3l-6 2l-4 1l-3 1h-22l-5 -1l-3 -1l-2 -1l-7 -4l-2 -5v-9l1 -4l1 -4l6 -8v-2h2l1 -2l1 -2h2v-2l8 -5l6 -3l10 -4l13 -4h5v-1l2 1v-1h19l6 1l4 1l6 2l11 5l5 2l3 1l2 3l2 1l9 7l3 1l2 3v1h2l2 3v1h2l5 5v2h2l3 6l2 2v2l2 2l1 6l2 2h-1l1 2l2 28v2h1l-1 2h1l3 22l-5 5l-4 -1h-2v-2l-2 -2v-2h-1l1 -1h1l-1 -31h-1l1 -2h-1l-2 -16l-1 -7l-2 -3l-1 -2l-6 -9h-1l-5 -5v-1l-16 -13l-3 -2h-2l-2 -3l-3 -1l-7 -2l-7 -4h-3v-1l-2 1v-1l-16 -1l-2 1v-1l-2 1h-6l-2 1v-1l-14 3l-2 2h-3l-5 2l-4 2l-6 5l-3 3l-6 8l-1 2l-2 2l-1 10l3 2l4 3l7 1h20h3l3 -2h2v2h1v-2h2l3 1v1h1h1zM-254 7274v-1h-1v1h1zM-282 7279v-1h-1v1h1zM-261 7276v-1h-1v1h1zM-266 7278v-1h-1v1h1z"/><path class="chunk" data-i="9" d="M312 8203v-1l-2 1l-1 -1l1 -1h5l-1 1l-2 1z"/></g><g class="f live" data-f="1" fill="var(--live,#000)" fill-rule="evenodd"><path class="chunk" data-i="7" d="M-254 7274l-1 -1h-1v1h2zM-248 7274l-3 4l-8 2l-5 2h-3l-21 -4l-4 -2l-3 -1l-2 -1l-7 -5l-3 -3v-8l1 -4l2 -4l4 -10l1 -2h1l1 -2v-1l1 -2h2v-2l8 -5l8 -3l11 -3l11 -2l3 -1l1 -1v1l1 -1h17l8 1l6 1l8 2l14 5l5 4h2l3 4l1 1l8 7l2 1l3 2v1h1l2 2l1 1h1l5 3v1h1l2 6l1 2v1l1 3l1 7l1 3l-1 1l1 2l6 29v1l2 1l-1 1l1 1l6 25l-5 6l-6 -1l-2 -1l-1 -2l-2 -2l-1 -3l-1 -1v-1h2l-3 -32l-1 -1h1l-1 -2l-1 -16l-1 -9v-3l-1 -3l-5 -6h-1l-5 -3v-1l-15 -11l-2 -3h-2l-3 -4l-2 -1l-9 -3l-9 -3l-4 -1l-1 -1l-1 1l-2 -1h-18l-1 1l-1 -1l-1 1h-5l-1 1l-1 -2l-12 2l-2 2h-2l-6 1l-5 2l-7 4l-2 3l-5 10l-1 2l-2 2v9l2 3h1l3 2l7 2l18 2h3l4 -2h2v2v1l2 -1v-1h2l5 1v1h2zM-254 7277v-2h-2v2h2zM-283 7279l-1 -1v-1v1l1 1zM-263 7279v-2h-2l1 2h1zM-269 7281v-2h-1v2h1z"/><path class="chunk" data-i="9" d="M315 8204l-2 -1l-1 1l-2 -2h1h6v1h-1l-1 1z"/></g><g class="f live" data-f="2" fill="var(--live,#000)" fill-rule="evenodd"><path class="chunk" data-i="7" d="M-252 7273h-1h1zM-248 7273l-2 2l-5 2l-3 2l-2 2l-26 2l-7 -1l-5 -1l-2 -1l-8 -7l-2 -7v-12l2 -5l2 -4l7 -7v-2h2l1 -1v-1l1 -1h1l1 -1l5 -4l5 -4l10 -5l16 -4h6l1 -1l1 1l1 -1l20 3l6 2l3 2l6 3l12 6l6 2h3l3 2h3l7 3l2 1l2 2v1l1 1l1 2v1l1 1l4 6l1 2h1l4 7l2 2v1l3 2l2 6l3 2l-1 1l1 1l3 35v1l1 1l-1 1l1 2l1 16l-5 4l-3 1h-1l-1 -1l-1 -2v-1l-1 -1v-1h2l-2 -30l-2 -2l2 -1l-2 -1l-4 -18l-2 -8l-2 -3l-1 -3l-6 -9l-2 -1l-3 -5v-1l-13 -10l-3 -1h-1l-4 -1l-3 -1l-7 -2l-6 -3h-2l-1 -2l-1 1l-1 -1l-15 -4l-1 2l-1 -2l-1 1h-9l-1 1l-2 -2l-18 4l-2 2h-3l-5 2l-3 2l-5 3l-2 2l-6 7l-2 2l-2 3l-2 13l3 3l1 1l4 4l10 2l24 -1l3 -1l2 -1h2v1h1v-1h1h3v1h1zM-252 7275v-1v1zM-280 7283v-1h-1v1h1zM-257 7277v-1l-1 1h1zM-261 7280v-1h-1v1h1z"/><path class="chunk" data-i="9" d="M314 8207l-1 -1l-1 1l-1 -2v-1l6 1l-1 1h-1l-1 1z"/></g><g class="f jolt-f live" data-f="3" fill="var(--live,#000)" fill-rule="evenodd"><path class="chunk" data-i="7" d="M-249 7275v-1h-1v1h1zM-244 7275l-3 2l-7 2l-5 1h-4l-22 -1l-3 -1h-2l-2 -1l-8 -4l-4 -5l-5 -8v-3l1 -4l4 -7l1 -3h2l2 -1v-2l2 -2h2v-2l11 -7l8 -4l9 -2l11 1l5 1l1 -1l1 2l1 -1h23l8 -1l5 -1h6h7l2 2v1l1 3l1 1l6 8l3 2l3 3v1l2 1l3 2l1 2h2l7 5l1 2h2l4 8l1 2l1 2l2 3l1 8l2 3h-1l1 2l6 22v1l1 1l-1 1h1l3 23l-3 4l-4 -1h-2v-1l-2 -2v-2l-1 -1h1h2l-5 -26l-2 -1l1 -1l-1 -1l-4 -17l-2 -8l-1 -4l-2 -3l-8 -10h-2l-6 -4l-1 -1l-13 -13l-1 -2v-1l-1 -3l-1 -1l-3 -2h-6h-3l-1 -1l-2 1h-1l-22 1l-1 1l-1 -1l-2 1h-7h-1l-1 -1l-11 1l-1 2l-2 1l-5 2l-4 3l-9 6l-4 3l-7 7l-1 2l-2 1l2 7l3 2h1l4 3l6 1l21 1h4l3 -1h2v1v1l2 -1v-1h2l3 1v1h2zM-249 7276h-1h1zM-281 7279v-1h-1v1h1zM-258 7278v-1h-1v1h1zM-264 7279v-1h-1v1h1z"/><path class="chunk" data-i="9" d="M315 8202h-1l-1 1h-1v-1l5 -2v1h-1l-1 1z"/></g><path class="grain" fill="#000" fill-rule="evenodd" d="M162 8105h-2v-1h2v1zM159 8105h-1v-1h1v1zM178 8104h-1v-1h1v1zM-122 8106h-2v-1h2v1zM-126 8106h-2v-1h3l-1 1zM-131 8105h-1v-1h1v1zM-121 8093l-1 -1v-2h1v3zM-122 8089v1l-1 -1h1zM-103 8077l-1 1h-1l1 -2v1h1zM-104 8076v-1l1 1h-1zM-245 8106h-1v-1h1v1zM-264 8106h-1v-1h1v1zM-253 8105h-1v-1h1v1zM-255 8105h-1v-1h1v1zM-257 8105h-1v-1h1v1zM-263 8105h-1v-1h1v1zM-244 8104h-1v-1h1v1zM-252 8104h-1v-1h1v1zM-262 8104h-1v-1h1v1zM-256 8103h-1l1 -1h1l-1 1zM-261 8103h-1v-1h1v1zM-251 8102h-1v-1h1v1zM-260 8102h-1v-1h1v1zM-263 8102h-1v-1h1v1zM-259 8101h-1v-1h1v1zM-262 8101h-1v-1h1v1zM-241 8100h-1v-1h1v1zM-254 8102l-2 -2l2 -1h2v1l-2 2zM-261 8100h-1v-1h1v1zM-248 8099h-1v-1h1v1zM-257 8100h-1h-1l1 -2h1v2zM-260 8099h-1v-1h1v1zM-265 8099h-1v-1h1v1zM-240 8098h-1v-1h1v1zM-259 8098h-1v-1h1v1zM-264 8098h-1v-1h1v1zM-239 8096h-1v-1h1v1zM-246 8096h-1v-1h1v1zM-254 8097l-1 -1l1 -1l1 1l-1 1zM-260 8095h-1v-1h1v1zM-254 8094h-1v-1h1v1zM-253 8093h-1v-1h1v1zM-264 8092l-1 -1v-1h1v2zM-241 8090h-1v-1h1v1zM-248 8090h-1l1 -1v1zM-250 8090h-1v-1h1v1zM-235 8089h-1v-1h1v1zM-248 8089v-1h3v1h-3zM-240 8088h-2v-1h2v1zM-263 8086l-1 1v-1h1zM-263 8086v-1h1v1h-1zM-267 8087l-1 -1v-1l1 1v1zM-262 8085v-1h1l-1 1zM-265 8084h-1l1 -1v1zM-265 8083v-1h1v1h-1zM-244 8081h-1v-1h1v1zM-262 8081l2 -1l2 2l-3 2v-2h-1v-1zM-267 8081h-1v-1h1v1zM-258 8080h-1v-1h1v1zM-264 8082l1 -4h1v3l-2 1zM-265 8079h-1v-1h1v1zM-266 8078l-2 -2h2v2zM-258 8079l-1 -1l3 -3v1l-1 2l-1 1zM-261 8076h-1v-1h1v1zM-263 8076h-1v-1h1v1zM-258 8075h-2l-1 -1l1 -1l2 1v1zM-265 8074h-1v-1h1v1zM-255 8075l-1 -1v-2h1v3zM-263 8073h-1v-1h1v1zM-254 8072h-1v-1h1v1zM-262 8072h-1v-1h1v1zM-255 8071h-1v-1h1v1zM-258 8073l-1 -1l1 -2h1v2l-1 1zM-260 8071h-1v-1h1v1zM-252 8070h-1v-1h1v1zM-256 8070h-1v-1h1v1zM-264 8070h-1v-1h1v1zM-258 8069h-2v-1h2v1zM-262 8069h-1l1 -1h1l-1 1zM-264 8067h-1v-1h1v1zM-261 8066h-1v-1h1v1zM-267 8059h-1v-1h1v1zM-267 8054h-1v-1h1v1zM-262 8050h-1v-1h1v1zM-264 8050h-1v-1h1v1zM-267 8050h-1v-1h1v1zM-266 8045h-1v-1h1v1zM-275 8105h-1v-1h1v1zM-279 8105h-1v-1h1v1zM-270 8103h2v1v1l-2 -1v-1zM-278 8103h-1v-1h1v1zM-274 8103h-2v-1l2 -1v2zM-275 8100h-1v-1h1v1zM-274 8099h-1v-1h1v1zM-275 8098h-1v-1h1v1zM-294 8098h-2v-1h3l-1 1zM-274 8097l-1 -1v-1l1 1v1zM-296 8097l-1 -1v-1l1 1v1zM-272 8096h-1l1 -2v2zM-292 8095h-2v-1h2v1zM-282 8093l1 1h-1v-1zM-296 8095l-1 -1l1 -1h1v1l-1 1zM-280 8093h-1v-1h1v1zM-278 8092h-1v-1h1v1zM-292 8092h-1v-1h1v1zM-296 8092h-1v-1h1v1zM-291 8091h-1v-1h1v1zM-294 8091h-1v-1h1v1zM-271 8092h-1v-2l2 -1l1 1l-1 1l-1 1zM-276 8090h-1v-1h1v1zM-278 8090h-1v-1h1v1zM-292 8090h-1v-1h1v1zM-270 8089v-1h1l-1 1zM-291 8089h-1v-1h1v1zM-295 8089h-1v-1h1v1zM-269 8088l1 -1v1h-1zM-270 8088h-1v-1h1v1zM-280 8088h-1v-1h1v1zM-279 8087h-1v-1h1v1zM-290 8087h-1v-1h1v1zM-294 8088h-1v-2h1l1 2h-1zM-278 8086h-1v-1h1v1zM-277 8085h-1v-1h1v1zM-293 8086l-1 -1v-1h1v2zM-276 8084h-1v-1h1v1zM-275 8083h-1v-1h1v1zM-292 8084l-1 -1v-1h1v2zM-274 8082h-1v-1h1v1zM-291 8082h-1v-1h1v1zM-272 8080h-1v-1h1v1zM-291 8080h-1v-1h1v1zM-271 8079h-1v-1h1v1zM-280 8079h-1v-1h1v1zM-290 8079h-1v-1h1v1zM-270 8078h-1v-1h1v1zM-269 8077h-1v-1h1v1zM-268 8076h-1v-1h1v1zM-271 8076h-1v-1h1v1zM-275 8075h-1v-1h1v1zM-276 8074h-1v-1h1v1zM-266 8072h-4v-1l4 -1h1l-1 2zM-277 8072h-1v-1h1v1zM-278 8074h-2l-1 -2l1 -1l1 1l1 2zM-274 8070h-1v-1h1v1zM-278 8071l-1 -1v-1l1 1v1zM-279 8065l-1 -1v-1l1 1v1zM-274 8063h-1v-1h1v1zM-272 8063l-2 -1l2 -3l1 1l-1 2v1zM-291 8061l-1 -1v-1l1 1v1zM-270 8059h-1v-1h1v1zM-281 8060v-2h1v2h-1zM-274 8058h-1v-1h1v1zM-276 8056h-1v-1h1v1zM-268 8056l-1 2h-1l-1 -2h1v-2l2 2zM-277 8055h-1l-1 -1l1 -1l1 1v1zM-272 8055l-1 -1l-1 -1h-1l1 -1h2v3zM-276 8053h-1v-1h1v1zM-268 8052h-1l1 -1h1l-1 1zM-275 8052l-1 -1v-1h1v2zM-277 8051h-1v-1h1v1zM-270 8052h-1v-3h1l1 1h-1v2zM-276 8050h-1v-1h1v1zM-271 8049h-1v-1h1v1zM-274 8049h-1v-1h1v1zM-280 8049h-1v-1h1v1zM-270 8048h-1v-1h1v1zM-278 8049l-1 -1v-1l1 1v1zM-269 8047h-1v-1h1v1zM-275 8047h-1v-1h1v1zM-277 8047h-1v-1h1v1zM-272 8046h-1v-1h1v1zM-270 8045h-1v-1h1v1zM-273 8045h-1v-1h1v1zM-274 8044h-1v-1h1v1zM-193 8039h-1v-1h1v1zM-249 8039h-1v-1h1v1zM-251 8038h-1v-1h1v1zM-248 8036h-2v-1h2v1zM-252 8037l-2 -1v-1h2l1 1l-1 1zM-251 8034h-1v-1h1v1zM-250 8033h-1v-1h1v1zM-242 8032h-3l1 -1h2v1zM-247 8032h-1v-1h1v1zM-246 8031h-1v-1h1v1zM-242 8030l-4 -1l-1 -1l1 -1l3 1h2v2h-1zM-240 8028l-1 -1v-1h1v2zM-239 8026h-1v-1h1v1zM-238 8024h-1v-1h1v1zM-249 8023h-1v-1h1v1zM-237 8023l-1 -1v-1l1 1v1zM-239 8022h-1v-1h1v1zM-257 8022h-1v-1h1v1zM-238 8020h-1v-1h1v1zM-250 8019h2l1 1l-1 1l-2 -1v-1zM-255 8020h-1v-1h1v1zM-237 8019h-1v-1h1v1zM-251 8019v-1h1v1h-1zM-249 8018h-1v-1h1v1zM-236 8021v-2l1 -3h1h1l-1 2l-2 3zM-253 8017l-1 -1v-1l1 1v1zM-232 8015h-3l1 -1h3l-1 1zM-248 8016l-1 -1v-1h1v2zM-252 8015h-1v-1h1v1zM-247 8014h-1v-1h1v1zM-244 8013h-1v-1h1v1zM-237 8011l1 1h-1v-1zM-246 8013l-1 -1v-1l1 1v1zM-250 8013l-1 -1v-1l1 1v1zM-243 8011h-1v-1h1v1zM-245 8011h-1v-1h1v1zM-249 8011l-1 -1v-1l1 1v1zM-233 8011l-3 -1h-1l1 -1l1 -1h2v3zM-242 8009h-1v-1h1v1zM-244 8009h-1v-1h1v1zM-248 8009h-1v-1h1v1zM-232 8009l-1 -1l1 -1h2v1l-2 1zM-243 8008l-1 -1v-1h1v2zM-248 8008v-1l2 -1l-2 2zM-240 8006h-1v-1h1v1zM-241 8005h-1v-1h1v1zM-245 8004h-1v-1h1v1zM-238 8003h-1v-1h1v1zM-244 8003h-1v-1h1v1zM-240 8003l-2 -1v-1h2v1v1zM-259 8003l3 -2l1 1l-3 2h-1v-1zM-237 8002l-1 -1v-1h1v2zM-254 8001h-1v-1h1v1zM-252 8000h-1v-1h1v1zM-255 7997v-1h1v1h-1zM-258 7997l-1 -1h1v1zM-258 7996v-1l1 1h-1zM-254 7996l2 -2h1l-1 2h-2zM-263 7996l-1 -1v-1h1v2zM-247 7995v-1l1 -1h2v1l-2 1h-1zM-262 7994l-1 -1v-1h1v2zM-244 7993v-1l2 -1h1v1l-1 1h-2zM-261 7992h-1v-1h1v1zM-241 7991v-1h1v1h-1zM-248 7989v1l-1 -1h1zM-248 7989v-1h1l-1 1zM-251 7989v-1h1h1v1h-2zM-259 7989h-1v-1h1v1zM-244 7989v-1h1v-1h3v1l-4 1zM-258 7988h-1v-1h1v1zM-243 7987h-1v-1h1v1zM-249 7988v-2l2 1h-1v1h-1zM-251 7987h-1v-1h1v1zM-243 7986l1 -1v1h-1zM-256 7986h-2v-1h2v1zM-242 7985v-1h2v1h-2zM-247 7985h-1v-1h1v1zM-250 7985h-1v-1h1v1zM-234 7986v-2l-4 -1h4l2 1l-1 2h-1zM-240 7984v-1h1v1h-1zM-242 7984h-1v-1h1v1zM-249 7984h-1v-1h1v1zM-240 7983h-1v-1h1v1zM-246 7983h-1v-1h1v1zM-239 7983v-1l1 -1v1v1h-1zM-245 7982h-1v-1h1v1zM-246 7980h-1v-1h1v1zM-252 7980h-1v-1h1v1zM-273 8043h-1v-1h1v1zM-272 8042h-1v-1h1v1zM-283 8032h-1v-1h1v1zM-282 8031h-1v-1h1v1zM-46 7925h-1v-1h1v1zM-45 7924h-1v-1h1v1zM-44 7922h-1v-1h1v1zM-46 7922h-1v-1h1v1zM-48 7922h-1v-1h1v1zM-50 7924l-2 -1v-1l2 -1l1 1v2h-1zM-42 7921h-1v-1h1v1zM-48 7920h-1v-1h1v1zM-52 7922h-1v-3l1 1v2zM-49 7919h-1v-1h1v1zM-44 7919l-1 -1v-1l1 1v1zM-51 7918h-1v-1h1v1zM-53 7918l-1 -1v-1h1v2zM-49 7917h-2v-2h2v2zM-74 7916h-1v-1h1v1zM-94 7926h-3l1 -1h3l-1 1zM-90 7925h-2v-1h3l-1 1zM-88 7924h-1l1 -1h1l-1 1zM-91 7923h-1v-1h1v1zM-85 7922l-1 1l-1 -1l1 -1l4 -1l-2 2h-1zM-86 7920v1l-2 -1h2zM-89 7922h-1h-1l1 -2h1v2zM-80 7920h-2v-1h2v1zM-86 7920v-1h1v1h-1zM-88 7920h-1l1 -1v1zM-79 7919h-1v-1h1v1zM-85 7918h1h1l-1 1h-1v-1zM-78 7918h-1l1 -1h1l-1 1zM-89 7918h-1v-1h1v1zM-76 7917h-1v-1h1v1zM-80 7917h-1l1 -1h1l-1 1zM-88 7919v-1l2 -2l1 2h-1l-2 1zM-88 7917h-1v-1h1v1zM-93 7916h2v2h-1l-1 -1v-1zM-81 7916h-1v-1h1v1zM-84 7917l-1 -1v-1l1 1v1zM-90 7916h-1v-1h1v1zM-94 7916v-1l1 1h-1zM-251 7979h-1v-1h1v1zM-245 7978h-1v-1h1v1zM-244 7977h-1v-1h1v1zM-243 7976l-1 -1v-1h1v2zM-248 7975h-1v-1h1v1zM-239 7973h-1v-1h1v1zM-264 7973h-2v-1h2v1zM-262 7972h-2v-1h2v1zM-260 7971h-2v-1h2v1zM-258 7970h-2v-1h2v1zM-256 7969h-2v-1l2 -1l1 1l-1 1zM-238 7967l-1 -1h1v1zM-243 7967h-1v-1h1v1zM-252 7967h-2v-1h2v1zM-241 7966h-1v-1h1v1zM-250 7966h-2v-1h2v1zM-238 7966v-2h1v2h-1zM-244 7965h-1v-1h1v1zM-249 7965h-1v-1h1v1zM-259 7966h-2v-2h4l-1 1l-1 1zM-242 7965l-1 -1v-1l1 1v1zM-246 7964h-1v-1h1v1zM-256 7964h-1v-1h1v1zM-266 7964h-1v-1h1v1zM-236 7964l-1 -1v-1h1v2zM-244 7963h-2v-1h2v1zM-265 7963h-1v-1h1v1zM-235 7962h-1v-1h1v1zM-241 7962h-1v-1h1v1zM-252 7963h-4v-1h2v-1l2 1v1zM-264 7962h-1v-1h1v1zM-236 7961h-1v-1h1v1zM-263 7961h-1v-1h1v1zM-240 7962l-1 -2l1 -1l1 1v2h-1zM-260 7960h-1v-1h1v1zM-262 7960h-1v-1h1v1zM-266 7960h-1v-1h1v1zM-261 7959h-1v-1h1v1zM-267 7959h-1v-1h1v1zM-259 7958h-1v-1h1v1zM-266 7958h-1v-1h1v1zM-258 7957h-1v-1h1v1zM-265 7957h-1v-1h1v1zM-263 7956h-1v-1h1v1zM-262 7955h-1v-1h1v1zM-272 7973h-1v-1h1v1zM-267 7974h-3l-2 -2v-2l2 2h3v2zM-266 7970h-5l1 -1h1l1 -5h1l1 6zM-270 7967h-1v-1h1v1zM-272 7970h-1v-4h1v4zM-269 7964h-1v-1h1v1zM-271 7966h-1v-3l1 1v2zM-270 7963l-1 -1v-1l1 1v1zM-269 7961h-1v-1h1v1zM-268 7960h-1v-1h1v1zM-44 7915h-1v-1h1v1zM-46 7915h-1v-1h1v1zM-48 7915h-1v-1h1v1zM-52 7916l-1 -1v-1h1v2zM-73 7915h-1v-1h1v1zM-45 7914h-1v-1h1v1zM-49 7914h-1v-1h1v1zM-71 7914h-1v-1h1v1zM-47 7912l-1 1v-1h1zM-51 7913h-1v-1h1v1zM-70 7913h-1v-1h1v1zM-73 7913h-1v-1h1v1zM-47 7911l1 1h-1v-1zM-48 7912h-1l1 -1v1zM-50 7912h-1v-1h1v1zM-68 7912h-1v-1h1v1zM-48 7911v-1l1 1h-1zM-67 7911h-1v-1h1v1zM-72 7911h-2v-1h2v1zM-65 7910h-1v-1h1v1zM-44 7909h-1v-1h1v1zM-64 7909h-1l1 -1h1l-1 1zM-72 7909h-1v-1h1v1zM-62 7908h-1v-1h1v1zM-69 7908v-1h1v1h-1zM-47 7907h-1v-1h1v1zM-60 7907h-1v-1h1v1zM-42 7906h-1v-1h1v1zM-46 7906h-1v-1h1v1zM-58 7906h-2v-1h2v1zM-66 7906v-1h1v1h-1zM-71 7906h-1v-1h1v1zM-41 7905h-1v-1h1v1zM-67 7905v-1h1v1h-1zM-40 7904h-1v-1h1v1zM-56 7904h-1l1 -1h1l-1 1zM-68 7904h-1v-1h1v1zM-44 7903h-1v-1h1v1zM-53 7903h-1v-1h1v1zM-60 7903h-1v-1h1v1zM-40 7902h-1v-1h1v1zM-43 7902h-1v-1h1v1zM-51 7902h-1v-1h1v1zM-58 7902h-2v-1h3l-1 1zM-65 7902h-1v-1h1v1zM-74 7902h-1v-1h1v1zM-49 7901h-1v-1h1v1zM-56 7901h-1v-1h1v1zM-63 7901h-1v-1h1v1zM-38 7901l-2 -1v-1h2v1v1zM-42 7900h-1v-1h1v1zM-47 7900h-1v-1h1v1zM-58 7900h-1v-1h1v1zM-72 7899v1l-1 -1h1zM-74 7900h-1v-1h1v1zM-44 7899h-3l1 -1h2v1zM-54 7901l-1 -1v-2h1v3zM-60 7899h-1l1 -1h1l-1 1zM-72 7898h1l-1 1v-1zM-73 7899h-1v-1h1v1zM-52 7899l-1 -1l3 -1h1l-1 1h-2v1zM-70 7898h-1v-1h1v1zM-73 7898l1 -1v1h-1zM-75 7898h-1v-1h1v1zM-48 7897h-1v-1h1v1zM-53 7897h-1v-1h1v1zM-56 7897h-1v-1h1v1zM-64 7897h-1v-1h1v1zM-69 7897h-1v-1h1v1zM-46 7897l-2 -1v-1h2v1v1zM-70 7896h-1v-1h1v1zM-73 7896h-1v-1h1v1zM-33 7895h-1v-1h1v1zM-41 7895h-1v-1h1v1zM-43 7896l-1 -1v-1h1v2zM-45 7895h-1v-1h1v1zM-52 7895h-1v-1h1v1zM-67 7895h-1v-1h1v1zM-42 7894h-1v-1h1v1zM-34 7893h-1v-1h1v1zM-48 7893h-1l1 -1h1l-1 1zM-65 7892l-1 1v-1h1zM-67 7893h-1v-1h1v1zM-70 7893h-1v-1h1v1zM-45 7892h-1v-1h1v1zM-65 7891l1 1h-1v-1zM-66 7892h-1l1 -1v1zM-73 7892h-1v-1h1v1zM-37 7891h-1v-1h1v1zM-40 7891h-1l1 -1h1l-1 1zM-42 7891h-1v-1h1v1zM-63 7891h-1v-1h1v1zM-66 7891v-1l1 1h-1zM-67 7890h-1v-1h1v1zM-71 7891l-1 -1v-1l1 1v1zM-61 7889h-1v-1h1v1zM-69 7889h-1l-1 -1l1 -1l1 1v1zM-59 7887h-1v-1h1v1zM-64 7887h-1v-1h1v1zM-58 7886h-1v-1h1v1zM-57 7885h-1v-1h1v1zM-56 7884h-1v-1h1v1zM-61 7884h-1v-1h1v1zM-68 7887l-1 -1l3 -3l1 1l-3 3zM-58 7881h-1v-1h1v1zM-70 7881h-1v-1h1v1zM-51 7880h-1v-1h1v1zM-57 7880h-1v-1h1v1zM-52 7879h-1v-1h1v1zM-72 7880v-1l2 -1l-2 2zM-51 7878h-1v-1h1v1zM-56 7878h-1v-1h1v1zM-66 7878h-1v-1h1v1zM-50 7876v1l-1 -1h1zM-65 7877h-1v-1h1v1zM-50 7875l1 1h-1v-1zM-51 7876h-1l1 -1v1zM-54 7876h-1v-1h1v1zM-67 7877h-3v-1h2v-1l1 1v1zM-48 7875h-1v-1h1v1zM-51 7875v-1h1v1h-1zM-53 7875h-1v-1h1v1zM-66 7875h-1v-1h1v1zM-52 7874h-1v-1h1v1zM-51 7873h-1v-1h1v1zM-60 7872v1l-1 -1h1zM-60 7871l1 1h-1v-1zM-58 7871h-1v-1h1v1zM-44 7869v1l-1 -1h1zM-46 7870h-1v-1h1v1zM-56 7869v1l-1 -1h1zM-44 7868h1l-1 1v-1zM-45 7869h-1v-1h1v1zM-56 7868h1l-1 1v-1zM-65 7869h-1v-1h1v1zM-42 7868h-1v-1h1v1zM-45 7868l1 -1v1h-1zM-74 7868h-1v-1h1v1zM-40 7867h-1v-1h1v1zM-53 7867h-1v-1h1v1zM-62 7867h-1v-1h1v1zM-41 7865l-1 1v-1h1zM-61 7866h-1v-1h1v1zM-41 7864h1l-1 1v-1zM-42 7865l-1 -1h1v1zM-50 7865l-1 -1h1v1zM-54 7866h-2l2 -2h1l-1 2zM-42 7864v-1l1 1h-1zM-50 7864v-1l1 1h-1zM-52 7864h-1v-1h1v1zM-72 7866h-2v-2l2 -1h1v1l-1 2zM-37 7863h-1v-1h1v1zM-39 7863h-1v-1h1v1zM-50 7863l-1 -1h1v1zM-70 7863h-1v-1h1v1zM-75 7864l-1 -1v-1h1v2zM-43 7862v-1h1v1h-1zM-50 7862v-1h1v1h-1zM-69 7861l-1 1v-1h1zM-37 7861h-1v-1h1v1zM-49 7861v-1h1v1h-1zM-55 7861h-1v-1h1v1zM-69 7861v-1h1v1h-1zM-70 7861l-1 -1h1v1zM-72 7861h-2v-1h2v1zM-36 7860h-1v-1h1v1zM-50 7860h-1v-1h1v1zM-54 7860h-1l1 -1h1l-1 1zM-68 7860v-1h1v1h-1zM-70 7860v-1h1v1h-1zM-48 7860l2 -2h1l-1 2h-2zM-49 7859h-1v-1h1v1zM-67 7858h1l-1 1v-1zM-71 7859h-1v-1h1v1zM-34 7858h-2v-1h2v1zM-37 7858h-1v-1h1v1zM-70 7858h-1v-1h1v1zM-74 7858h-1l1 -1h1l-1 1zM-64 7857h-1v-1h1v1zM-69 7857h-1v-1h1v1zM-72 7857h-1v-1h1v1zM-34 7856h-2v-1h2v1zM-45 7856h-1v-1h1v1zM-63 7856h-1v-1h1v1zM-69 7856l1 -1v1h-1zM-71 7856h-1v-1h1v1zM-37 7855h-1v-1h1v1zM-43 7855h-1v-1h1v1zM-48 7856h-2l2 -2h1l-1 2zM-66 7854h2v1h-2v-1zM-68 7855v-1h1v1h-1zM-75 7856l-1 -1v-1h1v2zM-36 7854h-1l1 -1h1l-1 1zM-67 7854l1 -1v1h-1zM-37 7853h-1v-1h1v1zM-45 7853h-1v-1h1v1zM-62 7853h-2v-1h2v1zM-75 7853h-1v-1h1v1zM-42 7853l-2 -1v-1h2v1v1zM-61 7852h-1v-1h1v1zM-64 7852h-1v-1h1v1zM-68 7853h-2v-1l2 -1v1v1zM-73 7852h-1v-1h1v1zM-86 7915h-1v-1h1v1zM-88 7915h-1v-1h1v1zM-95 7915h-1v-1h1v1zM-80 7915l-1 -1v-1l1 1v1zM-84 7914h-1v-1h1v1zM-91 7914h-1v-1h1v1zM-75 7913h-1l-1 -1h1v-2h1v3zM-78 7913h-2v-1h2v1zM-77 7912h-1v-1h1v1zM-80 7912h-1v-1h1v1zM-82 7913h-2v-1l2 -1v1v1zM-84 7912h-1v-1h1v1zM-90 7913l-1 -1v-1l1 1v1zM-89 7911h-1v-1h1v1zM-94 7914l-1 -1l3 -3v2l-2 2zM-88 7910h-1v-1h1v1zM-91 7910h-1v-1h1v1zM-80 7909h-1v-1h1v1zM-84 7909h-1v-1h1v1zM-79 7908h-1v-1h1v1zM-87 7909l-1 -1v-1l1 1v1zM-78 7907h-1v-1h1v1zM-83 7907h-1v-1h1v1zM-86 7907h-1v-1h1v1zM-90 7909l-1 -1l1 -2h1v2l-1 1zM-79 7906h-1v-1h1v1zM-85 7906h-1v-1h1v1zM-88 7906h-1v-1h1v1zM-78 7905h-1v-1h1v1zM-84 7905h-1v-1h1v1zM-80 7904h-1v-1h1v1zM-83 7904h-1v-1h1v1zM-86 7904h-2l2 -2v2zM-81 7901h-1v-1h1v1zM-84 7901h-1v-1h1v1zM-80 7900h-1v-1h1v1zM-95 7899l-1 1l-1 -1h2zM-79 7899h-1v-1h1v1zM-95 7899v-1h1v1h-1zM-78 7898h-1v-1h1v1zM-94 7897l1 1h-1v-1zM-77 7897h-1v-1h1v1zM-91 7897h-1v-1h1v1zM-96 7897v-1h2v1h-2zM-76 7896h-1v-1h1v1zM-80 7897h-2v-1l2 -1v1v1zM-94 7896v-1h1v1h-1zM-105 7896l1 -1v1h-1zM-79 7895h-1v-1h1v1zM-88 7895h-1v-1h1v1zM-93 7895v-1h2l-1 1h-1zM-94 7895l-1 -1h1v1zM-78 7894h-1v-1h1v1zM-91 7894v-1h1v1h-1zM-94 7894v-1h1v1h-1zM-90 7892h2v1h-2v-1zM-93 7893v-1h2v1h-2zM-86 7892h-2v-1h2v1zM-91 7892l1 -1v1h-1zM-99 7892h-1v-1h1v1zM-88 7891h-1v-1h1v1zM-102 7893l-1 -1l1 -2h1v2l-1 1zM-84 7890h-1v-1h1v1zM-87 7890h-1v-1h1v1zM-82 7889h-2v-1h2v1zM-85 7889h-1v-1h1v1zM-90 7889h-1v-1h1v1zM-98 7891l-1 -1l1 -2h1v2l-1 1zM-91 7888h-1v-1h1v1zM-98 7888h-1v-1h1v1zM-82 7887h-1v-1h1v1zM-81 7886h-1v-1h1v1zM-89 7886h-1v-1h1v1zM-92 7886h-1v-1h1v1zM-95 7885v1l-1 1v-1v-1h1zM-97 7886h-1v-1h1v1zM-80 7885h-1v-1h1v1zM-91 7885h-1v-1h1v1zM-95 7884h1l-1 1v-1zM-88 7885l-1 -1v-1l1 1v1zM-96 7885h-1v-2l2 1h-1v1zM-94 7883h-1v-1h1v1zM-86 7882h-1v-1h1v1zM-91 7882h-1v-1h1v1zM-93 7881h-1v-1h1v1zM-84 7880h-1v-1h1v1zM-92 7880h-1v-1h1v1zM-84 7878h-1v-1h1v1zM-91 7879l-1 -1v-1l1 1v1zM-82 7878l-1 -1v-1h1v2zM-89 7877h-1v-1h1v1zM-81 7876h-1v-1h1v1zM-91 7876h-1v-1h1v1zM-84 7875h-1v-1h1v1zM-78 7873h-1v-1h1v1zM-86 7873h-1v-1h1v1zM-77 7872l-1 -1v-1h1v2zM-81 7871h-1v-1h1v1zM-86 7872v-1l2 -1l-2 2zM-87 7871h-1v-1h1v1zM-80 7870h-1v-1h1v1zM-76 7870h-1v-3l1 1v2zM-82 7868h-1v-1h1v1zM-84 7868h-2v-1h2v1zM-90 7867h-1v-1h1v1zM-77 7866h-1v-1h1v1zM-83 7866h-1v-1h1v1zM-80 7866h-2l2 -3l1 1l-1 2zM-86 7864h-1v-1h1v1zM-89 7864h-1v-1h1v1zM-92 7864h-1v-1h1v1zM-81 7864l-1 -1v-1h1v2zM-90 7863h-1v-1h1v1zM-86 7862h-1v-1h1v1zM-88 7862h-1v-1h1v1zM-77 7860v2h-1v-2h1zM-80 7862l-1 -1v-1h1v2zM-84 7861h-1v-1h1v1zM-77 7860v-1h1v-1h1v2h-2zM-78 7860h-1l1 -1v1zM-78 7859v-1h1v1h-1zM-80 7859h-1v-1h1v1zM-83 7859h-1v-1h1v1zM-87 7859h-1v-1h1v1zM-77 7858l1 -1v1h-1zM-91 7857h-1v-1h1v1zM-79 7856h-1v-1h1v1zM-82 7856h-1v-1h1v1zM-85 7855h-1v-1h1v1zM-76 7854h-1v-1h1v1zM-84 7853h-1v-1h1v1zM-79 7852h-1v-1h1v1zM-58 7851h-1v-1h1v1zM-60 7851h-1v-1h1v1zM-67 7851h-1v-1h1v1zM-59 7850h-1v-1h1v1zM-66 7850h-1v-1h1v1zM-68 7848h-1v-1h1v1zM-63 7847h-1v-1h1v1zM-65 7848l-1 -1v-1h1v2zM-67 7847h-1v-1h1v1zM-68 7846h-1v-1h1v1zM-57 7844h-1v-1h1v1zM-62 7845h-2v-1l4 -1v1l-2 1zM-49 7841h-1v-1h1v1zM-60 7843v-1l2 -2v2l-2 1zM-52 7839h-1v-1h1v1zM-56 7839h-1v-1h1v1zM-55 7838h-1v-1h1v1zM-59 7838h-1v-1h1v1zM-48 7840l-1 -1l3 -3v2l-2 2zM-50 7837h-1v-1h1v1zM-54 7837l-1 -1l1 -1l1 1l-1 1zM-57 7836h-1v-1h1v1zM-44 7836h-2l2 -2l1 2h-1zM-42 7834h-1v-1h1v1zM-52 7835l-1 -1v-1l1 1v1zM-55 7834h-1v-1h1v1zM-75 7834h-1v-1h1v1zM-41 7833h-1v-1h1v1zM-47 7833h-1v-1h1v1zM-51 7833h-1v-1h1v1zM-40 7832h-1v-1h1v1zM-53 7832h-1v-1h1v1zM-67 7832h-1v-1h1v1zM-71 7832h-1v-1h1v1zM-74 7832h-1v-1h1v1zM-45 7831h-1v-1h1v1zM-52 7831h-1v-1h1v1zM-44 7830h-1v-1h1v1zM-51 7830h-1v-1h1v1zM-72 7831h-2v-1l2 -1v1v1zM-37 7829h-1v-1h1v1zM-50 7832h-1l3 -4h1v2l-3 2zM-50 7829h-1v-1h1v1zM-45 7828h-1v-1h1v1zM-49 7828h-1v-1h1v1zM-64 7828h-1v-1h1v1zM-70 7828h-1v-1h1v1zM-36 7828l-1 -1v-1h1v2zM-48 7827h-1v-1h1v1zM-35 7826h-1v-1h1v1zM-40 7826h-1v-1h1v1zM-59 7826h-1v-1h1v1zM-69 7826h-1v-1h1v1zM-33 7825h-1v-1h1v1zM-39 7825h-1v-1h1v1zM-66 7825h-1v-1h1v1zM-35 7824h-1v-1h1v1zM-70 7824h-1v-1h1v1zM-34 7823h-1v-1h1v1zM-69 7823h-1v-1h1v1zM-72 7823h-1v-1h1v1zM-45 7822v-1l2 1h-2zM-56 7822h-1v-1h1v1zM-70 7822h-1v-1h1v1zM-30 7822l-1 -1l3 -1v1h-2v1zM-36 7823l-1 -1v-2h1v3zM-63 7821h-1v-1h1v1zM-73 7821h-1v-1h1v1zM-75 7821h-1v-1h1v1zM-27 7820h-1v-1h1v1zM-42 7820h-1l1 -1h1l-1 1zM-67 7820h-1v-1h1v1zM-57 7819h-1v-1h1v1zM-64 7819h-1v-1h1v1zM-70 7819h-1v-1h1v1zM-26 7818h-2v-1h2v1zM-53 7818h-1v-1h1v1zM-63 7818h-1v-1h1v1zM-69 7818h-1v-1h1v1zM-71 7818h-1v-1h1v1zM-73 7817h-1v-1h1v1zM-52 7816h-1l1 -1h1l-1 1zM-62 7817h-1v-1l1 -1l1 1l-1 1zM-66 7816h-1v-1h1v1zM-68 7816h-1v-1h1v1zM-27 7816l-1 -1v-1h1v2zM-50 7815h-1v-1h1v1zM-58 7815h-1v-1h1v1zM-61 7815h-1v-1h1v1zM-67 7815h-1v-1h1v1zM-70 7815h-1v-1h1v1zM-49 7814h-1v-1h1v1zM-63 7815h-1l-1 -1l1 -1l1 1v1zM-69 7814h-1v-1h1v1zM-74 7814h-1v-1h1v1zM-35 7813h-1v-1h1v1zM-58 7813h-1v-1h1v1zM-73 7813h-1v-1h1v1zM-30 7812h-2v-1h2v1zM-34 7812h-1l1 -1h1l-1 1zM-47 7812h-1v-1h1v1zM-57 7811l-1 1v-1h1zM-71 7812h-1v-1h1v1zM-65 7811h-1v-1h1v1zM-70 7811h-1v-1h1v1zM-69 7810h-1v-1h1v1zM-46 7809h-1l1 -1h1l-1 1zM-62 7809h-1v-1h1v1zM-67 7809h-1v-1h1v1zM-61 7808h-1v-1h1v1zM-66 7808h-1v-1h1v1zM-44 7807h-1v-1h1v1zM-60 7807h-1v-1h1v1zM-64 7807h-1v-1h1v1zM-63 7806h-1v-1h1v1zM-43 7805h-1v-1h1v1zM-50 7805v-1h1l-1 1zM-62 7805h-1v-1h1v1zM-42 7804h-1v-1h1v1zM-49 7804v-1h1v1h-1zM-61 7804h-1v-1h1v1zM-60 7803h-1v-1h1v1zM-42 7803v-1l2 -2v2l-2 1zM-39 7800h-1v-1h1v1zM-56 7800h-1v-1h1v1zM-38 7799h-1v-1h1v1zM-44 7798h-1v-1h1v1zM-46 7799h-1v-1l1 -1l1 1l-1 1zM-37 7797h-1v-1h1v1zM-52 7797l-1 -1v-1l1 1v1zM-36 7796l-1 -1v-1h1v2zM-35 7794h-1v-1h1v1zM-48 7793h-2v-1h2v1zM-47 7792l-1 -1v-1h1v2zM-36 7792l-1 -2l1 -1l1 1v2h-1zM-44 7789h-1v-1h1v1zM-38 7789h-1l-3 -1h-1l1 -1h4l1 1l-1 1zM-82 7849h-1v-1h1v1zM-78 7848h-1v-1h1v1zM-83 7847h-1v-1h1v1zM-80 7846h-1v-1h1v1zM-82 7845h-1v-1h1v1zM-81 7843h-1v-1h1v1zM-78 7838h-1v-1h1v1zM-77 7837h-1v-1h1v1zM-76 7836h-1v-1h1v1zM-97 7830h-1v-1h1v1zM-90 7827h-3l1 -1h2v1zM-98 7828h-1v-2h1l1 2h-1zM-97 7826h-1v-1h1v1zM-92 7825h-1v-1h1v1zM-91 7824h-1v-1h1v1zM-94 7824h-1v-1h1v1zM-96 7823h-2v-1v-1l2 1v1zM-89 7821h-1v-1h1v1zM-95 7821h-1v-1h1v1zM-76 7819h-1v-1h1v1zM-94 7819h-1v-1h1v1zM-84 7791h-1v-1h1v1zM-86 7791h-2v-1h2v1zM-92 7792l-1 -1v-1h1v2zM-93 7790h-1v-1h1v1zM-80 7789h-1v-1h1v1zM-87 7789h-1v-1h1v1zM-90 7791l-1 -1v-2h1l1 2l-1 1zM-92 7788v1l-1 -1h1zM-92 7787l1 1h-1v-1zM-93 7788h-1l1 -1v1zM-10 7724h-1l1 -1v1zM-65 7779h-1v-1h1v1zM-60 7776h-1v-1h1v1zM-59 7775h-1v-1h1v1zM-61 7774h-1v-1h1v1zM-57 7772h-1v-1h1v1zM-62 7772h-1v-1h1v1zM-56 7771h-1v-1h1v1zM-61 7771h-1v-1h1v1zM-60 7770h-1v-1h1v1zM-57 7769h-1v-1h1v1zM-59 7769h-1v-1h1v1zM-58 7768h-1v-1h1v1zM-62 7767v1l-1 -1h1zM-75 7768h-1v-1h1v1zM-63 7767h-1v-1h1v1zM-52 7766h-1v-1h1v1zM-63 7766v-1h2l-1 2v-1h-1zM-59 7765h-1v-1h1v1zM-73 7765h-1v-1h1v1zM-52 7763h-1v-1h1v1zM-60 7764h-2l2 -2v2zM-49 7762h-1v-1h1v1zM-57 7762h-1v-1h1v1zM-59 7762h-1v-1h1v1zM-58 7761h-1v-1h1v1zM-61 7761h-1v-1h1v1zM-50 7760h-1v-1h1v1zM-57 7760h-1v-1h1v1zM-60 7760h-1v-1h1v1zM-49 7759h-1v-1h1v1zM-45 7757h-1v-1h1v1zM-54 7757h-1v-1h1v1zM-57 7757h-1v-1h1v1zM-48 7756h-1v-1h1v1zM-52 7755h-1v-1h1v1zM-60 7755h-1v-1h1v1zM-46 7753v1v1l-1 -1v-1h1zM-46 7752h1l-1 1v-1zM-44 7752h-1v-1h1v1zM-47 7752l1 -1v1h-1zM-52 7751h-1v-1h1v1zM-56 7752h-2v-2l2 2zM-45 7750h-1v-1h1v1zM-51 7750h-1v-1h1v1zM-53 7750h-1v-1h1v1zM-47 7749h-1v-1h1v1zM-49 7749h-1v-1h1v1zM-44 7748h-1l1 -1h1l-1 1zM-46 7748h-1v-1h1v1zM-28 7747h-1v-1h1v1zM-42 7747h-1v-1h1v1zM-50 7747h-1v-1h1v1zM-56 7750v-2l2 -2v2l-2 2zM-58 7747h-1v-1h1v1zM-21 7746h-1v-1h1v1zM-45 7745l-1 1v-1h1zM-47 7746h-1v-1h1v1zM-25 7745h-1v-1h1v1zM-28 7745h-1v-1h1v1zM-45 7745v-1h1v1h-1zM-46 7745l-1 -1h1v1zM-53 7746l-1 -1v-1h1v2zM-56 7745h-1v-1h1v1zM-26 7744h-1v-1h1v1zM-46 7744v-1h1v1h-1zM-48 7744h-1v-1h1v1zM-55 7744h-1v-1h1v1zM-20 7743h-3l1 -1h2v1zM-38 7743l2 -1v2h-2v-1zM-39 7743v-1h1v1h-1zM-54 7743h-1v-1h1v1zM-26 7742h-1v-1h1v1zM-41 7742l1 -1h1v1h-2zM-53 7742h-1v-1h1v1zM-18 7741h-1v-1h1v1zM-36 7741h-1v-1h1v1zM-19 7740h-1v-1h1v1zM-23 7740l-1 -1v-1h1v2zM-39 7737h-1v-1h1v1zM-41 7738l-1 -1v-1h1v2zM-44 7737v-2h1v1l-1 1zM-45 7735v-1h1v1h-1zM-35 7734h-1v-1h1v1zM-27 7733h-1v-1h1v1zM-32 7734l-2 -2h2v2zM-24 7732h-2v-1h2v1zM-22 7731h-2v-1h2v1zM-37 7730l-1 1v-1h1zM-18 7730h-2v-1h2v1zM-24 7730h-1v-1h1v1zM-30 7730h-1v-1h1v1zM-41 7730h-1v-1h1v1zM-43 7730h-1v-1h1v1zM-16 7729h-2v-1h2v1zM-37 7730l1 -2h1v2h-1h-1zM-42 7729h-1v-1h1v1zM-14 7728h-1v-1h1v1zM-19 7728h-1v-1h1v1zM-17 7727h-1v-1h1v1zM-22 7727h-1v-1h1v1zM-30 7728l-1 -1l5 -1v1h-4v1zM-42 7727h-1v-1h1v1zM-38 7726h-1v-1h1v1zM-20 7726h-2l2 -2l1 2h-1zM-24 7726h-2v-2l2 1h1l-1 1zM-40 7725h-1v-1h1v1zM-12 7724h-2v-1h2v1zM-16 7725l-2 -1h-1l1 -1h3v1l-1 1zM-36 7724h-1l1 -1v1zM-38 7724h-1v-1h1v1zM-81 7787h-1v-1h1v1zM-85 7790h-1v-4h2l-1 2v2zM-90 7787h-1v-1h1v1zM-93 7787v-1h1v1h-1zM-78 7786h-1v-1h1v1zM-86 7786h-1v-1h1v1zM-79 7785h-1v-1h1v1zM-88 7785h-2v-1h3l-1 1zM-84 7786v-2l2 -2l1 2l-3 2zM-87 7783h-1v-1h1v1zM-91 7783h-1v-1h1v1zM-79 7783h-1l-1 -1l1 -1l1 1v1zM-90 7782h-1v-1h1v1zM-77 7781h-1v-1h1v1zM-85 7781h-1v-1h1v1zM-76 7780h-1v-1h1v1zM-83 7780h-1v-1h1v1zM-80 7781l-1 -1l1 -2h1v2l-1 1zM-82 7779h-1v-1h1v1zM-88 7779h-1v-1h1v1zM-78 7778h-1v-1h1v1zM-81 7778h-1v-1h1v1zM-87 7778h-1v-1h1v1zM-89 7778h-1v-1h1v1zM-77 7776h-1v-1h1v1zM-79 7776h-1v-1h1v1zM-83 7776h-1v-1h1v1zM-86 7776h-1v-1h1v1zM-77 7774h-1v-1h1v1zM-76 7774l-1 -2h1h1v2h-1zM-84 7773h-1l1 -1h1l-1 1zM-78 7772h-1v-1h1v1zM-82 7771l-1 -1v-2h1l1 2l-1 1zM-80 7768h-2v-1h2v1zM-79 7767l-1 -1l-1 -2l3 -2l1 2l-2 2v1zM-3 7721h-1v-1h1v1zM-11 7723l-1 -1v-2h1v3zM-4 7720h-1v-1h1v1zM-10 7720h-1v-1h1v1zM-3 7719h-1v-1h1v1zM-6 7719h-1v-1h1v1zM0 7718h-1v-1h1v1zM2 7718l-1 -1v-1h1v2zM-6 7717h-4v-1h5l-1 1zM-20 7723h-1v-1h1v1zM-28 7723h-1l1 -1h1l-1 1zM-32 7725v-1v-2l2 2l-2 1zM-37 7723h-1v-1h1v1zM-14 7723l-1 -1v-1l1 1v1zM-24 7722h-1v-1h1v1zM-26 7722h-1v-1h1v1zM-21 7721h-1v-1h1v1zM-25 7721h-1v-1h1v1zM-16 7720h-3l1 -1h2v1zM-31 7720h-1v-1h1v1zM-14 7719h-2v-1h2v1zM-30 7719h-1v-1h1v1zM-12 7718h-1l1 -1h1l-1 1zM-25 7718h-1v-1h1v1zM-65 7716h-1v-1h1v1zM-62 7710h-1v-1h1v1zM-37 7640h1l-1 1v-1zM-38 7640v-1l1 1h-1zM-497 7646l-1 1v-1h1zM-512 7639v1l-1 -1h1zM-519 7635l-1 1v-1h1zM-520 7635l-1 -1h1v1zM-529 7606h-1v-1h1v1zM-329 7569h-1v-1h1v1zM-333 7573h-1v-1h1v1zM-479 7535h-1v-1h1v1zM-102 7509v-1v-1l1 1v1h-1zM-99 7505h-1v-1h1v1zM-97 7503v-1l1 -1v2h-1zM-173 7503h-1v-1h1v1zM-267 7504h-1v-1h1v1zM-289 7521h-1v-1h1v1zM-271 7490h-1v-1h1v1zM-66 7457v1l-1 -1h1zM-66 7457v-1h1l-1 1zM-76 7455v-1h1l-1 1zM-75 7454v-1h1v1h-1zM-61 7452l1 -1v1h-1zM-60 7451v-1h1l-1 1zM-40 7450h-1v-1h1v1zM-45 7448h-1v-1h1v1zM-56 7447v1l-1 -1h1zM-42 7447h-1v-1h1v1zM-46 7447h-1v-1h1v1zM-52 7447h-2v-1h2v1zM-45 7446h-1v-1h1v1zM-47 7446h-1v-1h1v1zM-50 7446h-1l1 -1h1l-1 1zM-77 7456v-1h1v1h-1zM-150 7393h-1v-1h1v1zM-151 7392l-1 -1v-1h1v2zM-152 7390h-1v-1h1v1zM-153 7388h-1v-1h1v1zM-154 7387h-2v-1v-1l2 1v1zM-244 7364l-1 -1v-1h1v2zM-244 7361h-1v-1h1v1zM-245 7360h-1v-3l1 1v2zM-243 7359l-1 -1v-2h1v3zM-242 7355l-1 -1v-1l1 1v1zM-244 7355l-1 -1v-1l1 1v1zM-243 7353h-1v-1h1v1zM-245 7353h-1v-1h1v1zM-249 7271h1l1 1h-1h-1v-1zM-246 7271h-1v-1h1v1zM-251 7271v-1l2 1h-2zM-253 7270h-1v-1h1v1zM-246 7270v-1l2 -1l-2 2zM-246 7268h-1v-1h1v1zM-243 7267h-1v-1h1v1zM-245 7267h-1v-1h1v1zM-242 7266h-1v-1h1v1zM-243 7264h-1v-1h1v1zM-241 7262h-1v-1h1v1zM-242 7261h-1v-1h1v1zM-240 7260h-1v-1h1v1zM503 7575h-1v-1h1v1zM509 7573h-1v-1h1v1zM518 7572h-2v-1h2v1zM514 7572h-2v-1h3l-1 1zM266 7560h-1v-1h1v1zM267 7557h-1v-1h1v1zM256 7543h-1v-1h1v1zM518 7363v-1h1l-1 1zM525 7356h-1v-1h1v1zM528 7352h-1v-1h1v1zM529 7349l-1 1v-1h1zM529 7348h1l-1 1v-1zM531 7348h-1v-1h1v1zM532 7344h1l-1 1v-1zM530 7344v-2l2 -1v1v2h-2zM533 7341h-1v-1h1v1zM536 7340h-1v-1h1v1zM535 7339h-1v-1h1v1zM539 7337h-1v-1h1v1zM537 7336h-1v-1h1v1zM539 7335h-1v-1h1v1zM541 7333h-1v-1h1v1zM543 7332h-1v-1h1v1zM544 7331h-1v-1h1v1zM549 7328h-1v-1h1v1zM550 7325h-1v-1h1v1zM551 7324h-1v-1h1v1zM555 7323h-1v-1h1v1zM554 7322h-1v-1h1v1zM555 7321h-1v-1h1v1zM555 7319h-1v-1h1v1zM270 7339h-1v-1h1v1zM273 7333h-1v-1h1v1zM274 7332h-1l1 -1v1zM275 7328h-1v-1h1v1zM276 7327l-1 -1h1v1zM279 7323h-1v-1h1v1zM279 7322l1 -1v1h-1zM190 8106h-1v-1h1v1zM184 8104h-1v-1h1v1zM242 7547h-1v-1h1v1zM120 8207h-1v-1h1v1zM117 8207h-1v-1h1v1zM130 8206h-1v-1h1v1zM135 8205h-1v-1h1v1zM129 8204h-1v-1h1v1zM127 8204h-1v-1h1v1zM138 8203h-1v-1h1v1zM135 8203h-1v-1h1v1zM156 8202h-1v-1h1v1zM154 8202h-1v-1h1v1zM168 8201h-1v-1h1v1zM164 8201h-1l1 -1h1l-1 1zM152 8201h-1v-1h1v1zM174 8200h-1l1 -1h1l-1 1zM161 8200h-1v-1h1v1zM172 8200l-4 -1h-1l1 -1h2l2 2zM125 8199h-1v-1h1v1zM178 8198h-2v-1h2v1zM130 8198h-1l1 -1h1l-1 1zM169 8197h-1v-1h1v1zM138 8197h-1l1 -1h1l-1 1zM147 8196h-1v-1h1v1zM151 8195h-1v-1h1v1zM179 8193h-1v-1h1v1zM176 8193h-1v-1h1v1zM138 8193h-2v-1h2v1zM133 8192h-1v-1h1v1zM131 8192h-1v-1h1v1zM160 8190h-1v-1h1v1zM123 8190h-1v-1h1v1zM152 8189h-1v-1h1v1zM145 8188h-1v-1h1v1zM138 8187h-2v-1h2v1zM125 8187h-1v-1h1v1zM119 8188l-1 -1v-1h1v2zM132 8186h-2v-1h2v1zM138 8185h-1v-1h1v1zM128 8185h-1v-1h1v1zM147 8184h-1v-1h1v1zM136 8184h-3l1 -1h2v1zM144 8183h-1v-1h1v1zM142 8183h-1v-1h1v1zM124 8183h-1v-1h1v1zM122 8183h-2v-1h2v1zM152 8182h-2v-1h2v1zM129 8182h-5v-1h4v-1h1v2zM146 8180h-1v-1h1v1zM126 8180h-1v-1h1v1zM144 8180h-2l2 -2h1l-1 2zM142 8178h-4v-1h5l-1 1zM137 8178h-1v-1h1v1zM170 8177h-1v-1h1v1zM166 8177h-2v-1h3l-1 1zM162 8177h-2v-1h3l-1 1zM149 8177h-1v-1h1v1zM147 8177h-1v-1h1v1zM131 8177h-1v-1h1v1zM128 8177h-5l1 -1h4v1zM179 8176h-1v-1h1v1zM176 8177l-2 -1v-1h2l1 1l-1 1zM172 8176h-2v-1h3l-1 1zM168 8176h-1l1 -1h1l-1 1zM165 8175h-1v-1h1v1zM163 8175h-1v-1h1v1zM150 8175h-1v-1h1v1zM148 8175h-1v-1h1v1zM146 8175h-1v-1h1v1zM178 8175l-1 -1v-1l1 1v1zM176 8174h-1v-1h1v1zM147 8174h-1v-1h1v1zM142 8175l-2 -1h-1l1 -1h4v1l-2 1zM138 8174h-1v-1h1v1zM136 8174h-1v-1h1v1zM134 8174h-3l1 -1h2v1zM130 8174h-3l1 -1h2v1zM126 8174h-2v-1h2v1zM121 8174h-1v-1h1v1zM127 8173h-1v-1h1v1zM123 8173h-1v-1h1v1zM116 8188h-1v-1h1v1zM117 8184l-1 1l-1 -1l1 -1h3l-1 1h-1zM98 8177h-1v-1h1v1zM96 8177h-1v-1h1v1zM93 8177h-1v-1h1v1zM90 8177h-1v-1h1v1zM85 8177h-1v-1h1v1zM83 8177h-1v-1h1v1zM81 8177h-1v-1h1v1zM78 8177h-1v-1h1v1zM74 8177h-1v-1h1v1zM72 8177h-1v-1h1v1zM77 8175h-1v-1h1v1zM53 8175h-1v-1h1v1zM54 8174h-1v-1h1v1zM120 8173h-5l1 -1h4v1zM99 8173h-1v-1h1v1zM90 8174h-4l2 -2v1l2 -1l1 2h-1zM85 8173h-1v-1h1v1zM77 8173h-1v-1h1v1zM75 8173h-1v-1h1v1zM72 8173h-1l1 -1h1l-1 1zM70 8173h-2v-1h2v1zM104 8172h-1v-1h1v1zM97 8173h-1l-1 -1l1 -1l1 1v1zM94 8172h-1v-1h1v1zM87 8172h-1v-1h1v1zM82 8173l-1 -1v-1l1 1v1zM21 8182h-1v-1h1v1zM18 8182h-1l1 -1h1l-1 1zM12 8182h-1v-1h1v1zM28 8181h-1l1 -1h1l-1 1zM26 8181h-1v-1h1v1zM13 8181h-1v-1h1v1zM46 8179h-1v-1h1v1zM38 8179h-1l1 -1h1l-1 1zM35 8180l-1 -1v-1h1v2zM12 8179h-1v-1h1v1zM9 8179h-1v-1h1v1zM40 8177h-4v-1h4v1zM18 8177h-2v-1h2v1zM35 8177h-3v-1l2 -1h1v2zM32 8176h-2v-1h2v1zM29 8176h-1v-1h1v1zM14 8176h-1v-1h1v1zM26 8175h-1v-1h1v1zM24 8175h-2v-1h2v1zM41 8174h-1v-1h1v1zM-126 8188h-1v-1h1v1zM-130 8188h-1v-1h1v1zM-132 8188h-1v-1h1v1zM-131 8187h-1v-1h1v1zM-127 8187l-1 -1v-1l1 1v1zM-130 8186h-1v-1h1v1zM-139 8185h-1v-1h1v1zM-126 8184h-1v-1h1v1zM-131 8183l1 1h-1v-1zM-131 8184l-1 1h-1l1 -2v1h1zM-123 8183h-1v-1h1v1zM-128 8183h-1v-1h1v1zM-132 8183v-1l1 1h-1zM-136 8183h-1v-1h1v1zM-122 8182h-1v-1h1v1zM-125 8182h-1v-1h1v1zM-138 8182h-2v-1h2v1zM-130 8182l-1 -1v-1h1v2zM-133 8181h-1v-1h1v1zM-128 8182l-1 -2l1 -1l1 1v2h-1zM-129 8179h-1v-1h1v1zM-128 8178h-1v-1h1v1zM-131 8178h-1v-1h1v1zM-119 8177h-1v-1h1v1zM-122 8177h-1v-1h1v1zM-126 8177h-1v-1h1v1zM-124 8176h-1v-1h1v1zM-121 8175h-1v-1h1v1zM-120 8174h-1v-1h1v1zM-117 8173h-1v-1h1v1zM-120 8172h-1l1 -1h1l-1 1zM-152 8191h-1l1 -1h1l-1 1zM-156 8190v1l-1 -1h1zM-149 8190h-1v-1h1v1zM-144 8188h-1v-1h1v1zM-157 8190h-1v-3h2v1h-1v2zM-141 8186h-1v-1h1v1zM-148 8185h2v1h-2v-1zM-152 8186v-1l1 1h-1zM-156 8186h-1v-1h1v1zM-152 8185h-2v-1h2v1zM-155 8185h-1v-1h1v1zM-141 8183h-1v-1h1v1zM-148 8182h3l-1 1l-2 1v-2zM-152 8184l2 -2h1l-1 2h-2zM-149 8182l1 -1v1h-1zM-142 8181h-1v-1h1v1zM-150 8181h-1v-1h1v1zM-149 8180h-1v-1h1v1zM-140 8178v2h-1v-2h1zM-148 8179h-1v-1h1v1zM-142 8178v-1h1v1h-1zM-147 8178h-1v-1h1v1zM-146 8177h-1v-1h1v1zM-161 8176h-1v-1h1v1zM-158 8175h-1v-1h1v1zM-196 8174h-1v-1h1v1zM-151 8173h-1v-1h1v1zM-160 8173h-1v-1h1v1zM-150 8172h-1v-1h1v1zM-216 8182h-1l1 -1h1l-1 1zM-212 8181h-1v-1h1v1zM-210 8180h-1v-1h1v1zM-217 8179h-1v-1h1v1zM-206 8178h-1v-1h1v1zM-238 8177h2v1h-2v-1zM-240 8178v-1h1v1h-1zM-239 8177v-1h1v1h-1zM-236 8177v-1l2 -2h2v1h-2l-2 2zM-208 8174h-1v-1h1v1zM-236 8174h-1v-1h1v1zM131 8167h-1v-1h1v1zM127 8167h-1v-1h1v1zM146 8166h-1v-1h1v1zM138 8166h-2v-1h2v1zM134 8166h-1l1 -1h1l-1 1zM140 8166l-2 -2h5l-1 1h-2v1zM148 8164h-1l1 -1h1l-1 1zM146 8164h-1v-1h1v1zM152 8163h-2v-1h2v1zM136 8163h-2v-1h2v1zM158 8162h-1v-1h1v1zM154 8162h-2v-1h2v1zM142 8162h-1v-1h1v1zM156 8160h-2v-1h2v1zM151 8159h-1v-1h1v1zM148 8159h-1l1 -1h1l-1 1zM146 8159h-1v-1h1v1zM154 8159h-2v-1l2 -1v1v1zM150 8157h-4v-1h5l-1 1zM117 8157h-1v-1h1v1zM146 8156h-1v-1h1v1zM144 8156h-1v-1h1v1zM141 8157l-1 -1v-1l1 1v1zM139 8156h-1v-1h1v1zM136 8156h-1l1 -1h1l-1 1zM124 8157h-1v-1l1 -1l1 1l-1 1zM121 8157h-3v-1l2 -1h1v2zM134 8157h-2v-3l3 2l-1 1zM131 8155h-1v-1h1v1zM124 8154h-2v-1h3l-1 1zM119 8153h-1v-1h1v1zM121 8150h-1v-1h1v1zM164 8149h-5l1 -1h4v1zM154 8149h-3l1 -1h3l-1 1zM150 8149h-2v-1h2v1zM146 8149h-1l1 -1h1l-1 1zM144 8149h-2v-1h2v1zM140 8149h-3l1 -1h2v1zM136 8149h-1v-1h1v1zM130 8149h-3l1 -1h3l-1 1zM124 8149h-1v-1h1v1zM117 8149h-1v-1h1v1zM170 8148h-1v-1h1v1zM168 8149h-3l1 -1l2 -1l1 1l-1 1zM126 8148h-2v-1h2v1zM119 8148h-1v-1h1v1zM142 8147h-1v-1h1v1zM138 8147h-1l1 -1h1l-1 1zM136 8147h-1v-1h1v1zM130 8147h-1l1 -1h1l-1 1zM128 8147h-1v-1h1v1zM148 8146h-1l1 -1h1l-1 1zM146 8146h-1v-1h1v1zM144 8146h-2v-1h2v1zM141 8146h-1v-1h1v1zM134 8150h-2v-5h2v1l-1 2h1v2zM124 8147h-2v-1l-2 1v-1v-1h4v2zM168 8145h-1v-1h1v1zM166 8145h-1v-1h1v1zM160 8145h-3l1 -1h2v1zM155 8145h-1v-1h1v1zM152 8145h-1v-1h1v1zM117 8145h-1v-1h1v1zM170 8144h-1v-1h1v1zM164 8145h-3v-2h1l2 1v1zM151 8144h-1v-1h1v1zM148 8144h-1v-1h1v1zM136 8144h-1v-1h1v1zM122 8144h-1l1 -1h1l-1 1zM120 8144h-1v-1h1v1zM161 8143h-1v-1h1v1zM156 8143h-1v-1h1v1zM138 8143h-1v-1h1v1zM117 8143h-1v-1h1v1zM168 8142h-1v-1h1v1zM164 8142h-1v-1h1v1zM150 8142h-1v-1h1v1zM145 8142h-1v-1h1v1zM130 8143l-2 -1v-1h4v1l-2 1zM160 8141h-1v-1h1v1zM158 8141h-1v-1h1v1zM138 8141h-1l1 -1h1l-1 1zM134 8142h-1l1 -2h2l-2 2zM174 8142l-1 -2l1 -1l2 1h2v1h-2l-2 1zM171 8140h-1v-1h1v1zM168 8140h-2v-1h2v1zM164 8140h-1v-1h1v1zM146 8140h-1v-1h1v1zM141 8140h-1v-1h1v1zM165 8139h-1v-1h1v1zM162 8140l-1 -1v-1h1v2zM160 8139h-2v-1h2v1zM150 8139h-1l1 -1h1l-1 1zM148 8139h-1v-1h1v1zM172 8138h-1v-1h1v1zM158 8138h-1v-1h1v1zM84 8171h-1v-1h1v1zM95 8170h-1v-1h1v1zM64 8162h-1v-1h1v1zM74 8161h-1v-1h1v1zM72 8161h-1v-1h1v1zM86 8160h-2v-1h3l-1 1zM104 8158h-1v-1h1v1zM116 8153h-1v-1h1v1zM114 8152h-1v-1h1v1zM112 8151h-2v-1h2v1zM76 8151h-1v-1h1v1zM74 8151h-1v-1h1v1zM67 8151h-1v-1h1v1zM64 8151h-1v-1h1v1zM82 8151h-2v-1v-1l2 1v1zM77 8150h-1v-1h1v1zM70 8150h-1v-1h1v1zM106 8149h-2v-1h2v1zM99 8149h-1v-1h1v1zM96 8149h-1v-1h1v1zM89 8149h-1v-1h1v1zM84 8150l-1 -1v-1h1v2zM80 8149h-1v-1h1v1zM78 8149h-1v-1h1v1zM68 8149h-1v-1h1v1zM66 8149h-1v-1h1v1zM62 8149h-1v-1h1v1zM116 8148h-2v-1h2v1zM114 8149h-2v-1v-1l2 1v1zM53 8148h-1v-1h1v1zM106 8147h-2v-1h2v1zM91 8147h-1v-1h1v1zM87 8147h-1v-1h1v1zM69 8147h-1v-1h1v1zM66 8147h-1l1 -1h1l-1 1zM76 8146h-1l1 -1h1l-1 1zM112 8146v-1l2 -1l-2 2zM111 8145h-1v-1h1v1zM108 8145h-1v-1h1v1zM106 8145h-2v-1h2v1zM114 8143h-1v-1h1v1zM110 8143h-1l1 -1h1l-1 1zM108 8143h-1v-1h1v1zM99 8143h-1v-1h1v1zM96 8143h-1l1 -1h1l-1 1zM93 8143h-1v-1h1v1zM88 8143h-1l1 -1h1l-1 1zM86 8143h-3l1 -1h2v1zM82 8143h-3l1 -1h2v1zM78 8143h-3l1 -1h2v1zM74 8143h-1v-1h1v1zM72 8143h-1v-1h1v1zM70 8143h-2v-1h2v1zM66 8143h-2v-1h2v1zM107 8112h-1v-1h1v1zM71 8112h-1v-1h1v1zM64 8112h-2v-1h2v1zM108 8111h-1v-1h1v1zM106 8111h-2v-1h2v1zM78 8111h-2v-1h2v1zM74 8111h-1v-1h1v1zM90 8110h-2v-1h2v1zM86 8110h-1v-1h1v1zM83 8110h-1v-1h1v1zM104 8109h-1l1 -1h1l-1 1zM102 8110l-1 -1v-1h1v2zM23 8169h-1v-1h1v1zM20 8169h-1v-1h1v1zM27 8167h-1v-1h1v1zM23 8167h-1v-1h1v1zM20 8167h-1v-1h1v1zM26 8166h-3l1 -1h2v1zM35 8165h-1v-1h1v1zM32 8166l-1 -2h1h1v2h-1zM21 8165h-1v-1h1v1zM44 8164h-2v-1h3l-1 1zM27 8164h-1v-1h1v1zM24 8164h-1l1 -1h1l-1 1zM54 8163h-4v-1h4v1zM32 8163h-1v-1h1v1zM29 8162h-1v-1h1v1zM28 8161h-1v-1h1v1zM22 8161h-1v-1h1v1zM25 8161l-1 -1v-1l1 1v1zM34 8159h-1v-1h1v1zM27 8159h-1v-1h1v1zM22 8159h-1v-1h1v1zM31 8159l-1 -1v-1l1 1v1zM24 8155h-1v-1h1v1zM30 8154h-1v-1h1v1zM23 8154h-1v-1h1v1zM47 8152h-1v-1h1v1zM44 8152h-1l1 -1h1l-1 1zM34 8153l-1 -1l1 -1h1v1l-1 1zM52 8152l-1 -1v-1h1v2zM46 8151h-1v-1h1v1zM38 8152h-2l2 -2h3l-1 1l-2 1zM49 8151h-2v-2h2v2zM34 8149h-1v-1h1v1zM31 8149h-1v-1h1v1zM50 8148h-1v-1h1v1zM46 8148h-4v-1h4v1zM36 8148h-1v-1h1v1zM32 8148h-1l1 -1h1l-1 1zM24 8149h-1v-1l1 -1l1 1l-1 1zM22 8148h-1v-1h1v1zM23 8147h-1v-1h1v1zM52 8146h-2v-1h2v1zM48 8146h-5l1 -1h5l-1 1zM40 8146h-1v-1h1v1zM46 8144h-1v-1h1v1zM32 8121h-1v-1h1v1zM31 8120h-1v-1h1v1zM31 8118h-1v-1h1v1zM38 8116v-1l1 1h-1zM34 8116h-1v-1h1v1zM49 8114h-1v-1h1v1zM47 8114h-1v-1h1v1zM-119 8170h-1v-1h1v1zM-119 8167h-1v-1h1v1zM-130 8167h-1v-1h1v1zM-137 8166h-1v-1h1v1zM-135 8164h-1v-1h1v1zM-125 8159h-1v-1h1v1zM-132 8159h-1v-1h1v1zM-127 8158l1 -1v1h-1zM-126 8156h1l-1 1v-1zM-127 8155h1v1h-1v-1zM-128 8155v-1l1 1h-1zM-152 8171h-2v-1h2v1zM-151 8170h-1v-1h1v1zM-202 8170h-1v-1h1v1zM-154 8169h-1v-1h1v1zM-189 8169h-1v-1h1v1zM-191 8168h-1v-1h1v1zM-151 8167h-1v-1h1v1zM-198 8167h-1v-1h1v1zM-151 8166l1 -1v1h-1zM-198 8163h-1v-1h1v1zM-191 8162h-1v-1h1v1zM-203 8162h-1v-1h1v1zM-147 8161h-1v-1h1v1zM-184 8161h-1v-1h1v1zM-186 8161h-1v-1h1v1zM-145 8160h-1v-1h1v1zM-148 8160h-1v-1h1v1zM-177 8160h-1v-1h1v1zM-183 8160h-1v-1h1v1zM-185 8160h-1v-1h1v1zM-200 8159h-1v-1h1v1zM-180 8158h-1v-1h1v1zM-182 8159l-1 -1v-1l1 1v1zM-179 8157h-1v-1h1v1zM-199 8157h-1v-1h1v1zM-177 8156h-1v-1h1v1zM-183 8156h-1v-1h1v1zM-176 8155h-1v-1h1v1zM-178 8155h-1v-1h1v1zM-172 8153h-2v-1h2v1zM-196 8153h-1v-1h1v1zM-200 8153h-1v-1h1v1zM-195 8152h-1v-1h1v1zM-198 8152h-2v-1h2v1zM-189 8151h-1v-1h1v1zM-197 8151h-1v-1h1v1zM-191 8150h-1v-1h1v1zM-194 8150h-2v-1h2v1zM-200 8150h-1v-1h1v1zM-190 8147h-1v-1h1v1zM-192 8149l-1 -1v-2h1v3zM-231 8172h-1h-1l1 -2h1v2zM-209 8170h-1v-1h1v1zM-220 8167h-1v-1h1v1zM-219 8166h-1v-1h1v1zM-218 8165h-1v-1h1v1zM-245 8165h-1v-1h1v1zM-247 8165h-1v-1h1v1zM-250 8165h-1v-1h1v1zM-220 8164h-1v-1h1v1zM-244 8164h-1l1 -1h1l-1 1zM-242 8163h-1v-1h1v1zM-251 8164l-1 -1v-1h1v2zM-217 8162h-1v-1h1v1zM-245 8162h-1v-1h1v1zM-211 8161h-1v-1h1v1zM-238 8161h-1v-1h1v1zM-241 8160h-1v-1h1v1zM-210 8159h-1l1 -1h1l-1 1zM-242 8159h-1v-1h1v1zM-208 8158h-1v-1h1v1zM-238 8158h-1v-1h1v1zM-241 8158h-1v-1h1v1zM-206 8157h-2v-1h2v1zM-221 8157h-1v-1h1v1zM-234 8158h-2l2 -2h1l-1 2zM-205 8156h-1v-1h1v1zM-236 8156h-1v-1h1v1zM-242 8156h-1l1 -1h1l-1 1zM-248 8157l-1 -1v-1l1 1v1zM-202 8155h-2l-1 -1l1 -1h2l1 1l-1 1zM-218 8155h-1v-1h1v1zM-234 8155h-1v-1h1v1zM-246 8155h-1v-1h1v1zM-219 8154h-1v-1h1v1zM-233 8154h-1v-1h1v1zM-239 8154h-1v-1h1v1zM-245 8154h-1v-1h1v1zM-235 8153h-1v-1h1v1zM-216 8152h-1v-1h1v1zM-218 8152h-1v-1h1v1zM-265 8152h-1v-1h1v1zM-215 8151h-1v-1h1v1zM-233 8152h-1h-1l1 -2h1v2zM-236 8152l-1 -1v-1h1v2zM-261 8151h-1v-1h1v1zM-234 8150h-1v-1h1v1zM-214 8149h-1v-1h1v1zM-258 8149h-1v-1h1v1zM-262 8150l-1 -1v-1h1v2zM-234 8148h-1v-1h1v1zM-256 8148h-1v-1h1v1zM-213 8147h-1v-1h1v1zM-215 8147h-1v-1h1v1zM-233 8147h-1v-1h1v1zM-240 8148h-2l2 -2v2zM-254 8147h-1v-1h1v1zM-264 8147h-1v-1h1v1zM-266 8147h-1v-1h1v1zM-222 8146v-1h2v1h-2zM-232 8146h-1v-1h1v1zM-239 8146h-1v-1h1v1zM-253 8146h-1v-1h1v1zM-255 8146h-1v-1h1v1zM-212 8145h-1v-1h1v1zM-220 8144h2v1h-2v-1zM-234 8145h-1v-1h1v1zM-251 8145h-1v-1h1v1zM-214 8144h-1v-1h1v1zM-216 8144h-1v-1h1v1zM-222 8144v-1l2 1h-2zM-237 8145h-1l-1 -1l1 -1l1 1v1zM-250 8144h-1v-1h1v1zM-213 8143h-1v-1h1v1zM-217 8143h-1v-1h1v1zM-232 8143h-1v-1h1v1zM-235 8143h-1v-1h1v1zM-248 8143h-1v-1h1v1zM-255 8143h-1v-1h1v1zM-215 8142h-1v-1h1v1zM-246 8142h-1v-1h1v1zM-260 8142h-1v-1h1v1zM-218 8141h-1v-1h1v1zM-247 8141h-1v-1h1v1zM-234 8140h-1v-1h1v1zM-264 8140h-1v-1h1v1zM-246 8141v-1l2 -2h2l-2 2l-2 1zM-263 8139h-1v-1h1v1zM-240 8138h-1v-1h1v1zM-239 8137h-1v-1h1v1zM-238 8136h-1v-1h1v1zM-250 8136h-1v-1h1v1zM-261 8136h-1v-1h1v1zM-260 8135h-1v-1h1v1zM-264 8135h-1v-1h1v1zM-250 8134h-1v-1h1v1zM-234 8134h-3l1 -1l2 -1h1l-1 2zM-251 8133h-1v-1h1v1zM-259 8133h-1v-1h1v1zM-237 8132h-1v-1h1v1zM-258 8132l-1 -1v-1h1v2zM-253 8130h-1v-1h1v1zM-262 8130h-1v-1h1v1zM-246 8128v1l-1 -1h1zM-248 8129h-1v-1h1v1zM-256 8130l-1 -1v-1h1v2zM-265 8129h-1v-1h1v1zM-219 8128h-1v-1h1v1zM-222 8128h-1v-1h1v1zM-246 8127l1 1h-1v-1zM-247 8128h-1l1 -1v1zM-255 8128h-1v-1h1v1zM-254 8127h-1v-1h1v1zM-247 8127v-1l1 -1v1v1h-1zM-242 8124h-1v-1h1v1zM-254 8126v-1l2 -2v1l-2 2zM-247 8123h-1v-1h1v1zM-251 8123h-1v-1h1v1zM-253 8123h-1v-1h1v1zM-242 8122h-1v-1h1v1zM-249 8121l-1 -1v-1l1 1v1zM-266 8120h-1v-1h1v1zM-242 8119h-1v-1h1v1zM-265 8119h-1v-1h1v1zM-245 8118h-1v-1h1v1zM-247 8118h-1v-1h1v1zM-258 8118h-1v-1h1v1zM-262 8118h-1v-1h1v1zM-264 8118h-1v-1h1v1zM-243 8117h-1v-1h1v1zM-246 8117h-1v-1h1v1zM-237 8116h-1v-1h1v1zM-241 8116h-1v-1h1v1zM-245 8116h-1v-1h1v1zM-248 8116h-1v-1h1v1zM-244 8114h-1v-1h1v1zM-262 8115l-1 -1v-1l1 1v1zM-242 8113h-1v-1h1v1zM-259 8114l-1 -1v-1h1v2zM-257 8111h-1v-1h1v1zM-252 8110h-1v-1h1v1zM-260 8110h-1l1 -1h1l-1 1zM-258 8108v1l-1 -1h1zM-248 8108h-1v-1h1v1zM-255 8108h-1v-1h1v1zM-259 8108h-1l1 -1v1zM-268 8151l-1 -1v-1l1 1v1zM-271 8140h-1v-1h1v1zM-270 8139h-1l1 -1h1l-1 1zM-277 8139h-1v-1h1v1zM-272 8137h-1v-1h1v1zM-276 8137l-1 -1v-1l1 1v1zM-268 8135h-1v-1h1v1zM-268 8133h-1v-1h1v1zM-273 8131h-1v-1h1v1zM-272 8129h-1v-1h1v1zM-268 8123h-1v-1h1v1zM-279 8115h-1v-1h1v1zM-282 8114l-1 -1v-1h1v2zM-275 8111h-1v-1h1v1zM-273 8110h-1v-1h1v1zM-272 8109h-1v-1h1v1zM-278 8109h-1v-1h1v1zM-281 8109h-1v-1h1v1zM-268 8108h-1l1 -1h1l-1 1zM-274 8108h-1v-1h1v1zM-276 8108h-1v-1h1v1zM-279 8108h-1v-1h1v1zM-111 8107h-1v-1h1v1zM-104 8107h-4v-1v-1l2 1h2v1zM-246 8107h-1v-1h1v1zM-259 8107v-1h2l-1 2v-1h-1zM-266 8107h-1l1 -1h1l-1 1zM-270 8108l-1 -1l1 -1h1l-1 2zM-275 8107h-1v-1h1v1zM-280 8107l-1 -1v-1l1 1v1zM-270 8104l-2 3l-1 -1l-1 -3h2v1h2zM460 8173h-3l1 -1h2v1zM456 8173h-1v-1h1v1zM452 8173h-5l1 -1h4v1zM444 8173h-1v-1h1v1zM442 8173h-1v-1h1v1zM439 8173h-1v-1h1v1zM457 8172h-1v-1h1v1zM455 8172h-1v-1h1v1zM436 8173h-2v-1h2v1zM433 8173h-1v-1h1v1zM431 8172h-1v-1h1v1zM428 8172h-1v-1h1v1zM424 8172h-5l1 -1h4v1zM418 8172h-5l1 -1h4v1zM412 8172h-1v-1h1v1zM408 8172h-1v-1h1v1zM406 8172h-1v-1h1v1zM312 8209h-1v-1h1v1zM334 8207h-1v-1h1v1zM330 8207h-1v-1h1v1zM326 8204h-3l1 -1h2v1zM334 8203h-1v-1h1v1zM326 8202h-1v-1h1v1zM322 8202h-1l1 -1h1l-1 1zM320 8202h-1v-1h1v1zM318 8202h-1v-1h1v1zM349 8175h-1v-1h1v1zM355 8173h-1v-1h1v1zM354 8174h-2l-1 -2h1l2 2zM305 8209h-1v-1h1v1zM302 8209h-1v-1h1v1zM288 8208h-2v-1h2v1zM284 8208h-1l1 -1h1l-1 1zM282 8208h-1v-1h1v1zM292 8207h-1l1 -1h1l-1 1zM271 8207h-1v-1h1v1zM299 8206h-1v-1h1v1zM296 8206h-1v-1h1v1zM278 8206h-1v-1h1v1zM273 8206h-1v-1h1v1zM255 8205h-1v-1h1v1zM248 8205h-1v-1h1v1zM245 8205h-1v-1h1v1zM279 8204h-1v-1h1v1zM270 8204h-1v-1h1v1zM301 8203h-1v-1h1v1zM260 8203h-2v-1h2v1zM256 8203h-1v-1h1v1zM308 8202h-1v-1h1v1zM304 8203l-1 -1v-1l1 1v1zM293 8202h-1v-1h1v1zM286 8202h-4v-1h4v1zM252 8202h-1v-1h1v1zM247 8202h-1v-1h1v1zM302 8201h-2v-1h2v1zM297 8202h-1h-1l1 -2h3l-1 1l-1 1zM295 8201h-1v-1h1v1zM290 8201h-4v-1h5l-1 1zM281 8201h-1v-1h1v1zM278 8201l-1 -1v-1l1 1v1zM266 8200h-1v-1h1v1zM284 8174h-1v-1h1v1zM252 8174h-1v-1h1v1zM266 8173h-2v-1h2v1zM262 8173h-3l1 -1h3l-1 1zM258 8173h-4v-1h4v1zM251 8173h-1v-1h1v1zM248 8173h-1v-1h1v1zM282 8172h-2v-1h2v1zM279 8172h-1v-1h1v1zM274 8172h-1v-1h1v1zM238 8204h-1v-1h1v1zM244 8201h-1l1 -1h1l-1 1zM241 8201h-1v-1h1v1zM238 8201h-1v-1h1v1zM236 8200h-1l1 -1h1l-1 1zM234 8200h-2v-1h2v1zM231 8200h-1v-1h1v1zM205 8200h-1v-1h1v1zM202 8200h-1v-1h1v1zM196 8200h-1v-1h1v1zM194 8200h-1v-1h1v1zM188 8200h-1l1 -1h1l-1 1zM229 8200h-2v-2h2v2zM195 8199h-1v-1h1v1zM193 8199h-1v-1h1v1zM226 8199h-4v-1v-1l2 1v-1h2v2zM220 8198h-1v-1h1v1zM218 8198h-2v-1h2v1zM213 8198h-1v-1h1v1zM211 8198h-1v-1h1v1zM203 8197h-1v-1h1v1zM196 8197h-2v-1h2v1zM192 8197h-1l1 -1h1l-1 1zM209 8196h-1v-1h1v1zM190 8196h-1l1 -1h1l-1 1zM207 8195h-1v-1h1v1zM205 8195h-1v-1h1v1zM202 8195h-1v-1h1v1zM198 8196h-1l1 -2h2l-2 2zM197 8195h-1v-1h1v1zM195 8195h-1v-1h1v1zM210 8194h-1v-1h1v1zM201 8194h-1v-1h1v1zM192 8194h-1v-1h1v1zM190 8194h-1v-1h1v1zM185 8194h-1v-1h1v1zM214 8193h-1l1 -1h1l-1 1zM188 8193h-1v-1h1v1zM219 8192h-1v-1h1v1zM205 8192h-1v-1h1v1zM194 8192h-2v-1h2v1zM190 8192h-1v-1h1v1zM200 8191h-5l1 -1h4v1zM204 8190h-1l1 -1h1l-1 1zM202 8190h-1v-1h1v1zM228 8189h-1v-1h1v1zM218 8189h-1v-1h1v1zM208 8189h-2v-1h3l-1 1zM221 8188h-1v-1h1v1zM214 8188h-4v-1h4v1zM224 8187h-1l1 -1h1l-1 1zM216 8187h-1l1 -1h1l-1 1zM227 8186h-1v-1h1v1zM220 8186h-2v-1h2v1zM224 8185h-3l1 -1h2v1zM226 8184h-2v-1h2v1zM228 8182h-1v-1h1v1zM181 8181h-1v-1h1v1zM201 8178h-1v-1h1v1zM222 8177h-1v-1h1v1zM214 8177h-1l1 -1h1l-1 1zM211 8177h-1v-1h1v1zM240 8175v1l-1 -1h1zM236 8176h-1v-1h1v1zM228 8176h-1l1 -1h1l-1 1zM225 8176h-1v-1h1v1zM199 8176h-1v-1h1v1zM194 8176h-1v-1h1v1zM234 8176l-1 -1l1 -1h1l-1 2zM226 8175h-1l1 -1h1l-1 1zM222 8175h-1l1 -1h1l-1 1zM219 8175h-1v-1h1v1zM216 8175h-1v-1h1v1zM212 8175h-1v-1h1v1zM207 8175h-1v-1h1v1zM184 8175h-2v-1h2v1zM181 8175h-1v-1h1v1zM246 8174h-3l1 -1h3l-1 1zM233 8174h-1v-1h1v1zM230 8175l-2 -1v-1h2v1v1zM224 8174h-1v-1h1v1zM205 8174h-1v-1h1v1zM200 8174h-1v-1h1v1zM196 8174h-1l1 -1h1l-1 1zM194 8174h-1v-1h1v1zM220 8173h-1v-1h1v1zM218 8173h-1v-1h1v1zM214 8173h-1v-1h1v1zM193 8173h-1v-1h1v1zM241 8172h-1v-1h1v1zM236 8172h-1v-1h1v1zM182 8200h-3v-2h1v1l2 -1v2zM180 8177h-1v-1h1v1zM453 8171h-1v-1h1v1zM462 8172h-2l2 -3l1 1l-1 2zM458 8171l-1 -1v-1l1 1v1zM456 8170h-2v-1h2v1zM452 8170h-2v-1h2v1zM449 8170h-1v-1h1v1zM447 8170h-1v-1h1v1zM444 8170h-2v-1h2v1zM441 8170h-1v-1h1v1zM457 8169h-1v-1h1v1zM448 8169h-1v-1h1v1zM446 8169h-2v-1h2v1zM444 8168h-1v-1h1v1zM442 8168h-2v-1h2v1zM462 8168h-1v-2h1l1 2h-1zM456 8167h-1v-1h1v1zM450 8167h-1l1 -1h1l-1 1zM448 8167h-3l1 -1h2v1zM440 8167h-2v-1h2v1zM437 8167h-1v-1h1v1zM461 8166h-1v-1h1v1zM458 8167l-1 -1v-1l1 1v1zM457 8165h-1v-1h1v1zM454 8165h-1l1 -1h1l-1 1zM452 8164h-1l1 -1h1l-1 1zM450 8164h-2v-1h2v1zM447 8163h-1v-1h1v1zM444 8162h-2v-1h2v1zM439 8161h-1v-1h1v1zM446 8159h-1v-1h1v1zM443 8159h-1v-1h1v1zM440 8159h-2v-1h2v1zM454 8158h-1l1 -1h1l-1 1zM450 8159h-3l1 -1l2 -1v1v1zM451 8157h-1v-1h1v1zM454 8156h-3l1 -1h2v1zM449 8157l-1 -1v-1l1 1v1zM446 8157h-2v-1l2 -1l1 1l-1 1zM443 8156h-1v-1h1v1zM440 8156h-3l1 -1h2v1zM458 8155h-1v-1h1v1zM468 8152v-1l1 1h-1zM466 8151v-1l2 1h-2zM464 8152h-3v-2h3v2zM465 8150h-1v-1h1v1zM460 8151h-2v-2h2v2zM452 8150h-1v-1h1v1zM464 8149h-3l1 -1h2v1zM457 8150h-4l1 -1l1 -1h2v2zM458 8148h-1l1 -1h1l-1 1zM452 8148h-1v-1h1v1zM451 8147h-1v-1h1v1zM450 8149l-2 -2v-1l2 2v1zM448 8149h-2v-3h1v2h1v1zM444 8148h-2l2 -3l1 1l-1 2zM440 8146h-3l1 -1h3l-1 1zM442 8145h-1v-1h1v1zM389 8171h-1v-1h1v1zM386 8171h-2v-1h2v1zM398 8170h-1v-1h1v1zM418 8168h-1v-1h1v1zM415 8168h-1v-1h1v1zM409 8168h-1v-1h1v1zM395 8168h-1v-1h1v1zM393 8168h-1v-1h1v1zM391 8168h-1v-1h1v1zM432 8166h-2v-1h2v1zM426 8166h-1v-1h1v1zM424 8166h-1v-1h1v1zM417 8166h-1v-1h1v1zM414 8166h-1v-1h1v1zM428 8165h-1v-1h1v1zM425 8163h-1v-1h1v1zM421 8162h-1v-1h1v1zM418 8163l-1 -1v-1l1 1v1zM406 8160h-2v-1h2v1zM402 8159h-1v-1h1v1zM410 8158h-4v-1h4v1zM394 8158h-2v-1h2v1zM391 8158h-1v-1h1v1zM414 8157h-1v-1h1v1zM380 8157h-1v-1h1v1zM373 8157h-1v-1h1v1zM405 8156h-1v-1h1v1zM402 8156h-1v-1h1v1zM376 8156h-1v-1h1v1zM426 8155h-2v-1h2v1zM423 8155h-1v-1h1v1zM418 8155h-1v-1h1v1zM416 8155h-3l1 -1h2v1zM412 8155h-3l1 -1h2v1zM408 8155h-1v-1h1v1zM396 8155h-2v-1h2v1zM433 8154h-1v-1h1v1zM407 8154h-1v-1h1v1zM390 8154h-1v-1h1v1zM398 8153h-1v-1h1v1zM395 8153h-1v-1h1v1zM379 8153h-1v-1h1v1zM377 8152h-1v-1h1v1zM434 8146l-2 -2h2h1l-1 2zM428 8145h-2v-1h3l-1 1zM430 8144h-1v-1h1v1zM426 8143h-2v-1h2v1zM424 8144h-2v-2l2 2zM419 8143h-1v-1h1v1zM420 8142h-1l1 -1h1l-1 1zM413 8142h-1v-1h1v1zM416 8141h-2v-1h2v1zM409 8141h-1v-1h1v1zM410 8140h-1l1 -1h1l-1 1zM404 8140h-1v-1h1v1zM409 8139h-1v-1h1v1zM406 8139h-1l1 -1h1l-1 1zM401 8139h-1v-1h1v1zM402 8138h-1l1 -1h1l-1 1zM396 8138h-1l1 -1h1l-1 1zM398 8137h-1l1 -1h1l-1 1zM396 8136h-3l1 -1h3l-1 1zM387 8136h-1v-1h1v1zM385 8136h-1v-1h1v1zM392 8135h-1v-1h1v1zM390 8135h-3l1 -1h2v1zM382 8135h-1v-1h1v1zM384 8134h-1v-1h1v1zM376 8134h-1l1 -1h1l-1 1zM374 8134h-1v-1h1v1zM382 8133h-2v-1h3l-1 1zM373 8133h-1v-1h1v1zM378 8132h-1v-1h1v1zM376 8132h-3l1 -1h2v1zM373 8131h-1v-1h1v1zM361 8170h-1v-1h1v1zM344 8170h-1v-1h1v1zM368 8169h-1l1 -1h1l-1 1zM354 8168h-1l1 -1h1l-1 1zM312 8168h-4v-1h5l-1 1zM364 8167h-4v-1h4v1zM372 8166h-1l1 -1h1l-1 1zM312 8166h-1v-1h1v1zM309 8166h-1v-1h1v1zM366 8157h-1v-1h1v1zM361 8157h-1v-1h1v1zM350 8157h-1l1 -1h1l-1 1zM348 8157h-1v-1h1v1zM345 8157h-1v-1h1v1zM343 8157h-1v-1h1v1zM368 8156h-1v-1h1v1zM360 8156h-2v-1h2v1zM356 8156h-3l1 -1h2v1zM352 8156h-1v-1h1v1zM342 8155h-1l1 -1h1l-1 1zM338 8155h-1v-1h1v1zM336 8155h-1v-1h1v1zM334 8155h-2v-1h2v1zM330 8156h-2l2 -2h1l-1 2zM328 8155h-1v-1h1v1zM312 8155h-3l1 -1h2v1zM363 8156h-2v-2h3v-1l1 1v1l-2 1zM360 8154h-1v-1h1v1zM356 8154h-1l1 -1h1l-1 1zM319 8154h-1v-1h1v1zM337 8153h-1v-1h1v1zM334 8153h-1v-1h1v1zM329 8153h-1v-1h1v1zM327 8154h-1h-1l1 -2h1v2zM322 8154h-2v-2h2v2zM370 8152h-2v-1h2v1zM367 8152h-1v-1h1v1zM331 8152h-1v-1h1v1zM324 8154l-1 -1l-1 -1v-1h2l1 1l-1 2zM320 8152h-1v-1h1v1zM318 8153h-5l1 -1h2v-1l2 1v1zM312 8152h-1l1 -1h1l-1 1zM353 8151h-1v-1h1v1zM310 8151h-1v-1h1v1zM356 8150h-1v-1h1v1zM351 8150h-1v-1h1v1zM348 8150h-2v-1h2v1zM344 8150h-2v-1h3l-1 1zM340 8150h-1v-1h1v1zM337 8150h-1v-1h1v1zM334 8149h-1v-1h1v1zM329 8149h-1v-1h1v1zM326 8149h-3l1 -1h2v1zM322 8149h-1v-1h1v1zM320 8149h-3l1 -1h2v1zM316 8149h-2v-1h2v1zM312 8149h-3l1 -1h3l-1 1zM370 8133h-2v-1h3l-1 1zM364 8132h-1v-1h1v1zM342 8132h-1l1 -1h1l-1 1zM368 8131h-1l1 -1h1l-1 1zM357 8131h-1v-1h1v1zM354 8131h-5l1 -1h5l-1 1zM360 8130h-1l1 -1h1l-1 1zM340 8130h-1v-1h1v1zM322 8130h-1l1 -1h1l-1 1zM339 8129h-1v-1h1v1zM336 8129h-3l1 -1h2v1zM332 8129h-1v-1h1v1zM342 8128h-1l1 -1h1l-1 1zM333 8128h-1v-1h1v1zM319 8128h-1v-1h1v1zM315 8128h-1v-1h1v1zM310 8129h-2v-1v-1l2 1v1zM355 8127h-1v-1h1v1zM332 8127h-1v-1h1v1zM330 8128h-2l2 -2v2zM326 8128h-4v-1h2v-1l2 1h1l-1 1zM322 8127h-2v-1h2v1zM318 8127h-3l1 -1h2v1zM314 8126h-1l1 -1h1l-1 1zM310 8126h-1l1 -1h1l-1 1zM350 8125h-1v-1h1v1zM348 8125h-1v-1h1v1zM328 8125h-1v-1h1v1zM326 8125h-1v-1h1v1zM351 8124h-1v-1h1v1zM312 8124h-1v-1h1v1zM318 8123h-2v-1h2v1zM314 8124l-2 -2h2h1l-1 2zM310 8123h-2v-1h3l-1 1zM339 8122h-1v-1h1v1zM334 8122h-1v-1h1v1zM332 8122h-4v-1h4v1zM327 8122h-1v-1h1v1zM323 8122h-1v-1h1v1zM321 8122h-1v-1h1v1zM259 8171h-1v-1h1v1zM254 8171h-1l1 -1h1l-1 1zM280 8170h-1v-1h1v1zM275 8170h-1v-1h1v1zM272 8170h-2v-1h3l-1 1zM268 8170h-1l1 -1h1l-1 1zM288 8169h-3l1 -1h3l-1 1zM279 8169h-1v-1h1v1zM307 8168h-1v-1h1v1zM296 8168h-2v-1h2v1zM308 8167h-1v-1h1v1zM306 8167h-1v-1h1v1zM304 8167h-1v-1h1v1zM300 8167h-1l1 -1h1l-1 1zM293 8166h1l-1 1v-1zM295 8166h-1v-1h1v1zM286 8166h-5v-2h1v1h4v1zM280 8165h-1v-1h1v1zM277 8165h-1v-1h1v1zM262 8159h-3l1 -1h2v1zM246 8158h-1v-1h1v1zM308 8153v1l-1 -1h1zM307 8153h-1v-1h1v1zM307 8152v-1h2l-1 2v-1h-1zM293 8137h-1v-1h1v1zM247 8137h-1v-1h1v1zM263 8136h-1v-1h1v1zM298 8132h-1v-1h1v1zM295 8132h-1v-1h1v1zM264 8132h-1v-1h1v1zM261 8132h-1v-1h1v1zM273 8131h-1v-1h1v1zM288 8130h-1v-1h1v1zM281 8130h-1v-1h1v1zM250 8130h-1v-1h1v1zM307 8129h-1v-1h1v1zM295 8129h-1v-1h1v1zM292 8129h-1v-1h1v1zM284 8129h-2v-1h3l-1 1zM280 8129h-1v-1h1v1zM276 8129h-1l1 -1h1l-1 1zM274 8129h-1v-1h1v1zM258 8129h-1v-1h1v1zM256 8129h-1v-1h1v1zM247 8129h-1v-1h1v1zM304 8129l-1 -1l3 -1v1h-2v1zM302 8128h-2v-1h2v1zM270 8128h-1v-1h1v1zM268 8128h-4v-1h4v1zM246 8128h-1v-1h1v1zM279 8127h-1v-1h1v1zM262 8127h-1v-1h1v1zM306 8126h-2v-1h2v1zM303 8126h-1v-1h1v1zM300 8126h-1v-1h1v1zM292 8126h-2v-1h3l-1 1zM282 8126h-1v-1h1v1zM280 8126h-1v-1h1v1zM276 8127v-1l2 -1v1l-2 1zM274 8126h-1l1 -1h1l-1 1zM268 8126h-1v-1h1v1zM252 8126h-1v-1h1v1zM308 8126l-2 -2h2v2zM257 8125h-1v-1h1v1zM300 8124h-1v-1h1v1zM298 8124h-1v-1h1v1zM270 8124h-1v-1h1v1zM267 8124h-1v-1h1v1zM306 8123h-1v-1h1v1zM287 8123h-1v-1h1v1zM240 8161h-1v-1h1v1zM192 8160h-2v-1h2v1zM188 8160h-2v-1h3l-1 1zM185 8160h-1v-1h1v1zM244 8158h-2v-1h2v1zM241 8158h-1v-1h1v1zM239 8158h-1v-1h1v1zM228 8157h-1v-1h1v1zM224 8157h-1v-1h1v1zM212 8157h-1v-1h1v1zM208 8157h-1v-1h1v1zM204 8157h-2v-1h3l-1 1zM190 8156h-1l1 -1h1l-1 1zM188 8156h-2v-1h2v1zM184 8156h-2v-1h2v1zM182 8141h-1v-1h1v1zM190 8140h-1v-1h1v1zM188 8140h-1v-1h1v1zM186 8140h-2v-1h2v1zM183 8140h-1v-1h1v1zM197 8139h-1v-1h1v1zM229 8138h-1v-1h1v1zM227 8138h-1v-1h1v1zM192 8138h-1v-1h1v1zM189 8138h-1v-1h1v1zM187 8138h-1v-1h1v1zM184 8138h-2v-1h3l-1 1zM242 8137h-1v-1h1v1zM240 8137h-5l1 -1h4v1zM233 8137h-1v-1h1v1zM186 8137h-1v-1h1v1zM199 8136h-1v-1h1v1zM224 8134h-2v-1h2v1zM182 8139h-5l1 -1h4v1z"/></svg>