<svg xmlns="http://www.w3.org/2000/svg" viewBox="-600 10477 1284 948"><g class="s" data-r fill="#000" fill-rule="evenodd"><path class="chunk" data-i="0" d="M-301 10961h-1l-2 -1l1 -4v-2l1 -1l2 1l-1 7zM-301 10956v-1h-1v1h1zM-299 10950v-2l1 -1l1 1v1h-1v1h-1zM-270 10924h-7l1 -1h6v1zM86 10906l2 -1v1l6 1l-2 2l-1 -1l-5 -2zM-91 10874v-1h-1v1h1zM-82 10881l2 1v1h-2v1h3l3 7v10v2l4 5l-2 2h-2l-1 -3l-2 -5l-1 -10h1l-1 -2v-1l-6 -11l-1 -2l-7 -2h-1l1 -2h4l3 2l1 1v-1h1l1 5l1 2l1 1v-1zM-115 10920h-17l-4 -1l-2 -2h-3l1 -4l8 -30v-1l2 -3h4l4 5h2l2 1l7 3l9 3l10 4h2l1 1l1 4l2 2l-1 6l-1 4l-4 4l-10 2l-13 2zM-117 10918l15 -2l8 -3l4 -3v-2v-5v-2l-2 -2v-2l-29 -10l-4 -3l-4 -2l-8 28v2l2 2h-1v1h2l2 2h6v1l2 -1v1h7zM-247 10928v-1h-1v1h1zM-246 10929v-1h-1v1h1zM-245 10930v-1h-1v1h1zM-242 10932v-1h-1v1h1zM-239 10934v-1h-1v1h1zM-238 10935l1 -1h-1l-1 1h1zM-236 10936v-1h-1v1h1zM-234 10937v-1h-1v1h1zM-233 10938v-1h-1v1h1zM-239 10962h1v3l13 -2l15 -4l2 -1v-2l-2 -2v-2l-4 -1l-2 -2l-2 -1l-7 -2l-3 -1l-2 -2l-2 -1l-6 -5h-2l-2 -2l-2 -1l-6 -4l-2 -2l-2 -1v1l-2 -1h-2v-2l1 -1h-1v-1h-6v-1l7 1h2v2l2 -1l2 1l-1 1h1l1 1v-1l2 -1l2 2l21 15l12 4l2 2h1l5 4l1 4h2l1 2v3l-9 4l-16 4l-26 -1h-2l-6 -4h-2v1l-2 -1l-5 2l-5 1l-6 1v1l-2 -1l-8 -1l-2 -1l-5 -2l-2 -1l1 -3v-2h4l2 3h2l2 2l8 1l6 -2l6 -1h10l4 1l2 2l10 1l1 -1l-2 -2l-1 -2l-5 -6l-1 -3l-1 -2l-1 -3h1l1 2v2l2 3l3 3l1 1v1h1v2l1 1h1v1h1v2h1v-2zM-262 10925l-6 -1h-1l1 -1h2v-1h1v2h3v1z"/><path class="chunk" data-i="1" d="M-226 10874h-4l-1 -2l1 -1l5 1h2v-2h9l2 2l-2 1l-12 1zM-332 10946l1 -3l1 -5l-2 -2v-2l-6 -6l-2 -1l-8 -5l-7 -4l-2 -2h-1l-2 -1v1l-6 1v2l-3 5l-3 2h-1l-6 8l-1 3l-1 1l-1 2h1l1 4l2 4l4 4l2 2l8 6l5 2l1 1l2 2l10 -1l6 -6l4 -6l4 -6zM-321 10937v-1l2 -4l1 -3v-3v-2l-4 -4l-5 -2l-2 -1l-3 -1l-10 -1l-1 1h1l5 4h1l11 10l3 6l1 1zM-367 10919v-1h-1v1h1zM-324 10950h-1l-1 4l-1 4l-3 2h-2l-2 -1l-3 3v2l-1 1l-2 1l-4 2l-3 2h-7h-2l-4 -3l-6 -4l-10 -8l-3 -1l-3 -6l-1 -2l-2 -2l-1 -2v-3l1 -3l2 -2l6 -9h1l7 -7l2 -2l-3 -4h1v-2l5 -5h4l2 2h6v-1l2 1l19 1h4l7 3l2 1l4 3h1l2 5l1 2l2 2l-1 2h1v3l-2 5l-4 7h-2v3l-4 4h-2l-1 2l-1 -1v1zM-126 10845l-1 -1v-3h-1h-1l1 -1h1l-1 -2h2v7zM-104 10837l1 -1h-1l-1 1h1zM-96 10838v-1h-1v1h1zM-99 10839v-1h-1v1h1zM-88 10841v-1h-1v1h1zM-84 10842l1 -1h-1l-1 1h1zM-80 10843v-1h-2v1h2zM-78 10843l1 -1h-1l-1 1h1zM-65 10843v-1h-1v1h1zM-70 10845v-1h-1v1h1zM-68 10845v-1h-1v1h1zM-66 10846v-1h-1v1h1zM-50 10851v-1h-1v1h1zM-47 10852v-1h-1v1h1zM-36 10856v-1h-1v1h1zM-30 10858v-1h-1v1h1zM-27 10859v-1h-1v1h1zM2 10866l1 -1h-1l-1 1h1zM5 10867v-1h-1v1h1zM0 10868v-1h-1v1h1zM8 10868v-1h-2v1h2zM11 10869v-1h-1v1h1zM3 10870v-1h-1v1h1zM20 10870v-1h-1v1h1zM6 10871v-1h-1v1h1zM8 10872v-1h-1v1h1zM10 10873v-1h-1v1h1zM22 10873v-1h-1v1h1zM24 10874v-1h-1v1h1zM28 10875v-1h-1v1h1zM32 10875v-1h-1v1h1zM35 10876v-1h-1v1h1zM21 10877v-1h-1v1h1zM32 10877l1 -1h-1l-1 1h1zM38 10877l1 -1h-3v1h2zM36 10878v-1h-2v1h2zM44 10885v-1h-1v1h1zM61 10891v-1h-1v1h1zM69 10891v-1h-1v1h1zM60 10892v-1h-1v1h1zM71 10892v-1h-1v1h1zM65 10893v-1h-1v1h1zM73 10893v-1h-1v1h1zM64 10894v-1h-1v1h1zM67 10894v-1h-1v1h1zM71 10896v-1h-1v1h1zM73 10897v-1h-1v1h1zM76 10897v-1h-1v1h1zM81 10897v-1h-1v1h1zM74 10899v-1l-1 -1v1l1 1zM76 10899l1 -1h-1l-1 1h1zM78 10900l1 -1h-1l-1 1h1zM80 10901l1 -1h-1l-1 1h1zM86 10906h-2l-25 -13l-3 -2h-2v-1h1l-1 -1l-2 1v-2l-2 1v-1l-4 -1v-1v-1l-2 1l-3 -1v-1l-1 -1v1l-2 -2l-2 1v-1h-3v-2h-1v1h-2v-1v-1l-2 1l-11 -3v-1l-1 -1v1h-2l-13 -6l-13 -5l-8 -3l-20 -6l-1 -2l-1 -1h-2l-2 -1v1l-3 -1l-6 -2h1l-1 -1v-1l-5 -1v1h1l-1 1h-1l-1 -2l-2 -1v1l-14 -1v-1l-2 1v-1h-2v-2h-4v1h3l-1 1h-4v-1h1v-2h-3l-2 -2l-2 1l-6 -1l-2 -2v1l-4 -1h-2v-1l-2 1l-21 -4l-5 -1v-4h2l3 -1l25 4v1l2 -1v1h2v1l2 -1v1l21 4l21 4l12 5l4 1l3 1v2l7 1l2 1v-1h1v2h3l7 3l8 3l5 1l8 3h2h5l1 1l1 1h-1v1l3 1l3 1h2l3 -1v3h3v1h2v1h2l2 1l1 -1l7 2l2 2l2 -1l2 2h2l5 2l25 12l2 2l25 10l3 1l6 5l3 1l1 2v2l-1 1l-1 1v-1l-2 2v1h-2v1l-2 -1h-1v1l-1 1v-1l-4 1l-2 -1v1l-2 -1l2 -3l5 -1l5 -1v-2l-7 -5l-5 -2h-2l-2 1l-2 -1l-4 -2l-2 -1l-2 -2h-2l-1 1h1l4 2v2zM106 10918l1 -1h-1l-1 1h1zM101 10919v-1h-1v1h1zM103 10919v-1h-1v1h1zM-170 10823l-2 -3h-4l-11 -4l-7 -2h-9v-2l1 -1l14 1l5 2l7 2l6 2l2 2v2l-2 1zM-181 10868l-5 -3l-2 -2l-20 -4l-1 -1l1 -2h1v2h1v-1h4l2 2v-1h5l4 2l7 2l3 4v2zM-384 10806v-1h-1v1h1zM-386 10807v-1l2 -2v-1h2v1l-1 2h1v1h-4zM-366 10796h1v-1h2v1l-1 1h-2v-1z"/><path class="chunk" data-i="2" d="M-415 10827v-1h-1v1h1zM-419 10829l1 -1h-1v-1h1l4 -3v2l2 -2v-2l2 -1l3 -1l1 1v2l-4 2l-4 3h-2l-2 2h-1v-1zM-406 10820l2 -2v-1l2 1v-3l1 1l1 1v2l-2 1h-2l-2 1v-1zM-400 10817v-2l4 -1l1 -2v-1h3v-1h-1l1 -1l2 1l-1 2v1l-7 3l-2 1zM-166 10808h-4l1 -2v-1l-15 -5l-4 -2h-2l-2 -1l-2 -2l-6 -3v-3l2 1l7 4l5 2l13 4l5 1l4 1l2 2h-1v2h-1l-2 2zM-156 10792h-2l-7 -4l-2 -1l-27 -9l-6 -2l-2 -2l2 -1h1l8 3l25 8h2l2 1l2 2h2l3 3l-1 2zM-196 10837h-4l-2 -2l-3 -1l-24 -6l-6 -2l-4 -1h-2l-3 1v-2l-2 -1l-2 3l-2 4l-2 2h-2h-3h-2l-3 -5v-1l-1 -2h1l1 -3l1 -4l4 -6l8 -19l2 -2v-2h3v-2l1 -1l8 1l3 4v1v5l-1 5l-1 4l3 1l8 5l2 1l2 2h2l2 2l6 4l12 10l1 2v4l-1 1zM-254 10823l1 -1l1 -2l4 -6l6 -9l3 -5l2 -5v-1l-1 -2h-2l-2 -3l-2 1l-1 3l-6 16l-1 3l-2 2l-1 2l-2 2v4l1 1h2zM-214 10824l-1 -2v-1l-17 -12l-2 -1v-1l-3 3l-4 6h-1l2 2l2 2l24 4zM-193 10748h-1v-2h-2l-1 5l-2 5h-2l-1 2l-4 6l-10 19l-1 1l-3 4h1l-2 2l1 2l-2 2l-4 -1h-2l-1 -4v-2l1 -3l5 -4l14 -24l4 -7l3 -7l4 -4h2l2 -1v1l2 -1l4 4l2 1l6 2l4 2l7 3h1l2 2l3 1l40 12h1l2 2l1 8h-1l1 2h-1l-1 3l-3 8l-4 7l-4 9l-3 8l-8 22l-3 9l-1 2l-2 2v2l-2 2l-1 2l-2 7l-10 23l-6 13l-4 9l-3 7l-3 6h-2l-4 1l-4 -2l-10 -3l-8 -3l-3 -1l-9 -5l-13 -6l-6 -3l-19 -7l-7 -4h-3l-2 -2l-5 -4v-6l2 -2v-2l10 -10l1 -2l7 -10l3 -5l6 -11h1v2h1l-1 2l-1 1l-6 13l-7 8l-2 4l-1 2l-8 8l-1 4l3 3l2 1l7 2l36 15l3 1l2 2h1l7 4l2 1l2 2l6 1l2 1v-1l2 2h2l2 2h2l2 2h2l2 2h1v-2l3 -2l1 -3l4 -11l1 -4l2 -5l4 -7l8 -17l16 -39l7 -24l5 -11v-1l2 -2l1 -3l1 -2v-1l1 -2h-1l1 -2l1 -2h-1v-5l-39 -11l-10 -4l-4 -2h-4v-1l-2 1v-2l-2 -1l-4 -1v-1l-1 1zM-328 10883l-5 -1h-2l-5 -3l-7 -7v-4l3 -2l1 -2l5 -9l4 -8l1 -1l2 -2l1 -3l2 -5l8 -16l9 -12l1 -3l1 -3l-7 -2l-2 -2h-2l-3 -4l1 -8l1 -2l3 -6l4 -6v-2l2 -2v-2l2 -2l1 -2l3 -3l5 1l3 1l2 1h2l2 2l2 1h2l10 3l2 2v2l16 5l2 1h2l2 2l1 4l-1 2h1l-1 2l-1 2l-7 19l-1 3l-2 2l-1 2l-4 1h-5l-9 -3l-5 -2h-2l-2 -2h-1l-2 2l-7 14l-1 3l-1 6h-2l-1 5l-2 2v1l-2 5l-3 5l-1 3l-2 4l-6 17l-1 3l-3 3zM-289 10776v-4l-11 -4l-4 -1v2l-3 5h1v-1h6l2 -1v1l2 -1h4l2 2l-1 2h1h1zM-306 10777v-1h-1v1h1zM-268 10804l2 -4l2 -5l3 -7l1 -2v-2l-2 -1l-2 -1l-9 -2l-3 -1v1l2 1l3 3l-3 3l-1 1l2 2v2l-1 1h-2l-3 1l-3 1v1l2 1v-1l4 1h2v2h2v-1l3 2v3l-13 2l-2 -2h-6v1h2l2 2h3l10 4l1 1l2 -1v-2l2 -4zM-310 10794l1 -4l1 -4h-2v-2h-1l1 -1l1 -1h-3l-1 2l-1 1l-1 4l-1 3l2 1l4 1zM-308 10784v-1h-1v1h1zM-306 10785v-1h2v-1l-3 1l1 1zM-307 10786v-1h-1v1h1zM-297 10798l-1 -4v-2h-2l-2 -1v5h-1l1 1l3 1h2zM-282 10797v-1h-2v1h2zM-332 10876l3 -2l1 -3l5 -15l1 -2l2 -2v-2l2 -2v-2l2 -2v-1l2 -4l1 -2l2 -6l3 -5l2 -5v-3l-1 -2l3 -2v-4l2 -2v-2l-4 -1l-1 1l-1 4l-2 2l-2 7l-1 3l-2 2l-1 4l-2 2v1l-6 10l-2 5l-6 13l-4 6l-2 4l-1 1l1 2l3 2l3 2zM-388 10794v-1h-1v1h1zM-391 10795v-1h-1v1h1zM-396 10799v-1h-1v1h1zM-400 10801h-2v-1l2 -2l5 -2l6 -4l2 -1v3l-1 1l-2 1h-2l-3 1v1l-1 2l-3 1l-1 -1v1z"/><path class="chunk" data-i="3" d="M-382 10791l-2 -1h-1l1 -1l2 -1l2 2h-2v1zM-396 10787l1 -1h2l-1 2h-2v-1zM-383 10787h-1l-1 -1l1 -1h2l2 -2h2v1l-2 2l-3 1zM-372 10785l-2 1l-2 -2h2l6 -4l2 -2h-2l-4 3h-2l-2 2h-2v-1l2 -1l9 -5l1 -1l2 -2l2 1l2 2l-2 3l-6 3l-4 3zM-363 10777v-1h-1v1h1zM-342 10745l-2 -1v1l-2 -1l-9 -1l-2 -1l-3 -1l-6 -4v-1l2 -2v1l2 1l6 4h2h9h2l2 1v1l1 2l-2 1zM-401 10792h1v-1h1v1l-1 1h-1v-1zM-402 10792v-2h2v1l-1 1h-1zM-314 10697h-8l-6 -3v-2h-2v-3l1 1l1 1v-1l2 2l6 4h2l6 -1v2h-2zM-324 10683h-2v-1v-1l2 1v-4l-1 -2h1v-2l2 -1h2l1 3l1 2l-1 2l-1 1h-2l-2 2z"/><path class="chunk" data-i="4" d="M-348 10724l-2 -1v1l-2 -1l-2 -1l1 -4l11 -2v-2l-4 -7v-1l-1 -2h1h2l-1 2h1l2 2l1 4l2 2l-1 3v2h-2l-2 3h-4v2zM-346 10695h-18l-4 -4h-1l-1 -4l-1 -3h1l3 2v2l3 3l2 1h2l3 1l14 -2v3l-1 1h-2zM-357 10678h-1l-2 -2h1l-1 -2v-2l2 -2l4 -1v1l2 -1l1 1h-1l1 2h-1l1 2v2l-1 1l-5 1zM-356 10674v-1h-1v1h1z"/><path class="chunk" data-i="5" d="M-418 10681v-1l1 -2l3 -4v-2l5 -11l11 -20v-2h-2v2l-2 3l-6 8l-10 18v2l-1 4l-1 2h1v2l1 1zM-398 10645v-1h-1v1h1zM-396 10654v-1h-1v1h1zM-397 10656v-1h-1v1h1zM-414 10687l5 -5l3 -5h2l2 -8l3 -10l1 -3h-1l-1 2l-6 10l-3 4l-2 2l-1 4l-1 4v2l-1 2v1zM-404 10660v-2h-1v1l1 1zM-405 10661v-1h-1v1h1zM-406 10663v-1h-1v1h1zM-377 10636v-1h-1v1h1zM-394 10639v-1h-1v1h1zM-390 10644l8 -7l5 -3l2 -2h2v2l-1 1l-4 2l-4 3v2h-2l-7 10l-1 3l-6 15l-3 18l-1 12h1l-1 2h1l1 6l4 16v2l2 2l7 10h2v2l7 6h2l2 2h1l6 4l5 2l7 2h7l6 -2l8 -2l11 -4l3 -2l4 -4l3 -1v-2h1l2 -1v-2h2l2 -2l1 -4h2l3 -6l2 -4l2 -5l2 -7l3 -13l-1 -4l-1 -5l-8 -25l-3 -7l-7 -8l-2 -4l-3 -2l-2 -2l-4 -2l-2 -2l-5 -2l-5 -2l-2 -1l-2 -2l-2 -1l-4 -1l-5 -1l-7 -1v-1l-2 1v-1h-3v2h-1v-1l-4 1l-11 3l-5 2l-10 5l-1 3l-1 3l-5 8l-5 8v2l3 -2l1 -2l8 -12l1 -3h2v-1l3 -4h1l1 1l-2 3h-2l1 2l-3 2h-1v1l-1 1h1v2h1v-2zM-392 10646v-1h-1v1h1zM-391 10647v-1h-1v1h1zM-392 10648v-1h-1v1h1zM-394 10649l1 -1h-1l-1 1h1zM-394 10651v-1h-1v1h1zM-395 10652v-1h-1v1h1zM-419 10683v-1h-1v1h1zM-405 10685v-1h-1v1h1zM-402 10727v-1h-1l-1 -5l-3 -16l1 -2v-1l-1 -2h1l-1 -2l1 -12v-1l-3 3l-1 1l-2 5l-4 8v2l2 -1l1 -1h2l-1 4l-1 4v2l2 5l1 3l-2 2l-1 -2l-3 -6v-4l1 -2l-1 -1v1l-4 -1v-1l-1 -1v1l-1 3l-1 3v2h1l2 2l1 2h-1v1l4 1v2l1 4h1v-1l6 1l6 1zM-414 10688v-1h-1v1h1zM-415 10693v-1h-1v1h1zM-418 10700l1 -3l1 -2v-1v-1l-2 1v2l-1 4h1zM-419 10703v-3h-1v2l1 1zM-400 10733l1 -1l-1 -1l-1 1v1h1zM-411 10734v-1h-1v1h1zM-379 10761v-1h-1v1h1zM-372 10764v-1h-1v1h1zM-374 10765v-1h-1v1h1zM-377 10767v-1h-1v1h1zM-382 10775v-1h-1v1h1zM-386 10779l2 -3h-2l-1 2l1 1zM-387 10780v-1h-1v1h1zM-388 10781v-1h-1v1h1zM-366 10795v-1h-1v1h1zM-412 10801v-1h-1v1h1zM-413 10802v-1h-1v1h1zM-412 10805l1 -1l-1 -1h-2v1l2 1zM-414 10808h1l-2 -2v-2h-1l-1 4h1v-1l2 1zM-406 10807l2 -3h-2l-2 2v1h2zM-396 10805v-1h-1v1h1zM-412 10807l1 -1h-1l-1 1h1zM-409 10808v-1h-1v1h1zM-399 10808v-1h-1v1h1zM-417 10810v-2h-1v1l1 1zM-407 10809v-1h-1v1h1zM-412 10813v-1h-2l-1 1h3zM-422 10832v-1h-1v1h1zM-433 10838v-1h-1v1h1zM-412 10838v-1h-1v1h1zM-417 10839v-1h-1v1h1zM-431 10841v-1h-1v1h1zM-430 10842v-1h-1v1h1zM-428 10842l1 -1h-1l-1 1h1zM-425 10842v-1h-1v1h1zM-422 10843v-1h-1v1h1zM-396 10851v-1h-1v1h1zM-400 10854v-1h-1v1h1zM-402 10855v-1h-1v1h1zM-403 10856v-1h-1v1h1zM-400 10856v-1h-1v1h1zM-404 10857v-1h-2v1h2zM-407 10859v-1h-1v1h1zM-377 10796v-1h-1v1h1zM-372 10797v-1h-1v1h1zM-374 10798v-1h-1v1h1zM-383 10799v-1h-1v1h1zM-375 10799v-1h-1v1h1zM-392 10803v-1h-1v1h1zM-394 10804v-1h-1v1h1zM-388 10845v-1h-1v1h1zM-391 10847v-1h-1v1h1zM-390 10848l1 -1h-1l-1 1h1zM-395 10849l1 -1h-1l3 -3l4 -3h2v1l1 -1h1l-1 -1v-1l3 -2l6 -4v-2h2v-2l-2 1l-3 1l-45 12l-8 1l-2 -3v-3l-1 1l-2 2l-1 3l-2 5l-2 4v2l-2 2v2l-2 2h1v2l1 1h2l2 2v-1l2 1h2l2 2h2l2 2l2 1l5 1l3 1l2 2h1l24 8h5l2 1v-1l2 1l12 1l3 2l-1 4l-2 1l-4 -1l-8 -1v-1l-2 1v-1h-6l-22 -6l-34 -12l-4 -4v-2l-2 -2l1 -4l3 -7l4 -6l4 -7l8 -16l4 -6l4 -7l24 -46v-1l2 -2v-2l2 -2l2 -4l3 -4l1 -2l1 -2h1h1l-3 -4l-6 -8l-4 3l-4 -1h-2v-2h-2v2l-2 2l-6 -2h-4l-2 -2v-4l-10 1l-3 -3l-1 -4h-2v-2l-1 -2h1l1 -4l5 -5l4 -3v-3l4 -14l3 -19l1 -3l8 -16l2 -3l11 -14l2 -2l5 -6l2 -1l7 -5h1l2 -1v1l2 -1l16 -4h12l7 1l7 2l2 2h2l2 2h2l2 2l2 1l4 1l2 2l8 5l2 1l3 4l2 2l7 11l2 4l1 1l2 2l1 4l2 7v2l4 16v9l-1 8l-3 13l-2 5l-6 10l-2 3h-2v1l-10 11l-3 1l-7 5l-10 5l-4 1l-1 5l-1 9l6 39h1l-1 2l2 2l2 16l-2 2l-5 -1l-5 -68v-5l-2 1h-18l-4 -1l-4 -1l-2 -1l-2 -2h-2l-2 -2h-2l-2 -2l-3 -1v-2h-1l-4 -3l-1 2l-1 2l-1 3v1l-1 2h2l5 -2h2l3 1v2h2l2 2v-1l4 1l2 1v2l-5 6v1h-1l-7 7v1h-1l-8 7h-1v-1h1l1 -1v-1l2 -1l-1 -2h-2v-2l2 1v-1v-1h2v-2l6 -3v-2h2l2 -2l-2 -2v1l-4 -1l-2 2l-4 1v1l-1 1l-1 -1v1l-2 1l-1 -2h1l-2 -2l-1 2l-1 2l-2 2l-4 7v1l-2 2v2l-2 2v2l-4 8h-1l1 1v1l1 -1h1l2 -2v1l-3 4v1h1l2 -1v1l2 -1h2l2 -1v1l-1 1l-1 1h1l1 1v-1l3 -1l13 -5l5 -3l5 -3l14 -6h4l1 2v2l-3 4l-3 1v-1l-1 -1l-1 1v1h-1v1h-1v1h-1l-1 1h-1l-2 2h-1l-1 -1v1h-1l1 1v1l-5 1v2l-3 1v-2l2 -2h2l1 -2l-1 -1l-2 2v-1l-2 1l-2 1v1l-3 1l-8 4l-14 5l-7 1l-2 -2v-2h-1l-1 2l-1 4l-1 2l-2 2v2l-6 8l-2 5l-1 1l1 1l2 -2h1v-2h3l4 -4h1v1h1h1l-3 3l-4 3h-2l-2 2v1h4v1l1 -1l1 1v1l3 -1h1h1l-1 -2v-1h2l2 1v-2h2v1l1 -1v-1l23 -7h2l8 -2l4 -1v-1l2 1v-1l7 1h2v3h1l-1 2v1h-2v1l-3 4l-4 1l-1 1v2l-1 1h-3v1l-2 2l-1 -1v1h-1v2l-1 1l-2 -1l-2 2l-2 1l-4 3v-1l-1 1v1h-1l-2 -1v2h1l-1 1l-2 2h-2l-2 1v2l-2 1l-4 1l-4 4v1h4l2 -3h3l25 -8l6 -1l2 -1v1l2 -1h2v1l2 -1h4l3 2l-1 3v2l-1 1l-1 2h-2v2l-8 5l-2 1v1l14 -1v4l-28 5l-1 -1v-2h-1l1 -2l1 -2l3 -2l7 -4l2 -2l5 -4l-1 -1l-20 5l-18 5h-7h-1l-2 -1v-4l2 -3l4 -2l7 -5l3 -2l2 -2h2l1 -2v-1h3v1l1 -1zM-408 10860v-1h-1v1h1zM-405 10860v-1h-1v1h1zM-410 10861l1 -1h-1l-1 1h1zM-411 10862v-1h-1v1h1zM-412 10863v-1h-1v1h1zM-403 10865v-1h-1v1h1zM-406 10866v-1h-2v1h2zM-405 10868v-1h-1v1h1zM-417 10869v-1h-1v1h1zM-408 10869v-1h-2v1h2zM-412 10870v-1h-4v1h4zM-391 10861v-1h-1v1h1zM349 11158h-3l-3 -2v-1h1v-1h1v-1l1 1l-1 2l1 1l2 -2l2 2l-1 1zM350 11150l-2 -1h-1l1 -1l2 -1v1v2z"/><path class="chunk" data-i="6" d="M317 11142l-4 1l1 -1l6 -1h1l-1 1h-3zM336 11140h-8v-1h8v1zM292 11150h-1v-4h-1l-1 2v1l-1 -1v-2l2 -1h2v1l2 -2v-1l2 1h4v-1l2 1h4v1l-8 1l-3 -1v1h-1v1h-2v1v2zM267 11144l-1 2l-2 -2l-2 1l-1 -1l1 -1h4v1h1zM308 11134l-4 3l-1 -1l4 -4l1 -2v-1l1 1l-1 4zM250 11119l-1 -1l-1 -1l-1 -1l1 -1h2v-1h1l-1 4v1zM253 11102l-1 1l-2 1v2l-2 1h-2v-1h1v-2l4 -3v1h1h1zM251 11101v-1l3 -3h2l4 -4v1h1v2h-1l-2 2v1h-2l-2 2v-1h-1v1h-2zM260 11093v-1l2 -1v1l1 -1l1 1v1l-3 1l-1 -1z"/><path class="chunk" data-i="7" d="M266 11091l-1 -1v-2h1v1h2v1h-2v1zM275 11089l-1 -1v-2l2 -1l2 1v1h-3v1v1zM278 11082h-2h-1l2 -2v-3h2v-2h1l2 -1v1h2l1 1l-1 1h-2l-4 5zM282 11077v-1h-1v1h1zM279 11079v-1h-1v1h1zM287 11072h2l2 -2h1h1l-1 2h-2l-4 3l-2 -1l2 -2v1l1 -1zM295 11069l1 -3v-1l2 1h1l-1 1l-1 1h1l-2 2v-1h-1zM270 11062l-2 -2h1v-2l1 -2h1l-1 4h1l-1 2zM266 11061h-2l-1 -1l1 -4h3l1 4l-2 1zM266 11059v-1l-1 -1v1l1 1zM265 11060v-1h-1v1h1zM310 11036l-2 -2v-2h2h1v-1h3v1l-4 1v1l1 1h-1v1zM316 11034h-1l2 -2l2 -5v-3v-2h1l1 2l-1 4l-2 4l-2 2z"/><path class="chunk" data-i="8" d="M318 11022l-2 -1l-2 -1h-1l1 -1l3 1h2v2h-1zM276 11048l-2 -1v-1l6 -3v1l-3 2v2h-1zM300 11041v-1v-2v-1l2 1v-1h2v1l-2 1l-2 2zM308 11031v-1h-1v1h1zM311 11027v-1h-1v1h1zM310 11029v-1h-1v1h1zM308 11032h-1v3h-3v-1l2 -2l-1 -2h1l2 -5h2v-2h-2v-1l2 -1h1v2h2v1l-1 2l2 2l-1 2h-2v1l-1 -1l-2 2zM287 11026h-2v-2h1l2 -1v1l2 -1v1h1l-1 2h-2v-1l-1 1zM308 11009v1h-2l-1 -2h1h1l1 1zM292 11009l-3 1l1 -1l1 -1h2l1 -1l1 1l-1 1h-2zM291 10980v2l-1 1l-2 -1h-1l2 -2l1 1v-1h1zM290 10979v-1h1v-1h1v-1h2l1 2l-1 1l-2 -1l-1 2l-1 -1z"/><path class="chunk" data-i="9" d="M302 10974l-2 1v-1h-1v2h-2l-2 1v-3l1 -2l2 1l2 -2v1h1l1 1v1zM304 10973v-1h-1v1h1zM306 10973v-1h-1v1h1zM302 10973v-1h-1l-1 -1v-2h2l2 -1v3l3 -1h1h1l-1 2h1l-1 1l-1 1l2 2v1h-2v3h-1v-1l-2 1l-2 2h-1v-2h-3v-1l8 -1v-2l-2 1h-2l-1 -1h1v-2h1l-1 -1zM305 10974v-1h-1v1h1zM307 10975v-1h-1v1h1zM292 10969l-3 -1v-3h1l1 1h-1v1l4 -1l-2 3zM304 10956h2l-2 3l-1 -1v-1h1v-1zM307 10942v-1h-1v1h1zM307 10949h-1l-1 -1l1 -1h2v-1l1 -2h-1h-1v2h-1v-1l-2 2h-2v-2l1 -2h2v-1l1 -2h4l2 2l1 6l-5 1v-1h-1v1zM309 10942v-1h-1v1h1zM311 10945v-1h-1v1h1zM310 10947v-1h-1v1h1zM312 10947v-1h-1v1h1zM308 10904h-2l-3 2h-3l-2 1v-1l-4 -1l-5 -5l-3 -9v-3l2 -7l3 -7l3 -2h1h3h2l5 4l1 4l2 2l1 3v2l1 3l-1 2h1l-1 10l-1 2zM320 10840l-4 1l-3 -3v-2l-1 -2h1v-2l3 -3l5 1l4 -1v9l-3 2h-2zM292 10830l-3 -1l-4 -1l1 -4v-2l4 -4l2 -1v1l4 4v4l-2 2l-2 2zM352 10627v-1l-2 1h-2l-2 -2h-1v-3l3 -3h1v-2h3l3 3v1v3v2h-1l-2 1z"/><path class="chunk" data-i="10" d="M356 10604l-4 -1l-2 -2h-2l-1 -1v-2v-5v-2l3 -1l10 -6l2 -2l2 -2l6 -6v-2l-2 -3l-5 -2l-6 -1l-5 -1l-2 1v-1l-7 1l-4 1h-2l-3 1l-2 2v2h-4l1 -3v-1l3 -3l1 -1l6 -2l3 -1l6 -1l2 -1v1l2 -1l11 1l3 1l2 1l4 2l5 4l-1 7l-1 3l-16 18h-1l1 2l-1 3v2l-2 1zM428 10675l-4 -1l-2 -1v1l-2 -1h-2l-2 -1v1l-2 -1l-49 -3l-5 1l-1 2l-1 2l-2 2l-1 3l-10 21v2l-2 2l-1 2l-4 12l-2 2v2l-2 1l-2 1v-1h-2l-2 -1v-2v-6l1 -9l1 -13h1l-1 -2l1 -2l-1 -2h1l1 -9l1 -7l-1 -4v-2v-1l-2 1h-2l-3 -2h-3l-2 -2l-26 -4l-19 -6l-5 -1l-6 -2l-2 -2h-2l-3 -6l-1 -5h-1l1 -2v-10h1l-1 -2h1l3 -9l1 -5l1 -4l2 -2v-1l4 -10l4 -9l6 -19l4 -31v-2h2v-1l2 1l2 -1v1l2 -1v1h2v2h2l18 1l2 -1v1l20 -2l2 1v-1l10 1l6 1l2 1l1 -4l3 -3h4l2 2l10 3h2v1l2 -1v1h2l2 1v-1l2 1h2l2 1v-1l11 2l5 1l2 -1v1h4l2 1v-2l2 1l5 1l6 1l2 1l4 2h1l5 4l2 16v12l-1 9l-3 29h1l-1 2l1 44h-1l1 2h-1l-1 14l-2 2h-2l-2 1zM340 10698v-2l6 -12l4 -10l1 -3l1 -5h1l-1 -2l4 -3l3 -1h2l2 -1l37 3l2 -1l2 2l8 -1l1 1h-1l-1 1h5l2 -1v1h2l2 -1v1l2 -1h3l1 -9l1 -10l1 -2h-1l1 -2l-1 -15v-6l-1 -11l1 -2h-1l2 -40l-3 -14v-2l-3 -3l-7 -1l-5 -1v-1l-2 1v-1l-20 -2v-1l-2 1v-1l-6 -1l-18 -3l-2 2l-2 1h-2l-14 -4h-2l-12 1v1l-2 -1v1l-2 -1v1l-24 1v1l-2 -1l-2 1v-1h-2l-2 1v-1h-4v1l-1 2h1l-1 2v2l-1 2h1l-1 2v2l1 2h-1v2h-1l1 2l-1 2h1l-1 2v1l-1 3l-3 9l-15 39l-1 7l-1 12v3l2 2l12 4l21 6l17 3l11 3h3l4 -1l2 2h1v1l2 2l1 3v2v4v4l-2 13l-1 14h1zM362 10661v-1h-1v1h1zM241 11121h-1v-5h1l-1 -2h1v-2h2l-1 3v3h-1l1 2h-1v1zM233 11112v-1h1l2 1v1h-2v-1h-1zM244 11112l-2 -1v-1h2l2 -2l-1 4h-1zM532 11362l-5 -1v-1l-1 -2h4v1h-2v1l6 -1v1l-2 2zM454 11332h-2l-3 -2h-3l-1 -2h1h1l3 2h2l2 2zM488 11323l-1 -1l1 -1h2l2 -1v2h-2l-2 1zM302 11264h-3v-2h-1v1h-5l1 -1h3l-1 -1h-1l1 -1l6 1v1h-2v1h3l-1 1z"/><path class="chunk" data-i="11" d="M292 11262l-8 -1l-1 -1l1 -1h2l3 2h1l1 -1h-1v-1h2l2 1l-2 2zM245 11053l2 -5v-2h-1l2 -2l7 -22l7 -23l2 -4l4 -13l1 -4h1v-1l-3 1l-9 3l-6 2l-2 2l-2 1l-10 4l-7 3l-21 7l-7 4h-2l1 3l6 17l6 8l4 6l2 2h1v2h1l8 7h2l2 2l6 4l2 3h1l2 -5zM333 10924h3l2 -1v1h2l2 -1l9 -3l9 -4l18 -15l3 -3l1 -2l4 -6v-2l2 -2l1 -2l1 -5l2 -11l1 -24h1l-1 -2v-1v-11l-2 -2l-1 -1v-2l-1 -3h-1h-1l1 -2h-2v-2l-2 -2l-2 -2v-1l-2 -4l-1 -4h-3l-1 -1l-1 -2v-2l-1 -2h-1l-10 -10l-1 -2l-2 -2l-1 -2l-2 -2v-4l-2 -2l-4 -1l-2 -1v-5l-6 -3l-11 -6h-1l-2 1v-1h-5l-13 4l-3 1l-6 3l-1 1l-2 1l-5 8h-1l-2 2l-2 -1h-1v-3l2 -2l1 -4l-2 1l-5 1l-7 3l-5 7l-5 9l-3 6l-4 13l1 2l-2 2v2h1l-1 2v16l-1 4l1 2h-1l1 2h-1l1 2l-1 2h1v9l2 6l2 9l1 2l2 2l1 3l10 20l3 3l5 6l2 4l4 3l4 3l4 1l2 1l2 2h2l2 2l6 2l3 1h1l2 1v-1l2 2l2 -1h11zM356 10748v-5l-10 1l-2 1v-1l-2 1h-4v1l18 2zM361 10770v-1h-1v1h1zM370 10780v-1h-1v1h1zM372 10782h1l-1 -2h-2v2h2zM404 10784l-1 -2l-11 -11l-2 -2l-4 -3l-10 -5v1l3 2l1 4l1 4l1 2h3l5 2l12 8h2zM374 10783v-1h-1v1h1zM376 10785l1 -1l-1 -1l-1 1v1h1zM378 10787v-1l-1 -1v1l1 1zM413 10788v-1h-1v1h1zM414 10789v-1h-1v1h1zM383 10790v-1h-1v1h1zM406 10800h1l-1 -6v-2l-4 -1l-2 -2l-1 1l2 2l-1 2l6 6zM415 10790v-1h-1v1h1zM384 10791v-1h-1v1h1zM381 10793v-1h-1v1h1zM382 10795v-1l-1 -1v1l1 1zM384 10801l2 -1h1l-5 -5v1l2 2v2v1zM408 10802v-1h-1v1h1zM410 10819v-5l-2 -1v1v1l1 3l1 1zM411 10820v-1h-1v1h1zM411 10824v-2l-1 -1v3h1zM419 10853v-1h-1v1h1zM363 10918v-1h-1v1h1zM360 10920v-1h-1v1h1zM279 10978l-2 1l-7 19l-4 14l1 2h-1h-1l-1 4l1 2l-2 2l-4 10v2h1h1l-1 2l-2 -1v1l1 2l-2 2h1l1 1h-1l-2 1v2l-1 2h1l1 1h-1l-2 1v3l-4 11l-1 2l1 1h2l1 1v2l4 1l3 5l-1 2h1l-1 2l-1 3l-4 1v-1l-2 1l-4 -1l-2 -3l1 -2h-1v-2h-1l-2 5l-11 29v4h-1l1 1l-2 3v1l-2 3v2l-2 2l1 2h-1l-1 5l1 9l-2 8l1 9v1l1 2l3 1l4 1l12 4h3l4 -1l2 1v-1l13 1l7 1h16h4l13 -1l38 -6l22 -4l15 -4l8 -3l4 -1l8 -2l3 -2h1l2 -2l-5 -44l-1 -1v1l-3 -2l-1 -8h-4l-2 -5l1 -4l1 -4l1 -9h-1l1 -2h-1l-1 -12l-3 -17l-3 -12l-11 -45l-2 -5v-3l-2 -1h-3v-2h3v-5l-5 -22l-1 -5h-2l-2 -5l-2 -5l-1 -5h-3l-2 3h-2l-1 1v2l-3 2l-2 1l-2 1h-2v1l-2 -1v1h-2v1l-2 -1v1h-14l-5 -1l-17 -5l-2 -1v-1h-1l-1 4l1 2h-1l-2 5l-10 23v2h1l-1 1h-1v3h1v1h-2l-1 7l-2 2v3l-1 1h1zM401 11065l1 -3l17 -26l31 -57l6 -9l1 -2l-7 -2h-6l-18 -1v1l-2 -1v1l-43 3h-2v2l1 3l2 7l10 42l2 5l2 4l3 33h2zM95 11243v-1h-1v1h1zM144 11242l1 -1h-1l-1 1h1zM147 11242v-1h-1v1h1zM150 11242v-1h-1v1h1zM157 11243v-1h-1v1h1zM-13 11264v-1h-1v1h1zM-16 11265v-1h-1v1h1zM-32 11269v-1h-1v1h1zM-5 11262v-1h-1v1h1zM-9 11263v-1h-1v1h1zM180 11246l1 -1h-1l-1 1h1zM183 11246v-1h-1v1h1zM226 11251v-1h-4v-1l-2 1h-2v-2l-14 -1l-2 -1v1l-2 -1l-14 -1v2h6h2l21 3l11 1zM228 11251v-1h-1v1h1zM230 11251v-1h-1v1h1zM232 11251v-1h-1v1h1zM199 11378v-3h-1l-2 1l2 2h1zM246 11252v-1h-1v1h1zM310 11261v-1h-1v1h1zM319 11262v-1h-1v1h1zM314 11263l1 -1h-5v1h4zM316 11264l1 -1h-1l-1 1h1zM319 11264v-1h-1v1h1zM346 11269v-1h-2v1h2zM346 11270h-1l3 44h1l-1 2h1l3 20l3 2l-1 5h-2v1h2v4l2 -1v1l1 2l-1 1h-2l-2 1l-1 2l-10 13h-2v1l-1 2l-7 4l-11 15l-4 8l-2 2v2h-2h-3h-1l-2 -1l-6 -8l-1 -2l-1 -2h-2v1l-2 -2h-2v-3l2 -3l3 -1h2l3 -2l18 -14l20 -17l2 -1v-2l2 -1l3 -3h-1v-4h-1l1 -2l-6 -65l-3 -1h-3l-2 -1v1l-2 -1l-8 -1l-2 1v-1l1 -2h-1h-1h-5h-4v-1l-2 1v-1h-2v-1h1l-1 -2h3h7l4 1l5 1l5 1l9 1v-3l-4 -23l-3 -4v-2l-4 -14l-3 -22l-1 -18h-1l1 -2l1 -4v-2h-7l-11 2h-13l-4 2h-4l-2 -1v1l-13 -1l-2 -1h-2v3h-1l-4 3l-4 16l-2 29l1 17l-1 1h-4l-1 1l1 2h-1v8l1 2l12 1v1l2 -1l1 1h2l1 1l2 -1v1l5 1l5 1v-1h1v2h-9l-21 -4h-2v6h1l-1 2h1v2h-1l1 2v10h1l-1 2h1l7 45l1 3h1l2 1v-1h1v2h1h1l-1 2l-2 2l-5 4v2l-1 2h-2v3h-2v1l-2 3l-13 11l-6 2l-7 5l-3 3l1 3v2l-1 3h-7l-4 4l-4 4h-1h-9l-4 -4l-4 -2l-2 1v-1l-2 1l-2 -3v-2l2 -2l2 -1l2 -2l3 -1h2l18 -10l1 -1l2 -2h2l2 -2l10 -5l8 -6l3 -2v-2l3 -3h2l6 -7v-1l1 -4l-6 -43h-1l1 -2l-1 -2h1l-1 -2v-10h-1l1 -2h-1l1 -6h-1l1 -2l-2 -2h-2l-5 -2h-3l1 2v1h-15l-52 -8l-2 -1v1h-2v-1l-2 1l-20 -2v-1l-2 1h-2l-2 -1v1l-6 -1l-2 1v-1l-2 1l-2 -1l-2 2h-39l-69 12l-68 18l-5 2l-5 1v-2l4 -1l2 -2l2 1h1l17 -6v-1l2 1v-1h2h5v-2h1v1l1 -1v-1l4 1h3v-1h-2v-1h4l36 -10l13 -2l4 -2l39 -5v1l2 -2l17 -1l-1 -1h-1l-2 -1l-3 -1l-16 -1l-1 -1l1 -2h2v1l2 -1l2 1v-1l2 1v-1l2 1v-1l4 1v-1l2 1l3 1l5 1l6 1v1l2 -1l60 1l2 1v-1l22 1v1l2 -1l25 4h4l27 5l2 -1l-1 -2l5 -56l5 -18h2v-2h1v-1h-16l-10 -3l-10 -3l-3 -3l-2 -2v-4h1l-1 -2l1 -2h-1l1 -2l2 -23l2 -8l2 -7l8 -28l6 -15v-4v-1l-6 -6l-4 1h-2l-3 -1l-1 -4l-2 -2l-11 -14l-9 -16v-2l-2 -2l-1 -2l-4 -12v-4v-2l9 -2l2 -2h2l23 -8l10 -3l3 -1l2 -2h1l14 -6l2 -2h2l5 -2h4l2 -2v-2h1l-1 -2l1 -2l1 -5l2 -4l2 -5l4 -10l1 -2l2 -2l1 -4l2 -2v-2l2 -2v-2l-2 -1l-2 -1l-7 -5l-4 -7l-1 -1h-2l-7 -11l-7 -11l-2 -5l-2 -5l-4 -8v-3l-1 -4l-1 -2h1l-1 -2v-4h-1l1 -2h-1v-14l1 -2h-1l1 -2v-5v-1l-1 -2h1v-4h-1l1 -2l2 -12l2 -11l2 -5l5 -8l2 -4l6 -8h1l3 -2v-2h-2l-5 2h-2l-3 -2v-2l3 -3l2 -1l3 -1h1l1 -1h-1v-2l-3 -4h1v-2h-1l1 -2h2v-2h3l3 1l2 2h4v1l2 -1v1h4l-1 -2l-1 -4l2 -2l16 -2h2l6 2h2l2 2l2 -2v1l2 -1v1l6 1v-1l2 1l2 -1v1v1l2 -1l2 -2l17 -5h2l3 -1l2 -2l2 -2h1l3 -1l3 3l1 2h-1v2h-1l1 2l-2 2v2l1 1h2l2 1l1 6l12 4l4 2l5 2l5 3l5 2l14 15l8 9l3 5l1 3l1 3l-3 3h-2l-6 -5h-1l-3 -1l2 11l3 14v2l-1 2l1 2h-1l1 16h1v-1l1 1l-1 2l2 2v2l-4 4l-4 -1l-1 -1l-1 -3l-2 -5v-2h-1v2h-5l-4 -3h-1l1 11l-3 23l-1 4l-4 10l-6 11v2l-2 1h-1v1l-1 2h-2v2l-8 5l-2 1l-2 -1l-2 2l-2 1v1h2l1 1l-1 2h1v4l2 2v2l2 2l1 5l4 21l1 4l1 2h-1l1 2v1l2 -1l18 -2l8 -1l2 -1v1l2 -1l24 -1v-1l2 1l2 -1v1l13 1l14 1v2v5l-1 2l-1 2l-10 14l-5 9l-6 11l-38 65l-1 2v3l3 8l1 3l7 47v3v11l-2 1l-2 1l-5 1l-69 17l-4 1l-2 1l1 2h-1v4h-1l1 2l-1 6h1l-1 2h1v2l3 2l3 26h1l-1 2h1l1 12l2 2v12l3 18l3 3l6 1l17 4l26 9l8 3l8 2l13 3l25 7l3 1l6 -1l17 6l5 1l34 11l5 1l4 1l55 21l41 17l26 10l9 3l2 2l4 1v4l-3 -1l-5 -2l-19 -7l-135 -52l-10 -2v1h2l2 3l-2 2h-2l-2 -1v1h-1v-2h1v-1l-2 -1h-2l-4 -2l-15 -6l-4 -1l-30 -9l-5 -1l-10 -2v-1l-2 1v-1l-5 -1l-3 -1l-6 -2l-2 -2l-7 -2l-7 -2l-8 -3h-2l-8 -1l-10 -2l-3 -1l1 -2h-6v1zM354 11271v-1h-1v1h1zM359 11272v-1h-1v1h1zM364 11273l1 -1h-1l-1 1h1zM368 11274l1 -1h-1l-1 1h1zM488 11308v-1h-1v1h1zM315 11387v-1h-1v1h1zM314 11388v-1h-1v1h1zM313 11389v-1h-1v1h1z"/></g><g class="f live" data-r data-f="0" fill="var(--live,#000)" fill-rule="evenodd"><path class="chunk" data-i="0" d="M-130 11005l-2 -1l-2 1v-1l-6 -1l-2 -1l-14 -6l-2 -1l-2 -2l-4 -1l-2 -2l-4 -2l-7 -6v-2l-1 -3v-3l2 -4l8 -12l4 -5l2 -3l2 -2v-2l2 -2h-1v-2h5l2 3l12 1l2 3l6 1l7 2l5 1l2 2l6 4l4 3v2l2 3v4v4v4l-3 7l-3 2h-1l1 2v3l-2 5l-2 3l-2 1h-2l-2 1l-8 1v1zM-157 10947v-1h-1v1h1zM-126 11000l6 -1l2 -3v-1v-9l-1 -3l-4 -7l-1 -2l-2 -2l-20 -16l-2 -1l-4 -3v-2h-2l-2 -3l-1 1l-1 2h-2l1 2l-2 2l-1 2l-10 12l-2 5l-1 1l-1 2h1v2l9 9l1 1l5 2l20 9l3 1h11zM-114 10983l2 -1v-3l2 -5v-2l-2 -3v-3l-2 -2l-2 -2l-6 -4l-3 -2l-15 -3l-2 -3h-4h-1l1 2l4 2l5 4l3 3l3 3v1l7 4l4 5l5 7l1 2z"/><path class="chunk" data-i="1" d="M-522 10884l-7 2l-7 2l-18 6l-2 1v-1l-2 2l-2 -1v1h-2l-2 1v-1v-1l-2 1h-8v-2l2 1h4v-1h-4v-1l5 -1l4 -1l29 -11l48 -14h4l2 -2l4 1l1 5l-3 2l-16 4l-28 8zM-563 10894v-1h-1v1h1z"/><path class="chunk" data-i="4" d="M53 10651h-3l-2 -1l1 -16l1 -2h-1l3 -12l2 -5l2 -4l1 -2h1l2 1l-1 2l-2 12l-1 6l-1 2h1l-1 2l-1 12l-1 5zM14 10649h-2l-1 -1l1 -2h-1l2 -12l2 -2l12 -20l5 -2l4 -1l2 3l2 4l2 6v3v2l-1 1l-1 2h-2l-2 2l-4 1h-6h-2l-4 -3l-1 2l-1 1l-2 5v3l-1 5h-1l1 2l-1 1zM30 10628l3 -2h1l3 -2l-1 -6l-4 -4l-5 4l-2 4l-2 2l1 1l4 3h2zM2 10653h-2l-1 -1l-1 -19h-6l-3 3l-1 1l-2 6l-1 3l-2 2v1h-1l-2 2l-2 -1l1 -5l3 -7v-3h-3v-2l5 -1v-2h-4v-3h6v-2l2 1h2l1 -2l3 -6l2 -3v-1l2 -2h2l3 2l-1 2l1 12l1 2h-1v2h1l2 2v1h-2l-1 1h1v14v2l-2 1zM-12 10627v-1h-1v1h1zM-12 10630v-1h-2v1h2zM-15 10635v-1h-1v1h1zM-2 10625v-1h-1v1h1zM-2 10630v-2h-4l-1 2h1h4zM-130 10687h-2v-2v-3l2 -6v-4h1l-1 -1l-4 -1v-2l-1 -3h3l2 -2h1l3 1v-2l2 -2l2 -3l6 -9l1 -2l5 -4h4l4 4v2v6v2l-6 6l-4 3l-2 2h-2l-2 2h-2l-3 3v1l-3 9l-1 2l-3 3zM-116 10660l2 -1l5 -5v-1l1 -3v-1l-6 5l-3 6h-1v1l2 -1zM-92 10684h-2l-1 -2l1 -5l2 -10l3 -13l1 -4l1 -4l1 -6l1 -2h-1l2 -2h1l-2 30l-3 14l-2 2v1l-2 1zM-146 10681l-6 -1v-2l1 -6h1l-1 -2v-12l-1 -1l-1 1v2l-7 7h-2v1l-2 2l-7 6h-2v2h-1l-2 -2l2 -4l15 -14l-1 -1l-10 1v-2h-1l1 -1l7 -1l7 -1l3 -3l1 -1l2 -5l1 -2l1 -2h4l2 2l-1 4l-1 5l-1 4l2 1h2l1 1l2 1v2l-2 1v-1h-4v-1l-1 1v20l-1 1z"/><path class="chunk" data-i="5" d="M-194 10678v-2l-1 -4l4 -4l1 -2l8 -22v-4l1 -9h-19l-2 -1l2 -2l18 -1l2 -1v1l18 -1l2 -1v1h2h4h2l1 4l-3 2h-8v-1l-2 1h-2l-2 -1v1h-2v-1l-2 1v-1h-2l-2 1v-1h-2l-1 9l-1 5l-8 26l-1 3l-3 3l-2 1zM-38 10644h-2l-1 -2l1 -6l8 -22l2 -6l-1 -7v-1l-1 -2h-4l-8 -2l-6 -1l-2 -1v-2l14 1v-2l8 1l30 3l2 1l-2 2l-16 -1l-1 1h1l-1 2v1l-11 -1v7l-1 7l-1 4l-5 16l-2 8l-1 2zM-18 10597v-1l-16 -2l-1 1h1l7 1l9 1zM-73 10542h-1l-2 -2l1 -18l1 -2h-1l1 -2l-1 -16l1 -1l2 1l2 17l1 22l-4 1zM-110 10554h-2l-2 -2l1 -22l1 -1l2 1l1 -2l-2 -2v-2l3 -3v1l2 -2l1 -4l3 -4h2l2 -2l4 1l4 1v2l2 2l-1 3v1l-7 7l-4 2l-4 1l-2 2l-3 20l-1 2zM-101 10524l2 -2h1l5 -4v-2h-5l-2 2l-2 4l-1 2h1h1zM-112 10534l2 -2l-2 1v1zM-125 10552h-1l-3 -2v-2l-3 -10l-2 -2l-8 1l-4 14v7h-2l-2 2v-1h-2v-2v-3l3 -14h-1v1h-2l-2 2h-2v-1l4 -4l4 -1l1 -1l1 -6l5 -13h5l2 3l1 2l3 8l2 3h2l1 1l-1 2v2l4 9v3l-2 1l-1 1zM-137 10533h1l1 -1h-1l-1 -4l-1 -1l-1 1l-1 4l-1 2h1l3 -1zM-151 10540v-1h-1v1h1zM-172 10561h-2l-1 -1l3 -30l-1 -2h1l-1 -8l-1 -2h1l-1 -1l-7 1l-4 -1l-9 2l-5 -1h-3v-3l10 -3h6v-1l2 1v-1l24 -1l11 -2l4 1h2l1 2v2l-1 2h-2l-21 2l-2 1v-1h-3v4l2 9h-1l1 2h-1l1 2l-3 18l1 8l-1 1z"/></g><g class="f live" data-f="1" fill="var(--live,#000)" fill-rule="evenodd"><path class="chunk" data-i="0" d="M-132 11003l-2 -1h-1l-1 -1l-5 -1l-2 -1l-14 -5h-3l-2 -2l-4 -1l-2 -1l-4 -2l-5 -6v-1l-1 -3l1 -3l2 -3l11 -12l4 -6l2 -4l1 -1v-2l2 -2h-1v-1l3 -1l3 2h9l3 2l6 1l8 2l5 1l2 2l4 5l3 3v1v3l1 3l-1 4l-1 3l-3 7l-3 3h-1v1l1 1v4l-1 7l-2 3h-2l-1 1l-2 1l-7 -1v1zM-154 10947v-1l-1 1h1zM-129 10999l5 -1l2 -3v-1l-1 -11v-3l-3 -6l-1 -2l-1 -2l-18 -16l-2 -1l-3 -3v-1h-1l-2 -2v1l-2 2l-1 1h1l-2 3l-1 2l-11 14l-3 4l-1 2l-1 1l1 1l-1 1l7 8l2 1l5 2l21 7l2 1l9 1zM-119 10980l2 -2l1 -2l2 -5v-2l-1 -3v-2l-1 -2v-1l-1 -1l-5 -5l-3 -1l-15 -4l-3 -2h-3v1l1 1l3 2l5 4l3 2l2 3l1 1l5 4l3 5l3 7l1 2z"/><path class="chunk" data-i="1" d="M-519 10886l-8 2l-9 2l-17 4v1l-1 -1l-2 2l-1 -1v1h-2l-1 1v-1l-1 -1v1h-9v-1l1 -1l1 1h4v-1h-4l1 -1h4l4 -2l26 -8l46 -18h3l2 -2l4 1v4l-3 2l-14 4l-24 12zM-559 10894v-1h-1v1h1z"/><path class="chunk" data-i="4" d="M50 10646l-3 1l-1 -2l1 -14l1 -1l-1 -1l5 -8l3 -4l2 -4l1 -2h2l1 1l-1 1l-4 10l-1 5l-2 1h1l-1 1l-1 11l-2 5zM15 10651l-1 1l-1 -1l2 -1l-1 -1l4 -12l2 -2l10 -22l4 -2h3l2 2l1 5l1 5v2l-1 2l-1 1l-1 1h-1l-1 2l-4 2l-4 1h-1l-2 -3l-2 2v2l-3 6l-1 3l-1 4l-2 1l1 1l-2 1zM31 10628l2 -1l1 -1l3 -2l-1 -5l-2 -4h-1l-3 4l-2 4l-1 2v1l3 2h1zM4 10655l-1 1l-2 -1v-18l-8 -1l-3 3l-1 1l-2 6v3l-2 1v1l-1 1l-2 1l-2 -1v-5l1 -6v-3l-3 -1v-2l5 -1l-1 -1l-4 -1v-3h6l1 -2l2 1h2l2 -2l4 -7l1 -4l1 -1l1 -2h4l4 3l-1 1l2 15l1 1l-1 1l1 2h1l2 2l-1 1l-2 1h-1l1 1l-1 13l-1 1l-2 1zM-13 10629v-1h-1v1h1zM-13 10633l1 -1h-2l-1 1h2zM-15 10638v-1h-2l1 1h1zM1 10627l-1 -1h-1v1h2zM0 10633v-2h-4l-2 1l1 1h5zM-132 10685h-1v-2v-2l2 -6v-4l1 -1v-1h-3v-2v-3h1l2 -3l1 1h2v-2l1 -2l2 -3l8 -8l1 -1l5 -4h5l2 3v3l-1 5l-1 2l-7 4l-5 3l-2 1l-2 1l-2 2h-1l-2 3v1l-3 10l-1 2l-2 3zM-119 10657l2 -1l6 -3v-1l2 -3l-1 -1l-6 5l-4 4l-1 1h1l1 -1zM-92 10682l-2 1l-2 -3v-6l3 -10l1 -11l2 -3v-4v-7l1 -1l-1 -2l1 -1h2l2 29l-2 14l-3 2v1l-2 1zM-145 10681h-5v-2l2 -5l1 -1l-1 -1v-14l-1 -1l-1 2v1l-9 9h-1l-1 2l-2 1l-8 5l-2 1l-1 1h-1l-1 -1l2 -4l17 -15v-1l-11 2v-1l-1 -1v-1l8 -1l8 -3l3 -3v-2l2 -5l1 -2l1 -1l4 -1l1 2v4l-1 5v4h2l1 1l2 1l1 1v1l-1 2l-1 -1l-3 1l-1 -1l-1 21l-2 1z"/><path class="chunk" data-i="5" d="M-190 10678v-1l-1 -4l3 -4v-2l7 -19l1 -5v-11l-25 -1l-2 -3l2 -2l24 2l2 -1l1 1l19 1v-1l1 1h2h3l1 1l2 2l-2 2h-7l-1 -1l-1 1h-2l-1 -1l-1 1h-1l-1 -1l-1 1l-1 -1h-3l-1 1l-1 -1h-2v10l-2 5l-8 24v3l-2 2h-1l-1 1zM-38 10643h-1l-1 -2l1 -6l5 -20v-7v-8v-2l-1 -2l-4 -1l-8 -3l-6 -1l-1 -1v-2l13 1l1 -2l8 1l31 9l2 1l-1 1l-19 -3v1l1 1l-1 1l-1 1l-11 -1v8l-1 8v5l-4 14v8l-2 1zM-21 10596l1 -1h-1l-16 -5l-1 2h1l7 2l9 2zM-72 10544h-1l-3 -1l-2 -20l1 -1l-1 -1l1 -1l-2 -19l2 -1l2 1l4 19l4 24h-5zM-113 10553h-1l-3 -3l3 -21l2 -1l1 1l2 -1l-2 -2v-3l2 -2l1 1l2 -2v-5l3 -4h2l1 -2l3 1l3 2v2l2 2l-1 5v1l-5 7l-3 1h-4l-2 1l-4 20l-2 2zM-102 10524h1l1 -1l4 -5l-1 -1l-3 -1l-2 3l-1 4l-1 1v1l2 -1zM-112 10533l1 -1v-1l-2 1l1 1zM-128 10551h-1l-3 -2v-2l-3 -12l-2 -2l-8 1l-2 17v7h-2l-2 1h-1l-1 -1l-1 -1v-3l3 -15v-1l-1 2h-1l-2 2h-2l4 -6l2 -1l2 -2l1 -7l5 -13h4l2 3l1 2l3 9l3 3h1l2 2l-1 1v3l3 10v2l-1 2l-2 1zM-140 10530h1l1 -1l-1 -1l-1 -5h-1l-1 1l-1 5l-1 1v1l4 -1zM-153 10538v-1l-1 1h1zM-176 10559h-1l-1 -2l10 -27v-1l1 -1l-1 -7l-1 -1l1 -1l-8 2h-5l-12 3h-7l-3 -1v-3l12 -3l7 -1l1 -1l2 1l1 -2l23 -3l8 -3h4h1v1v2l-1 1h-2l-15 5l-1 1l-2 1v3v7l-1 1l1 1l-1 1v1l-7 18l-1 7l-2 1z"/></g><g class="f live" data-f="2" fill="var(--live,#000)" fill-rule="evenodd"><path class="chunk" data-i="0" d="M-130 11009l-3 -2l-1 2l-2 -2l-7 -1l-3 -1l-15 -11l-2 -1l-1 -3l-3 -1l-1 -2l-3 -1l-5 -5v-1l-1 -3v-3l1 -4l8 -12l6 -5l2 -2l2 -2v-1l3 -2l-1 -1v-1l5 -1l3 3l9 1l2 2l3 1h5l4 1l2 2l7 4l5 5l1 2l1 4l2 5l1 4v5l-2 6l-2 2h-1l1 2v3v6l-3 2l-1 1l-3 1l-2 1l-10 1l-1 2zM-154 10948v-1h-1v1h1zM-125 11003l7 -2l3 -2v-2l-2 -10l-1 -4l-7 -9l-1 -2l-3 -3l-16 -14h-2l-2 -3l-1 -1h-1l-3 -3v1l-2 2h-1h-1l1 1l-2 2l-2 2l-11 12l-2 5v1l-1 1l1 1v2l6 6l1 1l4 3l19 13l4 1l15 1zM-113 10984l2 -1l-1 -3l1 -5l-1 -2l-2 -4l-1 -3l-2 -3l-1 -1l-2 -2l-7 -4l-2 -1l-10 -2l-2 -3l-3 1h-1l1 1l2 2l4 3l2 2l2 2v1l7 4l5 6l7 10l2 2z"/><path class="chunk" data-i="1" d="M-525 10879l-5 4l-5 3l-16 9l-1 1h-1l-3 1h-1h-1l-2 1h-2l-1 -1l-1 1h-9l-1 -1h1l1 1l5 -1h-4v-1h6l5 -1l27 -16l44 -15h4l1 -3l5 2l1 5l-2 2l-16 2l-29 7zM-561 10896h-1v1l1 -1z"/><path class="chunk" data-i="4" d="M50 10651l-3 -1l-1 -1l1 -17l1 -1l-1 -1l3 -13l2 -6l2 -5l1 -2h1l1 1l-1 2l-3 14l-1 8v2v1v1l-1 13l-1 5zM11 10645h-1l-1 -1l1 -2l-1 -1l2 -10l3 -2l15 -15l5 -4l3 -1l2 2l2 3l2 5v3l-1 2v2l-2 1h-1l-2 2h-4h-7h-3l-3 -2l-2 1v1l-3 4l-1 3l-1 5l-1 1l1 1l-2 2zM31 10625l4 -1l1 -1l2 -2v-5l-4 -2h-1l-4 5l-3 3l-2 1l5 2h2zM1 10651h-1l-2 -2v-16l-4 1l-2 3v1l-3 6l-1 3l-2 2v1h-1l-2 2l-1 -1l1 -3l3 -7l1 -3h-3l1 -1l3 -2v-2h-3v-3l5 -1v-1h1h2l1 -1l2 -6l2 -3v-1l1 -1h3l2 2l-1 1l-1 9l1 1l-1 1h1l2 1l-1 1l-2 1l1 1v13v2l-2 2zM-9 10629v-1v1zM-9 10632v-1h-1v1h1zM-11 10637v-1l-1 1v1l1 -1zM-1 10626v-1l-1 1h1zM-2 10630v-1h-2l-1 2l3 -1zM-131 10687l-3 -1l-1 -2v-4l2 -7l1 -5h1l-1 -1l-5 -2v-2l-1 -3h3l2 -1h2l3 1v-1l1 -2l2 -3l5 -8l1 -2l4 -5l6 -1l4 4l1 3v8v3l-5 6l-5 2l-1 2h-2l-2 1h-2l-3 2v1l-3 11l-1 3l-3 3zM-118 10658l2 -1l4 -4v-2l1 -4l-1 -1l-5 6l-2 5l-1 1v1l2 -1zM-93 10687h-1l-2 -1l1 -5l2 -10l3 -17l2 -5l1 -5l1 -8l1 -1l-1 -1l2 -2l1 1l-3 37l-3 14l-2 1v1l-2 1zM-152 10677l-5 -1l1 -2l1 -6l1 -2h-1l3 -11v-1l-2 2l-7 8h-1l-1 2l-1 1l-6 7l-1 1v2h-1l-1 -1l1 -4l13 -16v-1l-9 3v-1l-1 -1v-1l7 -1l8 -2l2 -2l1 -1l4 -4l1 -2l2 -1h3l1 1l-1 3l-3 4l-1 2l1 1h2l1 1l1 1l-2 2l-1 -1h-2l-1 -1l-1 1l-3 20l-2 1z"/><path class="chunk" data-i="5" d="M-192 10680v-1l-1 -3l5 -4v-2l6 -26l1 -4v-8l-17 -1l-2 -1l1 -1h17l1 -1l1 1l22 -1l1 -1l1 1h2h5h2l1 4l-3 2h-9l-2 -1l-1 1h-4l-1 -1l-1 1h-1l-2 -1l-1 1l-1 -1h-2l-2 1l-1 -1h-1v8l-1 5l-6 28l-1 3l-3 2h-1l-2 1zM-36 10649h-1l-2 -1l2 -7l7 -27v-7l-2 -7l-1 -1l-2 -2l-3 -1l-8 -2l-6 -1l-1 -2v-1l12 2v-1l8 1l37 6l1 2l-1 2l-21 -3l1 1l-1 1v1l-12 -2l2 7l1 7l-1 5l-5 20l-2 9l-2 1zM-19 10598v-1h-1l-17 -3h-1h1l8 3l10 1zM-70 10545l-1 1l-1 -2v-21l1 -1l-1 -2h1l-4 -16l2 -1l1 1l4 17l1 22l-3 2zM-109 10557h-1l-3 -3l-4 -23l2 -1l2 1l1 -2l-3 -2v-4l3 -3l2 1l1 -1l1 -6l5 -4h2l3 -2l4 1l5 2v1l3 2v4v2l-7 8l-6 3h-6l-2 2v23l-2 1zM-101 10523l2 -1l2 -1l6 -5l-1 -1l-6 -1l-3 3l-2 5l-1 1l1 1l2 -1zM-114 10535l2 -1l-1 -1l-2 1l1 1zM-125 10552h-2l-3 -3v-2l-4 -12l-2 -1h-7l-4 14l-2 9h-1l-2 2l-1 -1h-2v-3v-4l5 -15l-2 1h-1l-2 2h-2h-1l6 -5l3 -1l2 -1l1 -4l5 -11h3l2 2v3l3 7l2 3h1l1 2v1l1 2l4 10l2 3l-2 1l-1 1zM-139 10531h2l-1 -1l-1 -4l-1 1l-1 3l-1 1h1h2zM-152 10536v-1h-1v1h1zM-174 10559h-1l-2 -2l2 -30l-1 -1l2 -1v-7l-1 -1l1 -1l-1 -1l-7 1l-3 -1l-6 2l-4 1h-2v-3l7 -3l5 -1l1 -1v1l1 -1h24l10 -2h4l2 1v2v2v2h-2l-22 1h-1h-1h-3v3l1 8l-2 1l1 1l-1 1l1 1l-2 19l1 7l-1 2z"/></g><g class="f jolt-f live" data-f="3" fill="var(--live,#000)" fill-rule="evenodd"><path class="chunk" data-i="0" d="M-130 11005l-1 -1l-1 1l-1 -1l-4 -1h-1l-16 -7l-4 -1l-3 -2l-6 -2l-3 -3l-5 -3l-7 -10v-2v-4l1 -3l3 -4l7 -8l3 -5l1 -3l1 -2l1 -2l1 -2v-1l1 -1l3 -2l1 2h13l4 4l8 3l10 3l6 4l2 3l6 7l3 4l1 2l1 3l2 4l1 4l-1 4l-2 7l-3 2h-2v1l1 1l-1 3l-2 4l-4 2h-1l-3 1h-2h-7l-1 1zM-164 10942l1 -1h-1v1zM-126 11001h6l3 -2v-1l1 -7l-1 -2l-5 -6l-1 -2l-3 -3l-28 -26l-3 -2l-3 -4v-2h-2l-1 -2h-1v1l-1 2h-1v1v1l-1 2l-1 3l-7 9l-2 4l-1 2l-1 1v1v2l9 13l2 1l7 5l24 9l2 1l9 1zM-111 10988l2 -1v-3l2 -5l-1 -2l-1 -3l-1 -3l-2 -3v-1l-1 -2l-7 -7l-4 -2l-21 -8l-4 -5h-5l-1 1l2 2l4 3l8 8l6 5l3 4l1 2l8 6l5 6l5 7l2 1z"/><path class="chunk" data-i="1" d="M-524 10881h-7h-8l-22 8l-1 2l-1 -2l-1 3l-1 -1l-1 1h-1v2v-1v-1v-1l-1 2l-3 1v-2l1 1l1 -1v-1l-1 1v-2l2 -1l2 -2l29 -13l49 -8h4l1 -2l5 2l2 5l-3 3l-19 5l-26 2zM-566 10890v-1h-1v1h1z"/><path class="chunk" data-i="4" d="M55 10654h-4l-3 -2l-1 -19l1 -1l-1 -1l3 -13l1 -5l1 -4v-1h1l2 2v1l1 11l1 7l-1 1l1 2l-1 1l1 15l-2 6zM10 10645h-1l-1 -1l1 -1l2 -9l1 -2l13 -26l5 -4h3l1 3l1 6l2 8v4l-2 3v2l-3 2h-1l-3 2l-5 2h-5l-2 -1l-1 -3l-1 1l-1 2l-1 5l-1 2v3l-1 1l1 1h-1zM22 10627l3 -2h2l3 -4l1 -8l-3 -5l-6 6l-3 6l-2 3h1l2 4h2zM1 10648h-2l-1 -1l3 -17l-7 -1l-3 2l-1 1l-5 6l-1 3l-3 2v2h-2l-2 3l-2 -1l1 -6l5 -8l1 -3h-3v-1l6 -1v-2h-4l1 -1l6 -1l1 -1h2l2 1l1 -2l4 -5l1 -2v-1l1 -2l3 -1l2 1l-1 2l1 12l1 1l-1 1v2h1l1 2v1h-2v1l-2 12v1l-2 1zM-9 10624h-1h1zM-10 10626h1h-2h-1h2zM-14 10630v-1h-1v1h1zM1 10623v-1h-1v1h1zM1 10627v-1l-3 -1l-2 1l1 1h4zM-131 10688l-2 -1l-1 -1l-1 -2l2 -4v-3l1 -1l-5 -2l-1 -2v-3h2l3 -2l1 1h4l1 -2l1 -2l3 -5l7 -11l1 -3l3 -4l3 2l4 5l1 2l1 6l1 3l-5 6l-5 4l-3 3h-2l-3 2h-2l-3 3l-1 1l-3 7v1l-2 2zM-116 10664l2 -2l5 -5v-2v-4l-1 -1l-4 6l-3 7l-1 1v1l2 -1zM-83 10688l-2 1l-2 -2v-7v-12l-2 -12v-2l1 -3l-1 -5h1l-1 -2l1 -1l3 1l5 22v16l-2 3v2l-1 1zM-146 10681l-6 -2v-2l-1 -5l1 -1l-2 -1l-3 -15l-1 -1l-1 2v1l-5 6h-2v1l-1 1l-9 5l-2 1l-1 2h-1l-2 -2l3 -5l15 -13h-1l-7 -1v-1v-1h5l5 -1l2 -3v-2l3 -6l1 -3l2 -2l5 -1l1 2l-1 6l-2 8v5l2 1l3 2l2 1l2 3v1l-2 2l-1 -2l-4 -1l-1 -1l5 21l-1 1z"/><path class="chunk" data-i="5" d="M-197 10673v-1l1 -5l4 -6l1 -2l15 -13l2 -2l1 -7l-24 1l-2 -2l2 -1l23 -2l1 -1h1l10 -7l1 -1v1l2 -1l2 -2h2v2l-3 3l-5 3h-1v1l-2 2v-1v1l-1 1v-1l-1 2v-1l-1 1l-1 1h-1l-1 7l-2 3l-17 18l-2 4l-3 4l-1 1zM-38 10643h-1v-1l1 -7l10 -15l3 -4v-6v-2l-2 -2l-4 -1l-12 -4l-10 -3l-3 -3v-1l21 4l1 -2l10 1h25h1l-1 2l-13 5v1h1l-1 2v1l-9 1l-1 6l-3 5l-2 2l-8 10l-2 9l-1 2zM-13 10604v-1l-16 -2l-1 1h1l9 2h7zM-70 10536l-2 1l-2 -2l4 -9l1 -1h-1l1 -1l-2 -14l1 -2l2 1l4 14l-2 12l-4 1zM-106 10557l-2 -1v-20l1 -2l1 1l1 -2l-2 -2v-4l1 -2l1 1l1 -1v-5l4 -2h2l2 -1l4 1l4 3v1l2 2l-1 2l-1 1l-7 4l-4 2l-3 1l-1 2l-1 19l-2 2zM-100 10528h2h1l5 -3v-1l-4 -1l-3 1l-1 4h-1v1l1 -1zM-106 10539l1 -2h-1v1v1zM-119 10558h-2l-3 -1v-1l-5 -11l-2 -2h-13l-2 13l2 5l-2 1l-2 1l-1 -1h-2l-1 -2l-2 -3v-12l-1 -1l-1 1l-1 -1l-2 2l-3 -1v-1l4 -4h3l2 -1l2 -8l6 -19l6 1l4 4l1 4l7 14l4 4h2l2 2l-1 2l1 3l3 8l1 2l-2 1l-2 1zM-137 10539l2 -1h1l-2 -2l-2 -7l-1 -1l-2 2l-1 7l-2 1l1 1h6zM-157 10543v-1h-2l1 1h1zM-175 10563h-1l-2 -3l3 -36v-1v-6l-1 -1l1 -1l-6 2h-3l-8 2h-6h-3l1 -2l10 -2l5 -1l1 -1l1 -1l19 -6l10 -4h4h2l1 2v3l-1 2h-3l-20 5l-1 1v-1l-2 1v3l1 7l-1 1l1 1h-1l1 2l-2 21l2 11l-2 2z"/></g><path class="grain" fill="#000" fill-rule="evenodd" d="M-240 10962v-1l1 1h-1zM-241 10961v-2h1v1v1h-1zM-242 10958h1v1h-1v-1zM-243 10958v-1h1v1h-1zM-244 10957v-1h1v1h-1zM-245 10956v-2h1v2h-1zM-246 10953h-1v-1h1v1zM-252 10946l-1 -1v-1h1v2zM-254 10943l-2 -1v-2l3 2l-1 1zM-253 10940h-1v-1h1v1zM-256 10939h-1v-1h1v1zM-257 10938l-1 -1v-1h1v2zM-256 10936h-1v-1h1v1zM-258 10936h-1v-1h1v1zM-261 10934h-1v-1h1v1zM-265 10932h-1v-1h1v1zM-267 10932h-1v-1h1v1zM-264 10931h-1v-1h1v1zM-267 10930h-1v-1h1v1zM-251 10926v-1h1v1h-1zM-260 10926h-1l1 -1h1l-1 1zM-258 10925l-1 -1h1v1zM-253 10924h-1v-1h1v1zM-298 10952v1l-1 -1h1zM-298 10952v-2h1v2h-1zM-299 10952h-1v1l-1 -1l2 -2v2zM-323 10950l-1 1v-1h1zM-297 10949l1 1h-1v-1zM-295 10948h-1v-1h1v1zM-296 10947l-1 -1l3 -1v1h-2v1zM-295 10944h-1v-1h1v1zM-293 10943l-1 -1v-2h2l-1 2v1zM-286 10933h-1v-1h1v1zM-270 10931h-1v-1h1v1zM-275 10930h-1v-1h1v1zM-278 10929h-1v-1h1v1zM-277 10928h-1v-1h1v1zM-282 10929l-1 -1l1 -1l1 1l-1 1zM-284 10930h-1v-3l1 1v2zM-280 10927h-1l1 -1h1l-1 1zM-282 10926h-1l1 -2h2l-2 2zM-278 10924h-2v-1h2v1zM96 10910h-3l1 -1h2v1zM98 10909l-1 -1v-1l1 1v1zM28 10873v-1h2h1v1h-3zM26 10872v-1h2v1h-2zM24 10871v-1l2 1h-2zM23 10870h-1v-1h1v1zM18 10868h-1v-1h1v1zM16 10867h-1v-1h1v1zM3 10863h-1v-1h1v1zM0 10862h-1v-1h1v1zM-5 10861h-1v-1h1v1zM-83 10881v-1h1v1h-1zM-83 10879h-1v-1h1v1zM-110 10875h-2v-1h2v1zM-114 10875h-2v-1h2v1zM-117 10875h-1v-1h1v1zM-120 10875h-4v-1h5l-1 1zM-125 10875h-1v-1h1v1zM-87 10874l1 -1v1h-1zM-96 10874h-5l1 -1h4v1zM-102 10874h-4v-1h4v1zM-108 10874h-2v-1h3l-1 1zM-126 10874h-1v-1h1v1zM-110 10873h-1v-1h1v1zM-112 10873h-1v-1h1v1zM-184 10868h-1v-1h1v1zM-283 10923h-1v-1h1v1zM-274 10922h-1v-1h1v1zM-280 10922h-1l1 -1h1l-1 1zM-285 10923l-1 -1v-1l1 1v1zM-282 10922l-1 -1v-1h1v2zM-409 10864h-1v-1h1v1zM-575 10896l-1 -1v-1h1v2zM-574 10893h-1l1 -1h1l-1 1zM-41 10854l-1 1l-2 -1h3zM-44 10854h-2v-1h2v1zM-27 10852h-1v-1h1v1zM-31 10851h-1v-1h1v1zM-55 10850h-3v-1h3v1zM-62 10847v1l-2 -1h2zM-125 10846h-1v-1h1v1zM-90 10845h-5l1 -1h2v-1l2 1h1l-1 1zM-93 10843h-1v-1h1v1zM-124 10843h-1v-1h1v1zM-105 10842h-1v-1h1v1zM-117 10841h-1v-1h1v1zM-121 10841h-1v-1h1v1zM-109 10840h-1v-1h1v1zM-112 10840h-1v-1h1v1zM-115 10840h-1v-1h1v1zM-116 10839h-1v-1h1v1zM-123 10839h-1v-1h1v1zM-243 10831h-1v-1h1v1zM-244 10830l-1 -1v-1h1v2zM-396 10849v-1h1v1h-1zM-381 10844l-1 1v-1h1zM-386 10842v-1h1v1h-1zM-395 10818h-1v-1h1v1zM-393 10817h-1v-1h1v1zM-392 10816h-1v-1h1v1zM-391 10815h-1v-1h1v1zM-390 10814h-1l1 -1h1l-1 1zM-386 10812h-1v-1h1v1zM-384 10811h-1v-1h1v1zM-388 10811h-1v-1h1v1zM-383 10810h-1v-1h1v1zM-390 10810v-1h1v1h-1zM-381 10809h-1v-1h1v1zM-385 10809h-1v-1h1v1zM-380 10808h-1v-1h1v1zM-378 10807h-2v-1h2v1zM-389 10809v-1l1 -2l2 1v1l-2 1h-1zM-377 10806h-1v-1h1v1zM-376 10805h-1l1 -1h1l-1 1zM-374 10804h-1v-1h1v1zM-373 10802l-1 1v-1h1zM-373 10802v-1h2v1h-1h-1zM-371 10801v-1h1v1h-1zM-374 10801v-1h1v1h-1zM-370 10800l1 -2h2l-1 2h-2zM-367 10798v-1h1v1h-1zM-422 10840h-1v-2h1l1 2h-1zM-426 10839v-1l1 1h-1zM-424 10838h-1v-1h1v1zM-426 10838h-1v-1h1v1zM-422 10837h-1v-1h1v1zM-423 10836h-1v-1h1v1zM-419 10835h-1v-1h1v1zM-421 10835h-1v-1h1v1zM-414 10832h-1v-1h1v1zM-413 10831h-1v-1h1v1zM-415 10831h-1v-1h1v1zM-410 10829h-1v-1h1v1zM-412 10829h-1v-1h1v1zM-421 10829v-1h1h1v1h-2zM-409 10828l-1 -1v-1h1v2zM-405 10825h-1v-1h1v1zM-404 10824h-1v-1h1v1zM-401 10822h-1v-1h1v1zM-400 10821h-1l1 -1h1l-1 1zM-407 10820l1 -1v1h-1zM-396 10819h-2v-1h2v1zM-398 10814h-1v-1h1v1zM-403 10804v-1h1v1h-1zM-399 10801l-1 1v-1h1zM-407 10802l-1 -1v-1h1v2zM-406 10801l-1 -1l1 -1h2v1l-2 1zM-412 10799v-1h1v1h-1zM-402 10799l-1 -1l1 -2h2l-2 3zM-404 10797h-1v-1h1v1zM-398 10796h-1v-1h1v1zM-192 10748v1l-1 -1h1zM-244 10787h-1v-1h1v1zM-392 10793l-1 -1v-1l1 1v1zM-386 10793v-1l-1 -2h1l2 2l-2 1zM-390 10791h-1v-1h1v1zM-388 10790h-2v-1h2v1zM-386 10789h-2v-1h2v1zM-385 10788h-1v-1h1v1zM-377 10786h1h1l-1 1h-1v-1zM-377 10787l-1 2h-2v-1l2 -2v1h1zM-378 10786v-1l1 1h-1zM-396 10786v-1h1v1h-1zM-395 10785v-1l1 -1h1v2h-2zM-393 10783v-1l2 1h-2zM-394 10782h-1v-1h1v1zM-382 10780h-1v-1h1v1zM-393 10780h-1v-1h1v1zM-390 10776h-1v-1h1v1zM-386 10773h-1v-1h1v1zM-391 10771l-1 1v-1h1zM-388 10771h-1v-1h1v1zM-386 10770h-2v-1h2v1zM-382 10768h-1v-1h1v1zM-366 10735h-1v-1h1v1zM-396 10795l-1 -1l1 -1l1 1l-1 1zM-401 10793l-1 1v-1h1zM-408 10797v-1l4 -3h1l-3 3v2l-2 -1zM-403 10793v-1h1v1h-1zM-399 10791v-1h1v1h-1zM-398 10790v-1h1v1h-1zM-400 10790v-1h1v1h-1zM-397 10789v-1h1v1h-1zM-399 10789v-1h1v1h-1zM-398 10788v-1h1v1h-1zM-396 10787h-1v-1h1v1zM-397 10784h-1v-1h1v1zM-396 10783h-1v-1h1v1zM-398 10782h-1v-1h1v1zM-100 10707h-3v-4h1l2 -1l1 2v2l-1 1zM-352 10668h-1v-1h1v1zM43 10668h-3v-2h3v2zM-11 10625h-1v-1h1v1zM-391 10644v-1h1v1h-1zM-384 10634h1l-1 1v-1zM-385 10634l1 -1v1h-1zM-381 10633h-1v-1h1v1zM-383 10633h-1v-1h1v1zM-382 10632h-1v-1h1v1zM-374 10631h-1v-1h1v1zM-76 10564l-2 2h-3v-4h1v1h4v1zM-203 10516h-1v-1h1v1zM350 11158v1l-1 -1h1zM345 11159h-1v-1h1v1zM350 11157h2l1 1h-1h-2v-1zM356 11157h-1l1 -1h1l-1 1zM358 11155h-1v-1h1v1zM343 11155h-1v-2h2v1h-1v1zM344 11153v-1l1 1h-1zM313 11153h-1v-1h1v1zM352 11152h-2v-1h2v1zM317 11152h-1v-1h1v1zM342 11153l-1 -1l-1 -1h-1l1 -1h2v3zM321 11151h-1v-1h1v1zM319 11151h-1v-1h1v1zM310 11151h-2v-1h2v1zM356 11152l-4 -1v-1l2 -1l2 3zM352 11150h-1v-1h1v1zM344 11150h-1v-1h1v1zM339 11150h-1v-1h1v1zM322 11150h-1v-1h1v1zM314 11150h-1v-1h1v1zM342 11149h-1l1 -1h1l-1 1zM336 11150v-1l2 -1l-2 2zM328 11149h-2v-1h2v1zM326 11150h-2h-1l1 -2l2 2zM318 11149h-2v-1h2v1zM313 11149h-1v-1h1v1zM341 11148h-1v-1h1v1zM339 11148h-1v-1h1v1zM334 11149h-3l1 -1l2 -1l1 1l-1 1zM322 11148h-1v-1h1v1zM338 11147h-2v-1h2v1zM335 11147h-1v-1h1v1zM330 11148l-2 -1h-1l1 -1h3v2h-1zM321 11147h-1v-1h1v1zM312 11147h-1l1 -1h1l-1 1zM349 11147l-1 -1v-1l1 1v1zM316 11146h-2v-1h3l-1 1zM320 11145h-1v-1h1v1zM309 11145h-1v-1h1v1zM348 11145h-2l-1 -1l1 -1l2 1v1zM326 11144h-3l1 -1h3l-1 1zM312 11144h-3l1 -1h2v1zM344 11143l-4 -1v-1h4l1 1l-1 1zM340 11141h-1v-1h1v1zM338 11141h-2v-1h2v1zM328 11141h-3l1 -1h2v1zM324 11141h-3l1 -1h2v1zM312 11137h-1v-1h1v1zM309 11137h-1v-1h1v1zM310 11136l-1 -1v-1h1v2zM312 11133h-1v-1h1v1zM313 11129h-1v-1h1v1zM310 11129h-1v-1h1v1zM312 11127h-1v-1h1v1zM309 11128l-1 -1v-1h1v2zM311 11125h-1v-1h1v1zM310 11124h-1v-1h1v1zM300 11152h-1v-1h1v1zM298 11152h-1v-1h1v1zM266 11152h-2v-1h3l-1 1zM264 11153h-2v-1v-1l2 1v1zM261 11152h-1v-1h1v1zM307 11151h-1v-1h1v1zM262 11151h-1v-1h1v1zM269 11150h-1v-1h1v1zM270 11149h-1l1 -1h1l-1 1zM263 11149h-1v-1h1v1zM306 11148h-2v-1h3l-1 1zM292 11150h2v-3h1v4l-3 -1zM272 11148h-1v-1h1v1zM269 11148h-1v-1h1v1zM258 11148h-1l1 -1h1l-1 1zM296 11147l2 -1l1 2h-1l-2 -1zM295 11147v-1h1v1h-1zM273 11147h-1v-1h1v1zM262 11147h-1v-1h1v1zM275 11145h-1v-1h1v1zM257 11146l-1 -1v-1h1v2zM267 11143l1 1h-1v-1zM258 11144h-1v-1h1v1zM306 11143h-1v-1h1v1zM302 11143h-1v-1h1v1zM298 11143h-1v-1h1v1zM292 11144h-1v-2h1l1 2h-1zM278 11143h-1v-1h1v1zM261 11143h-1v-1h1v1zM303 11142h-1v-1h1v1zM279 11142h-1v-1h1v1zM264 11142h-3l1 -1h2v1zM257 11142h-1v-1h1v1zM304 11141h-1v-1h1v1zM299 11142l-1 -1v-1h1v2zM280 11141h-1v-1h1v1zM272 11143h-2v-1l2 -2h2l-2 3zM266 11143v-3h2l-1 3h-1zM259 11141h-1v-1h1v1zM306 11140h-1v-1h1v1zM294 11142h-1l3 -3v1l-2 2zM282 11140h-1v-1h1v1zM275 11140h-1v-1h1v1zM269 11140h-1v-1h1v1zM258 11140h-1v-1h1v1zM307 11139h-1v-1h1v1zM302 11139h-2v-1h2v1zM283 11139h-1v-1h1v1zM281 11139h-1v-1h1v1zM276 11139h-1v-1h1v1zM268 11139h-1v-1h1v1zM266 11139h-1v-1h1v1zM264 11140l-1 -1v-1h1v2zM303 11138h-1v-1h1v1zM300 11138h-1v-1h1v1zM298 11138h-1v-1h1v1zM285 11138h-1v-1h1v1zM267 11138h-1v-1h1v1zM265 11138h-1v-1h1v1zM261 11138h-1v-1h1v1zM259 11138h-1v-1h1v1zM299 11137h-1v-1h1v1zM278 11138h-2l2 -2h1l-1 2zM268 11137h-1v-1h1v1zM260 11137h-1v-1h1v1zM300 11136h-1v-1h1v1zM289 11136h-1v-1h1v1zM269 11136h-1v-1h1v1zM261 11136h-1v-1h1v1zM298 11135h-1v-1h1v1zM280 11136h-1l1 -2h2l-2 2zM273 11135h-1v-1h1v1zM264 11135h-1v-1h1v1zM304 11134h-1v-1h1v1zM284 11134h-1v-1h1v1zM280 11134h-1v-1h1v1zM271 11135h-1l-1 -1l1 -1l1 1v1zM269 11134h-1v-1h1v1zM265 11134h-1v-1h1v1zM303 11133h-1v-1h1v1zM285 11133h-1v-1h1v1zM281 11133h-1v-1h1v1zM272 11133h-1l1 -1h1l-1 1zM299 11132h-1v-1h1v1zM288 11132h-1v-1h1v1zM265 11132h-1v-1h1v1zM307 11131h-1v-1h1v1zM290 11131h-2v-1h2v1zM285 11131h-1v-1h1v1zM281 11131h-1v-1h1v1zM278 11131v1h-2h-1l2 -2l1 1zM274 11132l-1 -1v-1h1v2zM275 11130h-1v-1h1v1zM307 11129h-1v-1h1v1zM305 11129h-1v-1h1v1zM294 11129h-1l1 -1h1l-1 1zM281 11129h-1v-1h1v1zM277 11130l1 -2h1l-1 3v-1h-1zM306 11128h-1v-1h1v1zM300 11128h-2v-1h2v1zM292 11128h-3l1 -1h2v1zM280 11128h-1v-1h1v1zM277 11128h-1v-1h1v1zM269 11128h-1v-1h1v1zM302 11127h-1l1 -1h1l-1 1zM294 11127h-1v-1h1v1zM278 11127h-1v-1h1v1zM270 11127h-1v-1h1v1zM306 11126h-1l1 -1h1l-1 1zM297 11126h-1v-1h1v1zM288 11126h-1v-1h1v1zM282 11128l-1 -1l1 -2l1 1l-1 2zM279 11126h-1v-1h1v1zM273 11126h-1v-1h1v1zM246 11126h-2v-1h2v1zM304 11125h-1l1 -1h1l-1 1zM302 11125h-2v-1h2v1zM284 11125h-1v-1h1v1zM272 11125h-1v-1h1v1zM250 11126l-1 -1v-1h1v2zM292 11124h-1l1 -1h1l-1 1zM287 11124h-1v-1h1v1zM285 11124h-1v-1h1v1zM255 11124h-1v-1h1v1zM308 11123h-1v-1h1v1zM296 11123h-2v-1h3l-1 1zM283 11123h-1v-1h1v1zM253 11123h-1v-1h1v1zM304 11122h-5l1 -1h5l-1 1zM292 11122h-1v-1h1v1zM289 11123l-1 -1v-1l1 1v1zM284 11122h-1v-1h1v1zM278 11122h-1v-1h1v1zM262 11122h-1v-1h1v1zM254 11122h-1v-1h1v1zM286 11121h-2v-1h2v1zM279 11121h-1v-1h1v1zM276 11121h-1v-1h1v1zM264 11121h-1v-1h1v1zM260 11121h-1v-1h1v1zM256 11121h-1v-1h1v1zM292 11120h-1v-1h1v1zM290 11120h-1v-1h1v1zM287 11120h-1v-1h1v1zM275 11120h-1v-1h1v1zM266 11120h-1v-1h1v1zM262 11120h-1v-1h1v1zM259 11120h-1v-1h1v1zM288 11119h-1v-1h1v1zM268 11119h-1v-1h1v1zM265 11119h-1v-1h1v1zM261 11119h-1v-1h1v1zM289 11118h-1v-1h1v1zM283 11118h-1v-1h1v1zM280 11118h-1v-1h1v1zM270 11118h-1v-1h1v1zM290 11117h-1v-1h1v1zM284 11117h-1v-1h1v1zM272 11117h-1v-1h1v1zM268 11117h-1v-1h1v1zM265 11117h-1v-1h1v1zM261 11117h-1v-1h1v1zM246 11117h-1v-1h1v1zM295 11117l-1 -1v-1l1 1v1zM292 11116h-1v-1h1v1zM285 11116h-1v-1h1v1zM282 11116h-1v-1h1v1zM267 11116h-1v-1h1v1zM309 11066h-1v-1h1v1zM311 11064h-1v-1h1v1zM310 11062h-2v-1h2v1zM269 11115h-1v-1h1v1zM264 11115h-1v-1h1v1zM253 11115h-1v-1h1v1zM294 11114h-1v-1h1v1zM287 11114h-1v-1h1v1zM278 11114h-1v-1h1v1zM266 11114h-1v-1h1v1zM255 11114h-1v-1h1v1zM295 11113h-1v-1h1v1zM289 11113h-1v-1h1v1zM258 11113h-2v-1h2v1zM253 11113h-1v-1h1v1zM298 11113l-1 -1l1 -1h1v1l-1 1zM290 11112h-1v-1h1v1zM268 11113v-1l2 -1v1l-2 1zM259 11112h-1v-1h1v1zM254 11112h-1v-1h1v1zM272 11111h-1v-1h1v1zM262 11111h-1v-1h1v1zM255 11111h-1v-1h1v1zM301 11110h-1v-1h1v1zM287 11110h-1v-1h1v1zM282 11110h-1v-1h1v1zM274 11110h-1v-1h1v1zM263 11110h-1v-1h1v1zM256 11110h-1v-1h1v1zM276 11109h-1v-1h1v1zM260 11109h-1v-1h1v1zM257 11109h-1v-1h1v1zM252 11109h-1v-1h1v1zM298 11108h-1v-1h1v1zM278 11108h-2v-1h2v1zM258 11108h-1v-1h1v1zM253 11108h-1v-1h1v1zM269 11107h-1v-1h1v1zM263 11107h-1v-1h1v1zM259 11107h-1v-1h1v1zM254 11107h-1v-1h1v1zM291 11106h-1v-1h1v1zM270 11106h-1l1 -1h1l-1 1zM273 11105h-1v-1h1v1zM256 11105h-1v-1h1v1zM300 11105l-1 -1v-1l1 1v1zM260 11106h-1l3 -3l1 1l-3 2zM257 11104h-1v-1h1v1zM246 11104h-1v-1h1v1zM301 11103h-1v-1h1v1zM297 11103h-1v-1h1v1zM276 11103h-1v-1h1v1zM268 11103h-1v-1h1v1zM264 11103h-1v-1h1v1zM300 11102h-2v-1h2v1zM279 11102h-1v-1h1v1zM277 11102h-1v-1h1v1zM265 11102h-1v-1h1v1zM253 11102v-1h1v1h-1zM282 11101h-1v-1h1v1zM270 11101h-1v-1h1v1zM266 11101h-1v-1h1v1zM258 11103l-1 -1l3 -2h1l-3 3zM249 11101h-1v-1h1v1zM296 11100h-1v-1h1v1zM285 11100h-1v-1h1v1zM267 11100h-1v-1h1v1zM262 11100h-1v-1h1v1zM295 11099h-1v-1h1v1zM288 11099h-2v-1h2v1zM284 11099h-1v-1h1v1zM272 11099h-1v-1h1v1zM263 11099h-1v-1h1v1zM290 11099v-1l2 -1v1l-2 1zM289 11098h-1v-1h1v1zM269 11098h-1v-1h1v1zM264 11098h-1v-1h1v1zM245 11098h-1v-1h1v1zM271 11097h-1v-1h1v1zM265 11097h-1v-1h1v1zM266 11096h-1v-1h1v1zM245 11096h-1v-1h1v1zM267 11095h-1v-1h1v1zM246 11095h-1v-1h1v1zM273 11095l-1 -1v-1l1 1v1zM268 11094h-1l1 -1h1l-1 1zM255 11094h-1v-1h1v1zM250 11094h-1v-1h1v1zM270 11093h-1v-1h1v1zM258 11094h-2l2 -2v2zM254 11093h-1v-1h1v1zM251 11093h-1v-1h1v1zM276 11092h-1v-1h1v1zM271 11092h-1v-1h1v1zM257 11092h-1v-1h1v1zM277 11091h-1v-1h1v1zM262 11091v-1l1 1h-1zM247 11091h-1v-1h1v1zM278 11090h-1v-1h1v1zM257 11090h-1v-1h1v1zM255 11090h-1v-1h1v1zM249 11090h-1v-1h1v1zM269 11089h-1v-1h1v1zM250 11089h-1v-1h1v1zM272 11088h-1v-1h1v1zM256 11088h-1v-1h1v1zM251 11087h-1v-1h1v1zM283 11085h-1v-1h1v1zM271 11085h1v-1h2l-2 2l-1 -1zM271 11085h-1v-1h1v1zM253 11085h-1v-1h1v1zM278 11086v-1l2 -2v1l-2 2zM278 11084h-1v-1h1v1zM271 11084l1 -1v1h-1zM264 11084h-1v-1h1v1zM272 11083v-1h3l-1 2v-1h-2zM288 11081h-1v-1h1v1zM262 11081h-1v-1h1v1zM290 11080h-1v-1h1v1zM283 11080h-1v-1h1v1zM276 11079h-1v-1h1v1zM289 11076h-1v-1h1v1zM266 11076h-1v-1h1v1zM296 11075h-1v-1h1v1zM290 11075h-1v-1h1v1zM267 11075h-1v-1h1v1zM298 11074h-1v-1h1v1zM299 11073h-1v-1h1v1zM286 11072v-1l1 1h-1zM302 11071h-1v-1h1v1zM296 11070v1l-1 -1h1zM259 11071h-1v-1h1v1zM303 11070h-1v-1h1v1zM300 11070h-1v-1h1v1zM295 11070h-1h-1l1 -1h1v1zM288 11070h-1v-1h1v1zM304 11069h-1v-1h1v1zM269 11069h-1v-1h1v1zM263 11069h-1v-1h1v1zM294 11068h-1v-1h1v1zM291 11068h-1v-1h1v1zM301 11067h-1v-1h1v1zM264 11067h-1v-1h1v1zM293 11066h-1v-1h1v1zM304 11065h-1v-1h1v1zM294 11065h-1v-1h1v1zM302 11066l-2 -1l-1 -1l1 -1l2 1v2zM273 11064h-1v-1h1v1zM267 11064h-1v-1h1v1zM306 11063h-3l1 -1h2v1zM297 11063h-1v-1h1v1zM295 11063h-1v-1h1v1zM268 11063h-1l1 -1h1l-1 1zM299 11061h-1v-1h1v1zM276 11061h-1v-1h1v1zM262 11061h-1v-1h1v1zM308 11060h-1l1 -1h1l-1 1zM302 11060h-2v-1h2v1zM272 11060h-1v-1h1v1zM308 11058h-1v-1h1v1zM304 11059h-2v-1l2 -1l1 1l-1 1zM279 11058h-1v-1h1v1zM280 11057h-1v-1h1v1zM274 11059h-2v-1h1v-2h1l1 2l-1 1zM276 11057v-1l2 -1h1l-1 1l-2 1zM275 11056h-1v-1h1v1zM263 11056h-1v-1h1v1zM283 11055h-1v-1h1v1zM280 11055h-1v-1h1v1zM276 11055h-1v-1h1v1zM272 11055h-1v-1h1v1zM297 11054h-1v-1h1v1zM281 11054h-1v-1h1v1zM270 11053v3h-2l-1 -2h1l1 -1h1zM294 11053h-1v-1h1v1zM285 11053h-1v-1h1v1zM273 11054l-1 -1v-1h1v2zM270 11053v-1h1l-1 1zM267 11054h-4l1 -1h2v-1h1v2zM295 11052h-1v-1h1v1zM283 11053l-1 -1v-1l1 1v1zM274 11052h-1v-1h1v1zM271 11051l1 1h-1v-1zM269 11053h-1l1 -2v2zM310 11043l-1 -1v-1l1 1v1zM311 11041h-1v-1h1v1zM312 11040h-1v-1h1v1zM313 11039h-1v-1h1v1zM314 11038l-1 -1l1 -1h1l-1 2zM311 11036l-1 1v-1h1zM311 11035l1 1h-1v-1zM314 11028h2v-1l1 1l-1 3h-2v-3zM318 11027h-1v-1h1v1zM316 11027h-1v-1h1v1zM315 11025h-1v-1h1v1zM312 11021h-1l1 -1h1l-1 1zM309 11016h-1v-1h1v1zM312 11016h-2l2 -2v2zM310 11015h-1v-1h1v1zM314 11014h-1v-1h1v1zM313 11012h-1v-1h1v1zM315 11012l-1 -1v-1h1v2zM310 11011h-1v-1h1v1zM315 11009l-1 -1v-1l1 1v1zM313 11007h-1v-1h1v1zM312 11005h-2v-1h2v1zM314 11004h-2v-1h2v1zM310 11004h-1v-1h1v1zM311 11002h-1v-1h1v1zM309 11002h-1v-1h1v1zM288 11051h-1v-1h1v1zM276 11054v-1l2 -3h2v2h-2l-2 2zM275 11051h-1v-1h1v1zM269 11051v-1l2 1h-2zM245 11051h-1v-1h1v1zM302 11050h-1v-1h1v1zM277 11050h-1v-1h1v1zM272 11050h-1v-1h1v1zM303 11049h-1v-1h1v1zM299 11049h-1v-1h1v1zM286 11051l-1 -1l1 -2h2l-2 3zM276 11049h-1v-1h1v1zM256 11049h-1v-1h1v1zM245 11049h-1v-1h1v1zM300 11048h-1v-1h1v1zM292 11048h-1v-1h1v1zM289 11048h-1v-1h1v1zM284 11049l-1 -1v-1l1 1v1zM280 11049l-1 -1v-1l1 1v1zM272 11049v-1l2 -1v1l-2 1zM290 11047h-1v-1h1v1zM286 11047h-1l1 -1h1l-1 1zM260 11047h-1v-1h1v1zM289 11045l-1 1v-1h1zM281 11047l-1 -1v-1l1 1v1zM274 11046h-1v-1h1v1zM258 11046h-1v-1h1v1zM293 11047l-1 -1l-1 -2h1h2l-1 2v1zM289 11044h1l-1 1v-1zM288 11045l-1 -1h1v1zM284 11045h-1v-1h1v1zM263 11045h-1v-1h1v1zM260 11045h-1v-1h1v1zM288 11044v-1l1 1h-1zM282 11045l-1 -1v-1l1 1v1zM275 11044h-1v-1h1v1zM265 11044h-1v-1h1v1zM292 11043h-1l1 -1h1l-1 1zM287 11043h-1v-1h1v1zM281 11043h-1v-1h1v1zM277 11043h-1v-1h1v1zM266 11043h-1v-1h1v1zM263 11043h-1v-1h1v1zM246 11043h-2v-1h3l-1 1zM297 11042v2l-1 1l-1 -1l1 -3v1h1zM294 11042h-1v-1h1v1zM283 11042h-1v-1h1v1zM280 11042h-1v-1h1v1zM264 11042h-1l1 -1h1l-1 1zM290 11041h-1v-1h1v1zM284 11041h-1v-1h1v1zM276 11042l-1 -1v-1h1v2zM268 11041h-1v-1h1v1zM261 11041h-1v-1h1v1zM294 11040h-1v-1h1v1zM283 11040h-1v-1h1v1zM280 11040h-1v-1h1v1zM278 11040h-1v-1h1v1zM296 11041v-1l2 -2l-1 4l-1 -1zM295 11039h-1v-1h1v1zM287 11039h-1v-1h1v1zM270 11040h-2l-1 -2h1l2 2zM248 11039h-1v-1h1v1zM307 11038h-1v-1h1v1zM299 11038h-1v-1h1v1zM284 11039l-1 -1v-1l1 1v1zM277 11039l-1 -1v-1l1 1v1zM263 11038h-1v-1h1v1zM308 11037h-1v-1h1v1zM305 11037h-1v-1h1v1zM288 11038h-1l1 -2h2l-2 2zM271 11039l-1 -1v-2h1v3zM261 11037h-1v-1h1v1zM291 11036h-1v-1h1v1zM285 11036h-1v-1h1v1zM278 11037h-1v-1l1 -1l1 1l-1 1zM274 11036h-1v-1h1v1zM272 11036h-1v-1h1v1zM303 11036h-1h-1l1 -2h1v2zM294 11035h-3l1 -1h2v1zM281 11039l-1 -1l1 -4h1l-1 4v1zM280 11035h-1v-1h1v1zM273 11035h-1v-1h1v1zM267 11035h-1v-1h1v1zM295 11034h-1v-1h1v1zM289 11034h-1v-1h1v1zM286 11034h-1v-1h1v1zM279 11034h-1v-1h1v1zM277 11034h-1v-1h1v1zM268 11034h-1v-1h1v1zM265 11034h-1v-1h1v1zM263 11034h-1v-1h1v1zM305 11033h-1v-1h1v1zM301 11033h-1v-1h1v1zM296 11033h-1v-1h1v1zM287 11033h-1v-1h1v1zM278 11033h-1v-1h1v1zM276 11033h-2v-1h2v1zM269 11033h-1v-1h1v1zM264 11033h-1v-1h1v1zM280 11032h-2v-1h2v1zM265 11032h-1v-1h1v1zM262 11033l-1 -1v-1l1 1v1zM303 11031h-1v-1h1v1zM298 11032h-2l2 -2h1l-1 2zM292 11031h-1v-1h1v1zM288 11031h-1v-1h1v1zM283 11034h-1v-2l2 -2h1l-2 2v2zM289 11030h-1v-1h1v1zM280 11030h-1v-1h1v1zM268 11031h-2v-1l2 -1v1v1zM290 11029h-1v-1h1v1zM286 11029h-1v-1h1v1zM269 11029h-1v-1h1v1zM300 11030h-1l3 -3v1l-2 2zM291 11028h-1v-1h1v1zM287 11028h-1v-1h1v1zM304 11027h-1v-1h1v1zM288 11026v1l-1 -1h1zM285 11027h-1v-1h1v1zM282 11030l-2 -2l2 -2h1v2l-1 2zM305 11026h-1v-1h1v1zM294 11026h-1l1 -1h1l-1 1zM277 11026h-1v-1h1v1zM272 11027h-2v-1l2 -1v1v1zM278 11025h-1v-1h1v1zM275 11025h-1v-1h1v1zM273 11025h-1v-1h1v1zM308 11024h-1v-1h1v1zM297 11024h-1v-1h1v1zM291 11023l1 1h-1v-1zM282 11024h-1v-1h1v1zM274 11024h-1v-1h1v1zM293 11023h-1v-1h1v1zM283 11023h-1v-1h1v1zM275 11023h-1v-1h1v1zM296 11022h-2v-1h2v1zM290 11023v-1v-1l1 1v1h-1zM284 11022h-1v-1h1v1zM278 11022h-1v-1h1v1zM302 11021h-1v-1h1v1zM292 11021h-1v-1h1v1zM286 11021h-1v-1h1v1zM280 11021h-1v-1h1v1zM303 11020h-1v-1h1v1zM298 11020h-1v-1h1v1zM296 11020h-1v-1h1v1zM294 11021l-2 -1v-1h2v1v1zM291 11020h-1v-1h1v1zM288 11020h-1v-1h1v1zM281 11020h-1v-1h1v1zM279 11020h-1v-1h1v1zM276 11020h-1v-1h1v1zM272 11020h-2v-1h2v1zM289 11019h-1v-1h1v1zM283 11019h-1v-1h1v1zM278 11019h-1v-1h1v1zM296 11018h-1l1 -1h1l-1 1zM284 11018h-1v-1h1v1zM273 11019l-1 -1v-1l1 1v1zM302 11017h-2v-1h2v1zM298 11018l-1 -2h1h1v2h-1zM291 11017h-1v-1h1v1zM274 11017h-1v-1h1v1zM267 11018l-1 -1v-1h1v2zM304 11016h-1v-1h1v1zM300 11016h-1v-1h1v1zM287 11016h-1v-1h1v1zM285 11015l-1 1v-1h1zM280 11017v-1l2 -1v1l-2 1zM275 11016h-1v-1h1v1zM301 11015h-1v-1h1v1zM296 11015h-1l1 -1h1l-1 1zM294 11016h-1v-2h1l1 2h-1zM289 11015h-1v-1h1v1zM285 11014h1l-1 1v-1zM284 11015l-1 -1h1v1zM269 11015h-1v-1h1v1zM298 11014h-1v-1h1v1zM290 11014h-1v-1h1v1zM284 11014v-1l1 1h-1zM276 11014h-1v-1h1v1zM270 11014h-1v-1h1v1zM304 11013h-1v-1h1v1zM292 11013h-1v-1h1v1zM287 11013h-1v-1h1v1zM308 11013h-2v-1l2 -1l1 1l-1 1zM306 11012h-2v-1h2v1zM294 11012h-1v-1h1v1zM291 11012h-1v-1h1v1zM288 11012h-1v-1h1v1zM277 11013l-1 -1v-1l1 1v1zM271 11012h-1v-1h1v1zM295 11011h-1v-1h1v1zM293 11011h-1v-1h1v1zM289 11011h-1v-1h1v1zM272 11011h-1v-1h1v1zM305 11010h-1v-1h1v1zM297 11010h-1v-1h1v1zM299 11009h-1v-1h1v1zM279 11010l-1 -1v-1h1v2zM271 11009h-1v-1h1v1zM269 11009h-1v-1h1v1zM307 11008v-1h2l-1 2v-1h-1zM298 11008h-1v-1h1v1zM283 11008h-1v-1h1v1zM280 11008h-1v-1h1v1zM274 11008h-1v-1h1v1zM305 11007h-1v-1h1v1zM300 11008l-1 -1v-1h1v2zM296 11007h-1v-1h1v1zM306 11006h-1v-1h1v1zM302 11006h-1v-1h1v1zM298 11006h-1l1 -1h1l-1 1zM275 11007l-1 -1v-1l1 1v1zM304 11005h-1v-1h1v1zM300 11005h-1v-1h1v1zM282 11005h-1v-1h1v1zM276 11005h-1v-1h1v1zM272 11005h-1v-1h1v1zM306 11004h-1v-1h1v1zM302 11004h-2v-1h2v1zM277 11004h-1v-1h1v1zM304 11003h-1v-1h1v1zM283 11003h-1v-1h1v1zM271 11003h-1v-1h1v1zM306 11002h-1v-1h1v1zM284 11002h-1v-1h1v1zM274 11002h-1v-1h1v1zM285 11001h-1v-1h1v1zM275 11001h-1v-1h1v1zM277 11000h-1v-1h1v1zM276 10999h-1v-1h1v1zM277 10998h-1v-1h1v1zM275 10997h-1v-1h1v1zM288 10996h-1l1 -1h1l-1 1zM280 10996h-1v-1h1v1zM277 10996h-1v-1h1v1zM279 10994h-1v-1h1v1zM291 10993l-1 -1v-1l1 1v1zM285 10992h-1v-1h1v1zM282 10992h-1v-1h1v1zM280 10992h-2v-1h2v1zM293 10990h-1v-1h1v1zM286 10990h-3l1 -1h2v1zM282 10990h-1v-1h1v1zM288 10989h-1v-1h1v1zM283 10989h-1v-1h1v1zM295 10988h-1v-1h1v1zM282 10988h-2v-1h2v1zM308 10980v-1l2 -1l-2 2zM311 10978h-1v-1h1v1zM314 10975h-1v-1h1v1zM310 10975h-1v-1h1v1zM311 10974h-1v-1h1v1zM315 10973h-1v-1h1v1zM312 10973l-1 -1v-2h1v3zM311 10970h-1v-1h1v1zM314 10969h-1v-1h1v1zM313 10968h-1v-1h1v1zM312 10967h-1v-1h1v1zM310 10966h-1l1 -1h1l-1 1zM310 10954h-1v-1h1v1zM311 10950h-1v-1h1v1zM316 10946h-1v-1h1v1zM314 10946h-1v-1h1v1zM316 10944h-1v-1h1v1zM317 10943h-1v-1h1v1zM314 10943l-1 -1v-1l1 1v1zM321 10941h-1v-1h1v1zM312 10940h-1l1 -1h1l-1 1zM314 10939h-1v-1h1v1zM310 10939h-2v-1v-1l2 1h1l-1 1zM313 10937h-1v-1h1v1zM311 10937h-1v-1h1v1zM314 10936h-1v-1h1v1zM310 10936h-1v-1h1v1zM317 10935h-1v-1h1v1zM312 10934h-1v-1h1v1zM316 10933h-1v-1h1v1zM314 10932h-1v-1h1v1zM300 10987h-1v-1h1v1zM292 10987h-1v-1h1v1zM277 10987h-1v-1h1v1zM280 10986h-1v-1h1v1zM298 10985h-1v-1h1v1zM293 10985h-1v-1h1v1zM284 10988l-1 -2l3 -2h2v1h-2v1l-2 2zM296 10987l-1 -1l-1 -2l2 -1v1l1 2l-1 1zM289 10984h-1v-1h1v1zM285 10984h-1v-1h1v1zM287 10983h-1v-1h1v1zM300 10983h-1v-1l1 -1l1 1l-1 1zM285 10982h-1v-1h1v1zM308 10981h-1v-1h1v1zM297 10981h-1v-1h1v1zM282 10981h-1v-1h1v1zM289 10980l1 -1v1h-1zM283 10980h-1v-1h1v1zM288 10979h-1v-1h1v1zM284 10979h-1v-1h1v1zM301 10978h-1v-1h1v1zM279 10977l1 1h-1v-1zM291 10977h-1v-1h1v1zM285 10978l-1 -1v-1h1v2zM281 10977h-1v-1h1v1zM291 10976l1 -1v1h-1zM286 10976h-1v-1h1v1zM294 10975h-2v-1h2v1zM287 10975h-1v-1h1v1zM283 10974h-1v-1h1v1zM296 10972h-1v-1h1v1zM290 10974v-2v-1l2 1l-2 2zM299 10970h-1v-1h1v1zM297 10970h-1v-1h1v1zM293 10970h-1v-1h1v1zM291 10970h-1v-1h1v1zM308 10969l-2 -1v1l-2 -1v-1h5v1l-1 1zM300 10969l-1 -1l1 -1l1 1l-1 1zM302 10967h-1v-1h1v1zM304 10966h-1v-1h1v1zM308 10965h-2v-1h2v1zM292 10964h-1v-1h1v1zM289 10964h-1v-1h1v1zM285 10964h-1v-1h1v1zM306 10963h-1v-1h1v1zM299 10963h-1v-1h1v1zM297 10963h-1v-1h1v1zM290 10963h-1v-1h1v1zM286 10963h-1v-1h1v1zM294 10963h-2v-2h2v2zM288 10963l-1 -1v-1l1 1v1zM295 10961h-1v-1h1v1zM292 10961h-1v-1h1v1zM299 10960h-1v-1h1v1zM296 10960h-1v-1h1v1zM287 10960h-1v-1h1v1zM295 10959h-1v-1h1v1zM289 10959h-1v-1h1v1zM302 10958h-1v-1h1v1zM297 10959l-1 -1v-1l1 1v1zM290 10958h-1v-1h1v1zM303 10957h-1v-1h1v1zM294 10958h-2l2 -2h1l-1 2zM303 10956l1 -1v1h-1zM298 10957l-1 -1v-1l1 1v1zM291 10956h-1v-1h1v1zM302 10956h-2h-1l1 -2h2v2zM299 10955h-1v-1h1v1zM307 10954h-1v-1h1v1zM303 10954h-1v-1h1v1zM296 10955l-1 -1l1 -1l1 1l-1 1zM291 10954h-1v-1h1v1zM308 10953h-1v-1h1v1zM293 10953h-1v-1h1v1zM299 10953l-1 -1v-2h1v3zM295 10951h-1v-1h1v1zM306 10951v-1h1v-1h1v1v1h-2zM302 10950l2 -1l2 2l-2 2l-2 -1v-2zM297 10949h-1v-1h1v1zM302 10950l-2 1v-1v-2l2 -1v3zM298 10948h-1v-1h1v1zM300 10947h-2v-1l2 -1v1v1zM301 10945h-1v-1h1v1zM297 10944h-1v-1h1v1zM303 10942h-1v-1h1v1zM300 10942h-1v-1h1v1zM306 10940h-1v-1h1v1zM307 10939h-1v-1h1v1zM305 10938h-1v-1h1v1zM307 10936h-1v-1h1v1zM419 10817h-1v-1h1v1zM372 10659h-1v-1h1v1zM368 10659h-1v-1h1v1zM243 11125h-1v-1h1v1zM244 11124h-1l1 -1h1l-1 1zM242 11120h1v3h-2v-2h1v-1zM240 11114h-1v-1h1v1zM234 11113v1l-1 -1h1zM233 11113h-1v-1h1v1zM237 11112h-1v-1h1v1zM242 11109h-1v-1h1v1zM240 11110l-2 -2h2v2zM243 11105l-1 1v-1h1zM240 11107h-2v-1l2 -1v1v1zM243 11104h1l-1 1v-1zM242 11105h-2v-1h2v1zM242 11104v-1l1 1h-1zM238 11104h-1v-1h1v1zM243 11052h-1v-1h1v1zM244 11048h-1v-1h1v1zM241 11048h-1v-1h1v1zM244 11046l-1 -1v-1h1v2zM241 11045h-1v-1h1v1zM244 11039h-1v-1h1v1zM570 11368h-2v-1h3l-1 1zM567 11368h-1v-1h1v1zM574 11367h-2v-1h3l-1 1zM565 11367h-1v-1h1v1zM572 11366h-4v-1h4v1zM578 11365h-2v-1h2v1zM579 11364h-1v-1h1v1zM576 11364h-1v-1h1v1zM577 11363h-1v-1h1v1zM559 11367h-1v-1h1v1zM561 11364h-1v-1h1v1zM549 11364h-1v-1h1v1zM537 11363h-1v-1h1v1zM542 11363l-2 -1v-1h2v1v1zM536 11361h-1l1 -1h1l-1 1zM526 11360h-3l1 -1h2v1zM525 11358h-1v-1h1v1zM517 11358h-1v-1h1v1zM523 11359l-5 -1l2 -2v1h3v2zM518 11357h-1v-1h1v1zM514 11358l-1 -1v-1h1v2zM516 11357l-1 -1v-1l1 1v1zM512 11356h-4l2 -2h2h1l-1 2zM507 11354h-1v-1h1v1zM504 11353h-1v-1h1v1zM524 11346h-1v-1h1v1zM525 11345h-1v-1h1v1zM520 11345h-1l1 -1h1l-1 1zM514 11344h-3l1 -1h3l-1 1zM519 11343h-1v-1h1v1zM522 11342h-1v-1h1v1zM523 11341h-1v-1h1v1zM518 11341h-1v-1h1v1zM516 11341h-2v-1h2v1zM522 11340h-1v-1h1v1zM511 11340h-1v-1h1v1zM508 11340h-1v-1h1v1zM518 11338h-1v-1h1v1zM508 11338h-2v-1h3l-1 1zM504 11340h-1v-3h2v1l-1 2zM512 11335h-1v-1h1v1zM510 11334h-1v-1h1v1zM508 11334h-2v-1h2v1zM504 11334h-2v-1h2v1zM501 11334h-1v-1h1v1zM515 11331h-1v-1h1v1zM510 11330h-1v-1h1v1zM507 11329h-1v-1h1v1zM502 11329h-1v-1h1v1zM510 11328h-1v-1h1v1zM503 11328h-1v-1h1v1zM501 11327h-1v-1h1v1zM513 11326h-1v-1h1v1zM514 11325h-1v-1h1v1zM512 11325h-1v-1h1v1zM510 11325h-1v-1h1v1zM501 11324h-1v-1h1v1zM508 11322h-1v-1h1v1zM503 11321h-1v-1h1v1zM495 11357h-1v-1h1v1zM484 11355h-1v-1h1v1zM482 11355h-1v-1h1v1zM499 11353h-1v-1h1v1zM471 11353h-1v-1h1v1zM495 11352h-1v-1h1v1zM487 11352h-1v-1h1v1zM461 11352h-1v-1h1v1zM475 11350h-1v-1h1v1zM463 11347h-1v-1h1v1zM499 11339h-1v-1h1v1zM500 11339l-1 -1l1 -1h1v1l-1 1zM496 11339h-1v-1l1 -1l1 1l-1 1zM494 11338h-2v-2l2 2zM491 11337l-1 -1v-1l1 1v1zM487 11336h-1v-1h1v1zM498 11335l-4 -1v-1h5v1l-1 1zM484 11335h-2v-1l2 -1l1 1l-1 1zM481 11334h-1v-1h1v1zM476 11334h-4v-1h5l-1 1zM471 11334h-1v-1h1v1zM468 11334h-2v-1h2v1zM462 11334h-4v-1h4v1zM494 11333h-1v-1h1v1zM492 11333h-1v-1h1v1zM458 11333h-4v-1h4v1zM490 11332h-1l1 -1h1l-1 1zM489 11331h-1v-1h1v1zM486 11331h-1l1 -1h1l-1 1zM482 11330h-1v-1h1v1zM475 11330h-1v-1h1v1zM468 11330h-3l1 -1h2v1zM444 11329h-1v-1h1v1zM443 11328h-1v-1h1v1zM498 11327h-4v-1h5l-1 1zM499 11325h-1v-1h1v1zM487 11325h-1v-1h1v1zM490 11324h-1v-1h1v1zM480 11324h-1v-1h1v1zM442 11324h-1v-1h1v1zM496 11323h-1v-1h1v1zM494 11324h-2l2 -2v2zM443 11323h-1v-1h1v1zM440 11323h-1v-1h1v1zM497 11321h-1v-1h1v1zM484 11321h-1v-1h1v1zM482 11322l-1 -1v-1h1v2zM480 11321h-1v-1h1v1zM478 11320h-2v-1h2v1zM476 11319h-2v-1h2v1zM467 11319h-1v-1h1v1zM464 11319h-1v-1h1v1zM474 11318h-2v-1h2v1zM472 11317h-2v-1h2v1zM466 11316h-2v-1h3l-1 1zM463 11316h-1v-1h1v1zM460 11315h-3l1 -1h3l-1 1zM438 11315h-1v-1h1v1zM456 11314h-6v-1h6v1zM448 11314h-1v-1h1v1zM466 11310h-1v-1h1v1zM450 11309h-3l1 -1h3l-1 1zM435 11318h-1v-1h1v1zM456 11306h-1v-1h1v1zM451 11305h-1v-1h1v1zM459 11306h-1v-4h1v4zM453 11303h-1v-1h1v1zM451 11303h-1v-1h1v1zM351 11271h-1v1l-2 -1l-2 -1h4h1v1zM318 11267h-1l1 -1h1l-1 1zM314 11266h-1v-1h1v1zM311 11266h-1v-1h1v1zM306 11265h-1v-1l1 -1l1 1l-1 1zM305 11263h-1v-1h1v1zM281 11258h-1v-1h1v1z"/></svg>