<svg xmlns="http://www.w3.org/2000/svg" viewBox="-516 14184 1078 656"><g class="s" data-r fill="#000" fill-rule="evenodd"><path class="chunk" data-i="0" d="M-213 14774v-1h1v-1h2v1h-1l-1 2v-1h-1zM-210 14772v-1h2v1v1h-1v-1h-1zM-218 14775v-1l-1 -1v1l1 1zM-213 14776l-1 2l-4 1l-2 -1v-2v-2v-2h2v-2h2v1l1 -1v-1l2 -1l2 1l-3 1v2l1 1h-1l-2 -1v2l-2 2l3 -1h1v1h1zM-196 14763l1 1l-1 2h-4v2l-2 -1l-2 2v-1l-1 -2l1 -1l2 1h1l-1 -2v-1l2 2l3 -2l1 1v-1zM-211 14769l1 -1v-2h2v2l3 1l-4 1h-1l-1 -1zM-251 14774l-1 1l-1 1l-9 5l-5 5l-1 3v5l1 4l3 2l3 1l13 2l2 3l1 3v2h2l20 -5l11 -2l8 -1v2l5 1l15 1l2 -1v1l2 -1h4l12 -3l2 1v-1l10 -1l2 -2h2l2 -2h1l5 -2l7 -4l1 -1l2 -1l4 -7l2 -3v-4l-2 -2v-4l2 -2l4 1h2l1 1v3v7l-1 4v2l-1 2l-7 6l-4 2l-2 2l-2 1l-2 1l-7 4l-3 2l-29 4h-4l-6 1h-13l-4 -1l-5 -2h-2l-25 6l-7 2l-5 -1h-2l-2 -3l-1 -2l-1 -2l-10 -2h-2l-2 -2h-2l-2 -2v-2l-4 -7v-3l2 -3l2 -5l4 -3l2 -2h2l2 -2h2l2 -2h3v1h1h1zM-255 14776v-1h-1v1h1zM-186 14726v-1l2 -1v-4v-1l2 1v2l2 2v1h-4l-2 1zM-214 14764v-1l1 -1l-1 -2h1v-2h1l1 2v2l-3 2z"/><path class="chunk" data-i="1" d="M-176 14779l-4 -5l-8 -4l-2 -1l-1 -1l-2 -5h-2v-1l1 -2h-1l-2 -18l-1 -1l-3 3l-1 2v2l-5 6l-1 2l-2 3l-1 -1v-1l3 -5l4 -9l6 -7l2 -2l2 -1l1 1l4 19l2 7l3 4l9 4l3 1l1 1v2v3v2l-3 1l-2 1zM-218 14750l2 -2l1 -2h-1v-1h2l1 -1l-1 -1l-2 1h-1v2h-1l1 2l-1 1v1zM-219 14748v-2h-1v1l1 1zM-224 14748v-1h-1v1h1zM-221 14748v-1h-1v1h1zM-219 14755v-1h-1v1h1zM-220 14756v-1h-2v1h2zM-223 14757v-1h-1v1h1zM-224 14759v-1h-1v1h1zM-225 14760v-1h-1v1h1zM-227 14762h-1l-2 2h-1l2 -2v-2h2l1 -3l1 -1h1v-1h2l4 -5l-2 -1v-1h-1v1h-1l-1 1h1h1l-1 1l-4 2l-1 -1l1 -2h-1v-2h-1v-1l2 -1l4 -2l6 -3l5 -1v2h1h1l-1 2v1l-2 2l-3 5l-5 5h-1v1l-1 2h-2v2h-2v-1l-1 1zM-208 14730l1 -1h-1l-1 1h1zM-197 14729l-1 1h-1h-4l-3 1l-2 1l-2 -1v-3l4 -2h1l-2 2l1 1l4 -1v-1l2 1h2v1h1zM-204 14726l-1 -1l1 -1l4 -3h2v1l-6 3v1zM-166 14701h-2v-1l2 -2v-2h-4v-1h5v1l1 2h-1v2l-1 1zM-171 14680l-1 -2l2 -1h2v1v1l1 -1v-1l1 1l1 2l-1 1l-2 -1l-1 1v-1l-1 -1l-1 1zM-162 14681h-2v-1h1v-2l-2 -2l1 -1l1 1l1 2l1 2l-1 1zM-166 14676v-1l-2 1v-1h-8v-1h11v2h-1zM-189 14786l12 -3l23 -9l11 -5v-1l-3 -3h-1l-5 -3h-2l-2 -2l-2 -1l-6 -3l-1 -2l-3 -5l-2 -5l-1 -2h1l-1 -2h1l-1 -2h1l-1 -2h1v-4l2 -5v-2l4 -6v-2h2l11 -15l1 -2l1 -2l2 -2l1 -2l2 -5v-4v-9l-1 -3l-1 -2l-3 -5l-1 -2h-2l-4 -2l-5 -2l-7 -2l-4 -1l-6 -1l-2 -1v1l-2 -1l-9 1l1 22h1v-2l3 -2v2l2 -2h1v2h-1l2 2v1h-2l-2 1v-1l-2 1h-1l-1 12l-1 6l1 2h2v1l2 -1h1l-1 2h-3v4h-1v-1h-2v-1l-3 2v2l-11 10l-4 2l-8 4l-10 5l-4 3l-2 1l-6 5v3l-2 5l-3 14h-1l2 2l-1 2h1v4h2l2 5h2v1h-1l1 2h-1l3 3l2 1h2l6 2l2 2l5 1l30 1zM-187 14677v-1h-1v1h1zM-186 14678l1 -1h-1l-1 1h1zM-247 14762v-2l-1 -1v3h1zM-190 14704v-2h1l-1 -1l-2 1l2 2zM-253 14773v-1l2 -2l3 -3v1h1l-1 -4v-2v-5v-2l4 -19l2 -2l2 -2h1v-2l6 -3v-2h3l2 -2l2 -2l3 -1l11 -4l6 -4l3 -4v-1h2l3 -7l1 -2l2 -9v-9v-5l-1 -15l-1 -2h1l-3 -4v-2l3 -3h2l2 -1v1h2v-1l2 1l3 -1l9 1v1l2 -1l6 1l11 4l7 2l2 2h2l5 6l2 2l1 5l1 5h1l-1 2h1v2l-1 2h1l-1 2l-1 3l-2 6l-4 8l-4 7l-11 14l-1 2l-1 2l-1 3l-2 5v6l1 5h1l2 1v3h2v2l4 1v2l13 5l6 3v4l-3 3l-2 -1l-4 5l-15 7l-3 2h-2l-2 2h-2l-20 8h-4h-26l-5 -1l-3 -1l-5 -1l-13 -4v-2h-2l-1 -4l-1 -5l-2 -1l-1 1l-1 -1h-1z"/><path class="chunk" data-i="2" d="M26 14629h-6v-1h2v-1l2 1h1v-2h1v2h1l-1 1zM20 14622l1 -2h-1l-1 1l1 1zM22 14622v1h-2v2h-2v-1h1l-2 -2l1 -2h-2v-3h-2v-1h4v-1l1 1v1h-2v1l1 1v-1h2v-1l2 1v3l-1 1h1zM-2 14617v1h-3v-3l3 1h-2v1h2zM76 14702l-4 -1l-1 -1l-3 -25l1 -7l-1 -1v1h-4v1l-2 -1v1l-16 1v1l-2 -1v1h-6l-2 1v-1l-2 1l-8 1v-1l-2 1h-16v1l2 3h2l2 3l-1 3v1l-3 4h1v4h1l-1 2h1v2l-4 4v-1h-2l-2 -2v1h-1v-2l-2 -2h1v-1h-2l-1 -5l-1 -15l-20 1h-2l-2 -1v1l-2 -1l-2 1v-1h-2l-2 1v-1l-22 -2v-1l-2 1v-1h-4l-14 -6h-4v4l4 31v8v1l-2 3h-4l-3 -3l-1 -10h-1l1 -2h-1l-3 -34l-2 -2l1 -5v-2h2l5 -1v-2l2 -1l2 -1l6 -5l6 -3l6 -4v-2l11 -8l9 -4h2v-1l3 3l-3 2l-8 5l-16 12v2l-2 1l-6 3l-2 1l-5 6l1 1h2l3 1l4 2l5 2h4h108l27 -4v-3h-1l-1 -1h1l-1 -2v-4l3 -3l9 -7l19 -18l2 -1l7 -7l3 -3l2 -1l2 1v-1l2 -2h2v-2l-15 -4l-5 -2v-2l-1 -3l2 1h1l2 2h3h5l14 2l4 2l4 1l1 5l-1 2l-2 4l-2 2l-3 2v2h-1v-1l-1 1l1 1v2l-1 5h-2v2l3 17v2l1 1l2 2v2l1 2h-1v2l-1 2h-6l-2 -2h-1l-3 -5v-1l1 -2h-1l-1 -20l-1 -1l-2 3h-2v2l-4 3h-1v2h-2l-4 7l-2 2v4h-5l-2 -2v-2v-1l-2 1v2l-6 5h-4l1 9l-1 3h-3v2h-3l-1 1l1 12l2 2l-1 2l1 4l1 8h-1l1 2l-2 2l-1 2zM128 14606v-1h-1v1h1zM130 14608h1v-2h-1h-1l1 2zM118 14610v-1h-1v1h1zM128 14625v-1h-1v1h1zM81 14659v-1h-1v1h1zM-19 14619h1l1 -1h-1h-1l1 -2h1l1 1l1 5h-1v-1l-3 -1v-1zM52 14644l-2 1l-2 2l-2 1h-2l-8 2l-12 1l-2 1v-1l-4 1l-5 -1l-12 -4l-4 -1l-13 -8l-5 -6l-2 -2l-3 -4l-4 -7l-3 -5l-2 -2l-1 -3l-2 -8l-1 -3h-1l1 -2h-1v-2l-1 -3h3l1 -7l3 -3l5 -1l15 -1v-1l6 -6v1l14 2l18 -1l33 4l3 1l4 1h2l2 -1l2 -1v1h2l1 1l5 19v9l-2 8l-2 5l-2 4v1l-2 2l-7 6l-2 5l-7 5h-2zM-13 14584v-1h-1v1h1zM-15 14585v-1h-1v1h1zM-24 14587h2v-1h-1l1 -1l2 1h1l-1 -2h2v1l1 -1v-1h1l1 -1h-13l-2 2l-4 4l1 4l2 2v2h1v-4l2 -2v-2h2l1 -1v1l1 1v-1v-1zM-28 14592v-1h-1v1h1zM-12 14596v-1h-1v1h1zM-13 14597v-1h-1v1h1zM-26 14598v-1h-1v1h1zM-34 14599v-1h-1v1h1zM-24 14599v-1h-1v1h1zM52 14636l6 -8l1 -2l1 -2h2l3 -4l3 -6l1 -6v-8l-1 -6l-6 6l-2 1l-4 2l-2 1l-20 5l-2 1v-1l-2 1l-24 -1v1v1l-2 -2h-6v1h1l-1 4h-2l-1 -4h1v-1l-13 -2l-3 -1l-9 -4h-1l-4 -3v1v1l2 3l3 6l5 7v2l1 2h3v1h-2v1h2l6 7v1l2 1l12 7l2 1l11 3h22l3 -1l8 -2l6 -4zM-10 14603v-2l-1 -2h-3l-2 3v1h6zM-21 14601v-1h-1v1h1zM-18 14602v-1h-1v1h1zM-11 14583v-1h-1v1h1zM4 14584v-1h-1v1h1zM32 14584v-1h-1v1h1zM30 14585v-1h-1v1h1zM35 14585v-1h-1v1h1zM33 14586v-1h-1v1h1zM38 14586v-1h-1v1h1zM10 14590v-4h-2l1 2v2h1zM30 14587v-1h-1v1h1zM43 14587v-1h-1v1h1zM52 14600l6 -3l3 -3v-2l-5 -5h-1l-4 -1v4l-1 1h-3v2h1l1 1h-1v2l-4 2l-2 1v-1l-2 2h-1v-2h-1v2h-3h-4h-3l-1 1h3v1h-2l-2 1v-1v-1h-4v1v1l-2 -1h-2v-1l-1 1v1h-3l-1 1l1 1l22 -1l2 -1v1l2 -1l3 -1h4l5 -2zM28 14588v-1h-1v1h1zM48 14588l1 -1h-1l-1 1h1zM24 14588h2v-1h-2l2 -2l2 -1l1 -1l-23 -1h-1l1 2l2 -1v1h2l2 2v4l2 1l2 -2v1l2 1l3 1v-2l1 -2h1l1 1v-1zM12 14591v-1h-1v1h1zM23 14591v-1h-1v1h1zM37 14591v-1h-1v1h1zM43 14591v-1h-1v1h1zM35 14592v-1h-1v1h1zM14 14593v-1h-1v1h1zM19 14593v-1h-1v1h1zM32 14593l1 -1h-1l-1 1h1zM20 14594l1 -1h-1l-1 1h1zM24 14594v-1h-1v1h1zM35 14594v-1h-1v1h1zM45 14594v-1h-1v1h1zM-10 14595v-1h-1v1h1zM26 14595v-1h-1v1h1zM30 14595v-1h-1v1h1zM32 14595v-1h-1v1h1zM46 14595v-1h-1v1h1zM2 14597l1 -1l-1 -1l-2 1l-1 1h3zM11 14596v-1h-1v1h1zM22 14596v-1h-1v1h1zM28 14596v-1h-1v1h1zM29 14598h3l1 -2l-1 -1v1l-6 1l-1 1l1 1l3 -1zM37 14596v-1h-1v1h1zM42 14596v-1h-1v1h1zM5 14597v-1h-1v1h1zM26 14597v-1h-1v1h1zM36 14597v-1h-1v1h1zM44 14597v-1h-1v1h1zM3 14599v-1h-1v1h1zM22 14599l1 -1h-1l-1 1h1zM35 14599v-1h-1v1h1zM6 14600v-1h-1v1h1zM13 14600v-1h-1v1h1zM24 14600v-1h-1v1h1zM12 14601v-1h-1v1h1zM9 14602v-1h-1v1h1zM15 14602v-1h-1v1h1zM5 14604v-2h-1v1l1 1zM14 14603v-1h-2v1h2zM-9 14604v-1h-1v1h1zM2 14604v-1h-2v1h2zM-2 14605v-1h-2l-1 1h3zM3 14605v-1h-1v1h1zM11 14605v-1h-1v1h1zM-2 14612v-1h-1v1h1zM-381 14612l1 -2h2v1l-1 1h-2zM-441 14636v-4l1 -1h1v1h1l-2 1v3h-1zM-423 14626l1 -2h2v-1l2 2h-2l-1 1h-2z"/><path class="chunk" data-i="3" d="M-406 14617l-10 5l-2 1v-1l2 -1l8 -5h2v1zM-413 14624v-2l3 -1l6 -3l5 -2l5 -2l3 -1l-2 1l-18 10h-2zM-421 14619v-1l3 -2l4 -2l2 -2h1l-3 4l-4 1l-2 2h-1zM-421 14610l1 -2h2v1h1l-1 1l-2 1l-1 -1zM-411 14612l3 -3l4 -3h1l-3 4h-2l-2 2h-1zM-418 14608v-1h2l2 -2h1v1h1v1l-2 1l-3 1v-1h-1zM-413 14605l1 -1v-2l2 1v-1h2v1h1l-1 1h-2l-2 2v-1h-1zM-399 14602l1 -2v-1h2v-1h2l-2 2h-1v2h-2zM-396 14598h-2v-1l1 -1h-1v-1h2v3z"/><path class="chunk" data-i="4" d="M-400 14599v-1h-1v-3l3 1v1l-1 1h1v1h-2zM-332 14560h-2l-2 2l-15 4h-5v1l-2 -1v1l-20 -3l-3 -1l-4 -1l-1 -4l2 1h1l3 2h2h18l6 -1l11 -3l4 -1l1 -1l4 -3h4l1 2l1 2h-1v2l-1 1l-2 1zM-326 14520h-2l-2 -1l-3 1v2l-13 1v-1l2 -1v1l2 -1v1h2l-1 -2h1l2 1v-1v-2h2v1l2 -1h1l4 -2l4 -1v3l-1 2zM-368 14528l-18 1l-1 -1h1v-1l-4 -1h-2l-3 -4l-1 -4l-2 -2h4l1 4l3 4l8 1l14 1l2 -2l4 -1l1 1v2l-5 2h-2zM-392 14523v-1h-1v1h1zM64 14562l-2 -2v-3l-2 -3v-2l-4 -4l-3 -2l-1 -2v-2v-3l7 -11l1 -2l2 -2l1 -6v-13l-2 -9l2 -2h-1v-1h2v3h-1l1 2l-1 2h1h1l1 5v15l-1 3l-1 4l-6 8l-3 7l3 3h2l3 3l3 7v4v1l-2 2zM-374 14510h-6v-2l2 -2h1v-2l3 -2l10 -1l1 1h-1l1 2l-1 1l-4 2l-2 2l-4 1zM-332 14498l-3 3l-1 -1l-2 1l-4 1l-2 -2l2 -3h2l3 -1l3 -1l2 1v2zM-456 14479l-1 -1l-1 -2l-1 -3v-1l1 -2h1l1 4v2l1 2l-1 1z"/><path class="chunk" data-i="5" d="M-458 14464l-2 -2h1v-2l-1 -2h2v6zM-171 14406l-1 -2l-2 1l-1 -1l1 -1h4v1h-1v2zM-415 14448l-3 1l-1 -1l1 -2l5 -10v-1l1 1l-1 2l-3 7l-1 2l3 -1h2l-2 2h-1zM-449 14421v-1h1v-1l1 1l-1 2v-1h-1zM-403 14437v-1h-1v1h1zM-383 14429v-1l-1 -1v1l1 1zM-386 14432v-2l-1 -1v3h1zM-390 14431v-1h-1v1h1zM-390 14435l2 -1v-2l-2 2v1zM-390 14436v-1h-1v1h1zM-391 14437v-1h-1v1h1zM-392 14440v-1h-1v1h1zM-410 14443h2l4 -5v-1h-2l-1 -1v-4h1h1l-1 -2h2l-1 -2l1 -1v1l2 -2l2 -4l4 -6l2 -1l1 1l-2 2l-9 14v2h2l5 -2l1 -2v1l1 -1h1l4 -3l1 -1l15 -9l2 -1l2 -2h3v4h-1l-2 2l-2 -1v1v1h-2l-2 1l-1 2l-1 -1v1l-2 2h1l-1 1l-2 -1v2l-4 4v2l-2 1h-1v2l-1 4l-1 1h1v2h-2l-2 -2v-2h-1l1 -2l1 -4h1v-1h-2v-1h-1v1h-1l-1 1h1h1l-1 1h-2l-2 2l-10 8l-2 1l1 -2h1v-1zM-141 14340l2 2h-1l-2 2h-1l1 -3l1 -1zM-166 14336h-11l1 -1h10v1z"/><path class="chunk" data-i="6" d="M-138 14341l-1 -1l1 -4l-2 -1l-8 -1v-1l-2 1l-2 -1l-2 1v-1h-2v-1l12 1l6 1l1 2v4l-1 1zM-156 14334l-10 -1v1l-2 -1v1l-2 -2h12l2 2zM-170 14334h-6l-1 -2h1l6 1v1zM-454 14353v-1h-1v1h1zM-453 14355v-1h-1v1h1zM-452 14356v-1h-1v1h1zM-451 14358v-1h-1v1h1zM-452 14360v-1h-1v1h1zM-460 14418h2l2 -2l7 -4h1l4 -4l-1 -2l-1 -4l-1 -2l-1 -1h-2l-2 -2l-2 -1l-8 -3l-4 -1l-6 -1l-2 2l-5 2l-1 2l-2 4v2v6l1 5l3 3l2 1h2l4 1l8 1l2 -2zM-476 14447v-1h-1v1h1zM-478 14466l2 1v1h-1l3 9v3l2 1l1 1h-1v1l7 3l2 1v3h-4l-3 -2h-2l-5 -6l-1 -1v-2l-1 -3l-1 -5v-6v-1l-1 -2h1v-5l2 -4v-3l-1 -1v1l-3 4l-1 4l-1 3l-1 7h1l-1 2l1 20v6l2 4v4l2 2l7 1l12 1l2 -6l3 -6v-2l2 -2v-2l2 -2v-1l4 -6l4 -7l6 -6l4 -1l4 -3h1l8 -4l1 -1l2 -2l4 -1h2l2 -1l2 -2l4 -1h3l3 -1l2 -2l3 -1h3l6 -1l2 -1v1l8 -1l14 -1v1l2 -1l12 3h2l8 4l2 1l6 7v2l6 3v1l2 -2v-2l4 -12v-6l-4 -12l-5 -8l-5 -7l-2 -3l-4 -4h-2l-2 -2l-10 -3l-7 -2l-8 -2l-5 -1l-3 -1l-19 -3v-1l-2 1h-4l-2 1v-1l-2 2l-2 -1h-1l-5 2l-2 1l-2 1v-1h-1v2l-5 1l-6 2l-2 2h-2l-5 3l-9 5l-2 1l1 2h-1l-2 -1v1v1l-1 1h-1l-2 -1v1v2h1l1 2l-3 2h-2l-5 1l-4 3h-1l-4 6l-4 4l-1 3v2l-2 8l-2 9l1 2h-1v1l-1 1h1zM-477 14473v-1h-1v1h1zM-473 14483v-1h-1v1h1zM-467 14487v-1h-1v1h1zM-465 14488v-1h-1v1h1zM-332 14581l5 -3l9 -6l2 -1v-5h-2v-2l-2 -2h1v-3h1l2 -1v1h2l2 1v2l2 -2h-1l1 -2l2 -24h-1l1 -2l-2 -5l-2 -17l-6 -18l-1 -3l-1 -5l-2 -2l-1 -2l-7 -10l-2 -3l-1 -3l1 -2l-4 -1l-2 -2l-3 -1l-4 -2h-1l-2 -2l-13 -2l-13 1l-8 1l-2 -1v1l-10 1l-2 2l-9 3h-2l-4 2l-5 3l-2 1l-8 5l-4 3l-2 1l-5 5l-5 6l-8 17l-1 5h1l2 2v1v2v2h-2l-1 1l1 2v1v2v1l-1 2h1l-1 2h1l-1 2h1l1 6l3 10l-1 5v3l2 2l-1 2l6 7l4 3l6 4l3 2v2l1 1l4 1l2 2l2 1l17 7l7 2h2l2 1v-1l2 1l4 1h4h20l10 -2l3 -2h1l2 -2h4l6 -3h2zM-437 14592v-1h-1v1h1zM-432 14594v-1h-1v1h1zM-439 14598v-1h-1v1h1zM-433 14608v-1h-1v1h1zM-444 14609v-1h-1v1h1zM-442 14610h1l-1 -2h-1v2h1zM-440 14609v-1h-1v1h1zM-448 14622l-1 -4l1 -1h2v-1h-1l1 -2l1 -3v-1l-1 -1v1h-2l-4 2l-2 1l-2 1v4l2 2l3 1l3 1zM-443 14611v-1h-1v1h1zM-442 14612l1 -1h-1l-1 1h1zM-443 14616v-2h-1v1l1 1zM-445 14622v-1h-1v1h1zM-437 14631v-1h-1v1h1zM-401 14632v-1h-1v1h1zM-434 14633l2 1l1 -2l-1 -1l-2 1l-2 -2v2h-2v-1h-1l-1 -2h-4v5l2 -1v1v2h1l3 1l2 -2l2 -2zM-396 14676v-3l4 -1v-2l3 -2l29 -22l3 -4l3 -4h-7l-24 7l-22 7h-6l-9 1l-3 -3l1 -2l2 -5h2l6 -7l-2 -1l-7 -1h-5h-2l-2 2h-3v2h-3l-2 2l-4 1l2 3l1 2l-1 2l-4 -4v-1l-2 1v10l4 5h2l4 4l2 1l6 2l6 5l5 3l15 6l2 -1l3 -1v-2l1 -1l2 1zM-374 14605v-1h-1v1h1zM-372 14605v-1h-1v1h1zM-370 14605v-1h-1v1h1zM-375 14606v-1h-1v1h1zM-373 14606v-1h-1v1h1zM-373 14608v-1h-1v1h1zM-378 14615v-1h-1v1h1zM-384 14619v-1h-1v1h1zM-355 14635v-1h-1v1h1zM-353 14635v-1h-1v1h1zM-282 14617l4 -5l-2 -2l-4 -1v-1h-1l1 8l2 1zM-287 14630v-1h-1v1h1zM-445 14636v-1h-1v1h1zM-443 14636v-1h-1v1h1zM-442 14638v-1h-1v1h1zM-443 14639v-1h-1v1h1zM-414 14639v-1h-1v1h1zM-416 14643v-1h-1v1h1zM-444 14644v-1h-1v1h1zM-418 14645v-1h-1v1h1zM-442 14646v-1h-1v1h1zM-419 14646v-1h-1v1h1zM-400 14647v-1h-1v1h1zM-398 14647v-1h-1v1h1zM-402 14648v-1h-1v1h1zM-406 14649v-1h-2v1h2zM-410 14650v-1h-2v1h2zM-349 14637v-1h-1v1h1zM-350 14639v-1h-1v1h1zM-382 14642v-1h-2v1h2zM-390 14645v-1h-2l-1 1h3zM-394 14646l1 -1h-3v1h2zM-360 14649v-1h-1v1h1zM-383 14667v-1h-1v1h1zM-388 14671h-2v1h1l-1 1h-2v1h1l-3 3h-2v1h1l-1 2h-2v1l10 2v-1h-1l1 -2h3v4h7v1l2 -2l12 -1v1l1 -1v-1h3v-1l2 1h1v1l-1 2l-9 2h-5h-1l1 2h2v-1l2 1h2l2 -1v1h4v1l2 -1v1h4v-1l2 1v-1l2 1l14 -1l1 -2h-1l1 -2l1 -1v1l1 1v-1l1 -1v1l-1 4l1 1v-1l12 -1v-1l2 1v-1h4l4 -2l8 -3l4 -2l2 -1v-2l4 -10l2 -8l2 -11l1 -15l-1 -2l-2 2l-2 2h-1v2h-2v2h-2v2h-3l-3 1v-5l3 -4l6 -4l6 -6l-1 -2h1l-1 -2l-1 -3v-3l-1 -4l-1 -1l-12 1v1l-1 -1v-1h3v-1h-1l1 -1l8 -1h1l-1 -2v-2l-2 -3l-4 -9l-7 -10l-1 -2l-2 -2h-1v2h-1l-2 2l-2 3h-2v2l-5 2l-3 1l-2 2l-6 2h-2l-4 1l-2 2l-16 5h-14v1l-2 -1v1h-2l-2 -1v1h-2l-3 -1l-4 -2h-5v-1l-1 1h-1v-1h-2v-1l-20 -8l-10 -4l-2 -1l-4 -4v-1h-1v1h-1l-12 -15h-2l-1 -4l-5 -1l-5 -22l-1 -9h-1l1 -2v-8l-2 -2h-12l-2 -1v1l-2 -1l-2 -1l-3 -1h-1l-3 -3l-4 -18l-1 -2h1v-6l-1 -2h1l-1 -2h1l-1 -2h1l1 -15l1 -3l3 -8l8 -11l5 -7l1 -3h2l1 -1l-1 -1l-2 -1l-6 -2h-2l-7 -6l-1 -2v-2l-1 -3v-10l3 -9l4 -4h2l4 -2l2 -1h8l3 1l5 2l8 4l2 1v-1l-1 -12l-1 -2h1l-1 -2l-1 -6l-3 -14l-2 -3v-1l2 -2l2 2v2l3 4l1 1l2 5l1 7l5 29h2v-4l8 -17l6 -13l1 -6l3 -12l2 -5v-3l2 -3h4l1 1l-1 7v3l-2 3l-3 6l-7 16l-12 29l-1 2h-1v1h2l2 -2h2l2 -3h2l6 -3l2 -2l9 -2l5 -1v-1l2 1v-1h17l18 4l7 3l15 3l2 1l8 3l3 1l6 6l1 2l5 6l5 11l3 8l1 3v10l-3 10l-2 7v4l7 13l1 4h1l-1 2v1v2l6 19l1 12h2v-2l1 -1l4 1v3v9v5l-4 14l-5 11v2l-2 2l3 2l2 3l6 10l2 2v1l2 2l1 3l2 6l1 3l2 2l5 2l3 1h2l1 1l1 2v2l-1 2l-2 2v2l-5 4l1 22h-1l1 2h-1l-1 10l-1 2h1l-1 2l-1 6l-1 2h1l-2 2l-1 6l-2 2l-1 4l-3 3l-2 1l-10 4l-12 2l-14 2l-3 2l-1 4l-3 19l-1 9l2 1h1l15 4l4 3l-1 6l-3 3l-3 -1l-1 -4l-2 -1l-16 -4l-1 -4l-1 -7l6 -28h1l-1 -1l-43 -2v5h1l-1 2h1l1 13v2l11 1l2 2h4l1 2l-1 1h-2v1l-2 3h-2v1l-2 -1h-2v1l-2 -1l-2 1v-1l-6 -1l-2 -2l-3 -2l-1 -4l3 -4v-21l-4 -1l-7 -2h-2l-2 -1v1l-2 -1l-2 -1l-13 -4l-3 -1l-2 -2l-1 -1l-9 -6l-6 -4l-2 -1l-8 -9l-2 -2v-12l4 -14l1 -3h-3l-2 -2l-3 -1h-1l-4 -4l-1 -3l-1 -5l2 -3h2l5 -2l3 -1l2 -2l5 -1l3 -8v-3l2 -2l1 -8l1 -1l1 1v1v3v2h-1v-1l-1 1v1l1 3l-1 3h-1l-1 1h1v3h-2v1h1v2h-1h-1l1 1h3l1 -5l1 -3l3 -5l2 -3l1 1v1l-1 1h1l-2 2v2l-2 2v2h-1l1 2h-1v2l-1 4h3v2l-2 1h-2l-2 1v2l-3 6v2h-1v1l2 -1l6 -2l6 -4l2 -1l2 -2l3 -1v3l-2 1l-6 2l-2 1v2l-2 1h-2l-1 1l-2 2h-2l-1 1h1l10 2h5h2v2h2v-2h3v-1h2v-1h3l-1 2h-2l-3 2l1 1l4 1l8 1l2 -2v1l4 -1v-2h2v-1h1v-1h1v-1h2v-1l2 -1l3 -3h1v-1h2l2 -2v-1h2v-1h1v-1h1l1 -1h1v-1h2l2 -3h-2l-1 1l-1 -1v1h-3l2 -1l3 -1v-1h-4l-4 2l-5 1l-3 1l-2 2l-2 1v-1h-2l2 -2l2 -1l4 -1l13 -6h4l7 -1l1 1v2l-5 5l-8 6l-2 1l-2 2v-1l-1 1l-1 2h-2l-2 2v-1l-1 1l-1 3h-2v-1h-1v1l-1 1h1l-1 2h-2l-1 1l-1 -1v1l-1 1h1l-11 8l-3 2v2h-2v2h-2l-3 4h1l13 -2l11 -2l4 -1l2 1l1 -1h1l1 -1h-1h-1l3 -2h3l3 1v-1h4l11 -4h5v-1h-4l-1 -1l13 -1l2 3l-1 4l-2 1l-1 -1v1h-2l-3 3v2h1l-2 2v-2h-1v4h-1l-2 -1l-1 1v1h-1v1h-2l-2 2l-4 2v2h-2l-1 2h-1v1l-2 1l-3 2v1h-1l-1 1h1h1l-1 2h-2l-1 1l-1 -1v1h-2v1v1zM-393 14676v-1h-1v1h1zM-375 14685v-1h-1v1h1zM-190 14301v-1h-1l1 -2l12 -7l2 -1l-1 3l-1 -1v1l-1 1h1v1h-2l-2 2v-1h-1l-1 2v-1l-1 1h-1v1h1l-1 2l-3 1l-1 -1zM-172 14289h-1v1l-1 1v-1h-2l2 -3l2 -1l8 -5v2h-2v1h2l-2 2l-2 2l-2 -1v1l-1 1l-1 -1v1z"/><path class="chunk" data-i="7" d="M-192 14264v-1h-1v1h1zM-190 14265v-1h-2v1h2zM-188 14265v-1h-1v1h1zM-186 14266v-1h-1v1h1zM-184 14266v-1h-1v1h1zM-181 14267v-1h-1v1h1zM-173 14268v-1h-1v1h1zM-172 14269l1 -1h-1l-1 1h1zM-163 14280v-1l1 -5l-2 -1l-1 -1h-2l-25 -7l-3 -1h1v-2l-3 -1l4 1l11 2l4 1v1h-2v1l3 -1h4l11 4l1 2h-1v1h1l1 1v-1l2 1v2l-2 -1v1v1l-1 2h1v1v1h-1v-1h-1h-1zM421 14700h-5l-1 -2l1 -1l2 2h2v-1h1v2zM424 14691h-8v-1h2h2h2v-1l2 1v1zM432 14688h-9l1 -1h9l-1 1zM405 14690l-1 -1l-1 -1l1 -1h3l-1 1h-1v2z"/><path class="chunk" data-i="8" d="M381 14679l-1 1h-2l1 -2h-1l-2 -1h-1l1 -1h2v1l2 -1l1 2h-1v1h1zM386 14665l-5 -1v-2h1v1l2 -1h2v2v1zM375 14662l-3 1l-1 -1l1 -1l2 1v-1h3l-1 1h-1zM368 14662v-1l-2 1v-2h5l-1 1l-2 1zM253 14650l-1 1h-3v-1l1 -1v1l2 -1v1h1zM252 14649v-1l4 1h2v1h-5l-1 -1zM266 14593v-1h3v3l-3 -1h2v-1h-2zM274 14594l-2 -1l-2 1v-2h-1l1 -1l2 1h1l-2 -2v-2h1l2 2v-1h2l1 1l-1 2h1l-1 1l-2 -1v2zM275 14591v-1h-1v1h1zM254 14594h-1l-3 -1l-3 -3v-2h1l2 2v2h4l1 2h-1z"/><path class="chunk" data-i="9" d="M282 14589h-4h-2v-1l2 -2v1l6 -1l-1 2h1v1h-2zM280 14589v-1h-1v1h1zM275 14574v-1h-1v1h1zM279 14575l-1 1l-4 -1l-1 1h1v1h-2v-3h-1l1 -1l2 -1l4 1l-1 1l1 1h1zM290 14570v-2h-1v1l1 1zM294 14570h1l-1 -2h-1v2h1zM285 14570v-1h-1v1h1zM287 14571v-1h-1v1h1zM278 14573v-2h-2v-1h2l2 -2l2 1h2v-1h-1l1 -1h2l2 1v-2v-1l2 2l6 -1l3 2v2l-5 2h-3v-2h-1l-1 2h1v1l-4 -1h-1l1 2h-2l-2 -1v1v1h2v1l1 2l-1 1h-4l-1 -1l1 -1h1v-2h-2v-1l-1 -1zM261 14560h4l-1 1l-6 1v-1l3 -1zM308 14538l-7 1h-13l-6 -1l-13 -3v-3l3 -2l6 1l9 1h13l5 -1l2 -1h2l2 -1v-2h1l2 -2h2l3 3v4l-1 1l-4 1l-2 2l-2 1l-2 1zM286 14482h-2l-2 -1v1h-4v-2h-1l1 -2v-2l2 -1l6 1l1 2l-1 4zM264 14480h-4l-1 -2v-6h2v-2h1l3 4l-1 4v2zM246 14657l-2 -1h-1l1 -1h7l-1 1h-4v1zM243 14651v-1h4v2h-1v-1l-2 1v-1h-1z"/><path class="chunk" data-i="10" d="M262 14648l-4 1l-1 -1v-2h1v1h2v1l2 -1h2v-1l2 1v-1l4 -1h1l-1 -1h-2v1l-2 -1l-16 1l-2 -1v2h-4v-2h-2v1l-2 -1v-2l2 1v-1l2 1l2 -1l2 1v-1h2v1l2 -1v1l2 -1v1l4 -1h2l12 -1v1l2 -1l2 1v-1l2 1v-1h4l2 1v2h1l-1 2h-3h-9l-10 2zM260 14644v-1h-1v1h1zM247 14645v-1h-1v1h1zM229 14637v-1h2l1 1l1 1h-1h-2v-1h-1zM248 14636l-2 -1v1l-2 -1v1h-5v-2l5 -1l2 1v-2h2l2 2v1h-2v1zM244 14624l-1 -1v-1h-1v2l-7 -1l1 1h1l-1 1l-8 -1v-1l16 -2v-1h1v2l-1 2zM241 14623v-1h-1v1h1zM232 14619v-1h-1v1h1zM227 14620h1h1v-1l1 -1v-1l2 1h2l-1 -2h1l2 1v-1v-1l4 -1l-1 2v2h-1l-2 1v-1l-2 2h-3l-5 2l-3 1v-3h2l1 1l1 -1zM225 14622v-1h-1v1h1zM246 14616h-2l-2 -2v-1h2l2 -1l2 2h1l-1 1l-2 1zM250 14595l-6 -1l-3 -2v-2h1v1l2 -2h2v3l2 2h2v1zM246 14593v-1l-2 -1v1v1h2zM244 14573l6 -9l1 -2h-1v-1h2l2 -3v-1l-2 1v-2l-2 1l-20 3l-28 1v3l2 1l3 3l7 7l14 13l2 1l4 3l1 -4h1l-1 -2l-1 -2l4 -1l3 -3l1 -2l2 -5zM208 14631l10 -15l1 -2l-4 -1h-2l-27 -8h-2l-1 1h1v2l3 4l9 10l8 5l2 3v1h2zM230 14608l1 -1h-1l-1 1h1zM222 14611v-1h-1v1h1zM226 14614v-1h-1v1h1zM220 14624v-1h-1v1h1zM226 14626l1 -1h-3l-1 1h3zM204 14638v-1h-1v1h1zM202 14639v-1h-1v1h1zM216 14640v-1h-1v1h1zM210 14642l1 -1h-1l-1 1h1zM208 14643v-1h-1v1h1zM214 14645v-1l-2 -1h-3v1l1 1v-1l4 1zM208 14645v-1h-1v1h1zM223 14646v-1h-1v1h1zM228 14646v-1h-4v1h4zM233 14646v-1h-1v1h1zM210 14647v-1h-2v1h2zM212 14658v-1l4 -1h8h2l-8 -8h-4l-2 1v-1l1 -2h-1h-1v2l-1 1v-1h-2l-2 1l-3 -1v2l7 7l2 1zM216 14647v-1h-1v1h1zM236 14656v-1h-2l-1 1h3zM219 14659v-1h-1v1h1zM237 14670l-1 -2l-3 -4l-2 -4l-1 -1h-8l-1 1h3l1 1h-7v1l2 1l2 1l13 6h2zM242 14663v-1h-1v1h1zM240 14664v-1h-1v1h1zM243 14664v-1h-1v1h1zM244 14671l1 -1v-2h2l3 -1l1 -1l-1 -1l-2 1h-2v-1l-2 1h-2h-1l1 2l2 3zM238 14671v-1h-1v1h1zM183 14706v-1h-1v1h1zM298 14412l2 -1l6 -1v-1l-7 1l-5 1l-1 1h3l2 -1v1zM289 14426v-1h-1v1h1zM291 14428h-1l-2 1v-1l-2 -2l-13 4l-3 1l-2 2l-4 1l-12 12v2l-6 11l-4 9l-2 8l-1 6l1 30l2 2v1l19 24l7 5l4 2l12 6l7 3l4 1l7 1v1l2 -1l10 -1h7l8 -2l8 -4l13 -8h2l8 -8l2 -5l1 -2l1 -3l2 -10l-2 -2l-1 -33l-1 -8l-1 -5l-6 -6l-1 -1l-12 -16l-1 -3l-7 -6l-10 -6l-6 -3h-2l-6 2h-3l-6 -2h-2h-3l-4 1v1l-1 1zM320 14414v-1h-4v1h4zM314 14415l1 -1h-1l-1 1h1zM321 14415v-1h-1v1h1zM324 14420v-1h-1v1h1zM333 14422v-1h-1v1h1zM356 14449v-1h-1v1h1zM357 14450v-1h-1v1h1zM266 14550v-2l-2 -1l-1 1v2h3zM256 14563v-1h-1v1h1zM269 14576v-1h-1v1h1zM272 14605l1 -1h-3l-1 1h3zM267 14606v-1h-1v1h1zM266 14607v-1h-1v1h1zM269 14607v-1h-1v1h1zM274 14607v-1h-1v1h1zM263 14608v-1h-1v1h1zM265 14608v-1h-1v1h1zM272 14608v-1h-2v1h2zM268 14609l1 -1h-1l-1 1h1zM264 14610v-1h-2v1h2zM251 14612v-1h-1v1h1zM252 14613v-1h-1v1h1zM258 14620l1 -1h-3v1h2zM254 14622v-1h-1v1h1zM340 14575v-1h-1v1h1zM348 14597l4 -5h2l8 -8v-1l-15 -3l-3 -1l-1 1h1l2 16l2 1zM270 14656v-1h-1v1h1zM268 14658v-1h-4v1h4zM246 14660v-1h-2v1h2zM254 14666v-1h-2l-1 1h3zM256 14667v-1h-1v1h1zM266 14671v-1h-2v1h2zM294 14671v1h-2l1 2v1h3v-1l2 1h1l32 -13l3 -1l5 -3l1 -1h1l-1 -1l-4 1l-8 2v-1l2 -2h3l9 -3v-3h-4l-1 -2v-2l5 1v-1l-2 -3h-2v-1l2 -2h1l1 -15l1 -7l1 -6h-1l1 -2v-2v-1l-2 2l-2 1l-24 16l-4 3l-4 2l-2 3l-6 -1l-1 -1l1 -4h2l4 -2l6 -5l26 -17l2 -1l3 -3l-1 -2l-1 -8h-1l1 -2h-1v-10l-4 -1v-1l3 -2l1 -16l2 -2h5l-1 1h-2l-2 1v17l19 3l6 -1v1l2 2v6l-11 11l-6 4l-4 3l-3 34h1v-1l13 -4h13v-1l2 1h1l1 2v2l-1 3l-4 4h1v5l-7 2v2l5 1l36 8l8 4l78 27l17 7l16 6l7 3l6 2v3h-2l-2 -2h-3l-12 -5l-96 -37l-61 -16l-3 1l-8 3l-3 1l2 12l2 11l3 6l1 2h-1v2h-5l-6 2l-2 1v-1l-2 1h-1l-21 -1l-2 1v-1l-3 1l-2 -1h-1l-2 1v-1h-3l-21 -6l-4 -1l-2 -1v1l-9 1l-4 2h-3l-2 2l1 2l5 7l1 1l-3 3l-2 1l-11 4l-10 4l-5 3l-1 1v2l-1 1h-4l-2 -3h1v-2l1 -1l2 -1l19 -9l5 -3h2l2 -1v-1h-1l-3 -5v-1l-2 -2v1l-5 1l-30 6l-27 8h-6l-2 -2h-1l1 5l1 6l1 3v2l1 2l1 1h2l2 1v2l-2 1h-4l-4 -3l-2 -10l-3 -18l1 -2h4l2 2v2l4 3l11 -1l53 -13l-2 -3l-2 -4l-1 -2l-3 -3h-2l-12 -5l-16 -7l-2 -2h-2l-2 -2l-6 -4l-3 -3l-2 -6l1 -3l2 -3l-2 2h-4l-1 -2v-2l1 -1l2 -1h2l6 -2v-2l-8 -6l-17 -16l-1 -4l-1 -9h2l3 -1l2 2h4l4 2l5 2l16 4l5 2h2l2 -2h2l1 -2l4 -6l1 -3l-6 -3v-2l-4 -2l-12 -10l-6 -6v-2h-2l-3 -4l-2 -4l-1 -3l-1 -5l3 -2h26v-1l2 1l2 -1l2 1v-1h2l2 1v-1l8 -1l8 -2h4l2 1l2 2h2l1 -1l3 -5l-4 -6l-5 -6h-1l-2 -1l-12 -16l-2 -5l-1 -3h-1l1 -2h-1l-1 -12l-1 -2h1v-3l-1 -7l2 -11l2 -7l6 -12l5 -10l11 -12l-2 -1h-1v-5l3 -1l2 -2l3 -1v-2h1l2 -2l2 1l2 -2h1v-2h3l6 -1l2 -2h1l11 -6l4 -1h10l7 1l9 1l4 5h2l6 4l1 2l3 4h2v2h2l2 3h6l3 3l-1 2l11 14l4 8l1 8l-2 2h2v2l4 7l2 11v4h-1l1 2l-1 18l-3 4l1 6l-3 2h-1l-1 5l-1 5l-2 2l-3 6l-8 7l-14 9l-9 3l-8 3l-12 1h-14l-6 -1l-4 -1l-5 -1v-2l-5 -2l-7 -4h-2v-1l-1 1v1h-3v1h-1v-2h-1v2l-3 4l1 3h-3v1l-1 2h2l-2 2v2l-2 -1l-1 1v2h1v1h-2l-1 1l-1 4l-2 2v2h-1l1 1h1l8 -3h2l1 1l1 -1h-1v-1h2l2 1l2 -2v2h1v-2l1 -1v1h2h1l-2 2l1 1h1l-1 1h-2h-6h-2v1l-2 -1l-2 2v-1l-2 1h-2v1l-2 -1l-2 2h-2l-3 2l1 1l4 -1v-1l2 1h1l-1 -2h2h5h4l5 -1v1h-4l-3 2h-1l-2 1v-1l-14 2l-1 2l-1 2l-1 2h1h1l-1 2h2v1h-2v1h2l4 2l2 1l4 -1l-2 1v1h3l-1 2l6 6h1v-3l1 1v3l1 -1l1 -2h3l-1 -1h-1l1 -1l12 -1v1h1v-2h1l2 2l-2 3l-3 1l-6 2h-3v-1l-1 1v1h-1h-1l1 1h1l10 4l5 3v2l1 3l-3 3h-4l-2 -3h-2l-5 -3l-3 -1h-1l1 1h1l-1 1h-2h-3h-3l-3 1v-3h-1h-1l1 -1l2 1h3v-2h4l-1 -1l-4 -2l-4 -1l-2 -2l1 -2l-2 -2v-1l-7 -2v-1v-1l-2 1h-1l1 -2l-4 -1l-3 3v3h3v1h-2l-3 2h-1l-2 2l2 1l-1 1h-1v4h-2l-2 -1l-1 1l-1 4l2 -1v1l2 2h4v3h-8l-2 -1v-2h-1l-3 6l-2 2v2h-1l1 1h1v3h2l3 -1v1l2 -1h2v-1l2 1l2 -2v1l3 1v1h1v1h-2l-2 -1v2h-1v-2h-1v1l-2 -1l-2 2l-2 -1v1v2l4 3v-1h6l2 -1v1l2 -1v1l5 -1h2v1l-3 3v-1v-1l-1 1v1h-3v-1l-2 1h-4l-1 1l5 5l6 1l2 2v-1l2 1l2 2l-4 -1v1l-2 -1h-1l1 2v1l2 2l4 -1l1 -1v-2h5v-1l1 1v1h3v-2l16 -1v-1h-4v-1l7 -1v1v1l1 -1v-1l2 1v-1h8l2 1v2l-2 1l-6 1v-1l-2 1l-12 1v-1h-1v2h-4l-3 -1v1h1l-1 1l-6 -1v2h-2v-1l-1 1l1 2l2 -1l7 1v-2h1v1h4v-1l2 1l9 -1h2h2h2l7 -1l2 -1l1 2v2h-13v1l-2 -1v1l-12 1l-6 2l-2 -1l-2 2h-1v1l1 1v-1h2h2h2v1l2 -1v1h4v-2h4l2 2l2 -2v1l2 -1h2v1l2 -1l2 1v-1l2 1l2 -1v1l2 -1v1h3l3 -2h4v2h-1l1 1zM246 14672v-1h-1v1h1zM280 14682l9 -3l3 -1v-1h-17v-1l-1 -2h1v-2l-1 -1l-2 1h-1l-3 -1l-22 1l1 2v1l13 3l20 4zM280 14672v-1h-4l-1 1h5zM286 14674v-1h4v-1h-6l2 2zM282 14675l1 -1l-1 -1h-2v1l2 1zM291 14674v-1h-1v1h1zM280 14675v-1h-1v1h1zM288 14675v-1h-1v1h1zM293 14677v-1h-1v1h1zM307 14678v-1h-1v1h1zM252 14680v-1h-1v1h1zM259 14688l11 -3v-1h-4l-7 -2l-7 -2l2 2l3 6h2zM368 14639v-1h-1v1h1zM353 14648l8 -5v-1l1 -2l-2 -1l-2 1l-2 1v-1l-2 1l-6 1l-2 2v4h2h5zM348 14652v-1h-2v1h2zM342 14656v-1h-1v1h1zM310 14676v-1h-2v1h2zM310 14678v-1h-2v1h2zM313 14678v-1h-1v1h1zM331 14678l1 1l2 -1h2v3h-4v1l-2 -1v1l-2 -1l-4 1v1l-2 1l1 2h-1h-4l-2 -2l1 -2l-1 -1v1l-5 -1l-6 1v-2l1 -2l-6 1l-13 4v2l5 1l11 2l7 1l2 2v-1h26l1 -2l-1 -2l-2 1h-2v-1l-2 1v-1l-6 -1l-1 -1h19l1 2v1h-1l-2 1v1l5 -1h2l-1 -5l-4 -17v-4v-1l-2 1l-4 2l-2 1l-5 5v2l-1 1h-2l-2 -1v-4l-2 1l-2 1l-10 3v1l-1 2h1h2v-1l2 2l2 -1h3v2h2l2 1l5 -1v1l1 -1zM313 14680v-1h-1v1h1zM315 14680v-1h-1v1h1zM322 14680v-1h-2v1h2zM320 14682l1 -1h-1l-1 1h1zM320 14685l1 -1h-1l-1 1h1zM336 14686l1 -1h-1l-1 1h1zM340 14687l1 -1v-1h-3v1l2 1zM343 14687v-1l-1 -1v1l1 1zM342 14690v-1h-2v1h2z"/></g><g class="f live" data-r data-f="0" fill="var(--live,#000)" fill-rule="evenodd"><path class="chunk" data-i="0" d="M-193 14219v-1h-1v1h1zM-194 14223v-1h-1v1h1zM-202 14233h-1v-3l2 -2l1 -2h2l4 -10v-4l-7 1l1 -2v-2l8 -1l1 2l1 6l-2 -1v1v1v2v2l-1 3l-2 1l-1 -1v1l-1 1v1h-1l-2 1v2l-2 2v1z"/><path class="chunk" data-i="4" d="M-6 14532l-7 6v2l-2 2v4h-1l1 2l-1 1v-1h-2l1 -7l1 -2v-2l1 -1l9 -10l6 -4l2 -2l-1 -3l-2 -5l-1 -1l-2 -1l-5 -2h-1l-6 -6v-2h-1l1 -2l1 -3l3 -7v-2l2 -3h4l1 1v2h1l-1 2l-1 1l-2 7l-1 4l3 2h2l3 2h1l6 6l2 2l1 4l1 2h-1l-1 5l-2 1l-4 2l-8 6z"/><path class="chunk" data-i="5" d="M19 14442v-1l-7 -1h-1l1 -1l4 1l4 1l6 4l2 1v2l1 4h1l-1 2l-1 3l-1 3l-1 2l-4 6l-2 5v2l1 3l5 5l4 2l4 3v2v7v3h-2l-1 5v8h-1l-2 1l-1 -2v-1l-1 -3v-3l4 -9v-2l-1 -2l-3 -3l-4 -1l-5 -6l-1 -1v-2l-1 -1l-1 -2h1l-1 -2v-2l3 -6l4 -7l1 -3l1 -6l-4 -4h1h1l-2 -3h1l1 -1h-1h-1zM22 14444v-1h-1v1h1zM23 14445v-1h-1v1h1zM23 14447v-1h-1v1h1zM25 14447v-1h-1v1h1zM22 14448v-1h-1v1h1zM24 14449v-1l-1 -1v1l1 1zM27 14450v-1h-1v1h1zM-213 14385h-1v1h-1v-2h-1l2 -2v1l1 -1h1l1 2l-1 1v-1h-1v1z"/><path class="chunk" data-i="6" d="M-197 14335v-1h-1v-2l2 1h14v1h-2l1 2l-1 1v-1l-2 1l-1 -1l1 -1h1l-1 -1h-4l-2 2l-2 -1l-1 1v-2h-1l-1 1zM-204 14312v-2h2v1l-1 1h-1zM-196 14306v-1h-1v1h1zM-195 14307v-1h-1v1h1zM-199 14309v-1h1l-1 -1v-2l3 -1l2 -2v-1h2v1l1 -1h1v1h1l-1 2l-2 -1v1v1h-2v1h1l-1 2h-2v2h-2v-1h-1z"/><path class="chunk" data-i="7" d="M-202 14261l1 -1h-1l-1 1h1zM-199 14262v-1h-1v1h1zM-199 14263l-5 -1v-3l4 1l3 1h-1l-1 1v1zM-204 14314v-1h-1v1h1zM-205 14315v-1h-1v1h1zM-207 14317v-1h-1v1h1zM-208 14318v-1h-1v1h1zM-209 14319v-1h-1v1h1zM-210 14320v-1h-1v1h1zM-211 14322v-1h-1v1h1zM-212 14324v-1h-1v1h1zM-213 14329v-3l-1 -1v3l1 1zM-211 14328v-2h-1v1l1 1zM-210 14331l1 -1h-1l-1 1h1zM-210 14333v-1h-1v1h1zM-208 14334v-1h-2v1h2zM-206 14335l1 -1h-1l-1 1h1zM-202 14335l2 -1v-1h-2l-1 1l1 1zM-202 14336v-1h-1v1h1zM-195 14336l-1 1h-2v-1l-2 1l-2 -1v1h-2l-6 -3h-2l-2 -2v-2v-6v-2l2 -2v-2l6 -6h2v1l1 -1h1v-1l1 -1h-1v-2h2v1h1v1h1v1h-2l-3 3v2h-1h-1l1 2h-2v2l-2 -1l-1 1l1 2h-2l1 2h-1h-1l1 2v2l2 2v2l2 1l7 -1l1 2v1h1v1h1h1zM-213 14252l2 2l1 2h2l-2 3l-2 -1l-2 -2l-1 -3l1 1h1v-2zM-212 14256v-1h-1v1h1zM-211 14257v-1h-1v1h1zM-214 14249l1 -1l-1 -1l-1 1l1 1zM-215 14253h-1l1 -7l2 -2v2h1l2 -2v2l-2 2l-1 4l-1 -2h-1v3z"/></g><g class="f live" data-f="1" fill="var(--live,#000)" fill-rule="evenodd"><path class="chunk" data-i="0" d="M-194 14221v-1h-1v1h1zM-195 14225v-1h-1v1h1zM-201 14233h-1v-2l2 -1l-1 -1l2 -1l1 -1l2 -9l-1 -5h-6v-2v-2l8 -1l2 2l1 7v1l-1 -1h-1l1 2v2v2l-1 3l-1 1l-1 -1v1h-1v2h-1l-1 1v1l-2 1v1z"/><path class="chunk" data-i="4" d="M-3 14536l-6 5l1 2l-2 2v2l-1 2h1v1v1l-1 -1h-1v-6v-2l1 -2v-2l8 -8l6 -3l2 -2l-1 -4l-3 -5l-2 -2l-2 -1l-6 -3h-2l-8 -7l-1 -2l-1 -1l1 -1l1 -4l3 -8l1 -2l3 -3h3l2 2v1l2 1l-1 1l-1 1l-3 8l-1 4l4 3h4l4 2h2l7 7v1l2 3l1 5l1 1l-1 1l-2 5h-2l-4 2l-8 6z"/><path class="chunk" data-i="5" d="M14 14439v-1l-8 -2v-1v-1l5 1l5 2l8 7l2 2l1 2l1 4l2 1l-2 2v4l-1 3l-2 3l-3 6l-2 5l1 2l1 2l6 5l4 2l3 4v1v7v3h-1l-2 4v8h-1v1l-1 -1l-1 -1v-3v-4l3 -8l-1 -2v-2l-3 -3l-3 -2l-6 -5l-1 -1l-1 -2l-1 -1l-2 -1l1 -1l-1 -1v-2l1 -6l4 -8l1 -4v-7l-6 -5l1 -1h1h1l-3 -4h2h1l-1 -1h-2zM18 14442v-1l-1 -1v2h1zM20 14443l-1 -1h-1v1h2zM20 14446v-1l-2 -1v2h2zM22 14446v-1h-1v1h1zM18 14447v-1h-1v1h1zM21 14449v-2l-1 -1v1l1 2zM25 14450v-1h-1v1h1zM-217 14384l-1 1v-1v-1l-1 -1l2 -2v1v-1h1l1 2l-1 2v-1h-1v1z"/><path class="chunk" data-i="6" d="M-197 14335v-1v-1h-1v-1l1 -1v1l11 -1l-1 2h-1l1 1v1l-1 1v-1l-1 1l-1 -1v-1h1v-1h-3l-2 2l-1 -1l-1 2v-2v-1l-1 2zM-203 14309v-2h1v1v1h-1zM-196 14303v-1h-1v1h1zM-195 14304v-1h-1v1h1zM-199 14306v-1l1 -1h-1v-2l4 -1l1 -1v-1h2l1 1v-1h2h1l-2 2l-1 -1l-1 1v1h-1h-1l1 1l-2 1l-1 1v1h-2v-1l-1 1z"/><path class="chunk" data-i="7" d="M-200 14263l1 -1h-2v1h1zM-197 14264v-1h-1v1h1zM-197 14266l-5 -2v-3h4l3 2l-2 2v1zM-203 14311v-1h-1v1h1zM-204 14312v-1h-1v1h1zM-206 14314v-1h-1v2l1 -1zM-207 14316v-1h-1v1h1zM-207 14317l-1 -1v1h1zM-208 14318v-1h-1v1h1zM-209 14320v-1h-1v2l1 -1zM-210 14323v-1h-1v1h1zM-211 14328v-3l-1 -1v4h1zM-209 14327v-2h-1v1l1 1zM-208 14330l1 -1h-2v1h1zM-209 14333l1 -1h-2v1h1zM-207 14334v-1h-1l-1 1h2zM-204 14335v-1h-1l-1 1h2zM-201 14335l2 -2l-1 -1h-1l-1 1l1 2zM-201 14336v-1h-1v1h1zM-196 14336v1h-1l-1 -1l-1 1h-1l-1 -1l-1 1l-1 -1l-6 -2h-1l-3 -3v-1v-7l1 -2l1 -3l1 -1l5 -8h2v1l1 -1v-1l1 -1h-1v-2h1h1l1 1h1v1h-1l-3 4v2h-2v1h1v1l-2 1v1v1l-1 -1l-1 1l1 1l-1 1h-1v1l1 1h-1l-1 1l1 1v4l2 2v1l1 2l6 -2l1 2v1l1 1v1h1zM-213 14251l3 2v1l2 2h1v1l-2 3l-2 -1h-1l-2 -2l-1 -5l2 2v-1v-2zM-211 14256v-1h-1v1h1zM-210 14257v-1h-1v1h1zM-215 14248l2 -2h-2v2zM-215 14252h-1l1 -8l2 -2v2l1 1l2 -3l1 1v1l-2 2l-2 5l-1 -1l-1 -1v3z"/></g><g class="f live" data-f="2" fill="var(--live,#000)" fill-rule="evenodd"><path class="chunk" data-i="0" d="M-192 14219v-1h-1v1h1zM-193 14224v-1h-1v1h1zM-202 14237h-1v-3l2 -3v-1l2 -2h1l4 -13v-4h-7v-2l1 -1l7 -1l2 2l2 6l-1 1l-1 -1v2l1 2l-1 3v3l-3 2v-1h-1v1h-1v2h-2l-2 2v2l-2 2v2z"/><path class="chunk" data-i="4" d="M-5 14532l-7 6v2l-2 2l-1 2l-1 1l1 1v1h-1l-1 -1h-1l2 -5l1 -2l1 -2l1 -1l9 -10l5 -5l1 -2v-3l-2 -3l-1 -1h-2l-3 -1h-1l-5 -6v-2l-1 -1v-1v-4l2 -7v-3l2 -2l3 1l2 2v1l1 1l-1 1v1l-2 7l-1 3l2 3h2l3 1h1l5 4l2 1l1 3l1 1l-1 1l-1 4l-2 1l-3 3l-8 8z"/><path class="chunk" data-i="5" d="M19 14443l-7 -2h-1v-1l5 1l4 1l6 5l1 1l1 1l1 4l1 1h-1v4l-1 3l-1 2l-2 6l-2 6v3l1 3l5 5l5 2l3 2l1 1v6l-1 3h-1l-3 4v6h-2l-1 1l-1 -2l-1 -1l-1 -2l1 -2l5 -7v-1l-1 -1l-3 -2l-4 -1l-6 -5v-2l-1 -2v-2l-1 -1l1 -1l-1 -2v-3l2 -7l4 -8v-3v-5l-3 -4h1l-2 -3h1h1h-1l-1 -1zM22 14445l-1 -1v1h1zM23 14446v-1h-1v1h1zM23 14448v-1h-1v1h1zM25 14448v-1h-1v1h1zM22 14449v-1h-1v1h1zM24 14450v-1l-1 -1v1l1 1zM27 14451v-1h-1v1h1zM-211 14387h-1l-1 1v-1v-1l-2 -1l2 -1l1 1v-1h1l2 1l-1 2l-1 -1v1z"/><path class="chunk" data-i="6" d="M-200 14331v-1h-1v-2l1 1l18 2l-1 1h-1l1 1v2l-2 -1l-1 1l-2 -2l1 -1h2l-1 -1l-6 -1l-2 2l-2 -1l-2 1v-2l-2 1zM-204 14311v-1l1 -1h1v1h-1v1h-1zM-197 14306v-1h-1v1h1zM-197 14307v-1v1zM-200 14309v-1l1 -1h-1l1 -2l2 -1l1 -1l1 -2h1v1v-1h1v1h1l-2 2v-1l-1 2h-1l1 1l-2 2l-1 1h-1h-1z"/><path class="chunk" data-i="7" d="M-200 14262l1 -1l-2 1h1zM-197 14263v-1h-1v1h1zM-197 14263h-5v-2h4l3 1l-2 1zM-205 14313l1 -1h-1h-1l1 1zM-206 14313v-1l-1 1h1zM-208 14315v-1h-1v1h1zM-209 14316v-1h-1v1h1zM-210 14316h-1h1zM-211 14317v-1h-1v1h1zM-213 14319v-1h-1v1h1zM-214 14321v-1h-1v1h1zM-216 14325v-3l-1 3h1zM-214 14324v-1h-1l1 1zM-213 14327v-1h-1l-1 1h2zM-214 14329v-1h-1v1h1zM-213 14330l1 -1h-2v1h1zM-210 14331l1 -1h-2l-1 1h2zM-206 14331l2 -2h-2h-1l1 2zM-206 14332v-1h-1v1h1zM-198 14332v1h-3l-1 -1l-1 1h-1l-2 -1l-1 1l-1 -1l-6 -2h-2l-2 -2v-2l2 -5l1 -2l1 -2l1 -1l7 -5h2v1l1 -1l1 -1v-1v-1h2h-1l1 1h1l-1 1h-1l-3 3v1h-2l1 1l-1 1h-1l-1 1l-1 -1l-2 2h1l-1 1h-1l1 1l-1 1h-1v1v3l1 1v1l1 2l8 -1l2 2v1h1v1h2zM-213 14255l2 2v1l2 1h1h1l-3 2h-1h-1l-1 -2l-2 -3l2 1v-2zM-212 14259v-1h-1v1h1zM-210 14260l-1 -1h-1l1 1h1zM-215 14252l1 -1h-1v1zM-215 14256h-1v-7l2 -1v1l1 1l1 -2h1v2l-2 1v4l-1 -1l-1 -1v3z"/></g><g class="f jolt-f live" data-f="3" fill="var(--live,#000)" fill-rule="evenodd"><path class="chunk" data-i="0" d="M-188 14224h1h-2h1zM-189 14226h-1h1zM-197 14234h-1v-2l2 -2l1 -2h1l5 -6v-2h-9v-2l1 -1h11l2 1v4h-1h-1v1v1l-1 1l-1 1l-3 1h-1l-1 1v1h-1l-1 1v1l-2 2v1z"/><path class="chunk" data-i="4" d="M-7 14528l-8 8v2l-2 3l-1 3l-1 1l1 1v1h-1h-1l1 -7l1 -2l1 -3l1 -1l12 -12l7 -3l2 -1v-3l-1 -4l-1 -2h-2l-5 -2h-2l-6 -3v-1l-1 -1h1l1 -3l3 -5v-2l2 -3l3 -2l2 1v1l1 1v1l-1 1l-2 6v3l2 1l3 1h3h1l4 6l-1 1l1 2v3v1l-1 1l-1 3l-2 1l-3 1l-10 6z"/><path class="chunk" data-i="5" d="M23 14448v-1l-10 -2h-1l1 -1l6 1l5 1l9 6l2 2l1 1l1 4h1l-1 2v2l-1 2l-2 2l-5 3l-4 2v1v1l3 3l3 1l1 4v1l-3 9l-2 4h-1l-3 7l-1 9l-1 1l-1 1l-1 -2v-1v-4v-4l6 -12l1 -3v-2l-1 -4h-2l-3 -4v-1l-1 -1l-1 -1h-1l2 -1h-2l1 -1l3 -3l7 -4l1 -2l1 -5l-6 -5h2v-1l-3 -3h2l1 -1l-1 -1h-2zM27 14451v-1h-1v1h1zM29 14452v-1h-2l1 2l1 -1zM29 14455v-1h-1v1h1zM32 14455v-1h-2l1 1h1zM28 14456v-1h-1v1h1zM31 14457v-2h-2v1l2 1zM35 14458v-1h-2l1 1h1zM-209 14389h-1l-1 1l-1 -1l1 -1l-1 -1l2 -1v1l1 -1h1l1 2l-1 1l-1 -1v1z"/><path class="chunk" data-i="6" d="M-198 14340l-1 -1v-1v-1l1 2l17 2l-1 1h-1l1 1v1h-1h-1h-1l-2 -1h1h1v-1l-6 -1l-2 2l-1 -2l-2 1v-1v-1h-2zM-210 14309v-2v-1h3v1h-1l-1 1v1h-1zM-199 14301v-2h-1v1l1 1zM-197 14302v-1h-2v1h2zM-203 14305v-2h1l-1 -1v-2l5 -2l2 -2v-2h3v1l1 -1h1v1l1 1h1l-2 2l-1 -1h-1v2h-2l-1 1l2 1l-2 3h-2l-1 2h-3v-1h-1z"/><path class="chunk" data-i="7" d="M-200 14261l1 -1h-1v1zM-199 14262l1 -1h-1v1zM-199 14263l-2 -1l1 -2h1l1 1l-1 2zM-210 14311v-1h-1v1h1zM-211 14313v-2h-2l1 1l1 1zM-213 14315l-1 -2h-1v2h2zM-215 14316v-1l-1 -1v2h1zM-216 14317v-1l-1 -1v2h1zM-216 14318l-1 -1l-1 -1v1l2 1zM-217 14320v-1l-1 -1v2h1zM-218 14322v-1l-1 -1v1l1 1zM-217 14327l-1 -4l-1 -1l1 4l1 1zM-215 14327l-1 -2l-1 -1v1l2 2zM-212 14331v-1h-2v1h2zM-212 14333l-1 -1h-1l1 1h1zM-210 14335v-1h-2l2 1zM-207 14337h1l-2 -1v1h1zM-203 14339l2 -1l-1 -1l-2 -1v1l1 2zM-203 14340v-1l-1 -1v1l1 1zM-196 14342v1l-2 -1l-1 -1l-1 1l-1 -1l-1 -1l-1 1l-2 -1l-7 -5l-1 -1l-4 -4l-1 -2l-2 -7v-2l1 -2v-2l7 -7l2 1l1 1v-1h1l1 -1v-1h1l-1 -1l-1 -2l1 -1h2v1l1 1h1l1 1v2h-2l-4 4l-1 2h-1l-1 1l2 1l-1 1h-2v1v1l-2 -2l-1 2l1 1v1l-1 -1l-1 1l2 1l-1 1l-1 -1v1l1 1l1 4l3 3v1l3 3l7 2l2 2v1h1v1l1 1h1zM-205 14254l2 1v1v1h1l-2 3v-1h-1l-1 -1v-3l1 1v-1v-1zM-204 14257v-1h-1v1h1zM-204 14258v-1l-1 1h1zM-206 14252l2 -2h-1l-1 1v1zM-206 14255h-1l1 -6l1 -2l1 2l2 -3v2l-1 2l-2 4v-1h-1v2z"/></g><path class="grain" fill="#000" fill-rule="evenodd" d="M-202 14236h-1v-1h1v1zM-202 14233l2 -1v2l-2 1v-1v-1zM-200 14232v-1h1v1h-1zM-203 14230h-1v-1h1v1zM-199 14231v-1l2 -2v-1h1v1l-2 3h-1zM-196 14227v-2h1v1l-1 1zM-200 14226h-1v-1h1v1zM-199 14225h-1v-1h1v1zM-198 14223h-1v-1h1v1zM-210 14242l2 -1v1l-2 2v-2zM-213 14244v-2l1 -1l2 1l-2 2h-1zM-207 14241h-1v-1h1v1zM-206 14240h-1v-1h1v1zM-205 14239h-1v-1h1v1zM-209 14240l-1 -1v-1h1v2zM-210 14238h-1v-1h1v1zM-204 14238l-1 -1l1 -1h1l-1 2zM-208 14238v-1l2 -1l-2 2zM-204 14235h-1v-1h1v1zM-205 14233h-1v-1h1v1zM-201 14771h-1v-1h1v1zM-202 14770h-1v-1h1v1zM-198 14769h-1v-1h1v1zM-210 14777h-1v-1h1v1zM-213 14776v-1h1v1h-1zM-214 14775v-1h1v1h-1zM-232 14775h-1v-1h1v1zM-205 14774h-1v-1h1v1zM-209 14773l-1 1v-1h1zM-227 14774h-1v-1h1v1zM-229 14774h-1v-1h1v1zM-235 14774h-1v-1h1v1zM-226 14772h-1v-1h1v1zM-228 14772h-1v-1h1v1zM-232 14773h-1v-1l1 -1l1 1l-1 1zM-235 14772h-1v-1h1v1zM-237 14772h-1v-1h1v1zM-208 14771v-1h3l-1 2l-2 -1zM-219 14771h-1v-1h1v1zM-222 14771h-1v-1h1v1zM-224 14771h-1v-1h1v1zM-205 14769l1 1h-1v-1zM-233 14770h-1v-1h1v1zM-237 14770h-1v-1h1v1zM-222 14769h-1v-1h1v1zM-230 14769h-1v-1h1v1zM-229 14768h-1v-1h1v1zM-233 14768h-1v-1h1v1zM-236 14769l-1 -1v-1l1 1v1zM-206 14767h-1v-1h1v1zM-215 14769l-1 -1v-2h1v3zM-235 14767h-1v-1h1v1zM-214 14766h-1v-1h1v1zM-232 14767l-1 -1l1 -1l1 1l-1 1zM-234 14766h-1v-1h1v1zM-228 14766h-2l2 -2h1l-1 2zM-233 14765h-1v-1h1v1zM-232 14764h-1v-1h1v1zM-197 14763v-1h1v1h-1zM-200 14763h-1v-1h1v1zM-202 14762h-1v-1h1v1zM-199 14762l-1 -1v-1h1v2zM-196 14759h-1v-1h1v1zM-201 14738h-1v-1h1v1zM-199 14737h-1v-1h1v1zM-201 14736h-1v-1h1v1zM-196 14733h-1v-1h1v1zM-202 14733h-1v-1h1v1zM-194 14732h-1v-1h1v1zM-201 14732h-1v-1h1v1zM-199 14731h-1v-1h1v1zM-185 14728h-1v-1h1v1zM-190 14728h-1v-1h1v1zM-194 14728h-1v-1h1v1zM-198 14728v-1h2l-1 2v-1h-1zM-184 14727h-1l1 -1h1l-1 1zM-188 14728l-1 -1v-1h1v2zM-193 14727h-1v-1h1v1zM-200 14727h-1v-1h1v1zM-187 14726h-1v-1h1v1zM-190 14726h-2v-1h2v1zM-197 14726h-1h-1l1 -2h1v2zM-199 14725h-1v-1h1v1zM-191 14724h-1v-1h1v1zM-180 14723h-1v-1h1v1zM-187 14723h-1v-1h1v1zM-194 14723h-1v-1h1v1zM-178 14723l-1 -1v-1l1 1v1zM-191 14721h-1v-1h1v1zM-197 14721h-1v-1h1v1zM-181 14720h-1v-1h1v1zM-189 14720h-1v-1h1v1zM-196 14720h-1v-1h1v1zM-194 14719h-1v-1h1v1zM-193 14718h-1v-1h1v1zM-191 14717h-1v-1h1v1zM-186 14716h-1v-1h1v1zM-187 14715h-1v-1h1v1zM-183 14714h-1v-1h1v1zM-186 14714h-1v-1h1v1zM-184 14713h-1v-1h1v1zM-183 14712h-1v-1h1v1zM-179 14711h-1v-1h1v1zM-175 14708h-1v-1h1v1zM-174 14707h-1v-1h1v1zM-173 14706h-1v-1h1v1zM-172 14705h-1v-1h1v1zM-170 14704h-1v-1h1v1zM-187 14704h-1v-1h1v1zM-169 14703h-1v-1h1v1zM-182 14703h-1v-1h1v1zM-174 14702h-1v-1h1v1zM-226 14762v1l-1 -1h1zM-230 14761h-1v-1h1v1zM-229 14760h-1v-1h1v1zM-226 14757h-2v-1h2v1zM-226 14756v-1h1v1h-1zM-225 14755v-1h1v1h-1zM-228 14752h-1v-1h1v1zM-221 14750v-1h1v1h-1zM-208 14742h-1v-1h1v1zM-209 14741h-1v-1h1v1zM-204 14740h-1v-1h1v1zM-207 14740h-1v-1h1v1zM-206 14739h-1l1 -1h1l-1 1zM-209 14726h-1v-1h1v1zM14 14640h-1v-1h1v1zM14 14638h-1v-1h1v1zM27 14637h-1v-1h1v1zM15 14637h-1v-1h1v1zM-163 14699h-1v-1h1v1zM-180 14699h-1v-1h1v1zM-183 14700h-1h-1l1 -2h1v2zM-189 14699h-1v-1h1v1zM-176 14698h-3l1 -1h2v1zM-181 14698h-1v-1h1v1zM-170 14697h-5l1 -1h4v1zM-180 14697h-1v-1h1v1zM-186 14697l-1 -1l1 -1l1 1l-1 1zM-177 14696h-1h-1l1 -2h1v2zM-184 14695h-1v-1h1v1zM-166 14694h-1v-1h1v1zM-176 14694h-1v-1h1v1zM-182 14694h-1v-1h1v1zM-175 14693h-1v-1h1v1zM-181 14693h-1v-1h1v1zM-174 14692h-1v-1h1v1zM-180 14692h-1v-1h1v1zM-179 14691h-1v-1h1v1zM-172 14691h-2v-1l2 -1l1 1l-1 1zM-178 14690h-1v-1h1v1zM-169 14688h-1v-1h1v1zM-176 14689h-2v-1l2 -1l1 1l-1 1zM-168 14687h-1v-1h1v1zM-167 14686h-1v-1h1v1zM-174 14687h-2v-1l2 -1l1 1l-1 1zM-166 14685h-1v-1h1v1zM-168 14683h-1v-1h1v1zM-164 14684h-2l1 -2v-1l1 1v2zM-169 14681l-2 3v1h-1l-1 -1h1l1 -3h2zM-171 14681h-1v-1h1v1zM-176 14680h-1v-1h1v1zM-178 14680h-2v-1h2v1zM-180 14679h-1v-1h1v1zM-172 14678h-3l1 -1h2v1zM-176 14676h-1v-1h1v1zM-178 14676h-3l1 -1h2v1zM-176 14673h-1v-1h1v1zM-181 14674l-1 -1v-1h1v2zM-173 14672h-1v-1h1v1zM-182 14672h-1v-1h1v1zM-181 14671h-1v-1h1v1zM-166 14670h-1v-1h1v1zM-178 14671v-1l2 -1v1l-2 1zM-179 14670h-1v-1h1v1zM-172 14668l-2 1v-2h4v1h-2zM-176 14668h-1v-1h1v1zM-162 14667h-1v-1h1v1zM-164 14667h-2v-1h2v1zM-168 14667h-2v-1h3l-1 1zM-171 14666h-1v-1h1v1zM-161 14665h-1v-1h1v1zM-335 14683l-1 -1v-1l1 1v1zM-387 14671l-1 1v-1h1zM-387 14671v-1h1v1h-1zM-386 14670v-1h1v1h-1zM-381 14665l1 1h-1v-1zM-377 14664h-1v-1h1v1zM-375 14661l-1 1v-1h1zM-375 14660h1l-1 1v-1zM-372 14660h-1v-1h1v1zM-371 14659h-1v-1h1v1zM-370 14658h-1v-1h1v1zM-366 14655h-1v-1h1v1zM-363 14652l-1 1v-1h1zM-363 14651l1 1h-1v-1zM-356 14646v-1h1v1h-1zM-355 14645v-1h1v1h-1zM-354 14644v-1h1v1h-1zM-353 14643v-1h1v1h-1zM-390 14643v-1h3v1h-3zM-352 14642v-1h1v1h-1zM-381 14640v-1l3 1h-3zM-374 14639h-3l1 -1h2v1zM-372 14638h-2v-1h2v1zM-368 14637h-3l1 -1h3l-1 1zM-364 14636h-3l1 -1h2v1zM32 14635h-1v-1h1v1zM26 14635h-1v-1h1v1zM18 14636h-2l2 -2v2zM15 14635h-1v-1h1v1zM8 14635h-1v-1h1v1zM5 14636h-1h-1l1 -2h1v2zM7 14634h-1v-1h1v1zM48 14633h-1v-1h1v1zM46 14633h-1v-1h1v1zM44 14633h-3l1 -1h2v1zM26 14633h-1v-1h1v1zM17 14633h-1v-1h1v1zM15 14633h-1v-1h1v1zM9 14633h-1v-1h1v1zM18 14632h-1v-1h1v1zM10 14632h-1v-1h1v1zM6 14632h-1v-1h1v1zM1 14632h-1v-1h1v1zM23 14631h-1v-1h1v1zM12 14631h-1v-1h1v1zM5 14631h-1v-1h1v1zM47 14630h-1v-1h1v1zM28 14632v-1l2 -2l1 1l-1 1l-2 1zM18 14630h-1v-1h1v1zM4 14630h-1v-1h1v1zM0 14630h-1v-1h1v1zM44 14629h-1v-1h1v1zM42 14629h-3l1 -1h2v1zM38 14629h-1v-1h1v1zM14 14630l-1 -1v-1h1v2zM2 14629h-1v-1h1v1zM16 14628h-1v-1h1v1zM18 14627h-1v-1h1v1zM12 14627h-4v-1h4v1zM6 14627h-3l1 -1h2v1zM-9 14627h-1l-1 -1l1 -1l1 1v1zM14 14626l-1 -1v-1h1v2zM12 14625h-1v-1h1v1zM5 14625h-1v-1h1v1zM-3 14625h-1v-1h1v1zM-8 14625h-1v-1h1v1zM26 14624h-1l1 -1h1l-1 1zM24 14624h-2v-1h2v1zM16 14625h-1v-1l1 -1l1 1l-1 1zM8 14625l-1 -1v-1l1 1v1zM6 14624h-1v-1h1v1zM0 14624h-2v-1h2v1zM-10 14625l-1 -1v-1l1 1v1zM17 14623h-1v-1h1v1zM12 14623h-2v-1h2v1zM-2 14623h-1v-1h1v1zM22 14621l1 1h-1v-1zM10 14622h-2v-1h2v1zM-8 14623l-2 -1v-2l3 2l-1 1zM14 14622h-2v-2l2 -1l2 1v1l-2 1zM7 14620h-1v-1h1v1zM-4 14620h-1v-1h1v1zM12 14620h-2h-1l1 -2h2v2zM-5 14619h-1v-1h1v1zM-7 14620l-1 -1v-1h1v2zM-10 14620l-1 -1v-1h1v2zM24 14619l-1 -1v-1l1 1v1zM10 14618h-1v-1h1v1zM-2 14616h1l-1 1v-1zM-7 14617h-1v-1h1v1zM23 14616h-1v-1h1v1zM12 14616h-1v-1h1v1zM1 14616h-1v-1h1v1zM6 14615h-1v-1h1v1zM2 14615h-1v-1h1v1zM-1 14615h-1v-1h1v1zM-6 14613v1l-1 -1h1zM6 14613h-1v-1h1v1zM4 14613h-1v-1h1v1zM1 14614h-1h-1l1 -2h1v2zM-6 14612h1l-1 1v-1zM5 14612h-1v-1h1v1zM2 14612h-1v-1h1v1zM-7 14613h-1l-1 -1l1 -1l2 1h-1v1zM8 14611h-1v-1h1v1zM24 14603h-1l1 -1h1l-1 1zM23 14588l1 -1v1h-1zM-12 14625l-1 -1v-1l1 1v1zM-14 14623h-1v-1h1v1zM-16 14623h-1v-1h1v1zM-19 14620l-1 1v-1h1zM-40 14621h-1v-1h1v1zM-11 14622h-3v-2l2 -1l1 1v2zM-20 14620h-2v-1h2v1zM-20 14619v-1h1v1h-1zM-14 14618h-1v-1h1v1zM-13 14617h-1v-1h1v1zM-16 14616h1l-1 1v-1zM-17 14616l1 -1v1h-1zM-10 14616h-2l-2 -2l4 -1l1 1l-1 2zM-15 14615h-1v-1h1v1zM-17 14615h-1v-1h1v1zM-25 14587v-1h1v1h-1zM-161 14625h-1v-1h1v1zM-155 14624h-1v-1h1v1zM-158 14623h-1l1 -1h1l-1 1zM-149 14622h-1v-1h1v1zM-153 14623l-1 -1v-1l1 1v1zM-155 14622h-1v-1h1v1zM-151 14621h-1v-1h1v1zM-148 14620h-1l1 -1h1l-1 1zM-148 14618h-1v-1h1v1zM-178 14617h-1v-1h1v1zM-174 14615h-4v-1h2l2 -1v1v1zM-171 14613h-3v-1h2v-1l1 1v1zM-169 14611h-1v-1h1v1zM-165 14609h-1v-1h1v1zM-167 14610l-1 -1v-1h1v2zM-164 14607h-1v-1h1v1zM-162 14606l-1 -1v-1h1v2zM-163 14603h-1v-1h1v1zM-162 14602h-1v-1h1v1zM-164 14602h-2v-1h2v1zM-166 14601h-2v-1h2v1zM-169 14601h-1v-1h1v1zM-174 14600h-1l1 -1h1l-1 1zM-178 14600h-1l1 -1h1l-1 1zM-180 14600h-1v-1h1v1zM-184 14600h-1v-1h1v1zM-189 14599h-1v-1h1v1zM-191 14599h-1v-1h1v1zM-188 14598h-1v-1h1v1zM-196 14598h-1l1 -1h1l-1 1zM-194 14597h-1v-1h1v1zM-195 14588h-1v-1h1v1zM-195 14586h-1v-1h1v1zM-188 14582h-1v-1h1v1zM-188 14579h-1v-1h1v1zM-186 14577h-1v-1h1v1zM-184 14576h-1v-1h1v1zM-182 14574h-1v-1h1v1zM-181 14573h-1v-1h1v1zM-180 14572h-1v-1h1v1zM-305 14607h-1v-1h1v1zM-393 14626v-1h1v1h-1zM-388 14622v1l-1 -1h1zM-396 14623v-1l2 1h-2zM-392 14621h-1v-1h1v1zM-391 14620h-1v-1h1v1zM-389 14619h-1v-2l2 1h-1v1zM-387 14617h-1v-1h1v1zM-384 14615l-1 -1h1v1zM-384 14614v-1h2v1h-2zM-382 14613v-1h1v1h-1zM-391 14613v-1h2l3 -1v1l-5 1zM-378 14610v-1h1v1h-1zM-386 14611v-1l2 -1h3l-1 1l-4 1zM-392 14596v1l-1 -1h1zM-394 14597h-1v-1h1v1zM-438 14635h-1l1 -1h1l-1 1zM-434 14633h-2v-1h2v1zM-398 14630v-1h1v1h-1zM-403 14629h-1v-1h1v1zM-401 14628h-1v-1h1v1zM-400 14627l-1 -1h1v1zM-400 14626v-1h2v1h-2zM-430 14626v-1h1v1h-1zM-398 14625v-1h1v1h-1zM-431 14625h-1v-1h1v1zM-396 14624h-1l1 -1v1zM-429 14625v-1l1 -1h2v1l-2 1h-1zM-426 14623v-1h1l-1 1zM-425 14622l1 -2h2l-2 2h-1zM-422 14620v-1h1v1h-1zM-424 14619h-1l1 -1h1l-1 1zM-405 14617l-1 1v-1h1zM-434 14616h-1v-1h1v1zM-406 14616v-1l4 -1l-3 3v-1h-1zM-432 14615h-1l1 -1h1l-1 1zM-400 14615l-2 -1v-1l2 -1h2v2h-2v1zM-429 14613h-1v-1h1v1zM-412 14611h-2v-1h2v1zM-425 14611h-1v-1h1v1zM-410 14610h-2v-1h2v1zM-408 14608h-1v-1h1v1zM-407 14607h-1v-1h1v1zM-416 14606h-1v-1h1v1zM-403 14606v-2l1 -1h2v2l-3 1zM-404 14604h-1v-1h1v1zM-413 14604h-1v-1h1v1zM-400 14603v-1h1l-1 1zM-402 14603h-2v-1h2v1zM-407 14602h1l-1 1v-1zM-433 14603h-1v-1h1v1zM-406 14600h1l-1 1v-1zM-408 14602l-1 -2h1h1v2h-1zM-432 14601h-1v-1h1v1zM-401 14599h1v1v1l-1 -1v-1zM-405 14600v-1h2v1h-1h-1zM-407 14600l1 -1v1h-1zM-430 14600h-2v-1h2v1zM-403 14599v-1h1h1v1h-2zM-406 14599v-1l1 1h-1zM-429 14598h-1v-1h1v1zM-405 14597h-1v-1h1v1zM-432 14598v-1l2 -2l1 1l-3 2zM-426 14598h-2v-3l4 -1l-1 2h1l-2 2zM-428 14595h-1v-1h1v1zM-426 14594h-1v-1h1v1zM-424 14593h-1v-1h1v1zM-429 14589l1 1h-1v-1zM-427 14588h-1v-1h1v1zM-426 14584h-1v-1h1v1zM-428 14587l-1 -1v-2l1 -1l1 1v2l-1 1zM-434 14584h-1v-1h1v1zM-433 14582l-1 -1v-1h1v2zM-434 14580l-1 -1v-1h1v2zM-432 14577v1v1l-1 -1v-1h1zM-12 14552h-1v-1h1v1zM-14 14551l-1 -1v-1l1 1v1zM-16 14550h-1v-1h1v1zM-178 14571h-1v-1h1v1zM-175 14568h-1h-1l1 -2h1v2zM-174 14566h-1l1 -1h1l-1 1zM-185 14564h-1v-1h1v1zM-187 14564h-1v-1h1v1zM-190 14564h-1l1 -1h1l-1 1zM-194 14564h-1v-1h1v1zM-180 14563h-1l1 -1h1l-1 1zM-182 14563h-1v-1h1v1zM-172 14564l-2 -1l-1 -1l1 -1l2 1v-1l2 1l-2 2zM-175 14562h-1v-1h1v1zM-203 14537h-1v-1h1v1zM-200 14535h-1v-1h1v1zM-202 14532h-1v-1h1v1zM-193 14530h-1v-1h1v1zM-192 14529h-1v-1h1v1zM-197 14528h-1v-1h1v1zM-193 14525h-1v-1h1v1zM-192 14524h-1v-1h1v1zM-184 14523h-1v-1h1v1zM-183 14522h-1v-1h1v1zM-189 14522h-1v-1h1v1zM-181 14520h-1v-1h1v1zM-187 14520h-1v-1h1v1zM-180 14519h-1v-1h1v1zM-179 14518h-1v-1h1v1zM-185 14518h-1v-1h1v1zM-184 14517h-1v-1h1v1zM-178 14515h-1v-1h1v1zM-182 14516h-2l2 -2v2zM-187 14515h-1v-1h1v1zM-190 14515h-1v-1h1v1zM-179 14513h-1v-1h1v1zM-198 14513h-1v-1h1v1zM-182 14512h-2v-1h2v1zM-186 14511h-4v-1h4v1zM-196 14510h-5l1 -1h4v1zM-208 14561h-1v-1h1v1zM-213 14560h-1v-1h1v1zM-215 14559h-1v-1h1v1zM-216 14558h-1v-1h1v1zM-217 14554l-1 -1v-1h1v2zM-216 14551l-1 -1v-1l1 1v1zM-215 14549h-1v-1h1v1zM-214 14547h-1v-1h1v1zM-213 14546h-1v-1h1v1zM-212 14545h-1v-1h1v1zM-209 14542h-1v-1h1v1zM-208 14541h-1v-1h1v1zM-207 14540h-1v-1h1v1zM-210 14514h-1l1 -1h1l-1 1zM-206 14513h-1l1 -1h1l-1 1zM-215 14513h-1v-1h1v1zM-215 14511h-1v-1h1v1zM-218 14511h-1l1 -1h1l-1 1zM-220 14510h-1l1 -1h1l-1 1zM-224 14509h-3l1 -1h2v1zM-218 14508h-2v-1h2v1zM-229 14508h-1v-1h1v1zM-386 14558h-1v-1h1v1zM-350 14524v-1l2 -1l-2 2zM-346 14522h-1v-1h1v1zM-348 14521h-1v-1h1v1zM-351 14520l-1 -1v-1h1v2zM-445 14552l-1 -1v-1h1v2zM18 14445h-1v-1h1v1zM-203 14460h-1v-1h1v1zM-202 14459h-1v-1h1v1zM-200 14458h-1v-1h1v1zM-199 14457h-1v-1h1v1zM-203 14456h-1v-1h1v1zM-202 14455h-1v-1h1v1zM-195 14454h-1v-1h1v1zM-197 14454h-1v-1h1v1zM-199 14453h-1v-1h1v1zM-192 14452h-1v-1h1v1zM-198 14452h-1v-1h1v1zM-191 14451h-1v-1h1v1zM-196 14451h-1v-1h1v1zM-189 14450h-1v-1h1v1zM-195 14450h-1v-1h1v1zM-187 14449h-1v-1h1v1zM-190 14449h-1v-1h1v1zM-194 14449h-1v-1h1v1zM-186 14448h-1v-1h1v1zM-192 14448h-1v-1h1v1zM-184 14447h-1v-1h1v1zM-191 14447h-1v-1h1v1zM-182 14446h-1v-1h1v1zM-189 14446h-1v-1h1v1zM-230 14507h-1v-1h1v1zM-236 14506h-1v-1h1v1zM-234 14505h-1v-1h1v1zM-235 14504h-1v-1h1v1zM-239 14503h-1v-1h1v1zM-241 14497h-1v-1h1v1zM-239 14500h-1v-6h1v6zM-241 14494h-1v-1h1v1zM-238 14492h-1v-1h1v1zM-240 14491h-1v-1h1v1zM-237 14484h-1v-1h1v1zM-234 14483h-1v-1h1v1zM-236 14483h-1v-1h1v1zM-230 14481h-1v-1h1v1zM-229 14480h-1v-1h1v1zM-234 14480h-1v-1h1v1zM-230 14479h-1v-1h1v1zM-233 14479h-1v-1h1v1zM-228 14477h-1v-1h1v1zM-231 14477h-1v-1h1v1zM-224 14476h-1v-1h1v1zM-230 14476h-1v-1h1v1zM-223 14474l-1 1v-1h1zM-223 14474v-1h1v1h-1zM-224 14474h-1l1 -1v1zM-228 14475l-1 -1v-1l1 1v1zM-222 14472h1l-1 1v-1zM-224 14473v-1h1v1h-1zM-220 14472h-1l1 -1h1l-1 1zM-223 14472l1 -1v1h-1zM-226 14473h-2v-1l2 -1l1 1l-1 1zM-224 14471h-1v-1h1v1zM-217 14470h-1v-1h1v1zM-218 14469h-1v-1h1v1zM-222 14470h-2l2 -2h1l-1 2zM-216 14469l-1 -1v-1l1 1v1zM-220 14468h-1v-1h1v1zM-213 14467h-1v-1h1v1zM-219 14467h-1v-1h1v1zM-212 14466h-1v-1h1v1zM-214 14466h-1v-1h1v1zM-218 14466h-1v-1h1v1zM-210 14465h-1v-1h1v1zM-209 14464h-1v-1h1v1zM-211 14464h-1v-1h1v1zM-214 14464h-2l2 -2h1l-1 2zM-206 14462h-1v-1h1v1zM-208 14462h-1v-1h1v1zM-204 14461h-1v-1h1v1zM-210 14461h-1v-1h1v1zM-209 14460h-1v-1h1v1zM-207 14459h-1v-1h1v1zM-206 14458h-1v-1h1v1zM-205 14457h-1v-1h1v1zM-323 14444h-1v-1h1v1zM-385 14445h-1v-1h1v1zM-387 14445h-1v-1h1v1zM-453 14483h-1v-1h1v1zM-452 14482h-1l1 -1h1l-1 1zM-449 14480h-1v-1h1v1zM-455 14481l-1 -1v-1l1 1v1zM-458 14470h-1v-2l-1 -2l2 -1v1v4zM-439 14466l-1 -1v-1h1v2zM-459 14465h-1v-1h1v1zM-440 14464h-1v-1h1v1zM-442 14461l-1 -1v-1l1 1v1zM-442 14458h-2v-1h2v1zM-455 14457h-1v-1h1v1zM-458 14457h-1v-1h1v1zM-443 14455l-1 -1v-1l1 1v1zM-451 14454h-1v-1h1v1zM-454 14454h-1v-1h1v1zM-448 14452h-1v-1h1v1zM-447 14451h-1v-1h1v1zM-442 14451l-1 -1v-1l1 1v1zM-445 14450h-1v-1h1v1zM-443 14449h-1v-1h1v1zM-457 14449h-1v-1h1v1zM-439 14448h-1v-1h1v1zM-441 14448h-1v-1h1v1zM-440 14447h-1v-1h1v1zM-415 14446h-1v-1h1v1zM-436 14446h-1v-1h1v1zM-413 14445h-1v-1h1v1zM-437 14445h-1v-1h1v1zM-440 14445h-1v-1h1v1zM-456 14445h-1v-1h1v1zM-411 14444h-1h-1l1 -1h1v1zM-436 14444h-1v-1h1v1zM-478 14465h2v1h-2v-1zM-476 14463h-1v-1h1v1zM-476 14461l-1 -1v-1l1 1v1zM-475 14458h-1v-1h1v1zM-475 14456h-1v-1h1v1zM-474 14454l-1 -1v-1h1v2zM-473 14450l-1 -1v-1h1v2zM-472 14446l-1 -1v-1h1v2zM19 14443h-3v-1h3v1zM14 14442h-2v-1h3l-1 1zM10 14440h-1v-1h1v1zM7 14439h-1v-1h1v1zM-183 14443h-1v-1h1v1zM-174 14441h-1l1 -1h1l-1 1zM-180 14441h-1v-1h1v1zM-178 14440h-1v-1h1v1zM-169 14438h-1v-1h1v1zM-173 14437h-1v-1h1v1zM-165 14436h-1v-1h1v1zM-163 14435h-1v-1h1v1zM-162 14434h-1l1 -1h1l-1 1zM-160 14433h-1v-1h1v1zM-157 14431h-1v-1h1v1zM-154 14429h-1v-1h1v1zM-153 14428h-1v-1h1v1zM-152 14427h-1v-1h1v1zM-150 14425h-1v-1h1v1zM-148 14424h-1v-1h1v1zM-147 14423l-1 -1v-1l1 1v1zM-146 14419h-1v-1h1v1zM-147 14418h-1v-1h1v1zM-150 14412h-1v-1h1v1zM-152 14412h-2l-1 -2l1 -1l2 1v2zM-156 14410h-1v-1h1v1zM-160 14409h-1v-1h1v1zM-158 14409l-1 -1l1 -1l1 1l-1 1zM-162 14408h-1v-1h1v1zM-161 14407h-1v-1h1v1zM-167 14407h-1v-1h1v1zM-164 14407h-2v-1l2 -1l1 1l-1 1zM-180 14406h-1v-1h1v1zM-169 14405h-1v-1h1v1zM-176 14405h-1v-1h1v1zM-178 14404h-1v-1h1v1zM-180 14404h-3l1 -1h2v1zM-177 14403h-1v-1h1v1zM-188 14403h-1v-1h1v1zM-181 14402h-1v-1h1v1zM-184 14402h-1v-1h1v1zM-190 14402h-1v-1h1v1zM-187 14401h-1v-1h1v1zM-194 14401h-1v-1h1v1zM-196 14401h-1v-1h1v1zM-198 14400h-1v-1h1v1zM-194 14399h-1l1 -1h1l-1 1zM-204 14400v-1l4 -1v1h-2l-2 1zM-205 14398h-1v-1h1v1zM-210 14398h-1l1 -1h1l-1 1zM-208 14397h-1l1 -1h1l-1 1zM-212 14397h-2v-1h3l-1 1zM-205 14396h-1v-1h1v1zM-210 14396h-1v-1h1v1zM-207 14395h-1v-1h1v1zM-212 14395h-1v-1h1v1zM-214 14394v-1h1v1h-1zM-213 14392h1h1l-1 1h-1v-1zM-214 14394v1h-2l-1 -1l2 -2v2h1zM-215 14392v-2h1l1 2h-2zM-217 14391h-1v-1h1v1zM-216 14390l-1 -1v-1h1v2zM-212 14385v1l-1 -1h1zM-214 14389l-3 -2l-1 -1l2 -1l2 2l1 1l-1 1zM-212 14381l1 1h-1v-1zM-214 14382v-1h1v1h-1zM-213 14381v-1h1v1h-1zM-207 14380h-1v-1h1v1zM-209 14382l-1 -1l-2 -1v-1h3v3zM-326 14444h-1v-2h1l1 2h-1zM-319 14441h-1v-1h1v1zM-329 14440h-1v-1h1v1zM-386 14443h-1v-1h1v1zM-390 14441h2l1 1h-1h-2v-1zM-330 14441h-2l-1 -1v-2h1l2 2v1zM-395 14434v-1h1v1h-1zM-396 14430v-1l1 1h-1zM-394 14429h-1v-1h1v1zM-377 14424l-1 1v-1h1zM-391 14425h-1v-1h1v1zM-389 14422h-1v-1h1v1zM-388 14421h-1v-1h1v1zM-386 14418h-1v-1h1v1zM-392 14415h-1v-1l1 -2h2h1l-3 3zM-380 14411h-1v-1h1v1zM-386 14410h1l-1 1v-1zM-386 14411v1h-2h-1l2 -2l1 1zM-387 14410l1 -1v1h-1zM-380 14408h-1v-1h1v1zM-384 14410h-1v-2h1l2 -1v1l-2 2zM-395 14400h-1v-1h1v1zM-394 14398h-1v-1h1v1zM-411 14443v-1h1v1h-1zM-413 14443h-1v-1h1v1zM-409 14442h-1v-1h1v1zM-439 14443l-1 -1v-1l1 1v1zM-455 14438h-1v-1h1v1zM-453 14436h-1v-1h1v1zM-410 14435h-2v-1l2 -1v1v1zM-454 14432h-1v-1h1v1zM-452 14431h-1v-1h1v1zM-435 14430h-1v-1h1v1zM-453 14429h-1v-1h1v1zM-450 14428l-1 -1v-1h1v2zM-452 14427h-1v-1h1v1zM-402 14425h-1v-1h1v1zM-449 14424v2h-1v-2h1zM-449 14424v-2h1v2h-1zM-451 14422l1 -1h1v1h-2zM-432 14420h-1v-1h1v1zM-431 14416h-1v-1h1v1zM-442 14416h-1v-1h1v1zM-429 14415h-1v-1h1v1zM-399 14413h-1v-1h1v1zM-429 14412h-1v-1h1v1zM-427 14410h-1v-1h1v1zM-399 14409h-1v-1h1v1zM-397 14408h-1v-1h1v1zM-425 14408h-1v-1h1v1zM-424 14407h-1v-1h1v1zM-397 14405h-1v-1h1v1zM-396 14402l-1 -1v-1h1v2zM-470 14440h-1v-1h1v1zM-203 14377h-1v-1h1v1zM-201 14375h-1v-1h1v1zM-203 14375h-1v-1h1v1zM-199 14372h-1v-1h1v1zM-202 14373h-2v-1l2 -1v1v1zM-200 14371h-2v-1h2v1zM-193 14370h-1v-1h1v1zM-199 14370h-1v-1h1v1zM-191 14369h-1v-1h1v1zM-198 14369h-1v-1h1v1zM-189 14368h-1v-1h1v1zM-196 14368h-1l1 -1h1l-1 1zM-190 14367h-1v-1h1v1zM-192 14367h-1v-1h1v1zM-194 14367h-1v-1h1v1zM-185 14366h-1v-1h1v1zM-188 14366h-1v-1h1v1zM-186 14365h-1v-1h1v1zM-190 14365h-1l1 -1h1l-1 1zM-181 14364h-1v-1h1v1zM-188 14364h-1v-1h1v1zM-177 14362h-1v-1h1v1zM-183 14361h-1v-1h1v1zM-174 14360h-1v-1h1v1zM-176 14359h-1l1 -1h1l-1 1zM-170 14358h-1v-1h1v1zM-171 14357h-1v-1h1v1zM-165 14356h-1v-1h1v1zM-167 14355h-1v-1h1v1zM-161 14353l-1 1l-1 -1h2zM-165 14354h-1v-1h1v1zM-161 14352h1l-1 1v-1zM-163 14353h-1l-1 -1h1h1v1zM-158 14352h-1l1 -1h1l-1 1zM-163 14352v-1l2 1h-2zM-156 14352l-1 -2h1h1v2h-1zM-159 14351h-1v-1h1v1zM-154 14350h-1v-1h1v1zM-158 14350h-1v-1h1v1zM-151 14350h-2v-2h2v2zM-155 14349h-1v-1h1v1zM-148 14348h-3l1 -1h2v1zM-153 14348l-1 -1v-1h1v2zM-146 14347h-2v-2h2v2zM-148 14345h-2v-1h2v1zM-144 14345l-1 -1v-1l1 1v1zM-147 14344h-1v-1h1v1zM-145 14343h-1v-1h1v1zM-144 14342h-1v-1h1v1zM-142 14341h-2v-1h2v1zM-142 14340v-1l1 1h-1zM-140 14339h-1v-1h1v1zM-166 14338h-1v-1h1v1zM-170 14338h-1v-1h1v1zM-172 14338h-1v-1h1v1zM-175 14338h-1v-1h1v1zM-178 14338h-1l1 -1h1l-1 1zM-140 14337h-3l1 -1h2v1zM-181 14338l-1 -1v-1h1v2zM-188 14338h-4v-1l2 -1h2v2zM-144 14336h-6v-1h6v1zM-152 14336h-2v-1h3l-1 1zM-156 14336h-1v-1h1v1zM-159 14336h-1v-1h1v1zM-161 14336h-1v-1h1v1zM-164 14336h-1l1 -1h1l-1 1zM-181 14335h-1v-1h1v1zM-178 14334h-3l1 -1h3l-1 1zM-208 14379h-1v-1h1v1zM-204 14378h-1v-1h1v1zM-210 14378h-1l1 -2h2l-2 2zM-206 14377l-2 -1v-1h2v1v1zM-205 14375l-1 -1v-1l1 1v1zM-206 14332h-1v-1h1v1zM-457 14351h-1v-1h1v1zM-456 14350h-1v-1h1v1zM-458 14350h-1v-1h1v1zM-199 14313h-1v-1h1v1zM-200 14308v-1h1v1h-1zM-192 14301v-1h1v1h-1zM-185 14299v-1h1v1h-1zM-178 14294v-1h1v1h-1zM-174 14292h-1v-1h1v1zM-171 14289l-1 1v-1h1zM-164 14284v-1h1v1h-1zM-163 14283v-1h1v1h-1zM-162 14282v-1h1v1h-1zM-164 14281v-1h1l-1 1zM-160 14277l1 1l-1 1v-2zM-161 14273v-1h1v1h-1zM-201 14265h-1v-1h1v1zM-195 14264h-3h-1v-1h3l1 1zM-204 14264h-1l1 -1h1l-1 1zM-206 14263h-1v-1h1v1zM-206 14261h-1v-1h1v1zM-208 14260h-1v-1h1v1zM-204 14259h-2l-2 -1v-1l4 1v1zM-215 14257h-1v-1h1v1zM476 14712h-1v-1h1v1zM474 14712h-4v-1h4v1zM458 14712h-1v-1h1v1zM478 14711h-1v-1h1v1zM468 14711h-2v-1h2v1zM462 14711h-1v-1h1v1zM476 14710h-2v-1h3l-1 1zM457 14710h-1v-1h1v1zM478 14708h-1v-1h1v1zM438 14704h-1v-1h1v1zM437 14703h-1v-1h1v1zM434 14704l-1 -2h1h1v2h-1zM433 14702h-1v-1h1v1zM430 14702h-2v-2h2l1 2h-1zM428 14700h-1v-1h1v1zM426 14702l-2 -1l-1 -1l1 -1l2 1h1v2h-1zM444 14696h-1v-1h1v1zM441 14697l-1 -1v-1l1 1v1zM439 14695h-1v-1h1v1zM444 14694h-1v-1h1v1zM437 14694h-1v-1h1v1zM440 14692h-1v-1h1v1zM437 14690h-1v-1h1v1zM437 14685h-1v-1h1v1zM438 14684h-1v-1h1v1zM437 14683h-1v-1h1v1zM439 14681h-1v-1h1v1zM438 14679h-1v-1h1v1zM413 14699h-1l-1 -1l1 -1l1 1v1zM407 14698h-1v-1h1v1zM410 14699h-2v-3l2 2v1zM406 14697h-1v-1h1v1zM400 14696h-1v-1h1v1zM398 14697h-2v-1v-1l2 1v1zM435 14693h-1v-1h1v1zM436 14691l-2 1h-2v-2h4v1zM430 14691h-1v-1h1v1zM432 14690h-2v-1h2v1zM428 14691h-2v-1l2 -1v1v1zM416 14690h-2v-1h2v1zM412 14690h-1v-1h1v1zM409 14690h-1v-1h1v1zM407 14690h-1v-1h1v1zM417 14689h-1v-1h1v1zM418 14688h-1v-1h1v1zM412 14688h-1l1 -1h1l-1 1zM410 14688h-1v-1h1v1zM402 14688h-2v-1h2v1zM399 14688h-1v-1h1v1zM421 14687h-1v-1h1v1zM414 14687h-1v-1h1v1zM418 14686h-1l1 -1h1l-1 1zM395 14687l-1 -1v-1l1 1v1zM392 14686h-1l1 -1h1l-1 1zM433 14685h-1v-1h1v1zM415 14685h-1v-1h1v1zM406 14685h-1l1 -1h1l-1 1zM404 14685h-1v-1h1v1zM401 14685h-1v-1h1v1zM399 14685h-1v-1h1v1zM394 14685h-1v-1h1v1zM390 14685h-2v-1h2v1zM398 14684h-3l1 -1h2v1zM391 14684h-1v-1h1v1zM386 14684h-1v-1h1v1zM430 14683h-2v-1h2v1zM426 14683h-1v-1h1v1zM394 14683h-1l1 -1h1l-1 1zM388 14683h-1v-1h1v1zM385 14683h-1v-1h1v1zM434 14683h-3l1 -1l2 -1v1v1zM418 14682h-1v-1h1v1zM392 14682h-1l1 -1h1l-1 1zM435 14681h-1v-1h1v1zM416 14681h-1v-1h1v1zM383 14681h-1v-1h1v1zM388 14681l-2 -1h-1l1 -1h2l1 1l-1 1zM377 14680h-1v-1h1v1zM374 14680h-2v-1h2v1zM436 14679h-2v-1h2v1zM431 14680h-2v-2h4l-1 1l-1 1zM428 14679h-1v-1h1v1zM426 14679h-1v-1h1v1zM410 14679h-2v-1h2v1zM399 14679h-1v-1h1v1zM381 14678h3h1l-1 1h-3v-1zM375 14679h-1v-1h1v1zM421 14679l-1 -1v-1l1 1v1zM418 14678h-1v-1h1v1zM405 14678h-1v-1h1v1zM403 14678h-1v-1h1v1zM388 14678h-1v-1h1v1zM416 14677h-1v-1h1v1zM398 14677h-3l1 -1h3l-1 1zM394 14677h-1v-1h1v1zM384 14677h-2v-1h2v1zM406 14676h-1v-1h1v1zM392 14676h-6v-1h6v1zM374 14676h-2v-1h2v1zM392 14673h-4v-1h4v1zM384 14672h-4v-1h5l-1 1zM373 14671h-1v-1h1v1zM396 14668h-1v-1h1v1zM393 14668h-1v-1h1v1zM390 14668h-1v-1h1v1zM391 14667h-1v-1h1v1zM388 14666v2h-1v-2h1zM386 14668h-3l1 -1l2 -1v2zM388 14665l1 1h-1v-1zM387 14666h-1l1 -1v1zM382 14666h-1v-1h1v1zM382 14668h-2l-4 -1v-1l2 -1l2 1l2 2zM387 14665v-1l1 -1v1v1h-1zM380 14664h-1v-1h1v1zM328 14687h-3l1 -1h3l-1 1zM325 14686h-1v-1h1v1zM325 14684h-1v-1l1 1zM372 14679h-2v-1h2v1zM330 14678v-1l1 1h-1zM371 14677h-1v-1h1v1zM369 14676h-1v-1h1v1zM366 14675h-1v-1h1v1zM371 14674h-1v-1h1v1zM368 14675l-1 -1l1 -1l1 1l-1 1zM370 14673h-1v-1h1v1zM366 14673h-1v-1h1v1zM371 14671h-1v-1h1v1zM362 14670h-1v-1h1v1zM370 14669h-1v-1h1v1zM369 14668h-1v-1h1v1zM362 14668h-1v-1h1v1zM359 14669l-1 -1v-1l1 1v1zM375 14667h-5v-1l4 -1v-1h1v3zM363 14667h-1v-1h1v1zM358 14667h-1v-1h1v1zM370 14665h-4v-1h4v1zM365 14665h-1v-1h1v1zM359 14665h-1v-1h1v1zM357 14665h-1v-1h1v1zM362 14664h-1v-1h1v1zM360 14664h-1v-1h1v1zM364 14662h-1v-1h1v1zM351 14662h-1v-1h1v1zM362 14662h-2v-2l2 2zM359 14663h-2v-1l1 -2h1v3zM353 14661h-1v-1h1v1zM354 14662v-3h4v1h-2l-2 2zM296 14674h-1v-1h1v1zM294 14670h1l-1 1v-1zM289 14668h-1v-1h1v1zM286 14668h-1v-1h1v1zM262 14655h-4v-1h5l-1 1zM258 14656h-2v-2l2 2zM255 14656h-3v-1h2v-1h1v2zM251 14653h-1v-1h1v1zM256 14652h-1v-1h1v1zM261 14651h-1v-1h1v1zM266 14650h-1l1 -1h1l-1 1zM270 14649h-3l1 -1h3l-1 1zM274 14648h-2v-1h3l-1 1zM247 14627h-1v-1h1v1zM251 14626h-1v-1h1v1zM255 14625h-1v-1h1v1zM253 14625h-1v-1h1v1zM248 14625h-3l1 -1h2v1zM256 14624h-1v-1h1v1zM260 14623h-1v-1h1v1zM250 14622h-1v-1h1v1zM250 14624h-2l-1 -2l1 -1l2 3zM247 14621h-1v-1h1v1zM262 14606h-1v-1h1v1zM255 14598h3v1l-5 1v-1l2 -1zM261 14597l-1 1l-2 -1h3zM261 14596h1h1l-1 1h-1v-1zM258 14597h-2v-1h2v1zM252 14598l2 -2h1v2h-3zM266 14596h-1v-1h1v1zM245 14596h-1v-1h1v1zM264 14596l-1 -1v-1h1v2zM258 14596v-1l4 -1l-1 2h-3zM266 14594h-1l1 -1v1zM261 14593h-1v-1h1v1zM264 14592h-1v-1h1v1zM262 14591h-1l1 -1h1l-1 1zM256 14591h-1l1 -1h1l-1 1zM254 14591h-1v-1h1v1zM252 14591h-1v-1h1v1zM268 14591l-1 -1v-1l1 1v1zM258 14593l-1 -1l3 -3l1 1h-1v2l-2 1zM266 14591l-1 -1l-3 -1h-1l1 -1h4v3zM251 14589h-1v-1h1v1zM275 14588h-1v-1h1v1zM270 14589l-4 -1v-1h2l2 1v1zM254 14588h-2v-1h2v1zM249 14588h-1v-1h1v1zM272 14587h-2v-1h2v1zM257 14587h-1v-1h1v1zM281 14586h-1v-1h1v1zM277 14586h-1v-1h1v1zM260 14587l-2 -1h-1l1 -1l4 -1l-2 3zM266 14584h-1l1 -1h1l-1 1zM264 14586h-1v-3l1 1v2zM268 14583h-1v-1l1 -1l1 1l-1 1zM257 14582h-1v-1h1v1zM267 14581h-1v-1h1v1zM260 14581h-1v-1h1v1zM280 14580h-1v-1h1v1zM274 14579l1 1v1l-2 -1h1v-1zM273 14580h-1l-2 2h-1l3 -3h1v1zM264 14580h-2v-1h2v1zM276 14580l-1 -2h1h1v2h-1zM273 14579v-1h1v1h-1zM268 14579h-3l1 -1h2v1zM259 14574h-1v-1h1v1zM258 14573h-1v-1h1v1zM274 14572h-1v-1h1v1zM276 14570h-2v-1h2v1zM271 14571h-3v-1h2v-1l1 1v1zM273 14569h-1v-1h1v1zM261 14569h-1v-1h1v1zM266 14568h-1v-1h1v1zM257 14568h-1v-1h1v1zM279 14567h-1v-1h1v1zM270 14567h-2v-1h3l-1 1zM276 14566h-1v-1h1v1zM262 14566h-1l1 -1h1l-1 1zM284 14565h-1v-1h1v1zM282 14566l-1 -1v-1h1v2zM280 14565h-2v-1h2v1zM266 14565h-2v-1h2v1zM291 14566h-1v-3l1 1v2zM268 14564h-1l1 -1h1l-1 1zM288 14565l-4 -1v-1h2l2 -1v3zM270 14563h-1l1 -1h1l-1 1zM249 14562h-1v-1h1v1zM276 14561h-2v-1h2v1zM268 14560h-3l1 -1h3l-1 1zM260 14559l1 1h-1v-1zM248 14561l-1 -1v-1l1 1v1zM275 14559h-1v-1h1v1zM273 14559h-1v-1h1v1zM264 14559h-1v-1h1v1zM280 14558h-3l1 -1h2v1zM270 14559h-1v-1l1 -1l1 1l-1 1zM265 14553h-1v-1h1v1zM270 14552h-1v-1h1v1zM311 14428h-1v-1h1v1zM290 14430h-1v-1h1v1zM294 14429h-1v-1h1v1zM292 14428v1l-1 -1h1zM292 14427l1 1h-1v-1zM243 14657h-1v-1h1v1zM224 14656h-2v-1h2v1zM242 14655h-1l1 -1h1l-1 1zM240 14654h-4v-2h2l2 1v1zM244 14652v1h-4v-1l3 -1v1h1zM240 14646h-1v-1h1v1zM220 14642h-1l1 -1h1l-1 1zM223 14641h-1v-1h1v1zM222 14640h-1v-1h1v1zM234 14637h-1v-1h1v1zM238 14637l-1 -1v-1l1 1v1zM236 14636h-2v-1h2v1zM233 14636h-1v-1h1v1zM216 14636h-1v-1h1v1zM218 14636l-2 -2h2h1l-1 2zM222 14635h-2v-2h2l1 1l-1 1zM214 14635l-1 -1l1 -1l1 1l-1 1zM226 14633h-1v-1h1v1zM218 14633h-2v-1h3l-1 1zM231 14632h-1v-1h1v1zM222 14632h-3l1 -1h2v1zM234 14631h-1v-1h1v1zM226 14631h-2v-1h3l-1 1zM238 14630h-1v-1h1v1zM230 14630h-2v-1h3l-1 1zM242 14629h-3l1 -1h3l-1 1zM234 14629h-3l1 -1h2v1zM244 14628h-1l1 -1h1l-1 1zM236 14628h-1l1 -1h1l-1 1zM240 14627h-2v-1h3l-1 1zM244 14626h-2v-1h2v1zM232 14626h-2v-1h3l-1 1zM225 14620l1 -1h1v1h-2zM227 14619v-1l2 1h-2zM242 14617h-2v-1v-1l2 1v1zM236 14614h-1v-1h1v1zM232 14614h-1l1 -1h1l-1 1zM228 14613h2v1l-2 1l-1 -1h1v-1zM241 14613h-1v-1h1v1zM239 14613h-1v-1h1v1zM235 14613h-1v-1h1v1zM243 14612h-1v-1h1v1zM240 14612h-1v-1h1v1zM232 14612h-3l1 -1h3l-1 1zM238 14611h-3l1 -1h3l-1 1zM244 14611l-2 -1v-1h2v1v1zM238 14607h-4v-1h4v1zM239 14606h-1v-1h1v1zM234 14606h-2l2 -2h2v1l-2 1z"/></svg>