<svg xmlns="http://www.w3.org/2000/svg" viewBox="-403 15778 843 669"><g class="s" data-r fill="#000" fill-rule="evenodd"><path class="chunk" data-i="0" d="M152 16265h-4v-1h2l-1 -2h1h2l-1 2h1h1l-1 1zM156 16268l-2 1l-1 -1h1l-1 -6l1 -1l2 2h4v-1l2 1h1v1l-3 3h-1l-3 1zM156 16265v-1h-1v1h1zM158 16266h2v-1h-4v2l2 -1zM156 16268v-1h-1v1h1zM56 16269v-2l1 -1h-1v-1h2v1h1v3h-3zM56 16265h-2l-2 1l-2 -2h-1l1 -1l2 -1v2l2 -2v-1h2v1l-1 2l1 1zM56 16261v-1l-2 -1h-2l-2 2v-1h-2l-2 3l-1 -1l1 -2h-1l1 -2v1l4 -1l3 -1h1l2 -1l-1 -2h1h1v2l-1 2h2l1 2l1 2l-4 -1zM46 16258l1 -3v-2h2l-1 1l1 2h-1h-1v2h-1zM50 16253l1 -1h-1l-1 -2h1l1 -1l1 1v1h2l-1 5l-1 -2l-2 1v-1v-1zM53 16254v-2h-1v1l1 1zM-50 16297l-1 -1l1 -1l7 -7v-1h1l1 1h-1l1 2h-1h-1v2h-2v2l-5 2v1zM-41 16286h-2v-2h-2l-6 -1v-2l3 1h2v-1l2 2h2l1 1v2zM-59 16279v-1l1 -1l2 -1h2l3 -1l-1 1h-1l-4 2l-2 1z"/><path class="chunk" data-i="1" d="M-117 16287h-1v-1h-1v-1l5 1h-2h-1v1zM-92 16245v-1h-1v1h1zM-90 16246v-1h-1v1h1zM-90 16248l-2 -2l-12 -1l-1 -1l1 -1l2 1v-1h2v-1l2 1l8 1l4 4v2l-2 1l-4 3h-2v2h-2l-2 2h-2l-2 2h-2l-2 2l-2 2l-2 -1v1l-2 -1l-1 1h1v2l-3 -2l1 -2h2l3 -2h3l2 -3l2 -1l4 -2l6 -4l2 -1l1 -1h-1zM-100 16258v-1h-1v1h1zM-102 16259v-1h-1v1h1zM-115 16244h-4h-1h-1l3 -3l1 1v2h1v-1h5l-1 1h-3zM-117 16240h-1l-1 -2l1 -1h2v1h-1v2zM-262 16286v-2h1l1 1v1h-2zM-260 16283v-1l2 -1l2 -2l2 1v1l-2 2l-3 1l-1 -1zM-272 16294v-2h1l1 1v1h-2zM-312 16254l2 -2h1l9 -6h2v2h-2l-3 2h-1l-3 2v1h-1l-2 1h-2zM-298 16246l2 -2h1l6 -3v1h1v1h-2v1l-2 -1l-2 2l-4 1zM-288 16245v-1l2 -1l1 -1l4 -1l4 -1l-1 1h-1l-5 3h-2l-2 1z"/><path class="chunk" data-i="2" d="M-308 16246l2 -2l5 -4h2l-1 2l-6 4h-2zM-298 16239v-1l2 -2h1v-1h2v2h-1l-2 2h-2zM-105 16226h1v-1h1v1l-1 1h-1v-1zM-96 16220v-1h-1v1h1zM-98 16222l1 -2h-1l-1 1l1 1zM-106 16228l-2 3h-2l-2 -1v2h-2v-2l2 -1l2 -1v-2h2v-2l2 -1l2 -1l5 -4h2l1 -4v-1l1 1v1h2l-1 4v2l-5 3h-2l1 -2v-1l-3 3h-1v1l-1 1h-1v1l-1 1h1zM-108 16229v-1h-1v1h1zM-191 16229v-2h2l1 2v2h-2v-1v-1h-1zM-305 16235v-1h1l2 -1l1 1l-1 1l-2 1v-1h-1zM-297 16230l1 -2h2l-1 2h1v1h-2l-1 -1zM-291 16231h1l2 -1v-1l1 -1l1 -1l1 1l-7 7h-1v-1l2 -2v-1zM-291 16229h-1l-2 -1v-1h2v1h1v1z"/><path class="chunk" data-i="3" d="M-290 16229v-1h-1l-1 -1v-1l3 1v1h1v1h-2zM-288 16228v-1h-1v-1l1 -1l1 1v2h-1zM-313 16222v2l-1 2h-2l-1 -2l1 -3h2v1h1zM-314 16225v-1l-1 -1v1l1 1zM-260 16201h-8l-3 -1l-8 -4h-1l-5 -4l-1 -3l1 -3v-2l3 -2v1h2v-1l2 -2l15 1l2 1l5 2h2l3 4l1 2h2l2 2v4l-2 1l-2 1l-6 2l-4 1zM172 16170l-2 -1v1l-2 -2h-2l1 -3v-1l1 -2l2 2h2l1 2v2h1l-2 2zM140 16168h-2l-1 -2v-1l-1 -3l1 -3h1l2 -1l3 4v4l-3 2zM67 16165v-1h-1v1h1zM74 16173v-1h-1v1h1zM67 16178v-1h-1v1h1zM65 16179v-1h-1v1h1zM64 16181v-1h-1v1h1zM63 16182v-1h-1v1h1zM61 16183v-1h-1v1h1zM62 16188v-1l-1 1h-2l-1 -2v-2l1 -2l5 -5h2l2 -2v1l2 -1l1 -1h-1l2 -2v-1l-4 -1l-3 -4l1 -4l4 -10l3 -6l1 -2l-4 -4v-2h-1l1 -2h-1l1 -2h2l2 2h-1v2l4 4l1 2v2l-4 6l-4 9l-1 3h-1l1 2v1l5 1l1 2v1l1 3h-2l-4 5h-3v2h-1l-3 3v2l4 4l-1 1l-2 -2h-1v-1h-1zM-227 16150l-7 1v-1l2 -1v1l2 -2l4 -1l9 -3l3 -1v5h-5h-3l1 2h-1h-5zM-229 16150v-1h-1v1h1z"/><path class="chunk" data-i="4" d="M-228 16129h-4l-1 -1h1v-2l2 -1l4 -1l5 -1v1l1 2h-1v2h-1l-2 1v-1h-2l-2 1zM-257 16156l-18 1v-2l-3 -1l-4 -1l-2 -5l-1 -2l-1 -2h3l1 2v2l1 2l1 1l10 2h13l2 -1h2l3 -1l1 1v2l-8 2zM-266 16139l-3 -3h1v-2h2v-2l2 -2l8 -1l2 -1v1h2v3l-2 2l-5 2l-3 2h-4v1zM-331 16086h-1l1 -8l1 -6h1l-1 4v3l-1 7zM-276 16073l-3 -1h-1h-1l1 -1l3 1h1h1l-1 1zM-304 16077h-3l1 -4l3 -8h2l-1 3l-2 4l-1 2h1v-1l1 1l1 2l-2 1zM-305 16076v-2h-1v1l1 1zM-342 16111l-1 -1l-2 -1v-3l-2 -2l-1 -8l2 2l1 2h-1l1 2l1 4h1l-1 2h2l1 2l-1 1zM-277 16058v-1h-1v1h1zM-289 16064v-1h-1v1h1zM-280 16067v-1l-1 -1v1l1 1zM-294 16066v-1h2v-1h-2v-2v-1h-1v-2h2v-2h1v-1h1l5 -10l6 -6l2 2h-2l-4 4l-1 2l-5 9l-1 2l-1 3h2l10 -6l10 -6l2 -1l2 -2h2l4 -4h1l4 -1v2l-3 3v-1h-1v2l-3 2h-2l-1 2l-1 1v-1l-2 1l-1 1h1v1h-2v-1l-4 3h-1v2h-2v2h-2l-1 2v2h2v1l-1 2l2 2h-1h-2v-1l-1 1l-1 1l-1 -1l1 -6l2 -2v-1h-2l-2 2l-2 1h-2l-2 1l-2 2v-1h-2zM-261 16049v-1h-1v1h1z"/><path class="chunk" data-i="6" d="M181 16214l-3 2l-13 3l-7 1v-1l-2 1v-1l-3 -1l-6 -2l-1 -1l-10 -9v-6l2 -1h1v5l3 4h2l2 3h2l2 2h2l2 2l4 -1l7 -2l19 -6l4 -1l2 1v4l-2 2h-1l-6 2z"/><path class="chunk" data-i="8" d="M-94 16380h1v2h1v-1h2v-1h-1l1 -1l1 -1h1v1h1v2l-5 2l-2 3l-4 -1h-2v-3l2 -2v1l1 -1h1v2h-1l1 1l2 -1v-2zM-98 16383v-1h-1v1h1zM-94 16384v-1h-1v1h1zM-97 16385v-1h-1v1h1zM-106 16373h-2v-1h1l1 -4v-1l1 1l1 2l-2 2v1zM138 16359l-4 -1v1l-2 -1l-2 1v-1l-6 1l-1 -1v-2h6l-1 -1h-1l1 -1l4 1v1h1v-2h3l2 2l2 2l-2 1zM137 16357v-1h-1v1h1zM130 16323l-2 2l-3 1l-3 1h-2l-2 -3l4 -4v-1h2l-1 1l1 2v1l3 -1l3 1zM124 16324v-1h-1v1h1zM74 16331h-3l1 -2v-1v-1l2 1v-1l4 1l-2 2v-1l-2 2zM73 16330v-1h-1v1h1zM105 16321l-1 2l-5 -1v-2h3v-2l2 1v-1l1 -1v1h1l-1 2h-1v1h1zM109 16312l-1 -2h1v-2h1l1 2v1h-1v1h-1zM102 16312h-1l1 -2l1 -2l1 1v1l-2 2zM116 16310v-1h-1v1h1zM115 16311v-1h-1v1h1zM121 16307v-1h-1v1h1zM122 16309v-1h-1v1h1zM120 16311l1 -1h-1l-1 1h1zM122 16312v-1h-1v1h1zM120 16313v-1h-1v1h1zM119 16314v-1h-1v1h1zM120 16315v-1h-1v1h1zM122 16315l-1 3h-1l-4 4l-4 1h-2v-1h1v-2l7 -8v-2l-2 1l-2 1l-6 6v1l-2 -1v-1l1 -1h1v-1l1 -1v-1h1v-1h1v-1l3 -3h2v-1h-2v-1l2 -2l2 1h1l1 1v-1h2v1h1v-2h1l1 2h-1v1h1v3h-1v-2l-2 2v1h1v3h-1v1zM119 16316v-1h-1v1h1zM117 16319v-1h-1v1h1zM-60 16332v1h-2l-1 -1l1 -1h1v1h1z"/><path class="chunk" data-i="9" d="M-67 16335l-1 -1l-1 -2l1 -1v1l2 -1v1l-1 2v1zM-44 16307l-1 -1v-2h-1h-1l1 -2l2 2l1 2l-1 1zM-98 16355v3l-2 -1v1v1l-1 -1v-3l1 1l2 -1zM-93 16352v-1h-1v1h1zM-95 16354v-2h-1l-1 2h1h1zM-93 16354v-1h-1v1h1zM-101 16355h-1v5h-3l-1 -4h-1l1 -2h2l10 -6h3h1h1l-1 2h1l-1 3l-3 5l-11 11v-1l2 -2v-1h-2v-1l2 -2h2v-2l2 -1h1v-1l1 -2l-2 -1l-3 -1v1zM-95 16356v-1h-1v1h1zM-95 16359v-1h-1v1h1zM-96 16360v-1h-1v1h1zM-98 16362v-1h-1v1h1zM-99 16363v-1h-1v1h1zM-101 16364v-1h-1v1h1zM-78 16362l1 -1h-1l-1 1h1zM-76 16364v-1h-1v1h1zM-81 16369v-1h-1v1h1zM-90 16377v-1h-1v1h1zM-86 16378v-2h-1v1l1 1zM-79 16379v-1h-1v1h1zM-79 16382v-1h-1v1h1zM-81 16383l-1 -1v-2l2 1v-1v-1h-7v-1h-1v-1l-1 1l-3 1h-2v1h-2v-1h-1v-1h2l4 -2l2 -1l1 1v-1l1 -1v-2h1v2h1l1 -4h1l-2 -2v-4l3 -4l6 -1v-11l-3 2l-9 16l-2 -1l1 -1h-1v-1l1 -2h1l1 -1h-1l1 -2l5 -8v-2l4 -4h-1l1 -1l2 -2h2l2 1v2l2 2l1 10l1 7h2v1h-2l2 2v2l4 4h1l8 4l1 1l2 1l1 4l-3 3l-2 1v-1h-2l-4 -3l-1 2l-1 2l-2 3l-8 1l-2 -2l-4 1l-3 -3v-2h1l-1 -1zM-74 16367v-1h-1v1h1zM-72 16373l1 -1l-2 -2v-2h-3v1h2v1h-1l1 2v1h2zM-65 16379v-1h-1v1h1zM-69 16381v-1h-1v1h1zM-63 16382v-1h-1v1h1zM-69 16383v-1h-1v1h1zM-66 16383v-1h-1v1h1zM-64 16383v-1h-1v1h1zM-67 16384v-1h-1v1h1zM-65 16384v-1h-1v1h1zM-72 16385v-1h-1v1h1zM-70 16385v-1h-1v1h1zM-70 16387v-1h-1v1h1zM-84 16339l-2 -1l-2 1l-1 -1v-2l3 -2h1v3h1l1 1l-1 1zM-86 16337v-1h-1v1h1zM-126 16332v-1l1 -2h2v2l-1 3l-2 -1l1 -1h-1zM-143 16349l1 1l-2 2v-2v-2v1h1zM-155 16347h1l1 1l-3 3l-7 3l-4 2h-6v-2l-2 -2h1v-2l2 -2h2h3l3 -2l2 -1l3 2l1 1v-1h2v1l1 -1zM-145 16347h-4l1 -1h2v-2l2 -1l1 1l-1 1h-1v2z"/><path class="chunk" data-i="10" d="M-54 16301l-1 -1l1 -1h1v-2h1l1 1h-1l1 2h-1l-2 1zM-114 16297v-1h-1v1h1zM-104 16297l1 -1h-1l-1 1h1zM-112 16299v-1h-1v1h1zM-109 16299v-1h-1v1h1zM-103 16299v-1h-1v1h1zM-110 16300v-1h-1v1h1zM-114 16303v-1h-1v1h1zM-111 16303v-1h-1v1h1zM-115 16304v-1h-1v1h1zM-117 16307l-1 2l-1 -1l1 -3v-1l3 -4h1l-1 -1l-1 -1v-2l2 -1h1v1l1 2l2 -2l8 -1l1 1h-1v1h2v1l-2 1l-4 1v1l-2 -1h-1v2l-1 2h-2v-1l-1 1h-1l-2 2v-2h-1v2h-1v1h1zM-286 16305l1 -1l1 -1v1l2 -2h-1l5 -5h1l-1 2v2h-2v1l-2 3l-4 1v-1zM-184 16225v-1h-1v1h1zM-164 16263l1 -1l-1 -1l-1 1v1h1zM-163 16265v-1h-1v1h1zM-163 16283v-1h-1v1h1zM-128 16344l5 -2h1l4 -4l-1 -6l-2 -2l-1 -2h-2v-5l-4 -12l-1 -3l-3 -5l-1 -4l-5 -12v-3l-2 1l-6 1v2l2 7l2 7l8 22v2l4 4v2l-2 2h-1v2l2 6l1 2h2zM-161 16288v-1h-1v1h1zM-135 16288v-1h-1v1h1zM-46 16266v-1h-1v1h1zM-42 16267v-1h-4v1h4zM-69 16272v-1h-1v1h1zM-67 16272v-1h-1v1h1zM-54 16272v-1h-1v1h1zM-66 16276l1 -1h-1l-1 1h1zM-67 16278v-2h-1v1l1 1zM-42 16280v-1h-1v1h1zM-65 16281l1 -1l-2 -2l-2 2l-1 -4l1 -2h2v-1h-2v-1h-1v2v8v4h1h1l-1 -2v-1l2 1v-2h1v-1zM-63 16283v-1l-1 -1v1l1 1zM-37 16282v-1h-1v1h1zM-62 16286l1 -2h-3l-4 4l-1 10l-1 8l2 2v1l2 -2h2l1 1h-1h-1v2l-1 2l-4 -3h-1v1l1 2l-4 1l-1 1l-1 4l-2 1l-1 1h1v1h-2l-1 1l-1 4h-4l-2 2h-3l-12 6l-5 2l-2 1l-1 7l-1 1l-5 1h-2l-1 5l-3 12v11v2h1l3 2l1 2v2l-1 2l3 2h1l16 6l3 1l10 1l2 -1v1l2 -1l6 1v1l2 -1v1l13 -3l31 -12l5 -2l1 -1l2 -1l-1 -4h-3l-2 -2h-2l-5 -2l-5 -4l-5 -4l-2 -5l-1 -3v-13v-4l4 -7v-2l3 -2l1 -4l3 -10l3 -6v-4v-12l-1 -4l-1 -1l-6 -1l-2 -3l-5 -1v-3h-2l-1 -2l-2 1v-1h-2v-3h-2v-2h-2v1l-1 -1v-1l-2 1h-1h-1l1 2v1l2 3v4l2 1h1l-1 1l1 2v3l4 1h5v1l-9 -1l-1 3l-2 5v2l-2 -2h1l-1 -2l1 -2l1 -2h-4l2 -2h1l1 1v-1zM-104 16312h1v2l1 1h2l2 2h4l2 -1v1l2 -1v1h2l1 1v2h1l5 -6l4 -6l1 -3l2 -4v-5v-9l-2 -17h1l-1 -2l1 -2v-2h-1l-2 -2v-4l2 -2h10l2 1v-1l12 1l2 1v-1l2 1l3 1l13 4l8 3v2h2l1 6l-3 2h-2l-6 -6h-1l-6 -2l-3 -1v1l6 3l6 3l4 4l1 2l1 4l1 8l1 2h-1v8l-1 2h2l-1 5l-3 5v2l-4 4v3l-3 9l-1 2h1l-1 2l1 5l1 2l6 13l2 6l1 2l1 2h2l2 2h2l2 2l-1 4v2h-3l-4 3l-2 1l-5 4l-7 2l-18 8l-12 4l-3 1h-30l-5 -1l-15 -5l-2 -1h-1l-3 -2l-1 -2l-2 -7l-2 1l-12 7l-4 3v2l-2 2v6l2 2v2l2 2l6 1l2 1v-1h3l7 2v1l1 2h-1v2l2 2h4l2 -1v1l2 -1l4 -1l12 -3h2l10 -3l3 1h1l2 2l7 1h9h2v1l2 -1l29 -5l2 -1h1l2 -1v1l4 -3l4 -1l2 -2h2l2 -3h2l4 -3v-2h2l1 -2v-1l2 -5v-2l-2 -2v-4l1 -2h2h3h2l1 4v7l-1 4l-1 4l-1 1l-3 4l-18 10l-2 2l-11 2l-7 1l-2 1v-1l-20 3h-17l-6 -1l-5 -1l-27 6h-9h-2l-2 -2l-1 -5l-6 -1l-5 -1l-4 -1l-4 -4v-2l-2 -5v-4v-3l2 -2l1 -2l3 -3l12 -6l3 -1l2 -4l1 -1v1l2 -2l1 -2l-1 -1v1h-1v-3v-5v-3l2 -7l1 -3v-4h-2l-6 1l-1 -2l-3 -15l-5 -13l-8 -32l-1 -2h-1l-1 6l-2 2h-2l-4 1l-4 -5l-1 -2l-1 -2v-2h1l-1 -2h1l-1 -2l1 -2h-1l1 -2v-5l1 1v6l1 2h-1v3h2v3h-1l1 1h1l1 4h2v1l3 -2v-2l1 -3v-3v-2l2 -2l2 2l1 4h2h3h4v-2v-1l2 1l2 -2v-2l-3 -2l1 -4v-2l-1 -4l-2 -3h-2v1l2 2v3h-3l-3 -3v-6h-2l-3 -1l-2 -1v1l-2 -1v1h-2l-2 1l1 8l-1 2h-3v-2h-3l-3 -4v-4l3 -2l-1 -2v-2l-2 -2l-1 -3l-2 -5l-4 -9v-2l-8 -2l-2 -3v-1l-1 -3h3v2l2 2l7 1v1l4 4v2l2 2l2 5l4 12h2l3 -1l4 -1v-2l1 2h5v-2l-4 -12l-2 1l-3 1l-1 3l-1 2l2 2h-1v1l-2 -1h-2v-2l-1 -2h1l1 -4l5 -5l6 -1l2 2v2l3 9l2 9l6 3l7 9v2v3v2l-1 1l-2 2v4l-3 2l1 3l5 12l5 11l3 8l1 4l1 2h3l5 9v1v1l2 -1h1l7 -4l4 -2h2l2 -1l1 -1l-1 -1h-6l-2 -2l-3 -3h1v-1h-2l-1 -1v-2h1l-1 -2h1h1l1 1v-1zM-87 16321v-1h-1v1h1zM-82 16324v-1h-1v1h1zM-83 16325v-1h-1v1h1zM-26 16303v-1h-1v1h1zM-29 16304v-1h-1v1h1zM-69 16308v-1h-1v1h1zM-31 16311v-1h-1v1h1zM-42 16343v-1h-1v1h1zM-42 16347v-3h-2l1 2l1 1zM-38 16357l1 -1l-1 -4l-2 -2v-2l-2 -1v1l1 4l3 5zM-36 16358v-1h-1v1h1zM-35 16359v-1h-1v1h1zM-27 16363v-1h-1v1h1zM-126 16369v-1h-1v1h1zM-132 16382v-1h-1v1h1zM-135 16384v-1h-1v1h1zM-26 16364v-1h-1v1h1zM-20 16377v-1h-1v1h1zM-343 15980v-1h-1v1h1zM-342 15982v-1h-1v1h1zM-341 15983v-1h-1v1h1zM-340 15990v-1h-1v1h1zM-339 15992v-1h-1v1h1zM-350 16048l2 -2h2l12 -7l2 -3h-1l-1 -3v-2l-1 -1l-3 -3l-1 -1l-12 -5l-4 -1h-6l-3 1l-4 3v2l-2 2v2l-2 3v3l2 5l1 1l3 3l3 1l5 1l8 1zM-338 16047v-1h-1v1h1zM-341 16049v-1h-1v1h1zM-340 16050v2l-2 2l-4 1v1l-2 -1h-2l-8 9l-2 4l-3 2l-1 5l-1 7l-1 2h1l-1 2l1 10l-1 2h1l-1 2h2l1 4l1 4l1 2l3 2l2 1l2 2h2l1 1h-1l1 2h-1l-2 -1v1l-2 -1h-2l-2 -2h-2l-3 -3l-1 -2l-1 -4l-1 -4v-16l1 -2h-1l1 -2l1 -2h-1l1 -2v-1l-3 3l-1 1l-2 4v2l-1 30l1 5l2 9v1l2 2h3l3 1l13 1l2 -7l11 -21l5 -8l3 -3l2 -1l12 -6l8 -4l4 -2l6 -2l14 -6h4l4 -1l2 -1v1l10 -1h14l2 -1v1h6l5 2l6 2l3 1l2 2l7 5v2l3 4l2 1l3 1l1 -5l3 -10v-8l-3 -9l-1 -2l-2 -2l-3 -7l-2 -3l-8 -10l-6 -1l-2 -2h-1l-5 -2l-6 -1l-2 -1v1l-2 -1l-9 -3h-2l-3 -1v-1l-2 1v-1l-16 -2l-2 1v-1l-10 1v1l-2 -1v1v1l-2 -1l-2 2l-4 1h-2v1l-2 -1v1v1l-3 1l-3 1h-2v1l-2 -1l-2 2l-1 1l-4 1l-3 1v2l-2 1v-1l-2 1l-4 3l-2 2l-1 4h-1v-2l-2 -1v1v1l-1 1h1zM-366 16091v-1h-1v1h1zM-366 16094v-2h-1v1l1 1zM-366 16097v-1h-1v1h1zM-365 16102v-1h-1v1h1zM-365 16104v-1h-1v1h1zM-204 16185l6 -10l2 -7v-7v-2v-5l-1 -6l-3 -4v-2h-2l-3 -10l1 -5l-4 -11l-2 -4l-1 -2l-9 -14l-2 -2v-2l1 -2l-3 -1l-5 -2l-3 -1l-2 -2h-1l-2 -1l-3 -1l-9 -2l-13 1l-16 2l-4 1l-7 2l-4 2l-6 2l-7 4l-8 4l-7 6l-3 1l-1 1l-5 7l-8 16v1l-2 2v4h2l2 2v4l-4 4h1v4h-1l1 2l1 7l2 10l2 6v3l-1 2l2 2h-1h-1l1 2h-1l5 5l9 7l3 2l6 6h2l2 2h1l2 2l15 6h2l2 1v-1l2 1l2 1l2 2v1l2 -1l3 1h1l1 1h-1l-2 2h2l2 1l6 2v-1l2 1v-1h2l2 1l4 -1l10 -4l15 -6l3 -1l4 -4l2 -2l5 -3l3 -2l1 -2l6 -8l3 -7zM-357 16115v-1h-1v1h1zM-336 16174v-2h-1v1l1 1zM-335 16178v-1h-1v1h1zM-319 16220v-1h-1v1h1zM-277 16220v-1h-1v1h1zM-282 16224v-1h-1v1h1zM-322 16228v-1h-1v1h1zM-321 16229v-1h-1v1h1zM-322 16230v-1h-1v1h1zM-272 16235v-1h-1v1h1zM-188 16234v-1h-1v1h1zM-337 16249l3 -8v-3h1l-1 -1l-1 1l-6 2l-3 1l-1 1v2l3 4l5 1zM-332 16241v-1h-1v1h1zM-332 16245v-1l-1 -1v1l1 1zM-333 16247v-1l-1 -1v1l1 1zM-332 16267v-1h-1v1h1zM-333 16271v-1h-1v1h1zM-332 16272v-1h-1v1h1zM-329 16238v-2h-1v1l1 1zM-331 16240v-1h-1v1h1zM-330 16241v-1h-1v1h1zM-321 16260l-3 -2l-4 1v-2h-4l-1 1v2l-1 2h2l1 1h-1h-1v1l3 3v-1h2v-2l1 -1v1l1 1l2 -3h2l1 -1h1l1 -1h-1h-1zM-301 16266v-1h-1v1h1zM-302 16267v-1h-1v1h1zM-303 16268v-1h-1v1h1zM-304 16269v-1h-1v1h1zM-305 16270v-1h-1v1h1zM-308 16273v-1h-1v1h1zM-276 16273v-1h-1v1h1zM-279 16274v-1h-1v1h1zM-277 16274v-1h-1v1h1zM-310 16275v-1h-1v1h1zM-282 16275v-1h-2v1h2zM-280 16275v-1h-1v1h1zM-311 16276v-1h-1v1h1zM-284 16276v-1h-2v1h2zM-291 16278l3 -1v-1l-6 1l-1 1h4zM-310 16279v-1h-2v1h2zM-296 16279l1 -1h-5l-1 1h5zM-302 16280v-1h-6v1h6zM-246 16275v-1h-1v1h1zM-184 16247v-1h-1v1h1zM-288 16308v-1h-1v1h1zM-222 16311l1 1v4l11 -1v-1l2 1h1l9 -3l7 -2l2 -2h1l4 -4l1 -6l1 -2h-1l1 -2h-1l-2 -30h1l-1 -2h1l-1 -2h1l-2 -8l-3 -4l-2 -10l-1 -2l-4 -9l-1 -1l-7 -7l-2 -2l-4 -1l-6 -4l-2 -1l-2 2l-4 2l-2 2l-4 1l-2 2h-4l-7 2l-7 3l-8 2h-10l-4 -1l-5 -1l-3 -1l-2 2l-2 -2v-2l-6 -2l-17 -6l-7 -4l-2 -1l-8 -7l-5 -4v-2h-2v-2h-1l-3 -2l-2 -4l-1 -2h-2l-3 -2v-3l-4 -15l-3 -22v-2l-14 -1l-5 -1l-5 -1l-1 -1v-2l-2 -2h1l-1 -2l-1 -5v-3l-1 -5l1 -32v-2l2 -4l1 -3l3 -2l4 -8l5 -6l1 -2l4 -4v-1l-3 -1l-6 -2h-2l-1 -1l-4 -3v-2l-3 -2l-1 -6v-7v-3l2 -5l4 -6l7 -3l2 -1h9l3 1l3 1h2l2 2h2l4 4l2 1l-1 -7l-3 -19l-1 -4l-1 -2v-2h1l-1 -1l-1 -1h1l-1 -2l-1 -1v-2l-1 -3h1l3 2l3 5v1l2 2v3l2 7l4 24l2 6h1l2 -6l5 -14l6 -13l4 -9l4 -20l4 -1l3 3l-1 3l-1 4v2l-1 3l-2 2l-2 2l-1 3l-2 6l-3 9l-2 4l-1 2l-2 2l-1 3l-4 9l-3 7v1l-2 2l1 1l1 -1l7 -3l2 -2l4 -1l2 -2h2l2 -1l19 -4h12l17 4l7 2l15 4l2 1l9 4h3l7 8v2l3 2l5 10l3 8l1 2l2 2v11l-1 7l-1 4l-2 2l-1 2l-1 4l-1 2l2 2l2 5l4 6l1 2l1 9l1 6l1 6l3 2v2h1l-1 2l2 2l1 3v8l1 4v10l-3 7v2l-2 2l-1 2v2l-1 2l-2 2v2l-2 2l-1 2l-1 3l-8 10l-5 2v2l3 1l2 2h4l2 2l6 3l3 3l1 2l1 2l2 3v1l1 1v1h3l1 1v-1h1v2h-1h-1l1 2v2v1l2 -1v4l-2 -1v1v1h2l2 6v5l1 2h-1l1 2l2 32h1l2 -1v1h2l-1 8l-3 7v2l-1 1l-5 5l-2 2l-3 1l-5 2l-12 2l-15 3h-2l-3 11v6l-2 4l-1 12l1 1l6 1l6 2l4 1l2 1h2l1 2l-1 6v2h-2h-2h-2v-4l-2 -1l-12 -3l-4 -1v-2h-2l1 -13l5 -23v-2l-36 -1v-1l-2 1l-2 -1v1l-2 -1h-1l1 11v2l-1 2h1l-1 2l1 3v2h2v1l2 -1l2 1l2 1v-1h4l2 2h4v2l-3 2v3h-7l-2 1l-2 -2v1l-4 -1l-5 -2l-2 -1v-2v-4v-1l2 -2v-8h-1l1 -2h-1v-6l1 -2h-1v-3l-4 -1h-2l-16 -5l-12 -5h-2l-3 -2l-9 -7l-8 -5l-7 -8l-1 -3v-12l1 -3v-2l3 -7v-4l-11 -4l-2 -5l-1 -8h2l2 -2l2 -1l5 -1l3 -1l2 -2h3l3 -9v-2l1 -2h-1l2 -2v-4h1v4h1v1h-2v2l1 3h-1v-2h-1l1 4v1l-2 -1v2l1 2h-1h-1l1 2l2 2v-4l2 -4l1 -2l3 -4l1 -2l1 -2h1v2h-1v1h1l-1 1v2l-2 2h-2l1 2h-1l1 4h1v-1l1 1l-3 3l-2 1v2l2 -1v1v1h2v1l-2 1h-4l-4 10v2l2 -1l20 -12h2v2l-2 2h-2l-17 10l-3 1v1l6 1l2 1v-1l2 1h1l1 -1l2 2l4 -1l-1 2h1l4 -1l1 -2h3l2 -2l4 -1v-2h2l5 -2l3 -1l-2 1l-15 8l-2 1v2l10 2l3 -1l16 -12l10 -7l2 -1l1 -2h-1h-1l-7 3l-3 1l2 -2h2l2 -1v-1l-1 -1v1h-2l-2 1v-1l-2 2l-2 -1v1v1l-4 1l-2 1l-2 1v-1h-1v-1h2l16 -8h3l4 -1l1 1l-1 1l-3 1h-1l-2 2l8 -2l2 1v-1h2v2l-2 2l-2 2v1l-2 -1v1h-2l-1 1v2l-5 1l-2 2l-2 1l-12 10l-4 2v-1l-1 1h-1v1h1l-3 3h-2v2h-2l-5 6l-1 1v-1h-1v2h-2v3h1l2 1v-1l9 -1l21 -6l5 -2l8 -2h2l8 -2l15 -2v2v2v2l-10 9l-4 2l-1 2v-1h-1v-2l6 -5h1v-1l5 -6l-8 1l-10 2v-1h-1v2l-5 1l-2 -1v2h-2v-1l-1 1v1l-5 1l-14 4l-11 2h-9h-2l-1 -2v-4l10 -10l-1 -1l-7 -1l-3 -1l-2 -1v1l-14 7l-2 1v1l2 2v1h-2v1h2h1l-1 2l-2 -1h-1v-1l-1 -2h-2h-1l1 2h-1l1 2v1v5v2l4 3h2l2 2l4 3h2l2 2h2l2 3l6 3l4 2l6 2l2 1l2 2l4 1h2l2 -3h1v1h1v3l6 1l3 1v-3h1l2 2v2l4 1v-1l2 1v-1l23 -3v1l-1 2l-6 1l-2 1v-1l-2 1h-4v2l2 -1h1h3h2l2 2v-1l8 1v-1l2 1l13 -1h3l1 -5v3l1 1v-1v-3zM-261 16315v-1h-1v1h1zM308 16390v-1l-2 1v-2l-2 1l-1 -1l1 -1l6 1h1l-1 1l-2 1zM288 16372h-6v-1h7l-1 1zM196 16373l-1 -1v-2h1v1h2v1h-2v1zM206 16371h-3v-2h-1l-2 1v-1h-2v1l-2 -2l10 1l1 1l-1 1zM250 16350h-5v-2h1l2 1v-1h2h1l-1 2z"/><path class="chunk" data-i="11" d="M236 16349l-4 -1h-1l1 -1h2v1l2 -1v1v1zM182 16098l1 -1h-1h-1l-3 -1l-3 2h-3v1l10 -1zM172 16100v-1h-1v1h1zM168 16113v-1h-1v1h1zM88 16239h2v-1l-3 -1l-5 -1l-3 -1l-5 -1v-1l-2 1h-12l-2 1v-1l-2 1h-2l-2 -3v-1l-3 1h-3l-1 4l3 3l20 1v-1l2 1h2v-1l2 1h4l2 -1v1l8 -1zM116 16177v-1h-1v1h1zM118 16177v21l2 7l2 5v2l2 2l1 2l1 2l5 10l5 4v5h-2l-1 1h1h1l4 2l2 1l11 3h15l7 -1l2 1v-1l15 -1l13 -3l2 -2h1l5 -2l2 -1l8 -4l6 -3l3 -3l3 -6l2 -1h1l4 -7l1 -2l2 -4v-2l-2 -2v-2l-1 -8l-1 -2h1l1 -15h-2l-2 1l-3 -2l1 -3v-3l1 -2l-2 -2v-4l3 -2h1l-1 -2l-1 -3h-1l-4 -3l-1 -3l-2 -3l-6 -8l-2 -4l-3 -3l-4 -1l-6 -6h-2l-10 -3l-4 -4h-3v2h-3l-2 -2v1l-4 -1h-2l-2 -2v1l-3 1l-4 1v2h-1l-2 1v-1v-2h1l-1 -1h-3v1l-1 1v-1l-2 1l-2 1l-6 2l-9 4h-2v2h-1l-8 8l-4 5l-4 9l-4 9l-4 12l1 6v1h-1h-1l1 2h1l1 1zM37 16238v-1h-1v1h1zM39 16239v-1h-1v1h1zM40 16242v-2h-1v1l1 1zM40 16244l1 -1h-1l-1 1h1zM83 16259v-1h-1v1h1zM84 16262v-1h-2l-1 1h3zM109 16262v-1h-1v1h1zM117 16261h-3v1h1l-1 1l-8 -1l-1 2l-1 1v2v2v1v1l2 -1l1 2l1 1v-1l2 1l1 -1l3 -6l3 -5zM86 16263v-1h-1v1h1zM84 16264l1 -1h-1l-1 1h1zM82 16266v-1h-1v1h1zM63 16267v-1h-1v1h1zM65 16269v-1h-1v1h1zM59 16269l1 1h1l-1 -4h-1v-2h1h1v2h1l1 -2l1 1l2 -1h1l-1 8h1v-2l1 -1v1v1l2 -1l2 -1l2 -1v-2h-1l1 -1l1 -1h2l1 -1l2 1l1 -2l-1 -1h-2v-1l2 -2l6 -1v-1l2 1v-1l4 1l-1 3v2h-1v-1l-1 1l-3 3l-3 1v2h-1v-1l-1 1v1h-1l-2 1v1l8 -1l5 -4l3 -6l2 -5l1 -3h1l-1 -2v-4l-9 1l-37 1v1l-3 -2l-1 -1h-2l-3 -1v-1l-3 2l1 6l2 7v2l1 1l3 3v-1h1v2h1l2 1v-1l1 2l1 1v-1h2v1h2l2 1l1 -1zM64 16270v-1h-1v1h1zM74 16271l1 -1h-1l-1 1h1zM72 16272l1 -1h-1l-1 1h1zM77 16272v-1h-1v1h1zM192 16307l6 -3l20 -14l2 -1l1 -1v-2h-1l-2 2h-4l-3 -22l-2 -2l-1 -2l-4 -8l-4 -6l-2 -2h-2l-3 2h-3v1l-2 -1v1l-34 -1h-4h-5l-5 1v1l2 2l-2 2h-1h-2h-1l-2 2h1l-1 1h-2l-4 3l-2 2l-4 5v1l-2 3h-2v1h1l-1 2v1h-2l-1 1v2l3 3v-1h1v2l5 5h2l1 3l4 6l7 4h2l2 2l2 1l5 1l10 3h14l7 -1l2 1l2 -2v1l2 -1v1h2l2 2l2 -1zM107 16287v-1h-1v1h1zM143 16247v-1h-1v1h1zM135 16251v-1h-1v1h1zM134 16252v-1h-1v1h1zM130 16253h2v-1h-1l1 -2l4 -1v1l1 -1h1l1 -1h-1v-1h2v1h1v-2h1v-1l-3 -1h-2l-1 -1l-2 -2h-2l-2 -2h-2l-5 -5l-1 -2l-6 -12v-2l-2 -6l-1 -3v-2l1 -11l-1 -2h1v-2h-1l1 -2v-4h-2l-1 -2v-15l1 -6l2 -8l2 -5l6 -15l3 -5l7 -7h2l3 -3l-1 -1h-2l-1 -1v-4l1 -1l3 -1l3 -3l2 -1l4 -3h2v-2l7 -1l3 -1l4 -3l2 -1l5 -3h1l2 -2l2 1v-1h3h6l8 2h5v1l2 -1h2l4 4h2l2 -2v1l4 1h2l3 1l13 2l1 1l1 4l2 1h2l2 -5l2 -2l6 -1l3 3v1v3v2l-1 1h-2l-1 1l-2 4l-1 2l6 3l2 1l2 -1v1h4l1 2v6l-3 2v2v10v2l-1 6l-5 2v2l2 4l2 8l2 22l-2 2l1 4l2 2v8l-2 2l-1 4l-3 2l-1 4l-2 2v2h-2l-2 5h-2l-3 5l-3 3l-1 1h-2l-6 4l-3 2h-2l-2 2l-10 3h-2l-1 1h1l1 3l3 7l1 2l5 4v3h2v-2l2 -1h2l22 3l2 1l1 6l-2 2v2h-1l-6 6l-2 2h-2v2l-2 1l-4 2v2h-2l-1 11l-1 10l-1 12l1 1v-1h3l9 -3l16 -1l1 2l-1 6l-2 2h-1l1 6l-2 1h-2l-2 2h-2v1l40 10l99 35l23 9l6 2l2 2l4 1v1l-2 2v-1l-2 -1l-4 -1l-7 -3l-5 -2l-87 -33l-68 -19l-6 1h-1l-2 2h-3l1 1h1l-1 2h-2v1l-1 -1l1 -2h-2l2 14l2 10l2 5l1 4h-1l-2 1v-1l-2 1h-1l-5 2h-4l-2 -1v1h-27v-2h-1l-2 2h-2l-25 -8h-6l-12 4h-3h-1l2 2l1 3l3 3l1 3l1 2l-2 1l-15 6l-13 6l-1 1l-2 1v2h-2l-2 1v-1h-2v-4l2 -2h2l4 -2l2 -1l2 -2h2l2 -2h2l2 -2h1l8 -4h1l2 -1l-3 -4l-1 -2l-2 -2l-8 2l-33 8l-22 6l-5 -1h-2l-2 -2v1v1l3 10l1 5l2 2h2l2 2l-2 2l-2 1l-2 -1h-2l-2 -2l-2 -9l-4 -19l2 -3h2l4 3v2l4 3v-1l9 -1l43 -9l7 -2l5 -1l-2 -3l-6 -10h-3l-10 -4l-14 -6l-8 -4l-7 -5l-3 -3l-1 -4l-1 -4l5 -6h-2v-2h3v-2h1h1l-5 -5l-8 -6l-12 -13l-2 -4l-1 -4l-1 -2h1v-2l1 -2l5 1l25 7l2 2l-2 2l-8 -1v-1l-2 1v-1l-11 -2l-4 -1l1 3l6 8h2v2l4 3l6 5l3 2v2l1 1l2 -1l3 -6l4 -4v-2l2 -2l1 -1l2 -5l1 -2l-1 -2h1l1 -2l4 -9v-3l-2 -2h-2l-2 -2h-2l-4 1v1v1l-2 -1v1l-3 1h-2l-1 1l-2 -1v1l-2 -1l-2 2h-4l-2 1v-1v-1l-2 1h-2v-1l-2 1l-6 -1v-1v-1l-2 1l-2 -2l-4 -1l-4 -1l-4 -3h-2l-4 -5v-1l-3 -6l-2 -7l-1 -16l2 -2l2 -1l2 1v-2l3 -4l1 -2h2h3l3 -1h2v1h1v-2h1l2 -1v1l2 -1v1l2 -1v1l19 1l3 1l6 2l7 2l3 1l2 -1v1l5 1l2 5l1 9l-1 2h1v3l11 1v-2l5 -4l2 2l1 2l-1 2v2l2 -1l1 -1h1v-1zM126 16257v-1h-1v1h1zM196 16101v-1h-1v1h1zM194 16102l1 -1h-3v1h2zM198 16102v-1h-2v1h2zM199 16103v-1h-1v1h1zM247 16140l-1 -6v-4l-6 -1v-1h-1l1 2l4 8l3 2zM233 16136v-1h-1v1h1zM235 16138v-1h-1v1h1zM227 16282l3 -1l10 -11h-5l-7 -2l-7 -1v3l3 14l3 -2zM212 16343v-1l8 -1v-3l-5 -1v-1l-1 -2h5l-1 -2v-2h-2v-2l2 -1h1l2 -29l1 -2l-2 -1v1l-25 16l-2 1v1l-3 3h-2l-6 5h-2l-2 -2h-1v-4h1v-1h-7v2h-2v2h-1l-1 1h1l-2 2h-1v4l-3 1l-1 1h1l-2 2v1l3 -1l10 -4h3l4 -1l2 1v2l-2 2l-5 8l-1 1h-2l-4 5v1l2 -1h3v-2h1v1l2 -1h1l11 -4h4l8 -1l2 -1v1l8 2v3l2 1zM93 16317v-1h-1v1h1zM89 16323v-1h-1v1h1zM86 16330l2 -2l-2 -1v1l-1 2h1zM90 16331v-1h-2v1h2zM86 16332l1 -1h-1l-1 1h1zM92 16333v-1h-4v1h4zM104 16334v-1h-1v1h1zM87 16335v-1h-1v1h1zM91 16335v-1h-1v1h1zM91 16345l5 -2h2v1l2 -1h2l1 -1h-1v-2h-2v-2h-2l-2 -2h-4l-2 1v-1h-8v-1l-2 1l1 2l3 4h2l2 3h3zM105 16345v-1l-1 -1v1h-2l-1 1h4zM117 16348h2l4 -2l11 -1v-1l-16 1l-2 1v-1h-3v1l3 3l1 -1zM116 16358l-2 -2l-4 -6l-4 -4l-8 1l-2 -1v2h-1l1 1l1 1l13 5l2 1l2 2h2zM165 16316v-1h-1v1h1zM163 16317v-1h-1v1h1zM167 16318v-1h-1v1h1zM166 16319v-1h-1v1h1zM161 16324l2 -2v-2h1v2h1v-2l-1 -2l-4 1v2l-2 1l-7 4h-2l-3 1l-2 2l-4 1l-5 1v-3l8 -8v-2l2 -2h-1l-2 2h-2l-2 2h-2l-4 2l-2 1v-1l1 -2l1 1l2 -1h1v-2h1l2 -2h2l2 -2h2l1 -2v-1l-6 -2l-3 -1v-1l-1 1l-2 2v1h-3v1h1v2l-3 2h-1v2h-2v-2l4 -4h-1l-4 3h-1v-1l1 -2l2 -2h2l1 -1l1 1v-1l2 -3h1l-1 -1l-2 -2l-2 -1l-3 -2l-3 -6l-2 -1l-3 -2v-1h-1l-2 -2l-4 -2l-1 2v2h-2v3h-1l-2 1v2h1l-1 1h-1l-1 2l-6 11v2h-1l1 2h-1l1 2h-1v4l-1 2h5l-3 1h-5h-1l-1 1l5 4l2 1v-1h4v-1h-2v-1h3l1 1l1 -1h3l10 -3v1l-2 2h-4l-12 4h-1l1 2h2v1l2 -1l2 1h1l1 1v-1l16 -1v-1l2 1h2l2 -1v1h2l1 1l-19 2v-1l-2 1h-6l-1 1l5 5h4v1h-2v1l5 1l29 -3l2 1v-1h14l2 2l4 -3l9 -8v-2h-2l-5 2l-2 1l-2 2h-2v-1l-2 1l-6 2l-2 -1l1 -4l1 -2h2v1l1 -1l1 -2l2 -2l1 -1l1 -1h-1zM142 16327h2v-1h2l5 -2l10 -6v-2l-1 -1v1l-2 -1l-6 -1v-1l-2 1v-1l-2 1l-1 2l-4 7h-1l-2 1v2l-1 1l-1 2h2l1 -1h1v-1zM170 16331v-1h-1v1h1zM160 16332v-1h-1v1h1zM165 16332v-1h-1v1h1zM163 16334v-1h-1v1h1zM176 16335v-1h-1v1h1zM170 16339v-1h-1v1h1zM147 16344v-1h-1v1h1zM149 16344v-1h-1v1h1zM162 16344v-1h-1v1h1zM179 16344v-1h-1v1h1zM140 16345v-1h-1v1h1zM162 16351v-1h-2l-2 -1v1h-1v-2h5h1l-2 -2v-2h-1v1h-8l-2 1v-1l-2 1l-22 3v1h10l2 -1v1h2v-1l1 1l1 1v-1v-1h2v1l2 -1l2 1v-1h6v-1l2 2h-2v1h8zM167 16345v-1h-1v1h1zM182 16360l25 -10l9 -4l-2 -2h-2v3h-2l-2 -1v1l-2 -1l1 -2l-3 -3l-5 -1h-2l-9 2v1l-2 -1l-2 2h-4l-2 2h-4l-4 2h-6l1 2h-1v2l-13 1v-1l-1 -1v1v1l-2 -1h-2l-2 -1v1l-3 1l-2 1h-2h-17h-1l3 4l4 4l11 4l17 4h4l9 -4h1l1 -1h-1l-2 -1v1l-8 -1l-2 1v-1l-2 1l-2 -3h1v-2l7 -1l1 -1l-1 -1h-2v1l-2 -1h-6l-2 -1v1l-2 -1h-2v-1h14v1l2 -1h2v1l2 -1v1l2 -1l3 1h3v2l-1 2h1h6v1h-12v1l16 -2zM174 16346v-1h-2v1h2zM165 16347v-1h-1v1h1zM122 16351l1 -1h-1l-1 1h1zM125 16351v-1h-1v1h1zM147 16351v-1h-1v1h1zM152 16351v-1h-1v1h1zM137 16352v-1h-1v1h1zM119 16354v-1h-1v1h1zM167 16357v-1h-1v1h1zM164 16358v-1h-2l-1 1h3zM167 16360v-1h-1v1h1zM162 16362v-1h-2v1h2zM169 16364v-1h-1v1h1zM173 16364v-1h-1v1h1zM171 16365v-1h-1v1h1zM216 16378v-2l2 1l8 -1l1 -2l-1 -3v-3l-4 -13v-6l-2 1l-6 3l-2 1l-3 4l-1 2h-4l-1 -2h1v-2h-3l-10 4l-1 1l-1 1h1l8 1v2h16l1 1v2l-1 1l-6 1v-1h2l1 -1l-1 -2l-22 2v1h2l1 1l-6 -1h-3v-1l2 -2l1 -1h-1l-5 1l-13 5h-2v1h3l21 6l5 -1l23 1zM131 16368v-1h-1v1h1zM139 16374h4l3 -1l1 -1l-1 -1l-4 -1l-8 -2h-3l1 2l1 2l3 3l3 -1zM230 16336h2l2 -1v-1l2 -2l3 -2v-2h1v-1l-16 3l-1 2v2l1 2l4 1l2 -1zM198 16339v-1h-2l-1 1h3zM200 16339l1 -1h-1l-1 1h1zM203 16339v-1h-1v1h1zM192 16340v-1h-2v1h2zM206 16340v-1h-1v1h1zM225 16340v-1h-1v1h1zM188 16341v-1h-2v1h2zM184 16342l1 -1h-1l-1 1h1zM209 16342v-1h-1v1h1zM182 16343v-1h-2v1h2zM218 16345l1 -1l-1 -1h-2v2h2zM205 16356v-1h-1v1h1zM188 16363v-1h-2v1h2zM191 16364v-1h-1v1h1zM193 16364v-1h-1v1h1zM190 16365v-1h-4v1h4zM214 16368l-2 -2v2h2z"/></g><g class="f live" data-r data-f="0" fill="var(--live,#000)" fill-rule="evenodd"><path class="chunk" data-i="2" d="M-112 16200l-8 -1v-1l2 -2v1h2l2 2v-1l2 2z"/><path class="chunk" data-i="3" d="M-50 16171l-11 -1l1 -1h10v1v1zM-106 16149h-1l-5 -1v-1l7 1h-1v1z"/><path class="chunk" data-i="4" d="M144 15974v-1l-2 1v-2l2 -1h1v3h-1zM-75 15977v-1h2v2h-1v-1h-1z"/><path class="chunk" data-i="5" d="M-18 15944l-2 2v-2h-4v-1h5v1h1zM-56 15944h-10v-1h11l-1 1zM-28 15943h-8v-1h9l-1 1zM-19 15943v-1h-3l-2 -1v1l-2 -2l8 1l2 3h-2v-1h-1zM-52 15942v-1l-2 1v-1h-4v1l-2 -1l-2 1h-1l1 -2h13l-1 1l-2 1zM-28 15941h-2v-1l-2 1h-10v-1l2 -1v1l2 -1h4v1l2 -1h4l1 1l-1 1zM-74 15978v1l-3 -1l-1 -1v1h-2l2 -2l3 -1v1h-1v1h1v1h1zM-84 15920v-2h2v1l-1 1h-1zM-56 15900v-1h-1v1h1zM-57 15901v-1h-1v1h1zM-67 15907v-1h-1v1h1zM-65 15907v-1h-1v1h1zM-70 15910v-1h-1v1h1zM-76 15913v-1l6 -5l5 -3l2 -1v-2l2 -1l9 -5l2 -1l-1 2h-1v1h-2v1h-1l1 1l-2 2l-2 2l-2 -1h-1l1 2l-2 1v-1h-2l1 2l-3 3h-2l-4 5l-2 -1l-1 1l-1 -1zM-46 15894v1l-4 -1l2 -2h1v2h1z"/><path class="chunk" data-i="6" d="M-41 15880v-1h-1v1h1zM-39 15881v-1h-1v1h1zM-39 15884v-1h-1v1h1zM-47 15892v-2h1l3 -2v-2h2v-5l-2 -1l-2 -1h3v-1h2l2 2l-1 7l-1 -1v1l-1 1h-1v1l-1 1h-1v1l-1 1h-2zM-78 15916v-1h-1v1h1zM-80 15921v-1h-1v1h1zM-85 15923v-1h-1v1h1zM-86 15924v-1h-1v1h1zM-86 15927v-1h-1v1h1zM-90 15929v-1h-1v1h1zM-91 15931v-1h-1v1h1zM-90 15934v-1h-1v1h1zM-92 15936v-1h-1v1h1zM-90 15936v-1h-1v1h1zM-91 15939v-1h-1v1h1zM-88 15939v-1h-1v1h1zM-86 15940v-1h-1v1h1zM-88 15941v-1h-1v1h1zM-86 15942l1 -1h-1l-1 1h1zM-79 15942h1l1 -1h-1l-4 1v1l3 -1zM-84 15943v-1h-1v1h1zM-77 15944v-1h-1v1h1zM-68 15942v-1h-1v1h1zM-69 15943v-1h-1v1h1zM-73 15944l-5 1v-1l-2 1v-1l-6 -1l-2 -1h-2l-2 -1l-1 -1v-2v-7l1 -2l2 -5h2v-2l2 -1h1l1 1v-1l1 -1h1v-1l1 -1h1l-1 -1v-1l3 -2l2 -1v1h1v2h-1l-3 2l1 2l-2 2l-3 1h-1v1h-1l1 1l-3 3l-1 2v-1l-1 1h-1v2l1 5h1l2 2h5v1l1 1v-1h8v1h-4v1l2 1v-1h4v-2h5v2h-2v2h-5v-1l-1 1zM-80 15869v-1h-1v1h1zM-75 15870v-1h-1v1h1zM-73 15871v-1h-1v1h1zM-67 15872v-1h-1v1h1zM-64 15873v-1h-1v1h1zM-58 15875v-1h-1v1h1zM-52 15876l1 -1h-3v1h2zM-50 15877v-1h-1v1h1zM-48 15877v-1h-1v1h1zM-46 15878v-1h-1v1h1zM-45 15879l-3 -1l-8 -1v-1v-1l-2 1l-2 -2v-1h-2v1h1l-1 1l-5 -1l-4 -2l-1 -1v1h-4l-1 -2l-3 -1v1h-2h-1l1 -2v-1h-5v-1h1v-1l3 1h2l34 10h2l3 2h-2h-1v1zM-88 15867h-2l-1 -1v-1l1 -1h-1v-2l1 1l2 1l2 1l-1 1h-1v1zM-93 15860l1 -4v-2h1l-1 3v2l1 3l-1 -2h-1zM-80 15839l1 -1v-1h2l-1 1v2l-2 1v-1v-1zM-79 15835v-1l2 -2l1 -2l2 -7l1 -3h-5v1l-2 -1v-2l2 -2l2 1v-1v-1l4 1h2v2v5l-3 8l-2 5l-2 1v-1l1 -2h-2l-1 1zM-71 15823v-1h-1v1h1zM-72 15825v-1h-1v1h1zM-72 15828v-2h-1v1l1 1zM-73 15830v-1h-1v1h1zM-74 15832v-1h-1v1h1zM-75 15833v-1h-1v1h1zM252 15969l-2 -1l-3 -2v-2l-1 -2h-2v-1h3l1 -4h2l2 -2v1h1v-2h4v2h3v-1l2 1v2l1 4h1v-1h2l2 1l-1 2h1v1h-2l-2 -1v1l-3 1l-4 1l-3 1l-2 1zM256 15957l1 -1l-1 -1h-2v2h2zM254 15958v-1h-2l-1 1h3zM259 15958v-1h-1v1h1zM261 15959v-1l-1 -1v1l1 1zM250 15959v-1h-1v1h1zM256 15961l2 -1v-2l-2 2v1zM254 15960v-1h-4v1h4zM262 15960v-1h-1v1h1zM250 15965l2 -1v-2h-2v-2l-2 2l1 1l1 2zM259 15966l1 -6l-2 2l-1 2l1 1l1 1zM254 15962v-1h-1v1h1zM266 15963v-1h-1v1h1zM256 15966l1 -2h-1h-2l-1 1h1l2 1zM252 15966l1 -1h-1l-1 1h1zM264 15918h-5l-4 -1l-2 -1h-1l-2 -2l-2 -2l-1 -3l-2 -7v-8v-2l5 -5l6 -1h6h2l4 4v2l2 4l2 6v6v2l-2 4l-1 2l-1 1l-4 1zM264 15916l3 -4l1 -1l1 -4l1 -4l-4 -10l-1 -1l-3 -3l-4 -1v1l-2 -1l-2 2l-3 2l1 1h1l4 -1l3 1l1 1v2l3 2v2l2 2v2v4v2l-2 3l-2 3h2zM256 15908h2l1 -2v-1l-3 -1l-2 -2v-1h5v-1l-3 -3h-2v-1l-2 2v1v6v1l2 3l2 -1zM260 15902v-1h-1v1h1zM261 15903v-1h-1v1h1zM264 15908v-2h-1v1l1 1zM263 15910v-2h-1v1l1 1zM262 15911v-1h-1v1h1zM261 15912v-1h-1v1h1zM260 15913v-1h-2v1h2zM256 15914l1 -1h-1l-1 1h1z"/><path class="chunk" data-i="7" d="M190 15973h-4v-1h3v-2l1 -1v1l2 -2h1l-1 4l-2 1zM188 15967l-1 1l1 2v1l-2 -1v2h-1v-4l2 -2l1 1zM218 15968h-1v-2l1 -1h2v1l-1 1h-1v1zM187 15966l1 -2h1v2h1v1h-2v-1h-1zM200 15968v1h-2v-1v-1l-1 1l-1 2h-2l1 -2l3 -4v-1l2 1v2l-1 2h1zM204 15968h-4l2 -1v-1h2h1l-1 -1h-2v-2h2v1l2 -1v1l4 -1v-1v-1l1 1v2h1v1h-2v3h-1v-2h-1l-1 2v-2h-1v1h-2v1zM203 15961l-1 -1h-2v-1h2v-1l2 1h1l-1 2v-1h-1v1zM181 15960h-1l-2 -2l2 -1l1 -1l5 -2l3 -2l21 -6h4v-1l2 1h1l-1 2v2l-5 -1l-22 7l-8 4zM307 15956h-1l-2 -2v-2l-2 -1l-4 -1l-5 -4v-2l-14 -3l-5 -1l-4 3l-1 1l-13 6h-4l-5 1l-15 1v1l-1 -1v-1h-1l-2 1v-2l-4 -1l-2 -1l-6 -3l-5 -5l-1 -2l-1 -2l-5 -7v-2l-3 -10l-3 -15v-3l4 -13l2 -2v-1l4 -5l14 -14l2 -2h3l13 -4h2l2 1l4 1l5 2l13 6h2l2 2l6 3l2 3l7 8l1 2l2 2l1 5l3 15l-1 8l-1 4l-1 3l-2 5l-10 10h1h4l12 3l1 1v2l3 3h2l4 1l3 4v4zM247 15948l6 -1l3 -1l5 -2l7 -4l6 -4l10 -10l2 -4l2 -3v-3v-7l-2 -15v-2l-6 -8l-4 -3l-8 -7l-4 -1l-4 -1l-7 -4l-5 -2h-4h-6l-13 4h-1l-3 2v2h-2v-2l-1 -1l-7 7l-3 6l-1 2l-2 2l-2 8v13l1 7l3 12l2 2l5 7v1l4 5l6 3l7 2h16zM277 15939v-1h-1v1h1zM316 16015l-2 -1v1l-12 1l-2 2l-20 -1l-2 1v-1l-2 1l-8 -1l-6 1l-2 1v-1l-4 1v-1l-2 1l-6 1v-1l-2 1l-2 -1l-2 -1v1l-2 -1h-3h-5l-14 2l-1 2l-1 1l-4 10l-1 1l-2 2v2l-2 2l-1 2l-2 4v2l-2 2l-1 2l-3 9l-1 3l-2 2l-1 4l-4 3h-2l-1 -1l-3 -20l-2 -42l-7 -1v-1l-1 -1v1h-1v-2l-5 -1v-1l-2 1v-1h-8v1l-2 -1l-8 -1v1l-2 -1l-10 -2l-2 1v-1l-6 -1l-2 1v-1l-2 1v-1l-4 1v-1l-2 1v-1l-4 -1h-2l-1 -3l-1 -2h-2l-2 -2v-2l-4 -4h-2l-5 -6l-3 -5l-8 -16l-4 -6l-1 -3l-2 -9l-3 -37h1l-1 -2h1v-8h-1l1 -2v-14h1l-1 -2l1 -2h-1l1 -20v-2l2 -4l2 -3l9 -11l2 -2l3 -3l2 -1l4 -6l2 -3l12 -6l2 -2l29 -4l63 -1l2 -1v1h2v-1l2 1l90 -4h4l7 3l4 1l13 3l3 1l7 5l9 9l1 2l12 17l2 8l10 40l3 29h1l-1 2h1l-2 17l-4 10l-1 3l-13 24l-2 4l-3 4l-2 2l-11 12h-2v2l-4 3h-1l-3 2h-2l-6 7v1h-2l-6 1v1zM170 16002v-1h-1v1h1zM154 16003v-1h-1v1h1zM162 16003v-1h-2v1h2zM164 16003v-1h-1v1h1zM166 16003v-1h-1v1h1zM171 16004v-1h-1v1h1zM176 16004v-1h-1v1h1zM174 16005v-1h-1v1h1zM178 16007v-1h-2v1h2zM180 16008l1 -1h-1l-1 1h1zM184 16009v-1h-1v1h1zM185 16012v-1h-1v1h1zM186 16015v-1h-1v1h1zM218 16014l2 -1h2v1l1 -1l5 -1v-1l2 1v-1h4v1l2 -1v1l21 3h3v-2l24 -1v1l2 -1v1h2v-1h-1l1 -1h1v1l1 1v-1v-1h6v-1l2 1l22 -2l2 -2h1v-2h1l2 -1v-2h2l2 -2l4 -1l6 -7v-1l4 -2l9 -9l2 -2l3 -4l12 -23l2 -5l3 -12v-34h-1l1 -2h-1v-6l-10 -36l-4 -13l-10 -14v-1l-10 -10l-5 -4h-2l-2 -1l-5 -1l-2 -1v1l-2 -1l-4 -1h-4l-5 -2l-3 -1l-78 3v1l-2 -1v1l-9 1l-5 -1l-6 1v-1l-2 1v-1l-2 1h-2v-1l-2 1l-2 -1l-2 1h-2v-1l-2 1h-2v-1l-2 1v-1l-2 1h-2v-1l-2 1v-1h-4v1l-2 -1l-54 4l-2 1l-6 3l-4 3h-2l-1 2l-11 11h-1l-1 3l-10 12l-2 2v2l-1 6h-1l1 2v2l-1 2h1l-1 2l1 2h-1l-1 28h1l-1 2l3 42l1 2h-1l1 2l1 6l2 2l6 10v2l2 2l1 2l1 2l1 2l13 16l4 3l2 1v-1l2 1l2 -1v1l16 1l16 3h5v2h1v-1l2 1h2h5l6 1l9 3l2 1l3 3l1 1v-1h2l-2 2v1h2l1 1h-1h-1v2l1 2l-1 2l2 2h-1h-1l1 2l-1 15h1l1 1h-1l1 2h-1v2l2 -1v1l1 2h-1l1 2h-1v4l2 3v3l2 -2l1 -2l2 -5l7 -15l1 -2h1l2 -2v-2l2 -2l-1 -2h1v-2l2 -2v-2l2 -2h3l1 1v-1zM215 16016v-1h-1v1h1zM186 16019v-1h-1v1h1zM186 16022v-1h-1v1h1zM186 16035v-3h-1v2l1 1zM189 16046v-2h-1v1l1 1zM186 16047v-1h-1v1h1zM188 16049v-3h-1v2l1 1zM189 16053v-1l-1 -1v1l1 1zM190 16056v-1h-1v1h1zM270 16014v-1h-1v1h1zM273 16014v-1h-1v1h1zM245 16015v-1h-1v1h1z"/></g><g class="f live" data-f="1" fill="var(--live,#000)" fill-rule="evenodd"><path class="chunk" data-i="2" d="M-115 16198l-6 -2v-1l2 -1v1h1l2 2l1 -1l1 1l-1 1z"/><path class="chunk" data-i="3" d="M-50 16171l-12 -2v-1l12 2l1 1h-1zM-104 16148h-1h-4v1v-1l6 -1l-1 1z"/><path class="chunk" data-i="4" d="M144 15974l-1 -1l-1 1v-1v-1l1 -1h1v3zM-75 15976v-1h2v1l-1 1v-1h-1z"/><path class="chunk" data-i="5" d="M-20 15941l-2 2v-2h-3v-1h4v1h1zM-52 15943l-11 2v-1l11 -2v1zM-28 15940h-7v-1h8l-1 1zM-21 15940l-3 -1v-1l-1 1l-1 -2l6 1l2 3l-1 1l-1 -1v-1h-1zM-49 15940h-1l-1 1l-1 -1l-3 1l-1 1l-1 -1l-3 2v-1l1 -1l12 -3v1h-1l-1 1zM-28 15938h-1l-1 -1l-1 1h-9l1 -2l1 1l1 -1h4v1l1 -1h4l1 1l-1 1zM-74 15977l-1 1l-2 -1l-1 -1v1h-2v-1l1 -1l4 -1v1h-1v1h1v1h1zM-82 15920v-2h2v1l-1 1h-1zM-57 15903v-1l-1 -1v2h1zM-58 15904v-1h-1v1h1zM-66 15909l-1 -1v1h1zM-65 15910v-2h-1v1l1 1zM-69 15912v-1l-1 -1v1l1 1zM-74 15913l4 -5l5 -2l1 -1l1 -2h1l9 -6l2 -1l-1 2l-1 1h-2v1v1h-1v1h1l-2 2h-1l-1 2l-1 -1h-1h-1l1 2l-1 1l-1 -1h-1l1 1l-3 3h-1l-3 4l-1 -1l-2 1v-1l-1 -1zM-46 15896l-1 1l-3 -1l-1 -1l2 -2h2v2v1h1z"/><path class="chunk" data-i="6" d="M-40 15879v-1h-1v1h1zM-38 15880v-1h-1v1h1zM-38 15884v-2h-1v2h1zM-47 15893v-2h2l2 -4l1 -1h2l-1 -6l-2 -1l-2 -2l3 1l1 -1h1l3 3l-1 7l-1 -1v1h-1v1h-1v1h-1l-1 1v1h-1v1l-1 1h-2zM-76 15916v-1h-1v1h1zM-77 15922v-1h-2v1h2zM-83 15924v-2h-1v2h1zM-84 15925v-1l-2 -1v2h2zM-84 15929v-1l-2 -1v2h2zM-89 15931v-1h-1v1h1zM-90 15934v-2h-2v2h2zM-89 15938v-2h-1v2h1zM-91 15940v-1h-2l1 1h1zM-89 15940v-1h-1v1h1zM-90 15944v-1h-1v1h1zM-87 15944v-1h-1v1h1zM-85 15945v-1h-1v1h1zM-87 15946v-1h-1v1h1zM-84 15947v-1h-1l-1 1h2zM-77 15947l1 -1l1 -1h-1l-4 2l-1 1l4 -1zM-83 15948v-1h-1v1h1zM-75 15948v-1h-1v1h1zM-65 15944v-1h-1v1h1zM-67 15945l1 -1l-2 1h1zM-71 15947l-5 2l-1 -1l-1 1l-1 -1h-6h-2l-2 -1l-2 -1l-1 -2l-1 -1v-9l1 -3l3 -6l2 -1v-1l2 -2h2v1l1 -1h1v-1h1v-1h1v-1h1l-1 -1v-1l3 -2l2 -1v1l1 1v2h-1l-2 2l1 1l-3 3l-3 1h-1v1l-1 1h1l-3 5l-2 2v-2l-1 1v1h-1v2l1 6h2l2 3l5 -1v2l1 -1l8 -1v1l-3 1h-1l2 1l1 -1l3 -1l1 -1l4 -1l1 1l-2 1l-1 2l-5 1v-1l-1 1zM-85 15867v-1h-1v1h1zM-80 15868v-1h-1v1h1zM-77 15869v-1h-1v1h1zM-70 15870v-1h-1v1h1zM-66 15871v-1h-2v1h2zM-59 15873v-1h-1v1h1zM-52 15874l1 -1h-3v1h2zM-50 15875v-1h-1v1h1zM-48 15875v-1h-1v1h1zM-46 15876v-1h-1v1h1zM-45 15877h-3l-8 -2l-1 -2l-1 1h-2l-1 -2l-1 -1h-1h-1l1 1v1l-7 -2l-5 -1l-1 -1v1h-4l-2 -2l-2 -1l-1 1h-2v-2v-1h-4v-1h1v-1v-1l3 1l1 1l39 10l2 1l4 2l-3 -1l-1 1zM-91 15865h-2v-2v-1v-1v-2l1 1l1 1l1 1l-1 1v1v1zM-94 15857l1 -5v-1v-1l1 1l-1 2v2v4l-1 -2zM-80 15837h1v-1l2 -1l-1 2h-1l-1 2l-1 -1l1 -1zM-78 15834v-1l3 -2v-1l4 -6l1 -3l-3 1l-1 1l-2 -1l1 -1l2 -3l1 1v-1l1 -1h3h1v1l-1 4l-4 8l-3 4l-2 1v-1l2 -1h-1h-1l-1 1zM-69 15823v-1v1zM-70 15825v-1l-1 1h1zM-70 15827v-1h-1v1h1zM-72 15829l1 -1l-1 1l-1 1l1 -1zM-73 15831v-1h-1v1h1zM-74 15832v-1h-1v1h1zM254 15968l-3 -1l-3 -3l1 -2l-2 -1h-2l1 -1h3l1 -4h2l2 -2l1 1l1 -1v-1l3 -1l1 2h2v-1l2 1v2v4v1l1 -2h2l1 2l-1 1v2h-1l-1 -1l-1 1l-2 1l-4 2h-3l-1 1zM259 15955l-1 -2l-1 1v1h2zM256 15957l1 -2l-3 1l-1 1h3zM261 15956v-1h-1v1h1zM263 15957v-2h-1v1l1 1zM252 15958v-1h-1v1h1zM259 15960l1 -2v-1v-1l-2 3l1 1zM256 15959v-1h-3l-1 1h4zM263 15958l1 -1h-1v1zM252 15964l2 -2v-1h-2v-2l-2 1l1 2l1 2zM260 15965l2 -6l-1 -1l-1 2v1l-1 1l1 2v1zM256 15961v-1h-1v1h1zM266 15962v-1l-1 1h1zM257 15965l2 -2h-1h-3v1l2 1zM254 15965l1 -1h-2v1h1zM265 15922h-6l-4 -1l-2 -1h-1l-1 -2v-1l-2 -2l-1 -3l-3 -8v-8v-2l5 -6l6 -2h7h2l5 6v2l2 5l3 7v6l-1 2l-3 4l-1 1l-1 2l-4 1zM264 15920l4 -3l1 -1l2 -4v-5l-4 -12l-1 -2l-2 -3l-5 -1l-1 1l-1 -1l-2 2h-1l-3 3v1l2 -1h4l3 1l2 2v1l3 4v2l2 3v1v5l-1 2l-2 3l-1 2h1zM256 15913h1l2 -2v-1l-4 -2l-1 -2v-1h5v-2l-3 -3h-2l-1 -2l-1 2v2v7v1l2 3h2zM260 15906v-1h-1v1h1zM261 15907v-1h-1v1h1zM265 15913v-2h-2v1l2 1zM263 15915v-2h-1v1l1 1zM262 15916v-1h-1v1h1zM261 15917v-1h-1v1h1zM260 15918v-1h-2l2 1zM256 15918l1 -1h-2v1h1z"/><path class="chunk" data-i="7" d="M195 15976l-6 1l1 -1l3 -1v-2l1 -1l1 1l2 -2h1l-1 3l-2 2zM192 15970l-2 2l2 1v1h-1h-1h-1v2l-1 -1v-4l2 -2v1h1h1zM219 15967h-1v-1l1 -1h1h1l-1 1h-1v1zM190 15969l2 -2h1v2h1l-1 1h-1h-1v-1h-1zM205 15970v1h-2v-2l-1 1l-1 2h-1h-1l1 -1l3 -5v-1l2 1v2l-1 1l1 1zM209 15969l-4 1l1 -2l1 -1h2v-1l-2 1v-2h1h1h1h1l2 -1v-1h1v1l1 1h-1l-1 1v2v-2l-1 1l-1 1v-1l-1 1h-1v1zM208 15963h-1l-2 -1h1l1 -1l1 1h1l-1 1v-1l-1 1h1zM181 15962h-2l-2 -2l2 -2h2l6 -3l4 -1l21 -3h3l1 -1l1 1l2 1l-1 1v1h-5l-22 4l-10 4zM305 15955h-2l-2 -2v-2l-2 -1l-5 -2l-4 -6v-1l-12 -5h-5l-2 3h-2l-10 8l-4 2l-6 2l-16 3l-1 1v-1h-2l-1 1v-1h-4l-2 -1l-5 -3l-6 -6v-1l-2 -4l-7 -8l-2 -3l-5 -13l-3 -16l1 -3l6 -11l2 -2l1 -1l3 -5l11 -16h1l2 -3h2l15 -3l2 1l3 1l5 2l6 3l14 6l2 1l2 2l5 3l3 2l8 9l2 3l2 2l2 4l3 15l-1 7l-2 3l-1 3l-3 4l-12 7v1h4l10 4l1 1v1l3 5h2l4 2l4 4v4zM250 15948l6 -2l2 -2l5 -3l6 -4l6 -5l11 -7l3 -3l2 -3l1 -3l1 -6l-3 -14l-1 -3l-7 -8l-4 -4l-9 -7l-4 -2l-4 -1l-8 -3l-6 -3l-5 -1h-8l-14 4l-1 1l-2 3v1h-2v-3l-6 8l-4 5l-1 2l-2 1l-3 8l-1 12l2 8l6 16l3 3l6 9l1 2l4 4l6 3l6 1l18 -4zM277 15935v-1h-1v1h1zM316 16018l-1 -1l-1 1l-9 1l-2 2l-21 -2l-1 1l-2 -1l-1 1l-12 -2h-8l-1 2l-1 -2l-4 1l-1 -1l-1 1l-5 1l-1 -2l-1 1l-2 -1l-1 -1l-1 1l-1 -1l-2 -1h-4l-14 1l-2 1l-1 1l-6 9l-1 2l-2 2v2l-2 2v2l-2 5v2l-2 2v3l-3 10v3l-2 2l-1 4l-4 3l-2 -1l-2 -2l-4 -20l2 -39l-5 -2v-1v-1l-1 1h-1v-1l-4 -1l-1 -1l-1 1l-1 -1h-8l-1 1l-1 -1h-10l-2 1l-1 -1l-13 -1l-1 1l-2 -1l-6 -1l-1 1l-1 -1l-1 1l-1 -1l-2 1l-1 -1l-1 1l-1 -1l-4 -1l-1 -1l-2 -4l-2 -3h-1l-3 -3v-1l-5 -6h-1l-4 -6l-2 -5l-4 -12l-3 -6l-1 -3l-3 -9l-10 -35l2 -2l-2 -1l1 -1l1 -9l-1 -2l1 -1l1 -16l2 -1l-1 -1v-1l1 -1l-1 -1l3 -17v-2l2 -4l1 -4l8 -11l2 -3l3 -2h1l2 -1l5 -5l3 -2l10 -6l1 -3l26 -6l69 5l1 -1l2 1h1l1 -1l2 1l84 -9l3 1l7 5l4 2l16 4l5 1l10 6l9 7l1 1l8 17l2 7l8 38l4 35l1 1h-1l1 1l1 13l-2 10l-1 4l-16 26l-2 3l-3 3l-1 3l-11 12h-1v2l-4 4h-2l-3 2l-2 1l-8 6v1h-2l-5 1l-1 1zM174 16002v-1h-1v1h1zM157 16004l-1 -1h-1v1h2zM166 16003v-1h-2v1h2zM168 16003v-1h-1v1h1zM170 16003v-1h-1v1h1zM175 16004v-1h-1v1h1zM180 16004v-1h-1v1h1zM178 16005v-1h-1v1h1zM181 16006l-1 -1v1h1zM183 16007v-1h-1v1h1zM185 16008v-1v1zM186 16011v-1h-1v1h1zM186 16014v-1l-1 1h1zM218 16013l1 -1h3l1 1v-1l5 -1l1 -1l1 1v-1h3l1 1l1 -1v1l18 3h3v-2l31 1l1 1l1 -1l1 2h1l1 -1l-1 -1v-1l2 1v1l1 1v-1v-1l5 1l1 -1l1 1l19 -1l2 -1l1 -1l1 -1h1l2 -2l1 -1l1 -1l2 -2l5 -1l7 -8v-2l4 -2l7 -9l2 -2l3 -3l15 -25l2 -6l1 -11l-5 -33l-1 -1l1 -2l-1 -1v-8l-8 -34l-3 -12l-6 -13v-2l-10 -7l-8 -3l-3 -1l-2 -1l-8 -1l-1 -2l-1 1l-2 -1l-5 -1l-4 -2l-4 -3l-3 -2l-69 6l-1 2l-1 -1l-1 1l-10 2l-6 -1l-7 1l-2 -1l-1 1l-1 -1l-1 1h-3l-1 -1l-1 1l-3 -1l-2 -1l-1 1l-1 -1h-1h-2l-1 -1l-1 1l-1 -1h-1h-1l-1 -1l-1 1l-1 -1l-2 -1l-1 1l-1 -1l-58 3l-2 1l-5 4l-3 3h-1l-2 1v1l-12 8l-1 1l-2 2l-9 13l-1 2v2l-1 5l-1 1l1 1v3l-1 1v1v1l-1 1l1 1h-1l-3 31l1 1l-1 1l9 44l1 1l-1 1l2 1l1 6l1 1l3 9l1 1l1 2v2v1l1 2l12 16l4 5h1l1 2l1 -1l1 1h1l1 -1l1 1l16 2l19 4l6 -1v1l1 1l1 -1l1 1l3 -1h6l6 1l8 3l2 1l1 2v1h1h1l-1 2h1v1l-1 1v1v3l-1 1l2 1l-1 1l-1 1h1l-2 15h1h1l-1 2h1l-1 1v1l1 1v-1h1v1l1 1l-1 1l1 1l-1 1l1 3l1 3l1 3v1l2 -2v-2l2 -6l6 -17l1 -1l1 -1l2 -1v-2l2 -1v-1l-1 -1l2 -1v-1l2 -1v-1l4 -2h2h1h1zM214 16014v-1h-1v1h1zM186 16018v-1h-1v1h1zM185 16021v-1v1zM184 16034l1 -3h-1v2v1zM187 16043v-1h-1v1h1zM184 16045v-1h-1v1h1zM186 16046v-2h-1v2h1zM188 16050l-1 -1l-1 -1v1l2 1zM189 16053v-1h-1v1h1zM269 16014l-1 -1l-1 -1v2h2zM273 16014v-1h-2v1h2zM242 16014v-2h-1v2h1z"/></g><g class="f live" data-f="2" fill="var(--live,#000)" fill-rule="evenodd"><path class="chunk" data-i="2" d="M-116 16199l-8 -2v-1l1 -2l1 1h1l3 3l1 -1l2 2h-1z"/><path class="chunk" data-i="3" d="M-51 16174l-12 -3v-1l12 1v2v1zM-106 16148h-1l-3 -1h-1l1 -1l5 1h-1v1z"/><path class="chunk" data-i="4" d="M145 15976h-1l-2 1v-1v-1l1 -2l2 1l1 2h-1zM-75 15975l1 -1v2h-1v-1z"/><path class="chunk" data-i="5" d="M-21 15943l-1 2l-1 -1v-1h-3h-1v-1h5l1 1zM-55 15943h-10l1 -1h9v1zM-30 15942h-8l8 -1v1zM-22 15942v-1h-4l-1 -1l-1 1l-1 -1v-1l7 1l3 2v1h-2v-1h-1zM-51 15942l-1 -1h-1h-1l-2 -1l-1 1l-1 -1l-3 1l1 -2l11 1v1h-1l-1 1zM-31 15940l-1 1l-1 -1l-1 1h-9v-1l1 -1l1 1l1 -1h3l1 1l1 -1h3l2 1h-1zM-75 15976v1l-2 -1h-1v1h-1v-1l1 -1l3 -1v1h-1h1l-1 1h1zM-84 15923v-1h2h-1v1h-1zM-52 15902v-1h-2l1 1h1zM-53 15903v-1h-1v1h1zM-64 15910v-1l-1 1v1l1 -1zM-61 15910v-1h-2v1h2zM-67 15914v-1h-2v1h2zM-75 15917l7 -6l6 -4l2 -1l1 -2l1 -1l8 -6l2 -1h1l-1 2h-1l-1 1h-1v1h-1l1 1l1 -1l-2 2l-1 1l-1 2l-2 -1h-1v1l1 1l-1 1h-2h-1l1 1l-4 4h-1l-6 6l-2 -1l-2 1v-1h-1zM-43 15896h-1h-3v-1l1 -1h2v1v1h1z"/><path class="chunk" data-i="6" d="M-39 15885v-1h-1v1h1zM-36 15886v-1h-1v1h1zM-36 15888v-1h-1v1h1zM-44 15894v-1h1l2 -2l1 -1h1v-4l-2 -1l-3 -1h3h1v-1h2l3 2l-1 5h-1h-1v1h-1v1h-1v1h-1h-1v1h-2zM-77 15920v-1h-2v1h2zM-80 15924v-1h-1v1h1zM-85 15925h-1h1zM-86 15926v-1h-1v1h1zM-86 15928v-1h-1v1h1zM-90 15930v-1h-1v1h1zM-90 15931h-1h1zM-89 15934v-1h-1v1h1zM-91 15936v-1h-1v1h1zM-89 15936v-1h-1v1h1zM-89 15939v-1h-1v1h1zM-86 15938v-1l-1 1v1l1 -1zM-84 15939v-1h-1v1h1zM-86 15940v-1l-1 1v1l1 -1zM-83 15941v-1h-2v1h2zM-77 15941h1l1 -1h-1l-4 1v1l3 -1zM-82 15942v-1h-1v1h1zM-75 15943v-1h-1v1h1zM-66 15941v-1h-1v1h1zM-67 15942v-1h-1v1h1zM-71 15943l-5 1l-1 -1v1l-1 -1h-6l-2 -1l-2 -1h-1l-2 -2v-1l-1 -6v-2l2 -4h1l1 -1l1 -1h2v1l1 -1l1 -1h1v-1h1l1 -1h-1v-1l3 -2l3 -1v1h1v1l-1 1l-4 2l2 1l-3 1l-3 1h-1v1h-1v1h1l-3 2l-1 1h-1v1v1l2 4h1l2 2h4l1 2l1 -1h8l-1 1h-3l1 2l1 -1h4v-2h5l-1 2h-1l-1 2h-4l-1 -1v1zM-80 15866v-1h-1v1h1zM-76 15868v-1h-1v1h1zM-74 15870v-1l-1 -1v1l1 1zM-69 15872v-1h-1v1h1zM-66 15874v-1h-1v1h1zM-60 15878v-1l-1 -1v2h1zM-52 15880v-1h-3v1h3zM-50 15881l-1 -1h-1v1h2zM-48 15882v-1h-1v1h1zM-45 15883v-1h-2v1h2zM-44 15884l-4 -1l-9 -3l-1 -1v-1l-1 1h-1l-2 -2v-2h-2l1 2l-6 -3l-3 -3l-1 -1v1l-3 -1l-1 -2l-3 -2v1h-2l-1 -1l1 -1v-1l-5 -1v-1l1 1v-1l3 1l2 1l34 16l3 2l4 1h-3l-1 1zM-88 15863h-2l-1 -1v-1h1h-1v-2l1 1h2l2 2h-1h-1v1zM-94 15857l1 -3v-1h1v2v2l1 2l-2 -1l-1 -1zM-82 15838h1l-1 -2h2l-1 2l1 1l-2 1v-2zM-82 15834v-2l2 -3l1 -1l4 -8v-4h-5l-1 1l-1 -1v-1l3 -3l1 1l1 -1h4l2 1v2v5l-4 9l-3 5l-2 2v-2l1 -1v-1h-1l-2 2zM-73 15820l1 -1h-2v1h1zM-74 15822v-1h-1v1h1zM-74 15825v-2h-1v1l1 1zM-75 15827v-1h-1v1h1zM-76 15830v-1h-2v1h2zM-78 15831v-1h-1v1h1zM247 15966h-3l-2 -3l1 -2l-1 -1h-1v-1h2l2 -4l1 -1l2 -2l1 1l1 -2h3v2h3l1 -1l1 1l1 2v3h1l1 -1h2l2 2l-1 1l1 1h-3l-1 -1l-1 1l-3 1l-5 2l-4 1l-1 1zM252 15954l1 -1l-1 -1h-1l-1 2h2zM249 15955l1 -1h-2l-1 1h2zM255 15955v-1h-1v1h1zM257 15956v-2h-1v1l1 1zM246 15956v-1h-1v2l1 -1zM252 15958l2 -2v-1h-1l-2 2l1 1zM249 15957l1 -1h-4v1h3zM258 15957v-1h-1v1h1zM245 15963l2 -2v-1l-1 -1v-1l-1 -1l-1 2v2l1 2zM254 15963v-1l2 -5h-1l-2 1v1l-1 1l1 2l1 1zM249 15959v-1h-1v1h1zM263 15959v-1h-1v1h1zM250 15963l2 -2h-4v1l2 1zM247 15963l1 -1h-2v1h1zM266 15916l-4 1h-3h-1l-2 -1l-1 -1l-2 -2l-1 -2l-4 -6l-1 -8v-2l5 -5l5 -2l7 1h2l5 3v1l1 2l1 4l-1 5l-1 2l-2 5v2l-1 2l-2 1zM266 15914l2 -4l1 -2l1 -4l1 -3l-3 -7v-1l-3 -2h-4l-1 1l-2 -1l-1 2h-1l-2 2h2l4 -1l2 1l2 1l3 2v2l1 1v1v4l-1 2l-1 3l-1 3h1zM260 15909l1 -1l2 -2l-1 -1h-2l-2 -1v-2l4 -1v-1l-2 -2l-2 1l-1 -1l-2 2v1l1 6v1l3 1h1zM263 15902v-1h-1l1 1zM264 15902h-1v1l1 -1zM266 15906l1 -1l-1 -1v1v1zM266 15908v-1h-1l1 1zM265 15909v-1l-1 1v1l1 -1zM264 15911v-1h-1v1h1zM263 15912v-1h-1v1h1zM261 15914v-2l-1 1l-1 1h2z"/><path class="chunk" data-i="7" d="M190 15973h-4l1 -1h2v-3l1 1l2 -2l1 1l-1 2l-2 2zM188 15967l-1 1l1 1v1l-1 1v-1h-1v2l-1 -1l1 -4l1 -1v1h1zM221 15969h-1v-1l1 -2h1h1l-1 2h-1v1zM187 15966l2 -2v1v1l1 1h-2v-1h-1zM200 15969h-2v-1h-1v1l-2 1h-1l1 -1l4 -5l2 1l-1 2v1v1zM205 15969h-5l2 -1l1 -1h3v-1h-3v-2h2l1 1l1 -1l1 1l4 -1v-1v-1l2 1l-1 2l1 1h-2v3l-1 -1v-1l-1 1l-2 1l1 -2h-1l-1 1h-2v1zM205 15962h-2l-1 -1h-1l1 -1h1h1h1l2 1l-1 1l-1 -1v1zM182 15960l-1 1l-1 -1l1 -1l2 -1l4 -2l4 -1l22 -8l3 -1l1 -1l1 1h1v2l-1 2h-4l-24 8l-8 2zM306 15958h-2l-1 -2v-2l-2 -2l-5 -2l-5 -4l-1 -1l-14 -4l-5 -1l-3 2l-1 1l-14 4l-3 1l-5 1l-12 1l-1 2v-1v-1h-1l-1 1v-1l-1 -1l-3 -1h-2l-5 -4l-6 -4v-1l-2 -3l-4 -5l-1 -2l-3 -10l-5 -17v-3l1 -14l2 -2l1 -2l4 -6l16 -13h1l2 -2h2l11 -1h2l1 1l4 2l6 3l17 7h3l3 3l6 3l3 2l5 6l1 1l1 1v3l-1 13l-2 8l-1 5l-1 4l-3 5l-9 12h1l4 1l13 2l1 2l1 1l4 3l1 1l4 1l4 4v5zM246 15946l5 -1l3 -1l5 -1l7 -3l5 -4l8 -11l3 -6l1 -3l1 -4l1 -8l2 -12v-1l-3 -4l-3 -2l-10 -6l-6 -2l-5 -2l-9 -4l-5 -3l-4 -2l-5 -1l-11 2h-2l-2 3l-1 1h-1l-1 -3l-9 8l-4 7l-1 1l-2 3l-2 10l2 14l2 8l4 11l2 2l4 5l1 1l4 4l6 3l6 1h14zM274 15939l-1 -1v1h1zM318 16014v-1l-1 1l-13 2l-2 2h-22l-1 1h-1h-1h-7l-5 1l-1 1l-1 -1l-3 1l-1 -1l-1 1l-6 2l-2 -2l-1 2l-4 -2l-1 -1l-2 1l-1 -1l-5 -1h-7l-15 2l-2 1v2l-3 11l-1 1l-1 2v2l-2 1v2l-2 3v2l-2 2l-1 3l-4 10l-1 2l-2 3l-1 4l-4 3h-2l-2 -1l-3 -22l1 -43h-6l-1 -1h-1h-1v-1h-4l-1 -1l-1 1v-1h-7l-1 1l-1 -1l-7 -1l-1 1l-1 -1l-11 -3l-1 1l-1 -1l-7 -2v1l-2 -1l-1 1l-1 -1l-3 1l-1 -1l-1 1l-2 -2h-4l-2 -1l-1 -4l-2 -1h-1l-3 -3v-1l-4 -4h-1l-6 -7l-3 -6l-8 -16l-3 -4l-1 -2v-6l-2 -39l1 -1l-1 -1v-1l-1 -6l-1 -1v-1l-3 -12l2 -1l-2 -1v-2l1 -1l-1 -1v-25l1 -3l2 -4l3 -3l8 -9l1 -3l2 -2h1l1 -2l4 -7l2 -2l14 -8l2 -2l31 1l66 -1l1 -1h1l1 -1l1 1l90 -2l5 1l9 3h5l11 2l2 1l6 5l8 8l1 2l10 14l2 8l14 46l7 28l1 1l-1 2l1 1l-4 17l-6 7l-1 3l-14 22l-2 4l-2 4l-2 2l-13 10h-1l-1 1l-3 4h-2l-2 2h-2l-5 8v2l-1 1l-5 1l-1 1zM171 16004h-1v1l1 -1zM156 16006v-1h-1v1h1zM163 16006l1 -1h-2v1h1zM165 16006l1 -1h-1l-1 1h1zM167 16005h-1v1l1 -1zM172 16006v-1h-1v1h1zM177 16005h-1h1zM175 16006h-1h1zM178 16007l1 -1l-2 1h-1h2zM181 16008l1 -1h-2v1h1zM185 16008v-1h-1v1h1zM186 16010v-1h-1v1h1zM186 16012l1 -1h-2v1h1zM213 16013h1l1 -2l2 1l1 1v-1l6 -1l1 -1l1 1l1 -1h4l1 2l2 -2l1 2l25 5h3v-1l21 -1h1h1h1h1h1l-1 -1h2v1h1l1 -1l5 -1l2 -1l1 1l22 -6l1 -2l1 -1l1 -2h1l1 -2v-1l1 -1l2 -2l4 -1l7 -6l1 -1l4 -1l9 -8l2 -3l2 -4l12 -21l3 -3l6 -10l-2 -37l-2 -1l1 -1l-1 -1l-2 -4l-13 -41l-3 -13l-8 -12l-1 -1l-8 -10l-5 -3l-1 -1h-2l-4 -1l-1 -1l-1 1l-1 -1h-4h-4l-6 -2l-4 -1l-82 -2l-1 1l-1 -1l-1 1l-7 2h-4l-4 2l-1 1v-1l-1 1l-2 1v-1l-1 1h-2l-2 1l-1 1l-1 -1l-1 1l-2 1l-1 -1l-1 1l-2 -1l-1 1l-2 1l-1 -1l-2 1l-1 -1h-4l-1 1l-2 -1l-57 -5h-2l-9 4l-3 4h-3l-2 2v1l-9 11h-1l-2 3l-9 11l-2 2v2l-1 8l-2 1l2 1v4l-1 1l1 2l-1 1v1l1 2l-1 1l4 25l1 1l-1 1l3 44v1l-1 1h1v4l2 2l5 9l1 1l2 2v3l1 2l2 3l12 16l4 4h1l1 1l1 -1l1 1h1l1 -1l1 1l17 3l18 5h4v2h1l1 -1l1 1h2h5h5l9 2h2l3 2v1l1 -1h1l-1 2h2v1h-1v1v2l-1 1l2 2h-1l-1 1l1 1l-2 15l2 1l-1 2l1 1l-1 1v1v1l1 -1h1v2l1 1l-2 1l1 2l-1 1v4l1 4l1 3l2 -2l1 -2l2 -6l8 -15v-2h1l1 -1v-2l2 -2l-1 -1v-2v-1v-1l2 -2v-3l2 -3h2l1 2v-1zM210 16015l1 -1l-1 -1v2zM186 16015v-1h-1v1h1zM186 16018v-1h-1v1h1zM185 16031v-3l-1 -1v3l1 1zM187 16045v-2l-1 -1v2l1 1zM184 16046v-1h-1v1h1zM186 16049v-3l-1 -1v3l1 1zM187 16054v-2l-1 -1v1l1 2zM187 16057v-1h-1v1h1zM272 16017v-1h-1v1h1zM274 16017v-1h-1v1h1zM246 16017v-2h-1v2h1z"/></g><g class="f jolt-f live" data-f="3" fill="var(--live,#000)" fill-rule="evenodd"><path class="chunk" data-i="2" d="M-110 16204l-7 -2l-1 -2l2 -2l1 2h1l2 3l1 -2l1 2v1z"/><path class="chunk" data-i="3" d="M-45 16174l-10 1v-1l10 -2v1v1zM-110 16144h-1h-6l-1 1l1 -2h8l-1 1z"/><path class="chunk" data-i="4" d="M147 15977l-1 -1l-1 1v-2l1 -1h1v3zM-79 15974v-2h3v3h-1l-1 -1h-1z"/><path class="chunk" data-i="5" d="M-19 15944l-1 3l-1 -1v-2l-3 -1l-1 -1l1 -1l4 1v1v1h1zM-62 15940h-9l10 -1l-1 1zM-28 15940l-10 -1l1 -1l9 1v1zM-20 15942v-1l-3 -1l-1 -2l-1 2l-2 -3l1 -1l6 4l3 4l-1 1l-1 -1v-1h-1v-1zM-57 15937l-2 -1l-1 1l-1 -1l-3 1l-1 1l-1 -1l-2 1h-1l1 -1l14 -2l-1 1h-1l-1 1zM-28 15937h-2l-1 -2l-2 2l-12 -1v-1l2 -2l1 1l1 -1h5l1 2l1 -2l5 1l1 3zM-77 15975l-1 2l-4 -2l-1 -2v1v1h-2l-1 -1l2 -2l5 -1v1l-1 1v1h1l1 1h1zM-77 15924v-2v-1h1v1l-1 1v1zM-53 15900v-1l-1 1h1zM-54 15901v-1h-1v1h1zM-65 15906v-1l-1 1h1zM-63 15906v-1h-1v1h1zM-68 15909v-1l-1 1h1zM-72 15913l4 -7l6 -4h2l1 -1l1 -1l10 -4l1 -1l1 1l-2 1v1h-1h-1l-1 1h-1h1v1l-2 1h-1l-2 1h-1l-1 -1v1v1l-2 1v-1h-1h-1l1 1l-4 4h-1l-4 6l-1 -1l-1 1v-1zM-44 15895v1l-2 -1l1 -1h1v1z"/><path class="chunk" data-i="6" d="M-39 15879v-1l-1 1v1l1 -1zM-38 15880v-1h-1v1h1zM-39 15884l1 -2l-1 1v1zM-44 15894l1 -2v-1l2 -3v-1l1 -1l1 -5h-1l-1 -2h1v-1l1 -1l1 2l-1 8v-1v1h-1v1v1l-1 1v1l-1 1l-1 1l-1 1zM-74 15917v-1v2v-1zM-75 15924v-1h-1v1h1zM-78 15927v-1l-1 1h1zM-79 15929v-2v1v1zM-79 15932v-1l-1 1h1zM-82 15934v-1h-1v1h1zM-83 15936v-1h-1v1h1zM-83 15938v-1h-1v1h1zM-85 15940v-1h-1v1h1zM-84 15939h1h-1zM-85 15941h-1h1zM-83 15941v-1l-1 1h1zM-82 15941h-1h1zM-84 15942l1 -1l-1 1h-1h1zM-82 15942v-1l-1 1h1zM-79 15941h1l1 -1h-1l-2 1l-1 1l2 -1zM-82 15942h-1h1zM-78 15942v-1l-1 1h1zM-72 15939h-1h1zM-73 15940v-1l-1 1h1zM-76 15941l-2 1h-1h-1l-3 1h-1l-1 -1h-2v-1l2 -5l1 -2l3 -5h1v-2l1 -2h1v1l1 -1v-1v-1h1v-1l1 -1v-1v-1l1 -4l2 -2v1v3h-1l-1 4v1l-1 3l-2 2v1l-1 1h1l-3 4l-1 2v-1v1h-1v2l-1 3h1l1 1l2 -1v1l1 -1l3 -1l-2 1l1 1v-1l2 -1l1 -1l2 -1l1 2h-2v1l-3 1v-1l-1 1zM-81 15877v-2h-2v1l2 1zM-73 15878v-1h-2l1 1h1zM-69 15879l-1 -1h-1v1h2zM-60 15879v-1h-2v1h2zM-56 15880v-1h-1v1h1zM-49 15880v-1h-1v1h1zM-44 15879v-2l-2 1v1h2zM-44 15879v-1v1zM-43 15878l1 -1l-1 1v1v-1zM-42 15879v-1v1zM-41 15879l-2 1l-4 1l-1 -1v-1l-1 1l-1 1l-1 -1l-1 -1h-1h-1l2 1l-1 1h-7l-6 -1l-1 -1h-1v1h-6l-2 -2l-5 -1v1l-4 -1h-1l2 -1l-1 -2l-7 -1v-1h1l1 -1l-1 -1l5 2l3 1l41 4h1l1 1h-1v1zM-93 15873l-2 -1l-2 -2v-1h1l-1 -1v-3l2 2l2 1l2 2l-1 1v1l-1 -1v1v1zM-99 15861l1 -6l1 -2v-1l1 1l-1 4l-1 3l1 5l-1 -3l-1 -1zM-83 15832v1l1 -1v-2l1 1l-1 1l1 1l-2 2v-1v-2zM-82 15828v-1l1 -1v-2l2 -4v-2l-2 -1l-1 1l-1 -1l1 -1l1 -1h1v-1h2l1 1v1v4l-1 6l-1 4l-2 1v-2h1l-1 -1h-1zM-78 15820v-1v1zM-78 15821h-1h1zM-78 15824v-1l-1 -1v1l1 1zM-79 15825v-1v1zM-79 15827v-1h-1l1 1zM-80 15827v-1v1zM253 15968l-3 -2l-4 -4v-3l-2 -2l-2 -1v-1l3 1v-3h1l2 -2l1 2l1 -1l-1 -1l4 1l1 2l2 2l1 -1l2 2l1 2l1 5h1l2 1l2 2l-1 1l1 1v1l-2 -1l-1 -2l-1 1h-2h-3l-3 -1l-1 1zM254 15955l-2 -2h-1v1l3 1zM251 15955v-1l-3 -1v1l3 1zM256 15958v-2h-1v1l1 1zM259 15960l-1 -2l-1 -1v1l2 2zM248 15955l-1 -1h-1l1 1h1zM255 15960l1 -1v-1l-1 -1l-1 2l1 1zM251 15958l1 -1l-4 -2v1l3 2zM260 15961v-1h-1v1h1zM250 15962l1 -1l-1 -1l-1 -2l-1 -1l-1 -1l-1 1l2 2l2 3zM258 15967v-6l-1 -1l-1 1l1 2h-1l1 3l1 1zM253 15960l-1 -1h-1l1 1h1zM264 15967v-1l-1 -1v1l1 1zM255 15966l1 -1v-1l-3 -2v1v1l2 2zM252 15964l1 -1h-2v1h1zM261 15913l-6 1l-5 -1h-2l-1 -1l-1 -1v-1l-1 -2l1 -3l1 -7l3 -6h1l6 -4l4 -2l3 -1h1l2 4v2l1 4l2 6l1 5l-1 1l-2 3l-1 1l-1 1l-5 1zM261 15912l4 -3l1 -1l2 -3v-3l-3 -10v-2l-1 -2h-2l-1 1v-1l-2 1l-1 1l-2 1v1l1 -1h3l1 1l1 1v1l1 3v2l2 2v1v3l-1 2l-3 2l-2 2l2 1zM254 15905l2 -1l1 -1l1 -1l-3 -1l-1 -2l1 -1h4v-1l-1 -2h-1l-1 -1l-1 1l-1 1l-3 5v2l1 2h2zM260 15899l-1 -1v1h1zM260 15900v-1l-1 1h1zM262 15905v-1l-1 -1v1l1 1zM261 15906v-1h-1v1h1zM260 15907v-1h-1l-1 1h2zM258 15908v-1h-1v1h1zM256 15909l1 -1h-2v1h1zM253 15910l1 -1h-2l-1 1h2z"/><path class="chunk" data-i="7" d="M194 15971l-4 1h1l2 -1v-1v-1l1 1l1 -2v2l-1 1zM192 15969l-1 1h1v1h-1v1h-1v-2l2 -2v1zM211 15961h-1v-1l2 -2l1 -1v1l-1 2h-1v1zM192 15968h-1l2 -2v1l1 1h-1l-1 1v-1zM199 15966l-1 1v-1v-1v1l-1 1v1l-1 1v-1v-1l3 -4v-1h1l-1 2v2zM201 15964l-2 2l1 -2v-1l1 -1h1h-2l1 -1l1 -1v1l1 -2v1l3 -2v-2h1l-1 2l1 1h-1l-1 1l-1 3v-1v-1l-1 1l-1 1l1 -1l-1 1l-1 1zM202 15959h-1h-1l1 -1v-1l1 -1l1 1v-1l-1 2v-1v1v1zM186 15965h-2l-1 -1l1 -2h2l4 -5l2 -2l20 -11l3 -1h2h1l-1 1l-1 2h-4l-20 13l-6 6zM312 15961l-2 1l-2 -2l-1 -2l-2 -2l-6 -1l-5 -7l-1 -2l-14 -8l-6 -1l-4 4h-2l-16 6h-4h-5l-13 -2l-1 1l-1 -1h-1h-1v-1h-3h-1l-3 -1l-2 -4v-1l-1 -2l-5 -5l-1 -2l-4 -8l-4 -13v-3l1 -15l1 -2l1 -2l1 -5l13 -11h2l2 -2h4l18 -4h3l3 2l5 1l5 1h9l1 -1l1 1l2 1l2 1l6 10l1 3l2 3l1 6l2 16l1 6v3l-1 2l-1 3l-9 11l1 1l5 1l10 7l2 2v2l5 5l1 1l4 1l5 3l2 5zM241 15944h6h4l5 -2l10 -5l8 -6l10 -10l1 -4l1 -2v-2l-1 -5l-3 -15l-1 -3l-5 -9l-3 -4l-4 -4h-2h-2l-4 1l-5 -1h-4l-9 1l-19 4h-2l-3 2l-1 1l-2 -1v-2l-1 -1l-7 6l-2 5v1l-1 2v10l2 13l2 6l4 10l3 2l3 5v2l2 2l2 2h5l13 1zM277 15936v-2h-1v1l1 1zM310 16010l-1 -1l-1 1l-10 4l-2 3l-11 3l-1 1l-1 -1l-1 1h-9h-8l-1 1l-1 -1l-4 1l-1 -1h-1l-8 1v-1h-2l-2 -1l-1 -1l-1 1l-1 -1l-3 -1h-5l-11 2l-2 2v2l-4 12v2l-3 2v3l-2 2l-1 1l-3 4v1l-3 2v2l-3 9v3l-2 2v5l-2 4l-2 1l-2 -2l-11 -26l-7 -44l-5 -2v-2v-1l-1 1h-1v-2l-3 -1l-1 -1l-1 1v-1l-6 1l-1 2l-1 -1l-6 1l-1 1h-1l-8 2l-1 1h-1h-5l-1 1h-1h-1h-1h-3h-1l-1 1l-1 -1l-4 -1l-2 -1l-2 -3l-2 -1l-2 -1l-4 -3v-1l-8 -7h-1l-9 -8l-5 -6l-6 -16l-2 -8v-4l-1 -12l3 -24h1l-1 -1l1 -1l1 -7l-1 -1l1 -1l-1 -20l1 -1l-1 -2v-1v-1v-1l-4 -18v-1l2 -3l2 -3l11 -11l2 -4l3 -3h1l2 -2l3 -7l2 -3l7 -2l1 -2l38 -1l61 -11h1l1 1h1v-1l1 1l92 1l4 1l7 4l5 2l16 2h3l6 2l3 3v2l8 20l6 10l19 46l-5 20l1 1h-1l1 1l-5 14l-3 12l-1 4l-12 23l-3 3l-4 5l-3 4l-13 14h-1v1l-2 2h-2l-2 1h-1l-7 4v1h-2l-7 2l-1 1zM168 15996v-2l-1 1v1h1zM154 16001v-1h-1v1h1zM160 15999l1 -2l-2 1v1h1zM162 15998v-1v1zM164 15998v-2l-1 1v1h1zM168 15998l1 -1h-1v1zM173 15998v-2h-1v2h1zM171 15999v-1h-1v1h1zM173 16002l1 -2h-1l-1 2h1zM176 16004v-2h-1l-1 1l2 1zM179 16005v-1h-1v1h1zM179 16010v-2h-1v2h1zM179 16015v-2h-1v1l1 1zM220 16015l1 -1h3l1 1v-1h4l1 -1l1 1l1 -1l3 1h1h1l1 1l22 3h4v-1l24 -4v1l1 -1l1 1l1 -1l-1 -1v-1l1 1v1h1v-2l4 -1l1 -2v1l19 -5l2 -1h1l1 -1h1l2 -1v-1h1l1 -1l3 -1l5 -6v-1l4 -3l11 -11l3 -4l5 -5l12 -20l1 -6l3 -14l7 -21v-1l1 -1l-1 -1l1 -6l-16 -42l-10 -17l-5 -16v-1l-4 -4l-4 -1h-2h-3h-6l-1 -1l-2 1l-1 -1l-6 -1l-4 -1l-6 -3l-3 -1h-82v1l-1 -1v1l-6 -1l-5 -1l-6 -1l-1 -1l-1 1l-1 -1l-2 1h-2l-1 -1h-1h-3h-2h-2l-1 -1l-1 1h-2l-1 -1l-1 1h-1l-1 1h-1l-1 -1l-1 1h-2l-1 1l-61 12h-2l-5 1l-1 2h-2l-1 1v1l-9 12l-1 1l-2 3l-12 12l-1 1l-1 2v3l-1 1l1 1l1 2l-1 1l1 1v1v1l1 1l-1 1l2 35v1l-1 1l-3 30l1 1l-1 1l1 2l-1 8l2 3l2 12l1 2l2 2v2l1 2l2 3l22 20l6 5h1l1 1h2l1 1h1l2 -1l1 1h15l11 -3l3 -3l1 1v1l1 -2l1 1l2 -1l4 -2h6l7 4l2 1l2 4v2l1 -1h1l1 1l-3 3v1h3v1h-1l-1 1v2v4l-1 1l2 3l-1 1h-1h-1l1 2l1 15h2h1l-2 1l2 1l-1 1l1 1l1 -1l1 1v1l2 1h-1l2 1l-1 1l2 3l2 4l2 2l1 1l1 -1v-3l1 -4l9 -14l1 -2h2l2 -2v-2l2 -3v-1l-2 -1l1 -1v-1l2 -3l-1 -2l3 -3l3 1l1 1v-1zM217 16016l-2 -1l1 1h1zM178 16020l1 -1h-2v1h1zM178 16024v-1h-1v1h1zM179 16037v-2l-2 -1l1 2l1 1zM186 16046v-1l-2 -1l1 1l1 1zM183 16046l-2 -1l1 1h1zM186 16049l-1 -3h-1l1 2l1 1zM189 16053v-2h-2l1 1l1 1zM192 16056l-1 -1h-1v1h2zM276 16017l-1 -1h-1v1h2zM279 16017v-1h-1v1h1zM246 16017h1h-1h-1h1z"/></g><path class="grain" fill="#000" fill-rule="evenodd" d="M116 16298v-2h2l-2 2zM118 16296l-1 -2h1l2 -1v1l-2 2zM117 16291v1l-1 1v-1v-1h1zM124 16284l-1 -1v-1h1v2zM127 16281h-1l-1 -1l1 -1l1 1v1zM128 16279l-1 -1l1 -1h2v1l-2 1zM117 16277h-1v-1h1v1zM131 16277l-1 -1v-1l1 1v1zM120 16276h-1v-1h1v1zM132 16275h-1v-1h1v1zM134 16274l-2 -2h2v2zM121 16273h-1v-1h1v1zM122 16272h-1v-1h1v1zM152 16270h-1l1 -1h1l-1 1zM150 16271h-2v-1v-1l2 1h1l-1 1zM146 16269h-1v-1h1v1zM136 16270l-2 1v-1l2 -2h2v2h-2zM124 16271l-1 -1l1 -2h2l-2 3zM150 16268h-1l1 -1h1l-1 1zM153 16267h-1v-1h1v1zM148 16267h-1v-1h1v1zM144 16268l-1 -1l1 -1h1l-1 2zM130 16267h-1v-1h1v1zM127 16267h-1v-1h1v1zM146 16266h-1l1 -1h1l-1 1zM156 16262h-1v-1h1v1zM148 16263l-2 -1l2 -2l1 2l-1 1zM162 16261h-2v-1l2 -1v1v1zM160 16260h-1v-1h1v1zM158 16262l-2 -2v-1h2v1l1 2h-1zM155 16260h-1v-1h1v1zM129 16254h-1l1 -1v1zM129 16253v-1h1v1h-1zM136 16249v-1l1 1h-1zM113 16297h-1v-1h1v1zM114 16296h-1v-1h1v1zM115 16295h-1v-1h1v1zM111 16295h-1v-1h1v1zM106 16295h-1v-1h1v1zM116 16294h-1v-1h1v1zM113 16293h-1v-1h1v1zM114 16292h-1v-1h1v1zM116 16291l-1 -1h1v1zM80 16282h-1v-1h1v1zM69 16269h-1v-1h1v1zM54 16268v-1h1v1h-1zM72 16267h-1v-1h1v1zM55 16267v-1h1v1h-1zM61 16264v-1l2 1h-2zM69 16266l-1 -2l-1 -2h1l1 2v2zM66 16263h-1v-1h1v1zM48 16266v-1l2 1h-2zM53 16257h-1l-1 -1h1h1v1zM42 16255h-1v-1h1v1zM49 16253v-1h1v1h-1zM42 16249h-2v-1v-1l2 1v1zM-58 16298v-1l2 -1l-2 2zM-55 16296h-1v-1h1v1zM-54 16295l-1 -1l1 -1l1 1l-1 1zM-56 16294h-1v-1h1v1zM-51 16293h-1l-1 -1l1 -1l1 1v1zM-65 16292h-1v-1h1v1zM-50 16291h-1v-1h1v1zM-64 16290h-1v-1h1v1zM-48 16291l-2 -1l2 -2v2v1zM-45 16288h-1v-1h1v1zM-44 16287l-1 -1v-1l1 1v1zM-48 16288l-1 -2h1l2 -1v1l-2 2zM-63 16286l1 -1v1h-1zM-54 16283h-2v-1h2v1zM-57 16283h-1v-1h1v1zM-52 16283l-1 -1v-1l1 1v1zM-66 16282h-1l1 -1v1zM-56 16281h-1v-1h1v1zM-66 16281v-1l1 1h-1zM-52 16279h-1v-1h1v1zM-50 16277h-1v-1h1v1zM-56 16276h-1v-1h1v1zM-116 16295h-1v-1h1v1zM-115 16294h-1v-1h1v1zM-116 16292h-1v-1h1v1zM-108 16291h-1l1 -1h1l-1 1zM-110 16290h-1v-1h1v1zM-117 16291l-1 -1v-1l1 1v1zM-109 16289h-1v-1h1v1zM-112 16288v1l-2 -1h2zM-119 16289h-1v-1h1v1zM-112 16287l1 1h-1v-1zM-114 16288h-2h-1v-1h3v1zM-118 16287v1l-1 -1h1zM-114 16287v-1h2v1h-2zM-119 16287h-1v-1h1v1zM-92 16277h-2v-1v-1l2 1v1zM-96 16276h-1l1 -1h1l-1 1zM-94 16275h-1v-1h1v1zM-94 16274v-1l2 -1l-2 2zM-97 16273h-1v-1h1v1zM-100 16273h-2v-1h3l-1 1zM-104 16273h-1l1 -1h1l-1 1zM-96 16271h-3l1 -1h3l-1 1zM-107 16271h-1v-1h1v1zM-117 16269h-1v-1h1v1zM-111 16260h-1v-1h1v1zM-103 16256h-1v-1h1v1zM-93 16250h-1v-1h1v1zM-90 16249h-2v-1h2v1zM-104 16249h-2v-1h2v1zM-110 16249h-1v-1h1v1zM-112 16249h-2v-1h2v1zM-120 16247h-1v-1h1v1zM-106 16246h-1v-1h1v1zM-110 16246h-1l1 -1h1l-1 1zM-105 16244h-1v-1h1v1zM-108 16244h-2v-1h3l-1 1zM-122 16243h-1v-1h1v1zM-116 16240v2h-1v-2h1zM-116 16240v-2h1v2h-1zM-115 16238v-1h1v1h-1zM-120 16238h-1v-1h1v1zM-114 16237v-2h1v1l-1 1zM-116 16237v-1v-1h1v2h-1zM-162 16279h-1v-1h1v1zM-140 16278h-1v-1h1v1zM-162 16277h-1v-1h1v1zM-162 16275l-1 -1v-1l1 1v1zM-162 16272h-1v-3l1 1v2zM-164 16268h-1v-1h1v1zM-155 16250h-1v-1h1v1zM-154 16249l-1 -1h1v1zM-155 16248h-1v-1l1 1zM-157 16247l-1 1v-1h1zM-157 16247v-1h1v1h-1zM-184 16237h-1v-1h1v1zM-268 16291v-1v-1h1v1l-1 1zM-264 16288v1l-1 -1h1zM-267 16289v-1h1v1h-1zM-264 16288v-1h1v1h-1zM-266 16288v-1l1 1h-1zM-263 16287v-1h1v1h-1zM-260 16285v-1h1l-1 1zM-261 16284l1 -1v1h-1zM-253 16281l-1 1v-1h1zM-273 16295l-1 1v-1h1zM-277 16297v-1l1 -1h1v3h-1l-1 -1zM-273 16295v-1h1v1h-1zM-275 16295v-1h1v1h-1zM-274 16294v-1l1 1h-1zM-270 16293v-1h1l-1 1zM-269 16292l1 -1v1h-1zM-271 16292l1 -1v1h-1zM-330 16265l-1 -1l1 -1h1v1l-1 1zM-326 16263h-1v-1h1v1zM-324 16262h-1v-1h1v1zM-328 16262h-1v-1h1v1zM-330 16262h-1v-1h1v1zM-293 16261v-1h1v1h-1zM-321 16261h-1v-1h1v1zM-323 16261h-1v-1h1v1zM-327 16261h-1v-1h1v1zM-329 16261h-1v-1h1v1zM-325 16260h-1v-1h1v1zM-318 16252h2v-1h1v1l-1 1h-2v-1zM-318 16252h-2v-1h2v1zM-318 16251v-1h1l-1 1zM-315 16251v-1h1v-1h2v1l-2 1h-1zM-317 16250l1 -1v1h-1zM-316 16249v-1l2 1h-2zM-272 16248h-1v-1h1v1zM-313 16248h-1v-1h1v1zM-312 16249v-1l2 -2h2l-2 3h-2zM-311 16246h-1v-1h1v1zM-326 16246h-1v-1h1v1zM-308 16244h-1v-1h1v1zM-321 16243h-1v-1h1v1zM-318 16242h-1v-1h1v1zM-304 16242l-1 -1v-1h1v2zM-299 16240l1 -1v1h-1zM-315 16240h-1v-1h1v1zM-301 16239h-1v-1h1v1zM-314 16239h-1l1 -1h1l-1 1zM-299 16238h-1v-1h1v1zM-312 16238h-1v-1h1v1zM-298 16237h-1v-1h1v1zM-304 16236v1l-1 -1h1zM-296 16236h-2v-1h2v1zM-306 16236v-1h1v1h-1zM-308 16236h-1v-1h1v1zM137 16199h-1v-1h1v1zM118 16176h1l-1 1v-1zM117 16176v-2h1v2h-1zM59 16211l-1 -1v-1l1 1v1zM57 16209h-1v-1h1v1zM59 16208h-1v-1h1v1zM59 16206h-1v-1h1v1zM58 16205h-1v-1h1v1zM66 16199h-1v-1h1v1zM67 16198h-1v-1h1v1zM65 16198h-1v-1h1v1zM68 16194h-1v-1h1v1zM69 16193h-1v-1h1v1zM67 16193h-1v-1h1v1zM65 16191h-1v-1h1v1zM63 16189l-1 1v-1h1zM62 16189l-1 -1h1v1zM70 16175l-1 -1h1v1zM34 16235h-2v-1h2v1zM-37 16232h-1v-1h1v1zM-41 16232h-1v-1h1v1zM-43 16232h-1v-1h1v1zM-34 16231h-1v-1h1v1zM-53 16231h-1v-1h1v1zM-35 16230h-1v-1h1v1zM-27 16229h-1v-1h1v1zM-32 16229h-2v-1h3l-1 1zM-30 16228h-1l1 -1h1l-1 1zM-56 16228h-1v-1h1v1zM-26 16227l-1 -1l1 -1h1v1l-1 1zM-60 16225h-1v-1h1v1zM-57 16224h-1v-1h1v1zM-54 16222h-1v-1h1v1zM-52 16221h-2v-1h2v1zM-50 16220h-2v-1h2v1zM-48 16219h-2v-1l2 -1l1 1l-1 1zM-46 16217h-1v-1h1v1zM-44 16216l-1 -1l1 -1h1l-1 2zM-42 16214h-1v-1h1v1zM-41 16213h-1v-1h1v1zM-44 16210l-2 -1v-1h4l-2 2zM-50 16208h-2v-1h2v1zM-54 16208h-1l1 -1h1l-1 1zM-58 16207h-1v-1h1v1zM-65 16207h-1v-1h1v1zM-70 16206h-2v-1h2v1zM-71 16189h-1v-1h1v1zM-66 16185h-1v-1h1v1zM-64 16184h-1v-1h1v1zM-58 16182h-1v-1h1v1zM-61 16182h-1v-1h1v1zM-60 16181h-1v-1h1v1zM-59 16179h-1v-1h1v1zM-58 16178h-1l1 -1h1l-1 1zM-56 16177h-1v-1h1v1zM-53 16174h-1v-1h1v1zM-52 16173h-1v-1h1v1zM-51 16172h-1v-1h1v1zM-113 16234h1l-1 1v-1zM-118 16235h-1v-1h1v1zM-117 16234h-1v-1h1v1zM-110 16233h-2v-1h2v1zM-115 16235v-3h1l1 2h-1v1h-1zM-113 16229h-1v-1h1v1zM-106 16228v-1h1v1h-1zM-112 16228h-1v-1h1v1zM-103 16225v-1h2l-1 1h-1zM-108 16224h-1v-1h1v1zM-93 16222h-1v-1h1v1zM-132 16222h-1l1 -1h1l-1 1zM-92 16221h-1v-1h1v1zM-105 16221h-1v-1h1v1zM-128 16221h-1v-1h1v1zM-135 16221h-1v-1h1v1zM-91 16220h-1v-1h1v1zM-130 16220h-3l1 -1h2v1zM-126 16221l-1 -1l-1 -1h-1l1 -1h2v3zM-136 16219h-1l1 -1h1l-1 1zM-138 16218h-1v-1h1v1zM-136 16213h-1v-1h1v1zM-138 16212h-1v-1h1v1zM-135 16211h-1v-1h1v1zM-118 16209h-2v-1h2v1zM-115 16209l-1 -1v-1l1 1v1zM-114 16208l-1 -2h1v-2h1v4h-1zM-78 16204h-1v-1h1v1zM-79 16203h-1v-1h1v1zM-112 16203h-1v-1h1v1zM-111 16202l-1 -1v-1h1v2zM-121 16197l-1 1v-1h1zM-122 16197l-1 -1h1v1zM-122 16196v-1h2l-1 2v-1h-1zM-126 16196h-1v-2h1l1 2h-1zM-125 16194h-1v-1h1v1zM-130 16193v1l-1 -1h1zM-131 16193h-1v-1h1v1zM-130 16192l2 -1v1v2l-2 -1v-1zM-131 16192v-2h1v2h-1zM-129 16190h-1v-1h1v1zM-124 16189h-2v-1h2v1zM-126 16190h-2l-1 -2h1l2 2zM-121 16188h-1v-1h1v1zM-123 16187h-1v-1h1v1zM-122 16186h-1v-1h1v1zM-120 16185h-1v-1h1v1zM-119 16184h-1v-1h1v1zM-118 16183h-1v-1h1v1zM-116 16182h-1v-3l1 1v2zM-115 16178h-1v-1h1v1zM-117 16177h-1v-1h1v1zM-122 16176h-1v-1h1v1zM-116 16176l-1 -1v-1h1v2zM-118 16175h-1v-1h1v1zM-119 16174h-1v-1h1v1zM-187 16232v-2h1v2h-1zM-188 16226h-1v-1h1v1zM-142 16218h-1v-1h1v1zM-140 16217h-1v-1h1v1zM-143 16217h-1v-1h1v1zM-142 16216h-1v-1h1v1zM-141 16215h-1v-1h1v1zM-142 16213h-1v-1h1v1zM-296 16235v-1l1 1h-1zM-306 16235h-1v-1h1v1zM-293 16233h-1v-1h1v1zM-291 16231h-1v-1h1v1zM-301 16234v-2l1 -1l3 -1v2h-2v2h-2zM-301 16232l-1 -1v-1h1v2zM-291 16230v-1h1v1h-1zM-283 16228h-1v-1h1v1zM-284 16227h-1v-1h1v1zM-318 16227h-1v-1h1v1zM-320 16226h-1v-1h1v1zM-289 16225h-1v-1h1v1zM-291 16225h-1v-1h1v1zM-319 16225h-1v-1h1v1zM-285 16225h-3v-1h2v-1l1 1v1zM-317 16223h-1v-1h1v1zM-314 16221v-1h2l-1 2l-1 -1zM-317 16216h1l-1 1v-1zM-315 16215h-1v-1h1v1zM-323 16214l-1 -1v-1h1v2zM-316 16214h-1v-3l1 1v2zM-322 16210h-1v-1h1v1zM-324 16212h-1v-3l1 1v2zM-323 16209l-1 -1v-1l1 1v1zM-321 16207h-1v-1h1v1zM-322 16206h-1v-1h1v1zM172 16160v1l-1 -1h1zM170 16162l-1 -1v-1h1v2zM172 16159l1 1h-1v-1zM171 16160h-1l1 -1v1zM171 16159v-1h1v1h-1zM170 16117h-1v-1h1v1zM-62 16171h-5l1 -1h5l-1 1zM-73 16133h-1v-1h1v1zM-65 16132h-1v-1h1v1zM-72 16132h-1v-1h1v1zM-64 16131h-1v-1h1v1zM-63 16130h-1v-1h1v1zM-69 16130h-1v-1h1v1zM-62 16129h-1v-1h1v1zM-68 16129h-1v-1h1v1zM-61 16128h-1v-1h1v1zM-60 16127h-1v-1h1v1zM-58 16125h-1v-1h1v1zM-63 16125h-1v-1h1v1zM-60 16124h-2h-1l1 -2l2 2zM-65 16123h-1v-1h1v1zM-57 16122h-1v-1h1v1zM-70 16122h-5l1 -1h4v1zM-60 16120h-1l1 -1h1l-1 1zM-64 16119h-1v-1h1v1zM-68 16118h-2v-1h2v1zM-72 16118h-3l1 -1h3l-1 1zM-122 16171h-1v-1h1v1zM-78 16170h-2v-1h2v1zM-121 16170h-1v-1h1v1zM-124 16170h-1v-1h1v1zM-125 16169h-1v-1h1v1zM-90 16168h-1v-1h1v1zM-93 16167h-1v-1h1v1zM-95 16166h-1v-1h1v1zM-128 16166l-1 -1v-1h1v2zM-96 16164h-1v-1h1v1zM-126 16164h-1v-1h1v1zM-126 16162h-1v-1h1v1zM-96 16160h-1v-1h1v1zM-95 16158h-1v-1h1v1zM-128 16159l-1 -1v-1l1 1v1zM-125 16157h-1v-1h1v1zM-94 16156h-1v-1h1v1zM-123 16155h-1v-1h1v1zM-92 16154h-1v-1h1v1zM-91 16152h-1v-1h1v1zM-116 16152h-1v-1h1v1zM-124 16153h-2v-1l4 -1v1l-2 1zM-90 16151h-1v-1h1v1zM-107 16152h-1h-1l1 -2h1v2zM-110 16151h-1v-1h1v1zM-114 16151h-1l1 -1h1l-1 1zM-121 16151h-1v-1h1v1zM-89 16150h-1v-1h1v1zM-105 16149l-1 1v-1h1zM-120 16151v-1l2 -1v1l-2 1zM-105 16148h1l-1 1v-1zM-87 16148h-1v-1h1v1zM-116 16150l-1 -1l3 -1v-1l2 1v1h-4v1zM-85 16147h-1v-1h1v1zM-84 16146h-1v-1h1v1zM-83 16145h-1v-1h1v1zM-108 16145h-1v-1h1v1zM-82 16144h-1v-1h1v1zM-77 16141h-1v-1h1v1zM-76 16140h-1v-1h1v1zM-79 16138h-1v-1h1v1zM-76 16122h-1v-1h1v1zM-78 16122h-2v-1h2v1zM-82 16122h-2v-1h2v1zM-85 16122h-1v-1h1v1zM-92 16121h-1v-1h1v1zM-87 16120h-1v-1h1v1zM-90 16120h-1l1 -1h1l-1 1zM-94 16119h-1l1 -1h1l-1 1zM-83 16118h-1v-1h1v1zM-98 16118h-1v-1h1v1zM-89 16117h-1v-1h1v1zM-103 16117h-1v-1h1v1zM-105 16116h-1v-1h1v1zM-108 16115h-1v-1h1v1zM-111 16114h-1v-1h1v1zM-112 16113h-2v-1h2v1zM-117 16112h-1v-1h1v1zM-114 16112h-2v-2l2 2zM-116 16110h-1v-1h1v1zM-117 16109h-1v-1h1v1zM-237 16151h-1v-1h1v1zM-234 16150h-1v-1h1v1zM-236 16149h-1v-1h1v1zM-238 16148h-1v-1h1v1zM-240 16147h-2v-1l2 -1v1v1zM-340 16111h-1v-1h1v1zM-73 16061h-1v-1h1v1zM-71 16059h-1v-1h1v1zM-69 16058h-1v-1h1v1zM-75 16058h-1v-1h1v1zM-70 16057h-1v-1h1v1zM-66 16056h-1v-1h1v1zM-72 16056h-1v-1h1v1zM-67 16055h-1v-1h1v1zM-62 16054h-1v-1h1v1zM-64 16055h-2v-1v-1l2 1v1zM-69 16054h-1v-1h1v1zM-61 16053h-1v-1h1v1zM-65 16052h-1v-1h1v1zM-57 16051h-1v-1h1v1zM-64 16051h-1v-1h1v1zM-55 16050h-1v-1h1v1zM-62 16050h-1v-1h1v1zM-56 16049h-1v-1h1v1zM-60 16049h-1v-1h1v1zM-51 16048h-1v-1h1v1zM-58 16048h-1v-1h1v1zM-50 16047h-1v-1h1v1zM-55 16046h-1v-1h1v1zM-47 16045h-1v-1h1v1zM-53 16045h-1v-1h1v1zM-45 16044h-1v-1h1v1zM-51 16044h-1v-1h1v1zM-118 16106h-1v-1h1v1zM-118 16104h-1v-4h1v4zM-117 16098h-1v-1h1v1zM-119 16098h-1v-1h1v1zM-116 16096h-1v-1h1v1zM-118 16096h-1v-1h1v1zM-115 16094h-1v-1h1v1zM-114 16093h-1v-1h1v1zM-113 16091h-1v-1h1v1zM-116 16091h-1v-1h1v1zM-111 16089h-1v-1h1v1zM-114 16089h-1v-1h1v1zM-113 16088h-1v-1h1v1zM-112 16087l-1 -1l1 -1l1 1l-1 1zM-110 16084h-1v-1h1v1zM-104 16082h-1v-1h1v1zM-108 16083l-1 -1l1 -1l1 1l-1 1zM-101 16081h-1v-1h1v1zM-102 16080h-1v-1h1v1zM-106 16081l-1 -1l1 -1l1 1l-1 1zM-100 16080l-1 -1v-1h1v2zM-97 16078h-1v-1h1v1zM-99 16078h-1v-1h1v1zM-104 16079l-1 -1l1 -1h2v1l-2 1zM-98 16077h-1v-1h1v1zM-94 16076h-1v-1h1v1zM-96 16077l-1 -1v-1l1 1v1zM-102 16077v-1l2 -1v1l-2 1zM-92 16074h-1l1 -1h1l-1 1zM-98 16074h-1v-1h1v1zM-95 16073h-1l-1 -1l1 -1l1 1v1zM-87 16071h-1v-1h1v1zM-94 16071h-1l1 -1h1l-1 1zM-86 16070h-1v-1h1v1zM-88 16070h-1v-1h1v1zM-92 16070h-1l1 -1h1l-1 1zM-83 16068h-1v-1h1v1zM-85 16068h-1v-1h1v1zM-84 16067h-1v-1h1v1zM-82 16067l-1 -1v-1l1 1v1zM-86 16066h-1v-1h1v1zM-79 16065h-1v-1h1v1zM-85 16065h-1v-1h1v1zM-83 16064h-1v-1h1v1zM-76 16063h-1v-1h1v1zM-80 16062h-1v-1h1v1zM-79 16061h-1v-1h1v1zM-76 16059h-1v-1h1v1zM-211 16071h-1v-1h1v1zM-213 16071h-1v-1h1v1zM-209 16070h-1v-1h1v1zM-208 16069h-1v-1h1v1zM-220 16069h-1l1 -1h1l-1 1zM-218 16068h-1l1 -1h1l-1 1zM-219 16067h-1v-1h1v1zM-221 16067h-1v-1h1v1zM-268 16053l1 1h-1v-1zM-326 16094h-1v-1h1v1zM-328 16093l-2 -2v-1l2 2v1zM-330 16090l-1 -1v-1h1v2zM-331 16088h-1v-1h1v1zM-326 16075h-1v-1h1v1zM-300 16075h-2v-1l2 -1l1 1l-1 1zM-327 16074h-1v-1h1v1zM-302 16073h-1v-1h1v1zM-326 16073h-1v-1h1v1zM-324 16072h-1v-1h1v1zM-298 16073l-1 -1l3 -2h1l-3 3zM-299 16072l-1 -1v-1h1v2zM-322 16071h-1v-1h1v1zM-327 16069h-1v-1h1v1zM-295 16068h1v-1h2l-2 3h-1v-2zM-295 16068h-1l1 -1v1zM-295 16067v-1h1v1h-1zM-327 16067h-1v-1h1v1zM-294 16065l-1 -1h1v1zM-326 16064h-1v-1h1v1zM-278 16064h-1l1 -2h2l-2 2zM-300 16065l-1 -1v-2h1v3zM-295 16064h-1l1 -3v3zM-299 16062h-1v-1h1v1zM-276 16062v-1l2 -1l-2 2zM-298 16060h-1v-1h1v1zM-273 16059h-1v-1h1v1zM-272 16058h-1l1 -1h1l-1 1zM-283 16057h-1v-1h1v1zM-293 16057h-1v-1h1v1zM-282 16056h-1v-1h1v1zM-293 16056l1 -1v1h-1zM-281 16055h-1v-1h1v1zM-291 16054h-1v-1h1v1zM-295 16055l-1 -1v-1l1 1v1zM-322 16054l-1 -1v-1h1v2zM-279 16052h-1v-1h1v1zM-278 16051h-1v-1h1v1zM-289 16051h-1v-1h1v1zM-275 16047h-1v-1h1v1zM-289 16045h-1v-1h1v1zM-346 16096h-1v-1h1v1zM-347 16095h-2l1 -2v-1v-1l1 1v3zM-348 16090l-1 -2l1 -1l1 1v2h-1zM-364 16088h-1v-1h1v1zM-344 16086l-1 -1v-1h1v2zM-346 16085h-1v-1h1v1zM-342 16084h-1v-1h1v1zM-363 16084h-1v-3l1 1v2zM-338 16081h-1v-1h1v1zM-346 16081h-1v-1h1v1zM-362 16078h-1v-1h1v1zM-361 16075h-1v-1h1v1zM-360 16072h-1v-1h1v1zM-343 16063l-1 -1v-1l1 1v1zM-341 16060h-1v-1h1v1zM-339 16056h-1v-1h1v1zM-337 16052h-1v-1h1v1zM-336 16051h-1v-1h1v1zM-340 16049l1 1h-1v-1zM-335 16048h-1v-1h1v1zM-334 16046h-1v-1h1v1zM-332 16045h-1l1 -1h1l-1 1zM149 16006h-1v-1h1v1zM-44 16043h-1v-1h1v1zM-50 16043h-1v-1h1v1zM-48 16042h-1v-1h1v1zM-40 16041h-2v-1h2v1zM-37 16039h-1v-1h1v1zM-35 16037h-1v-1h1v1zM-33 16036h-1v-1h1v1zM-31 16035h-1v-1h1v1zM-30 16034l-1 -1v-1h1v2zM-26 16029l-1 -1v-1l1 1v1zM-26 16025h-1v-1h1v1zM-27 16023h-1v-1h1v1zM-28 16022h-1v-1h1v1zM-30 16020h-1v-1h1v1zM-29 16019h-1v-1h1v1zM-35 16018h-1v-1h1v1zM-32 16019l-2 -2v-1l2 2v1zM-36 16017h-2v-1h2v1zM-35 16016h-1v-1h1v1zM-39 16015h-1v-1h1v1zM-42 16015h-2l-1 -1l1 -1l2 1v1zM-46 16014h-3l1 -1h2v1zM-45 16013h-1v-1h1v1zM-50 16013h-1v-1h1v1zM-52 16013h-1v-1h1v1zM-49 16012h-1v-1h1v1zM-56 16012h-2v-1h2v1zM-60 16012h-1v-1h1v1zM-51 16011h-1v-1h1v1zM-55 16011h-1v-1h1v1zM-64 16011h-2v-1h2v1zM-57 16010h-1v-1h1v1zM-59 16010h-1v-1h1v1zM-69 16010h-1v-1h1v1zM-61 16009h-1v-1h1v1zM-72 16009h-1l1 -1h1l-1 1zM-68 16008h-1v-1h1v1zM-74 16008h-1v-1h1v1zM-74 16006h-2v-1h2v1zM-80 16008h-1v-1h1v1zM-77 16007h-1v-1h1v1zM-82 16006h-1l1 -1h1l-1 1zM-84 16006h-1v-1h1v1zM-85 16005h-1v-1h1v1zM-83 16004h-1v-1h1v1zM-88 16004h-1v-1h1v1zM-93 16004h-1v-1h1v1zM-85 16003h-1v-1h1v1zM-91 16003h-1v-1h1v1zM-87 16002h-1v-1h1v1zM-92 16002h-1v-1h1v1zM-90 16001h-1v-1h1v1zM-93 16001h-1v-1h1v1zM-96 16001h-1v-1h1v1zM-92 16000h-1l1 -1h1l-1 1zM-94 16000h-1v-1h1v1zM-93 15998h-1v-3l1 1v2zM-95 15999l-1 -1l-1 -2l1 -1l1 1v3zM-94 15995l-1 -1l1 -2h2h1l-1 2h-2v1zM-90 15991h-1v-1h1v1zM-94 15992h-2l2 -2h1l-1 2zM-88 15990h-2v-1h2v1zM-91 15988h-1v-1h1v1zM-86 15987h-1v-1h1v1zM-85 15986h-1v-1h1v1zM-84 15985h-1l1 -1h1l-1 1zM-82 15984h-1v-1h1v1zM-86 15985h-2l-1 -1l3 -2v3zM-79 15982h-1v-1h1v1zM-85 15982h-1v-1h1v1zM-78 15981h-1l1 -1h1l-1 1zM-80 15981h-1v-1h1v1zM-82 15982l-2 -2l2 -1v1l1 2h-1zM-272 16043h-1v-1h1v1zM-319 16043h-1v-1h1v1zM-277 16041h-1v-1h1v1zM-289 16041h-1v-1h1v1zM-275 16040h-1h-1l1 -2h1v2zM-271 16038h-1v-1h1v1zM-273 16038h-1h-1l1 -2h1v2zM-315 16037h-1v-1h1v1zM-268 16036h-2v-1h2v1zM-314 16036h-1v-1h1v1zM-285 16035h-1v-1h1v1zM-312 16035h-1v-1h1v1zM-286 16034l-1 -1v-1h1v2zM-284 16029h-1v-1h1v1zM-282 16029l-1 -1v-1l1 1v1zM-283 16027h-1v-1h1v1zM147 15972h-1v-1h1v1zM145 15970h-1v-1h1v1zM178 15960h-1v-1h1v1zM-71 15977h-1v-1h1v1zM-73 15975l1 1h-1v-1zM-75 15975v-1l2 1h-2zM-65 15973l-1 1v-1h1zM-72 15974h-1v-1h1v1zM-65 15972h1h1l-1 1h-1v-1zM-66 15973l-1 -1h1v1zM-60 15971h-1v-1h1v1zM-62 15971h-1v-1h1v1zM-66 15972v-2h1v2h-1zM-58 15970h-1v-1h1v1zM-56 15969h-1v-1h1v1zM-60 15969h-1l1 -1h1l-1 1zM-54 15968h-1v-1h1v1zM-57 15968h-1v-1h1v1zM-59 15967h-1v-1h1v1zM-50 15966h-1l1 -1h1l-1 1zM-48 15965h-1v-1h1v1zM-51 15965h-1v-1h1v1zM-46 15964h-1l1 -1h1l-1 1zM-50 15964h-1v-1h1v1zM-44 15963h-1l1 -1h1l-1 1zM-48 15963h-1v-1h1v1zM-42 15962h-1v-1h1v1zM-45 15962h-1v-1h1v1zM-38 15961h-2v-1l2 -1l1 1l-1 1zM-33 15959h-1v-1h1v1zM-36 15959h-1v-1h1v1zM-40 15959h-1v-1h1v1zM-37 15958h-1v-1h1v1zM-30 15957h-1v-1h1v1zM-32 15958l-1 -1v-1h1v2zM-36 15957h-1v-1h1v1zM-34 15956h-1l1 -1h1l-1 1zM-28 15956l-1 -1l1 -2h3l-1 1l-2 2zM-29 15953h-1v-1h1v1zM-27 15952h-1v-1h1v1zM-24 15953l-1 -1l1 -1l2 -1v2h-2v1zM-25 15951h-1v-1h1v1zM-24 15950h-1v-1h1v1zM-20 15951l-2 -1l2 -2h2v1h-2v1v1zM-23 15949h-1v-1h1v1zM-21 15948h-1v-1h1v1zM-20 15947h-1v-1h1v1zM-18 15947v-1l2 -1v1l-2 1zM-56 15946h-2v-1h3l-1 1zM-68 15946h-1v-1h1v1zM-47 15945h-1v-1h1v1zM-72 15944v1l-1 -1h1zM-38 15943h-2v-1h3l-1 1zM-42 15943h-2v-1h3l-1 1zM-45 15943h-1v-1h1v1zM-43 15941h-1v-1h1v1zM-46 15941h-2v-1l2 -1h2v1l-2 1zM-77 15978l-1 1v-1h1zM-81 15979h-1v-1h1v1zM-88 15930v1l-1 -1h1zM-84 15925v-1h1l-1 1zM-83 15923l1 1h-1v-1zM-85 15921v-1h1v1h-1zM-82 15918v-1h1v1h-1zM-54 15899v-1h2v1h-2zM-52 15898v-1h1v1h-1zM-51 15896h1l-1 1v-1zM-48 15896h-1v-1h1v1zM-46 15894v-1h1v1h-1zM-45 15893v-1h1v1h-1zM-44 15892v-1h1v1h-1zM-43 15891v-1h1v1h-1zM-42 15890v-1h1v1h-1zM-41 15889v-1h1v1h-1zM-40 15888v-1h1v1h-1zM-71 15872l-1 1v-1h1zM-77 15870l-1 1l-2 -1h3zM-84 15869h-1l1 -1h1l-1 1zM-87 15867l-1 1v-1h1zM-90 15868h-1v-1h1v1zM-92 15867h-1v-1h1v1zM-93 15866h-1v-1h1v1zM-91 15865h-1l-1 -1v-1h1v1h1v1zM-93 15863h-1l-1 -5h1l1 2v3zM-96 15858h-1v-1h1v1zM-94 15857l-1 -1v-1l1 1v1zM-93 15855l-1 -1v-1l1 1v1zM-90 15854l-1 -1v-1h1v2zM-89 15852h-1v-1h1v1zM-88 15851l-1 -1l1 -1l1 1l-1 1zM-92 15853v-1v-2l2 -2l-1 4l-1 1zM-85 15846v2l-1 1l-1 -1l1 -2h1zM-88 15847l-1 -1v-1l1 1v1zM-85 15846l1 -2h1v2h-1h-1zM-86 15846h-1l1 -2v2zM-86 15844v-1h1v1h-1zM-83 15843l1 -1h1v2h-2v-1zM-87 15843h-1v-1h1v1zM-80 15842h-1v-1h1v1zM-85 15843v-2h2v2h-2zM-82 15840h-1l1 -1h1l-1 1zM-84 15840h-1v-1h1v1zM-80 15839h-1l1 -2v2zM-80 15837v-1v-1h1v2h-1zM-78 15832h-1v-1h1v1zM256 15970h-1l1 -1h1l-1 1zM250 15970h-1l1 -1h1l-1 1zM259 15969h-1v-1h1v1zM262 15968h-1v-1h1v1zM246 15968h-1v-1h1v1zM269 15966h-1v-1h1v1zM272 15966h-2l-1 -2h1l2 2zM278 15963v1l-1 -1h1zM276 15965h-3v-1l1 -1v1h2v1zM272 15964h-1v-1h1v1zM278 15962h1l-1 1v-1zM280 15963l-1 -1l1 -1h2v1l-2 1zM277 15963h-1v-2l2 1h-1v1zM269 15961h-1v-1h1v1zM286 15959h-1v-1h1v1zM276 15959h-1v-1h1v1zM266 15960l-1 -2h1h1v2h-1zM246 15960l-1 -1v-1h1v2zM247 15958h-1v-1h1v1zM272 15957h-1v-1h1v1zM268 15959v-1v-2h2v2l-2 1zM265 15958l-1 -1v-1h1v2zM285 15956h-1v-1h1v1zM274 15956h-2v-1h2v1zM268 15956h-1v-1h1v1zM249 15956h-1v-1h1v1zM284 15955h-2v-1h2v1zM276 15955h-2v-1h3l-1 1zM263 15955h-1v-1h1v1zM247 15955h-1v-1h1v1zM266 15955h-1v-1l1 -1l1 1l-1 1zM260 15954h-1v-1h1v1zM258 15953h-1l1 -1h1l-1 1zM251 15953h-1v-1h1v1zM256 15952h-1v-1h1v1zM245 15859h-1v-1h1v1zM190 16117l-1 -1v-1l1 1v1zM192 16074h-1v-1h1v1zM191 16039h-1v-1h1v1zM190 16036h-1l1 -1h1l-1 1zM191 16034h-1v-1h1v1zM189 16034h-1v-1h1v1zM191 16028h-1v-1h1v1zM209 16025h-1v-1h1v1zM191 16021h-1v-1h1v1zM190 16017h-1v-1h1v1zM217 16014l1 -1v1h-1zM222 16013v-1l1 1h-1zM186 16007h-1v-1h1v1zM190 15975h-1v-1h1v1zM224 15973h-2v-1h3l-1 1zM220 15973h-1v-1h1v1zM201 15973h-1v-1h1v1zM194 15973h-1v-1h1v1zM229 15972h-1v-1h1v1zM197 15972h-1v-1h1v1zM184 15972h-1v-1h1v1zM238 15971h-1v-1h1v1zM231 15971h-1v-1h1v1zM210 15971h-3l1 -1h2v1zM202 15971h-1v-1h1v1zM200 15971h-1v-1h1v1zM194 15971h-1v-1h1v1zM240 15970h-1v-1h1v1zM212 15970h-1v-1h1v1zM204 15970h-2v-1h2v1zM244 15969h-3l1 -1h3l-1 1zM219 15968l-1 1v-1h1zM214 15969h-2v-1h2v1zM207 15968l-1 2l-2 -2h3zM219 15967l1 1h-1v-1zM184 15968h-1v-1h1v1zM238 15967h-1v-1h1v1zM230 15967h-2v-1h2v1zM224 15968h-2v-2l2 2zM215 15967h-1v-1h1v1zM182 15968l-1 -1v-1h1v2zM222 15966h-1v-1h1v1zM217 15966h-1v-1h1v1zM202 15966h-1l1 -1v1zM195 15967l-1 -1v-1l1 1v1zM191 15966h-1v-1h1v1zM223 15965h-1v-1h1v1zM192 15965h-1v-1h1v1zM237 15964h-1v-1h1v1zM229 15965l-1 -1v-1l1 1v1zM217 15964h-1v-1h1v1zM214 15965l-2 -1v-1h2l1 1l-1 1zM200 15964v-1h1v1h-1zM187 15964h-1v-1h1v1zM242 15963h-1l1 -1h1l-1 1zM240 15965l-2 -1l2 -2v2v1zM224 15964v-1l2 -1l-2 2zM220 15963h-1v-1h1v1zM192 15963h-1v-1h1v1zM188 15963h-1v-1h1v1zM235 15963h-1l-1 -1l1 -1l1 1v1zM231 15962h-1v-1h1v1zM216 15962h-1l1 -1h1l-1 1zM208 15963l-1 -1v-1l1 1v1zM204 15961v1l-1 -1h1zM201 15963v-1l1 -1v1v1h-1zM200 15962h-1v-1h1v1zM194 15964h-1v-2l1 -1l1 1l-1 2zM232 15961h-1v-1h1v1zM228 15962l-2 -2h2l1 2h-1zM224 15961h-1v-1h1v1zM215 15961h-1v-1h1v1zM196 15962l-1 -2h1h1v2h-1zM239 15960h-1v-1h1v1zM230 15961l-1 -1v-1l1 1v1zM222 15962h-1v-3h1l1 1h-1v2zM216 15960h-1v-1h1v1zM212 15960h-1v-1h1v1zM228 15959h-1v-1h1v1zM207 15959h-1v-1h1v1zM198 15960l-1 -1v-1h1v2zM233 15958h-1v-1h1v1zM205 15958h-1v-1h1v1zM235 15958l-1 -1v-1h1v2zM212 15957h-1v-1h1v1zM208 15957h-2v-1h2v1zM204 15957h-1v-1h1v1zM230 15956h-1v-1h1v1zM228 15957h-2v-1l2 -1v1v1zM222 15956h-1v-1h1v1zM220 15956h-2v-1h2v1zM202 15956h-1v-1h1v1zM221 15955h-1v-1h1v1zM204 15955h-1v-1h1v1zM201 15955h-1v-1h1v1zM233 15954h-1v-1h1v1zM228 15955v-1l2 -1v1l-2 1zM222 15954h-1l1 -1h1l-1 1zM206 15954h-1l1 -1h1l-1 1zM225 15953h-1l-1 -1l1 -1l1 1v1zM238 15858h-1v-1h1v1zM-81 16384h-1l1 -1v1zM-86 16383h-1v-1h1v1zM-108 16382h-1l1 -1h1l-1 1zM-114 16382h-1v-1h1v1zM-116 16382h-1v-1h1v1zM-104 16381h-1v-1h1v1zM-106 16381h-1v-1h1v1zM-110 16382h-3v-2h1v1h2v1zM-98 16380v-1h1v1h-1zM-103 16380h-1v-1h1v1zM-114 16380h-1v-1h1v1zM-104 16379h-2v-1h2v1zM-98 16378h-1v-1h1v1zM-100 16378h-1v-1h1v1zM-102 16377h-1v-1h1v1zM-111 16379l-1 -1v-2h1v3zM-114 16377h-1v-1h1v1zM-98 16376h-1v-1h1v1zM-100 16376h-1v-1h1v1zM-106 16376h-1v-1h1v1zM-109 16376h-1v-1h1v1zM-89 16375v-1h1v1h-1zM-94 16376l-1 -1v-1h1v2zM-97 16375h-1v-1h1v1zM-108 16375h-1v-1h1v1zM-95 16374h-1v-1h1v1zM-98 16374h-1v-1h1v1zM-114 16375l-1 -1v-1l1 1v1zM-93 16374l-1 -1v-1h1v2zM-110 16372h-1l1 -1h1l-1 1zM-92 16372l-1 -1v-1h1v2zM-93 16370h-1v-1h1v1zM-108 16369v1v1l-1 -1v-1h1zM-112 16373h-2v-1h1v-2l1 -1l1 1l-1 3zM-108 16367l1 1l-1 1v-2zM-109 16369h-1l1 -2v2zM-92 16370v-4h2v2l-2 2zM-109 16367v-1h1v1h-1zM-104 16366h-1v-1h1v1zM-90 16365l-1 -1h1v1zM-136 16365h-1v-1h1v1zM-138 16365h-1v-1h1v1zM-106 16365h-2v-1l2 -1l1 1l-1 1zM-153 16366h-1v-1h1v1zM-151 16365h-1v-1h1v1zM128 16360h-1v-1h1v1zM145 16359h-1v-1h1v1zM141 16359h-1v-1h1v1zM146 16358h-1v-1h1v1zM142 16358h-1l1 -1h1l-1 1zM142 16356l-2 -1h-1l1 -1h2v2zM148 16354h-5l1 -1h4v1zM120 16343h-4v-1h4v1zM128 16341h-2v-1h3l-1 1zM124 16342h-4v-1h2l2 -1v2zM120 16340h-3l1 -1h2v1zM133 16339l-4 1l1 -1l4 -1h1l-1 1h-1zM124 16339h-2v-1h3l-1 1zM121 16339h-1v-1h1v1zM130 16338h-2v-1h3l-1 1zM134 16337h-3l1 -1h3l-1 1zM138 16336h-3l1 -1h2v1zM129 16331h-1v-1h1v1zM127 16331h-1v-1h1v1zM141 16328h-1h-1v-1h2v1zM143 16325h1v1h-1v-1zM141 16327v-1l1 -1v2h-1zM161 16325h-1v-1h1v1zM142 16325v-1l1 1h-1zM148 16324h-1l1 -1h1l-1 1zM150 16323h-1v-1h1v1zM146 16322h-1v-1h1v1zM126 16322h-1v-1h1v1zM154 16321h-1v-1h1v1zM156 16320h-1v-1h1v1zM129 16320v-1h1l1 1h-2zM129 16320l-1 1h-2v-1l2 -1v1h1zM132 16319h-1v-1h1v1zM128 16319v-1h1v1h-1zM124 16319v-1h1l-1 1zM134 16318h-1v-1h1v1zM129 16318l1 -1v1h-1zM130 16317v-1h1l-1 1zM137 16316h-1v-1h1v1zM123 16315l-1 1v-1h1zM140 16315h-1v-1h1v1zM131 16314h1l-1 2v-2zM141 16314h-1v-1h1v1zM133 16314h-1v-1h1v1zM142 16313h-1v-1h1v1zM134 16313h-1v-1h1v1zM135 16311h-1v-1h1v1zM123 16311v-1h1v1h-1zM135 16308h1v2h-1v-2zM129 16309v-1h1v1h-1zM127 16309h-1v-1h1v1zM128 16308h-1v-1h1v1zM130 16307h-2v-1h2v1zM125 16306h1l-1 1v-1zM132 16306h-2v-1h2v1zM119 16305v-1h1v1h-1zM118 16304h-1v-1h1v1zM116 16341h-4v-1h2l2 -1l1 1l-1 1zM105 16333v-1h1v1h-1zM94 16328v-1l2 1h-2zM101 16326v-1l2 1h-2zM106 16325h-1v-1h1v1zM98 16325h-1l1 -1h1l-1 1zM110 16322h-1v-1h1v1zM105 16320h1h1l-1 1h-1v-1zM98 16321h-1v-1h1v1zM111 16318h-1v-1h1v1zM105 16317v-1h1v1h-1zM104 16317h-3l1 -1h2v1zM112 16316h-1l1 -1h1l-1 1zM106 16316v-2l2 1l-1 1h-1zM100 16315l-2 -1h-1l1 -1h2v1v1zM109 16313h-1v-1h1v1zM105 16313l-1 2l-2 -1v-2h2v1h1zM101 16313h-1v-1h1v1zM105 16313v-1l1 -1v1v1h-1zM98 16312h-1v-1h1v1zM106 16310h1l-1 1v-1zM105 16309h1v1h-1v-1zM99 16310h-1v-1h1v1zM112 16309h-1v-1h1v1zM108 16310h-1l1 -2v2zM104 16309v-1h1v1h-1zM108 16308v-1h1v1h-1zM103 16308l1 -1v1h-1zM100 16308h-1v-1h1v1zM113 16308l-1 -1v-1h1v2zM109 16307v-1h1v1h-1zM107 16307h-1v-1h1v1zM105 16307h-1v-1h1v1zM110 16306v-1h1v1h-1zM106 16306h-1v-1h1v1zM102 16306h-1v-1h1v1zM107 16305h-1v-1h1v1zM103 16305h-1v-1h1v1zM110 16305l-1 -1v-1l1 1v1zM111 16305v-3h1h1v2l-1 1h-1zM104 16303h-1v-1h1v1zM108 16303l-1 -1l1 -1l1 1l-1 1zM105 16302h-1v-1h1v1zM113 16302v-2h1h1l-1 2h-1zM110 16301h-1v-1h1v1zM111 16300h-1v-1h1v1zM106 16301l-1 -1l1 -1l1 1l-1 1zM-70 16339h-1v-1h1v1zM-68 16338h-1v-1h1v1zM-71 16338h-1v-1h1v1zM-67 16337h-1v-1h1v1zM-70 16337h-1l1 -1h1l-1 1zM-64 16335h-1v-1h1v1zM-74 16336l-2 -2h2v2zM-65 16334h-1v-1h1v1zM-69 16334h-1v-1h1v1zM-71 16334h-1v-1h1v1zM-64 16333h-1v-1h1v1zM-61 16331v-1h2l-1 2v-1h-1zM-70 16331h-1v-1h1v1zM-62 16330h-1l1 -1h1l-1 1zM-74 16332l-1 -2l1 -1h2v1h-1v2h-1zM-58 16329h-1v-1h1v1zM-61 16328h-1v-1h1v1zM-66 16326h-1v-1h1v1zM-73 16326h-1v-1h1v1zM-71 16325h-1v-1h1v1zM-69 16324h-1v-1h1v1zM-63 16322h-1v-1h1v1zM-66 16322h-1v-1h1v1zM-62 16321h-1v-1h1v1zM-60 16320h-1v-1h1v1zM-62 16319h-1l1 -1h1l-1 1zM-73 16319h-1v-1h1v1zM-58 16318h-1v-1h1v1zM-56 16317h-1v-1h1v1zM-55 16316h-1v-1h1v1zM-54 16315h-1v-1h1v1zM-68 16314h-2v-2l2 2zM-63 16311h-1v-1h1v1zM-47 16310h-1v-1h1v1zM-51 16309h-1v-1h1v1zM-46 16309l-1 -1l1 -1l1 1l-1 1zM-47 16307h-1v-1h1v1zM-58 16306h-1l1 -1h1l-1 1zM-60 16307h-2l-1 -1l1 -1l2 1v1zM-64 16306h-1l1 -1h1l-1 1zM-68 16306h-1v-1h1v1zM-54 16305h-1v-1h1v1zM-66 16305h-2v-1h2v1zM-48 16304h-4v-1h4v1zM-56 16304h-1v-1h1v1zM-58 16304h-2v-1h2v1zM-57 16303h-1v-1h1v1zM-66 16304v-2v-1l2 1l-2 2zM-55 16302h-1h-1l1 -2h1v2zM-61 16301h-1v-1h1v1zM-64 16300h-1v-1h1v1zM-104 16363h-1v-1h1v1zM-103 16362h-1v-1h1v1zM-105 16362h-1v-1h1v1zM-101 16361h-1v-1h1v1zM-106 16361h-1v-1h1v1zM-138 16361h-1v-1h1v1zM-107 16360h-1v-1h1v1zM-139 16359h-1v-1h1v1zM-139 16355h-1v-1h1v1zM-86 16349h-1v-1h1v1zM-84 16348h-1v-1h1v1zM-87 16348h-1v-1h1v1zM-83 16347h-1v-1h1v1zM-86 16347h-1v-1h1v1zM-84 16346h-1v-1h1v1zM-82 16345h-2v-1h2v1zM-80 16345l-2 -1v-1h2v1v1zM-79 16343h-1v-1h1v1zM-77 16342h-1v-1h1v1zM-82 16341h-1v-1h1v1zM-79 16339h-1v-1h1v1zM-78 16338h-1l1 -1h1l-1 1zM-79 16337h-1v-1h1v1zM-82 16337h-1l1 -1h1l-1 1zM-78 16336h-1v-1h1v1zM-84 16334h-1l1 -2h2l-2 2zM-122 16335h-2v-1l2 -2h1v2l-1 1zM-126 16333l-1 -1h1v1zM-81 16332h-1v-1h1v1zM-76 16332l-1 -1v-1h1v2zM-80 16331h-1v-1h1v1zM-127 16331h-1v-1h1v1zM-84 16330h-1v-1h1v1zM-78 16330h-2l2 -2h1l-1 2zM-76 16328h-1l1 -1h1l-1 1zM-82 16328h-3l1 -1h3l-1 1zM-80 16327h-1v-1h1v1zM-77 16325h-1v-1h1v1zM-111 16319h-1v-1h1v1zM-101 16314h-1v-1h1v1zM-113 16313l1 1v1l-2 -1h1v-1zM-114 16314h-1l1 -1v1zM-100 16313h-1l1 -1h1l-1 1zM-114 16313v-1l1 1h-1zM-102 16312h-1v-1h1v1zM-105 16312l1 -1v1h-1zM-110 16311h-1v-1h1v1zM-100 16310h-2v-1h2v1zM-112 16310h-1v-1h1v1zM-116 16310h-1v-1h1v1zM-115 16309h-1v-1h1v1zM-114 16308h-1l1 -1h1l-1 1zM-80 16307h-1v-1h1v1zM-83 16307h-1v-1h1v1zM-106 16307h-2v-1h2v1zM-109 16307h-1v-1h1v1zM-117 16307v-1h1v1h-1zM-78 16306h-1v-1h1v1zM-107 16305h-1v-1h1v1zM-112 16304v1l-1 -1h1zM-102 16304h-1v-1h1v1zM-105 16304h-1v-1h1v1zM-115 16300h-1l1 -1v1zM-152 16364l-1 -1v-1h1v2zM-151 16361h-1v-1h1v1zM-149 16359h-1v-1h1v1zM-150 16358h-1v-1h1v1zM-140 16357h-1v-1h1v1zM-148 16357l-1 -1v-1l1 1v1zM-141 16355l-1 -1v-1l1 1v1zM-149 16355l-1 -1v-1l1 1v1zM-147 16355l-1 -1v-3l1 1v3zM-140 16353l-1 -1v-2h1v3zM-145 16351h-1v-1h1v1zM-148 16351h-1v-1h1v1zM-150 16351h-1v-1h1v1zM-149 16350h-1v-1h1v1zM-143 16348h1l-1 1v-1zM-147 16349h-1v-1h1v1zM-144 16348v-2h1v2h-1zM-156 16347v-1l1 1h-1zM-159 16347v-1h1v1h-1zM-150 16346h-1l1 -1h1l-1 1zM-156 16346h-1v-1h1v1zM-155 16345h-1v-1h1v1zM-168 16330h-1v-1h1v1zM-166 16329h-1v-1h1v1zM-169 16329h-1v-1h1v1zM-158 16328h-1v-1h1v1zM-160 16328h-2v-1h2v1zM-163 16327h-1v-1h1v1zM-158 16326h-1v-1h1v1zM-161 16326h-1v-1h1v1zM-165 16326h-1v-1h1v1zM-223 16311v-1h1v1h-1zM-222 16309h-1v-1h1v1zM-287 16305v-1h1v1h-1zM115 16300v-2h1v2h-1zM108 16299h-1v-1h1v1zM112 16299l-1 -1v-1l1 1v1zM-58 16299h-1v-1h1v1zM-64 16299l-1 -2l2 -1v2l-1 1zM350 16400h-2v-1h3l-1 1zM346 16400h-1v-1h1v1zM343 16400h-1v-1h1v1zM339 16400h-1v-1h1v1zM356 16399h-4v-1h4v1zM352 16398h-1v-1h1v1zM350 16398h-1v-1h1v1zM359 16396h-1v-1h1v1zM358 16397h-2v-1v-1l2 1v1zM315 16392h-1v-1h1v1zM312 16391h-2v-1h2v1zM314 16391l-1 -1v-1l1 1v1zM318 16382h-1l1 -1h1l-1 1zM320 16382l-1 -2h1h1v2h-1zM319 16380h-1v-1h1v1zM313 16380h-1v-1h1v1zM317 16379h-1v-1h1v1zM314 16379h-1l1 -1h1l-1 1zM311 16378h-1v-1h1v1zM314 16377h-1v-1h1v1zM312 16376h-1v-1h1v1zM314 16373h-3l1 -1h2v1zM316 16371h-1v-1h1v1zM312 16370l-1 -2h1h1v2h-1zM317 16368h-1v-1h1v1zM310 16368h-1v-1h1v1zM316 16367h-1v-1h1v1zM309 16367h-1v-1h1v1zM302 16389h-1v-1h1v1zM299 16388h-1v-1h1v1zM301 16387h-1v-1h1v1zM298 16387h-1v-1h1v1zM296 16386h-1l1 -1h1l-1 1zM294 16387h-2l-1 -1l1 -1h2l1 1l-1 1zM285 16386h-1v-1h1v1zM287 16385h-1v-1h1v1zM277 16385h-1v-1h1v1zM283 16384h-1v-1h1v1zM280 16384h-1v-1h1v1zM274 16384h-1v-1h1v1zM276 16383h-1v-1h1v1zM308 16379h-1v-1h1v1zM304 16379h-1v-1h1v1zM306 16379l-1 -1v-1l1 1v1zM302 16378h-2v-1h3l-1 1zM299 16378h-1v-1h1v1zM295 16378h-1v-1h1v1zM293 16378h-1v-1h1v1zM288 16378h-2v-1h2v1zM284 16378h-1l1 -1h1l-1 1zM296 16376h-1l1 -1h1l-1 1zM292 16376h-1l1 -1h1l-1 1zM300 16375h-1v-1h1v1zM294 16375h-1v-1h1v1zM285 16375h-1v-1h1v1zM298 16374h-2v-1h2v1zM282 16374h-1l1 -1h1l-1 1zM280 16374h-1v-1h1v1zM277 16374h-1v-1h1v1zM276 16375h-3v-2h1l2 1v1zM271 16374h-1v-1h1v1zM294 16373h-1v-1h1v1zM272 16373h-1v-1h1v1zM291 16372h-1v-1h1v1zM280 16372h-4v-1h5l-1 1zM275 16372h-1v-1h1v1zM270 16372h-1v-1h1v1zM266 16372h-1v-1h1v1zM308 16371h-1v-1h1v1zM306 16371h-1v-1h1v1zM302 16371h-1v-1h1v1zM274 16371h-2v-1h2v1zM268 16371h-2v-1h2v1zM301 16370h-1v-1h1v1zM296 16370h-1v-1h1v1zM262 16370h-2v-1h2v1zM303 16369h-1v-1h1v1zM270 16370h-2l-1 -2h1l2 1h1l-1 1zM266 16369h-1v-1h1v1zM288 16368h-2v-1h2v1zM265 16368h-1v-1h1v1zM258 16368h-1v-1h1v1zM306 16367h-2v-1h2v1zM291 16367h-1v-1h1v1zM280 16367h-1v-1h1v1zM256 16367h-2v-1h2v1zM250 16367h-1v-1h1v1zM302 16367h-2v-1l2 -1l1 1l-1 1zM297 16366h-1v-1h1v1zM284 16366h-3l1 -1h2v1zM260 16366h-2v-1h2v1zM252 16366h-1v-1h1v1zM296 16365h-2v-1h2v1zM281 16365h-1v-1h1v1zM276 16365h-1v-1h1v1zM258 16365h-4v-1h4v1zM288 16364h-1v-1h1v1zM274 16364h-1v-1h1v1zM272 16364h-3l1 -1h2v1zM268 16364h-3l1 -1h2v1zM264 16364h-6v-1h6v1zM250 16365v-1l2 -1h1l-1 1l-2 1zM248 16364h-1l1 -1h1l-1 1zM245 16364h-1v-1h1v1zM219 16376h-1v-1h1v1zM223 16374h-1v-1h1v1zM222 16375h-2v-1v-1l2 1v1zM210 16373h-1v-1h1v1zM207 16373h-1v-1h1v1zM221 16372h-1v-1h1v1zM220 16373h-4v-1l2 -1l2 1v1zM216 16372h-1v-1h1v1zM204 16373h-4v-1l2 -1l2 1v1zM200 16372h-1v-1h1v1zM208 16368h-2v-1h2v1zM282 16363h-1v-1h1v1zM247 16363h-1v-1h1v1zM249 16362h-1v-1h1v1zM286 16361h-1v-1h1v1zM272 16361h-3l1 -1h3l-1 1zM248 16361h-1v-1h1v1zM266 16360h-4v-1h4v1zM246 16362h-1v-3l1 1v2zM256 16359h-1l1 -1h1l-1 1zM254 16359h-2v-1h2v1zM248 16358h-1v-1h1v1zM245 16358h-1v-1h1v1zM274 16356h-1v-1h1v1zM272 16356h-1v-1h1v1zM247 16356h-1v-1h1v1zM268 16356h-3l1 -1l2 -1v2zM264 16355h-1v-1h1v1zM262 16355h-6v-1h6v1zM254 16354v1l-1 -1h1zM267 16354h-1v-1h1v1zM253 16354h-1h-1l1 -1h1v1zM266 16353h-1v-1h1v1zM257 16353h-1v-1h1v1zM253 16353v-1h2l-1 2v-1h-1zM250 16353h-1l1 -1h1l-1 1zM248 16353h-1v-1h1v1zM246 16355l-1 -1v-2h1l1 2l-1 1zM259 16352h-1v-1h1v1zM264 16352l-4 -1h-1l1 -1h4v2zM252 16351h-1v-1h1v1zM257 16350h-1v-1h1v1zM254 16351l-2 -1v-2l3 2l-1 1zM244 16363h-1v-1h1v1zM244 16361h-1v-1h1v1zM240 16354h-1v-1h1v1zM244 16352h-2v-1h2v1zM241 16352h-1v-1h1v1zM237 16353l-1 -1v-1l1 1v1zM234 16351h-1v-1h1v1zM232 16351h-1v-1h1v1zM229 16351h-1v-1h1v1zM240 16349h-3l1 -1h2v1zM244 16349h-2l-2 -1v-1h4v2z"/></svg>