<svg xmlns="http://www.w3.org/2000/svg" viewBox="-428 16528 744 787"><g class="s" data-r fill="#000" fill-rule="evenodd"><path class="chunk" data-i="0" d="M-60 17266l-4 -1h-1l1 -1l4 -1v-1h-1l1 -1h2v-1l2 2l-2 1l-4 1v1h2v1zM-124 17279h-2l-1 -1h1v-1h-2v-1l4 -1v1h-1v2h1v1zM-94 17271l-4 1v-2h2v1l2 -1h2v1h-2zM-111 17269l-1 1h-2l1 -2v-1h2v1h-1v1h1zM-111 17268h1l-1 -1v-1l1 -1l2 2v-1h1v2h-2l-2 1v-1zM-153 17279v-1h-1v1h1zM-151 17279l-1 1h-5l1 -1h1v-1l1 -2h1l1 2v1h1zM-180 17278v-2v-1l-2 1v-1h-2v-1l3 -1h2v1l2 2l-1 1l-2 1zM-146 17274h-2l2 -2h2h1l-2 2l-1 -1v1zM-171 17271h-3v-1h2l-1 -2l1 -1v1h2l-1 2v1z"/><path class="chunk" data-i="1" d="M-47 17261h-1l-2 -2l-2 1l-4 1v-1h2l6 -4l2 -1v1h-1l1 2l-1 3zM-47 17258v-1h-1v1h1zM-48 17260v-1h-1v1h1zM-184 17254v-1h2l2 -1l1 2h-1l-3 1v-1h-1zM-198 17217h-4v-3h2v2l2 -1v1v1zM-199 17214l-1 -1l-1 -1l1 -2v-1l2 1l-1 2v2zM-196 17216l-1 -1l2 -1l1 -1l1 -1h-1v-1h2l2 -2h2l2 1v-3l3 -1h2v3h-3l-2 2l-2 1l-6 2l-2 1v1zM-189 17211v-1h-1v1h1zM-171 17201l1 -1h3l-1 1l-2 1h-2h1v-1zM-236 17230l-2 -1l-2 1v-2l-2 -2h4l2 2v2zM-238 17228l1 -1h-1l-1 1h1zM-250 17226h-3l1 -1h1v-2h-3v-1h4v2h2l-2 2zM-232 17227v1h-2h-1l1 -2h-3l1 -1h1v-3l1 -1v1l4 -1v1h1v-2l3 -1l2 -1l2 1l-1 1h-2v2l-1 1l-2 -2v1l-1 2l-3 -1l-1 1h1l-1 2v1h1z"/><path class="chunk" data-i="2" d="M-238 17216h-4v-1l4 -1l2 2h-2zM-238 17216v-1h-1v1h1zM-207 17213h-1l-1 -1h1v-2h3l-1 1h-1v2zM-234 17214l-2 1v-2l3 -1l9 -4h2v-1l1 1l-1 2h-3l-5 2l-4 2zM-213 17205h-4l1 -1l4 -2l2 -1v1h-1l1 1h1l-1 1h-2v-1l-1 1v1zM-206 17203l-3 -1l1 -2v-2l3 2l-1 2v1zM-207 17201v-1h-1v1h1zM-129 17190v-2h-1v1l1 1zM-129 17195v-3h-1v2l1 1zM-127 17197l1 1v1h-2l-3 -3v-2h-1l1 -2h-1l1 -18h1l1 12v2l1 7l-1 1h1v1h1zM-132 17146h2v2l-1 2h-1v-2h-1v13l-2 5l1 8l-2 2h1v22l-1 2h-2v-2v-29l2 -9h1l-1 -2h1v-4l1 -2h-1l1 -2l1 -4l1 1v-1zM-134 17163v-1h-1v1h1zM-135 17171v-1h-1v1h1zM-135 17174v-2h-1v1l1 1zM-136 17180v-2l-1 -1v3h1zM-136 17184v-1h-1v1h1zM-162 17195l-1 -1l1 -2v-1l2 1l-1 2l-1 1zM-267 17143v-1l5 -4v1h1l-1 1l-2 2l-2 2v-1h-1z"/><path class="chunk" data-i="3" d="M-268 17145h-1v1l-1 2h-2l-10 4l-55 11h-9h-2l-1 -1v-2l1 -1l2 -1h2h13l56 -12l3 -1h2l2 -2h1v1h-1v1zM171 17046h1v-2l2 1l1 1h-1v2h-3v-2zM130 17015h2v1h-1v2h-3l1 -3v1l1 1v-1v-1zM129 17011v-1h-1v1h1zM131 17012h-4v-2l3 -2v2l2 1l-1 1zM-140 17121l2 -2l3 -1h2l1 -1l6 -5h2l6 -6l8 -10l2 -3v-2l-2 -2v-2h-3l-5 -1l-2 -1v1l-5 1l-6 1l-5 1l-1 -1l-1 -4l2 -2h2l2 -2h2l1 -2l1 -2l4 -1l9 -5h1l7 -6v-2l-2 -3v-1l-3 -4l-5 -1h-11h-2l-3 1h-3h-2v-4l2 -2h1l3 -2l4 -4l16 -9l1 -1v-2l2 -2v-2v-5l-1 -2v-2l-1 -1l-1 -2l-8 -2l-12 1v1l-2 -1l-14 4l-25 9l-1 1l-3 3l-1 1l-4 9l-4 6l-1 2l-2 2l-1 2l-2 5l-2 5l-2 2v2l-2 2l-1 2v2l-3 13v12l4 7l2 1l2 1l8 6l8 3l4 1l2 1v2l1 5l19 -1l7 -1l5 -1zM-213 17085v-1h-1v1h1zM-212 17097v-1h-1v1h1zM-213 17098v-1l-1 -5l-1 -2h1v-5l-3 1l-24 6h-2l-33 7l-86 -3v-1l-2 1l-2 -1v1l-2 -1v1l-18 -1l-2 -1v1h-2l-2 -1v-2v-2v-2h2l3 -1l7 1v1l2 -1v1l10 1l2 -1v1l14 1v-1l2 1l22 1l2 1v-1l2 1h8v1l2 -1v1l52 -2l2 1v-1h7l9 -3l24 -5l9 -3l1 -3v-4h-1l2 -2l-1 -2h1v-2l1 -4l5 -4l5 -7l4 -9l6 -8l1 -3l1 -3l2 -2v-2l2 -2h1l2 -2h1l4 -3l2 -1l4 -1v-1v-1l2 1v-1l4 -1l11 -5h1l2 -1v1l2 -1l7 -1l21 -1l2 2h2v2l2 1l4 3v2l2 2v2v7l-1 4l-1 3l-7 6v2l-3 2l2 2h2l6 3l3 3l3 6l1 2v5l-3 5l-6 6l-2 2h-3l1 1l8 2l2 3v1l2 2v2l1 5l-2 2l-1 2l-4 7h-2l-5 8l-11 8l-2 2h-2l-2 2l-1 1l-4 1l-3 1l-4 1l-2 2l-24 1l-11 -1l-11 -3h-2l-2 -2h-2v-2l-2 -2l-2 -2v-4l2 -1h1l-1 -1h-2v-2l-2 1l-1 -1v-3h-2v-1l-1 -2h-2l-1 -2l-1 -1v-2l-1 -2l1 -1h-1zM-211 17101v-1h-1v1h1zM-196 17117v-1h-1v1h1zM-191 17121v-1h-1v1h1zM-190 17122v-1h-1v1h1zM-304 17038v-1l-4 -1l-1 -2h1l8 -2v-1l2 1v2h-2l-1 2v1h-1l-2 1zM-302 17036v-1h-2v1h2zM-294 17034l-2 -1l-2 -1v-1l18 -3l6 -1v-1l2 1v-1h1v3l-14 1l-8 2v2h-1zM-279 17029v-1h-1v1h1zM-315 17038v-1h-1v1h1zM-318 17039v-1h-1v1h1zM-313 17039h-1l-3 3v1h-3v1l-2 -1v1l-5 1h-7h-2v-5l2 -1h1l10 -1l4 -1l5 -1h4h2v1h-2v1h1v2h-1v-1h-2v-1h-1v1zM-321 17040v-1h-1v1h1zM156 16994h-2l1 -2l1 -2h3l-1 1l-2 1v2z"/><path class="chunk" data-i="4" d="M151 16945v2h-1l-2 1v2h-1l1 -3l1 -3v2h1l1 -1zM157 16942h1v-1l2 -1h1l-5 5v-1v-1l1 -1zM-122 16995l-1 -1v-4h1l2 2h-2l1 2l-1 1zM-126 16990v-1l-2 1v-18h-1l1 -2v-8h2l-1 -12l1 -1v1h1v-3l1 1l1 8l1 2h-1v2h1l-1 2v2h1l-1 2v6l1 2h-1v2h1l-1 2l1 1l2 -1v2h-3l1 1h2v1h-2h-1l1 2l-3 2v4h-1zM-124 16956v-1h-1v1h1zM-124 16967v-9l-1 -1v9l1 1zM-126 16966v-2l-1 -1v3h1zM-124 16969v-1h-1v1h1zM-126 16970v-1h-1v1h1zM-124 16977v-3h-1v2l1 1zM-267 16970l-41 6l-31 1l-1 -3l2 -2l2 -1v1l47 -2l9 -1v-1l2 1v-1h2l2 -1v1l2 -1l9 -2l11 -3l12 -4v-2l2 1h1v1l-3 3l-1 1l-11 4l-15 4zM157 16941l-1 -1l1 -2v-1l1 -1l2 1l-2 1v3h-1zM172 16931l-1 -1v-2l1 -1l1 1l1 2h-2v1zM163 16927v-1h-1v1h1zM155 16933v-1h-1v1h1zM154 16936v-2h-1v1l1 1zM153 16938v-2h-1v1l1 1zM149 16938v-1h-1v1h1zM150 16941v-1l-2 -1v1v1h2zM151 16940v2h-2v1h-4l1 -2v-1l1 -2h-1v-1l6 -3l4 -4l1 2l1 1v-1h1v-1l2 -1l-2 -2l1 -2l2 -2l2 1v-1l2 -2v1l1 -1h1v2l-4 4v2l-2 -1v1l-5 6v1h-3v2h-2v-1h-1v1l-1 1h1zM148 16942v-1h-1v1h1zM168 16921l1 -1v-1h1v-1h1l1 1l1 1h-1l-2 2h-2v-1z"/><path class="chunk" data-i="5" d="M174 16920v-3l1 -1h1v1h1v1l-1 1v-1h-1l-1 2zM168 16919v-1h-1v1h-1v1h-1v-2l1 -2l2 1h1v2h-1zM170 16916v-2l3 -2v-2h1v3l-4 3zM167 16910h-5l1 -2v-1l1 1v1h2v-1h1v2zM167 16891l1 -2v-2l1 -3h1l-1 4l-1 3h-1zM173 16882l-2 1l1 -2v-1v-1l1 1v1h1h1l-1 1h-1zM-80 16930v-2h-1v1l1 1zM-80 16937v-3h-1v2l1 1zM13 17080v-1h-1v1h1zM-4 17092v-2h1l-1 -2h-1v4h1zM-5 17093v-1h-1v1h1zM-1 17105v-1h-1v1h1zM-12 17138l6 -18l1 -2l-1 -1l-1 1v2l-2 5l-3 7v4l-16 38v2h2l1 -2l2 -5l1 -4l1 -3l2 -2l1 -3l2 -5l2 -3l2 -11zM-170 17181v-1h-1v1h1zM-157 17184v-1h-1v1h1zM-35 17174v-1h-1v1h1zM-36 17176v-1h-1v1h1zM-37 17190v-1h-1v1h1zM-37 17194v-1h-1v1h1zM-274 17222v-1h-1v1h1zM-274 17231v-1h-1v-2h1l-1 -2v-4h-1l-2 2h-1v4l2 2v1h3zM-257 17244v2h1l5 4l1 2l2 4l1 2l1 1h2l2 2l2 1h4v-2l2 2l2 2l6 -1h1l-1 1h-2v1l3 1l11 3v-1l2 2l4 1l2 -1v2l4 2l2 -1v1h2l8 4l2 1v-1v-3l1 1v3h1l1 -1h-1v-2v-1l2 1l3 1v4l53 1l5 1l5 -1l49 -6l8 -2l5 -2l9 -4l9 -6l16 -11v-1l2 -2h1v-2l8 -5v-2l8 -5l3 -4l11 -14l1 -3h2l2 -5v-2l-2 -1h-1l-10 -1h-1l-2 -2v-4l2 -2l4 -1h8l4 1v2l2 -1v1v1h3l-1 5l-2 10l-4 4l-2 2l-12 16l-2 2l-2 2l-6 4l-2 2l-7 6v2h-1l-5 4v2h-2l-12 8l-1 1l-3 3h1l16 -3l3 -1l5 -2l13 -5l9 -4l2 -1l4 -2l2 -2l12 -12v-1l2 -3l3 -13v-8l-1 -7l-2 -2v-2l-2 -3v-3l-2 -2v-2l-8 -7l-1 -1l-5 -2l-12 -2v-1l-2 1v-1h-17l-1 2v2l-1 1l-1 2l-10 1l-2 1v1h2l1 1l-1 4l-2 1l-3 -3v-2l-2 -2v-2l-1 -3l-1 -3h-4l-3 2h-2l-3 -1l-1 -5l2 -2h2v-1l2 1h4v1l2 -1v1l2 -1h2l1 -2l1 -1l4 -7v-2l5 -4l1 -5l2 -9l2 -3h2v-1h-1l2 -2v-2h-1v-1h2l2 -9l1 -2h-1v-1h2l2 -8l1 -3l-2 -2v-1h-2v-1l-2 -2v-4l2 -2l1 -5l6 -17l2 -2l1 -2l3 -5v-1l2 -2l1 -6l3 -3l2 -1h4l4 1v1l2 -1l6 1l2 2h1l1 3l1 4l1 7l-2 2l-2 4l-3 14l-1 4l-1 4l-3 2l-2 4l-2 2h-1l-2 1l-3 1l-5 15l-5 18l-1 3l-2 2l-1 4l-2 2l-1 3l-2 7l-2 2l-1 4l2 2h4l2 -1v1h2l2 -1v1l2 -1v1l8 1l2 -1v1l4 1h2l4 1l2 2h2l8 7l3 6l4 9l3 7v3v8v5l-5 15l-2 5l-1 1h-2v2h-2l-1 1v2l-3 3l-10 7l-6 3l-3 1l-4 2l-5 2l-17 6l-33 5l-2 1v-1l-2 1h-8l-12 2l-19 6l-11 1l-62 -1l-27 -4l-4 -2h-3l-2 -2l-7 -2l-25 -8l-2 -2l-3 -1l-12 -5l-9 -8l-2 -2l-2 -2l-1 -3l-2 -5v-2l-3 -3h-2v-1l-2 -3h-2v-2l-2 -4l-1 -3l-1 -2h1v-2l2 -2v-2l5 -4h2l2 -2l5 -4l4 -1l11 -4h2l34 -9l18 -8h2l2 -2h4l10 -3l6 -1l6 -3l2 -2l1 1l-1 2l-1 2l1 1l10 1l4 3v-1v-2l-2 -2l1 -2l1 -2h-1l1 -1h1l-1 -22l1 -7l1 -1h2l1 1l-1 4l-1 14l1 2h1l4 -28l3 -3h2v2v4l-5 29l-1 3l-1 3v2l5 24l4 14h2v-1l2 1v-1l20 -2v-1l2 1v-1l2 1h2l2 -1v1l2 -1h4l2 -1v1l8 -1l2 1v-1l11 -1h2l6 -3h1l2 -1l1 -3v-2l-1 -4l-2 -8v-2l-6 -14h-2l-2 -1v-4h1l-1 -2v-4l-2 -5l-4 -13l-2 -18l1 -2h-1l-1 -12l1 -2h-1l1 -3v-5v-2l-2 -22h-1l1 -2h-1l1 -2l-2 -46v-3l-2 -3v-2h1l-1 -2l1 -20l-1 -3v-1l1 -2h-1v-18l2 -3v-1l1 -2h-1l1 -2v-26l1 -2h-1l1 -2l1 -3v-2l1 -4l-7 1v-3l4 -1h5l1 2v1h1l2 -1l1 10l1 2h-1l1 42l-2 1h-3v-2l-1 -5h-1l-1 32l1 3v1l-1 2h1v2l-1 2h1l1 7l1 6v12l1 3h-1l1 2h-1v2l1 2h-1l2 18l-1 2h1v6h-1l1 2v6l-1 2h1l-1 2v2l2 2l-1 8h1l-1 2v4l1 2h-1v2v7l2 11l-1 2h1v2l-1 2h1v3h5v2h2l2 18l2 7l6 13v3l2 2l1 4l3 16h-1l1 1h2l1 1l1 2v2l-3 5l-13 9l-2 2h-2l-3 1l-11 3h-4l-4 3l-1 1l-5 2l-16 2v1l-2 -1v1h-14l-5 -5l-2 -2v-3l-5 -1l-2 -2v-1l-5 -1h-2v-2l-2 -2l1 -6v-2l-1 -3v-7l2 -12h-1l1 -2h-1h-1v3l-3 -1l-2 -1h-3h-2h-12l-11 2l-3 1l-14 5l-40 15l-3 1l-2 2h-2l-2 2l-2 1l-5 2l-5 2l-3 1l-1 2v2l2 10v2l4 2l4 4h2v1h1zM-142 17216v-2l-2 -3l-2 -11h-2v4l1 2h-1l1 2v7l5 1zM-111 17224h9v-4h-16v1l-2 -1v1l-12 1l-1 1h1l8 1h13zM-134 17223v-1h-2v1h2zM-126 17232l4 -1v-1h-3l-5 -2h-2l-2 -1v1l1 2l1 2h6zM-182 17280v-2h-2l-1 2h1h2zM-88 16922v-1h-1v1h1zM-112 16928h-3l-9 2l-4 1l-2 1l-1 4h-1l1 2l-1 2l1 3v1l-1 2h1l-1 2h1v6l-1 2h1l-1 10l1 6l-1 2h1v2h-1l1 2v2h-1l1 2l-1 10l-1 2h1l-1 2h1l-1 2v5h-2v2h-5v-3l-1 -2h1l-1 -2h1l3 -18h-1l1 -2h-1l1 -36l-1 -2h1l1 -12l2 -2v-2l4 -4h4l3 2l-1 2h4v-2l-2 -2v-2l-4 -7l-1 -1l-3 -3l-2 -1l-6 -4l-2 -1l-2 -2h-6v-1l-2 1h-3v-3l1 -1l14 -1l2 2h2l5 4h1l7 6l1 2l6 10v2l1 2l1 2l4 -1v1l2 -1l8 -1l-1 -2l1 -2h9v2h1h1l-1 -2l10 1v-1h1v2h-8l1 1h8v1h-9l-10 2l-14 3l-1 3v-3h-2v1zM-130 16932v-1h-1v1h1zM161 16860h-1l-2 -2h1v-6h2v1l-1 2h1v4v1zM161 16859v-1l-1 -1v1l1 1z"/><path class="chunk" data-i="6" d="M170 16854h-1v-3h2l3 1v1h-4v1zM150 16743h-4v-1l-2 -2v-2l1 -2h-1l4 -4h1h3h2l1 2l1 2h-1l-1 5h-2l-2 2zM96 16660l-4 1l-2 -3v-2h1l-1 -2l-1 -2l-11 -31l-1 -3l-1 -7l1 1l1 1v-1h2l1 2l1 1l10 24l2 4v2l3 5l2 2h-1l3 4l-3 4h-2zM247 17015v-1h-1v-2h1l1 1l2 -2h2l-2 3h2v2h-2h-3h1h1l-1 -1h-1zM200 17032l-2 -2v1l-1 -1v-1h3l1 1v2h-1zM236 17021h2v-1h2l-2 2h-2v-1zM240 17018l-1 -2h1l2 -2v-1l1 1l1 2h-1v2h1v-1h3l-1 1l-4 1v-1h-2zM230 17015v-1h-1v1h1zM232 17018v-2h-1v1l1 1zM226 17018v-1h-2v1h2zM228 17018v-1h-1v1h1zM226 17020v-1h-2v1h2zM231 17020v-1h-1v1h1zM236 17020v-1h-1v1h1zM230 17021v-1h-1v1h1zM234 17021v-1h-1v1h1zM233 17023v-1l-1 -1v1l1 1zM236 17022v2l-2 -1l-2 2l-2 2l-2 -2l-2 1l-2 -2h-1l1 -2h-1v-2h-1v-1h2v-1l-2 -2l2 -1v1h4v-2h-1l1 -1h1l3 -1l1 3v3h-1v1h2v-1v-1l2 1v-1h2v1h-1l1 1v1h-2v1l-1 1h1zM230 17025v-1h-1v1h1z"/><path class="chunk" data-i="7" d="M233 17015v-1l1 -1v1l2 -1l4 -3v1l1 -1v-1h2l-1 2v2h-4l-2 3h-2l-1 -1zM262 16995v-1h-1v1h1zM270 16996v-1h-1v1h1zM262 16997v-1h-1v1h1zM261 16999v-1h-1v1h1zM271 16999v-1h-1v1h1zM256 17000v-1h-1v1h1zM251 17001v-1h-1v1h1zM252 17002l1 -1h-1l-1 1h1zM261 17002v-1h-1v1h1zM257 17003v-1h-1v1h1zM266 17004v-1h-1v1h1zM258 17005v-1h-1v1h1zM262 17005v-1h-1v1h1zM251 17006v-1h-1v1h1zM265 17006v-1h-1v1h1zM255 17006l-1 -1v1h-2l2 3l2 -1l2 -1l1 -1h-4zM266 17007v-1h-1v1h1zM252 17009v-1l-2 -1v1v1h2zM261 17008v-1h-1v1h1zM249 17009v-1h-1v1h1zM263 17009v-1h-1v1h1zM253 17010v-1h-1v1h1zM247 17012l-1 -4h1l-1 -1h-3l1 -1h2l2 -1v1v1l1 -1v-2h-1h-1l1 -2l1 -3h1l2 -1v-1h-2v-1h2v-1l2 1v-1l2 1v-2h2l2 -2h2l2 1v-1l2 1h2l3 3v1v3l-3 6l-1 2l-3 2h-2l-2 -2h-2l-2 2h-2v4h-1l-1 -3l-4 -1v2h-1zM186 16902h-4v-2l1 -3h1l1 1h-1v2l2 1h1l-1 1zM178 16925l1 -1h1l-1 -1v-1h2l1 1h1l-1 1l-2 2h-2v-1zM175 16915v-1l3 -1h2v2h-2l-1 2v-1l-1 -1h-1zM180 16861l-1 -1l1 -2h-1l1 -1h1v1l1 2l-2 1zM167 16857v-3h-1h-1l1 2h-1l1 1h1zM169 16857v-1h-1v1h1zM171 16860v-2h1v-1h-2l-1 1h1l-1 2h1h1zM174 16859l1 -1l-1 -1l-1 1l1 1zM168 16859v-1h-1v1h1zM173 16860v-1h-1v1h1zM176 16861v-1l-1 -1v1l1 1zM174 16861v-1h-1v1h1zM171 16862v-1h-1v1h1zM169 16865v-1h-1v1h1zM167 16866v-1h-1v1h1zM168 16869v-1h-2v2h-1v-4l-1 -1h-2v1v1l-1 -1v-2h1h1l-1 -2h-2l1 -2l3 1l1 1h-1v2h1l1 1v-1h2l-1 -2l1 -2h-1l-1 -1v1l-1 -2l-2 -2h1l-1 -2h2v-2l1 -1v1h1v-2l-1 -2l2 -1v1l1 6v2h3l2 -2v1l2 -1l-1 -2h1l2 1v-1v-2l-2 -2h3l1 2v2l-1 2l-2 1l-1 1h1v4l-1 2h-2h-1l1 2l-3 1h-1v1v1l-1 1v1h-1zM181 16795l-2 5l-2 5l-7 2h-7h-3v-2h-2l-1 -5v-11l1 -3l2 -3h2l2 -3l10 1l6 7v1h2l-1 6zM192 16735h-8l-1 -1l1 -4v-2l1 -2l3 -3l4 1l2 2l1 6l-3 3z"/><path class="chunk" data-i="8" d="M250 16641l-2 -1l-4 -1v-2l-2 -2v-2l4 -9l2 -6l7 -10l18 -24l1 -2l2 -2v-4l-2 -2v-1h2l4 3l-1 5l-1 3v2l-20 30l-2 2v2l-2 2l-1 2l-3 8v2l3 2v2l-3 3zM180 16832h4l9 -4l9 -4l2 -1l2 -2l6 -4l5 -5l2 -2l3 -5l6 -8l1 -4l2 -6l5 -18l2 -13l-2 -2v-2v-9v-1l1 -2h-1l-2 -20h-2l-1 -2l-1 -1l-2 -6l-1 -2h-3l-5 -5v-2l-2 -5l-2 -5l-1 -2l-6 -3l-6 -2l-4 -1l-2 -2l1 -2v-1l3 1l5 2h1h1l-1 -2l-4 -1l-2 -2h-2l-2 -2h-11h-2l-9 -2h-2l-3 2l-3 1l-12 9l-2 1l-2 2h1l-1 1h-2l-4 3v2h-2l-2 2l-14 23l-2 5v4l-3 7l-6 25l1 2h-1l1 2l1 12l1 7l1 5v2h1l-1 2h1l3 11l1 3l2 2l2 4l3 2v2l7 7l14 7l2 1v1l2 -1v1l14 1v-1l2 1l8 -1zM154 16677l1 -1l-1 -1l-1 1l1 1zM145 16682v-1h-1v1h1zM144 16683v-1h-1v1h1zM116 16963l1 -2l1 -4l1 -5v-9l-1 -4v-3l-1 -4l-2 -2v-1l-2 -3l-3 -5v-1l-4 -5h-2l-2 2l-2 1h-2l-2 1v-1l2 -2l4 -2v-1l-2 -1l-4 -1l-8 -3h-6l-9 -1v3l-1 2h-2l-3 -2v-2h-1l1 -2l1 -1v-2l-8 1l-2 1v-1l-4 3l-4 1l-5 6v1l-1 3l-1 2l1 2l5 1l14 2l13 1l2 2v3l-10 2l-2 2l-2 1l-6 4l-3 2l-1 2l-2 4l-1 2l-2 2h1l1 4l1 2l8 -1l3 -1l5 -2h2l2 -2h2l2 2v3h-2l-1 3l-2 2l-1 3v10v2h4l2 -2l10 -8l4 -5l1 -2l2 -2l1 -3l4 -1l1 2l1 2h-1l-1 4l-1 12l3 3l4 -1l3 -1h1l5 -5l1 -1l2 -6zM82 16902v-1h-10l-1 1h11zM70 16903l1 -1h-3v1h2zM140 16947v-1h-1v1h1zM127 16989v-1h-1v1h1zM167 17048v-1h-1v1h1zM171 17048l-1 1h-1l1 1l4 -1l2 -1v1h4l2 -2v1h2v-1l2 1h1l17 -6l5 -1v-3l3 -2h4l4 -2h2l8 -6l3 -1v-1l1 -1v1l2 -1l1 -1l10 -4l4 -2h2v2h1l2 -2l2 -1l10 -7l10 -6l7 -4l-1 -2l-2 -4l-7 -12l-1 -2l-1 -2l-2 -2l-1 -3l-20 -59v-2l-1 -2h-1l-1 3l-1 2l-4 8l-2 2l-4 6v1l-2 2l-1 3l-2 6l-1 3l-2 2v2l-2 2l-2 -1h-1h-7l-31 9l-8 2v4l29 2l2 2l1 2l-3 2l-5 3v2h-2l-5 7v2h2l4 -2l10 -9l2 -1l4 -4l4 -4v1h2v5l-2 2l-1 6v16l1 1l2 -1l2 -2l2 -8v-7v-5l-1 -6h3v-1l1 1l3 4h2l2 2h2h9h3l-6 -8l-8 -8l-2 -4l-1 -2l-2 -2v-2l1 -1h4l1 1v2l2 3l2 5l7 6l7 6v2v3v2l-4 1l-4 1h-8l-4 -1h-2l-2 -1l-1 11l-1 5l-1 3l-4 5l-6 1l-2 -2v-1l-2 -3v-3v-14l-3 1l-9 8l-5 2h-6h-1l-2 -2v-4l2 -2v-2l9 -8l-1 -1l-12 -1l-12 -1l-2 -3v-1l-2 -3v-2l1 -2l1 -1l2 -1l5 -2l29 -8h8l2 -1v1l4 -1v-3h2l1 -2l3 -6l1 -2l2 -2v-2l2 -2l1 -1l8 -14l4 -10v-2l-10 -24l-4 -7v-2l-4 -3l-2 -1l-8 -4h-2l-5 -6v-2l3 1l2 1v2l2 1l1 1l5 2h4v-3l-2 -6l-3 -11v-9l2 -11h3v16l5 22l2 2v3l2 1l16 8h1l2 2l3 4l-1 6l-1 6l-1 2l-3 8l-1 3l2 4l9 28l3 9l6 20l2 5l1 4l1 3l2 2v1l2 3l4 6l4 5v1l2 2h2v4l-2 2l-6 5l-2 1l-12 6l-2 1l-15 11l-8 4l-11 5l-3 1v2l-1 2l-2 -1l-3 -1l-3 1l-2 1l1 15l12 93l2 2v3h6h2v2l1 3l-2 2l-2 8h-2l-1 2l-3 4v2l-32 29l-2 1v-1h-4l-2 -3v-4h1l-1 -2l4 -4l3 -5h2l1 -3l9 -12l1 -2l6 -6h2l2 -8l4 -1l1 -1l-14 -106l1 -5l-4 1l-11 4l-6 2l-42 7l2 29l-1 2h1v14l1 2h-1l2 34h1l-1 2h1l1 28l-1 2h1l-1 2h2l1 4h1v-2l2 -1h2v3l-2 1h-1v5l-3 3h-1l-3 2h-2v1h2v2v3v2l-10 -1l-4 3l-5 5v3l-7 3l-6 4h-2l-2 -1l-1 -1l1 -6l2 -2l-1 -2l3 -3l2 -1l16 -14l7 -2l3 -1l1 -1l-1 -1h-1v-57l1 -2h-1l-3 -60l-41 6h-10l-3 -1l-2 -1v-2v-2l6 -8l6 -11v-1l2 -2v-2h1v-1l2 -1l-1 -2l2 -2v-2l1 -2l-1 -1l1 -1h1v-4l2 -6l1 -2h-1v-3h2v-1h-1v-2h2l1 -7l3 -7l1 -4l23 -83l4 -31l-1 -1l-2 3l-2 2h-1l-8 11h-2v1l-9 10l-9 6v2l-6 6h1l3 2l5 10l1 2l2 2l1 7l2 6v16v3l-2 5l-4 8l-1 1l-3 4h-2l-6 4h-2v1l-2 -1v1l-2 -1l-4 -1l-3 -3l-1 -9l-4 2l-10 9l-3 2h-2h-4h-1l-3 -2v-18l-1 -1v1l-7 2l-6 -1h-3l-1 -1l-1 -2v-2l-1 -3v-5v-2l2 -2l2 -4l5 -6l6 -3l1 -1l-1 -1l-18 -3l-6 -6l1 -5l1 -2l2 -4v-1l4 -4h1v-2l4 -1l3 -1l19 -4h6l7 2h2v2h-4v1l6 1l9 2l5 2h2l2 2l1 -2l3 -3h1v-1l1 -2h2v-2l6 -5l11 -11l11 -14h2v-2l4 -9l1 -3l3 -4l1 -13v-2l-3 -1l-10 -4l-6 -4h-2l-5 -6l-1 -1l-8 -12l-4 -11l-6 -26l1 -2h-1l1 -3v-2l-1 -7h1l-1 -2h1l1 -5l3 -15l8 -22l8 -14l3 -4l1 -2l5 -6h-4l-2 1v-1h-4l-1 -2l-1 -2h1v-2h5l-1 -2l-1 -2l2 -2h11h3h1l-1 -2v-2h-1l1 -2l2 -2l16 -1l2 -3l4 -1l2 2h7l-1 -1h-1v-2l-3 -2l1 -3l1 -2v-1l2 -2l5 -4h2v-3l4 -1l-1 -4h2l2 -2l3 2l-1 6h-1l1 2h-1l-4 7l-1 3h-1l1 1l5 1l3 1l2 -1v1h2l2 1v-1h2l2 2h2l2 2l2 -1v1l2 1l6 3l4 3v2l2 1l3 1l1 4h1l-3 3h-2v1h1v2l3 2h2l2 2l2 5l1 3h3l1 4h1l-1 2l2 10v2h2v2l1 7l1 7h2l2 2h2v2h1l-1 2v2l-2 2l-1 4v5l1 3l2 4l3 4l2 3l2 3l-1 3l-4 7l-1 3h-8l-2 -1l-1 -12l-1 -1l-1 1l-1 3l-4 20l-4 10l-9 13l-1 2l-8 7l-2 1l-4 3l-2 1l-2 1l-2 2l-2 1l-12 4l-9 2l-3 2h-2l-2 -2v2l-2 -1l-15 -1l-1 10l1 2l1 2h-1l1 3v2l-1 2l-3 16v17l-2 17l-2 4v2l-6 21v2l-1 2h1h3l-1 1h-3l-1 3v1l4 -3l1 2l1 3h-2v-1v-1l-1 1v1h-3l-1 1l1 2v1l-2 -1v4l-3 8l1 2h-2v4l-3 7l-3 10v5h-2h-1l1 2l-2 2v1l-3 8v2h3v1v1l-2 -1l-2 2l-1 2v2h1h1l-1 1h-2v5v7l-1 1h-1v1h1l-1 1h-1l-1 3v2l-14 22v2h-2l-1 1l1 1h2l6 1l43 -7l1 -5l1 -4h1l1 2v6l7 -1l2 -1v-3h1l1 1v-1l1 -1h2v-2h-3v-1h4l1 4v1h1h1zM168 17050v-1h-1v1h1zM164 17051v-1h-2v1h2zM149 17058v-1h-1v1h1zM244 16761v-1v-2l1 -3h-2v5l1 1zM243 16762v-1h-1v1h1zM214 16822v-1h-1v1h1zM250 16893l2 -8l-1 -5v-2h-2l-9 -5v-1h-1v2l2 2l1 2l3 8l3 5v2h2zM242 17028v-1h-1v1h1zM235 17154v-1h-1v1h1zM252 16771l2 -1l-1 -2l-1 -4h-1l1 6v1z"/></g><g class="f live" data-r data-f="0" fill="var(--live,#000)" fill-rule="evenodd"><path class="chunk" data-i="6" d="M158 16621h-4l-3 -3l-1 -14l-2 -9l-7 -20l1 -2v-2h2l3 8l3 7l2 5l3 7l3 7v3l2 2v3v5v2l-2 1z"/><path class="chunk" data-i="8" d="M206 16617l-2 1l-3 -2v-2l-1 -3l1 -3l2 -2l3 -16l7 -25l1 -9h1l-1 -2v-2h1v2h1v-2h1l1 8l1 4l-1 2h1l-1 2l-1 5l-1 7l-2 6l-3 16v4h-1l1 2v2l-3 2l1 2h-1v3h-2z"/></g><g class="f live" data-f="1" fill="var(--live,#000)" fill-rule="evenodd"><path class="chunk" data-i="6" d="M161 16620l-5 1l-2 -2l-3 -12l-2 -9l-9 -24v-2v-2h2l4 10l4 9l3 6l3 7l3 6v2l3 1v2l1 4v2l-2 1z"/><path class="chunk" data-i="8" d="M205 16617h-2l-2 -2v-2l1 -3l1 -3l2 -3l5 -16l6 -19l1 -7l1 -1l-1 -2v-2h1v2l2 -1v-1h1l1 8v3l-1 1l1 1h-2l-1 4l-2 4l-2 5l-4 17v4l-1 1v1v2l-3 4l1 1l-1 1v2l-2 1z"/></g><g class="f live" data-f="2" fill="var(--live,#000)" fill-rule="evenodd"><path class="chunk" data-i="6" d="M160 16621h-5l-2 -2v-13l-2 -9l-9 -19v-3l1 -2l1 1l4 8l5 6l4 5l3 7l2 7v3l2 2v3l-2 4v1l-2 1z"/><path class="chunk" data-i="8" d="M203 16614l-3 1l-3 -2v-2v-3v-3l3 -3l5 -14l8 -25l1 -9l1 -1h-1v-3h1v2l1 -1v-1l1 7l1 5l-1 1l1 1l-1 2v6l-2 8l-1 5l-4 14v3l-2 1l1 1v2l-3 3l1 1l-1 1l-1 2l-2 1z"/></g><g class="f jolt-f live" data-f="3" fill="var(--live,#000)" fill-rule="evenodd"><path class="chunk" data-i="6" d="M152 16616l-4 1l-2 -2l1 -12l1 -8l-2 -19v-1l1 -2h2l2 7l1 7l1 4v5l-1 5v3l2 1v2v5v2l-2 2z"/><path class="chunk" data-i="8" d="M202 16618h-2l-2 -4v-2l-1 -4v-4l1 -1l3 -17l12 -26l3 -6l1 -1v-1v-2l1 1v1v-1l1 -1v1v5v3l-1 1v1l-1 1l-2 4l-4 8l-2 8l-5 20v4l-1 1l2 2v2l-2 2l1 2l-1 1l1 2h-2z"/></g><path class="grain" fill="#000" fill-rule="evenodd" d="M-74 17274h-1l1 -1h1l-1 1zM-70 17273h-2v-1h2v1zM-69 17272h-1v-1h1v1zM-61 17271h-1v-1h1v1zM-66 17272h-2l2 -2v2zM-75 17273l-1 -1v-2h1v3zM-58 17270h-3l1 -1h2v1zM-63 17271l-1 -1v-1l1 1v1zM-56 17269h-1l1 -1h1l-1 1zM-74 17269h-1l1 -1h1l-1 1zM-52 17268h-2v-1h2v1zM-72 17269v-1l2 -1v1l-2 1zM-49 17267h-1v-1h1v1zM-68 17267h-1l1 -1h1l-1 1zM-46 17266h-1l1 -1h1l-1 1zM-48 17266h-1v-1h1v1zM-66 17267l-1 -1l1 -1h1v1l-1 1zM-42 17265h-1v-1h1v1zM-58 17265h-1v-1h1v1zM-71 17266l-1 -1v-1h1v2zM-25 17264h-1v-1h1v1zM-40 17263h-1v-1h1v1zM-51 17263h-1v-1h1v1zM-56 17264v-1l2 -1h1l-1 1l-2 1zM-64 17263h-1l1 -1h1l-1 1zM-68 17265l-2 -2v-1l2 1l1 1l-1 1zM-50 17262h-1v-1h1v1zM-18 17261h-1v-1h1v1zM-62 17261h-1v-1h1v1zM-16 17260h-1v-1h1v1zM-122 17279h-1l1 -1h1l-1 1zM-116 17278h-1v-1h1v1zM-112 17277h-1v-1h1v1zM-116 17276h-1l1 -1h1l-1 1zM-118 17277h-5l1 -1h2l2 -1v1v1zM-140 17277v-1l2 -1v1l-2 1zM-105 17275h-1v-1h1v1zM-110 17275h-2v-1h2v1zM-122 17275h-2v-1h2v1zM-126 17275h-1v-1h1v1zM-134 17275h-2v-1h2v1zM-100 17274h-1v-1h1v1zM-108 17275l-1 -1l1 -1l1 1l-1 1zM-114 17274h-1v-1h1v1zM-117 17274h-1v-1h1v1zM-120 17274h-2v-1h2v1zM-125 17274h-1v-1h1v1zM-130 17274h-3l1 -1h2v1zM-138 17274h-2v-1h2v1zM-90 17273h-1v-1h1v1zM-101 17273h-1v-1h1v1zM-104 17274l-1 -1v-1h1v2zM-112 17273h-1v-1h1v1zM-118 17273h-2v-1h2v1zM-126 17273h-3l1 -1h2v1zM-136 17273h-1v-1h1v1zM-99 17273l-1 -1v-1l1 1v1zM-109 17272h-1v-1h1v1zM-116 17272h-2v-1h2v1zM-124 17273l-2 -1v-1h3v1l-1 1zM-134 17272h-1v-1h1v1zM-139 17272h-1v-1h1v1zM-90 17271h-1v-1h1v1zM-114 17271h-1v-1h1v1zM-120 17271h-3l1 -1h3l-1 1zM-126 17271h-1v-1h1v1zM-138 17271h-1v-1h1v1zM-88 17270h-2v-1h2v1zM-106 17271l-1 -1v-1l1 1v1zM-116 17270h-1v-1h1v1zM-125 17270h-1v-1h1v1zM-86 17269h-2v-1h3l-1 1zM-102 17269h-1l1 -1h1l-1 1zM-114 17269h-1v-1h1v1zM-121 17269h-1v-1h1v1zM-123 17269h-1v-1h1v1zM-130 17269h-1v-1h1v1zM-132 17269h-1v-1h1v1zM-136 17270l-1 -2h1h1v2h-1zM-100 17268h-1v-1h1v1zM-116 17268h-2v-1h2v1zM-134 17268h-1v-1h1v1zM-82 17268h-2h-1l1 -2l2 1h1l-1 1zM-101 17267h-1v-1h1v1zM-105 17267h-1v-1h1v1zM-114 17267h-1l1 -1h1l-1 1zM-122 17267h-1v-1h1v1zM-126 17267l-3 1l1 -1l4 -1v1h-2zM-130 17267h-1l1 -1h1l-1 1zM-138 17267h-1v-1h1v1zM-76 17266l-4 1v-1l6 -1v1h-2zM-100 17266h-1v-1h1v1zM-104 17266h-1l1 -1h1l-1 1zM-118 17266h-1v-1h1v1zM-120 17266h-1v-1h1v1zM-136 17266h-1v-1h1v1zM-101 17265h-1v-1h1v1zM-105 17265h-1v-1h1v1zM-108 17265h-1v-1h1v1zM-124 17265h-1v-1h1v1zM-96 17263v1l-1 -1h1zM-104 17264h-1l1 -1h1l-1 1zM-114 17265l-1 -1v-1l1 1v1zM-130 17264h-1v-1h1v1zM-133 17264h-1v-1h1v1zM-96 17262h1l-1 1v-1zM-99 17263h-1v-1h1v1zM-101 17263h-1v-1h1v1zM-110 17263h-1v-1h1v1zM-117 17264l-1 -1v-1h1v2zM-97 17263h-1v-2l2 1h-1v1zM-109 17262h-1v-1h1v1zM-119 17262h-1v-1h1v1zM-131 17262h-1v-1h1v1zM-95 17261h-1v-1h1v1zM-123 17261h-1v-1h1v1zM-93 17260h-1v-1h1v1zM-101 17260h-1v-1h1v1zM-114 17260h-1v-1h1v1zM-121 17260h-1v-1h1v1zM-125 17260h-1v-1h1v1zM-151 17278h1h1l-1 1h-1v-1zM-157 17279h-1v-1h1v1zM-178 17279h-1v-1h1v1zM-175 17278h-1v-1h1v1zM-142 17277h-2v-1h2v1zM-146 17278h-1v-2h1l1 2h-1zM-152 17278v-2h1v2h-1zM-158 17277h-1v-1h1v1zM-171 17277h-1v-1h1v1zM-148 17276h-2v-1h2v1zM-156 17276h-1v-1h1v1zM-141 17275h-1v-1h1v1zM-145 17274v2h-1v-2h1zM-157 17275h-1v-1h1v1zM-172 17275h-1l1 -1h1l-1 1zM-174 17276h-2v-2l2 2zM-150 17275h-2v-1v-1l2 1v1zM-155 17274h-1v-1h1v1zM-161 17274h-1v-1h1v1zM-168 17274h-1v-1h1v1zM-170 17274h-1v-1h1v1zM-177 17274h-1v-1h1v1zM-140 17273h-1v-1h1v1zM-154 17274v-1l2 -1l-2 2zM-166 17273h-1v-1h1v1zM-196 17273h-1v-1h1v1zM-150 17272h-1v-1h1v1zM-155 17272h-1v-1h1v1zM-164 17272h-1v-1h1v1zM-174 17274l-2 -1l-1 -1l1 -1l3 1v2h-1zM-201 17272h-1v-1h1v1zM-143 17271h-1v-1h1v1zM-148 17271h-1l1 -1h1l-1 1zM-158 17271h-1v-1h1v1zM-160 17271h-1v-1h1v1zM-167 17271h-1v-1h1v1zM-177 17271h-1v-1h1v1zM-145 17270h-1v-1h1v1zM-170 17271v-1l2 -1v1l-2 1zM-176 17270h-1v-1h1v1zM-143 17269h-1v-1h1v1zM-154 17269h-1v-1h1v1zM-161 17269h-1v-1h1v1zM-166 17269h-1v-1h1v1zM-174 17269h-1v-1h1v1zM-140 17268h-1v-1h1v1zM-150 17268h-2v-1h2v1zM-158 17268h-2v-1h3l-1 1zM-180 17268h-1v-1h1v1zM-187 17268h-1v-1h1v1zM-192 17268h-1v-1h1v1zM-195 17269l-1 -1v-1l1 1v1zM-183 17267h-1v-1h1v1zM-193 17267h-1v-1h1v1zM-160 17266h-1v-1h1v1zM-162 17267h-2v-2h2v2zM-170 17266h-1v-1h1v1zM-173 17266h-1v-1h1v1zM-187 17266h-1v-1h1v1zM-189 17266h-1v-1h1v1zM-194 17266h-1v-1h1v1zM-141 17265h-1v-1h1v1zM-148 17265h-1v-1h1v1zM-158 17265h-1v-1h1v1zM-176 17265h-1v-1h1v1zM-185 17265h-1v-1h1v1zM-157 17264h-1v-1h1v1zM-160 17264h-1v-1h1v1zM-164 17264h-1v-1h1v1zM-167 17265l-1 -1v-1l1 1v1zM-178 17264h-1v-1h1v1zM-154 17263h-2v-1h2v1zM-175 17263h-1v-1h1v1zM-179 17263h-1v-1h1v1zM-198 17263h-1v-1h1v1zM-157 17262h-1v-1h1v1zM-172 17262h-1l1 -1h1l-1 1zM-196 17262h-2v-1h2v1zM-163 17261h-1v-1h1v1zM-169 17261h-1v-1h1v1zM-174 17261h-2v-1h2v1zM-194 17261h-1l1 -1h1l-1 1zM-155 17260h-1v-1h1v1zM-166 17260h-1l1 -1h1l-1 1zM-177 17260h-1v-1h1v1zM-192 17260h-1l1 -1h1l-1 1zM-204 17268h-1v-1h1v1zM-211 17268h-1v-1h1v1zM-209 17267h-1v-1h1v1zM-214 17267h-1v-1h1v1zM-206 17266h-1v-1h1v1zM-212 17266h-1v-1h1v1zM-216 17262h-1v-1h1v1zM-226 17262h-2v-1h2v1zM-229 17262h-1v-1h1v1zM-232 17262h-1v-1h1v1zM-220 17261h-1l1 -1h1l-1 1zM-223 17261h-1v-1h1v1zM-207 17260h-1v-1h1v1zM-217 17260h-1v-1h1v1zM-230 17260h-1v-1h1v1zM-234 17260h-1v-1h1v1zM-15 17259h-1v-1h1v1zM-21 17259h-1v-1h1v1zM-39 17259h-1v-1h1v1zM-41 17259h-1v-1h1v1zM-17 17258h-1v-1h1v1zM-19 17257h-1v-1h1v1zM-34 17257h-1l1 -1h1l-1 1zM-17 17256h-1v-1h1v1zM-30 17256h-1v-1h1v1zM-96 17259h-1v-1h1v1zM-119 17259h-1v-1h1v1zM-113 17258h-1v-1h1v1zM-116 17258h-1v-1h1v1zM-118 17258h-1v-1h1v1zM-125 17258h-1v-1h1v1zM-112 17256h-1v-1h1v1zM-112 17253h-1v-1h1v1zM-112 17198h-1v-1h1v1zM-111 17197h-1v-1h1v1zM-114 17197h-1v-1h1v1zM-127 17196h1l-1 1v-1zM-108 17196h-1v-1h1v1zM-128 17196v-1l1 1h-1zM-156 17259h-1v-1h1v1zM-163 17259h-1v-1h1v1zM-168 17259h-1v-1h1v1zM-176 17259h-1v-1h1v1zM-189 17259h-1v-1h1v1zM-177 17258h-1v-1h1v1zM-200 17258h-1v-1h1v1zM-160 17257h-1l1 -1h1l-1 1zM-186 17258l-1 -1l1 -1h1l-1 2zM-193 17257h-1v-1h1v1zM-196 17257h-1v-1h1v1zM-191 17256h-1v-1h1v1zM-156 17257l-2 -2v-1l2 2v1zM-171 17255h-1v-1h1v1zM-183 17255l-1 1h-1l1 -2v1h1zM-186 17255h-2v-1h2v1zM-189 17255h-1v-1h1v1zM-195 17255h-1v-1h1v1zM-197 17255h-1v-1h1v1zM-192 17254h-1v-1h1v1zM-173 17253h-1v-1h1v1zM-176 17253h-3l1 -1h3l-1 1zM-174 17252h-1v-1h1v1zM-172 17251h-1v-1h1v1zM-173 17250h-1v-1h1v1zM-169 17250l-1 -1v-1h1v2zM-175 17251h-2v-1l1 -2h2l-1 2v1zM-187 17249h-1v-1h1v1zM-176 17248h-1v-1h1v1zM-202 17248h-1v-1h1v1zM-200 17247h-1l1 -1h1l-1 1zM-203 17247h-1v-1h1v1zM-193 17246h-1v-1h1v1zM-198 17246h-1v-1h1v1zM-201 17246h-1v-1h1v1zM-196 17245h-1v-1h1v1zM-200 17245h-1v-1h1v1zM-190 17244h-1v-1h1v1zM-194 17244h-1v-1h1v1zM-188 17243h-1v-1h1v1zM-192 17243h-1l1 -1h1l-1 1zM-198 17244v-1l2 -1h1l-1 1l-2 1zM-186 17242h-1v-1h1v1zM-185 17241h-1v-1h1v1zM-194 17242h-1l1 -2h2l-2 2zM-197 17241h-1v-1h1v1zM-199 17241h-1v-1h1v1zM-194 17240h-3l1 -1h2v1zM-186 17239h-1v-1h1v1zM-190 17239h-4v-1h5l-1 1zM-185 17237h-1v-1h1v1zM-188 17238l-2 -2h2v2zM-191 17237h-1v-1h1v1zM-201 17236h-1v-1h1v1zM-186 17235h-1v-1h1v1zM-188 17235h-2v-1h2v1zM-198 17235h-1l1 -1h1l-1 1zM-200 17235h-1v-1h1v1zM-188 17233h-1v-1h1v1zM-190 17233h-1v-1h1v1zM-201 17232h-1v-1h1v1zM-203 17232h-1v-1h1v1zM-200 17231h-1l1 -1h1l-1 1zM-192 17229h-1v-1h1v1zM-194 17229h-1v-1h1v1zM-203 17229h-1v-1h1v1zM-200 17228h-1l1 -1h1l-1 1zM-193 17226h-1v-1h1v1zM-190 17225h-1v-1h1v1zM-201 17225h-1v-1h1v1zM-189 17224h-1v-1h1v1zM-190 17223h-1v-1h1v1zM-199 17223h-1v-1h1v1zM-202 17218h-1v-1h1v1zM-195 17213h-1v-1h1v1zM-202 17211h-1v-1h1v1zM-192 17210h-1v-1h1v1zM-196 17210h-1v-1h1v1zM-195 17209h-1v-1h1v1zM-187 17208h-1v-1h1v1zM-194 17209v-1l2 -1v1l-2 1zM-190 17208l-1 -2h1h1v2h-1zM-202 17206h-2v-1h2v1zM-178 17207h-2l-1 -1l1 -2l2 1l1 1l-1 1zM-186 17206h-2v-2l2 2zM-200 17206l-1 -2h1h3l-1 1l-2 1zM-174 17205v-1l2 -1v1l-2 1zM-176 17205l-2 -1v-1h3v1l-1 1zM-180 17204h-2v-1h2v1zM-184 17204h-1v-1h1v1zM-194 17204h-2v-1h2v1zM-178 17203h-1v-1h1v1zM-182 17203h-1v-1h1v1zM-189 17205l-1 -1v-2h3l-1 1h-1v1v1zM-180 17202h-1v-1h1v1zM-172 17201v-1l1 1h-1zM-172 17202h-2v-2l2 1v1zM-188 17201h-1l1 -1h1l-1 1zM-176 17200h-1v-1h1v1zM-165 17201l-1 -1l-1 -2h1h1v3zM-168 17199h-2v-1h2v1zM-164 17198l-2 -2h2v2zM-168 17197h-1v-1h1v1zM-171 17197h-1v-1h1v1zM-204 17259h-1l1 -1h1l-1 1zM-228 17259h-1v-1h1v1zM-207 17258h-1v-1h1v1zM-209 17258h-1v-1h1v1zM-226 17258h-1v-1h1v1zM-204 17257h-1v-1h1v1zM-222 17257h-1l1 -1h1l-1 1zM-220 17256l-1 -1v-1h1v2zM-218 17254h-2v-1h2v1zM-208 17253h-1v-1h1v1zM-213 17253h-1v-1h1v1zM-216 17253h-1v-1h1v1zM-238 17253h-1v-1h1v1zM-240 17254h-3v-2h1v1h2v1zM-245 17254l-1 -1v-1h1v2zM-214 17252h-1v-1h1v1zM-235 17253h-1l-1 -1l1 -1h4v1l-3 1zM-209 17251h-1v-1h1v1zM-212 17251h-1v-1h1v1zM-228 17251h-2v-1h2v1zM-231 17251h-1v-1h1v1zM-242 17251h-2v-1h2v1zM-247 17251h-1v-1h1v1zM-206 17250h-2v-1h2v1zM-210 17250h-1v-1h1v1zM-226 17250h-1v-1h1v1zM-238 17251v-1l2 -1v1l-2 1zM-246 17250h-1v-1h1v1zM-204 17249h-1v-1h1v1zM-209 17249h-1v-1h1v1zM-222 17249h-2v-1h2v1zM-233 17249h-1v-1h1v1zM-245 17249h-1v-1h1v1zM-206 17248h-1l1 -1h1l-1 1zM-219 17248h-1v-1h1v1zM-230 17248h-1l1 -1h1l-1 1zM-218 17247h-1l1 -1h1l-1 1zM-226 17247h-1v-1h1v1zM-233 17247h-1v-1h1v1zM-243 17248h-1h-1l1 -2h1v2zM-213 17246h-1v-1h1v1zM-215 17246h-1v-1h1v1zM-224 17246h-1v-1h1v1zM-235 17246h-1v-1h1v1zM-241 17246h-1v-1h1v1zM-227 17245h-1v-1h1v1zM-230 17245h-1v-1h1v1zM-240 17245h-1v-1h1v1zM-252 17245h-1v-1h1v1zM-254 17245h-1v-1h1v1zM-228 17244h-1v-1h1v1zM-232 17244h-1v-1h1v1zM-238 17244h-1v-1h1v1zM-249 17244h-1v-1h1v1zM-257 17243l1 1h-1v-1zM-214 17243h-1v-1h1v1zM-224 17244l-2 -2h2v2zM-254 17243h-1v-1h1v1zM-204 17243h-3l1 -1l2 -1v1v1zM-217 17242h-1v-1h1v1zM-222 17243l-2 -1v-1h3v1l-1 1zM-236 17243v-1l2 -1v1l-2 1zM-250 17242h-2v-1h2v1zM-216 17241h-1v-1h1v1zM-219 17241h-1v-1h1v1zM-225 17241h-1v-1h1v1zM-232 17242l-2 -2h2v2zM-215 17240h-1v-1h1v1zM-231 17240h-1v-1h1v1zM-254 17240h-1v-1h1v1zM-258 17243v-3v-1l1 1v3h-1zM-212 17239h-2v-1h2v1zM-221 17239h-1v-1h1v1zM-228 17239h-1l1 -1h1l-1 1zM-208 17238h-3l1 -1h3l-1 1zM-223 17238h-1v-1h1v1zM-226 17238h-1l1 -1h1l-1 1zM-206 17237h-1v-1h1v1zM-224 17237h-1v-1h1v1zM-251 17237h-1v-1h1v1zM-204 17236h-1v-1h1v1zM-222 17236h-1l1 -1h1l-1 1zM-212 17235h-1v-1h1v1zM-220 17235h-1l1 -1h1l-1 1zM-216 17234h-2v-1h2v1zM-218 17233h-1v-1h1v1zM-228 17233h-1v-1h1v1zM-236 17233h-1v-1h1v1zM-212 17232h-1v-1h1v1zM-247 17232h-1v-1h1v1zM-207 17231h-1v-1h1v1zM-210 17231h-1v-1h1v1zM-206 17229h-1v-1h1v1zM-208 17228h-2v-1h2v1zM-226 17228h-1v-1h1v1zM-206 17227h-2v-1h2v1zM-210 17227h-1v-1h1v1zM-232 17227v-1h2v1h-2zM-255 17227h-1v-1h1v1zM-204 17226h-1v-1h1v1zM-226 17226h-2v-1h3l-1 1zM-230 17226v-1h1v1h-1zM-205 17225h-1v-1h1v1zM-218 17225h-1v-1h1v1zM-224 17225h-1v-1h1v1zM-229 17224h1l-1 1v-1zM-253 17225h-1v-1h1v1zM-222 17224h-1v-1h1v1zM-240 17225h-5l1 -1h2l2 -1v1v1zM-214 17223h-1l1 -1h1l-1 1zM-217 17223h-1v-1h1v1zM-243 17223h-1v-1h1v1zM-245 17224l-1 -1v-1h1v2zM-248 17223h-1v-1h1v1zM-256 17224l-1 -1v-1h1v2zM-211 17222h-1v-1h1v1zM-216 17222h-1v-1h1v1zM-223 17223l-1 -1v-1l1 1v1zM-237 17224h-1h-1l1 -2v-1l1 1v2zM-249 17222h-1v-1h1v1zM-213 17221h-1v-1h1v1zM-218 17221h-1v-1h1v1zM-222 17220v1l-1 -1h1zM-236 17221h-1v-1h1v1zM-239 17221h-1v-1h1v1zM-241 17222l-1 -1v-1h1v2zM-246 17222h-2v-2l2 2zM-252 17221h-1l1 -1h1l-1 1zM-205 17220h-1v-1h1v1zM-207 17221l-1 -1v-1l1 1v1zM-211 17220h-1v-1h1v1zM-214 17220h-3l1 -1h2v1zM-222 17219l1 1h-1v-1zM-240 17220h-1v-1h1v1zM-254 17222h-2l-1 -2h1l2 -1l1 1h-1v2zM-209 17219h-1v-1h1v1zM-220 17219h-1l1 -1h1l-1 1zM-230 17219h-1v-1h1v1zM-236 17219h-2v-1h2v1zM-245 17220h-1h-1l1 -2h1v2zM-256 17219h-1v-1h1v1zM-208 17218h-1v-1h1v1zM-232 17221l-4 -1l1 -2v-1h1l3 3l-1 1zM-244 17219v-1l4 -1v1h-2l-2 1zM-248 17220h-1v-3l1 1v2zM-252 17219h-1v-1l1 -1l1 1l-1 1zM-206 17218l-1 -1v-1h1v2zM-211 17217h-1v-1h1v1zM-216 17218h-2h-1l1 -2h2v2zM-224 17217l-4 1v-1l6 -1v1h-2zM-244 17217h-1v-1h1v1zM-247 17217h-1v-1h1v1zM-204 17217l-1 -1l1 -1l1 1l-1 1zM-220 17216h-2v-1h2v1zM-225 17216h-1v-1h1v1zM-231 17216h-1v-1h1v1zM-213 17218h-1h-1l1 -2h-1l1 -2h1v4zM-216 17215h-3l1 -1h2v1zM-242 17215h-2v-1h2v1zM-245 17215h-1v-1h1v1zM-206 17214h-1v-1h1v1zM-210 17216l-2 -2l2 -1l1 1h-1v2zM-214 17214h-2v-1h2v1zM-220 17214h-1v-1h1v1zM-224 17215l-1 -1v-1l1 1v1zM-229 17216l-1 1l-1 -1l3 -3l2 1l-2 2h-1zM-204 17213h-2v-1h2v1zM-212 17213h-2v-1h2v1zM-239 17213h-1v-1h1v1zM-220 17212h-1v-1h1v1zM-223 17212h-1v-1h1v1zM-234 17212h-1v-1h1v1zM-218 17211h-1v-1h1v1zM-221 17211h-1v-1h1v1zM-232 17211h-1v-1h1v1zM-235 17211h-1v-1h1v1zM-234 17210h-1v-1h1v1zM-203 17210h-2v-2h4l-1 1l-1 1zM-215 17209h-1v-1h1v1zM-218 17209h-1v-1h1v1zM-227 17209h-1v-1h1v1zM-211 17208h-1v-1h1v1zM-214 17208h-1v-1h1v1zM-228 17208h-3l1 -1h2v1zM-207 17207h-1v-1h1v1zM-223 17207h-1v-1h1v1zM-226 17207h-2v-1h2v1zM-220 17208v-1l2 -1v-1l1 1v1h-1l-2 1zM-221 17206h-1v-1h1v1zM-224 17206h-1v-1h1v1zM-216 17203h-2v-1h2v1zM-214 17202h-1v-1h1v1zM-209 17200h-1v-1h1v1zM-24 17143h-1v-1h1v1zM-106 17194h-1v-1h1v1zM-117 17194h-1v-1h1v1zM-117 17188h-1v-1h1v1zM-104 17188l-1 -1v-1h1v2zM-116 17184h-1v-1h1v1zM-118 17184h-1v-1h1v1zM-128 17183l-1 -1v-1l1 1v1zM-115 17181h-1v-1h1v1zM-117 17181h-1v-1h1v1zM-129 17174h-1v-1h1v1zM-130 17173h-1v-1h1v1zM-129 17172h-1v-1h1v1zM-127 17169h-1v-1h1v1zM-129 17168l-1 -1v-1h1v2zM-129 17164h-1v-1h1v1zM-128 17157h-1v-1h1v1zM-132 17157l-1 -1v-2h1v3zM-129 17153h-1v-1h1v1zM-128 17149h-1v-1h1v1zM-129 17144h-1v-1h1v1zM-133 17146v-6h2v2l-1 2h1l-1 2h-1zM-130 17140h-1v-1h1v1zM-132 17138l-1 -2l3 -1v1l-2 2zM-133 17135h-1v-1h1v1zM-163 17193h-1v-1h1v1zM-159 17192h-1v-1h1v1zM-158 17191h-1v-1h1v1zM-158 17189h-1v-1h1v1zM-166 17175h-1v-1h1v1zM-164 17174h-1v-1h1v1zM-163 17173h-1v-1h1v1zM-160 17172h-1v-1h1v1zM-162 17172h-1v-1h1v1zM-161 17171h-1v-1h1v1zM-158 17169h-2v-2h2l1 1l-1 1zM-267 17145l-1 1v-1h1zM-267 17145v-1h1v1h-1zM-261 17138h1l-1 1v-1zM-262 17138v-1l1 1h-1zM-260 17137h-1v-1h1v1zM-259 17135h-1v-1h1v1zM-258 17134h-1v-1h1v1zM-213 17099h-1v-1h1v1zM-211 17078h-1v-1h1v1zM155 17050h-1v-1h1v1zM146 17050h-1v-1h1v1zM130 17050h-1v-1h1v1zM122 17050h-1v-1h1v1zM135 17049h-1v-1h1v1zM125 17049h-1v-1h1v1zM123 17049h-1v-1h1v1zM178 17048h-1v-1h1v1zM136 17048h-1v-1h1v1zM129 17048h-1v-1h1v1zM121 17048h-1v-1h1v1zM176 17047h-1v-1h1v1zM163 17047v-1h1v1h-1zM162 17047l-1 -1h1v1zM147 17047h-1v-1h1v1zM131 17047h-1v-1h1v1zM120 17047h-1v-1h1v1zM178 17046h-2v-1h2v1zM169 17047v-2l2 1h-1v1h-1zM164 17046v-1l1 1h-1zM162 17046v-1h1v1h-1zM148 17046h-1v-1h1v1zM127 17046h-1v-1h1v1zM179 17045h-1v-1h1v1zM163 17045v-1h1v1h-1zM161 17045h-1v-1h1v1zM150 17045h-1v-1h1v1zM139 17045h-1v-1h1v1zM129 17045h-1v-1h1v1zM124 17046h-3v-2h1v1h3l-1 1zM176 17044h-1l1 -1h1l-1 1zM172 17044h-1v-1h1v1zM162 17044h-1v-1h1v1zM140 17044h-1v-1h1v1zM136 17044h-1v-1h1v1zM131 17044h-1v-1h1v1zM175 17043h-1v-1h1v1zM164 17043h-1v-1h1v1zM138 17043h-1v-1h1v1zM126 17044l-1 -2h1h1v2h-1zM121 17043h-1v-1h1v1zM137 17042h-1v-1h1v1zM134 17042h-1v-1h1v1zM125 17042h-1v-1h1v1zM156 17041h-2v-1h2v1zM144 17041h-1v-1h1v1zM136 17041h-1v-1h1v1zM141 17041h-1l-1 -1l1 -1l1 1v1zM138 17040h-1v-1h1v1zM128 17040h-1v-1h1v1zM126 17041l-2 -1v-1h2v1v1zM122 17041l-1 -1v-1l1 1v1zM158 17039h-1v-1h1v1zM146 17039h-1v-1h1v1zM144 17039h-2v-1h2v1zM139 17039h-1v-1h1v1zM131 17039h-1v-1h1v1zM120 17039h-1v-1h1v1zM160 17038h-1v-1h1v1zM145 17038h-1v-1h1v1zM130 17038h-1v-1h1v1zM124 17038h-1v-1h1v1zM161 17037h-1v-1h1v1zM146 17037h-1l1 -1h1l-1 1zM142 17037h-1v-1h1v1zM134 17037h-1v-1h1v1zM162 17036h-1v-1h1v1zM150 17036h-1v-1h1v1zM148 17036h-1v-1h1v1zM144 17036h-1v-1h1v1zM133 17036h-1v-1h1v1zM125 17037l-1 -1v-1l1 1v1zM145 17035h-1v-1h1v1zM137 17035h-1v-1h1v1zM126 17035h-1v-1h1v1zM151 17034h-1v-1h1v1zM147 17034h-1v-1h1v1zM136 17034h-1v-1h1v1zM127 17034h-1v-1h1v1zM157 17033h-1v-1h1v1zM153 17033h-1v-1h1v1zM149 17033h-1v-1h1v1zM140 17033h-1v-1h1v1zM173 17032h-1v-1h1v1zM159 17032h-1v-1h1v1zM150 17032h-1v-1h1v1zM134 17032h-1v-1h1v1zM128 17032h-1v-1h1v1zM125 17032h-1v-1h1v1zM172 17031h-1v-1h1v1zM158 17031h-1v-1h1v1zM154 17033l-1 -1l1 -1l2 -1v2l-2 1zM152 17031h-1v-1h1v1zM143 17031h-1v-1h1v1zM132 17031h-1v-1h1v1zM129 17031h-1v-1h1v1zM142 17030h-1v-1h1v1zM137 17030h-1v-1h1v1zM125 17030h-1v-1h1v1zM162 17029h-1v-1h1v1zM159 17029h-1v-1h1v1zM155 17029h-1v-1h1v1zM138 17029h-1v-1h1v1zM148 17028h-1v-1h1v1zM145 17028h-1v-1h1v1zM162 17028l-1 -2h1h1v2h-1zM157 17028l-1 -1v-1h1v2zM147 17027h-1v-1h1v1zM138 17027h-1v-1h1v1zM131 17028l-1 -1v-1h1v2zM117 17027v-1h1v1h-1zM175 17026h-1v-1h1v1zM165 17027l-1 -1v-1l1 1v1zM158 17026h-1v-1h1v1zM118 17025l1 1h-1v-1zM167 17025h-1v-1h1v1zM137 17025h-1v-1h1v1zM121 17025h-1v-1h1v1zM170 17024h-1l1 -1h1l-1 1zM164 17024h-1v-1h1v1zM119 17024h-1v-1h1v1zM169 17023h-1v-1h1v1zM162 17023h-1v-1h1v1zM132 17026h-1l3 -4h1v2l-3 2zM130 17023h-1v-1h1v1zM120 17022v1l-1 -1h1zM171 17022h-1v-1h1v1zM163 17022h-1v-1h1v1zM136 17022h-1v-1h1v1zM131 17022h-1v-1h1v1zM125 17022h-1v-1h1v1zM120 17021l1 1h-1v-1zM119 17022h-1l1 -1v1zM174 17021h-1v-1h1v1zM168 17021h-1v-1h1v1zM164 17021h-1v-1h1v1zM160 17021h-1v-1h1v1zM137 17021h-1v-1h1v1zM126 17021h-1v-1h1v1zM123 17021h-1v-1h1v1zM119 17021v-1h1v1h-1zM170 17020h-1v-1h1v1zM138 17020h-1v-1h1v1zM133 17020h-1v-1h1v1zM125 17020h-1v-1h1v1zM121 17020h-1v-1h1v1zM174 17019h-1v-1h1v1zM134 17019h-1v-1h1v1zM126 17019h-1v-1h1v1zM122 17019h-1v-1h1v1zM119 17019h-1v-1h1v1zM168 17019h-2v-1l2 -1v1v1zM124 17018h-2v-1h2v1zM170 17017h-2v-1h2v1zM151 17017h-1v-1h1v1zM144 17017h-1v-1h1v1zM138 17019v-1l2 -2v2l-2 1zM133 17017h-1v-1h1v1zM120 17017h-1v-1h1v1zM161 17016h-1v-1h1v1zM147 17016h-1v-1h1v1zM145 17016h-1v-1h1v1zM136 17016h-1v-1h1v1zM150 17015h-1v-1h1v1zM148 17015h-1v-1h1v1zM142 17016l-1 -1v-1h1v2zM137 17015h-1v-1h1v1zM133 17015h-1v-1h1v1zM129 17015v-1h1v1h-1zM126 17016l-1 -1v-1h1v2zM122 17017l-2 -1v-1l2 -1h2v2h-2v1zM145 17014h-1v-1h1v1zM143 17014h-1v-1h1v1zM131 17014h-1v-1h1v1zM155 17013h-1v-1h1v1zM144 17013h-1v-1h1v1zM137 17013h-1v-1h1v1zM135 17013h-1v-1h1v1zM132 17012v1l-1 -1h1zM126 17013h-1v-1h1v1zM124 17013h-2v-1h2v1zM151 17012h-1v-1h1v1zM140 17012h-1v-1h1v1zM136 17012h-1v-1h1v1zM132 17011l1 1h-1v-1zM125 17012h-1v-1h1v1zM149 17012l-1 -1v-1h1v2zM146 17012l-2 -1v-1h3v2h-1zM143 17011h-1v-1h1v1zM141 17011h-1v-1h1v1zM134 17011h-1v-1h1v1zM150 17010h-1l1 -1h1l-1 1zM138 17010h-1v-1h1v1zM148 17010l-1 -1v-1h1v2zM140 17008h-1l1 -1h1l-1 1zM132 17008h-1v-1h1v1zM126 17011l-1 -1v-2h-1v-1h2v4zM146 17007h-1v-1h1v1zM142 17007h-1v-1h1v1zM133 17007h-1v-1h1v1zM147 17006h-1v-1h1v1zM134 17006h-1v-1h1v1zM143 17006l-1 -1v-1h1v2zM138 17006h-2l2 -2v2zM135 17005h-1v-1h1v1zM145 17004h-1v-1h1v1zM136 17004h-1v-1h1v1zM124 17004h-1l1 -1h1l-1 1zM102 17040h-1v-1h1v1zM100 17040h-2l2 -2h1l-1 2zM102 17038h-1l1 -1h1l-1 1zM106 17034h-1l1 -1v1zM106 17033v-1l1 1h-1zM108 17026h-2v-1h2v1zM109 17025h-1v-1h1v1zM110 17023l-1 -1h1v1zM110 17022v-1l1 1h-1zM-168 17015h-1v-1h1v1zM-263 17028h-1v-1h1v1zM-266 17028h-2v-1h2v1zM-264 17027h-2v-1h2v1zM-260 17026h-2v-1h2v1zM-259 17025h-1v-1h1v1zM-247 17016h-1v-1h1v1zM-244 17013h-1v-1h1v1zM-246 17013h-1v-1h1v1zM-242 17009h-1v-1h1v1zM-241 17004h-1v-1h1v1zM-314 17042h-2v-1h2v1zM-311 17041h-1v-1h1v1zM-307 17040h-1v-1h1v1zM-312 17039v1l-1 -1h1zM-300 17038h-1v-1h1v1zM-306 17038h-1v-1h1v1zM-299 17036h-1v-1h1v1zM-295 17035h-1v-1h1v1zM-290 17034h-2v-1h2v1zM-280 17032h-1v-1h1v1zM-269 17029l-1 -1v-1l1 1v1zM137 17003h-1v-1h1v1zM130 17003h-2v-1h2v1zM146 17003l-1 -1v-1l1 1v1zM138 17002h-1v-1h1v1zM126 17003l-1 -1l1 -1h2v1l-2 1zM147 17001h-1v-1h1v1zM142 17002l-1 -1v-1h1v2zM139 17001h-1v-1h1v1zM131 17001h-1v-1h1v1zM149 17000h-1v-1h1v1zM144 17000h-1v-1h1v1zM132 17000h-1v-1h1v1zM129 17001l-1 -1v-1l1 1v1zM150 16999h-1v-1h1v1zM140 17000l-1 -1l1 -1h1l-1 2zM131 16999h-1v-1h1v1zM142 16998h-1v-1h1v1zM143 16997h-1v-1h1v1zM153 16996h-1v-1h1v1zM147 16997l-1 -1v-1l1 1v1zM134 16997l-1 -1v-1l1 1v1zM127 16996h-1v-1h1v1zM154 16995h-1v-1h1v1zM149 16995h-1v-1h1v1zM144 16996l-1 -1v-1h1v2zM135 16995h-1v-1h1v1zM153 16994h-1v-1h1v1zM136 16994h-1v-1h1v1zM137 16993h-1v-1h1v1zM131 16993h-1v-1h1v1zM148 16993l-1 -1l1 -1l1 1l-1 1zM139 16992h-1v-1h1v1zM145 16991h-1v-1h1v1zM140 16991h-1v-1h1v1zM160 16990h-1v-1h1v1zM155 16990h-1v-1h1v1zM152 16990h-1v-1h1v1zM141 16990h-1v-1h1v1zM139 16990h-1v-1h1v1zM151 16988l-1 1v-1h1zM148 16989h-1v-1h1v1zM134 16989h-1v-1h1v1zM162 16989h-2v-1l2 -1v1v1zM159 16989l-1 -1v-1l1 1v1zM151 16987h1l1 1h-1h-1v-1zM150 16988h-1l1 -1v1zM133 16988h-1v-1h1v1zM129 16988h-1v-1h1v1zM163 16986l-1 1v-1h1zM156 16989l-1 -1l1 -2h2l-2 3zM144 16987h-1l1 -1h1l-1 1zM142 16989l-1 -1v-2h1v3zM140 16987h-1v-1h1v1zM130 16987h-1v-1h1v1zM163 16985l1 1h-1v-1zM162 16986h-1v-1h1v1zM155 16986h-1v-1h1v1zM150 16987v-2h2v1l-1 1h-1zM162 16985v-1h1v1h-1zM161 16985h-1v1h-1v-2h2v1zM153 16985h-1v-1h1v1zM166 16984h-1v-1h1v1zM161 16984l1 -1v1h-1zM158 16984h-3l1 -1h2v1zM146 16986l-1 -1l1 -2h3l-1 1l-2 2zM144 16984h-1v-1h1v1zM132 16985h-2v-1l2 -1v1v1zM161 16983h-1v-1h1v1zM150 16983h-1l1 -1h1l-1 1zM145 16983h-1v-1h1v1zM143 16983h-1v-1h1v1zM133 16983h-1v-1h1v1zM165 16983l-1 -1v-1l1 1v1zM159 16983l-1 -1v-1l1 1v1zM152 16982h-1l1 -1h1l-1 1zM134 16982h-1v-1h1v1zM145 16981h-1v-1h1v1zM143 16981h-1v-1h1v1zM162 16981h-3l1 -1l2 -1l1 1l-1 1zM159 16980h-1v-1h1v1zM157 16981l-1 -1v-1l1 1v1zM155 16981h-1l-1 -1l1 -1l1 1v1zM146 16978h-2v-1h2v1zM134 16981v-1l2 -3l1 1l-3 3zM138 16977h-1v-1h1v1zM143 16976h-1v-1h1v1zM144 16975h-1v-1h1v1zM138 16976v-1l2 -2l1 1l-3 2zM153 16972h-1v-1h1v1zM142 16973l-1 -1l1 -1l1 1l-1 1zM156 16971h-1v-1h1v1zM153 16970h-1v-1h1v1zM154 16969h-1v-1h1v1zM139 16968h-1v-1h1v1zM159 16966h-1v-1h1v1zM157 16966h-1v-1h1v1zM144 16971v-3l2 -2v-1l2 1l-4 5zM140 16966h-1v-1h1v1zM160 16965h-1v-1h1v1zM148 16966v-1l2 -1l-2 2zM144 16965h-1v-1h1v1zM141 16965h-1v-1h1v1zM138 16965h-1v-1h1v1zM157 16964h-1v-1h1v1zM146 16964h-1v-1h1v1zM149 16963h-1v-1h1v1zM152 16962h-1v-1h1v1zM164 16961h-2v-1h2v1zM153 16961h-1v-1h1v1zM147 16961h-1v-1h1v1zM138 16960h-1v-1h1v1zM166 16959h-1v-1h1v1zM155 16960h-1h-1l1 -2h1v2zM156 16958h-1v-1h1v1zM161 16957h-1v-1h1v1zM157 16957h-1v-1h1v1zM155 16957h-1v-1h1v1zM158 16956h-1v-1h1v1zM151 16956h-1v-1h1v1zM171 16954h-1v-1h1v1zM161 16953h-1v-1h1v1zM169 16952h-1v-1h1v1zM167 16952h-1v-1h1v1zM161 16951h-1v-1h1v1zM147 16951h-1v-1h1v1zM172 16950h-4v-1h4v1zM151 16951h-1l-1 -1l1 -1l1 1v1zM142 16950h-1v-1h1v1zM153 16949h-1v-1h1v1zM144 16947v1v1l-1 -1v-1h1zM154 16948l-1 -1l1 -1h1l-1 2zM156 16946h-1v-1h1v1zM151 16945v-1h1v1h-1zM147 16945h-1v-1h1v1zM152 16944v-1h1v1h-1zM149 16944v-1l1 1h-1zM156 16943l-1 -1h1v1zM153 16943v-1h1v1h-1zM156 16942v-1h1v1h-1zM154 16942v-1l1 1h-1zM153 16942h-1v-1h1v1zM161 16940l1 -1h1v1h-1h-1zM151 16940v-1h1v1h-1zM-120 16997h-1v-1h1v1zM-120 16990l-1 -1v-1h1v2zM-122 16989l-2 -2v-1l2 1l1 1l-1 1zM-120 16985h-2v-1h2v1zM-120 16977h-1v-1h1v1zM-119 16972h-1v-1h1v1zM-118 16965h-1v-1h1v1zM-127 16961h-1v-1h1v1zM-118 16961l-1 -1v-1l1 1v1zM-127 16958l-1 -1v-1h1v2zM-116 16955h-1v-1h1v1zM-118 16954h-1l1 -1h1l-1 1zM-116 16952h-1v-1h1v1zM-119 16952h-1v-1h1v1zM-118 16950v1l-1 -1h1zM-118 16948h1l-1 2v-2zM-119 16950h-1h-1l2 -2v2zM-128 16949h-1v-1h1v1zM-119 16948l1 -1v1h-1zM-121 16948h-1v-1h1v1zM-126 16948h-2v-1h2v1zM-129 16947l-1 -1v-1l1 1v1zM-236 17001h-2l-1 -1l1 -1l2 1v1zM160 16937h2v1l-2 -1zM162 16937v-1l1 1h-1zM163 16937l3 -2v1l-3 3v-2zM169 16934h-1v-1h1v1zM161 16934h-1v-1h1v1zM170 16933h-1v-1h1v1zM167 16935l-1 -1v-2h1v3zM171 16932h-1v-1h1v1zM162 16934v-1l2 -2v1l-2 2zM157 16932l1 -1v1h-1zM167 16931h-1v-1h1v1zM168 16930h-1v-1h1v1zM166 16930h-1v-1h1v1zM158 16931v-1l-1 -2h1l1 2v1h-1zM174 16929v-1l2 -1v1l-2 1zM168 16928h-1v-1h1v1zM166 16928h-1v-1h1v1zM178 16926v1l-2 -1h2zM172 16927h-1v-1h1v1zM169 16927h-1v-1h1v1zM154 16927h-2v-1h2v1zM176 16926h-2v-1h2v1zM170 16926h-1v-1h1v1zM168 16926h-1v-1h1v1zM157 16926h-1v-1h1v1zM151 16926h-1v-1h1v1zM176 16925v-1h2v1h-2zM174 16925h-1v-1h1v1zM172 16925h-2v-1h2v1zM159 16925h-1v-1h1v1zM154 16925h-1v-1h1v1zM152 16925h-1v-1h1v1zM178 16924v-1h1v1h-1zM160 16924h-1v-1h1v1zM156 16924h-1l1 -1h1l-1 1zM171 16923h-1v-1h1v1zM161 16923h-1v-1h1v1zM151 16924l-1 -1v-1h1v2zM166 16922v-1h1v1h-1zM163 16922h-1v-1h1v1zM160 16922h-1v-1h1v1zM158 16923l-1 -1v-1l1 1v1zM155 16922h-1v-1h1v1zM149 16922h-1v-1h1v1zM178 16920h1v2h-3h-1l2 -2l1 1v-1zM174 16920v1l-1 -1h1zM165 16921h-1v-1h1v1zM157 16921h-1v-1h1v1zM177 16920l1 -1v1h-1zM167 16921v-2h1v2h-1zM154 16921h-4v-1v-1l2 1h2v1zM159 16921l-1 -1v-2h1v3zM156 16920h-2l2 -2h1l-1 2zM179 16918h-1v-1h1v1zM171 16918l1 -1h1v1h-1h-1zM152 16918h-1v-1h1v1zM173 16917v-1h1v1h-1zM169 16917v-1h1v1h-1zM162 16917h-1v-1h1v1zM160 16918l-1 -1v-1h1v2zM174 16916v-1h1v1h-1zM161 16916h-1v-1h1v1zM158 16917l-1 -1v-1l1 1v1zM156 16916h-1v-1h1v1zM154 16918l-2 -2l2 -1v1l1 2h-1zM169 16916l-1 -1v-1h1v2zM165 16915h-1v-1h1v1zM157 16915h-1v-1h1v1zM174 16913l1 1h-1v-1zM162 16915v-1l2 -1v1l-2 1zM155 16914h-1v-1h1v1zM165 16913h-1v-1h1v1zM160 16915l-1 -1v-2h1l1 2l-1 1zM177 16911l-1 1v-1h1zM164 16912h-1v-1h1v1zM177 16910h1l-1 1v-1zM176 16911l-1 -1h1v1zM162 16912l-1 -1v-1h1v2zM157 16911h-1v-1h1v1zM155 16911h-1v-1h1v1zM176 16910v-1l1 1h-1zM175 16910h-1v-1h1v1zM171 16910h-1v-1h1v1zM178 16909h-1l1 -1h1l-1 1zM172 16909h-1v-1h1v1zM158 16910l-1 -1l1 -1h1l-1 2zM168 16908h-1v-1h1v1zM157 16908h-1v-1h1v1zM174 16907h-1v-1h1v1zM172 16907h-1v-1h1v1zM169 16907h-1v-1h1v1zM158 16907h-1v-1h1v1zM176 16906h-2v-1h2v1zM170 16906h-1v-1h1v1zM166 16906h-1v-1h1v1zM177 16905h-1v-1h1v1zM167 16905h-1v-1h1v1zM178 16904h-1v-1h1v1zM174 16903h-1v-1h1v1zM171 16904l-1 -1v-1h1v2zM162 16903h-2v-1h3l-1 1zM175 16902h-1v-1h1v1zM169 16902h-1v-1h1v1zM164 16902h-1v-1h1v1zM160 16902h-1v-1h1v1zM172 16901h-1v-1h1v1zM161 16901h-1v-1h1v1zM174 16901l-2 -1v-1h2v1v1zM163 16900h-1v-1h1v1zM158 16900h-1v-1h1v1zM177 16899h-1v-1h1v1zM155 16899h-1v-1h1v1zM167 16898h-1v-1h1v1zM176 16898l-1 -1l1 -1h1l-1 2zM173 16897h-1v-1h1v1zM168 16897h-1v-1h1v1zM165 16897h-1v-1h1v1zM163 16897h-1v-1h1v1zM179 16896h-1v-1h1v1zM174 16896h-1v-1h1v1zM177 16895h-1v-1h1v1zM170 16895h-1v-1h1v1zM162 16898h-3v-4h1v3h2v1zM175 16894h-1v-1h1v1zM173 16894h-1v-1h1v1zM166 16895h-2v-1l2 -1l1 1l-1 1zM157 16894h-1v-1h1v1zM168 16892v1l-1 -1h1zM162 16893h-2v-1h3l-1 1zM176 16892h-1v-1h1v1zM168 16891l1 1h-1v-1zM167 16892h-1l1 -1v1zM159 16891h-1v-1h1v1zM156 16891h-1v-1h1v1zM171 16891l-1 -1v-1l1 1v1zM178 16890l-1 -1l1 -1h1l-1 2zM165 16889h-1v-1h1v1zM163 16891h-1l-1 -1h1v-2h1v3zM166 16888h-1l1 -1h1l-1 1zM176 16887h-1l1 -1h1l-1 1zM162 16887h-1v-1h1v1zM160 16887h-1v-1h1v1zM161 16886h-1v-1h1v1zM177 16885h-1v-1h1v1zM173 16886l-1 -1v-1h1v2zM163 16885h-1v-1h1v1zM166 16884h-1v-1h1v1zM176 16881h-1v-1h1v1zM163 16882l-1 -1v-1h1v2zM168 16880h-1v-1h1v1zM174 16879h-1v-1h1v1zM165 16881l-1 -1v-2h1v3zM167 16878h-1v-1h1v1zM175 16876h-1v-1h1v1zM-75 16923h-1v-1h1v1zM-75 16920h-1v-1h1v1zM-110 16930v1l-1 -1h1zM-111 16930h-1v-2h1v2zM-78 16928l-1 -1v-1h1v2zM-79 16925h-1v-1h1v1zM-77 16926h-1v-3l1 1v2zM168 16875h-1v-1h1v1zM166 16877h-2v-1h1v-2h1v3zM176 16875l-1 -1v-1l1 1v1zM167 16874h-1v-1h1v1zM177 16873l-1 -1v-1l1 1v1zM162 16872h-1v-1h1v1zM165 16871h-1v-1h1v1zM178 16870h-1v-1h1v1zM169 16869h2v2h-4l1 -2v1l1 -1zM174 16869h-1v-1h1v1zM179 16868h-1v-1h1v1zM171 16867l-1 1v-1h1zM159 16867h-1v-1h1v1zM176 16866h-1v-1h1v1zM171 16865h2v2h-2v-2zM176 16864h-1v-1h1v1zM165 16864l1 -1v1h-1zM178 16862h-1v-1h1v1zM167 16862h-1v-2h1v2zM158 16858h-1v-1h1v1zM179 16857h-1v-1h1v1zM177 16855l1 1h-1v-1zM161 16855v-2h2v1h-1v1h-1zM158 16854h-1v-1h1v1zM163 16852h1l-1 1v-1zM161 16852v-1l2 1h-2zM161 16851h-1v-1h1v1zM158 16851h-1v-1h1v1zM164 16850h-1v-1h1v1zM174 16849h-2v-1h2v1zM171 16849h-1l-1 -1l1 -1l1 1v1zM158 16850l-1 -2l1 -1l1 1v2h-1zM178 16847h-2v-1h3l-1 1zM174 16847h-1v-1h1v1zM172 16847h-1v-1h1v1zM170 16847h-1v-1h1v1zM167 16847h-1v-1h1v1zM161 16847h-1v-1h1v1zM175 16846h-1v-1h1v1zM162 16849l-1 -1l3 -3v1l-2 3zM174 16845h-1v-1h1v1zM165 16845h-1v-1h1v1zM175 16844h-1v-1h1v1zM171 16844h-1v-1h1v1zM167 16843h-1v-1h1v1zM160 16843h-1v-1h1v1zM168 16842h-1v-1h1v1zM166 16842h-3l1 -1h2v1zM170 16841h-1v-1h1v1zM-401 16844h-1v-1h1v1zM-403 16839l-1 -1v-2h1v3zM-402 16835l-1 -1v-2h1v3zM-401 16832h-1v-3l1 1v2zM-400 16828h-1v-1h1v1zM-398 16824h-1v-1h1v1zM-381 16796h-1v-1h1v1zM-377 16789h-1v-1h1v1zM-376 16788h-1v-1h1v1zM-377 16787h-1v-1h1v1zM140 16652l-1 -1v-1h1v2zM98 16680h-1v-1h1v1zM96 16679h-1l1 -1h1l-1 1zM95 16678h-1v-1h1v1zM247 17016h-2l1 -2v1h1v1zM245 17014h-1v-1h1v1zM258 17011h-1l1 -1h1l-1 1zM260 17010h-1v-1h1v1zM245 17010l-1 -1v-1h1v2zM254 17006h1l-1 1v-1zM248 17000h-1v-1h1v1zM181 17047h-1v-1h1v1zM191 17046h-1v-1h1v1zM188 17046h-1v-1h1v1zM184 17046h-1l1 -1h1l-1 1zM190 17045h-1v-1h1v1zM189 17044h-1v-1h1v1zM184 17044h-1v-1h1v1zM182 17045h-2v-1l2 -1v1v1zM191 17043h-1v-1h1v1zM183 17043h-1v-1h1v1zM192 17043v-1l2 -1v1l-2 1zM187 17042h-1v-1h1v1zM190 17041h-1v-1h1v1zM184 17042l-1 -1v-1h1v2zM182 17041h-1v-1h1v1zM186 17040h-1v-1h1v1zM198 17039h-1v-1h1v1zM188 17039h-1v-1h1v1zM181 17039h-1v-1h1v1zM202 17038h-1v-1h1v1zM200 17038h-2v-1h2v1zM184 17038h-2v-1h3l-1 1zM194 17037h-1v-1h1v1zM188 17037h-2v-1h2v1zM193 17036h-1v-1h1v1zM189 17036h-1v-1h1v1zM186 17036h-1v-1h1v1zM205 17035h-1v-1h1v1zM203 17035h-1v-1h1v1zM197 17036l-1 1l-2 -1v-1h2l3 -1v2h-2zM183 17035h-1v-1h1v1zM207 17034h-1v-1h1v1zM196 17034h-1v-1h1v1zM187 17034h-1v-1h1v1zM200 17033h-4v-1h4v1zM194 17033h-1l1 -1h1l-1 1zM203 17032h-1v-1h1v1zM206 17032h-2l2 -2v2zM195 17031h-1v-1h1v1zM193 17031h-1v-1h1v1zM206 17029h-1v-1h1v1zM204 17030l-1 -1v-1h1v2zM196 17029h-1v-1h1v1zM203 17028h-1v-1h1v1zM197 17028h-1v-1h1v1zM185 17028h-1v-1h1v1zM225 17027h-1v-1h1v1zM204 17027h-1v-1h1v1zM201 17029l-1 -1v-2h1v3zM190 17027h-1l1 -1h1l-1 1zM187 17026h-1v-1h1v1zM223 17025h-1v-1h1v1zM196 17025h-1l1 -1h1l-1 1zM194 17025h-1v-1h1v1zM210 17024h-1v-1h1v1zM212 17023h-1v-1h1v1zM222 17023l-1 -1v-1l1 1v1zM219 17022h-1v-1h1v1zM221 17021h-1v-1h1v1zM216 17021h-1v-1h1v1zM240 17020v-1h2v1h-2zM218 17020h-2v-1h2v1zM238 17019v-1h2v1h-2zM219 17019h-1v-1h1v1zM221 17018h-1v-1h1v1zM226 17015h-1v-1h1v1zM244 17012h-1l1 -1h1l-1 1zM234 17011h-1l1 -1h1l-1 1zM236 17011l-1 -1l1 -1l2 -1v2l-2 1zM240 17009l-1 -1l1 -1h2v1l-2 1zM180 17043h-2v-1h2v1zM180 17041h-1v-1h1v1zM184 16923l-1 -1v-1l1 1v1zM182 16920h-1v-1h1v1zM185 16921l-1 -1v-2h1v3zM184 16918l-1 -1v-1h1v2zM182 16915h-1l1 -1h1l-1 1zM181 16913h-1v-1h1v1zM182 16912h-1v-1h1v1zM187 16910h-1v-1h1v1zM181 16909h-1v-1h1v1zM190 16908h-1v-1h1v1zM188 16907h-1v-1h1v1zM192 16906h-1v-1h1v1zM189 16906h-1v-1h1v1zM187 16906h-1v-1h1v1zM185 16905h-1v-1h1v1zM182 16907l-1 -1v-2h2v2l-1 1zM194 16904h-1v-1h1v1zM188 16904h-1v-1h1v1zM186 16904h-1v-1h1v1zM195 16901h-1v-1h1v1zM189 16901h-1v-1h1v1zM194 16902h-2l-1 -2l1 -1l1 1l1 2zM188 16900l-1 -1v-1h1v2zM191 16898h-1v-1h1v1zM194 16898l-1 -1v-1h1v2zM190 16897h-1v-1h1v1zM193 16896h-1v-1h1v1zM187 16896h-1v-1h1v1zM188 16895h-1v-1h1v1zM186 16895h-2v-1h2v1zM181 16895h-1v-1h1v1zM184 16894h-2v-1h2v1zM186 16893h-1v-1h1v1zM181 16891h-1v-1h1v1zM181 16888h-1v-1h1v1zM182 16886h-1v-1h1v1zM182 16884h-1v-1h1v1zM180 16908h-1v-3l1 1v2zM180 16903h-1v-1h1v1zM180 16899h-1v-1h1v1zM180 16892h-2v-2l2 2zM183 16859h-1v-1h1v1zM182 16847h-1v-1h1v1zM181 16846h-1v-1h1v1zM181 16843h-1v-1h1v1zM180 16866h-1v-1h1v1zM180 16864l-1 -1v-1h1v2zM180 16856h-1l1 -1h1l-1 1zM238 16656h-4l-1 -2l1 -2h2l2 2v2z"/></svg>