<svg xmlns="http://www.w3.org/2000/svg" viewBox="-338 33 783 739"><g class="f live" data-r data-f="0" fill="var(--live,#000)" fill-rule="evenodd"><path class="chunk" data-i="0" d="M383 364l-1 -1v-2h2v-4l1 1l-1 7v-1h-1zM386 357l-2 -1l-1 -8h1l1 2v5l1 -1v-2h1v4l-1 1zM386 350l-1 -2l-1 -6v-1l2 1l1 8h-1zM311 305v-1l3 -3h1l-1 3v-1l-1 1h-1v1h-1zM293 324l3 -1l1 1l-1 1h-2v1l-2 2h-1l2 -2v-2zM296 320l-2 2h-1l2 -2l-1 -2l2 -1l8 -5v-2h2l-1 2l-3 3h-1v1l-3 3l-2 1zM319 297l1 -1h2l-4 4v2l-2 1v-1l-1 -4h1v1l1 -1l1 -1v1l1 -1zM392 206v2l-2 2l-1 2l-1 1l-1 -1l1 -2l2 -2l-1 -2l2 -1v1h1zM394 204h-2l-1 -2h1h1v-3h2v-1v-1l1 1l-1 2l-1 4zM398 192h-1v-2l1 -1v1h2v1h-2v1z"/><path class="chunk" data-i="1" d="M267 193v-1l1 -2l2 2h-1l-1 2v-1h-1zM270 190h-1l1 -2h-1l1 -1l2 1l-2 2zM274 186l-2 1v-1l-1 -2h1h1l1 2zM276 182h-3l1 -1h1v-1l3 -3v1v1l-2 1v2zM284 171l-1 -1l-1 -2h2l2 -1v1l-2 3zM296 118l-1 -2h1l-1 -2l1 -2l2 2l-1 4h-1zM298 108l-1 -2h1l-1 -2l1 -4h1l1 3l-1 3v2h-1zM383 370v-1h-1v1h1zM384 409v-3h-1v2l1 1zM385 410l-1 1h-1v3h1l-1 2h1h1v5l-1 -1v-2h-1l1 6v1l-2 -1v2v17h-2l1 9l-1 1v-1h-1v2h1l-1 2v2l1 2l-2 2l1 2h-1l1 2v1h-2l1 3v2l-2 2l1 2h-1v5l-2 5v4l-1 2h1h1l-2 2l1 1h1l-1 1h-2l1 2v4h-1l1 2v1h-1l-2 1l-1 8h-1l1 2l-2 2v1l-1 3l-2 2v4h-2v2l-1 2h1v1h-2v3l-2 2h1l-2 2l-1 2l-1 4l-1 2l-2 2v2l-8 14l-2 2l-1 3h-2l-1 3l-11 13l-19 15l-8 6l-17 8l-5 2l-12 5l-64 16l-2 -1v1l-10 1l-2 1v-1l-2 1l-14 1l-2 1v-1l-18 -1l-16 -3l-4 -1l-10 -3l-2 -1l-2 -2l-2 -1l-7 -4l-7 -4v-2h-2l-7 -8l-3 -3l-8 -11l-7 -10l-5 -9l-1 -2l-3 -12l-1 -5l-1 -2h1l-1 -2v-10h1l-1 -2h1v-4l1 -2h-1l1 -2v-4l2 -5v-5h1l-1 -2v-1l1 -2l1 -3h1l-1 -2h1v-2l2 -2v-2h1l-1 -2h1v-2l5 -10l2 -2l9 -12l2 -1l9 -7l3 -2l2 -3l3 -1l7 -2l15 -4h23l6 1l11 4l4 1l9 7v1l2 3h2l2 3v1h2l2 5h2l1 4l3 2v4h2l1 4v2l1 4l2 18l1 2h-1v2h-1l1 2v2l-2 2h1l-1 2l-3 8l-1 2h-2l1 2l-1 1l-2 1h-1l1 1l-4 4l-4 2v1l-2 -1v1v1l-2 1l-7 2l-11 3h-11l-7 -2l-2 -1l-4 -2l-4 -4l-6 -10v-2l-2 -5v-3l2 -4l2 -5l3 -6l6 -3l3 -1v-1l2 1l2 1l2 2l1 4l-1 1l-2 1h-4h-2l-3 4l-1 3v8v2l5 9l1 1h2l2 2l6 1h10l12 -3l2 -2l3 -1l4 -2h1l2 -2l1 -2l3 -5l2 -4l1 -2l1 -6v-7l-2 -18l-2 -5l-4 -7l-1 -2l-13 -13h-2v-2l-9 -3l-8 -2l-3 -1l-2 -1v1l-2 -1l-15 2l-17 4l-5 2h-2l-5 4l-4 3h-2l-1 1v2l-7 7h-2l-2 5l-1 2h-2v2h-1l1 2l-2 2l-1 2l-6 16l-2 10l-1 4l-1 2h1l-1 2v15v3h-1l1 2v2l1 2h-1l1 2l2 6l3 7l8 15l1 2h2l1 2l2 4l7 8l1 2h2v2l4 3l2 2l4 3l12 6l13 6h3l2 1v-1l2 1l10 1l2 1v-1l2 1l31 -1l42 -8l13 -2l18 -6l6 -2l4 -1l2 -1l2 -2h2l2 -2l3 -1l4 -1l5 -4h2v-2l3 -1l23 -16l1 -1v-2l3 -2l3 -2v-2h2l11 -16l8 -14v-2l2 -2l1 -2l1 -4l1 -2l2 -2l1 -5h2v-3l2 -2v-3l5 -13l4 -16h1l-1 -2l1 -6l1 -2h-1l1 -2l1 -2l-1 -2h1l1 -4h-1l1 -2l1 -8h1l-1 -2l8 -66h-1l1 -2v-2h-1l1 -2l-1 -8h1l-1 -2v-2h1l-1 -2h1h1l-1 -1h-1v-3l2 -3h1v1l1 2h-1l1 2h-1l1 2h-1v4h1l-1 2v12h1l-1 2l1 2h-1v9h3l-1 1h-1v5l-1 1h1zM383 417v-1h-1v1h1zM380 425v-1h-1v1h1zM381 427v-1h-1v1h1zM372 489v-1h-1v1h1zM372 491v-1h-1v1h1zM382 432v-2h-1v1l1 1zM381 435v-1h-1v1h1zM378 438v-2h-1v1l1 1zM381 440v-2h-1v1l1 1zM378 440v-1h-1v1h1zM380 450v-1h-1v1h1zM376 466v-1h-1v1h1zM375 472v-2h-1v1l1 1zM374 478v-2h-1v1l1 1zM373 485v-1l-1 -1v1l1 1zM371 497v-1h-1v1h1zM-157 545v-1h-1v1h1zM-295 663v-1h-1v1h1zM-202 621v-1h-1v1h1zM-201 624v-1h-1v1h1zM-200 625v-1h-1v1h1zM-199 627v-1h-1v1h1zM-198 629v-1h-1v1h1zM-241 738v-1h-1v1h1zM-55 694v-1h-1v1h1zM243 368v-2h-1v1l1 1zM240 370v-2l-2 2h2zM236 372v-1h-1v1h1zM235 373v-1h-1v1h1zM233 374v-1h-1v1h1zM232 375v-1h-1v1h1zM230 376v-1h-1v1h1zM229 377v-1h-1v1h1zM228 378v-1h-1v1h1zM232 378v-1h-1v1h1zM224 380l1 -1h-1l-1 1h1zM223 381v-1h-1v1h1zM219 383v-1h-1v1h1zM216 385v-1h-1v1h1zM213 387v-1h-1v1h1zM291 328l-2 2v2l-19 17l-2 1v2l-43 32l-5 2l-5 4l-32 16l-32 12l-52 6l-19 1v1l-2 -1h-40v1l-2 -1v1l-2 -1h-16v-1l-2 1h-2v-1l-2 1v-1l-56 -2v1l-2 -1h-12l-2 1v-1l-2 1l-36 4v-1l-2 1h-12l-2 1v-1l-2 1l-32 2v1l-2 -1v1h-4l-2 1v-1h-2l-5 2h-1l-2 1v-1l-12 3l-15 6l-28 14l-5 2l-10 6l-6 4l-4 3l-4 2l-3 3l-18 22l-7 12l-1 2h-1l1 2h-1l-2 2l-1 2l-1 2h1l-1 1l-2 1v2l-12 26l-3 9l-4 29l-1 24l1 2h-1l1 2v4h1l-1 2h1l4 25l2 8v2l1 3l3 2v4l2 2h-1l1 2v2l1 2l2 2h-1l2 2v2l4 6l4 4l1 1l-1 1h1l1 1h1l2 5l3 2h1l-1 2l4 1v3l2 2l3 2l17 11l15 9h1l2 1v-1l2 1h1l11 3v-1l2 1h8h2l2 2h4l2 -1v1h20v-2h11h1l2 1v-1h10l21 -4l14 -4h2l3 -1v-1l2 1v-1h2l5 -3h1l2 -2l2 1l4 -3l2 1v-1l2 -1l4 -1l2 -1l2 -2h2v-1l2 1v-1l4 -1v-2l2 1v-1v-1h2v-1l2 -2h1v-2h1v1l1 -1l2 -4h1v1l3 -3h-1l1 -2l2 -4h2l2 -8h1h1l-1 -2h1v-3h2l1 -5l1 -2l1 -2h-1v-2h2l1 -4l1 -2h-1l1 -2h-1v-1h2l1 -5h-1v-1h2v-1l-1 -2h1h1l-1 -2h2l-1 -2h1l-1 -4l2 -2h-1v-2l2 1v-1v-2h-1l1 -2v-1v-8v-2l1 -9h1l-1 -2l1 -2h-1l-5 -41l-3 -13l-1 -2l-1 -2l-4 -7h-2v-1l-9 -9h-1v-1l-1 -2h-2l-2 -2h-2l-6 -4h-2v1l-1 -1l-1 -1v1l-2 -2h-2v1l-2 -1h-1l-2 1v-2h-7l-2 1v-1h-2l-5 1l-7 2l-13 4l-5 1l-2 1l-2 2h-3l-3 2l-5 2l-3 2l-4 2l-2 2h-2l-2 2l-4 2l-2 1v-1h-1v2l-1 1l-3 1l-9 7l-4 5l-2 3h-2v2l-4 5l-2 2h-1l-1 3v2l-4 5l1 2h-1h-1l1 2l-2 7v7l3 11l1 3l2 4v2l8 7l5 3l4 2h2l1 1l2 -1v1l5 -1l5 -1l4 -4h2v-1l2 -2h1v-2l2 -2l-1 -2h2v-2l-1 -2h1l-2 -2l1 -2h-1l1 -3l1 -2v1l1 -1l1 -1h-1v-1h2l3 -1l2 1l4 3l2 1v-1h1v3h-1l-1 1h1l-1 2l-1 5l-1 6l-1 5l-2 -1v1l-1 4h-2v2h-1l-5 4v2h-1l-2 2l-2 -1v1v1l-2 -1v2h-3l-3 2h-2v-1l-2 1l-7 -1l-8 -1l-5 -2l-6 -4v-2h-2l-6 -6l-4 -6l-2 -5v-3h1l-1 -1h-1l1 -2v-1v-1l-2 1v-4h1l-1 -1h-1v-5h1l-1 -2h1v-4l-1 -2h1v-2l-1 -2l2 -2l-1 -2v-2h2v-2l-1 -2h1v1l1 -1l1 -4h1l-1 -1v-2h2l8 -12l2 -4l2 -3l10 -10l3 -2l4 -2l11 -8l7 -4h2l3 -1l2 -2l2 -1l20 -8l6 -2l19 -4l15 -1v1l2 -1v1h6l4 2l5 2h3l2 2h1l5 3l7 5v2h1l7 6l7 9v1l2 2l1 3l1 5l2 4l1 12h1l-1 2h1l3 26l-1 2h1v2h-1l1 2l-1 24l1 2h-1l1 2l-2 10l-1 2h1l-1 2l-2 10l-10 27l-4 9l-3 6l-6 10h-1l-3 2v2l-1 1l-3 1l-7 6l-17 8l-38 14h-3l-2 1v-1l-2 1v-1l-2 1l-2 1v-1l-20 3h-10v1l-2 -1l-14 2l-2 -1v1h-16l-2 -1v1l-2 -1h-8v-1l-2 1v-1l-20 -2l-2 -2v1l-2 -1l-4 -1l-2 -2h-2l-1 -1v-2h-1v1l-1 -1l-1 -1v1h-1v-2h-3l-1 -2l-1 -1v1h-1v-2l-1 -1l-2 1v-2h-2l-2 -2v1l-1 -1l-1 -2l-3 -2l-4 -2l-3 -2l-10 -10l-4 -6l-2 -2h-1l-1 -2l-4 -7l-4 -7l-4 -10l-1 -2l-2 -2l1 -2l-2 -2l-1 -3l-1 -5l-2 -8l-4 -22l1 -5l2 -51l3 -14l1 -3v-1l1 -2h-1v-2l2 -2v-2l2 -2v-2l2 -2l-1 -2h1v-2h1h1l-1 -2h1v-2h2l3 -7v-3h2l2 -5l1 -1l1 -2h-1l1 -2h2l-1 -2h1h1l1 -2l8 -14l17 -21h2v-1l3 -3l2 -2l9 -7l11 -5l5 -3l7 -3h2l2 -2h2l2 -2l1 -1l11 -5l5 -3l15 -6l67 -8l19 -1l2 -1v1l2 -1h10l24 -3l2 1v-1l76 3l2 -1v1h54v-1l2 1v-1l2 1l26 -2v-1l2 1v-1h6l2 -1v1l10 -1v-1l2 1v-1l16 -2v-1l2 1v-1l16 -4l14 -6l9 -4l15 -8h2l2 -2h2l2 -2l4 -2l2 -1l2 -2h2v-2h2l4 -3l2 -1l12 -9l30 -23v-1l2 -3h2v-1l2 -2h1v-2h2v-2h2v-2l5 -2v-2l2 -1l2 -1l3 -2v2h-2v2h-1h-1l1 2h1zM289 329v-1h-1v1h1zM288 330v-1h-1v1h1zM286 332h1v-2h-1h-1l1 2zM285 333v-1l-1 -1l-1 1l1 1h1zM283 334v-1h-1v1h1zM282 335v-1h-1v1h1zM280 337l1 -1l-1 -1l-1 1l1 1zM279 338v-1h-1v1h1zM278 339v-1h-1v1h1zM277 340v-1h-1v1h1zM275 341v-1h-1v1h1zM274 343v-1l-1 -1v1l1 1zM272 344l1 -1h-1l-1 1h1zM270 346v-1h-1v1h1zM268 348l1 -2h-1l-1 1l1 1zM267 349v-1h-1v1h1zM266 350v-1h-1v1h1zM262 353l3 -3h-1l-2 2v1zM262 354v-1h-1v1h1zM260 355v-1h-1v1h1zM258 357l1 -1l-1 -1l-1 1l1 1zM256 358v-1h-2v1h2zM252 362l1 -2h-1h-2v2h2zM248 363l1 -1h-1l-1 1h1zM247 365v-1l-1 -1v1l1 1zM246 368v-1h-1v1h1zM74 84l1 -1h-1l-1 1h1zM77 84v-1h-1v1h1zM83 84v-1h-1v1h1zM129 113v-1h-1v1h1zM134 124v-1h-1v1h1zM124 174v-1h-1v1h1zM122 182v-2h-1v1l1 1zM159 292v-1h-1v1h1zM244 230v-1h-1v1h1zM241 234v-2h-1v1l1 1zM239 236v-1h-1v1h1zM244 238l1 -2l-1 -1h-2l-2 3h4zM238 238v-1h-1v1h1zM240 239v-1h-1v1h1zM239 242v-2l-1 -1v1l-1 2h1h1zM241 240v-1h-1v1h1zM236 243v-1h-1v1h1zM235 245v-1h-1v1h1zM237 246v-1h-1v1h1zM234 247v-1h-2v1h2zM232 248v-1h-1v1h1zM234 249v-1h-1v1h1zM229 251v-1h-1v1h1zM228 252v-1h-1v1h1zM224 256v-1h-1v1h1zM222 258v-2h-1v1l1 1zM216 262v-1h-1v1h1zM215 263v-1h-1v1h1zM209 268v-1h-1v1h1zM207 269v-1h-1v1h1zM203 272v-1h-1v1h1zM200 274v-1h-1v1h1zM198 275v-1h-1v1h1zM194 277v-1h-1v1h1zM192 278v-1h-1v1h1zM268 198v-2h-1v1l1 1zM266 201l1 -1v-2h-1l-1 2l1 1zM262 207l2 -3l1 -2l-1 -1l-1 1l-1 3v2zM261 209v-1h-1v1h1zM260 211v-1l-1 -1v1l1 1zM259 212v-1h-1v1h1zM257 215v-1h-1v1h1zM253 218v-1h-1v1h1zM254 219v-1h-1v1h1zM251 220v-1h-1v1h1zM253 220v-1h-1v1h1zM252 222v-1h-1v1h1zM251 223v-1h-1v1h1zM247 225v-1h-1v1h1zM251 229v1l-2 2v2h-2l-2 4l-1 2h-2l-4 6l-2 2h-1v2l-3 2h-1v2l-7 6h-1v2l-6 3v1l-1 2l-6 4h-2v2h-2l-4 3l-1 1l-25 12l-24 10l-17 4h-1l-2 1v-1l-8 1l-2 1v-1l-2 1h-41l-27 -6l-20 -8l-4 -1l-17 -7l-12 -6l-13 -8l-14 -11l-2 -3v-1h-2v-2h-2v-1l-2 -2l-2 -2l-1 -2l-3 -3l-1 -3l-2 -2l-1 -4l-2 -2v-4l-2 -2l-1 -6h1l-1 -2l-1 -26h1l-1 -2h1l1 -10h1l-1 -2l2 -2h-1l1 -2v-2l2 -6l1 -2l2 -2l1 -3l6 -15l2 -4v-2l2 -2v-2l3 -2l1 -2l1 -2l11 -16l14 -11l6 -5l22 -11l6 -3l2 -1v1l2 -2h2l7 -3l11 -3l4 -1v-1l2 1v-1l16 -2v1l2 -1l14 2l6 3l4 1l6 4l2 1v2h2l5 5l1 4l2 2l1 2l1 2v2h1l-1 2h2v2h-1l1 1h1l1 4l2 5h1l-1 2l2 2h1v4l2 2v4h1l-1 2l1 3l3 17l-1 2h1l-1 17v5l-6 18l-4 13l-3 5l-5 8l-11 14l-11 5l-10 3l-10 2h-11l-4 -1l-2 -1l-3 -1l-11 -8v-2h-1l-2 -1l-4 -6l-3 -8l-2 -7l-1 -11h2v-2l1 -2h-1v-1l4 -1v-2l2 1v-1l5 1v2v11l3 8v2l3 4l9 10l5 2l4 2h3l2 -1v1l2 -1l3 -1l8 -2h3l2 -2l4 -1l8 -7l8 -12l5 -12l-1 -2v-2l2 1v-1v-1v-7l1 -2l1 -1v1h1l-1 -4l2 -2l-1 -2v-1l2 -3v-10l-1 -2v-2l-1 -14l-1 -2h1l-2 -2l1 -2h-1l-1 -5v-3l-7 -18l-1 -2l-2 -2h-1v-3h-1l-2 -1v-2l-8 -5l-6 -3l-3 -2h-3l-2 -1v1l-2 -1h-12l-2 -1v1h-2l-6 -1l-12 4l-6 2l-2 -1v1v1l-4 1l-2 1v-1h-1v2l-5 1l-2 2l-4 1l-2 2l-2 1l-5 3l-7 4l-4 5l-2 -1v2h-2l-2 2v2l-4 3h-1v3l-1 1h-2l-1 1l-1 2l-4 7l-9 17l-4 9l-5 14l-2 8l-2 13h-1l1 2v2l-1 2h1v2l-1 2h1v9l2 9l1 2h-1l1 2l1 4l2 2v2l2 2l2 2l5 8l9 6l2 2l3 1v2l2 1l12 8l55 22l19 4l8 2h11l2 1v-1l2 1h8l2 -1v1l2 -1l27 -2l21 -6l10 -4l13 -6l1 -1l2 -2h2l2 -2l2 -1l6 -3l10 -6l2 -1v-2l3 -2l5 -3l2 -2l3 -3v-1h1l7 -7v-1h2l4 -7h2l1 -3l6 -8l2 -3l1 -2h2l5 -10h2v-2l3 -4v-2l3 -2l1 -4l2 -1v1h1v2l2 -2v-1l4 -5v-2h1v-2h1v-2l2 -2v-1l2 -1v-2h2l-1 2l-15 26l-4 6l-2 2v2h-2l1 2h-1h-1l-2 4l-1 2h-2l1 2h-2v2h-1h-1l1 2l-2 2v1l2 -2h1zM245 229v-1h-1v1h1zM247 229v-1h-1v1h1zM247 231v-1h-1v1h1zM248 232v-1h-1v1h1zM245 234v-2h-1v1l1 1zM247 234v-1h-1v1h1z"/></g><g class="f live" data-f="1" fill="var(--live,#000)" fill-rule="evenodd"><path class="chunk" data-i="0" d="M387 365v-1l-1 -2l2 -1v-4l1 1v8v-1h-1h-1zM390 357l-2 -1l-3 -7l1 -1l1 2l1 5h1v-3l1 1l1 4h-1zM389 351l-2 -2l-3 -6h1l2 1l2 6v1zM312 309v-2l2 -2l1 1v2l-1 -1v1h-1v1h-1zM297 327l4 -2l-2 2l-1 1v1l-2 2h-1l2 -3v-1zM300 323l-2 2v-1l2 -2l-1 -1l2 -2l6 -5v-1h1v1v1l-2 2h-1v1l-2 3l-3 2zM320 302l1 -1h1h1l-5 4v1l-1 1h-1v-4l1 1l1 -1l1 -1v1l1 -1zM393 210v2l-3 2l-1 2v1l-2 -1l1 -1v-1l2 -2l-1 -1l2 -2v1h1h1zM395 208h-2l-2 -1l1 -1h1l1 -3l2 -1v-1v-1l1 1v3l-2 4zM399 195l-1 -1v-2v-1l2 1h2l-1 2h-1l-1 1z"/><path class="chunk" data-i="1" d="M268 197v-2l2 -2l2 2l-1 1l-2 2l1 -1h-1h-1zM273 193h-2l1 -2l-1 -1v-1h2l1 2l-1 2zM277 188h-1l-1 1h-1v-2l-1 -1h1h1l2 1v1zM279 183h-4l1 -1h1v-2l3 -3v1l1 2h-1l-1 1v2zM285 172l-1 -1l-1 -2h2l1 -1l1 1v1l-2 2zM296 118l-2 -2l1 -1l-1 -1v-2l2 -1l1 2l-1 4v1zM298 107l-2 -2l1 -1l-1 -1l1 -4v-1l1 1v3v3v2zM388 372v-1h-1v1h1zM383 407v-1l-1 -1v2h1zM384 408l-1 1h-1l-1 2h1l-1 1v1h2v4l-1 -1v-2l-1 1v5v1l-1 -1v1v1v20l-1 1l1 9v1l-1 -1h-1v1l1 1v1v3l1 1l-2 1v1l1 1l-1 1h1v1l-2 1v2l1 2l-2 2l1 1l-2 1v4l-2 6v6l-2 1l1 1h1l1 1l-3 2l1 1h2l-1 2h-2h-1l1 2v5v1l1 2l-1 1l-1 1l-1 1v8l-1 1l1 1l-2 2v1v3l-1 1v3h-2v2l-1 1l1 1v1h-1v2l-2 2l1 1l-3 2v2l-2 4l-1 3l-3 2v2l-8 12l-2 3l-1 2h-1l-1 3l-9 14l-20 17l-8 5l-16 8l-6 2l-16 6l-68 8l-1 -1l-1 2l-9 2l-1 1l-1 -1v1l-12 3h-2h-17l-16 -2l-4 -2l-9 -4l-2 -1l-2 -2h-1l-7 -4l-8 -5l-1 -1h-1l-10 -9l-4 -4l-9 -13l-4 -9l-2 -6l-1 -1l-2 -11l-1 -6l-1 -1l1 -2l-1 -1l-1 -11l1 -1l-1 -1v-2v-3l1 -1l-2 -1l1 -1v-4v-3v-4l1 -1l-1 -1v-1l1 -2v-2l1 -1l-1 -1l1 -1v-3l2 -2v-1l1 -1l-1 -2l1 -1l1 -2l5 -11l2 -3l8 -11l2 -1l7 -7l3 -2l3 -3l3 -1l9 -3l19 -2l22 2h5l10 2l4 1l9 4l1 1l2 2h1l2 3v1l2 1l1 4l2 1v4l3 3l-1 3l2 1v3l1 2l1 4l3 21l2 2l-1 1v1l-1 1l1 2v2l-2 2l2 2l-1 2l-2 8l-1 2h-1h-1l2 1l-2 1l-1 1h-1l1 1l-3 4l-4 1l-1 1l-1 -1l-1 1v1l-2 1l-9 3l-14 3l-10 -1l-7 -4l-1 -1l-5 -4l-3 -4l-7 -10l-1 -1l-1 -5v-3l1 -5l2 -5l3 -6l7 -3h3l1 -1l1 1l3 1l2 1l1 4l-2 1h-2h-5l-1 1l-4 3l-2 3l1 8l1 2l5 9l1 2h1l2 2l6 2l10 1l15 -3l2 -2h3l5 -1h1l1 -2l1 -2l2 -5l2 -4v-2v-7l-1 -9l-2 -19l-2 -5l-2 -8v-2l-13 -13h-1l-1 -1l-9 -1l-6 -1h-3h-1h-1l-13 1l-22 5l-6 2l-3 1l-6 4l-2 3h-2l-2 1l1 1l-7 6h-1l-2 5l-1 2h-2v1l-1 2l1 1l-2 2l-1 3l-7 17l-1 8v4h-1l1 1l-1 1l3 16v2l-1 2l1 1v3l1 1l-1 1l1 1l2 6l1 6l4 12l1 2l1 1l1 2l2 4l9 11l2 2l2 1v1l5 4l3 2l5 3l10 6l12 5l4 1l1 1l1 -1l2 1l12 1l1 1l1 -1l1 1l25 -6l46 -7h11l18 -4l7 -2l5 -2l4 -1l2 -2h3l2 -2l3 -1l4 -1l5 -3h2v-1l2 -1l25 -17l1 -2v-1l3 -3h1l2 -3v-2h2l8 -13l8 -14v-2l3 -2l1 -3l2 -4v-3l3 -2l1 -4h1v-3l2 -2v-2l3 -13l2 -20l1 -2l-1 -1l1 -8l1 -2l-1 -1l1 -1l2 -3l-2 -1h2l1 -3l-1 -1l1 -1l1 -6l1 -1h-1l11 -62h-1l1 -1l1 -2l-1 -1l1 -1v-8l1 -2l-1 -1v-2l1 -2l-1 -1h1l2 -1l-1 -1h-1v-4l2 -3h1v2l1 1l-1 1l1 1l-1 2l1 1l-1 1l-1 4l1 1l-1 1l-2 13h1l-1 1v1l1 1l-2 1l-1 5h3l-1 1h-1l-1 3l-1 1h1zM381 413h-1h1zM378 421v-1h-1v1h1zM379 423v-1h-1v1h1zM370 487v-1l-1 -1v2h1zM370 490v-2h-1v1l1 1zM380 429v-2h-1v1l1 1zM379 433v-2h-1v2h1zM376 436v-1l-1 -1v1l1 1zM379 439v-2l-1 -1v2l1 1zM377 439l-1 -1v1h1zM379 450v-1h-1v1h1zM376 464v-1h-2v1h2zM374 468v-1h-1v1h1zM373 474v-1l-1 -1v1l1 1zM372 482v-2l-1 -1v2l1 1zM369 498v-2h-1v2h1zM-160 540v-1h-1v1h1zM-294 663v-1h-1v1h1zM-201 621v-1h-1v1h1zM-199 624v-1h-1v1h1zM-198 625v-1h-1v1h1zM-197 626l-1 -1v1h1zM-196 628l-1 -1v1h1zM-242 736v-1h-1v1h1zM-52 696v-1h-1v1h1zM246 371v-2h-2v1l2 1zM242 373v-2h-1l-2 2h1h2zM237 375v-1h-1v1h1zM236 376v-1h-1v1h1zM234 376h-2l1 1l1 -1zM233 377h-2h1h1zM231 378v-1h-2l1 1h1zM230 379v-1h-1v1h1zM229 380v-1h-1v1h1zM233 380v-1h-1v1h1zM226 381v-1h-2v1h2zM224 382v-1h-1v1h1zM221 383h-1h-1h1h1zM218 385v-1h-1v1h1zM215 387v-1h-1v1h1zM295 331l-2 3l-1 1l-19 14l-1 2v1l-45 32l-4 2l-6 4l-33 18l-34 8l-51 7l-20 -1l-1 1l-1 -1l-34 5l-1 1l-1 -1l-1 1h-1l-21 1h-1h-1h-3h-1h-1l-1 -1l-58 -11l-1 1l-1 -1l-11 1l-1 1v-1l-1 2l-32 10l-1 -1l-2 1h-14l-1 1l-1 -1l-1 1h-31l-1 1l-1 -2l-2 2l-5 -1l-1 2l-1 -2h-2l-6 2h-2l-1 1l-1 -1l-12 2l-15 3l-27 15l-4 3l-9 5l-7 4l-4 2l-4 1l-4 3l-17 25l-8 11l-1 2l-1 1l1 1h-1h-1l-2 1l-1 3l-1 1l1 2h-1h-1l-2 1l-1 2l-9 29l-2 8l-2 32l-1 27l1 1h-1l1 1v3h1l-1 1l1 1l3 21l2 9l1 3l1 2l2 3v3l2 2l-1 1l1 1v2l1 1l1 2v1l1 1v2l3 7l3 4l2 2h-1v1h1v1l2 1l3 5l3 3l1 1h1l-1 1v1l4 2l1 2l4 2l3 2l15 8l12 7h2l1 1l1 -1l1 1l1 1l12 3l1 -1l1 1l9 1l2 -1l1 2h4l1 -1l1 1l16 1l1 -2h13l2 -1l1 2l1 -2h13l22 -1l11 -2h2l3 -1l1 -1l1 1l1 -1h2l6 -2l1 -1l3 -2l1 1l6 -4l1 1l1 -1l2 -1l4 -3l3 -1l1 -2h1l1 -1h1l1 -1l2 -1l1 -1v-1l1 1v-2h2v-1l1 -1l2 -1v-1l1 1l1 -1l2 -3h1v1l3 -3v-1h1l3 -5h1l4 -9h1l1 -1l-1 -1l1 -1v-2l2 -1l1 -6l1 -2l1 -2h-1v-2h1l1 -4l1 -1l-1 -1h1l-1 -1l1 -1l1 -3h-1v-1h2v-1h-1v-1h1h1l-2 -1h1h1v-1h-1l1 -1l-1 -3l2 -2h-1v-1v-1l2 1v-2l-1 -1l1 -2v-1v-10l-1 -2v-11l1 -1l-1 -2v-1l1 -1l-1 -1l-6 -41l-2 -15v-3l-2 -2l-3 -6h-2v-1l-8 -6h-1l-2 -1h-1l-2 -2h-1l-5 -3h-2v1l-1 -1v-1v-1l-1 1l-2 -2h-2l-1 1l-1 -1h-1h-2l-1 -2l-10 -1l-1 1l-2 -1h-2l-6 1l-9 1l-13 4l-4 1h-2l-1 2h-3h-2l-5 2l-4 1l-5 2l-2 2h-2l-2 2l-4 2l-1 2l-1 -2l-1 1v1l-1 2l-2 2l-7 7l-4 5v1l-3 2h-2l-1 1l-4 5l-2 2h-1l-2 2l-1 3l-4 6l1 2h-1l-1 1l1 1v10l1 9l3 11l2 3l2 3l1 2l7 8l5 4l4 1l3 2h1l1 -1l1 1h6l6 -1l5 -4l2 -1v-1l2 -2h1l1 -3l2 -2l-1 -1l1 -1h1v-2l-1 -2l1 -1l-2 -3l1 -1l-2 -1l1 -3l1 -2l1 1v-1l1 -1h-1v-1h2l3 -1l2 1l3 3h1l1 1l1 -1v1v2h-1v1v1v1l-1 5l-2 7l-1 5h-1l-2 5h-1l-1 2h-1l-5 4l-1 1l-1 1l-3 1h-1v1h-1l-1 -1v1l-1 1h-2l-3 1l-2 1l-1 -1l-1 1h-7l-8 -2l-5 -2l-6 -4v-2l-1 -1l-7 -7l-4 -6l-2 -4l-1 -2l1 -1l-1 -1h-1v-1v-2l-1 1l-1 -1l-1 -3h1v-1h-2l-1 -5l1 -1l-1 -1l1 -1l-1 -5l-1 -1l1 -1v-3l-1 -1l1 -3l-1 -3v-2l2 -1l-1 -2v-2l1 1l1 -1v-5l1 -1h-1l1 -2l1 -1l10 -10l4 -3l2 -2l10 -10l2 -2l4 -4l11 -8l8 -3l2 -1h3l2 -2h3l16 -8l5 -3l21 -4l19 1l2 1h1l1 1l6 2l4 2l4 3l2 1l2 2h1l4 3l7 3v1h2l6 3l6 7v1l2 2v3l1 6v4v14l1 1l-1 1l1 1l8 27l-1 1l1 1v1v1l1 1l3 28l1 1l-1 1l1 1l-3 11l-1 1l-1 1l-4 8l-9 27l-4 10l-4 7l-8 7h-1l-3 2v1l-2 1l-2 1l-6 6l-13 12l-40 13l-3 1l-1 1l-1 -1l-1 1v-1l-1 1l-1 1l-1 1l-1 -1l-21 3h-12l-1 1l-1 -2h-17l-1 -1l-1 1l-15 -3l-1 -1l-1 1l-1 -1l-8 -1h-1h-1h-1l-20 -1l-2 -2l-1 1l-1 -1l-3 -1l-2 -2h-1l-1 -1v-1l-1 -1v1h-1v-1v-1l-1 1v-1h-2v-2v-1h-1v1l-1 -1v-1l-1 -1v1h-1v-2h-1l-2 -1v1l-1 -1v-1l-1 -1l-3 -1l-5 -2l-3 -1l-15 -12l-5 -7l-1 -3h-2l-1 -3l-4 -8l-3 -6l-3 -8v-2l-2 -1l1 -1l-2 -2l-1 -3l-1 -5l-2 -9l-2 -21l1 -4l-3 -56l2 -13l2 -2v-1l1 -1l-1 -1v-1l2 -1l-1 -2l2 -2v-3l2 -2l-1 -2v-1v-1l2 -1l-1 -1l1 -2v-1l1 -1l3 -8v-3l2 -1l3 -5l1 -2l1 -1l-1 -1l2 -1h1h1l-1 -1v-1h2l1 -2l10 -12l15 -23h2v-1l3 -2l4 -2l10 -5l11 -6l4 -3l6 -4l1 -1l2 -2h2l2 -3h1l12 -5l5 -1l13 -5l71 -3l23 -1l1 -1l1 1l1 -1l11 -3l18 -8v1l1 -2l80 12l1 -1l1 1l51 -6l1 -1l1 1l1 -1l1 1h28l1 -1l1 1v-1h5v-1l1 1l7 -1l1 -2v2l1 -2l17 -2l1 -2l2 2l1 -2l20 -3l13 -3l8 -3l16 -9l2 -1l2 -2l2 -1l2 -2l5 -2l1 -1l2 -1h2v-2h2l3 -2l2 -1l14 -7l31 -25v-1l2 -2h1l1 -1l1 -1h1l1 -1l2 -1v-1l2 -1l1 -1l5 -3v-1l2 -2l3 -2l2 -2v2h-1l-1 2h-1l-1 1l1 1h1zM293 332v-1l-1 1v1l1 -1zM292 333h-1v1l1 -1zM290 335v-1h-1h-1l2 1zM288 336v-1l-2 1l1 1l1 -1zM286 338v-1h-1v1h1zM285 339v-1h-1v1h1zM282 340l2 -1h-1l-1 1zM282 341v-1l-1 1h1zM280 342l1 -1h-1v1zM279 343l1 -1h-1v1zM278 344v-1h-1v1h1zM277 345v-1h-1l1 1zM275 346l1 -1h-2v1h1zM273 347h-1h1zM271 349l1 -1v-1l-1 1v1zM271 350v-1h-1v1h1zM270 350h-1h1zM267 353l2 -2h-1l-1 1v1zM267 354v-1h-1v1h1zM265 355v-1h-1v1h1zM263 357l1 -1v-1l-1 1v1zM261 359v-1h-1l-1 1h2zM256 363l2 -1l-1 -1l-2 1v1h1zM253 365v-1h-2v1h2zM251 367v-1l-2 -1l1 1l1 1zM250 370v-1h-2v1h2zM75 88l1 -1l-2 1v1l1 -1zM78 88v-1h-1v1h1zM85 87v-1h-1v1h1zM125 112v-1h-1v1h1zM131 123v-1h-1v1h1zM126 179v-1h-1v1h1zM124 186v-1h-1l1 1zM162 292h-1h1zM247 232v-1h-1v1h1zM244 236v-1h-1l1 1zM241 238h-1v1l1 -1zM246 239l2 -2l-2 -1l-1 1l-3 3h1l3 -1zM240 240h-1v1l1 -1zM242 241v-1h-1v1h1zM240 243l1 -1l-1 -1v2l-1 1l1 -1zM243 241h-1v1l1 -1zM237 245v-1h-1v1h1zM236 247v-1h-1v1h1zM238 247v-1l-1 1h1zM234 249l1 -1h-2l-1 1h2zM232 249h-1v1l1 -1zM234 250v-1h-1v1h1zM229 252v-1h-1v1h1zM228 253v-1h-1v1h1zM224 256v-1h-1v1h1zM222 257v-1h-1l1 1zM217 261v-1v1zM217 262v-1h-1v1h1zM212 267v-1h-1v1h1zM211 269v-1h-1v1h1zM207 272v-1l-1 1v1l1 -1zM204 275v-1h-1v1h1zM202 276v-1h-1v1h1zM198 279v-1h-1v1h1zM195 280l1 -1h-1l-1 1h1zM269 203v-2l-1 -1v2l1 1zM266 206l2 -2v-1l-2 2v1zM262 211l2 -2l2 -3h-1l-2 1l-1 3v1zM261 213v-1h-1v1h1zM260 215v-2h-1v1l1 1zM259 215h-1h1zM257 218v-1h-1l1 1zM254 220v-1h-1v1h1zM255 221v-1h-1v1h1zM252 222v-1v1zM254 222v-1h-1v1h1zM254 223h-1h1zM253 224v-1l-1 1h1zM249 227v-1h-1v1h1zM253 229v1l-2 3v1l-1 1l-3 4l-1 2h-2l-5 6l-2 2h-1l-1 1l-3 2h-1v1l-7 5l-1 1v1l-5 3v2l-1 1l-4 5l-2 1v1l-2 1l-3 4h-2l-25 13l-24 10l-22 6h-1l-1 1l-1 -1l-8 1l-1 1l-1 -1v1l-46 -7l-20 -6l-19 -1l-4 -1l-19 -6l-13 -9l-16 -11l-15 -10l-1 -3v-1l-1 -1v-2h-1v-2l-1 -1h-1l-1 -2v-2l-2 -4l-1 -2l-2 -2l-1 -5l-2 -1v-3l-2 -1l-2 -4l1 -1h-1l-3 -25l1 -1l-1 -2l1 -1l2 -12l1 -1l-1 -1l2 -3l-1 -1l1 -1l1 -3l2 -6v-2l2 -1l1 -2l4 -13l1 -5v-2l2 -2v-2l3 -4l1 -2l1 -3l13 -15l11 -11l6 -6l24 -11l7 -2h1l2 1l2 -2h1l7 -1l12 -2h4l1 -1l1 1l1 -1l17 -3l1 2l1 -2l15 1l6 1h4l5 2l2 1v2h1l4 5v3l1 3v3l1 2v2l1 1l-1 1v1h1v1l-1 1l1 1h1v4l3 5l1 1l-1 1v1l2 1l1 1l1 3l2 2l1 4l2 1l-1 1l2 4l6 20v1l1 1l-1 17l-1 5l-8 16l-5 11l-2 4l-5 10l-11 16l-11 5l-8 3l-9 1h-11l-5 -1l-2 -1l-4 -2l-13 -9l-1 -1h-1l-2 -2l-3 -6l-4 -8l-2 -8l-1 -12h2v-2l1 -1l-1 -1l1 -1l3 -1v-1l1 -1l1 1l1 -1l4 2v2l1 13l2 9l1 2l3 5l10 8l5 3l5 1l4 1l1 -1l1 1l1 -1h3l9 -1h4l2 -2l4 -1l9 -9l7 -14l3 -9v-2v-1h1l1 -1l-1 -5l1 -3l2 1v-1l-1 -3l2 -3l-1 -1v-1l2 -4l-1 -13v-2l-2 -3l-2 -17l-2 -1l1 -1l-2 -2l1 -1l-1 -1l-1 -4l-1 -3l-4 -16v-3l-1 -2h-1v-3h-1l-1 -1v-2l-7 -5l-7 -2h-3h-4h-1l-2 1l-1 -1l-14 2l-1 -1l-1 1h-1h-6l-11 1l-6 1l-2 -1v2h-5l-1 1l-2 -1v2l-6 1l-3 2l-5 1l-2 2l-4 1l-5 3l-6 5l-4 5l-1 -1h-1v2h-1l-2 2v1l-3 3h-1l-1 2l-1 1h-1l-2 1l-1 2l-6 7l-8 19l-2 8l-4 13l-1 9l-2 16l-1 1l1 1v4l-1 1l1 1v2l-1 1h1l1 7l2 6h1l-1 1l1 1v3l2 1l-1 2l2 2l1 2l2 9l7 6l3 2l3 2l1 1l2 1l16 9l56 21l15 3l8 2l13 3l1 1h1l2 1l9 2l1 -1l1 1l1 -1l27 -3l24 -7l10 -3l14 -4l1 -1l3 -2h2l2 -2l2 -1l7 -5l8 -7l2 -2v-1l2 -2l4 -3l2 -1l2 -2l1 -1h1l7 -5v-1l2 -1l6 -7l1 -1l2 -2l6 -9l1 -3l1 -1l1 -1l4 -8h2v-2l3 -3v-2l4 -3l1 -3l2 -2v1h1v2h1l2 -1l1 -2l3 -6l1 -3l1 -1v-1l1 -1v-2l2 -2v-1l1 -2v-1h2l-1 1l-16 30l-5 6l-1 1l-1 2h-1h-1l1 1l-1 1l-2 3l-1 1h-1v1l1 1h-2v2h-1l-1 1h1l-2 2v1l1 1l2 -3zM248 231v-1h-1v1h1zM249 230v-1v1zM250 232v-1h-1v1h1zM251 233l-1 -1v1h1zM248 235v-1h-1l1 1zM250 235v-1h-1v1h1z"/></g><g class="f live" data-f="2" fill="var(--live,#000)" fill-rule="evenodd"><path class="chunk" data-i="0" d="M384 367l-1 -1v-1l2 -1v-2h1l-1 5h-1zM388 361h-2l-1 -7v-1l2 2v5l1 -1v-2h1v4h-1zM389 355l-2 -1l-1 -8l1 -1l1 2l1 7v1zM314 305v-2l3 -3h1l-1 3v-1l-1 1l-1 1l-1 1zM293 322l4 -1v1l-1 1h-2v1l-2 2h-1v-1l2 -2v-1zM297 319l-3 1h-1l3 -2l-2 -1h1l2 -1l9 -5l1 -1h2l-1 1v1l-3 2h-2v2l-3 2l-3 1zM321 295l2 -1v-1l1 1l-3 5v1l-2 2v-1l-1 -4h1h1v-2l1 1v-1zM394 206v2l-1 2l-1 4l-1 -1v-2l1 -1l1 -2l-1 -1l2 -2v1zM396 204h-1l-1 -2h1l1 -3h1v-1v-1l1 1l-1 2l-1 4zM400 193l-1 -1v-1l1 -1l1 1h1v1h-1l-1 1z"/><path class="chunk" data-i="1" d="M269 191v-1l2 -1l1 1l-1 1l-1 1l-1 -1zM272 189h-1v-1h1l-1 -1h1h1h1l-2 2zM276 185l-1 1h-1v-1h-1h1l1 -1v1h1zM279 183h-3v-1h2v-1l3 -2v1v1l-2 1v1zM288 174l-1 -1v-1h2l1 -1h1v1l-3 2zM297 121l-2 -2l1 -1l-1 -1l1 -2l3 1l-1 4l-1 1zM299 111l-3 -2l2 -1l-2 -1l1 -5h2l1 3v4l-1 1v1zM383 370h-1h1zM384 409v-3l-1 -1v3l1 1zM384 410v1h-1v3h1l-1 1v1h1v4h-1v-2v5v1l-1 -1v1l-2 15h-2v11v1l-1 -2l-1 1v1l1 2l-1 1v4l1 2l-2 2v2l1 1l-1 1l1 2v1l-2 1v3l1 4l-2 2l1 1l-1 1v4v4l1 4l-1 1h1h1v1l-1 1v1h2h-2l-1 1l2 1v3v1l1 1v1l-1 1l-2 1v8l-1 1l1 1l-2 2v2l-1 4l-2 2l-1 4h-1l-1 2l-1 1l1 1l-1 1h-1v2l-3 2l1 1l-2 1l-1 2l-1 3l-1 2l-2 2v2l-6 15l-2 3l-1 2l-2 1l-2 2l-13 10l-18 15l-8 7l-18 9l-5 2l-10 5l-68 16l-1 -2l-1 1l-9 -1l-2 2l-1 -2l-1 1h-18l-1 1l-1 -1l-17 -1h-11h-3l-9 -1h-3l-2 -2h-2l-9 -4l-8 -6v-1l-2 -1l-8 -9l-2 -3l-10 -11l-9 -12l-6 -13l-1 -2l-1 -12l1 -5l1 -1l-1 -1l3 -6l1 -1h-1l1 -1l1 -3l1 -1l-1 -1l2 -1l1 -4l1 -6v-5l1 -1l-1 -1l1 -2v-3l1 -3l1 -1l-2 -1l1 -1v-2l2 -2l-1 -1l1 -1l-1 -1l1 -1v-2l3 -7l2 -3l11 -10l2 -2l10 -9l3 -1l2 -3l2 -1l6 -2l14 -3l25 -3h6l8 3l3 2l5 8v1l2 2h1l3 3v1l1 1l4 4l2 1l2 3l4 4l1 4h2l1 5l1 2l2 5l4 18v1v1v1l-1 1h1v2l-2 2l1 1v1l-4 9l-1 2h-1v1l-1 2l-2 1l-1 1h1l-4 4l-4 2h-1h-1h-1v1l-2 1l-6 2l-10 3l-12 1l-9 -2h-2l-6 -3l-4 -5l-6 -14v-2l-1 -6v-3l2 -4l1 -4l3 -5l5 -4h2v-1l1 1l2 1l2 1v5l-1 2h-1h-3h-1l-3 3l-1 3v9l1 2l5 11l2 2h1l3 3l7 1h11l13 -2l2 -2h3l4 -2l2 -1l2 -1l1 -2l4 -6l2 -4l1 -2l1 -6l-1 -7l-7 -21l-4 -5l-6 -8v-1l-12 -13l-1 -2l-5 -4l-7 -2h-4l-1 -1l-1 1l-1 -1l-18 2l-15 4l-4 2l-2 1l-4 4l-3 3l-2 1l-1 2v1l-9 8h-1l-4 4v2h-2v1l-1 1l1 1l-2 1l-1 3l-5 16l-2 12l-1 5l-1 1l1 1l-1 1l-4 10v2l-2 1h1l-1 2l1 1l-1 1l1 1v6l3 8l11 19l1 2l2 1l1 2l2 3l8 10l1 2h2v2l4 4l4 2l5 4l14 6l11 2h2h1l1 -1v1l7 -2l1 1l1 -1v1l36 -1l41 1l17 -4l19 -7l5 -2l3 -1l2 -1l2 -1h2l2 -2h3l4 -2l6 -3l1 -1l1 -2l3 -1l20 -19l1 -1l3 -2h1l4 -2v-1l2 -1l13 -15l5 -16l1 -1l1 -2l1 -3l1 -3l1 -3l2 -1l2 -4l2 -1v-3l2 -2l1 -2l5 -15l1 -14v-1l-1 -1v-6l1 -1l-2 -1l1 -1l1 -3l-1 -1l1 -1v-4l-1 -1l1 -1l1 -11l1 -1l-1 -1l12 -68l-1 -1l1 -2v-2l-1 -1l1 -1l-1 -7l1 -1h-1v-2h1l-1 -1h1h1v-1h-2v-2l3 -2h1v1l1 1h-1l1 1l-2 1h2l-2 1v2h1l-1 1v11l1 1l-1 1v1l1 2l-1 1v10h2v1h-1v6h-1v1zM383 417v-1h-1v1h1zM380 423h-1h1zM381 425v-1h-1v1h1zM371 492v-1h-1v1h1zM372 493l-1 -1v1h1zM381 429v-1l-1 -1v1l1 1zM380 431v-1h-1v1h1zM377 434v-2h-1v1l1 1zM379 436v-2l-1 1l1 1zM376 436l1 -1h-1l-1 1h1zM377 447v-1h-1v1h1zM372 468v-1h-1v1h1zM372 475l-1 -1l-1 -1v1l2 1zM371 482v-2h-1v1l1 1zM372 488l-1 -1l-1 -1v1l2 1zM372 498v-1l-1 1h1zM-159 546l-1 -1h-1l1 1h1zM-299 658l1 -1h-1l-1 1h1zM-202 625v-1h-1v1h1zM-201 629v-1h-1v1h1zM-199 630v-1h-2v1h2zM-198 632v-1h-1v1h1zM-197 634v-1h-1v1h1zM-240 735v-1h-1v1h1zM-58 690v-1l-1 1v1l1 -1zM243 368v-1v-1v1v1zM241 371v-2l-1 2h1zM238 374v-2v1v1zM238 375v-1h-1v1h1zM236 376v-1v1zM235 377l1 -1h-1v2v-1zM234 379v-1h-1v1h1zM233 380v-1h-1v1h1zM232 381v-1h-1v1h1zM235 381v-1h-1v1h1zM229 384v-1h-1v1h1zM227 385l1 -1h-1l-1 1h1zM223 387v-1h-1v1h1zM220 389v-1h-1v1h1zM216 390v-1h-1v1h1zM291 326l-3 2v2l-17 21l-2 1v1l-40 34l-5 2l-6 3l-31 18l-36 11l-57 1l-15 1l-1 1l-1 -1l-39 2l-1 1l-1 -1l-1 1l-1 -1l-12 1l-1 -1v1h-2l-1 -1l-1 1l-1 -1l-61 -2h-1l-1 -1l-12 -2l-1 1l-1 -1l-1 1l-37 4v-1l-1 1l-9 2l-1 1v-1l-1 1l-36 4l-1 1l-1 -1l-1 1h-4l-1 1l-1 -1l-1 1l-4 1h-2l-1 1v-1l-12 3l-18 7l-28 11l-6 2l-13 6l-7 5l-3 3l-3 2l-2 3l-17 20l-8 13l-1 2l-1 1l1 1h-1h-1l-1 2l-1 3h-1l1 2h-1l-1 1v1l-11 28l-3 12l-3 26l2 24l1 1v1l1 1v5l1 1l-1 1l1 1l-1 20v6l1 2v2l3 4l-1 3l3 3l-2 1l1 2l1 3l1 2l3 3l-2 2l3 2l1 2l5 9l6 3l2 1l-2 1h1h1v1l2 1l3 4l2 2h1h1l-1 1v1l3 1v2l2 2l3 2l15 10l13 6h2v1l1 -1l1 1h1l7 3l1 -1l1 1l9 1h2l3 2l7 1l1 -1l1 1l24 2v-2l10 1h1l1 1l1 -1h8l24 -4l15 -6l2 -2l2 -1l1 -1v1l1 -2h1l4 -4h1l2 -2l5 -3v1l1 -1l2 -1l4 -1l2 -1l3 -1h1l1 -1v1l2 -1l3 -1v-1l1 -1v1h1v-1l2 -1v-1l1 -1l1 -1v-1h1l1 1v-1l2 -4v-1l1 1l2 -3l-1 -1l1 -1l2 -4l1 -1l3 -7h2v-1h-1l2 -1v-2h2l3 -4l1 -1l1 -1l-1 -1v-1h2l2 -4l1 -1h-1l1 -1l-1 -1l1 -1h1l2 -5l-1 -1l1 -1l1 -1l-1 -1v-1h1v-1v-1h1v-1v-1v-1v-4l1 -2l-1 -1l1 -1v-1l1 1v-2l-1 -1l1 -2v-1l1 -7v-1l1 -6l1 -1l-1 -1v-1h1l-1 -1l-8 -49l-4 -12l-1 -1l-1 -2l-3 -6h-1v-1l-6 -9h-1v-1l-1 -1h-2l-2 -2l-2 -1l-7 -2h-2l-1 1l-1 -1h1l-1 -1l-1 1l-3 -1h-1l-1 1l-1 -1l-2 1h-2v-1h-7l-1 1l-1 -1h-1l-4 1l-6 1l-13 4l-6 2l-4 1l-2 2l-4 1l-4 1l-6 3l-3 1l-5 2l-1 1h-2l-2 2l-4 1l-1 1l-1 -2v1v1l-1 1l-3 1l-9 7l-6 5v1l-2 3l-2 1l-1 2l-3 5l-1 2h-1l-1 2v2l-2 4v1v1h-1l1 1l-1 7l1 7l3 14l2 4l3 5v2l10 7l5 2h3h2h1v-1l1 1l3 -2l3 -3l4 -4l1 -1v-1l1 -2h1l1 -2l2 -2h-1l1 -1h1v-1v-1l1 -1l-1 -1h1l-1 -1l2 -2l1 -1l1 1v-1l1 -1l2 -1h3h2l2 1h1l1 1l1 -1v2h-1h-1l1 1l-1 1l-1 4l-3 4l-2 4v1l-1 -1h-1l-2 5h-1l-1 2h-1l-5 6v1l-1 1l-2 2l-1 -1v1v1h-1v-1l-1 1v1l-2 1l-2 2h-2v-1l-1 1h-6l-6 -1l-4 -1l-6 -2h-1l-1 -1l-8 -4l-5 -6l-3 -6l-1 -3l2 -1l-1 -1h-2l1 -3v-1v-1l-1 1l-1 -1v-3l1 -2l-2 -1v-5l1 -1l-1 -1l1 -2l1 -4l-1 -1l1 -1v-2l-1 -1l2 -2l-1 -3v-1l2 -1l-1 -1v-2l1 1h1v-4h1l-1 -1l1 -2h1l6 -11l2 -5l2 -3l12 -13l2 -1l4 -3l10 -5l5 -3l2 -1h3l1 -2l3 -1l26 -9l7 -2h17h15l1 1l1 -1l1 1h7h5h5h3l3 2h1l5 2l5 5v1l1 1l4 6l4 9l1 1l2 2l1 2l2 4l2 4l4 12l1 1l-1 1l2 2l4 31l-1 1l1 1v1l-1 1l1 1l-4 19v1l-1 1l1 1l-2 12l-1 1l1 1l-1 1l-1 12l-11 21l-5 9l-4 7l-6 11l-1 1l-2 2v1l-1 2l-3 1l-7 5l-19 7l-31 16l-3 1l-2 1l-1 -1l-1 1l-1 -1l-1 1h-1l-2 1l-1 -1l-20 4l-8 2l-1 1l-1 -1l-14 4l-1 -1l-1 1h-20l-2 -1l-1 1l-1 -2l-10 -1l-1 -2l-1 1l-2 -1l-16 -6l-2 -2l-1 -1l-3 -1l-2 -1h-2l-1 -1v-1h-2v-1l-1 1h-1v-1h-3l-1 -1v-1l-2 1v-1v-1l-2 -1l-1 1l-1 -1h-1l-2 -2l-1 1h-1v-1l-1 -1l-2 -2l-4 -3l-2 -1l-10 -10l-5 -5l-2 -1l-1 -1l-2 -2l-7 -6l-6 -9l-5 -14v-4l-2 -2l2 -1l-2 -3v-4l-1 -5v-7v-16l1 -5l-2 -49l2 -16l1 -3l1 -2l1 -2l-1 -1v-1l2 -3v-3l3 -2v-4l2 -2l-1 -1l1 -1v-2h2l-1 -2l1 -1l1 -1h1l2 -6l1 -2h1l2 -4v-2h1l-1 -1l1 -2h1l-1 -1l1 -1h1l1 -2l9 -15l17 -20h1l1 -2l1 -2l3 -3l7 -7l13 -7l5 -2l8 -2h1l2 -1h2l2 -2h1l12 -4l5 -2l19 -7l70 -10l13 -4v-2l1 1l1 -1l10 -1l27 1l1 1l1 -1l79 4l1 -1v1l51 -1l1 -1v1l1 -1l1 1l23 -4l2 -1l1 1l1 -1h8l1 -1l2 1h11l1 -1l1 2l1 -1l14 1l1 -1l1 1l16 -3l17 -6l9 -5l14 -8h2l2 -2h2l3 -2l5 -2h2l2 -2h2l1 -2h2l3 -4l2 -1l9 -11l30 -23l1 -1l2 -3l1 -1v-1l2 -2h1v-2l1 -1l1 -2l1 -1v-1l4 -3l1 -2l1 -1l3 -2l3 -1v2h-2l-1 2h-1l1 2h1zM288 327l1 -1h-2v1h1zM287 328v-1v1zM286 330h1l-1 -2h-1v1l1 1zM284 331l1 -1l-1 -1l-1 2v1l1 -1zM283 333v-1h-1v1h1zM282 334v-1h-1v1h1zM280 337l1 -2v-1l-1 1v2zM280 338v-1h-1v1h1zM279 339v-1h-1v1h1zM278 340v-1h-1v2l1 -1zM276 342v-1h-1v1h1zM275 344v-2h-1v1l1 1zM274 345v-1h-1v1h1zM271 348l1 -1h-1v1zM269 350l1 -2l-1 1v1zM268 351v-1h-1v1h1zM267 352v-1h-1v1h1zM263 354l3 -2h-1l-2 1v1zM262 355l1 -1h-1l-1 1h1zM260 356v-1h-1v1h1zM257 358l2 -2l-2 1v1zM255 358h1h-2h1zM251 362l1 -1v-1h-2v2h1zM248 363v-1h-1v1h1zM246 365l1 -2h-1v1v1zM245 368l1 -1h-1v1zM77 83v-1h-1v1h1zM79 83v-1h-1v1h1zM84 83v-1v1zM130 112v-2h-1v1l1 1zM136 127v-2h-1v2h1zM125 174v-1h-1v1h1zM124 183v-2h-1v1l1 1zM161 295v-1h-1v1h1zM245 228l1 -1h-1l-1 1h1zM242 231v-1l-1 -1v1l1 1zM239 233l1 -1h-1v1zM243 235l2 -1l-1 -2h-1l-3 3h1h2zM238 235v-1l-1 1h1zM240 236v-1h-1v1h1zM238 239l1 -2l-1 -1v2l-1 1v1l1 -1zM241 237v-1h-1v1h1zM236 241v-1h-1v1h1zM235 243v-1h-1v1h1zM237 244v-1h-1v1h1zM234 246v-1h-1v1h1zM233 247v-1h-1v1h1zM234 248v-1h-1v1h1zM230 251v-1v1zM230 252v-1h-1v1h1zM226 257v-1h-1v1h1zM224 259l1 -2h-1v1v1zM218 263v-1h-1v1h1zM217 264v-1h-1v1h1zM210 268v-1h-1v1h1zM207 268h1h-2h1zM203 271v-1h-1v1h1zM199 273v-1h-1v1h1zM197 274v-1h-1v1h1zM193 276v-1h-1v1h1zM191 278v-1h-1v1h1zM269 195l1 -1h-1v1zM267 199l2 -2v-1h-1l-1 2v1zM264 205l2 -3l1 -3l-1 2l-1 2l-1 2zM264 208v-1h-1v1h1zM263 210v-2h-1v1l1 1zM262 211v-1h-1v1h1zM260 214v-1l-1 1h1zM256 217l1 -1h-1v1zM257 218v-1h-1v1h1zM254 219v-1h-1v1h1zM256 219v-1h-1v1h1zM255 221v-1h-1v1h1zM254 222v-1h-1v1h1zM249 223l1 -1h-1l-1 1h1zM252 227v2l-3 1v1l-2 1l-3 4l-1 1l-1 1l-5 7l-1 2h-1v2l-2 3h-1v1l-6 8h-1v1l-6 3v1l-2 1l-6 3l-2 1l-1 1h-3l-3 3l-2 1l-23 17l-23 8l-15 5h-1l-1 1l-1 -1l-8 2l-1 1l-2 -1l-1 1l-46 -4l-28 -7l-18 -8l-3 -2l-16 -4l-13 -3l-12 -9l-15 -16l-3 -3l-1 -2h-2v-2h-2l-1 -1l-1 -2h-2l-1 -1l-1 -2l-3 -2l-1 -2l-2 -2l1 -4l-2 -1l1 -3l-1 -2v-6l1 -1v-1l-1 -26l1 -1h-2l1 -1v-7l1 -1l-2 -1l2 -2h-1l1 -1v-2l2 -6v-3l3 -2v-3l6 -19l2 -5v-2l2 -1v-3l3 -2v-2l1 -2l10 -13l16 -13l8 -5l20 -8l7 -2l2 -2l1 1l2 -2h2l7 -4l11 -5l3 -1l1 -1l1 1l1 -1l15 -2h1h2l15 2l5 2l2 2l4 3l2 2l1 1h1l5 4l1 3l3 1l1 2l1 2v2l2 1l-1 1l2 1v1l-1 1h1l1 1l1 4l3 6l1 2l-1 1v1l2 3h1l1 4l2 3v5l1 1l-1 1l1 4l2 16l-1 1l1 1l-1 13l-1 5l-4 19l-4 13l-3 3l-7 6l-13 13l-10 8l-9 4l-9 3l-11 1h-3h-2l-2 -1l-12 -8l-1 -1l-1 -1l-2 -1l-6 -7l-6 -9l-2 -7l-1 -11l2 -1v-3l1 -1v-1v-1l4 -1v-1l1 -1l1 1l1 -1l4 1l1 2l1 12l3 10l2 2l4 6l12 11l4 2l4 1h3l1 -1h1v-1l3 -1l7 -4l2 -1l2 -3l3 -1l8 -8l10 -8l6 -11v-3l-1 -1l1 -1l1 1l1 -2v-8v-3v-1l1 1h1l-2 -5l2 -2l-1 -1v-2l1 -2v-8v-2l-1 -1l-1 -13l-1 -1l1 -1l-2 -2l1 -1l-1 -2l-1 -5l-1 -5l-9 -24l-1 -2l-2 -2h-2v-2h-1l-2 -1v-2l-6 -3l-5 -3l-2 -1h-3v-1l-1 1l-1 -1l-11 1l-1 -1l-1 1h-2h-6l-13 5l-7 3l-1 -1h-1v1l-5 2h-1h-1h-1v1l-4 1l-2 1l-3 1l-2 1l-2 1l-4 2l-6 5l-5 6l-1 -1l-1 1v1h-2l-3 3v1l-4 4l-2 1v2l-2 1h-1l-1 2l-1 1l-4 6l-6 19l-3 11l-7 13l-3 6l-2 9l-1 1l1 1v2l-1 1l1 1v2l-1 2v10v11v1v1v1l1 3l2 2v2l2 1l1 2l7 7l9 8l3 3l2 2l1 2l1 1l12 11l54 17l19 6l8 1h11l1 1l1 -1l2 1h10l1 -1l2 1l1 -1l30 -1l21 -4l10 -4l11 -9h1l1 -3h2l2 -2l1 -1l7 -4l11 -5l3 -1v-1l3 -1l5 -4l3 -2l2 -3l1 -1l1 -1l5 -8v-2h2l4 -7l2 -1l2 -3l7 -6l3 -3l1 -1l1 -1l6 -9l2 -1v-2l2 -4v-2l3 -3v-3l2 -2v1h1v1v1l1 -2l1 -1l3 -4l1 -2h1v-1h1l1 -1l2 -1v-1l2 -1l1 -1l1 -1v1h-1l-16 22l-4 8l-1 2l-1 2h-1v1h1l-1 1h-1l-2 5l-2 1h-1v2h-1l-1 1h-1l-1 1l1 1l-3 1v1v1l3 -2zM247 227v-1h-1v1h1zM248 227l1 -1h-1v1zM248 229v-1h-1v1h1zM249 230v-1h-1v1h1zM245 231l1 -1l-1 -1v1v1zM247 232l1 -1h-1h-1l1 1z"/></g><g class="f jolt-f live" data-f="3" fill="var(--live,#000)" fill-rule="evenodd"><path class="chunk" data-i="0" d="M385 363v-1v-2l1 -1v-5h1l-2 10v-1zM388 353l-2 -1v-7h1l1 1l-1 5h1v-3h1l-1 5zM389 346l-1 -1v-5v-1l2 1v5l-1 1zM306 301l1 -2l3 -2h1l-1 2h-1l-1 1l-1 1h-1zM290 322l2 -1l-1 2l-1 1v1h-1l1 -2v-1zM292 319l-1 2l1 -2v-1l1 -2l5 -7l1 -1l1 -1l-1 2v1l-2 3h-1l-1 2l-1 3l-2 1zM316 293h2h1l-4 3l-1 1l-2 1l1 -3v-1l1 1l2 -2v1v-1zM395 205l-3 1l-2 2h-2l2 -1l2 -1l-1 -1h3h1zM397 203l-2 1l-1 -1h2v-2h2v-1h1l-1 1l-1 2zM400 195h-1v-2h1h1v1h-1v1z"/><path class="chunk" data-i="1" d="M266 191v-1l1 -1l1 1l-1 1l-1 1v-1zM268 189l-1 -1h1l-1 -2h1l2 2l-2 1zM271 185l-1 1l-1 -2v-1h1l1 2zM272 180h-2v-1h1l1 -2l1 -3h1v2h-1l-1 2v2zM279 165v-1l-1 -1l1 -1h2l1 -2l1 1v1l-4 3zM300 122l-1 -1v-2v-1v-1v-2l1 2v5zM301 110l-2 -2l1 -1l-1 -1l1 -4v-1l1 1v3v3v2zM384 370v-1l-1 1h1zM379 402v-3l-1 -1v3l1 1zM381 403l-1 1h-2v3l1 2l-1 1l1 1l2 1v7l-1 -1v-4l-2 1l2 10h-1l-1 -2l-1 1l1 3l3 22h-3l4 8l-2 -1v1l2 1l-1 1l1 2l1 1l-1 1v1l1 1v1l1 1v1h-1l1 3l1 3l-2 2l1 1v2v5l-1 6l-1 5l-1 1v1h1v1l-2 2h1h1l-1 1h-1l-1 1l1 1l-2 3l-1 1l1 1h-1l-1 1l-2 1l-4 4l-1 1l1 1l-3 1l-1 2l-1 2l-2 3l-1 2l-1 2v1l-1 2v1l-1 1v1l-1 3l-1 2l-1 1l-1 3l-1 2l-2 1v1l-11 11l-3 3l-2 3l-2 1l-2 3l-9 18l-14 12l-10 6l-15 13l-3 3l-12 5l-65 18l-1 -1l-2 1h-15h-1h-2h-1l-13 -2l-1 1l-1 -1l-15 -2l-21 -5l-5 -2l-9 -4h-2v-2h-1l-2 -1l-4 -1l-1 -1h-1l-8 -5l-4 -4l-13 -16l-7 -13l-6 -9l-1 -1l-4 -11l-2 -5l-1 -2l1 -1l-1 -1l-1 -12l1 -2l-1 -1l1 -1l1 -5l1 -1l-1 -1l1 -2l1 -4l2 -4l2 -3l1 -1l1 -1l1 -1l2 -1h1h-1l1 -1l1 -1l2 -1l1 -1h1l-1 -1l1 -1l1 -1l4 -10l1 -4l6 -14l2 -2l11 -6l3 -1l4 -2l3 -1l8 -3l13 -5l17 -6h5l11 2l5 1l12 9l1 1l3 5h1l3 4l1 2l1 1l3 7l2 1l1 5l3 4v3l2 1l1 3l1 2l2 4l3 15l1 1h-2v1l-1 1l1 1v2l-3 1l1 1l-1 1l-5 7l-3 2h-1v1l1 1l-2 1l-2 2l-1 1h1l-4 5l-3 3l-1 2l-1 -1v1v1l-2 1l-5 5l-11 2h-11l-6 -3l-2 -1l-5 -3l-4 -4l-11 -8l-1 -2l-4 -4v-3l1 -5l2 -6l5 -8l8 -5h3l1 -1l2 1l4 2l2 2l3 5l-1 2h-2h-6l-2 1l-5 5l-1 4l1 8l2 2l7 7l2 2h2l2 2l7 2h9l10 -5l1 -3l2 -1l3 -3l1 -1l2 -2l1 -3l4 -6l3 -3l1 -2l3 -4v-5l-2 -14l-2 -5l-5 -10v-2l-20 -23l-1 -1l-1 -2l-12 -3l-8 -1l-3 1l-1 -1l-1 1l-10 6l-13 6l-5 2h-3l-7 3l-5 2h-2l-2 1v1l-8 9l-1 1l-2 5v3h-1v2l-1 1l1 1l-2 2v2l-9 8l-5 7l-1 4l-2 1l2 1l-2 1l-1 21l1 4l-1 1l1 1v4l1 1l-1 1l1 1l2 6l3 6l10 16l1 2l1 1l3 3l3 4l11 11l2 1h1l1 1l3 2h2l3 1l6 2l12 4l5 1l1 2l1 -1l1 1l13 4l1 1l1 -1l1 1l27 6l52 -12l10 -3l19 -3l7 -2l3 -2l2 -1l2 -2h2l1 -3l2 -1l4 -4l5 -4l1 -1l1 -2l3 -1l23 -14l1 -1v-1l1 -3h1l1 -4l1 -1v-1l14 -19l11 -8l1 -1l1 -1l1 -2l2 -3v-2l2 -3l1 -4v-1l1 -3l2 -2v-3l8 -11l7 -14l1 -1l-1 -1l1 -8l1 -1l-1 -1l1 -1l1 -4l-2 -1l1 -1l1 -4h-2l1 -2l-2 -7l1 -1l-2 -1l3 -73v-1h1v-1v-1v-1l2 -5v-1v-1v-2l1 -1v-1v-1v-1v-4l2 -3v2v1l-1 1l1 1l-1 2v1v1l-1 3v1v1l-2 8v1v1h-1l1 1h-1l-1 6l4 1l-1 1h-1l-1 5h-1l1 1h1zM378 412v-1h-1v1h1zM374 425v-2h-1v1l1 1zM376 428v-2h-2v2h2zM380 494v-1h-1v1h1zM380 496v-1h-1v1h1zM378 436v-2l-2 -1v1l2 2zM377 440v-2h-2l1 1l1 1zM374 442l-1 -1l-1 -1v1l2 1zM378 446v-2l-2 -1l1 1l1 2zM374 445v-1l-2 -1l1 1l1 1zM380 455v-1h-2l1 1h1zM381 467h-1v1l1 -1zM382 474v-2h-2l1 1l1 1zM382 481v-2l-1 -1v2l1 1zM382 489v-2h-1v1l1 1zM378 502v-1h-1v1h1zM-152 549v-1h-1v1h1zM-297 667v-1h-1v1h1zM-197 621h-1v1l1 -1zM-196 624v-1h-1v1h1zM-196 624v-1v1zM-195 625h-1v1l1 -1zM-195 627v-1l-1 1h1zM-249 738v-1l-1 -1v2h1zM-56 691v-2h-1v1l1 1zM245 362v-1h-1l1 1zM241 363l1 -1h-1l-2 1h1h1zM237 365v-1h-1l-1 1h2zM235 365h-1h1zM233 366h-1h-1h2zM231 367v-1l-1 1h1zM228 368l1 -1l-2 1h1zM227 369v-1l-1 1h1zM226 370v-1l-1 1l-1 1l2 -1zM231 370v-1h-1l-1 1h2zM221 373l1 -1h-2l-1 1h2zM219 374v-1l-1 1v1l1 -1zM215 378v-1h-1v1h1zM212 381v-1v1zM210 384v-1h-1v1h1zM289 325l-1 1l-1 1l-20 15l-2 2l-1 1l-43 32l-5 3l-5 6l-27 15l-25 20l-57 6l-24 -2l-1 1l-2 -2l-35 -3h-1h-1h-1l-16 2h-1h-1l-3 1h-1h-1h-2h-54l-2 2l-2 -2l-19 -2l-1 1l-1 -1l-2 1l-29 -1l-1 -1l-1 1l-17 1l-1 2l-1 -1l-2 1l-19 8l-1 1l-1 -1l-1 1h-3l-1 1l-1 -1h-2l-6 1h-2l-2 1l-1 -1l-16 1l-14 6l-29 18l-6 1l-9 2l-5 3l-3 3l-4 3l-4 4l-22 24l-4 11v2l-1 2l2 1v1h-2l-1 2v4l-1 2l1 1v1h-2l-1 2l-1 2l-13 22l-1 7l-1 31l-9 17l-1 1v1l-1 3l-1 1l1 1l1 32l5 11l1 3l2 2l4 4l1 2l3 2l-1 1l1 1l1 1l1 1l2 2l-1 1l2 1l1 2l3 6l3 4l1 1l-1 1h1l1 1l1 1l2 4l3 3l1 -1l1 1l-1 1l4 1v2l2 1h3l11 6l16 13l2 1l1 2l2 -1l1 2h2l15 6l1 -1l1 1l8 1h2l1 1l4 1l1 -1l1 1l21 -1l1 -1h15l1 -1l2 1l1 -1l9 -1l11 -8l13 -5l3 -1l2 -1h2l1 1l1 -1h1l6 -1l1 -1l2 -1l1 1l4 -2l1 1h1l1 -1l4 -1l2 -1l2 -2h1l1 -1l1 1l1 -1l4 -2v-2h1l1 1l1 -1v-1l2 -1l1 -2l2 -2h1v-2h1l1 1l1 -1l2 -5h1l1 1l2 -2v-2l2 -4l1 -1l2 -7h1l-1 -1l1 -1v-3h1l2 -6v-3l1 -1v-2v-1l1 -1l2 -5l1 -2v-1l1 -1l-1 -1l1 -1h1l3 -4l-1 -1l2 -1l1 -1h-1v-1h2l-1 -1h1h1l1 -1h-1l1 -1v-1l3 -1l-1 -1h1h1v-1h-1l2 -1v-1v-5v-2v-9l1 -2l-1 -1l-1 -1l1 -2l-1 -1l-9 -35l-3 -17l-2 -3l-2 -5l-6 -9l-2 -1l-1 -2l-10 -8h-2v-1l-1 -1h-2l-1 -1l-3 -1v-1l-1 2v-1v-1l-1 1v-2h-1v2l-1 -1v1h-1l-1 -2l-5 1l-1 1l-1 -1l-2 1l-6 1l-9 1l-17 2l-5 1h-2l-2 2l-2 1l-1 1l-4 3l-2 2l-3 3l-2 3h-2l-3 3l-5 2l-1 1l-2 -1v1l-2 2l-4 1l-10 4l-3 3v1l-2 3h-1v2l-2 7l-1 2l-2 1v4l-1 3l-4 7l1 2h-2v1l1 1l-1 8v6l1 5v1v2v1l4 5l4 4l5 1l2 1l2 1l1 -1l1 1h6l7 -1l4 -3h1v-1l1 -1h1v-2l1 -2v-1v-1h1v-2l-1 -2l1 -1l-2 -2l1 -1l-1 -2v-3l2 -2v1v-1l1 -1l-1 -1l1 -1l1 -1h3h3l2 4h1l1 2l1 -2l1 1l-1 3l-1 1l-1 1l1 1l-1 1l-2 8l-2 7v4l-1 1v-2v1l-1 3h-1v1h-1l-3 3v1h-1l-2 2l-1 -1v1l-1 1l-1 -1l-1 1l-3 1l-4 2h-2l-1 -1l-1 2h-10l-9 -1l-5 -2l-3 -4v-2h-1l-1 -6l-2 -5l-1 -3l-1 -2l1 -1h-2v-1l1 -2h-1l-1 1l-1 -3h1l-1 -1h-1l-2 -3l1 -1l-1 -1l1 -1l-2 -4l-1 -1l1 -1l-1 -2l-1 -1l2 -2l-1 -3l-1 -2h2v-3l-1 -2l2 1h1l1 -6l1 -1l-1 -1v-2l2 -1l8 -16l2 -4l1 -2l8 -6l3 -1l6 -3l16 -7l8 -6l3 -1l2 -1l1 -2h2l17 -6l7 -1l23 -5l14 -4l1 1l1 -2l1 1h4l2 1l3 1h1l1 2h1l3 2l7 3l1 2h1l10 6l9 13v2l3 4v4l2 8l1 6l1 12l1 1h-1l1 1l5 18l-1 1l1 1v1l-1 2l1 1v26v1h-1l1 1l-3 6h-1l1 1h-1l-5 9l-15 37l-2 9l-2 5l-4 8h-2l-2 3v1l-2 2l-3 2l-9 7l-14 6l-44 13l-3 1l-1 1v-1l-1 2v-1l-1 1h-1v1v-1l-10 3h-10l-1 1l-1 -1l-20 1l-1 -1l-1 1l-14 2l-1 -1v1l-1 -1l-6 2l-1 -1l-1 1l-1 -1l-26 -1l-4 -3l-1 2l-2 -2l-6 -2l-3 -3h-3l-2 -3v-1v-1l-1 1l-1 -1v-1v-1l-1 1l-1 -1v-2h-2v-2v-2l-1 -1v2l-1 -1l1 -1l-1 -2l-1 1v-2h-1v-2l-1 1v-1l-1 -1l-1 -1l-3 -1h-2l-10 -6l-3 -7l-2 -2l-1 -3l-4 -8l-4 -8l-7 -10l-2 -2l-3 -2l1 -1l-3 -2l-2 -3l-4 -6l-4 -10l-1 -25l2 -5l13 -43l-1 -15v-2v-2l1 -1h-2v-1l1 -2l-1 -1l2 -1l-1 -3l3 -1l-2 -1l1 -1v-1h2h1l-2 -1l1 -1v-1h3l3 -8l1 -4l2 -1l3 -7v-2l2 -2l-2 -1l2 -2h1v-1l-1 -2h2v-3l4 -14l21 -21l2 -1v-1l3 -3l4 -3l8 -5l10 -3h6l8 -3h2l3 -2h2l3 -3h1l10 -8l4 -3l14 -5l64 -14l23 -1h1l1 1v-1l8 1l22 -1l1 1l1 -1l86 3h1h1l44 -4l2 -1l1 1l1 -1l2 2l29 4l1 1l1 -1l5 2l1 -1l1 1l10 1l2 -1l1 1l1 -1l21 -4l1 -1h1l1 -1l14 -9l12 -8l10 -4l12 -6l1 -1l2 -2l1 -1l1 -2l3 -4l1 -1l2 -3l2 -1l1 -1l2 -1l4 -4l3 -1l16 -7l27 -25l1 -1l3 -2l1 -1l1 -1l2 -1h1l1 -1h1l1 -1l2 -1l4 -2l1 -1l1 -2l2 -1l-1 1v1l-1 1h-1l1 1zM288 326v-1l-1 1h1zM287 326zM286 327l1 -1h-1v1zM285 328v-1l-1 1h1zM283 328h1h-1zM282 329l1 -1l-1 1zM280 330l2 -1h-1l-1 1zM279 331l1 -1h-1l-1 1h1zM278 332v-1h-1v1h1zM277 332h-1v1l1 -1zM275 334v-1h-1v1h1zM273 335v-1l-1 1h1zM271 336l1 -1l-1 1l-1 1l1 -1zM268 339v-1l-1 1h1zM265 341l2 -1v-1l-2 1v1zM265 343v-1h-1v1h1zM263 344l1 -1h-1v1zM260 348l2 -3v-1l-1 1l-1 2v1zM260 349v-1h-1v1h1zM258 351v-1h-1v1h1zM256 353l1 -2l-1 1v1zM255 354v-1l-1 1h1zM252 358l1 -1v-1l-2 1v1h1zM250 359v-1h-1v1h1zM249 360v-1h-1v1h1zM248 362v-1h-1v1h1zM74 81v-1l-1 1h1zM76 81v-1h-1v1h1zM80 80h-1h1zM128 118h-2h2zM136 125v-1h-1v1h1zM129 173h-1v1l1 -1zM124 177l1 -1h-1v1zM158 288v-1l-1 1v1l1 -1zM237 228v-1l-1 1h1zM235 231v-1h-1v1h1zM234 233v-1h-1v1h1zM238 234l1 -1l-2 -1h-1l-1 2h3zM233 234v-1h-1v1h1zM235 234h-1h1zM234 236v-1l-1 -1v1v1h1zM236 235l-1 -1v1h1zM232 237v-1h-1v1h1zM231 238v-1h-1v1h1zM233 239v-1h-1v1h1zM229 239h1h-1h-1h1zM228 240v-1h-1v1h1zM230 241v-1h-1v1h1zM224 242h1h-1h-1h1zM223 243v-1l-1 1h1zM218 248v-1h-1v1h1zM215 250l1 -1l-1 -1l-1 1l1 1zM208 256v-1l-1 1h1zM207 257v-1h-1v1h1zM202 263v-1h-1v1h1zM201 265v-2l-1 1v1h1zM198 267v-1v1zM197 269v-1l-1 1h1zM196 269h-1h1zM194 270h-1h1zM192 271v-1v1zM266 196v-1l-1 -1v1l1 1zM264 198l1 -1v-1l-2 1l1 1zM258 203l4 -2l1 -3l-2 1l-2 2l-1 2zM257 204h1h-2v1l1 -1zM256 206v-1h-1v1h1zM254 207h1h-2v1l1 -1zM251 211l1 -1h-2v1h1zM246 215v-1h-1v1h1zM247 216v-1h-1v1h1zM244 217v-1l-1 1v1l1 -1zM246 217v-1h-1v1h1zM245 219v-1h-1l-1 1h2zM243 220v-1l-1 1v1l1 -1zM239 223l1 -1l-1 1v1v-1zM243 226l1 2l-2 2v1h-2l-1 3l-1 1h-1l-3 4l-1 1h-2v1l-3 3h-1l-1 1l-8 8h-2l-1 2l-6 5l-1 2l-1 1l-5 4l-1 1v2h-2l-1 2h-1l-23 10l-21 15l-16 5h-2l-1 1h-1l-8 1l-1 1h-1l-1 1l-41 5l-33 -13l-21 -7l-3 -1l-10 -4l-7 -5l-16 -7l-21 -8l-3 -3v-1l-2 -1l-1 -2l-1 -1l-1 -1l-1 -3h-1l-2 -3l-1 -3l-2 -6l-2 -4l-2 -3l-2 -7l-2 -2v-4l-3 -1v-6l1 -1l-1 -1l6 -20l1 -1v-1l1 -1l3 -8l1 -1l-1 -1l2 -2l-1 -1l1 -1l1 -3l1 -6v-3l1 -2l1 -3l6 -10l3 -2v-1l3 -1v-2l4 -3l1 -1l2 -3l8 -20l10 -10l8 -4l24 -13l5 -4l1 -2l2 2l1 -3l2 -1l8 -2l13 -2l4 -1h1h1h1l10 -3v-1l9 -2h6l5 2l6 3l3 2v2l2 1l5 9l1 5l2 3l1 4l1 3v2l1 1l-1 1l1 1h1l1 2l-1 1h2l1 4l4 3h2l-2 1l1 1h2l2 1l1 1l3 2v3h2l-2 1l2 3l1 19v2v1l-3 14l-1 3l-8 12l-9 16l-3 7l-6 12l-7 11l-9 4l-10 4l-10 3h-10l-3 -1l-2 -1l-2 -1l-7 -4v-1h-1l-1 -1l-1 -3l-4 -8l-3 -9l-6 -15h2v-3l-1 -2l4 -1l-1 -1h1l2 1h1l5 2l1 3l2 11l2 8v2l2 3l6 4h4l4 1l4 -1l1 -1l1 1l2 -1l4 -1l9 -2h4l2 -1h3l5 -6l5 -13l8 -15l1 -1v-1l1 -1v1l1 -1l1 -1l3 -4l1 -1h1h1v-2l3 -1h-1l1 -1l1 -2l1 -8v-2l-1 -3l-4 -18l-2 -1l1 -1l-3 -2l1 -1l-1 -1l-2 -4l-2 -3l-10 -15l-1 -3l-1 -3h-1l-1 -4h-1l-1 -3l-1 -2l-7 -8l-7 -4l-3 -2h-3l-1 -1l-1 1l-10 1h-1h-1h-1l-5 1l-11 5l-6 4l-1 -1v1v1l-4 3v1h-1h-1v2l-3 2l-2 3l-5 1l-2 2l-3 1l-7 2l-9 3l-5 4l-2 -1v1v1h-1l-2 2v1l-3 4l-1 1v2v2l-1 1l-1 2l-1 2l-3 7l-13 10l-5 6l-6 16l-2 10l-1 12l-1 1h1v2l-1 1h1l-1 2h-1l1 1v5l1 9l2 1l-2 1l1 1l1 6l2 3v3l2 4l2 4l6 13l11 8l4 2l4 1l1 1h3l15 5l44 15l20 8l9 4l14 3l1 1l1 -1l2 1l10 1l1 -1l1 1l1 -1l26 -5l17 -12l11 -7l15 -7h2l2 -1h2l1 -1l1 -1l4 -2l5 -7l1 -1l1 -2l3 -3l5 -4l3 -3l3 -3l1 -1h1l8 -5l1 -1l4 -3l1 -1l1 -2l4 -7l2 -4l1 -2l2 -1l8 -11h2l1 -3l4 -2v-2l3 -2l2 -3l2 -1v1v2h1l1 -1l1 -1l2 -5v-2h1v-2v-1v-2h1l1 -2v-2l2 -2v-1l1 -1v1l-1 1l-12 26l-6 5l-2 2l-1 2l-2 1l1 1h-1l-2 1l-3 5l-2 2h-1v1l1 1l-2 1l-1 1l-1 1h-1l1 1l-1 2v1l2 -2zM238 227v-1l-1 1h1zM240 227v-1h-1v1h1zM240 229v-1h-1v1h1zM241 229v-1l-1 1h1zM238 231v-1h-1l1 1zM240 231v-1h-1v1h1z"/></g><path class="grain" fill="#000" fill-rule="evenodd" d="M-175 735h-1v-1h1v1zM-200 735h-1l1 -1h1l-1 1zM-266 723h-1v-1h1v1zM-279 691l1 1h-1v-1zM-146 607v-1h1v1h-1zM-202 578h-1l1 -1v1zM-198 571h-1v-1h1v1zM-274 506h-1v-1h1v1zM-268 497h-1v-1h1v1zM117 195h-1v-1h1v1zM118 191h-1v-1h1v1zM120 186h-1v-1h1v1zM113 203h-1v-1h1v1zM114 201h-1v-1h1v1zM132 117h-1v-1h1v1zM96 91h-1v-1h1v1zM61 86h-1v-1h1v1zM106 76h-1v-1h1v1zM372 508h-1v-1h1v1zM377 484h-1v-1h1v1zM380 463h-1v-1h1v1zM381 459h-1v-1h1v1zM386 415l-1 -1v-3l1 1v3zM385 409l1 1h-1v-1zM387 407l-1 -1v-1l1 1v1zM386 402l-1 -1v-1h1v2zM386 399l-1 -1v-1l1 1v1zM386 395h-1v-1h1v1zM386 393h-1v-1h1v1zM388 391h-1v-1h1v1zM388 389h-1v-1h1v1zM386 387h-1v-1h1v1zM386 378h-1v-1h1v1zM387 370h-1v-1h1v1zM387 367h-1v-1h1v1zM383 365h-1v-1h1v1zM387 365l-1 -1v-1l1 1v1zM387 362h-1v-4h1v4zM383 358h-1v-1h1v1zM383 356h-1v-3l1 1v2zM384 347h-1v-1h1v1zM384 345h-1v-1h1v1zM383 343h-1v-1h1v1zM383 341l-1 -1v-2h1v3zM385 339l-1 -1v-1l1 1v1zM384 337l-1 -1v-1l1 1v1zM381 335h-1v-1h1v1zM383 334l-1 -1v-1h1v2zM381 333h-1v-1h1v1zM382 332h-1v-1h1v1zM310 310h-2v-1h2v1zM312 309h-1v-1h1v1zM315 306h-1v-1h1v1zM312 306v-1h1v1h-1zM312 306l-2 2l-1 -2l2 -1v1h1zM313 305v-1h1v1h-1zM299 322h-1h-1l1 -2h1v2zM301 320h-1v-1h1v1zM302 319l-1 -1l1 -1l1 1l-1 1zM304 317h-1v-1h1v1zM305 315h-1v-1h1v1zM308 313l-1 -1v-1l1 1v1zM307 310h-1v-1h1v1zM308 309l-1 -1l1 -1l1 1l-1 1zM374 237h-1v-1h1v1zM323 296h-1v-1h1v1zM318 297v-1v-1l1 1v1h-1zM324 295h-1v-1h1v1zM321 295h-1v-1h1v1zM325 294h-1v-1h1v1zM327 290h1v2l-2 1l-1 -1h1l1 -2zM325 292h-1h-1l2 -2v2zM329 290h-1v-1h1v1zM325 290v-1l2 1h-2zM330 289h-1v-1h1v1zM331 288h-1v-1h1v1zM332 287h-1v-1h1v1zM329 287h-1v-1h1v1zM333 286h-1v-1h1v1zM335 285h-1l-1 -1l1 -1l1 1v1zM337 283h-1l-1 -1l1 -1l1 1v1zM338 281h-1v-1h1v1zM335 281h-1v-1h1v1zM339 280h-1v-1h1v1zM336 280h-1v-1h1v1zM340 279h-1v-1h1v1zM337 279h-1v-1h1v1zM341 278h-1v-1h1v1zM342 277h-1l1 -1h1l-1 1zM339 277h-1v-1h1v1zM340 276h-1v-1h1v1zM344 276l-1 -1v-1h1v2zM345 274h-1v-1h1v1zM347 272h-1v-1h1v1zM348 271h-1v-1h1v1zM349 270h-1v-1h1v1zM350 269h-1v-1h1v1zM351 268h-1v-1h1v1zM352 267h-1v-1h1v1zM348 267h-1v-1h1v1zM353 266l-1 -1v-1h1v2zM354 264h-1v-1h1v1zM353 262h-1v-1h1v1zM358 260h-2v-1h2v1zM357 257h-1v-1h1v1zM362 251h-1v-1h1v1zM367 247h-1v-1h1v1zM370 243h-1v-1h1v1zM376 234h-1v-1h1v1zM377 232h-1v-1h1v1zM378 231h-1v-1h1v1zM378 228h-1v-1h1v1zM380 225l1 1h-1v-1zM380 226v2l-2 -2l1 -1v1h1zM379 225v-1h1v1h-1zM382 224h-2v-1h2v1zM382 223l-1 -1l1 -1h1v1l-1 1zM384 221l-2 -1v-1h2v1v1zM385 219h-1v-1h1v1zM386 217h-2v-1l2 -1v1v1zM388 214h-2v-1h2v1zM392 205l1 1h-1v-1zM391 205v-1h1v1h-1zM397 196h-1v-1h1v1zM398 195h-1v-1h1v1zM399 193h-1v-1h1v1zM397 193h-1v-1h1v1zM401 188h-3v-1h2v-1h1v2zM402 185h-1v-1h1v1zM403 183h-1v-1h1v1zM405 179h-1v-1h1v1zM407 176h-1v-1h1v1zM409 175h-1v-1h1v1zM251 229v-1h1v1h-1zM253 224l3 -2l-2 4l-2 2v-2h1v-2zM256 222v-1l2 -3h1v2l-3 2zM260 218h-1v-1h1v1zM260 217v-1l2 -1v1l-2 1zM262 214v-1l2 -2v1l-2 2zM264 211v-1l2 -2v2l-2 1zM267 207h-1v-1h1v1zM268 206h-1v-1h1v1zM269 205h-1v-1h1v1zM270 204l-1 -1v-1h1v2zM271 202l-1 -1v-1h1v2zM272 200l-1 -1v-1h1v2zM273 198h-1v-1h1v1zM274 197l-1 -1v-2h1v3zM275 194h-1v-1h1v1zM276 193l-1 -1v-1l1 1v1zM277 191h-1v-1h1v1zM278 189h-1v-1h1v1zM279 187h-1v-1h1v1zM280 184h-1v-1h1v1zM273 184v-1l2 1h-2zM281 183h-1v-1h1v1zM283 180h-1v-1h1v1zM284 177h-1v-1h1v1zM285 176h-1v-1h1v1zM279 177l-1 -1v-2l2 -1v1l-1 2v1zM286 174l-1 -1v-1h1v2zM287 172h-1v-1h1v1zM282 175v-1v-2v-1l2 1l-2 3zM281 172h-1v-1h1v1zM411 171l-1 -1v-1l1 1v1zM410 169l-1 -1v-2h1v3zM413 164v3h-1l-1 -1h1v-2h1zM413 164v-1h1v1h-1zM412 164h-1l1 -1v1zM414 162h2v1h-2v-1zM412 163v-1h1v1h-1zM418 162h-2v-1h3l-1 1zM413 162v-2h1v2h-1zM418 160h-2v-1h3l-1 1zM420 159h-1v-1h1v1zM421 158h-1v-1h1v1zM418 158h-1v-1h1v1zM420 157h-1v-1h1v1zM289 168h-1v-1h1v1zM283 167h-1v-1h1v1zM287 166h-1v-1h1v1zM284 166h-1v-1h1v1zM286 165h-1v-1h1v1zM290 166h-1v-3l1 1v2zM287 164h-1v-1h1v1zM285 163h-1v-1h1v1zM291 161h-1v-1h1v1zM292 160h-1v-1h1v1zM288 159h-1v-1h1v1zM292 158h-1v-1h1v1zM289 157l-1 -1v-1l1 1v1zM288 154l-1 -1v-1h1v2zM290 154h-1v-3l1 1v2zM289 149h-1v-1h1v1zM291 149l-1 -1v-1l1 1v1zM295 146h-1v-1h1v1zM291 141h-1v-1h1v1zM291 138h-1v-1h1v1zM292 137l-1 -1v-2h1l1 2l-1 1zM294 134h-1v-1h1v1zM293 133h-1v-1h1v1zM292 132h-1v-1h1v1zM293 131h-1v-1h1v1zM293 129h-1v-1h1v1zM295 127h-2v-2h2v2zM296 125l-2 -1h-1l1 -1h2v1v1zM295 122h-1h-1l1 -2h1v2zM297 120h-1v-1h1v1zM296 119h-1v-1h1v1zM298 112h-1l1 -1h1l-1 1zM298 109h-1v-1h1v1zM301 102h-1v-1h1v1zM300 97h-1v-1h1v1zM301 95h-1v-1h1v1zM298 95v-1l2 -1v1l-2 1zM299 92h-1v-1h1v1zM299 87h-1v-1h1v1zM302 79h-1v-1h1v1zM300 78h-1v-1h1v1zM301 74h-1v-1h1v1zM299 73h-1v-1h1v1zM298 71l-1 -1v-1l1 1v1zM299 69h-1v-1h1v1zM298 66h-1l1 -1h1l-1 1zM296 65h-1v-1h1v1zM297 62h-1v-1h1v1zM295 63l-1 -1v-1l1 1v1zM296 61l-1 -1v-1l1 1v1zM295 58h-1v-1h1v1zM294 60l-2 -2v-1l2 1v2zM196 548h1l-1 1v-1zM243 237h-1v-1h1v1z"/></svg>