<svg xmlns="http://www.w3.org/2000/svg" viewBox="-631 1917 1410 813"><g class="s" data-r fill="#000" fill-rule="evenodd"><path class="chunk" data-i="0" d="M-319 2641v-1l1 -2l2 1v-1v-1l2 1v-2h1v4l-1 1h-2l-1 2v-1l-1 -1h-1zM-328 2636v-3h2l2 -1v2h-2l-2 2zM-321 2634h-1v-3h3v1l-1 1v-1h-1v2zM-302 2634l-3 -1l-3 1v-1h2l2 -2v1h1v-2l1 -1h2v1l-2 2h1l-1 2zM-331 2626v-1h1l2 1v1h-2v-1h-1zM-319 2620h1h1v-2l2 2h-1v2l-2 -1l-1 1v-2zM-323 2622v-2h-1l-2 2h-1v-2l5 -1v-1l2 1v-1h2l-1 2h-1h-1l1 2h-3zM-386 2658h-2l2 -2h2l3 -2h3l2 -2l1 2h-1h-1l-9 4zM-391 2648h1v2l-2 1v-1v-1l1 -1z"/><path class="chunk" data-i="1" d="M-370 2651l-3 1l1 -1l1 -1l8 -3l3 -1l2 -2h1v2l-1 1l-3 1l-9 3zM-335 2647h-3v-1h1v-2h-1v-1l4 1l-1 2v1zM-381 2643h-1v-1l-2 1h-1v-2l5 1h-1v1zM-368 2642h-2h-1l1 -2h2v-1l1 1l-1 2zM-379 2638v-1l1 -1l4 -1v-1l2 2h-1v2h-1v-1h-2l-1 1l1 2h-2v-2h-1zM-358 2636l-2 1v-3l2 1l2 -1l2 -1v1v1l-2 1h-2zM-368 2634l-1 -2l1 -1v1l2 -2v-1l2 1l-1 2v1h-1l-2 1zM-346 2631l-4 1v1l-2 -1v-1h2l1 -2h1v-1h1v2h1v1zM-364 2627l-1 -1l1 -1l2 -1v1h2v1h-2l-2 1z"/><path class="chunk" data-i="2" d="M-334 2625v1l-4 1v2h-2l-2 -1l2 -2l3 -1v-1l1 -1l1 1l1 1zM-339 2628v-1h-1v1h1zM-358 2625v-1l2 -1v1v1h2v1h-2h-2h1l-1 -1zM-368 2606h-2l-1 -2h1h6v1l-4 1zM-340 2607l-1 -1l1 -1l1 -1h2l2 -1v2l-3 1l-2 1zM-406 2657h-3v-3h1v1h2v-1h1v2l-1 1zM-418 2646h-4v-1l3 -1h3l2 -1h1l-1 1h-1l-3 2zM-439 2638l-1 1l-2 1v-2h-1l1 -2l3 1l-1 1h1zM-436 2636l-2 1v-1l2 -2l2 -1v1h2v1l-2 1h-2zM-429 2632l-1 1l-2 -1v-1h2v1h1z"/><path class="chunk" data-i="3" d="M-406 2632h-3h-1h-1l1 -2h2l2 -1v3zM-430 2631v-1h2v-1l2 1v1l-3 1l-1 -1zM-456 2630l-2 1v-1l2 -1l1 -1h2l3 -1v-1h1v2l-3 1l-4 1zM-450 2618l2 -2h1v2l-2 1v-1h-1zM-412 2612l-2 -1h-1l1 -1l2 -1l1 1h-1v2zM-434 2612l-1 -2h1h1v-2h1v2l-2 2zM-460 2646l-4 1v-1l6 -1v-1l2 2h-4zM-482 2640l-3 -3l3 -3v2l-1 2h1v2zM-480 2632v-1h2l1 1l-1 1h-1v-1h-1z"/><path class="chunk" data-i="4" d="M-460 2625l-2 -1v-1l4 -1l2 -2h3l-1 1l-2 2h-2l-2 2zM-492 2627h-2v-3h-1l1 -1h1v3h1v1zM-483 2622h-1v2h-1v-2l1 -2l3 1h-1l-1 1zM-500 2615l-1 -1v-2h1l2 -1v1v2l-2 -1v1v1zM-481 2607h-1v-2h2l2 1v-2l2 2l-2 2l-2 -1v-1h-1v1zM-284 2605l-4 -1l-8 -1v-1l10 1h2v1v1zM-331 2588l-4 2l-5 1l-1 -1l1 -1l4 -1h2l4 -1h1l-1 1h-1zM-359 2566h-1v-2l2 -2h3l-1 1h-2l-1 1v2zM-341 2565l-1 -1v-2h-1l1 -1l2 1l-1 2v1z"/><path class="chunk" data-i="5" d="M-358 2560h-2h-1l1 -2l8 -1v1h-3l-3 2zM-416 2604l-2 -1v1h-2l2 -2h2v2zM-398 2602l-2 1v-1l2 -1l2 -1v2h-2zM-415 2599v-1h1h1l1 1l-1 1v2l-3 -1h2v-1l-1 -1zM-451 2600l-1 1l-1 -1l1 -1h2v-1h1v2h-2zM-409 2597v-1h-1v1h1zM-413 2598v-1h1h1l-1 -1h-1l1 -1h4l1 1h-1v2h-2l-2 1v-1h-1zM-404 2595l-2 1v-2l2 -2l2 1h1l-1 1l-2 1zM-404 2594v-1h-1v1h1zM-454 2589h-2v-1l-2 1v-1v-3l1 1v1l3 1h1l-1 1zM-436 2581l-2 -1h-1l1 -2h-1l1 -1h2l2 1v2l-2 1zM-435 2579v-1h-1v1h1z"/><path class="chunk" data-i="6" d="M-452 2564h1v-2h1h1l-1 2l-2 3l-2 -1v1l-1 -1l2 -2l1 1v-1zM-442 2548v-1h2v-1l2 2h-2v2l-2 -1l1 -1h-1zM-468 2602l-2 -2l2 -1v1l2 -2h1v3h-3v1zM-481 2599l-3 1h-2v-2l2 -1l3 -1l-1 2h1v1zM-492 2600l-2 -2h1v-2h1h1l-1 2v2zM-474 2593h-1v2l-2 -1h-2l-1 -1h-1l1 -1l2 -1l2 1l1 -1h1v2zM-467 2586v-1h-1v1h1zM-470 2588v-1h-1v1h1zM-473 2590l-1 -2l2 -1l2 -1v-2l2 1l2 -2v1v2h2v-2h1v2h1v-1l1 1v2h1l-2 2l-1 -1l1 -1h-1v-1h-2l-1 2l-2 -2v1v1l-2 1l-1 4l-1 -2h1v-2h-2zM-460 2582h-1l1 1v1l-4 -1h-1l1 -1l4 -1v1zM-478 2585h-2v-3h-1l1 -1h2v-1v-1l1 1v2h1h1l-1 2l-2 -1v1v1zM-478 2583v-1h-1v1h1z"/><path class="chunk" data-i="7" d="M-486 2583h-2v-1h1v-2l1 -1v1h2l-2 3zM-464 2574l-2 1v-3v-1l2 1v-1l1 1l1 2h-2zM-477 2575l1 -1h2l-1 -2h1l2 -1l1 1l-3 3l-4 2v2h-2l-2 1v2h-1v-2l1 -2l-2 -2l4 -1v1l2 -1v1l1 -1zM-480 2578v-1h-1v1h1zM-459 2569h1l1 1l-1 1l-4 1l1 -2l1 -1v1l1 -1zM-487 2575h-1l-1 -1l1 -2v1l1 -1h1v-3l1 1l1 2l-1 2l-1 -1v1h-1v1zM-503 2568l1 -1h2l-1 3h-2v-1l1 -1h-1zM-479 2566h1v2h1l-1 2l-2 -1l-1 -1l1 -1l1 -1zM-465 2551v-1l1 -1l2 2l1 1h-1h-2v-1h-1zM-470 2553l1 -1l-1 -2l2 -2h1l-1 2v2l3 -1v1h1v1l-5 1v2h-1v-1l-2 1v-2l2 -1z"/><path class="chunk" data-i="8" d="M-454 2548l-6 -1h-1l1 -1h2v1l2 -1v1h2v1zM-452 2542h-1v-2l-1 -1v1l-2 -2h4v2l1 2h-1zM-434 2532h1v2l-1 1l-1 -1v-1h1v-1zM-443 2534l-9 1l-2 -1v-1l4 -1l2 1l2 -2l3 -1v2h-1v1h1v1zM-427 2531h-3v-1v-1l2 1v-2h1v3zM-437 2531v-1h-1v1h1zM-436 2532v-1h-1v1h1zM-439 2534v-4h-1v-1l1 -1l1 1l2 -1v2l2 2h-1v1h-1v2h-2v-1h-1zM-460 2538v-1l-2 1h-1l1 -2h3v2h-1zM-364 2466h-12l-8 -2l-2 -2h-2l-3 -4l-3 -5l-1 -2l-3 -9v-12l1 -3l1 -2l5 -8h2v-1l1 -2h2v-2l6 -4l2 -1l2 -2l12 -1l2 2h2l1 2l3 6l4 8l1 4v2l5 19v2l-2 5v2l-4 3l-1 1l-5 3l-4 3h-2zM-372 2425v-1l-2 -1h-2l-2 1v1h6zM-371 2426v-1h-1v1h1zM-382 2440v-1h-1v1h1zM-381 2441v-1h-1v1h1zM-380 2442v-1h-1v1h1zM-379 2443v-1h-1v1h1zM-364 2447v-1h-1v1h1zM-376 2448l1 -1h-1l-1 1h1zM-378 2450h1v-2h-1h-1l1 2zM-380 2450l1 -1h-3v1h2zM-583 2411l-1 1h-1l1 2l-2 1h-1l1 -2v-1l2 -2v1h1z"/><path class="chunk" data-i="9" d="M-347 2323h-1l-5 -5l-2 -2v-11l1 -3l2 -3h2l2 -1v1l4 1l5 4v2v6v3h-2v3l-3 2v2l-3 1zM-434 2343l-4 -1l-2 -2h-1l-2 -5l-1 -3v-6v-2l4 -5v-2l6 -1h6h2l1 2v3h2v3v6l-1 2l-5 8l-3 2h-2v1zM-587 2294l-2 2h-2l-1 1l-2 -1v-2l2 -1l1 -1l12 -5h1l2 1l-2 3l-3 1l-6 2zM-541 2265v-1h-1v1h1zM-544 2280v-1h-1v1h1zM-545 2281v-1h-1v1h1zM-475 2241v-1h-1v1h1zM-478 2242l1 -1h-1l-1 1h1zM-518 2245v-1h-2v1h2zM-508 2259v-1h-2v1h2zM-506 2258l6 -3v-1h2l2 -2l15 -8l1 -1l1 -1h-1l-8 2v2l-2 -1v1l-7 2l-3 1v1h-2l-2 2l-9 3l-3 1l-4 3h-1v1l-3 3l-1 1l-5 2l-1 2l-1 1l-4 7v2l1 2l1 1l5 -5l7 -10h2l2 -2v-2l2 -2h2v-2l2 -1h2v-2h4v1h-2v2h1l1 1v-1zM-510 2260v-1h-1v1h1zM-512 2261l1 -1h-1l-1 1h1zM-513 2262v-1h-1v1h1zM-514 2264v-1h-1v1h1zM-515 2265v-1h-1v1h1zM-516 2266v-1h-1v1h1zM-421 2228v-2h-9v1l9 1zM-381 2226v-1h-1v1h1zM-357 2228v-1h-1v1h1zM-353 2233v-1h-1v1h1zM-536 2284v-1h-1v1h1zM-537 2285v-1h-1v1h1zM-551 2286v-1h-1v1h1zM-538 2286v-1h-1v1h1zM-539 2287v-1h-1v1h1zM-545 2302l1 -2l2 -5l1 -2l1 -6h-2v1l-2 2v2l-4 4v2l2 3l1 1zM-555 2290v-1h-1v1h1zM-556 2291v-1h-1v1h1zM-558 2292v-1h-1v1h1zM-560 2294l1 -2h-1l-2 2h2zM-545 2293v-1h-1v1h1zM-562 2295v-1h-1v1h1zM-563 2296v-1h-1v1h1zM-564 2297v-1h-1v1h1zM-532 2303v1l-4 4l-2 3l-4 7l-10 19l-4 15l-2 12l-1 6l-1 2h1l-1 2v4h-1l1 2h-1l-1 3v2l1 2l1 47l1 2h-1l1 2l1 2l4 11l2 3l4 4l2 4l12 11l2 1l24 18l9 6l36 14l7 2l18 3h25l16 -3l3 -1l27 -11l1 -1l2 -2l3 -1l3 -1l16 -11l22 -17v-2h2l13 -13v-2l1 -1h2v-1l2 -2v-3h2l4 -6l12 -25l2 -5l2 -8l1 -43l-3 -13l-4 -11l-1 -2l-2 -2l-1 -2l-2 -6l-4 -6l-15 -20l-3 -5l-8 -9l-12 -12l-4 -3l-18 -16l-4 -3l-6 -4h-2l-2 -2h-2l-9 -4l-8 -1l-41 -4l-2 1v-1l-16 3l-11 2l-21 9l-2 1l-2 2h-2l-7 4l-1 1l-4 3h-2l-2 2l-4 3h-2v2l-2 1l-4 2l-8 6l-2 2l-4 4v1h-2l-1 1h1v1h-2v2l-2 4l-4 7l-4 7l-1 4l-1 3h1l3 -6h2v-2h2v-2l2 -1v1v2h-1l1 1zM-534 2306v-2h-1v1l1 1zM-547 2307v-1h-1v1h1zM-548 2309v-1h-1v1h1zM-537 2309v-1h-1v1h1zM-538 2310v-1h-1v1h1zM-549 2311v-1h-1v1h1zM-554 2320l2 -2l1 -2v-2l1 -2l-1 -1v1l-1 1l-2 5l-1 2h1zM-541 2314v-1h-1v1h1zM-588 2352v-1h-1v1h1zM-576 2349v-1h-1v1h1zM-587 2351v-1h-1v1h1zM-563 2356l1 -6h-1v2l-1 4h1zM-580 2355v-1h-1v1h1zM-569 2356v-2h-1v1l1 1zM-565 2364l1 -8h-1l-1 8h1zM-570 2359v-1l-1 -1v1l1 1zM-578 2374l2 -2v-2l3 -2l1 -3v-3l1 -2l-1 -1v1l-2 2l-1 3l-3 7v2zM-569 2392l3 -24h-1l-1 2v2l-5 18l1 2h3zM-579 2375v-1h-1v1h1zM-581 2378v-1h-1v1h1zM-575 2411v-3l-1 -1v3l1 1zM-569 2421v-7l-1 -1v7h-1l1 1h1zM-478 2546v-1h-1v1h1zM-496 2566l1 -2h-1l-1 1l1 1zM-500 2576v-1h-2v1h2zM-504 2577l-2 -1v-2l2 -2l1 -2v3l-1 1h1l1 1v-1h3v-2l1 -2h1l-1 -1v-1h-1v-1l1 -1h-1v-2l3 -2l3 -2l1 -3l8 -20v-4l2 -3v-2l2 -2l1 -2l1 -2l2 -5h4v-2l-3 -1l-21 -7l-2 -1v1l-2 -2l-6 -1l-2 -2h-1l-5 -4l-4 -2l-10 -8l-11 -8l-11 -9l-1 -1l-1 -3l-8 -11l-2 -2v-2l-2 1l-2 1v8h2v-1l2 1h1l-1 5v2l-4 5l-1 3l-5 19l-2 2l-5 -1v-2v-3l3 -10l1 -3h-1l-2 -1v-3v-4v-4l5 -11l2 -2l1 -8l1 -2h-1v-2l2 -5v-3v-1l-2 1v2l-6 11v1l-2 3l-4 -1h-2l1 -6l5 -16v-2l-1 -2l-1 -2h1l-2 -2l1 -2h-1l1 -4h-1l1 -2v-2h-1l1 -2h-1v-2h-5l-1 -2v-5l3 -3l1 -2l-1 -1h2v-2l2 -2v-1v-1l-3 3l-1 1v-1h-1v2h-1h-1v1h-5l-2 -3v-1v-3l1 -3l3 -7l1 -2h1v-1h-4l-2 -3v-1v-4l1 -4l1 -2l2 -5l1 -2h-1l-8 9l-6 1l-3 -2l1 -7l3 -5l3 -3h1l3 -4l2 -4h-4l-3 -3v-1v-3v-2h1v1l3 -3l10 -18l7 -7h2v-2h2v-3l2 -2h2l1 -2l5 -5l2 -2l11 -8v-1l8 -8l-1 -1h-4l-2 -3v-2l2 -3l2 -1l25 -11l3 -1v-1h-6l-2 -3v-4l2 -1h1l12 -3l6 -2l3 -1l2 -1v1l2 -1v1l2 -1l2 2v4h2l4 -2h6l10 -4l3 -1l5 -2v-3l-2 -4l1 -5v-1l1 -1v1l2 -2h2l2 -1v1l4 4v2l4 4h2v-2h8h3v-2h1v1h2l3 -1l3 -1l2 -3h3v-2h1l5 -4v-2h2h4h1l2 2v1l1 3l-2 2v2h-2v2h1v-1l2 1l6 2h2l3 -1h6h1l4 4h2l2 2l2 -1l4 3v-1h1v2h14l-1 -1h-3l1 -1h10l3 4l1 4h-1l1 2l8 1l1 1v2h1l-1 2l2 2v1v3v2h-3h-1l7 7h1v2l13 10l1 1v2h2v2l1 1h2l8 11l7 10l15 20l13 25l1 3l2 8v45l-2 11l-2 8l-1 2l-2 2l-1 2l-11 22l-7 10l-9 11h-1l-2 1v2h-2v2h-2l-5 6l1 2l2 6v2l14 22v2l2 2l1 2l19 44v2l2 2l1 3l9 18l2 5l1 2l1 2l2 2l10 20l1 2l3 2v6v1l2 -1l2 -1l2 -1h2v-1l2 1h2l3 4l-1 6l-2 3h-4l-1 -1v-2h-2l-7 2l-37 14l-10 4l-5 1l-32 11l-4 1l-2 2l-3 1l-15 4l-4 1v1l-2 -1v1l-20 1v1l-2 -1l-2 1l-2 -1v1l-2 -1h-2v1l-2 -1h-33l-5 -1l-20 -6l-26 -3l-18 -4l-2 -2l-6 -3l-3 -2h-1l-3 -2l1 -2h3l8 3h2l22 5l11 1l2 1v-1l2 1l8 1l4 1l10 2v1l2 -1v1l5 1l5 1l16 1v-1l2 1v-1l2 1l3 -1h1l2 1v-1l42 -3l49 -16l20 -6l3 -1v-1l2 1l2 -2l2 -1l3 -1h1l2 -1v1l2 -1l4 -1l2 -2l1 -1l9 -3l2 -1l2 -2h-2v-2l-3 -5l-1 -3l-2 -2l-1 -3l-1 -2l-4 -7v-2l-1 -2l-2 -2l-1 -3l-21 -49l-1 -2l-2 -2l-1 -3l-16 -35l-1 -2l-2 -2v-2l-4 -10l-2 -7l-5 3l-13 11l-6 3l-6 4l-17 10l-7 4l-19 7l-4 1l-27 4v-1l-2 2l-2 -1h-2l-2 -1l-2 1v-1l-3 3h-1v1l-1 1h1l-1 2l1 2h1l1 1l-1 1v2h-2v-1l1 -1l-2 -2v-1h-1v-1l1 -2h-1v-2l1 -1h2l1 -1v-2h-1v1l-2 -1h-2l-2 -1v1l-2 -1l-3 -1l-11 -2l-5 -2l-3 -1v1h1l-1 2l-1 4l1 2h-1l-1 3l-6 19l-3 2v2l1 2l-2 2v1h-2l-3 9h1l-4 4l-1 5v2h-2l-3 9h-1l1 2l-2 2v1l-6 14l-1 4h-1l-2 1l-1 4l-2 2l1 2l-2 2v1l-2 5l-1 2l-1 2h1l-1 1l-2 1v1h3l-1 1h-3v2l-2 2l1 1l1 1h-1v1h2l1 1l-1 2h1l-2 2v2l-1 1h-2l-5 5v2l-3 3l-5 -1h-2v-2l-1 -6l3 -2v-2l2 -2l4 -9l1 -3l2 -2l1 -4h2v-2h-1h-1l1 -2h3l-1 -1h-2v-1l-1 -2h1l4 -3v1l-1 2h1h1v-2l2 -2v-2h-1v-1h2v-1l2 -2l1 -3l1 -4l1 -2h-1h-1l1 -1h1v-2h2l1 -2l6 -13v-1l1 -2l-2 -1l-1 -1v1zM-520 2620v-1h-2v-1h-1v2h3zM-522 2624v-1h-1v1h1z"/><path class="chunk" data-i="10" d="M502 2223l-4 3l-18 10l-7 4l-13 6l-3 2l-3 2l-4 4l-4 -1v-2l-1 -3l1 -2h4l5 -2l7 -4l14 -6l12 -7l16 -9l2 -3h4v1l-2 2l-2 2l-4 3zM230 2639l-4 1v-1l-2 1l-1 -4l-3 -3l-4 -3l-16 -12l-10 -6l-30 -23l-16 -11l-165 -108l-5 -2l-16 -10l-4 -3l-14 -9l-15 -8l-2 -1v-1l1 -2l2 1l1 1l4 1l3 1l2 2h1l16 8l1 1l2 2h2l2 2l2 1l8 4l4 3l58 38l2 1l4 3h2v2l7 3l64 42l2 2l3 2l8 5l28 18l46 33l10 6l13 10l3 2l2 2l2 -2v-2h2v-1l2 1h2l-1 6l-1 7h-2zM252 2598h-3l-3 -2h-2l-2 -2h-2l-8 -6h-2l-2 -1l-1 -1v-3h4l-1 -1l-2 -2l-50 -37l-44 -31l-10 -6l-8 -5l-18 -13l-22 -16h-2v-2h-2l-39 -26l-7 -6l-35 -20h-1l-2 -2l-3 -1l-2 -1l-19 -10l-5 -2l-3 -1l-2 -2h-3v-3h2h8l3 1l4 1l6 5l41 22l3 1l2 2h1l5 3l6 4l8 6l26 19l8 4l8 7l4 2l8 6l26 19l58 38l70 52l2 1l2 -1l3 4v4l-3 2zM232 2584v-1h-1v1h1zM280 2541h-4l-2 -2l-4 -1l-2 -2h-1v-2l-1 -1l-2 -1h-2l-16 -12l-34 -22l-80 -62l-50 -36l-72 -48l-2 -1l-4 -5l-1 -4l1 -1l3 1l3 1l10 7l5 4l7 5l6 3l7 6l3 1l58 42l2 1v2l3 2l21 15l3 1v2l3 1l9 7l69 53l37 23l5 3l2 2l2 1l2 2h2l2 2l5 2l2 1h5h2v2h2v5l-4 3zM304 2505l-4 1v-2l-2 1v-1v-2l-2 -2h-2v-2l-8 -7l-2 -1l-154 -119l-13 -9l-4 -2l-74 -50l-9 -6l-13 -14l1 -2l4 3l2 1l28 20l9 6l5 2l38 26l2 1v2l2 1l9 6l179 135l2 2l4 4l2 -1l2 2h1v6l-1 1h-2zM260 2409l-2 -1v1l-1 -1v-1l-5 -1v-2l-8 -8l-4 -2l-33 -26l-3 -2v-2h-2l-11 -8l-54 -41v-1l-1 -2l-30 -23l-18 -13l-8 -5l-2 -1l-24 -20l-4 -2l-3 -4l-2 -2l1 -2l6 6l2 1l16 11l2 1l2 2l2 1l2 1l16 9l28 20l18 15v2l7 4v1l1 2l5 2v2h1l10 9v-1h1v2l21 15l2 1v2l6 3l2 2h2v2l2 1l9 6h2v2h2l3 2l4 4l3 2h2v2l4 2l9 8l2 1l4 4h2l4 4h2l2 2h2v2h2l1 1v2l2 2v2l1 2l-2 2v1zM84 2194l2 1l4 3l6 3v2h2v1v1l2 -1l8 8l5 4v2h2v2h1l4 4l4 4h1v2h1v-1l1 1l1 2h2v2l2 1l22 18l4 2l14 11l63 42h2l1 1l2 2l3 1l6 2v2l1 1h2l-1 5v2h-2h-5l-4 -1l-1 -1v-2l-3 -3h-2l-2 -2l-2 -1l-20 -14l-17 -10l-2 -2l-9 -6l-18 -13l-3 -1l-39 -30v-2l-9 -6v-2h-2v-2l-5 -4h-1v-2l-1 -1h-2v-1l-2 -2l-2 -1l-8 -6l-8 -6l-2 -1l-7 -6l-3 -5v-2l1 -3h3h1l-1 2h3l1 2v1l1 -1h1v2l2 1v1h1l1 1v-1zM87 2197v-1h-1v1h1zM92 2200v-1h-1v1h1z"/><path class="chunk" data-i="11" d="M246 2706h-5l-1 -4h-2l-3 -4l-5 -5l-1 -1l-13 -9l-8 -6l-60 -45l-56 -40h-2l-65 -44h-2v-2h-2l-11 -7l-6 -5l-24 -14l-4 -2l-34 -22l-12 -9l-32 -19l-16 -11l-2 -1l-2 -2h-2l-2 -2h-2l-4 -3l-14 -11l-2 -2v-1h-2v-2l-8 -5l-1 -2l-1 -1v-2l-1 -2l-1 -6h2v-1l4 -5h2l6 -7l7 -8l1 -3h2v-2l11 -14h2l5 -7l3 -6l16 -20l1 -3l1 -1l2 -2l1 -3l2 -5v-2l8 -11v-2l8 -12l12 -15l2 -3l2 -3l20 -25l18 -21l30 -35l9 -11l8 -11h1l2 -1l10 -14l8 -12l8 -11l8 -9l4 -4l1 -3l1 -4l3 -8v-1l1 -2l2 1l2 2l2 -1h1h5h2l6 4l2 1v2h2l2 2l6 3l5 3l5 3h2l2 2l2 1l6 2l2 1l2 2h2l2 2l3 1l14 7l3 1l31 23l6 6l4 2v2l25 21l12 9v2l8 5v2h2v2l40 31l45 28l5 3l14 9l20 15l8 5l2 1l2 2l2 1l9 4l3 1l4 3l2 2h2l2 2h2l2 2l2 1l6 3l2 1v2l2 1l4 2l6 4l62 28l5 2l7 4l4 1l2 1l2 2l3 1l6 3l6 3l1 4l1 3l-2 2l-2 2v2l-1 2h-2v2l-8 8h-2v2l-21 18l-13 10v2l-2 1h-1v2h-1l-6 5l-4 7h-2l-25 29l-3 4l-11 14l-12 15h-2l-8 11l-3 6l-4 4l-19 22l-1 1h-2l-4 5l-21 24l-1 2h-2l-1 2l-2 2l-9 12h-2v2h-2v2h-2l-18 24l-24 26l-2 4l-11 14l-13 15l-6 3v2h-2zM246 2699l18 -19l2 -2l10 -12l1 -2l5 -5l3 -3l16 -18l3 -4l2 -2l15 -20h1l3 -2v-2h2l22 -28h2v-2h2l9 -12h2v-2l2 -1l11 -11l9 -10l5 -8l1 -2l5 -6l19 -22l14 -19l1 -3h2l3 -5l29 -31l1 -2l27 -21v-1l1 -2h2l13 -14l5 -6l2 -4v-2h1l-1 -2h-2l-2 -2h-2l-2 -2l-2 -2h-2l-2 -2h-2l-5 -4l-14 -6l-5 -2h-2l-2 -2l-2 -1l-17 -7l-5 -3h-2l-2 -2l-2 -1l-17 -7l-11 -5l-6 -5l-3 -1l-1 -1l-4 -3h-2v-2l-4 -1l-2 -2l-3 -1h-2l-7 -6l-104 -67l-33 -25l-3 -2v-2l-30 -24l-26 -23l-4 -3l-2 -2l-13 -10l-9 -6l-8 -5l-2 -1l-2 -2l-2 -1l-23 -11l-7 -4l-16 -8l-8 -4h-2v-1l-2 1v-2l-2 -1v1l-2 -1l-2 -1l-2 2h-2v2l-2 2l-1 2l-1 2l-4 7h-2l-14 20l-7 9l-6 8l-2 4l-1 1h-2l-12 15l-4 6l-7 8l-2 4l-1 1h-2l-5 8h-2l-3 5l-4 4h-1v3h-2v1l-1 2h-2l-1 2l-2 4h-1l-2 2l-2 2l-9 12l-3 3l-15 19l-1 1h-2l-1 3l-6 8l-1 2l-2 2v3h-2l-2 3l-4 6l-1 2l-2 2h1l-1 2l-1 2l-4 6l-1 2h-1l-2 2l-4 5v2l-1 1l1 2h-1l-1 5h-2l-1 3l-7 8l-1 3h-2l-1 3l-4 4l-8 12l-26 33l-1 1l-7 8h-2v2l-2 2l1 3v1l5 5l4 3v2h2v2l2 1l9 7l13 8l22 16l9 4l16 10l2 2l3 2l8 6l24 15l12 9l36 21l16 11l8 6l6 4l12 9l40 25l38 28l22 14l16 12l12 8l25 20l11 7l12 9l2 1l5 5l3 3l4 2zM372 2144l-2 1l-3 -3l-1 -2h1l1 -2v-2l2 -6l2 -2v-3l3 -6l59 -130l6 -12l1 -1l3 -4h3l-1 2l-8 17l-12 29l-1 4l-2 4l-3 8l-1 2l-2 2l-1 2l-7 16l-1 2l-2 2v2l-16 33l-1 3l-2 2l-1 2l-8 21v3l2 -1l2 -1l2 2h-1l-5 8l-4 6v2h-2zM378 2130v-1h-1v1h1z"/></g><g class="f live" data-r data-f="0" fill="var(--live,#000)" fill-rule="evenodd"><path class="chunk" data-i="9" d="M-36 2151l-8 -3l-3 -2l-35 -26l-12 -8l-17 -14l-5 -8h-1l3 -3l5 1l5 1l2 1l-2 2h-4h-1l5 6l14 10l44 32l5 2l6 3h1l2 1v2l-2 2l-2 1zM153 2050l-3 -1l-2 -1l-2 -6l-12 -32l-6 -18l-2 -23v-18l1 -5l1 -4l2 -1h2l-1 11h-1l1 2h-1l1 8h-1l1 2l1 8l4 24l2 10l8 18l4 11l3 5l1 1h2l3 3v2l-3 2h-1l-2 2zM-12 2039l-2 5l-1 2l-2 2v2l-3 2l-3 -1h-1l-2 -1l-1 -4l-3 -4v-1l-2 -3l-14 -18l-28 -39l-6 -10l-1 -1l-2 -2l-1 -3l-4 -13l-1 -4h-1l1 -2v-1l2 -1h2l2 1l1 5l3 2v2l-1 3l2 4v2l6 9l12 18l18 26l1 2h2l1 3l11 13l2 2l3 4h2l4 -5h5l-1 4zM651 2542h-4l-7 -2l-12 -4l-48 -22l-6 -2l-9 -1l-1 -5l2 -1h2v-1l2 1l1 1l14 6l58 26l5 2h3l7 -3l4 -4h2v1l-6 6h-1l-2 1l-4 1zM754 2436l-46 -8l-46 -10l-40 -10l6 6v3h-3v-2l-6 -3l-6 -3l-3 -1l-2 -2h-1v-4l3 -2l3 1l13 5l108 24l20 3l1 1h-1v2z"/><path class="chunk" data-i="10" d="M566 2316h-6l-2 2l-10 2l-2 -2v-2l2 -3l3 -1h2l11 -8l27 -13l3 -2h2l2 -2h2l2 -2l1 -1l20 -9l3 -1l2 -2h1l15 -8l3 -2h1l2 -2h3v2l-3 2l-6 4l-11 6l-5 2l-47 24l-13 8l-4 2l-2 1l-1 1l1 1h2l2 1v2zM561 2314v-1h-1v1h1zM436 2162l-4 2v2h-2l-5 1v-2v-3l3 -6h2v-2h2v-2l18 -14l3 -2v-2l28 -20l33 -29l2 -1v-2h2l5 -6l14 -16l7 -11l7 -11l3 -3h1v3l-2 2l-12 20l-16 20l-1 1h-2l-1 1v2l-73 60l-10 10h2l2 -1v1l2 -1l2 1v2l-2 2h-1l-7 4z"/><path class="chunk" data-i="11" d="M208 2121l-2 -1l-2 -2l-1 -6l3 -2l3 -13l1 -5h1l-1 -2h1l1 -13l2 -9l4 -10l9 -25l7 -17l1 -2l2 -2l1 -2v-2l12 -20l2 -1l1 1l-1 4l-2 2v2l-2 4l-1 2l-2 2l-1 3l-5 11l-3 5l-7 18l-7 21l-3 12h-1l1 2h-1v4h-1l1 2h-1l-1 8h1l-1 2v4h-1l1 2l-1 2h1l-1 2l-3 16l-2 2l-2 1z"/></g><g class="f live" data-f="1" fill="var(--live,#000)" fill-rule="evenodd"><path class="chunk" data-i="9" d="M-33 2151l-6 -2l-3 -2l-43 -31l-11 -10l-16 -8l-4 -6h-1l2 -2l6 1h5l2 1l-2 1h-5l-1 1l6 3l13 7l49 36l5 2l5 3h1l1 2v2l-1 1h-1l-1 1zM150 2051l-3 -2l-1 -2l-1 -7l-11 -30l-5 -18l-2 -19v-19l1 -6l1 -5l2 -1h3l-1 13l-1 1l1 1l-1 1v8l-1 1h1v8l3 21l3 9l6 15l4 12l2 6l1 2l1 1l3 3v3l-2 3h-1l-2 1zM-16 2036l-3 4l-1 3l-2 2v2l-2 3h-3l-1 -1l-2 -1v-4l-2 -3l-1 -1v-3l-9 -18l-32 -39l-7 -11l-1 -1l-2 -2l-1 -2l-6 -13v-4l-1 -1l1 -1v-1l2 -1l1 -1l2 1l1 5l3 3v2v3l1 4l1 2l6 9l13 22l23 22v1h2l1 3l6 12l1 3l2 4l1 -1l5 -5h5l-1 4zM651 2539h-4l-5 -1l-11 -2l-54 -27l-8 -2h-9l-1 -4l2 -1l2 -1l1 -1l1 1l1 1l17 6l62 28l4 1h2l7 -2l4 -3h2v1l-6 5h-2l-2 1h-3zM756 2435l-46 -3l-49 -17l-39 -7l5 4l-1 1l-2 1v-1l-5 -2l-4 -1h-1l-2 -2h-1v-3l2 -3l3 1l9 3l112 25l19 1h1l-1 1v2z"/><path class="chunk" data-i="10" d="M566 2316l-4 1l-2 2l-9 4l-2 -3v-2l3 -3l2 -1l1 -1l9 -6l31 -14l3 -2l1 -1l2 -2l2 -1l2 -2l1 -1l17 -10h2l3 -2h1l14 -8l2 -2l1 -1l2 -2h2v1l-2 3l-6 5l-10 6l-5 2l-44 26l-15 7l-3 2l-2 1l-1 2h3l1 1v1zM562 2315v-1h-1v1h1zM437 2160l-4 2l-1 1h-2l-4 1v-1v-2l4 -4h2v-1l2 -1l1 -1l18 -16l2 -3l1 -1l26 -19l31 -30l2 -2l1 -1h1l7 -5l13 -21l7 -10l8 -9l4 -2h1v1l-3 2l-14 18l-14 24l-2 1h-1l-2 2l-1 1l-69 60l-10 10h2l1 -1l1 1l1 -1l1 -1l1 1l-1 2l-1 1l-2 1l-7 3z"/><path class="chunk" data-i="11" d="M206 2117l-2 -1l-2 -3l-1 -5l3 -3l4 -10l1 -3l2 -1l-2 -1h2l3 -11l3 -10l2 -12l8 -21l9 -16l1 -2l2 -2l1 -3l1 -2l9 -19l1 -1l1 2v3l-2 2v1l-1 4v2l-2 2v3l-6 11l-3 6l-9 15l-6 19l-2 13l-1 2l1 1l-1 1v3l-1 1l1 1l-2 1l-1 5l1 1l-2 1v3h-1l1 1l-1 1h-1l1 1l-1 1l-5 16l-1 2h-1l-1 1z"/></g><g class="f live" data-f="2" fill="var(--live,#000)" fill-rule="evenodd"><path class="chunk" data-i="9" d="M-33 2151l-10 -1l-3 -1l-37 -28l-15 -9l-12 -16l-3 -7l-1 -1l2 -3l4 1h4l1 2l-1 1l-4 1l3 6l10 14l50 33l6 3l7 1h2l1 1v1l-2 1h-1l-1 1zM155 2051l-4 -1l-3 -1l-2 -6l-13 -37l-1 -14l-3 -21l-3 -20l1 -4v-3l2 -1h3v9l-1 1l1 1l-1 1l2 7l-1 1l1 1l2 9l2 21l1 8l5 20l7 13l4 5l2 1h3l3 3v2l-2 3h-2l-3 2zM-13 2038l-2 4v2l-2 2v2l-2 3l-4 -2l-1 -1l-2 -2l-1 -4l-3 -4l-1 -2l-2 -2l-13 -13l-29 -36l-7 -13l-1 -2l-2 -3v-3l-4 -17v-3l-1 -1l1 -1v-1l2 -1l2 1h1l1 4l3 4v2l-1 3l1 5l1 3l6 12l17 18l15 25v1l1 1l2 2l10 9l3 3l3 4h1l4 -4l4 1v4zM649 2542h-4l-6 -1l-9 -5l-51 -19l-6 -3l-7 -4l-2 -5l1 -1h2l1 -1l1 2l1 1l13 10l59 23l4 1l3 -1l6 -3l3 -5h3v2l-5 6l-2 1l-1 1l-4 1zM752 2432l-42 -2l-51 -11l-35 -13v1l4 6v3l-2 -1l-1 -1l-4 -5l-6 -3h-3l-2 -2h-2v-2l3 -2h4l12 4l108 26h18h1l-2 1v1z"/><path class="chunk" data-i="10" d="M567 2314l-5 -1l-2 2l-10 1l-3 -1v-2l4 -2h2l3 -1l11 -7l21 -17l3 -2h2l2 -2h2l3 -1l1 -1l19 -8l2 -1l2 -2l1 -1l18 -9l3 -2h2l2 -2l3 1v1l-3 3l-8 4l-12 7l-5 3l-46 22l-9 10l-3 2l-2 1l-2 1l1 1h2l1 1v2zM563 2312v-1h-1v1h1zM432 2161l-3 3l-1 2h-1h-4l-1 -2l1 -3l3 -7h1v-2l1 -1l1 -2l19 -16l3 -1l1 -1l26 -22l34 -27l1 -2l1 -1l6 -7l16 -15l7 -8l5 -13l2 -3h1v3l-2 2l-10 19l-18 18l-1 2h-1l-2 2v1l-73 60l-11 11h1h2l1 -1l1 1l1 -1h1l2 2v2l-2 2l-1 1l-7 4z"/><path class="chunk" data-i="11" d="M206 2121l-2 -1l-2 -3l-1 -6l2 -2l3 -14v-5l1 -1v-1v-2l3 -14l4 -8l5 -7l11 -23l7 -19v-2l2 -2l1 -2l1 -1l14 -17l2 -2l1 1l-1 4l-2 2v2l-3 3l-1 2l-2 2l-1 2l-8 9l-2 5l-7 21l-9 17l-5 9l-2 1l1 1l-1 1l-1 3l-1 2l1 1l-1 1l-2 8l1 2l-1 1v5l-1 1l1 2v1l-1 1l1 1l-1 2v17l-2 1h-1l-1 1z"/></g><g class="f jolt-f live" data-f="3" fill="var(--live,#000)" fill-rule="evenodd"><path class="chunk" data-i="9" d="M-42 2148l-4 -3l-1 -2l-31 -18l-13 -14l-26 -16l-6 -8v-1l3 -3l6 1l7 1l2 2l-2 1h-6l-1 1l8 6l19 12l42 29l2 1l3 2h1v2v3l-2 2l-1 2zM153 2054l-3 -1l-2 -2l-1 -7l-20 -32l-6 -26l6 -22l6 -8l2 -4l1 -4l1 -2h2l-2 10h-1v1v1l-2 3h-1l-2 4l-1 28l4 14l11 20l6 11l2 6l2 2h2l3 3v2l-3 2h-2l-2 1zM-10 2044l-2 6l-2 2l-3 2l1 1l-4 2h-5l-3 -1l-2 -1l-2 -4l-4 -3v-2l-2 -3l-12 -28l-20 -34l-8 -9l-1 -1l-3 -1l-1 -2l-11 -11l-2 -4l-1 -2l1 -1v-1l2 -1l3 1l3 1l2 6l6 3v2v2l3 3l1 1l8 7l7 16l16 19l1 2l1 1l2 4l9 21l2 4l5 5h2l7 -6h6v4zM648 2538l-4 -1l-7 -3l-13 -4l-37 -13l-9 -1h-13l-3 -5l2 -1l3 -1l2 -1l1 1l2 1l21 4l48 17l5 2h3l6 -2l3 -3l2 1v1l-4 6h-1l-2 1l-5 1zM749 2437l-36 -11l-49 -7l-49 -14h-1l8 7v2h-4l-1 -1l-7 -4l-5 -2h-1l-1 -2h-1l1 -4l2 -3h3l12 4l108 24l22 7l1 1l-2 1v2z"/><path class="chunk" data-i="10" d="M559 2314l-7 1l-2 2l-8 3l-2 -2l1 -2l1 -3l2 -1l1 -2l13 -10l29 -9l3 -1h1l2 -2h2l2 -2h2l23 -13h2l2 -2h1l11 -4h2h2l2 -2l3 1l1 1l-3 2l-6 2l-9 3l-4 2l-47 20l-16 8l-5 3l-3 2l-2 2h1h4l2 1l-1 2zM553 2312v-1h-1v2l1 -1zM437 2156l-5 3v2h-2l-6 1l-1 -2v-4l5 -6h2v-1l2 -1v-1l13 -9l2 -2l1 -1l28 -22l36 -29l1 -2v-2h2l4 -4l13 -17l10 -15l7 -14l3 -1h1l1 2l-2 2l-14 27l-15 20l-1 1h-2l-1 1v2l-76 59l-6 6h1h1h1l1 1v-1h1l1 2v2v1h-1l-5 2z"/><path class="chunk" data-i="11" d="M211 2125l-2 -2l-4 -3l-2 -5l4 -4l3 -15v-5l1 -1l-2 -1l1 -1l-2 -13v-9l1 -12l14 -28l10 -10l1 -1l1 -1l1 -3v-1l12 -24l2 -1l1 1l-2 4l-3 2v2l-3 5l-1 3l-2 2v3l-4 10l-2 3l-10 12l-10 28v14l-1 1l1 1v1l1 3h-1l1 2l1 7l2 1h-1l1 4l-1 2l2 1v1l-1 1l1 1l-1 1l-2 21l-2 2h-1l-2 1z"/></g><path class="grain" fill="#000" fill-rule="evenodd" d="M-328 2648h-1v-1h1v1zM-330 2649h-2v-1v-1l2 1v1zM-322 2646h-2v-1h2v1zM-325 2647h-1l-1 -1l1 -1l1 1v1zM-320 2645h-1v-1h1v1zM-328 2646h-1v-3l1 1v2zM-332 2645v-1l2 -1v1l-2 1zM-321 2643h-1v-1h1v1zM-326 2644l-2 -2h2v2zM-313 2642h-1v-1h1v1zM-317 2643l-1 1h-2l1 -3v1l1 1h1zM-324 2642h-1l1 -1h1l-1 1zM-328 2642h-1v-1h1v1zM-311 2641h-1v-1h1v1zM-326 2641h-1v-1h1v1zM-330 2641h-1l1 -1h1l-1 1zM-307 2640h-1v-1h1v1zM-328 2640h-1v-1h1v1zM-331 2640h-1v-1h1v1zM-305 2639h-1v-1h1v1zM-322 2638h-2v-1h3l-1 1zM-327 2638h-1v-1h1v1zM-299 2637h-1v-1h1v1zM-329 2637h-1v-1h1v1zM-301 2636h-1v-1h1v1zM-324 2636h-1v-1h1v1zM-293 2635h-1v-1h1v1zM-310 2637l-2 -1v-1l4 -1l-2 3zM-316 2635h-1v-1h1v1zM-320 2637l-1 -1l3 -2v2l-2 1zM-329 2635h-1v-1h1v1zM-312 2634h-1v-1h1v1zM-314 2634h-1v-1h1v1zM-297 2633h-1v-1h1v1zM-328 2633h-1v-1h1v1zM-291 2632h-1v-1h1v1zM-314 2633v-1l2 -1h1l-1 1l-2 1zM-316 2632h-2v-1h3l-1 1zM-327 2632h-1v-1h1v1zM-324 2631h-1l1 -1h1l-1 1zM-328 2631h-1v-1h1v1zM-331 2632l-1 -1v-1h1v2zM-291 2630h-1v-1h1v1zM-295 2630h-1v-1h1v1zM-308 2631l-2 -1v-1h3v1l-1 1zM-314 2630h-1v-1h1v1zM-318 2630h-1v-1h1v1zM-325 2630h-1v-1h1v1zM-297 2629h-1v-1h1v1zM-299 2629h-1v-1h1v1zM-313 2629h-1v-1h1v1zM-316 2629h-2v-1h2v1zM-321 2630h-1l-2 -2h3v2zM-296 2628h-1v-1h1v1zM-302 2628h-1v-1h1v1zM-305 2628h-1v-1h1v1zM-311 2628h-1v-1h1v1zM-325 2628h-1v-1h1v1zM-330 2627v1l-1 -1h1zM-306 2627h-1v-1h1v1zM-312 2627h-1v-1h1v1zM-314 2627h-1v-1h1v1zM-318 2628l-1 -1v-1h1v2zM-320 2627h-1v-1h1v1zM-304 2627v-1l4 -1h1l-1 1h-2l-2 1zM-315 2626h-1v-1h1v1zM-321 2625l-1 1v-1h1zM-323 2626h-1v-1h1v1zM-292 2625h-1l1 -1h1l-1 1zM-294 2627l-1 -1v-2h1l1 2l-1 1zM-312 2625h-1v-1h1v1zM-314 2625h-1v-1h1v1zM-317 2625h-1v-1h1v1zM-324 2625h-1v-1h1v1zM-328 2625h-1l1 -1h1l-1 1zM-284 2624h-1v-1h1v1zM-289 2624h-1v-1h1v1zM-295 2624h-1v-1h1v1zM-298 2624h-1v-1h1v1zM-310 2627l-1 -1v-3l1 1v3zM-315 2624h-1v-1h1v1zM-318 2624h-1v-1h1v1zM-321 2625v-1l1 -1v1v1h-1zM-322 2625l-1 -1v-1h1v1v1zM-325 2624h-1v-1h1v1zM-288 2623h-1v-1h1v1zM-293 2623h-1v-1h1v1zM-308 2623h-1v-1h1v1zM-320 2623v-1h1l-1 1zM-323 2623h-1v-1h1v1zM-287 2622h-1v-1h1v1zM-295 2622h-1v-1h1v1zM-311 2623l-1 -1v-1l1 1v1zM-328 2622h-2v-1h2v1zM-292 2622l-1 -1v-1h1v2zM-312 2621h-1v-1h1v1zM-285 2621h-1l-1 -1l1 -1l1 1v1zM-313 2620h-1v-1h1v1zM-282 2619h-2v-1l2 -1v1v1zM-286 2618h-1v-1h1v1zM-318 2618v-1l1 1h-1zM-287 2617h-1v-1h1v1zM-284 2615v1l-1 -1h1zM-286 2616h-1v-1h1v1zM-305 2616h-1v-1h1v1zM-282 2617v-1v-2l2 2l-2 1zM-285 2615h-1v-1h1v1zM-301 2615h-1v-1h1v1zM-320 2615h-1v-1h1v1zM-327 2615h-1v-1h1v1zM-280 2614h-1v-1h1v1zM-285 2614v-1h2l-1 2v-1h-1zM-296 2614h-1l1 -1h1l-1 1zM-303 2613h-1v-1h1v1zM-320 2613h-1v-1h1v1zM-280 2612h-1v-1h1v1zM-282 2612h-1v-1h1v1zM-291 2612h-1v-1h1v1zM-279 2611h-1v-1h1v1zM-289 2611h-1v-1h1v1zM-292 2611h-1v-1h1v1zM-325 2611h-1v-1h1v1zM-283 2610h-1h-1l1 -2h1v2zM-305 2609h-1v-1h1v1zM-280 2610l-2 -2l2 -1v1v2zM-284 2608h-1v-1h1v1zM-314 2608h-1v-1h1v1zM-286 2608l-1 -1l1 -1h1l-1 2zM-298 2607h-1v-1h1v1zM-300 2607h-1v-1h1v1zM-309 2607h-1v-1h1v1zM-282 2607l-2 -1v-1h2v1v1zM-288 2607l-3 -1l-2 1v-2h5l1 1l-1 1zM-294 2606h-3l1 -1h2v1zM-299 2606h-1v-1h1v1zM-311 2606h-1v-1h1v1zM-306 2606l-2 -2h2v2zM-300 2604h-1l1 -1h1l-1 1zM-394 2662h-1v-1h1v1zM-382 2661h-1v-1h1v1zM-377 2659h-1v-1h1v1zM-385 2659h-1v-1h1v1zM-390 2659h-1v-1h1v1zM-392 2660h-2l2 -2l1 2h-1zM-356 2658h-1v-1h1v1zM-382 2658h-1v-1h1v1zM-394 2658h-1v-1h1v1zM-351 2657h-1v-1h1v1zM-353 2657h-1v-1h1v1zM-360 2657h-2v-1h2v1zM-379 2657h-1v-1h1v1zM-391 2657h-1v-1h1v1zM-393 2657h-1v-1h1v1zM-348 2656h-2v-1h2v1zM-356 2656h-1l1 -1h1l-1 1zM-362 2656h-2v-1h2v1zM-388 2656h-1v-1h1v1zM-392 2656h-1v-1h1v1zM-345 2655h-1v-1h1v1zM-351 2655h-1v-1h1v1zM-361 2655h-1v-1h1v1zM-385 2655h-1v-1h1v1zM-348 2654h-1v-1h1v1zM-383 2654h-1v-1h1v1zM-388 2654h-2v-1h2v1zM-340 2653h-1l1 -1h1l-1 1zM-346 2653h-1l1 -1h1l-1 1zM-363 2653h-1v-1h1v1zM-374 2653h-1l1 -1h1l-1 1zM-380 2653h-2v-1h2v1zM-337 2652h-1v-1h1v1zM-353 2652h-1v-1h1v1zM-360 2652h-1v-1h1v1zM-386 2652h-1v-1h1v1zM-335 2651h-1v-1h1v1zM-340 2651h-1v-1h1v1zM-349 2651h-1v-1h1v1zM-365 2653l-1 -1v-2h1v3zM-375 2651h-1v-1h1v1zM-382 2651h-1v-1h1v1zM-394 2651h-1v-1h1v1zM-334 2650h-1v-1h1v1zM-338 2650h-1v-1h1v1zM-360 2650h-1v-1h1v1zM-343 2650h-1h-1l1 -2h3l-1 1l-1 1zM-350 2649h-1v-1h1v1zM-359 2649h-1v-1h1v1zM-377 2649h-1v-1h1v1zM-392 2649l-1 -1h1v1zM-396 2649v-1h1l-1 1zM-338 2648h-1v-1h1v1zM-344 2648h-1v-1h1v1zM-368 2648h-1v-1h1v1zM-380 2650l-2 -2l2 -1l1 1l-1 2zM-388 2649h-1v-1l1 -1l1 1l-1 1zM-392 2648v-1l1 1h-1zM-395 2647h1l1 1h-1h-1v-1zM-372 2647h-1v-1h1v1zM-385 2648l-1 -1v-1h1v2zM-396 2647v-1l1 1h-1zM-332 2647h-2v-2h2v2zM-342 2646h-1v-1h1v1zM-347 2646h-1v-1h1v1zM-363 2646h-1v-1h1v1zM-380 2646h-1l1 -1h1l-1 1zM-382 2647h-2v-1v-1l2 1v1zM-390 2646h-1v-1h1v1zM-362 2645h-1v-1h1v1zM-372 2645h-1v-1h1v1zM-376 2645v1h-2l1 -2l1 1zM-381 2645h-1v-1h1v1zM-384 2645h-1v-1h1v1zM-388 2647l-1 -2l1 -1l1 2l-1 1zM-391 2645h-1v-1h1v1zM-339 2644h-1v-1h1v1zM-353 2644h-1v-1h1v1zM-355 2645l-1 -1v-1l1 1v1zM-377 2644v-1h2l-1 2v-1h-1zM-385 2644h-1v-1h1v1zM-387 2644h-1v-1h1v1zM-346 2643h-1v-1h1v1zM-357 2643h-1v-1h1v1zM-363 2643h-1v-1h1v1zM-374 2644v-1l2 -1h1l-1 1l-2 1zM-380 2642h1v2l-2 -1h1v-1zM-386 2643h-1v-1h1v1zM-388 2643h-1v-1h1v1zM-394 2645l-1 -1l2 -2h1h1l-1 2h-2v1zM-332 2642h-1v-1h1v1zM-334 2643l-2 -1v-1h2v1v1zM-349 2642h-1v-1h1v1zM-351 2642h-1v-1h1v1zM-359 2642h-1v-1h1v1zM-361 2642h-1v-1h1v1zM-377 2642h-1v-1h1v1zM-333 2641h-1v-1h1v1zM-339 2641h-1v-1h1v1zM-341 2641h-1v-1h1v1zM-348 2641h-1l1 -1h1l-1 1zM-354 2641h-1v-1h1v1zM-375 2641h-1v-1h1v1zM-378 2640v1l-1 -1h1zM-390 2642v-1l2 -1l-2 2zM-334 2640h-1v-1h1v1zM-336 2640h-2v-1h2v1zM-340 2640h-1v-1h1v1zM-346 2641l-1 -1l1 -1h1v1l-1 1zM-356 2640h-1v-1h1v1zM-381 2640h-1v-1h1v1zM-387 2640h-1v-1h1v1zM-333 2639h-1v-1h1v1zM-351 2639h-1v-1h1v1zM-363 2639h-1v-1h1v1zM-379 2640h-1v-2h1v2zM-382 2639h-1v-1h1v1zM-385 2641l-1 -1v-2h1v3zM-334 2638h-1v-1h1v1zM-336 2638h-2v-1h2v1zM-344 2640l-1 -2l1 -1l1 1v2h-1zM-350 2638h-1v-1h1v1zM-352 2638h-1v-1h1v1zM-354 2638h-1v-1h1v1zM-357 2638h-1v-1h1v1zM-360 2638h-3l1 -1h2v1zM-380 2638h-1l1 -1v1zM-394 2638h-1v-1h1v1zM-345 2637h-1v-1h1v1zM-365 2637h-1v-1h1v1zM-369 2637h-1v-1h1v1zM-380 2637v-1l1 1h-1zM-384 2638h-1l1 -2h2l-2 2zM-391 2637h-1v-1h1v1zM-330 2636h-3l1 -1h2v1zM-340 2638h-2l1 -2l1 -1l1 1l-1 2zM-346 2636h-1v-1h1v1zM-348 2637l-1 -1v-1l1 1v1zM-384 2636h-1v-1h1v1zM-386 2636h-1v-1h1v1zM-390 2636h-1v-1h1v1zM-395 2636h-1v-1h1v1zM-336 2634h2v1h-2v-1zM-336 2635v1h-3v-2h2l1 1zM-342 2635h-1v-1h1v1zM-345 2635h-1v-1h1v1zM-364 2635h-3l1 -1h2v1zM-371 2635h-1v-1h1v1zM-376 2635h-1v-1h1v1zM-380 2636h-2l2 -2h1l-1 2zM-387 2635h-1v-1h1v1zM-337 2634l1 -1v1h-1zM-344 2634h-1l1 -1h1l-1 1zM-352 2634h-1v-1h1v1zM-360 2634h-1v-1h1v1zM-369 2634h-1v-1h1v1zM-378 2634h-1v-1h1v1zM-381 2634h-1v-1h1v1zM-332 2634h-2v-2l2 2zM-342 2633h-1l1 -1h1l-1 1zM-347 2634l-1 -1v-1h1v2zM-358 2633h-1l1 -1h1l-1 1zM-376 2633h-1l1 -1h1l-1 1zM-382 2633h-2v-1h2v1zM-337 2632h-1v-1h1v1zM-344 2631v1l-2 -1h2zM-354 2632h-1l1 -1h1l-1 1zM-371 2632h-1v-1h1v1zM-374 2632h-1v-1h1v1zM-380 2632h-1v-1h1v1zM-338 2631h-1v-1h1v1zM-344 2630h1l-1 1v-1zM-359 2631h-1v-1h1v1zM-377 2631h-1v-1h1v1zM-336 2630h-2v-1h2v1zM-353 2630h-1v-1h1v1zM-355 2630h-1v-1h1v1zM-374 2630h-2v-1h3l-1 1zM-334 2629h-1v-1h1v1zM-346 2630v-2l2 2h-2zM-349 2629h-1v-1h1v1zM-352 2629h-1l1 -1h1l-1 1zM-360 2629h-2v-1h2v1zM-362 2630h-2v-2l2 2zM-372 2629h-1l1 -1h1l-1 1zM-333 2628h-1v-1h1v1zM-343 2629l-1 -1v-1l1 1v1zM-347 2628l1 -1v1h-1zM-349 2628l1 -1v1h-1zM-355 2628h-1v-1h1v1zM-358 2628h-2v-1h2v1zM-370 2628h-1v-1h1v1zM-368 2629l-1 -1l1 -2h3l-1 1h-1v1l-1 1zM-331 2627h-2v-1l1 -1l1 1v1zM-358 2626h-1l1 -1v1zM-394 2626h-2v-1h3l-1 1zM-334 2624h1l-1 1v-1zM-340 2625h-1v-1h1v1zM-346 2625h-1v-1h1v1zM-359 2625h-1v-1h1v1zM-365 2625h-1v-1h1v1zM-374 2625h-1l1 -1h1l-1 1zM-392 2625h-1l1 -1h1l-1 1zM-335 2624l1 -1v1h-1zM-345 2624h-1v-1h1v1zM-371 2624h-1v-1h1v1zM-388 2624h-1v-1h1v1zM-395 2624h-1v-1h1v1zM-332 2624l-1 -1l3 -1v1h-2v1zM-350 2626l-4 -1v-2h2v-1l2 2v2zM-368 2623h-1l1 -1h1l-1 1zM-383 2623h-1v-1h1v1zM-392 2623h-1v-1h1v1zM-356 2621v1l-1 -1h1zM-364 2622h-2v-1h2v1zM-389 2622h-1v-1h1v1zM-346 2621h-1v-1h1v1zM-348 2622l-1 -1v-1h1v2zM-356 2620h1l-1 1v-1zM-357 2621h-1v-1h1v1zM-360 2621h-1v-1h1v1zM-366 2621h-1v-1h1v1zM-340 2620h-1v-1h1v1zM-347 2620h-1v-1h1v1zM-349 2620h-1v-1h1v1zM-354 2620h-1v-1h1v1zM-357 2620l1 -1v1h-1zM-362 2620h-1v-1h1v1zM-373 2620h-1v-1h1v1zM-369 2619h-1v-1h1v1zM-379 2619h-1v-1h1v1zM-332 2618h-1v-1h1v1zM-387 2617h-1v-1h1v1zM-358 2616h-2v-1h2v1zM-357 2615h-1v-1h1v1zM-391 2615h-1v-1h1v1zM-334 2614h-1v-1h1v1zM-354 2614h-2v-1h2v1zM-364 2615l-1 -1v-1l1 1v1zM-394 2614h-2v-1h2v1zM-353 2613h-1v-1h1v1zM-392 2613h-2v-1h2v1zM-350 2612h-1v-1h1v1zM-390 2612h-2v-1h2v1zM-348 2611h-1v-1h1v1zM-385 2611h-1v-1h1v1zM-388 2611h-2v-1h2v1zM-346 2610h-2v-1h2v1zM-386 2609h-1v-1h1v1zM-390 2609h-1v-1h1v1zM-337 2608h-1v-1h1v1zM-343 2609h-3v-1h2v-1l1 1v1zM-376 2608h-4v-1h5l-1 1zM-387 2608h-1v-1h1v1zM-391 2608h-1v-1h1v1zM-342 2608l-1 -2h1h1v2h-1zM-374 2607h-1v-1h1v1zM-372 2607h-1v-1l1 -1l1 1l-1 1zM-375 2606h-1v-1h1v1zM-388 2606h-2v-1h2v1zM-395 2606h-1v-1h1v1zM-386 2605h-1v-1h1v1zM-393 2605h-1v-1h1v1zM-362 2604h-1v-1h1v1zM-382 2607l-2 -1l1 -2v-1l1 1l1 2l-1 1zM-384 2604h-1v-1h1v1zM-392 2604h-1v-1h1v1zM-402 2662h-2v-1h3l-1 1zM-395 2661h-1l-1 -1l1 -1l1 1v1zM-406 2661h-1v-1h1v1zM-398 2659v1l-2 2l1 -3h1zM-405 2660h-1v-1h1v1zM-407 2660h-1v-1h1v1zM-435 2660h-1v-1h1v1zM-398 2658h1l-1 1v-1zM-399 2659h-1v-1h1v1zM-442 2659h-1v-1h1v1zM-399 2658l1 -1v1h-1zM-402 2659h-2l-1 -1l1 -1l2 1h1l-1 1zM-405 2658h-1v-1h1v1zM-436 2658h-3l1 -1h2v1zM-397 2657h-1v-1h1v1zM-442 2657h-1v-1h1v1zM-427 2656h-1v-1h1v1zM-399 2655h-1v-1h1v1zM-423 2655h-1v-1h1v1zM-458 2655h-1l1 -1h1l-1 1zM-396 2654h-1v-1h1v1zM-403 2653l1 1v2h-2v-3h1zM-407 2654h-1v-1h1v1zM-420 2654h-2v-1h3l-1 1zM-438 2654h-1v-1h1v1zM-456 2654h-1v-1h1v1zM-403 2652h1l-1 1v-1zM-404 2653l-1 -1h1v1zM-406 2653h-1v-1h1v1zM-437 2653h-1v-1h1v1zM-440 2653h-2v-1h3l-1 1zM-446 2653h-1v-1h1v1zM-396 2652h-1l1 -1h1l-1 1zM-404 2652v-1l1 1h-1zM-416 2653h-3l1 -1l2 -1v1v1zM-450 2652h-1v-1h1v1zM-457 2652h-1v-1h1v1zM-398 2651h-1v-1h1v1zM-400 2653l-1 -1v-2h1v3zM-412 2651h-1v-1h1v1zM-423 2651h-1v-1h1v1zM-427 2651h-1v-1h1v1zM-434 2651h-5l1 -1h4v1zM-444 2651h-1v-1h1v1zM-448 2651h-1v-1h1v1zM-396 2649v1l-2 -1h2zM-410 2650h-1l1 -1h1l-1 1zM-420 2650h-1v-1h1v1zM-450 2650h-1v-1h1v1zM-454 2651v-1l2 -1v1l-2 1zM-398 2649l-1 -1h1v1zM-402 2649h-1v-1h1v1zM-406 2649h-2v-1h2v1zM-430 2650h-4l2 -2v1h2v1zM-444 2649h-1l1 -1h1l-1 1zM-399 2648h-1v-1h1v1zM-404 2648h-1v-1h1v1zM-415 2648h-1v-1h1v1zM-418 2649l-1 -1v-1l1 1v1zM-424 2648h-1v-1h1v1zM-426 2649h-4v-1h2l2 -1v1v1zM-430 2648h-1v-1h1v1zM-434 2648h-1v-1h1v1zM-442 2648h-1v-1h1v1zM-448 2649h-2v-1l2 -1v1v1zM-452 2648h-1v-1h1v1zM-454 2648h-1v-1h1v1zM-402 2647h-2v-1h3l-1 1zM-412 2647h-1v-1h1v1zM-416 2647h-1v-1h1v1zM-422 2647h-1v-1h1v1zM-433 2647h-1v-1h1v1zM-440 2647h-1v-1h1v1zM-446 2647h-1l1 -1h1l-1 1zM-400 2646h-1v-1h1v1zM-430 2647v-1l2 -1v1l-2 1zM-438 2646h-1v-1h1v1zM-444 2646h-1v-1h1v1zM-396 2648h-2v-2l-1 -2h1h1l1 3v1zM-407 2645h-1v-1h1v1zM-430 2645h-1v-1h1v1zM-441 2645h-1v-1h1v1zM-404 2644h-1v-1h1v1zM-408 2644h-1v-1h1v1zM-432 2644h-1v-1h1v1zM-434 2644h-1v-1h1v1zM-440 2644h-1l1 -1h1l-1 1zM-448 2644h-1v-1h1v1zM-402 2643h-1v-1h1v1zM-412 2643h-1l1 -1h1l-1 1zM-420 2643h-2v-1h2v1zM-424 2644l-1 -2h1h1v2h-1zM-445 2643h-1v-1h1v1zM-451 2643h-1v-1h1v1zM-454 2645h-2v-1h1v-2h2v2l-1 1zM-400 2642h-1v-1h1v1zM-403 2642h-1v-1h1v1zM-410 2642h-1v-1h1v1zM-422 2642h-1v-1h1v1zM-426 2642h-1v-1h1v1zM-435 2642h-1v-1h1v1zM-436 2643h-2v-1v-1l2 1v1zM-450 2642h-1l1 -1h1l-1 1zM-398 2641h-1l1 -1h1l-1 1zM-408 2642l-1 -1l3 -1v1h-2v1zM-415 2641h-1v-1h1v1zM-421 2641h-1v-1h1v1zM-424 2641h-1v-1h1v1zM-430 2642v-1l2 -1l-2 2zM-448 2641h-1v-1h1v1zM-404 2640h-1v-1h1v1zM-413 2640h-1v-1h1v1zM-423 2640h-1v-1h1v1zM-426 2640h-2v-1h2v1zM-446 2641l-1 -1v-1l1 1v1zM-459 2640h-1v-1h1v1zM-402 2639h-2v-1h2v1zM-430 2639h-1l1 -1h1l-1 1zM-444 2639h-1l1 -1h1l-1 1zM-408 2638h-1v-1h1v1zM-416 2638h-1v-1h1v1zM-420 2638h-1v-1h1v1zM-423 2638h-1v-1h1v1zM-432 2640l-2 -2l2 -1v1l1 2h-1zM-439 2637l1 1h-1v-1zM-398 2637h-1v-1h1v1zM-405 2637h-1v-1h1v1zM-422 2637h-1v-1h1v1zM-402 2636h-2v-1h2v1zM-406 2636h-1v-1h1v1zM-413 2636h-1v-1h1v1zM-417 2636h-1v-1h1v1zM-420 2637l-1 -1l1 -1h1v1l-1 1zM-425 2637h-1l-1 -1l1 -1l1 1v1zM-429 2636h-1v-1h1v1zM-400 2635h-1v-1h1v1zM-416 2635h-1v-1h1v1zM-427 2635h-1v-1h1v1zM-457 2635h-1v-1h1v1zM-409 2634h-1v-1h1v1zM-414 2634h-1v-1h1v1zM-420 2634h-1v-1h1v1zM-425 2634h-1v-1h1v1zM-455 2634h-1v-1h1v1zM-411 2633h-1v-1h1v1zM-418 2633h-1l1 -1h1l-1 1zM-444 2633h-1v-1h1v1zM-414 2632h-1v-1h1v1zM-416 2632h-1v-1h1v1zM-422 2632h-1v-1h1v1zM-412 2631h-2v-1h2v1zM-404 2630h-1v-1h1v1zM-410 2630h-2v-1h2v1zM-420 2631h-2v-1l2 -1l1 1l-1 1zM-451 2630h-1v-1h1v1zM-402 2629h-1l1 -1h1l-1 1zM-409 2629h-1v-1h1v1zM-418 2629h-1v-1h1v1zM-425 2629h-1v-1h1v1zM-400 2628h-1l1 -1h1l-1 1zM-406 2628h-1v-1h1v1zM-420 2628h-2v-1h2v1zM-423 2628h-1v-1h1v1zM-455 2628h-1v-1h1v1zM-396 2627h-3l1 -1h2v1zM-403 2628l-1 -1v-1h1v2zM-400 2626h-2v-1h2v1zM-411 2626h-1v-1h1v1zM-418 2627h-2v-2h2v2zM-446 2626h-1v-1h1v1zM-451 2626h-1v-1h1v1zM-399 2625h-1v-1h1v1zM-409 2625h-1v-1h1v1zM-416 2626l-1 -1l1 -1h1l-1 2zM-443 2625h-1v-1h1v1zM-445 2625h-1v-1h1v1zM-452 2625h-1v-1h1v1zM-413 2624h-1v-1h1v1zM-404 2623h-1v-1h1v1zM-412 2623h-1l1 -1h1l-1 1zM-438 2623h-1v-1h1v1zM-440 2624h-2l2 -2v2zM-402 2622h-1v-1h1v1zM-410 2622h-1l1 -1h1l-1 1zM-418 2622h-1v-1h1v1zM-436 2622h-1l1 -1h1l-1 1zM-408 2621h-1l1 -1h1l-1 1zM-415 2621h-1v-1h1v1zM-419 2621h-1v-1h1v1zM-396 2620h-1v-1h1v1zM-404 2620h-1v-1h1v1zM-406 2620h-1v-1h1v1zM-417 2620h-1v-1h1v1zM-433 2620l-1 1l-1 -1l1 -1h3l-1 1h-1zM-449 2619l-1 1v-1h1zM-452 2620h-1v-1h1v1zM-399 2619h-1v-1h1v1zM-414 2619h-1v-1h1v1zM-429 2619h-1v-1h1v1zM-440 2619h-1v-1h1v1zM-450 2619h-2v-1h2v1zM-456 2619h-1v-1h1v1zM-402 2619l-1 -1v-1l1 1v1zM-426 2618h-1v-1h1v1zM-399 2617h-1v-1h1v1zM-424 2617h-1v-1h1v1zM-452 2617h-1v-1h1v1zM-455 2617h-1v-1h1v1zM-403 2616h-1v-1h1v1zM-405 2617l-1 -1v-1l1 1v1zM-433 2616h-1v-1h1v1zM-445 2618h-1v-3l1 1v2zM-456 2616h-1v-1h1v1zM-420 2615h-1v-1h1v1zM-422 2616h-2l2 -2v2zM-442 2616h-2v-2h2l1 2h-1zM-396 2614l-2 2h-1l1 -2v-1l2 1zM-424 2614h-1v-1h1v1zM-440 2615l-1 -1v-1l1 1v1zM-447 2614h-1v-1h1v1zM-450 2615l-2 -1v-1h2v1v1zM-458 2614h-2v-1h2v1zM-417 2614l-1 -1v-1h1v2zM-427 2613h-1v-1h1v1zM-429 2613h-1v-1h1v1zM-445 2613h-1v-1h1v1zM-456 2614l-1 -1v-1h1v2zM-406 2612h-1v-1h1v1zM-420 2612h-1v-1h1v1zM-431 2612h-1v-1h1v1zM-436 2613v-1l-2 1v-1v-1h3v1l-1 1zM-443 2612h-1v-1h1v1zM-454 2613h-1v-1l1 -1l1 1l-1 1zM-396 2611h-1v-1h1v1zM-422 2611h-2v-1h2v1zM-424 2612h-2v-2l2 2zM-440 2611h-1v-1h1v1zM-448 2611h-1v-1h1v1zM-456 2611h-1v-1h1v1zM-402 2610h-1v-1h1v1zM-407 2610h-1v-1h1v1zM-420 2610h-1v-1h1v1zM-426 2610h-1v-1h1v1zM-438 2610h-1l1 -1h1l-1 1zM-446 2610h-1v-1h1v1zM-449 2610h-1v-1h1v1zM-452 2611l-2 -1h-1l1 -1h2l1 1l-1 1zM-458 2610h-1v-1h1v1zM-400 2609h-1l1 -1h1l-1 1zM-410 2609h-1v-1h1v1zM-414 2609h-1v-1h1v1zM-421 2609h-1v-1h1v1zM-424 2609h-1v-1h1v1zM-435 2608l-1 1l-1 -1h2zM-444 2609h-1v-1h1v1zM-447 2609h-1v-1h1v1zM-450 2609h-1v-1h1v1zM-455 2609h-1v-1h1v1zM-398 2608h-1v-1h1v1zM-405 2608h-1v-1h1v1zM-408 2608h-1v-1h1v1zM-416 2609l-1 -1v-1l1 1v1zM-426 2608h-1v-1h1v1zM-430 2608h-1v-1h1v1zM-435 2607l1 1h-1v-1zM-437 2608h-1h-1l1 -1h1v1zM-445 2608h-1v-1h1v1zM-453 2608h-1v-1h1v1zM-458 2608h-2v-1h2v1zM-397 2607h-1v-1h1v1zM-424 2607h-2v-1h2v1zM-430 2610h-1l2 -2v-2h1v2l-2 2zM-432 2607h-1v-1h1v1zM-446 2607h-1v-1h1v1zM-455 2607h-1v-1h1v1zM-405 2606h-1v-1h1v1zM-411 2607l-1 -1v-1l1 1v1zM-437 2607v-1l1 -1l1 1v1h-2zM-440 2606h-2v-1h2v1zM-442 2607h-3v-1l1 -1v1h2v1zM-454 2606h-1l1 -1h1l-1 1zM-410 2606v-1l2 -1l-2 2zM-420 2605h-2v-1h2v1zM-426 2605h-4v-1h4v1zM-431 2605h-1v-1h1v1zM-442 2605h-1v-1h1v1zM-404 2606v-1l2 -1l2 -1v1l-2 1l-2 1zM-424 2604h-1v-1h1v1zM-436 2604h-1l1 -1h1l-1 1zM-439 2604h-1v-1h1v1zM-444 2604h-1v-1h1v1zM-447 2604h-1v-1h1v1zM-450 2607h-2v-1h1l-1 -2l2 -1v1v3zM-458 2604h-1l1 -1h1l-1 1zM-472 2657h-1v-1h1v1zM-461 2656h-1v-1h1v1zM-465 2657l-1 -1v-1l1 1v1zM-474 2656h-1v-1h1v1zM-467 2655h-1v-1h1v1zM-461 2654h-1v-1h1v1zM-463 2654h-1v-1h1v1zM-468 2652h-1l1 -1h1l-1 1zM-462 2651l-1 -1v-1l1 1v1zM-476 2650h-1v-1h1v1zM-463 2649h-1v-1h1v1zM-470 2649h-1v-1h1v1zM-464 2648h-3l1 -1h2v1zM-468 2649l-1 -1v-1l1 1v1zM-510 2648h-1v-1h1v1zM-512 2648h-1v-1h1v1zM-508 2647h-1v-1h1v1zM-515 2647h-1v-1h1v1zM-475 2646h-1v-1h1v1zM-506 2646h-1v-1h1v1zM-474 2645h-1v-1h1v1zM-504 2645h-1v-1h1v1zM-514 2645h-1v-1h1v1zM-512 2644h-1v-1h1v1zM-468 2643h-1v-1h1v1zM-471 2643h-1v-1h1v1zM-476 2643h-2v-1h3l-1 1zM-484 2643h-1v-1h1v1zM-465 2642h-1v-1h1v1zM-472 2642h-2v-1h2v1zM-485 2642h-1v-1h1v1zM-509 2642h-1v-1h1v1zM-462 2641h-1v-1h1v1zM-468 2641h-2l-1 -1l1 -1h2l1 1l-1 1zM-480 2640h-1v-1h1v1zM-506 2640h-1v-1h1v1zM-509 2640h-1v-1h1v1zM-511 2640h-1v-1h1v1zM-466 2639h-1v-1h1v1zM-486 2640h-2v-2l2 2zM-504 2639h-1v-1h1v1zM-507 2639h-1v-1h1v1zM-513 2639h-1v-1h1v1zM-517 2640l-1 -1v-1h1v2zM-464 2638h-1v-1h1v1zM-476 2640v-1l-2 1v-2l4 -1l1 1l-3 2zM-478 2638h-1v-1h1v1zM-502 2638h-1v-1h1v1zM-505 2638h-1v-1h1v1zM-512 2638h-1v-1h1v1zM-462 2637h-1v-1h1v1zM-506 2637h-1v-1h1v1zM-515 2638l-1 -1v-1h1v2zM-460 2636h-1l1 -1h1l-1 1zM-496 2636h-1v-1h1v1zM-513 2637l-1 -1v-1l1 1v1zM-470 2637h-2v-1l2 -1l4 -1l-2 2l-2 1zM-487 2637l-1 -1v-2h2l-1 2v1zM-497 2635h-1v-1h1v1zM-503 2635h-1v-1h1v1zM-509 2635h-1v-1h1v1zM-464 2634h-2v-1h3l-1 1zM-466 2633h-1v-1h1v1zM-479 2633l-1 1h-2l2 -2v1h1zM-485 2633h-1v-1h1v1zM-496 2633h-1v-1h1v1zM-499 2633h-1v-1h1v1zM-513 2633h-1v-1h1v1zM-460 2632l-2 1l-1 -1l1 -1h2v1zM-476 2632h-1l1 -1h1l-1 1zM-494 2632h-1v-1h1v1zM-497 2632h-1v-1h1v1zM-505 2633l-4 1l1 -1l2 -1l2 -1l1 1l-1 1h-1zM-512 2632h-1v-1h1v1zM-471 2630l-1 1v-1h1zM-492 2631h-1v-1h1v1zM-499 2631h-1v-1h1v1zM-502 2631h-1l1 -1h1l-1 1zM-505 2631h-1v-1h1v1zM-471 2629l1 1h-1v-1zM-474 2631h-1v-1l1 -1l1 1l-1 1zM-481 2630h-1v-1h1v1zM-490 2630h-1v-1h1v1zM-494 2630h-1l1 -1h1l-1 1zM-503 2630h-1v-1h1v1zM-508 2630h-1v-1h1v1zM-472 2630h-1v-2l2 1h-1v1zM-478 2629h-1v-1h1v1zM-488 2629h-1v-1h1v1zM-491 2629h-1v-1h1v1zM-496 2630h-2v-2l2 2zM-504 2629h-2v-1h2v1zM-507 2629h-1v-1h1v1zM-468 2628h-1v-1h1v1zM-477 2628h-1v-1h1v1zM-486 2628h-1v-1h1v1zM-509 2628h-1v-1h1v1zM-475 2627h-1v-1h1v1zM-481 2627h-1v-1h1v1zM-484 2627h-1v-1h1v1zM-487 2627h-1v-1h1v1zM-495 2628l-1 -1v-1h1v2zM-500 2627h-2v-1h2v1zM-502 2628h-2v-2l2 2zM-462 2626h-1v-1h1v1zM-464 2627h-2v-1l2 -1v1v1zM-482 2626h-1v-1h1v1zM-485 2626h-1v-1h1v1zM-488 2626h-1v-1h1v1zM-504 2626h-1v-1h1v1zM-463 2625h-1v-1h1v1zM-474 2626h-1l1 -2h2l-2 2zM-480 2625h-1v-1h1v1zM-483 2625h-1v-1h1v1zM-486 2625h-1v-1h1v1zM-490 2628h-1l-1 -4l2 2l1 2h-1zM-496 2625h-1v-1h1v1zM-471 2624h-1v-1h1v1zM-478 2624h-1v-1h1v1zM-481 2623l-1 1v-1h1zM-489 2625l-1 -1v-1l1 1v1zM-498 2627l-2 -1v-3l1 1v1h2v1l-1 1zM-469 2624l-1 -1v-1h1v2zM-475 2623h-1v-1h1v1zM-482 2623l-1 -1h1v1zM-488 2624v-1l2 -1l-2 2zM-491 2623h-1v-1h1v1zM-497 2624l-1 -1v-1h1v2zM-466 2622h-1l1 -1h1l-1 1zM-472 2623h-2v-1v-1l2 1v1zM-481 2621l1 1l-1 1v-2zM-489 2622h-1v-1h1v1zM-493 2622h-1v-1h1v1zM-495 2623l-1 -1v-1l1 1v1zM-460 2621h-1v-1h1v1zM-464 2621h-1v-1h1v1zM-469 2621h-1v-1h1v1zM-471 2622l-1 -1v-1h1v2zM-486 2621h-1l1 -1h1l-1 1zM-491 2621h-1v-1h1v1zM-510 2621h-1v-1h1v1zM-462 2620h-1l1 -1h1l-1 1zM-472 2620h-1v-1h1v1zM-476 2620h-1v-1h1v1zM-480 2620h-1l1 -1h1l-1 1zM-489 2620h-1v-1h1v1zM-505 2620h-1v-1h1v1zM-507 2621l-1 -1v-1l1 1v1zM-460 2619h-1v-1h1v1zM-463 2619h-1v-1h1v1zM-465 2619h-1v-1h1v1zM-470 2619h-2v-1h2v1zM-474 2619h-1v-1h1v1zM-477 2619h-1v-1h1v1zM-482 2619h-1l1 -1h1l-1 1zM-503 2619h-1v-1h1v1zM-472 2618h-1v-1h1v1zM-476 2618h-1l1 -1h1l-1 1zM-480 2618h-1l1 -1h1l-1 1zM-499 2618h-1v-1h1v1zM-508 2618h-1v-1h1v1zM-466 2617h-2v-1h2v1zM-474 2617h-1v-1h1v1zM-478 2617h-1v-1h1v1zM-483 2617h-1v-1h1v1zM-498 2617h-1l1 -1h1l-1 1zM-500 2619h-2l-1 -1l1 -2h1v2h1v1zM-507 2617h-1v-1h1v1zM-460 2616h-1v-1h1v1zM-463 2616h-1v-1h1v1zM-468 2616h-1v-1h1v1zM-471 2616h-1v-1h1v1zM-480 2616h-1v-1h1v1zM-491 2616h-1v-1h1v1zM-495 2616h-1v-1h1v1zM-506 2616h-1l1 -1h1l-1 1zM-462 2615h-1v-1h1v1zM-470 2615h-1l1 -1h1l-1 1zM-473 2615h-1v-1h1v1zM-497 2615h-1v-1h1v1zM-503 2615h-1v-1h1v1zM-507 2615h-1v-1h1v1zM-467 2613l-1 1l-1 -1h2zM-491 2614h-1v-1h1v1zM-496 2614h-1v-1h1v1zM-502 2614h-1v-1h1v1zM-523 2616h-1v-3l1 1v2zM-467 2612h1h1l-1 1h-1v-1zM-469 2613h-1l-1 -1h1h1v1zM-503 2613h-1v-1h1v1zM-506 2613h-1v-1h1v1zM-464 2613v-1l2 -1v1l-2 1zM-469 2612v-1l2 1h-2zM-484 2612h-1v-1h1v1zM-487 2613l-1 -1v-1l1 1v1zM-489 2612h-1v-1h1v1zM-496 2612h-1v-1h1v1zM-504 2612h-1v-1h1v1zM-460 2612l-1 -2h1h1v2h-1zM-465 2611h-1v-1h1v1zM-494 2611h-2v-1h2v1zM-501 2612l-1 -1v-1h1v2zM-518 2611h-1v-1h1v1zM-522 2613l-1 -1l1 -2l2 2h-2v1zM-464 2610h-1l1 -1h1l-1 1zM-484 2611v-1l2 -1h1l-1 1l-2 1zM-486 2611l-1 -1v-1l1 1v1zM-489 2610h-1v-1h1v1zM-498 2610h-1v-1h1v1zM-520 2610h-1v-1h1v1zM-461 2609h-1v-1h1v1zM-476 2609h-1v-1h1v1zM-496 2609h-2v-1h2v1zM-519 2609h-1v-1h1v1zM-523 2609h-1v-1h1v1zM-465 2608h-1v-1h1v1zM-480 2607v1l-1 -1h1zM-482 2608h-1v-1h1v1zM-485 2608h-1v-1h1v1zM-492 2610h-2l2 -3h2l1 1l-1 1l-2 1zM-495 2608h-1v-1h1v1zM-502 2607h-1l1 -1h1l-1 1zM-521 2607h-1v-1h1v1zM-462 2607l-1 -1l1 -1h1v1l-1 1zM-465 2606h-1v-1h1v1zM-486 2607h-2l-1 -1l1 -1l2 1v1zM-516 2607h-2v-1l2 -1v1v1zM-520 2606h-1v-1h1v1zM-460 2605h-1l1 -1h1l-1 1zM-474 2605h-2v-1h2v1zM-485 2605h-1v-1h1v1zM-498 2606h-2v-2h2h1l-1 2zM-515 2605h-1v-1h1v1zM-519 2605h-1v-1h1v1zM-471 2604h-1v-1h1v1zM-473 2604h-1v-1h1v1zM-478 2604h-1v-1h1v1zM-483 2605l-1 -1v-1l1 1v1zM-492 2604h-1v-1h1v1zM-502 2604h-1v-1h1v1zM-514 2604h-1v-1h1v1zM-532 2641h-1v-1h1v1zM-536 2641h-1v-1h1v1zM-538 2640h-1v-1h1v1zM-539 2639h-1v-1h1v1zM-536 2637h-1l1 -1h1l-1 1zM-541 2637h-1v-1h1v1zM-530 2637h-4v-1l2 -1v1h2v1zM-537 2636h-1v-1h1v1zM-529 2634h-1v-1h1v1zM-536 2634h-1l1 -1h1l-1 1zM-537 2633h-1v-1h1v1zM-530 2632h-1v-1h1v1zM-541 2633l-1 -1v-1l1 1v1zM-527 2631h-1v-1h1v1zM-532 2631h-2v-1h2v1zM-535 2631h-1v-1h1v1zM-528 2630h-1v-1h1v1zM-534 2630h-1v-1h1v1zM-540 2630h-1v-1h1v1zM-526 2629h-1v-1h1v1zM-532 2629h-2v-1h2v1zM-539 2629h-1v-1h1v1zM-531 2628h-1v-1h1v1zM-529 2627h-1v-1h1v1zM-527 2626h-1v-1h1v1zM-535 2626h-1v-1h1v1zM-526 2625h-1v-1h1v1zM-533 2625h-1v-1h1v1zM-532 2624h-1l1 -1h1l-1 1zM-530 2623h-1v-1h1v1zM-528 2622h-1v-1h1v1zM-527 2621h-1v-1h1v1zM-525 2620h-1v-1h1v1zM-525 2618l-1 -1v-1h1v2zM-526 2615h-1v-1h1v1zM-525 2613h-1v-1h1v1zM-524 2612h-1v-1h1v1zM-298 2603h-1l1 -1h1l-1 1zM-282 2602h-1v-1h1v1zM-327 2602h-1v-1h1v1zM-287 2600h-1v-1h1v1zM-316 2600h-1v-1h1v1zM-330 2601l-1 -1l1 -1l1 1l-1 1zM-328 2599h-1v-1h1v1zM-327 2598h-1v-1h1v1zM-326 2598v-1l2 -2l1 1l-3 2zM-322 2595h-1v-1h1v1zM-310 2595l-1 -1l1 -1l1 1l-1 1zM-312 2594h-1v-1h1v1zM-320 2594h-2v-1h3l-1 1zM-307 2592h-1v-1h1v1zM-313 2592h-1v-1h1v1zM-318 2592h-2v-1h2v1zM-317 2591h-1v-1h1v1zM-306 2590h-1v-1h1v1zM-316 2590h-1v-1h1v1zM-314 2590l-1 -1v-1h1v2zM-303 2591l-1 -1v-3l1 1v3zM-305 2588h-1v-1h1v1zM-313 2588h-1v-1h1v1zM-327 2588h-1v-1h1v1zM-322 2587h-5l1 -1h4v1zM-328 2587h-1v-1h1v1zM-304 2586h-1v-1h1v1zM-307 2587l-1 -1v-1l1 1v1zM-310 2586h-1v-1h1v1zM-312 2586h-1v-1h1v1zM-314 2586h-2v-1h2v1zM-309 2585h-1v-1h1v1zM-318 2586h-4v-1l4 -1h2l-2 2zM-327 2585h-1v-1h1v1zM-324 2584h-1l1 -1h1l-1 1zM-308 2583h-2v-1h2v1zM-317 2583h-1v-1h1v1zM-319 2583h-1v-1h1v1zM-331 2573h-1v-1h1v1zM-328 2565l-1 -1v-1l1 1v1zM-328 2562h-1v-1h1v1zM-334 2603h-1l1 -1h1l-1 1zM-360 2603h-1l1 -1h1l-1 1zM-371 2603h-1v-1h1v1zM-374 2603h-1v-1h1v1zM-378 2603h-1v-1h1v1zM-380 2603h-1v-1h1v1zM-394 2603h-1v-1h1v1zM-332 2602h-1v-1h1v1zM-358 2602h-1v-1h1v1zM-373 2602h-1v-1h1v1zM-376 2602h-1l1 -1h1l-1 1zM-379 2602h-1v-1h1v1zM-381 2602h-1v-1h1v1zM-355 2601h-1v-1h1v1zM-367 2601h-1v-1h1v1zM-371 2601h-1v-1h1v1zM-378 2601h-1v-1h1v1zM-391 2602l-1 -1v-1h1v2zM-364 2600h-1v-1h1v1zM-369 2600h-1v-1h1v1zM-376 2600h-1v-1h1v1zM-379 2600h-1v-1h1v1zM-382 2601l-1 -1v-1l1 1v1zM-385 2600h-1v-1h1v1zM-387 2600h-1v-1h1v1zM-394 2600h-1v-1h1v1zM-349 2599h-1v-1h1v1zM-362 2599h-1v-1h1v1zM-366 2599h-1l1 -1h1l-1 1zM-395 2599h-1v-1h1v1zM-358 2598h-1v-1h1v1zM-384 2598h-1v-1h1v1zM-392 2599h-2v-1l2 -1h3l-1 1l-2 1zM-386 2597h-3l1 -1h3l-1 1zM-356 2597l-1 -1v-1l1 1v1zM-363 2596h-1v-1h1v1zM-371 2596h-1v-1h1v1zM-350 2595h-1v-1h1v1zM-390 2595h-1v-1h1v1zM-348 2594h-1v-1h1v1zM-351 2594h-1v-1h1v1zM-383 2594h-1v-1h1v1zM-392 2594h-1v-1h1v1zM-395 2594h-1v-1h1v1zM-367 2593h-1v-1h1v1zM-390 2593h-2v-1h2v1zM-393 2593h-1v-1h1v1zM-344 2592h-1l1 -1h1l-1 1zM-346 2593h-2v-1l2 -1v1v1zM-353 2590h-1v-1h1v1zM-355 2590h-1v-1h1v1zM-386 2590h-2v-1h2v1zM-394 2590h-1v-1h1v1zM-367 2589h-1v-1h1v1zM-389 2590l-1 -1v-1h1v2zM-386 2588h-1v-1h1v1zM-394 2588h-1l1 -1h1l-1 1zM-351 2587h-1v-1h1v1zM-390 2587l-2 2v-1l1 -2l1 1zM-333 2586h-1v-1h1v1zM-363 2586h-1v-1h1v1zM-387 2586h-1v-1h1v1zM-391 2586v-1h2l-1 2v-1h-1zM-346 2585h-1v-1h1v1zM-347 2584h-1v-1h1v1zM-362 2585v-1l2 -1v1l-2 1zM-364 2584h-1v-1h1v1zM-392 2584h-2v-1h2v1zM-346 2583h-1v-1h1v1zM-342 2582h-1v-1h1v1zM-345 2582h-1v-1h1v1zM-358 2582h-1l1 -1h1l-1 1zM-341 2581h-1v-1h1v1zM-340 2580h-1v-1h1v1zM-355 2580h-1v-1h1v1zM-341 2579h-1v-1h1v1zM-340 2578h-1v-1h1v1zM-356 2578h-1v-1h1v1zM-351 2577h-1v-1h1v1zM-355 2577h-1v-1h1v1zM-350 2576h-1v-1h1v1zM-354 2576h-1v-1h1v1zM-334 2575h-1v-1h1v1zM-352 2575h-1v-1h1v1zM-348 2575l-1 -1l1 -1l1 1l-1 1zM-346 2573h-1l1 -1h1l-1 1zM-348 2572h-1v-1h1v1zM-344 2572l-1 -1l1 -1h1l-1 2zM-362 2570h-1v-1h1v1zM-365 2570h-1v-1h1v1zM-332 2569h-1v-1h1v1zM-363 2569h-1v-1h1v1zM-367 2569h-1v-1h1v1zM-344 2568h-1v-1h1v1zM-340 2568h-2l2 -2v2zM-361 2568l-1 -1v-1h1v2zM-339 2566h-1v-1h1v1zM-357 2566h-1v-1h1v1zM-355 2565h-1v-1h1v1zM-364 2567h-4v-1h3v-2h1v3zM-366 2565h-1v-1h1v1zM-338 2564h-2v-1h2v1zM-343 2564h-1v-1h1v1zM-369 2563h-1v-1h1v1zM-350 2562h-4v-1h4v1zM-364 2564v-1l2 -2v1l-2 2zM-365 2562h-1v-1h1v1zM-344 2562h-2l2 -2v2zM-346 2561h-3l1 -1h2v1zM-361 2561h-1v-1h1v1zM-364 2560h-1v-1h1v1zM-363 2559h-1v-1h1v1zM-368 2559h-1v-1h1v1zM-362 2558h-1v-1h1v1zM-344 2557h-2v-1h2v1zM-350 2557h-1l1 -1h1l-1 1zM-360 2557h-1l1 -1h1l-1 1zM-367 2558l-1 -1v-1h1v2zM-332 2556h-1v-1h1v1zM-356 2556h-1v-1h1v1zM-333 2555h-1v-1h1v1zM-353 2555h-1v-1h1v1zM-364 2555h-1v-1h1v1zM-334 2554h-1v-1h1v1zM-346 2554h-2v-1h2v1zM-349 2554h-1v-1h1v1zM-362 2554h-1v-1h1v1zM-336 2553h-1v-1h1v1zM-360 2553h-1l1 -1h1l-1 1zM-339 2552h-1v-1h1v1zM-356 2552h-3l1 -1h2v1zM-342 2551h-1v-1h1v1zM-344 2551h-1v-1h1v1zM-350 2551h-5l1 -1h5l-1 1zM-406 2604h-1l1 -2h2l-2 2zM-434 2603h-1v-1h1v1zM-437 2603h-1v-1h1v1zM-442 2603h-1v-1h1v1zM-401 2602h-1v-1h1v1zM-420 2602h-1l1 -1h1l-1 1zM-425 2602h-1v-1h1v1zM-433 2602h-1v-1h1v1zM-440 2602h-1v-1h1v1zM-448 2602h-1v-1h1v1zM-453 2602h-1v-1h1v1zM-457 2602h-1v-1h1v1zM-399 2601h-1v-1h1v1zM-408 2601h-1v-1h1v1zM-416 2601h-2v-1h2v1zM-428 2601h-1v-1h1v1zM-434 2601h-1v-1h1v1zM-446 2602l-1 -1v-1h1v2zM-459 2601h-1v-1h1v1zM-397 2600h-1v-1h1v1zM-406 2600h-1v-1h1v1zM-409 2600h-1v-1h1v1zM-416 2600v-1h1v1h-1zM-420 2600h-1v-1h1v1zM-424 2600h-1v-1h1v1zM-427 2600h-1v-1h1v1zM-432 2602v-2v-1l2 1l-2 2zM-442 2601l-1 -1v-1l1 1v1zM-445 2600h-1v-1h1v1zM-404 2599h-1v-1h1v1zM-418 2599h-1v-1h1v1zM-422 2599h-1v-1h1v1zM-425 2599h-1v-1h1v1zM-428 2599h-1v-1h1v1zM-443 2599h-1v-1h1v1zM-455 2599h-1v-1h1v1zM-405 2598h-1v-1h1v1zM-426 2598h-1v-1h1v1zM-447 2599l-1 -1v-1l1 1v1zM-403 2597h-1v-1h1v1zM-406 2597h-1v-1h1v1zM-414 2597h-1v-1h1v1zM-420 2597h-1l1 -1h1l-1 1zM-424 2597h-1v-1h1v1zM-451 2597h-1v-1h1v1zM-399 2596h-1v-1h1v1zM-418 2596h-1v-1h1v1zM-423 2596h-1v-1h1v1zM-438 2596h-1v-1h1v1zM-444 2596h-1l1 -1h1l-1 1zM-458 2596h-1v-1h1v1zM-396 2595h-1v-1h1v1zM-420 2595h-1l1 -1h1l-1 1zM-433 2595h-1v-1h1v1zM-456 2595h-1v-1h1v1zM-398 2594h-1v-1h1v1zM-407 2594h-1v-1h1v1zM-409 2594h-1v-1h1v1zM-414 2594h-1l1 -1h1l-1 1zM-440 2594h-1v-1h1v1zM-417 2594l-1 -1v-1h1v2zM-420 2593h-1v-1h1v1zM-438 2593h-1v-1h1v1zM-451 2593h-1v-1h1v1zM-397 2592h-1v-1h1v1zM-402 2592h-1v-1h1v1zM-426 2592h-1v-1h1v1zM-437 2592h-1v-1h1v1zM-412 2591h-1v-1h1v1zM-448 2591h-1l1 -1h1l-1 1zM-396 2591l-1 -1v-1l1 1v1zM-398 2591l-1 -1v-1l1 1v1zM-412 2593v-1l2 -3l1 1l-3 3zM-421 2590h-1v-1h1v1zM-446 2590h-1v-1h1v1zM-405 2590h-3v-1h2v-1h1v2zM-432 2589h-1v-1h1v1zM-403 2588h-1v-1h1v1zM-432 2587h-1v-1h1v1zM-434 2587h-1v-1h1v1zM-459 2587h-1v-1h1v1zM-397 2587l-1 -1v-1l1 1v1zM-443 2586h-1v-1h1v1zM-407 2585h-1v-1h1v1zM-434 2585h-1v-1h1v1zM-439 2585h-1v-1h1v1zM-448 2587h-2l-1 -1h1v-2l2 2v1zM-451 2586h-1h-1l1 -2h1v2zM-458 2585h-2v-1h2v1zM-396 2585l-1 -1l1 -1h1v1l-1 1zM-416 2584h-1v-1h1v1zM-432 2584h-1v-1h1v1zM-437 2584h-1v-1h1v1zM-448 2584h-1l1 -1h1l-1 1zM-455 2584h-1v-1h1v1zM-430 2583h-1l1 -1h1l-1 1zM-441 2585l-1 -1v-2h1v3zM-444 2584l-2 -1h-1l1 -1h2v2zM-450 2583h-1v-1h1v1zM-460 2583v-1h1l-1 1zM-438 2582h-1l1 -1h1l-1 1zM-442 2582h-2v-1h2v1zM-454 2583v-1l2 -1v1l-2 1zM-459 2581h1l1 1h-1h-1v-1zM-440 2581h-2v-1h2v1zM-445 2581h-1v-1h1v1zM-451 2581h-1v-1h1v1zM-460 2581v-1l1 1h-1zM-442 2580h-2v-1h2v1zM-448 2580h-1l1 -1h1l-1 1zM-456 2581h-1v-2h3v1l-2 1zM-458 2580h-1v-1h1v1zM-401 2579h-1v-1h1v1zM-408 2579h-1v-1h1v1zM-428 2580l-1 -1v-1h1v2zM-432 2580l-1 -1v-1h1v2zM-440 2579h-2v-1h2v1zM-452 2579h-1v-1h1v1zM-417 2578h-1v-1h1v1zM-433 2578h-1v-1h1v1zM-444 2578h-1l1 -1h1l-1 1zM-451 2578h-1v-1h1v1zM-441 2577h-1v-1h1v1zM-452 2577h-2v-1h2v1zM-410 2576h-2v-1h2v1zM-434 2576h-3l1 -1h2v1zM-448 2576h-4v-1h4v1zM-429 2575h-1v-1h1v1zM-440 2573h-1v-1h1v1zM-445 2573h-1v-1h1v1zM-455 2573h-1v-1h1v1zM-458 2573h-1v-1h1v1zM-433 2572h-1v-1h1v1zM-439 2572h-1v-1h1v1zM-444 2573l-1 -1l1 -1h1v1l-1 1zM-446 2572h-1v-1h1v1zM-438 2570h-1v-1h1v1zM-442 2570h-1v-1h1v1zM-437 2569h-1v-1h1v1zM-441 2569h-1v-1h1v1zM-443 2569h-1v-1h1v1zM-448 2569h-1v-1h1v1zM-460 2569v-1l1 1h-1zM-440 2568l-1 -1v-1h1v2zM-442 2567h-1v-1h1v1zM-445 2567h-1v-1h1v1zM-456 2568h-2h-1l1 -2h2v2zM-444 2566h-1v-1h1v1zM-441 2566l-1 -1v-1h1v2zM-436 2565l-1 -1v-1l1 1v1zM-453 2564l1 -1v1h-1zM-439 2563h-1v-1h1v1zM-441 2563h-1v-1h1v1zM-444 2563h-1v-1h1v1zM-436 2562h-1v-1h1v1zM-454 2562h-1v-1h1v1zM-446 2563h-2v-2l4 -1l-2 3zM-451 2561h-1v-1h1v1zM-453 2561h-1v-1h1v1zM-440 2560h-1v-1h1v1zM-442 2560h-1v-1h1v1zM-450 2560h-1v-1h1v1zM-459 2560h-1v-1h1v1zM-448 2559h-1l1 -1h1l-1 1zM-458 2559h-1v-1h1v1zM-440 2558h-1v-1h1v1zM-442 2558h-1v-1h1v1zM-459 2558h-1v-1h1v1zM-439 2557h-1v-1h1v1zM-444 2558h-2h-1l1 -2l2 2zM-456 2558l-2 -1v-1h3v2h-1zM-434 2556h-1v-1h1v1zM-437 2556h-1v-1h1v1zM-440 2556h-1v-1h1v1zM-443 2556h-1v-1h1v1zM-452 2556h-3l1 -1h2v1zM-450 2555h-1v-1h1v1zM-430 2554h-1v-1h1v1zM-446 2555l-2 -1v-1h2l1 1l-1 1zM-428 2553h-1v-1h1v1zM-431 2553h-1v-1h1v1zM-440 2553h-1l1 -1h1l-1 1zM-458 2554v-1l2 -1l-2 2zM-426 2552h-2v-1h2v1zM-438 2552h-1v-1h1v1zM-441 2552h-1v-1h1v1zM-450 2554v-2v-1l2 1l-2 2zM-454 2552h-1v-1h1v1zM-429 2552l-1 -1v-1h1v2zM-436 2551h-1v-1h1v1zM-439 2551h-1v-1h1v1zM-446 2552h-2l2 -2v2zM-457 2551h-1v-1h1v1zM-433 2550h-1v-1h1v1zM-444 2550h-1v-1h1v1zM-447 2550h-1v-1h1v1zM-454 2550h-1v-1h1v1zM-422 2549h-1v-1h1v1zM-424 2549h-1v-1h1v1zM-432 2549h-1v-1h1v1zM-442 2549l-1 -1h1v1zM-445 2549h-1v-1h1v1zM-449 2549h-1v-1h1v1zM-430 2548h-2v-1h2v1zM-429 2547h-1v-1h1v1zM-450 2547h-1v-1h1v1zM-432 2546h-1v-1h1v1zM-437 2546h-1v-1h1v1zM-448 2546h-1v-1h1v1zM-427 2546l-1 -1v-1h1v2zM-431 2545h-1v-1h1v1zM-440 2545h-1v-1h1v1zM-450 2545h-1v-1h1v1zM-452 2546h-4v-1h2v-1l2 2zM-458 2545h-2v-1h2v1zM-425 2544h-1v-1h1v1zM-428 2544h-1v-1h1v1zM-434 2545h-2v-1l2 -1l1 1l-1 1zM-451 2544h-1v-1h1v1zM-457 2544h-1v-1h1v1zM-432 2543h-1v-1h1v1zM-444 2543h-1v-1h1v1zM-449 2543h-1v-1h1v1zM-454 2543h-3l1 -1h2v1zM-459 2543h-1v-1h1v1zM-419 2543l-1 -1v-1l1 1v1zM-421 2542h-1v-1h1v1zM-447 2543l-1 -1v-1l1 1v1zM-422 2541h-1v-1h1v1zM-424 2542l-1 -1v-1h1v2zM-435 2541h-1v-1h1v1zM-440 2541h-1v-1h1v1zM-446 2541h-1v-1h1v1zM-450 2541h-1v-1h1v1zM-456 2541h-1l1 -1h1l-1 1zM-458 2542l-1 -1v-1h1v2zM-426 2540h-1l1 -1h1l-1 1zM-429 2543h-1l-2 -1l1 -2v-1l1 1v1l1 2zM-438 2540h-1v-1h1v1zM-457 2540h-1v-1h1v1zM-482 2603h-1v-1h1v1zM-486 2603h-1v-1h1v1zM-494 2604h-3l1 -1l2 -1h1l-1 2zM-517 2603h-1v-1h1v1zM-470 2603l-1 -1v-1l1 1v1zM-474 2602h-1v-1h1v1zM-480 2603h-1v-1l1 -1l1 1l-1 1zM-484 2602h-1v-1h1v1zM-490 2602h-2v-1h2v1zM-482 2601h-1v-1h1v1zM-486 2601h-1v-1h1v1zM-498 2601h-1v-1h1v1zM-515 2601h-1v-1h1v1zM-480 2599v1l-1 -1h1zM-488 2602l-2 -2l2 -1l1 1h-1v2zM-496 2600h-1v-1h1v1zM-513 2600h-1v-1h1v1zM-478 2601v-1l2 -1v-1h1v2h-1l-2 1zM-495 2599h-1v-1h1v1zM-462 2598h-1v-1h1v1zM-494 2598h-1v-1h1v1zM-472 2598h-2l2 -2v2zM-474 2597h-2v-1h2v1zM-487 2597h-1v-1h1v1zM-464 2596h-1v-1h1v1zM-468 2596h-1v-1h1v1zM-480 2596h1v-1l1 1v1l-2 2v-3zM-489 2596h-1v-1h1v1zM-469 2595h-1v-1h1v1zM-471 2594l-1 1l-1 -1h2zM-481 2596v-2l2 1h-1v1h-1zM-483 2595h-1v-1h1v1zM-473 2594h-1v-1l1 1zM-488 2594h-1l1 -1h1l-1 1zM-490 2594h-1v-1h1v1zM-496 2594h-1v-1h1v1zM-463 2594h-1h-1l1 -2h1v2zM-486 2593h-1v-1h1v1zM-460 2592h-1l1 -2h2l-2 2zM-462 2592h-1v-1h1v1zM-464 2592h-1v-1h1v1zM-467 2592h-1v-1h1v1zM-485 2592h-1v-1h1v1zM-465 2591h-1v-1h1v1zM-474 2591v-1h1l-1 1zM-483 2591h-1v-1h1v1zM-466 2589v1l-2 -1h2zM-478 2591v-1l2 -1l1 2h-3zM-481 2590h-1v-1h1v1zM-463 2589h-1v-1h1v1zM-479 2590h-1v-3h2v1h-1v2zM-485 2588h-1v-1h1v1zM-474 2587h-1v-1h1v1zM-476 2587h-2v-1h2v1zM-488 2587h-1v-1h1v1zM-494 2588l-1 -1l1 -1h1l-1 2zM-475 2586h-1v-1h1v1zM-491 2586h-1v-1h1v1zM-490 2585h-1v-1h1v1zM-492 2585h-1v-1h1v1zM-474 2584h-1l1 -1h1l-1 1zM-485 2585l-1 -1v-1l1 1v1zM-488 2584h-2v-1h2v1zM-468 2582h-1v-1h1v1zM-470 2583l-2 -1v-1h2v1v1zM-489 2581h-1v-1h1v1zM-474 2580h-1v-1h1v1zM-466 2579h-1v-1h1v1zM-488 2578h-1v-1h1v1zM-503 2577l-1 1v-1h1zM-472 2581l-1 -1l-1 -2h2l2 -2l1 2l-3 3zM-487 2577h-1v-1h1v1zM-464 2578l-1 -2l1 -1l1 1v2h-1zM-472 2576h-1v-1h1v1zM-486 2575v1l-1 -1h1zM-466 2577l-4 -1l2 -2l2 2v1zM-478 2575v-1l1 1h-1zM-486 2575v-1h1l-1 1zM-460 2574h-1v-1h1v1zM-479 2574h-1v-1h1v1zM-503 2574v-1h1v1h-1zM-480 2572h-1v-1h1v1zM-488 2572v-1l1 1h-1zM-500 2572h-1v-1h1v1zM-505 2572h-1v-1h1v1zM-470 2572h-1l1 -2h2l-2 2zM-476 2573h-2v-2l4 -1l-2 3zM-479 2571h-1v-1h1v1zM-482 2572h-2v-3h2l1 1l-1 2zM-498 2570h-2v-1h2v1zM-466 2570l-2 -2h2v2zM-503 2569h-1l-1 -1h1h1v1zM-468 2568h-1v-1h1v1zM-472 2570h-2l2 -3h2v1l-2 2zM-483 2568h-1v-1h1v1zM-462 2567h-1v-1h1v1zM-464 2568l-1 -1v-1h1v2zM-469 2567h-1v-1h1v1zM-474 2568h-2l2 -2v2zM-480 2567l-1 -1h1v1zM-482 2567h-1v-1h1v1zM-500 2567v-1h1v1h-1zM-468 2566h-1l1 -1h1l-1 1zM-470 2566h-1v-1h1v1zM-475 2566h-1v-1h1v1zM-480 2566v-1l1 1h-1zM-485 2566h-1v-1h1v1zM-501 2566h-1v-1h1v1zM-466 2565h-1v-1h1v1zM-473 2565h-1v-1h1v1zM-460 2565l-2 1v-3l4 -1h1l-3 3zM-464 2564h-1v-1h1v1zM-471 2564h-1v-1h1v1zM-484 2565l-1 -1l1 -1h2v1l-2 1zM-474 2563h-1l1 -1h1l-1 1zM-481 2563h-1v-1h1v1zM-472 2562h-1l1 -1h1l-1 1zM-480 2562h-1v-1h1v1zM-497 2562h-1v-1h1v1zM-461 2562h-1h-1l1 -2h1v2zM-465 2561h-1v-1h1v1zM-494 2560h-1v-1h1v1zM-476 2560h-2l2 -2v2zM-479 2559h-1v-1h1v1zM-481 2560l-1 -1v-1h1v2zM-474 2558h-2l-1 -2h1l2 2zM-466 2556h-1v-1h1v1zM-472 2557h-2v-1v-1l2 1v1zM-477 2556h-1v-1h1v1zM-464 2556l-1 -1v-1h1v2zM-460 2555h-3v-1l1 -1v1h2v1zM-478 2553h-1v-1h1v1zM-477 2552h-1v-1h1v1zM-459 2551h-1l-1 -1h1v-2h1v3zM-479 2551h-1v-1h1v1zM-461 2550h-1v-1h1v1zM-474 2550h-1l1 -1h1l-1 1zM-464 2548h1l-1 1v-1zM-470 2553h-2l1 -5l1 2v2v1zM-476 2549h-1v-1h1v1zM-466 2547h2v1h-2v-1zM-467 2546h1v1l-1 -1zM-471 2548v-1l3 -1v2h-3zM-474 2548h-2l2 -2h1l-1 2zM-462 2548h-1v-3l1 1v2zM-468 2546v-1l1 1h-1zM-472 2546h-1v-1h1v1zM-465 2546l-1 -1v-1h1v2zM-464 2544h-1l1 -1h1l-1 1zM-462 2543h-1v-1h1v1zM-470 2543h-1v-1h1v1zM-475 2543h-1v-1h1v1zM-460 2542h-2v-1h2v1zM-463 2542h-1v-1h1v1zM-471 2542h-1v-1h1v1zM-464 2541h-1v-1h1v1zM-460 2540h-1v-1h1v1zM-462 2540h-1v-1h1v1zM-470 2540h-1v-1h1v1zM-473 2541l-1 -1v-1l1 1v1zM-428 2539h-1v-1h1v1zM-436 2539h-1v-1h1v1zM-445 2539h1l1 -1h2l-1 2l-3 -1zM-445 2539h-1l-1 -1h1h1v1zM-448 2541l-1 -1v-2h1v3zM-435 2538h-1v-1h1v1zM-445 2538l1 -1h1v1h-2zM-447 2538h-1v-1h1v1zM-434 2537h-1l1 -1h1l-1 1zM-436 2537h-2v-1h2v1zM-443 2537v-1h1h1v1h-2zM-445 2537h-1v-1h1v1zM-443 2536h-1l1 -1v1zM-447 2536h-1v-1h1v1zM-452 2538l-1 -2h1l2 -1l1 1l-3 2zM-431 2536h-1h-1l1 -2h1v2zM-443 2535v-1h1v1h-1zM-454 2536h-5l1 -1h2l2 -1v2zM-459 2534h-1v-1h1v1zM-430 2534l-1 -1v-1h1v2zM-452 2532h-1v-1h1v1zM-456 2533h-3v-2h1l2 1v1zM-450 2531h-1l1 -1h1l-1 1zM-456 2531h-1v-1h1v1zM-445 2530h-1v-1h1v1zM-447 2530h-1v-1h1v1zM-454 2530h-1l1 -1h1l-1 1zM-444 2529h-1v-1h1v1zM-451 2529h-1v-1h1v1zM-432 2530l-2 -1v-2h2l1 1v2h-1zM-435 2528h-1v-1h1v1zM-444 2527h-2v-1h2v1zM-443 2526h-1v-1h1v1zM-466 2542h-1v-4h1h1l-1 2v2zM-468 2539h-2v-1h2v1zM-463 2537h-1v-1h1v1zM-471 2539l-1 -1v-2h1v3zM-470 2536h-1v-1h1v1zM-468 2535h-1v-1h1v1zM-461 2534h-1v-1h1v1zM-464 2534h-1l1 -1h1l-1 1zM-466 2534h-1v-1h1v1zM-460 2533h-1v-1h1v1zM-464 2532h-4v-1h4v1zM-78 2436h-1v-1h1v1zM-583 2410h1l-1 1v-1zM-584 2410v-2h1v2h-1zM-582 2408h-1v-1h1v1zM-587 2399h-1l1 -2v2zM-587 2397v-1h1v1h-1zM-586 2396v-2h1l-1 2zM-586 2394h-1v-1h1v1zM-585 2392h1v1l-1 -1zM3 2342h-1v-1h1v1zM-522 2293h-1v-1h1v1zM-522 2291h-2v-1h2v1zM-519 2290h-1v-1h1v1zM-520 2289h-1v-1h1v1zM-516 2288h-1v-1h1v1zM-515 2287h-1v-1h1v1zM-518 2287h-1v-1h1v1zM-512 2284h-1v-1h1v1zM-532 2302h1l-1 1v-1zM-530 2302h-1v-1h1v1zM-529 2301h-1v-1h1v1zM-527 2299h-1v-1h1v1zM-546 2298h-1v-1h1v1zM-530 2300h-1v-2l1 -2h2l-2 2v2zM-545 2297h-1v-1h1v1zM-527 2296h-1v-1h1v1zM-524 2295h-1v-1h1v1zM-526 2294h-1l1 -1h1l-1 1zM-524 2293h-1v-1h1v1zM-542 2293l-1 -1v-1l1 1v1zM-598 2327h-1v-1h1v1zM44 2242h-1v-1h1v1zM-442 2220h-1v-1h1v1zM-513 2283h-1v-1h1v1zM-510 2282h-1v-1h1v1zM-512 2282h-1v-1h1v1zM-511 2281h-1v-1h1v1zM-510 2280h-1v-1h1v1zM-508 2279h-1v-1h1v1zM-510 2278h-1l1 -1h1l-1 1zM-507 2258l1 -1v1h-1zM-500 2254h-1l1 -1v1zM-504 2254h-1v-1h1v1zM-500 2253v-1h1l-1 1zM-500 2252h-1l1 -1v1zM-500 2251v-1h1l-1 1zM-490 2248h-1v-1h1v1zM83 2194v-1h1v1h-1zM82 2193v-1l1 1h-1zM78 2190v-1l1 1h-1zM556 2035h-1v-1h1v1z"/></svg>