<svg xmlns="http://www.w3.org/2000/svg" viewBox="-678 4558 1292 819"><g class="s" data-r fill="#000" fill-rule="evenodd"><path class="chunk" data-i="0" d="M172 4953l2 -3v-2h2v-2l2 -1v1v1h1l-2 3l-1 1v-1h-1l-1 2l-1 2l-1 -1zM-76 4997l-10 1l-9 -2l-5 -2h-4l-3 -2h-1l-2 -2l-3 -1l-2 -1h-1l-2 -2l-3 -1l-3 -1l-4 -4l-3 -1l-7 -11l-4 -10l-2 -4l-2 -17v-4l2 -7l2 -5l4 -6l4 -7l2 -2v-2l-3 2v2h-2l-4 1v-1l-1 -2h1l1 -2l2 -4l2 -3h4l2 1v3l1 -1l5 -5h2l1 1l-4 4l-2 4h1l2 -2h1l-1 -2h2l5 -4l14 -4l3 -1v-1h-1l-1 -2v-2l-1 -3h1l2 1v-1h4l2 2l2 -1v1h2l2 3l10 1l1 1h-1l1 2v3h2v2h1l8 7l4 7h2l1 5l2 2l1 2v2l1 2l2 2l1 2l1 5l3 12v4l2 6v4l-2 8l-1 3l-2 2l-1 3l-2 4l-4 7h-2v2l-6 6h-2l-5 2l-3 1zM-93 4895h5v-1h-2h-7l-5 1l-1 1l10 -1zM-85 4901v-1h-1v1h1zM-68 4917v-1l-1 -2l-1 -2l-4 -6l-2 -2l-4 -3l-2 -1v1l-2 -1v2l4 3l9 7l1 3l2 2zM-131 4904v-2h-1v1l1 1zM-124 4920l6 -7l6 -3l2 -2v-2l4 -4l-6 1l-2 2h-1v3h-4v2l-3 3v-1h-1v4l-2 3l1 1zM-92 4905l1 -1h-1l-6 -1v1l6 1zM-127 4905v-1h-1v1h1zM-98 4905v-1h-1v1h1zM-90 4906l1 -1h-1l-1 1h1zM-137 4957v-1l-1 -4v-3l2 -10l2 -3v-2l-1 -6h-1l1 -2l1 -10l-2 2v1l-2 2l-2 5v3v17l2 10l1 1zM-120 4911v-1h-1v1h1zM-100 4913v-1h2l1 -1h-1l-3 1l1 1zM-82 4912v-1h-1v1h1zM-102 4913v-1h-2v1h2zM-81 4913v-1h-1v1h1zM-132 4914v-1h-1v1h1zM-106 4914h2v-1h-2l-2 1v1l2 -1zM-80 4914v-1h-1v1h1zM-133 4916v-2h-1v1l1 1zM-79 4915v-1h-1v1h1zM-108 4916v-1h-1v1h1zM-66 4958l1 -7l-1 -4v-1l-1 -2h1l-1 -4l-2 -2l-1 -6l-1 -6l-2 -2l-1 -2v-2l-1 -2l-3 -3l-1 1l1 1l2 4v1l2 2l1 3v2l5 15l1 14h1zM-125 4918v-1h-1v1h1zM-84 4920v-1h-1v1h1zM-126 4921l1 -1h-1l-1 1h1zM-127 4922v-1h-1v1h1zM-125 4944l1 -4l4 -10l1 -2l2 -5v-1l-1 -1l-5 5l-1 2l-4 7v2l2 7h1zM-83 4922v-1h-1v1h1zM-82 4925v-1l-1 -1v1l1 1zM-80 4932h1v-2l-2 -3v-1l-1 -1v1l1 4l1 2zM-89 4955h2l1 -5l1 -3l-2 -6l-1 -5h-3h-6h-3l-6 6l1 6l7 7h9zM-122 4971v-1l-2 -2l-1 -3l-3 -10l-2 -7l-2 -1v1v5l2 7l2 2v2l6 7zM-113 4958v-1h-1v1h1zM-136 4959v-1h-1v1h1zM-135 4962v-1h-1v1h1zM-112 4962v-1h-1v1h1zM-104 4963v-1h-1v1h1zM-103 4964v-1h-1v1h1zM-84 4964v-1h-1v1h1zM-111 4965v-1h-1v1h1zM-88 4971v-1h-2l-6 -4l-5 -2h-2v2l6 3l3 1l6 1zM-110 4966v-1h-1v1h1zM-115 4970v-1h-1v1h1zM-114 4971v-1h-1v1h1zM-67 4919v-1l-1 -1v1l1 1zM-54 4953v-1h-1l-1 -8h-1l1 -2l-2 -2l-1 -5l-1 -5h-1l2 23h5zM-55 4964v-2h-1v1l1 1zM-75 4988l3 -1l4 -2l1 -1h-1l2 -2h2v-2h2l1 -2l3 -6l1 -2l1 -4l-1 -1v1l-3 4v2h-2l-5 6l-5 5l-1 1h-2l-3 1l-6 1h-14v1l9 2l14 -1zM-103 4985v-1h-1v1h1zM274 4997l-4 -1l1 -2v-2h1l1 4h1v1zM278 4989v-1h2v2l1 2h-1l-2 -2h1l-1 -1zM266 4982h-7l1 -1h6v1zM246 4873l1 -1h-1v-1h2l1 -1v-2h1l-1 -2l-1 -2l-1 -2h1h1v2l2 2l-1 3l-1 3l-2 2l-1 3h-2v-1h1v-2h1v-1zM271 4741h-12l-5 -1l-1 -2l1 -1l16 -2l3 -1l5 -2h2l2 -1l2 -3l1 -2l7 -11l3 -6l1 -4l2 -9v-2l4 -1l2 1l-1 11l-1 3l-2 5l-2 6l-4 5l-4 4v2l-6 6l-2 2l-3 1l-4 1l-4 1zM256 4694h-6l-3 -2v-2v-3v-1l3 -4l8 -1l2 1v2h2l1 2v4l-3 3l-4 1zM236 4990h-7l1 -1h6v1zM220 4991l-1 -1h-1h-1l1 -1l3 -1l3 -1l2 2v-1h1l1 2h-2v2v1l-2 -1v1l-1 -1v-1h1l1 -1l-1 -1h-2l-1 2l-1 -1v1zM194 4991l-2 -1l2 -2l2 -1l1 1l-1 1h-2v1v1z"/><path class="chunk" data-i="1" d="M224 4987v-1l-2 -2v-1l4 3h4v-1l2 1v1l-5 1l-1 -1h-2zM194 4983v1l-2 3l-2 -1h-1l1 -1h2v-1l-1 -2l1 -1h2v1h-1l1 1zM194 4982h1v-1h1l1 -1h1v1h1l-1 2l-2 -1v2h1l-1 2h-1l-1 -3v-1zM228 4983v-1l2 -1l4 -4v1l-4 4l-2 1zM197 4980h-1v-2l2 -1v1v1l-1 1zM202 4976v-1h2v1v1h-1v-1h-1zM189 4937v1l-1 2h-4l4 -4v1h1zM188 4939v-1h-1v1h1zM189 4936h1v-2v-1l2 1v2l-2 1h-1v-1zM195 4931h1v-1h2l-2 2h-1v-1zM200 4929l-1 -1l1 -4l2 1h1v1l-1 2h-2v1zM206 4921v-1l2 -2v1l1 -1h1v-2h2l2 1v1v1l-2 -1l-3 3l-1 -1v1h-2z"/><path class="chunk" data-i="2" d="M218 4915v1l-4 1v-1h1v-2h2l1 1zM217 4914v-2h1v1l2 -1h1v2l-3 1v-1h-1zM184 4942l-4 5h-1v-1l-1 -1v-1l2 -1h2v-3l2 1l-1 1h1zM200 4900h1v2l-1 1h-2v-1l1 -1h1v-1zM199 4901h-1l-2 1v-2l-2 -1h-1l1 -1l2 1l3 1v1zM199 4900v-2l-1 -1l-4 -1h-1l1 -1l2 -1v1h2l2 3v2h-1zM226 4886l-3 -1v-2l4 1v-2h1v-1h-2v-1h3l-1 3v1l-2 2zM234 4879v1h-2l1 2l-1 1l-2 -1l1 -2v-1h3zM211 4879l-1 -1l1 -2l1 -2v-2l2 -2h2l-3 4l-1 1v2l-1 1v1zM212 4868l2 -2v1h1v1l-1 1h-1v-1h-1zM242 4871v-1h-1v1h1zM240 4871v-1h-1v1l-1 2h2v-1h1l-1 -1zM243 4873v-1h-1v1h1zM245 4874h-6v2h1v1h-3l1 -2v-1l-2 -2v2v1l-2 -1l1 -2l1 -3h2v-1h-1l1 -2h2h1v-1l1 1l-1 2l1 1h2l1 1l1 2v1l-1 1z"/><path class="chunk" data-i="3" d="M217 4867h-2v-1h-1v-1h2v1h1v1zM217 4866l-1 -1v-1h2v2h-1zM218 4866l1 -2h-1v-2l2 2l1 2l-3 2l-1 -1h1v-1zM230 4860h-1v-2l1 -2l2 2l-2 2zM231 4859v-1h-1v1h1zM219 4824l-1 2l-2 -1v1h-1v-2l2 -1v1h1h1zM234 4818l-2 2l-2 1l-1 -1l1 -2h2v-2h1v-1h1l1 -1h1h1l-1 -1h-1v-1h3v3l-2 1h-2v1l-1 1h1zM226 4817v-1h-1v1h1zM217 4823v-1l3 -3h4v-1h-1l2 -2v-2h1l2 1v-1l2 -4h3l1 1v2h-1l-1 -1v1l-2 1v1h2v1h-2l-2 2v-2h-1v2l-3 3h-2l-2 2v-1h-1v1h-2zM221 4813h-1v-3h-1l1 -1l1 -1h2l-1 2h-1v3zM238 4787v-1v-1l1 -2h-2v3l1 1zM236 4786v-1h-1v1h1zM235 4787v-1h-1v1h1zM240 4788v-2h-1v1l1 1zM237 4788v-1h-1v1h1zM238 4790v-1h-1v1h1zM232 4794l2 -2v-2l2 -2h-3v2l-1 1h-2v1h-1l1 1v3l2 -2zM229 4800h-2v-2h-1v-1h2v1h1l-1 -6l2 -3h2v-3l2 -1l2 -1v-2h4v2h4v1h-2v1l-2 2l1 2h-1l-4 3l-5 5h-1v1l-1 1zM219 4692l-5 -1l-2 -3l1 -9l2 -5h3l3 2h1l3 2v2l1 2h-1v4l-2 2v2h-2l-2 2z"/><path class="chunk" data-i="4" d="M52 5198h-5l-11 3v1l-2 -1l-2 2h-3v3l-1 1l-3 -1l-4 -1l-1 -5l2 -2l12 -1l2 -1v1l2 -1l9 -2l16 -4l15 -4h5h11l2 2l-2 2l-11 1l-11 1l-20 6zM-31 5200l-1 1h-3v-1l-1 -2l2 -1v1l3 1h-3v1h3zM-58 5191l-2 -1l2 -2v1l4 -1l-2 2l-2 1zM-46 5188l-2 1l-1 -1l1 -1h2l1 -1l-2 -2h1l2 2h3l-1 1l-2 1h-2zM-24 5185h-2l-2 -1v1l-1 -1v-1l4 1h1h1l-1 1zM-120 5215l-2 -1l2 -2v1h3l-1 1l-2 1zM-114 5215l-2 -1l1 -2l1 -1l1 1l-1 2h1l-1 1zM-128 5214l-11 -1l1 -1l2 -1v1l2 -1l4 1h2v2zM-112 5210h-8l-2 -2h2l2 1v-1l2 1h4v1zM-72 5208l-10 -1v-1h2v-1l1 1l1 1l2 -2l2 2v-1l2 2z"/><path class="chunk" data-i="5" d="M-73 5190l-5 1v-2h7l-1 1h-1zM-92 5191h-4v-1l2 -2h3v2l-1 1zM-93 5190v-1h-1v1h1zM-144 5213h-2l-2 -1v1l-1 -1v-1l3 1h2v1zM-170 5212l-4 -1h-1l1 -1h7l-1 1l-2 1zM-174 5213h-2l-2 -1l2 -2v2h2v1zM-178 5211h-6v-1l2 -1v1l2 -1v1l2 -1v1v1zM-124 5210l-17 -1v-1l-1 -2h2l2 2h14h1l-1 2zM-192 5209h-2l-1 -1l1 -1l6 -1v2l-4 -1v2zM-174 5208l-2 -1v1l-2 -1h-1v-2h3v1l2 -1h2v1h-1v2h-1zM-194 5205h-6v-1h7l-1 1zM-198 5203h-6v-1h7l-1 1z"/><path class="chunk" data-i="6" d="M-164 5202h-10v-1h11l-1 1zM-147 5201v-1h2l3 1v1v1l-2 -1v4h1l-1 1l-8 -1v-1h4l2 1l1 -2l-1 -2v-1h-1zM-266 5217v1h6v1h-8v-1l1 -1h1zM-232 5216h-2h-1l1 -2h-2v-1h3v1l1 2zM-210 5208l-1 -1l-1 -1v-1h4v1h-2v2zM-234 5200l-3 -1v-1l-1 -1v1h-2h-1l1 -2h4l2 2h1v2h-1zM-248 5198l-5 1l1 -1l4 -1v-1l2 2h-2zM-260 5198v-1l2 -1v-2h1v2h1v1h-2l-2 1zM-264 5199v-2l-2 1l1 -4h1h1l-1 2h2h1l-3 3zM-246 5192l-2 -1l-2 1h-1l1 -1h1l4 -1v2h-1zM-230 5191v1h-3v-2h-1v2h-1v-3l3 -1l2 2h-1l1 1z"/><path class="chunk" data-i="7" d="M-253 5188h-1v1l-1 -1l1 -2l2 1l-1 1zM-269 5219h-3l-2 -1v1l-2 -1h-7v-2h1v1h10v1l2 -1h1v2zM-330 5218h-1v-2l1 -1v1h2l4 -1v1h-2l-4 1v1zM-271 5216l-4 -1h-2l-3 1l1 -2v-1h2l3 2h2v-1h1v2zM-264 5212h-8l-2 1v-1h-2v-1h13l-1 1zM-290 5208h2h1l-1 2h2v2h1v-2h1v1l2 -1v2l-2 2h-2v-1l-1 1l-1 1l-2 -3h1l-1 -1h-1v-2h1v-1zM-289 5210v-1h-1v1h1zM-284 5205h-3l1 -1h1l-1 -1h-1l1 -1h2h1l-1 2v1zM-292 5208h-1v-4l1 -2h4l-1 2h1v1h-2l-2 1v2zM-291 5205v-1h-1v1h1zM-268 5188l-2 -1l-2 -1v-1h2l2 1v-1h2v1l-2 2zM-275 5188h-3l-2 -1v1h-2l-2 -1l-8 1v-1h5l-1 -1h-2v-1l8 1v-1l2 1h2v-1l2 1h1v2zM-276 5179h-2v-1l-2 1v-1h-2v1l-2 -1v-1h8v2z"/><path class="chunk" data-i="8" d="M-623 5215l-1 -1v-3l2 -1h2v2h1l-1 1l-2 1v-2h-1v3zM-591 5193h-1v-1v-1h2v1h-1v1zM128 5154l-2 -1l-9 -6l-59 -20l-4 1l-4 -2l-2 -1l-1 -1l1 -4v-2l5 1l5 2l14 5l23 8l17 5l2 1v-1l2 1l6 1l5 5l1 6h1l-1 2zM-297 5160h-1v-3h4v1l-2 1v-1h-1v2zM-305 5159v-1h-1v1h1zM-302 5158h2l-2 2h-6l1 -2v-1h3v1h1l1 1v-1zM-315 5157l1 -1l2 1v-1l2 1h2v2l-8 -1h1v-1zM-322 5158v-1h-1v1h1zM-318 5158v-1h-1v1h1zM-316 5158h-1l-7 1l1 -3l1 -2v1h1l-1 1v1l4 -1v1l2 -1l1 1h-1v1zM-275 5144l1 -2h1v4l-2 -1l1 -1h-1zM-276 5144h-2h-1l1 -2v-2l3 1l-2 1l1 2zM-330 5143v-1h-1v1h1zM-326 5143v-1h-1v1h1zM-325 5144h-3v-1l-2 1h-2v-2l1 -2h1l2 1v-1h2h1l-1 2l2 1l-1 1zM-284 5143l-2 -1v-2l2 -1h5v3h-1v-2h-4v1h2v1l-2 1z"/><path class="chunk" data-i="9" d="M-308 5143h-2l-1 -1l2 -2v-1l1 1l1 2l-1 1zM-314 5143v-2l-2 2l-2 -1h-2v-2l2 1h2l2 -2l2 1v-1l1 1l-3 3zM-292 5139h-7l1 -1h7l-1 1zM-302 5140l-4 -2h-2v-1h8v1h-2v2zM-332 5148l-2 1l-1 -1l1 -1h2v-1h-2l-1 -2v-1h2v2l5 1l2 -1v1h4h1l-1 2l-2 -1l-1 1l-4 -1l-3 1zM-330 5147v-1h-1v1h1zM-346 5145l-4 -1v-2l2 1h1l1 -2v1h1v2h-1v1zM-348 5141l-1 -1l-1 -2h-2v-1h5l-1 2v1v1zM-332 5139h-2v1h1v2h-1l-1 -2v-1h-10v-1l1 -1v1h2l4 -3l1 1l-1 2h6v1zM-339 5138v-1h-1v1h1zM-356 5137v-1l1 -2h1l-1 4l-1 -1zM-70 5071h-6l-2 -1v-6l2 -3l6 -1v-2l2 1h3l2 5v2l-5 5h-2zM-208 4813v-1h-2l-1 1h3zM-229 4825v-1h-1v1h1zM-232 4827v-1h-2v1h2zM-235 4829v-1l-1 -1l-1 1l1 1h1zM-243 4835v-1h-1v1h1zM-245 4836v-1h-1v1h1zM-246 4837v-1h-1v1h1zM-250 4840v-1h-1v1h1zM-22 5074v-1h-1v1h1zM-31 5095v-1h-1v1h1zM-527 5154v-1h-1v1h1zM-530 5156v-1h-2v1h2zM-532 5157v-1h-1v1h1zM-521 5151v-1h-1v1h1zM-399 5123v-1h-1v1h1zM-428 5128v-1h-1v1h1zM-426 5128v-1h-1v1h1zM-374 5120v-1h-1v1h1zM-290 5105l7 1h2v4h-1l-3 2l1 2h-1l1 2l2 -1l1 1v4h3l-1 2h1h2l1 2v1h2l2 5l5 4l2 2v1h2l1 4h2v1l5 6l7 4h1l2 2l3 1l13 7l6 4l3 2l12 5l33 9l6 1v1l2 -1v1h10v-1l2 1v-1l21 -3l27 -6l17 -7l3 -1l2 -2l2 -1l2 -1l12 -9l4 -3l12 -16l8 -11l4 -9v-2l2 -5l12 -31l4 -12l2 -10l6 -34v-26l-12 -57l-2 -5l-2 -4l-2 -8l-1 -2l-2 -2l-1 -2l-13 -22l-3 -4l-6 -10l-8 -10l-1 -3h-2v-3h-1l-4 -4l-12 -12l-6 -4v-2l-2 -1l-8 -5l-4 -3h-2l-2 -2l-1 -1l-12 -5l-37 -13l-17 -4h-20l-5 1l-2 2h-2l-1 1l1 1l1 1l-3 2h-2l-2 -1l-6 6l-4 3v2h-2v2h-2h-4l-2 1l-2 3h-3l-1 -1v1h-1l1 1v2h-2v-1v-1l-2 1l1 2l-3 2h-1v2h-2v1h-1v1l-4 3h-1v1h-1v1l-3 3h-1v1l-1 1h1l-18 21l-10 17l-1 2l-2 2l-1 2v2l-4 7l-1 2l-1 3l-2 2l-1 2l-9 18l-2 5l-10 35l-2 8l-1 2h1l-1 2v2h-1l1 2h-1l1 22l5 34l2 7v3h1l-1 2l2 4l2 4l1 4h2v2l2 2v4l3 2v2l3 4v2l3 2v2l4 6l2 5v1l1 2h-1v3h1l1 1v-1zM-276 5124v-1h-1v1h1zM-274 5127v-1h-1v1h1zM-273 5128v-1h-1v1h1zM-590 5192h2v-1h-2v-1h-1l1 -1l4 -2l5 -3l3 -1l14 -11l10 -5l2 -2h2l2 -2l2 -1l5 -2l1 -1l2 -2h2l2 -2l2 -1l6 -4l28 -12l32 -7l2 1v-1l69 -13l5 -1v-1l2 1v-1l10 -1l2 -1v1h4v-1l2 1v-1l2 1v-1h6v-1l2 1v-1l14 -1v-1l2 1v-1l44 -4v-1h-1l-1 -3l-2 -7l-3 -4l-2 -4l-1 -2l-2 -2v-2l-2 -2v-1l-2 -5l-7 -13l-7 -22l-1 -9h-1l1 -2h-1l1 -2h-1v-2h-1l1 -2h-1l1 -4l-2 -2l1 -2h-1v-2h1l-1 -2h1l-1 -2l-1 -20h1l-1 -2v-1l4 -13v-2l1 -4l9 -26l1 -4l2 -2h-1l2 -2l-1 -2l2 -2v-1l2 -4l1 -3l2 -2l1 -1l20 -35l10 -16l9 -11h2v-1l1 -2h2l3 -6h1l2 -2l4 -5l3 -1l13 -11l6 -3l2 -1v1l1 -1h2v-2h2v-2l15 -12v-2l2 -1l5 -2l5 -2l4 -1h16l5 1l26 6l28 11l7 3l5 2l3 1l2 2l1 1l5 2v2h2l2 2l16 12l4 4l21 26l9 14l2 2v2l2 2v2l3 4l5 7l7 18l16 68l-2 42l-1 13l-2 5v1l-2 2l-2 2v2h-2l1 2v1l-1 3l-1 3h-1h-1l1 1h1l-1 5l-1 5l-3 9l-2 7l-3 8l-7 18l-6 11l-13 19l-3 3h-2v2l-8 6l-9 5l-20 10l-18 5l-19 4v1l-2 -1v1l-32 1l-11 -1l-34 -10l-4 -1l-3 -1l-2 -2l-2 -1l-11 -7l-21 -11l-8 -9l-6 -7h-2l-11 -11l-5 -8l-6 -6l-12 1l-2 1v-1h-4v1l-2 -1h-2l-2 1v-1l-2 1l-11 1l-3 1h-4v-1l-2 2l-2 -1v1h-2v-1l-2 1l-3 1h-1l-2 -1v1h-4v1l-2 -1l-12 2l-2 -1v1l-4 1l-2 -1v1l-2 -1v1l-11 1l-16 2l-83 18l-6 3l-4 1l-2 1l-2 2h-2l-2 2l-6 2l-6 2l-2 1l-2 2h-2l-10 6l-3 2l-5 2l-2 2h-2l-2 2h-1l-8 4l-3 2l-8 6l-2 2l-2 2h-2l-2 2l-3 1l-2 1h-1l-2 2l-3 1l-2 1l-13 8l-3 1l-3 1l-2 2l-2 2h-3v-3h1l2 -2h2l2 -2l2 -1l5 -2l-1 -2v-2l2 1l2 -2l4 -1v1l2 -1l2 -2v-2h-1l1 -1h1v3h1l1 -1h1v-1zM-600 5198v-1h-1v1h1zM-601 5199v-1h-1v1h1zM-603 5200v-1h-1v1h1zM-615 5210v-1h-1v1h1zM-560 5173v-1h-1v1h1zM-582 5187v-1h-1v1h1zM-584 5188l1 -1h-1l-1 1h1zM-586 5189v-1h-1v1h1zM-586 5191v-1h-1v1h1z"/><path class="chunk" data-i="10" d="M462 5203l-2 -1l-2 1v-1h1l-1 -2l5 1v1l-1 1zM456 5202h-2v-1l-2 1v-1h-2v-2h-2v-1l8 1l1 1l-1 2zM455 5201v-1h-1v1h1zM438 5181h-12v-1h6v-1l2 1h1h2h1h1l-1 1zM414 5177h-4v-1l-2 1v-1v-1l3 1h3v1zM416 5166h-2v-1l-2 1v-2h2l2 2zM386 5220h-2l-2 -2v-5h-2v-1l-2 1v-1l-2 1v-1l-2 1v-1h-2v1l-2 -1h-20l-2 -1v1l-2 -1l-23 1h-3v-2l2 -1l16 -1v-1l2 1v-1h2v1l2 -1l16 1l2 -1v1l2 -1v1l24 -2v2v5l-1 5l-1 2zM384 5151l-6 -1v-2l2 -1l2 2h2v-1h1v2l-1 1zM374 5142v-1l2 1h2v-1l2 1l8 1l3 3v2l-1 2h-2v1l-2 -1v-2h2v1l1 -1l-1 -2h-2v-2h-1v2h-1l-1 -2v-1h-1l-1 1h1v1h-2l-2 -2v1l-2 -1l-2 2v-1v-1l1 -1h-1zM390 5147v-1h-1v1h1zM374 5143h-1v1v1l-1 -1l-2 -2v1h-3v-2h1v-1l2 1l4 1v1zM588 5214h-1l-5 -3l-3 -1l-4 -2l-18 -6l-125 -48l-21 -6l-56 -16h-3l-2 -2l-14 -3l-2 -2l-2 1v-1l-4 -1h-2v-1l-4 4h-2v2h-2v2l-14 12l-4 4h-4v-2l1 -1l7 -8h2l1 -2l7 -7h1v-2h1l2 -1l-2 -2l-29 -7l-5 -1v-1l-2 1v-1h-2v-1h5l20 4l14 4l3 1l5 -5l11 -11l2 1l2 2l1 6l-1 1h-2l-2 -1l-2 2l-6 5h-1l1 1l30 6l2 2v-1h3v1l1 1v-1l6 1l2 2l2 -1h1l2 2h1l2 1v-1l2 1l15 3l7 3l104 36l37 15l22 9l16 6l5 3h2v2l-2 2z"/><path class="chunk" data-i="11" d="M266 5110l-6 -1h-1l1 -1l6 1v1zM258 5108h-7l1 -1h6v1zM180 4876l8 -20l4 -14l2 -7l4 -13l1 -3l-3 1l-6 2l-4 2l-5 1l-3 1l-2 2h-1l-8 4l-7 3l-21 7l-5 2l-2 2h-2v2l10 20l6 11h2v1l4 5h2v2h2l1 1v2h3l2 2h1l7 5l2 3h1l2 -8l2 -6l1 -3v-2l2 -5zM310 4740l2 -3l2 -3l2 -3v-1l2 -2v-3l2 -6l1 -4l1 -42v-2l-2 -2v-1l-2 -2v-2l-2 -2l-6 -8l-2 -5v-1l-2 -2l-2 -2v-1l-2 -2v-2l-4 -1l-8 -11l-2 -3l-2 -4l-1 -4h-5l-2 -2l-1 -4l-3 -3l-2 -2l-4 -1l-2 -2l-7 -1h-8l-12 3l-3 1l-5 2v1l-1 2h-2l-6 9h-2v1l-2 -1l-2 -1l1 -2l3 -4v-2h-2l-3 2l-4 1l-4 1v2h-1v-1l-1 1l-2 2l-3 4l-6 10l-2 7l-2 7l-3 16h1l-1 2v26l1 2h-1l1 2v5l2 4l3 8l14 27l8 10l5 5l4 3l2 1l8 3l14 6h4v1l2 -1v1l12 -1l2 -1v1l2 -1l2 -1l10 -4l6 -3l6 -3l8 -6v-2h2v-2l2 -1l4 -3zM222 4610v-1h-1v1h1zM194 4861l-2 3v3l-6 18l-1 3h1v1h-2l-2 5v2h-1l1 2l-2 2l-1 6l3 2l3 1v2h2l1 4v5v2l-2 1l-6 1l-2 -2l-3 -2l1 -2v-1h-2v1l-2 2v3l-5 11l-6 19l-1 5l-1 2l-2 2l-1 9v9l-1 5v9l-1 6l2 2l11 4h3l27 2l4 1h2l15 1l4 -1l10 -1v1l2 -1h8l23 -4l17 -3v-1l2 1v-1h7l5 -2l14 -4l26 -8l1 -2l1 -1v-2l-1 -4l-2 -21h-1l1 -2h-1l-1 -15h-4l-1 -7l-2 -2h-2l-1 -2l-1 -8l2 -2v-2l-2 -27l-3 -15l-3 -8l-4 -20l-9 -35h-3l-1 -1h1v-2h2v-2l-2 -5l-3 -18l-1 -6h-2l-1 -1l-1 -3v-2l-1 -1l-2 -2v-3l-3 1h-2l-2 1l-2 2l-4 1l-2 2l-6 1l-8 1l-6 1v-1l-2 1v-1l-5 -1l-10 -3l-7 -2l-2 -1v-1l-2 2v4l-2 2l-6 17l-1 1l1 2l-2 2v1l-1 2l-1 3l-2 2l1 2l-1 2l-6 16l-7 18l-1 2v2h1l-1 1h-1l-3 10v3h-1l1 1zM334 4626l-2 -2v-2l-8 -8l-3 -2l-7 -5l-3 -1l-1 -1l-2 -2l-8 -1v-1l-2 1v-1h-2l-1 1h1h1l9 7l6 7h3l7 4l6 3l2 1l2 2h2zM300 4622v-1h-1v1h1zM302 4624h1l-1 -2h-2v2h2zM304 4625v-1h-1v1h1zM306 4628h1v-2l-1 -1l-1 1l1 2zM308 4629v-1h-1v1h1zM343 4630v-1h-1v1h1zM336 4643l1 -1l-1 -8h-2l-4 -2l-2 -1v1h1v3h2l2 4l3 4zM314 4634v-2h-1v1l1 1zM316 4642h1l-5 -6h-1l2 4l1 2h2zM339 4659v-5h-1l-1 2h1v2l1 1zM340 4664v-4h-1v4h1zM341 4666v-2h-1v1l1 1zM330 4907l1 -1l1 -2l17 -28l33 -58l3 -6l2 -2h-1h-1l-5 -2h-5h-31l-2 1v-1l-2 1l-30 1l-2 2h1v2l1 3l12 47l2 7l2 6l3 29l1 1zM-4 5079l2 -1l18 1l3 1h2l3 1h14l2 1v-1l2 1l80 3l2 -1v1l14 1l30 6h4l3 1l5 -62l4 -10l2 -7h2v-1h-10l-2 1v-1l-2 1l-15 -5l-9 -3l-2 -2v-14l-1 -2h1v-12l1 -2h-1l2 -11l11 -33l6 -17l1 -3l1 -2h-1l-1 -4l-3 -3l-11 -1l-1 -2v-2l-12 -14l-15 -29l-4 -9l1 -2l1 -3l5 -1l9 -3l33 -11l2 -2h2l18 -8l3 -1l8 -1v-2l1 -4h-1l1 -2l1 -2l1 -5l2 -7l2 -2v-1l6 -12l1 -3l2 -2l1 -1l2 -4v-2l-2 -1h-2l-6 -5l-2 -1v-2h-2l-2 -3l-8 -11l-4 -7l-1 -1l-2 -2l-1 -3l-7 -17l-2 -7l-1 -7v-46l4 -12l2 -6l8 -14l9 -10h-1h-3l-4 2h-3v-2l-1 -4l1 -1l8 -2l1 -1h-1v-2l-2 -2h-1v-2l1 -2h-1v-2h2v-2h5l4 3h8l1 -1h-1l1 -4v-2h2l3 -1l2 -1v1h2v-1l2 1h14l2 2l11 -1v2l6 -1v2l30 3l7 2l15 6l6 2l1 1l2 2l3 1h2l5 4l3 2v2l5 4l4 4l8 10l4 6l1 2l2 2l-1 4h-2h-3h-2v-2l-1 -1l-2 -1h-2l-2 -1v-1h-1l4 23l2 25l2 2l-1 2h2v1h-2v1l1 2h-1l-2 1v-1h-1v2h-1l-2 -2l-2 -2h1l-2 -2l-1 -5h-7l-5 -2v1h1l-1 2h1l-2 27l-1 6v4l-2 5l-6 11l-2 5h-2v2l-4 4l-6 3v1l-2 2l-5 4h-1h-1l1 2v2l2 5l2 4l1 3l4 20l1 5l1 3l1 2l58 -6v1l2 -1l26 3l2 3v2l-2 5l-2 3l-4 4l-1 2l-3 4v2l-3 2l-1 2l-2 4l-2 4l-1 2l-2 2v2l-2 2l-1 1l-37 64l-1 3h-1l1 2l3 6l1 3l8 51l1 4v2l-1 4l-2 3l-3 1l-5 2l-23 6l-12 4h-6l-4 2l-29 5l-1 19h2l1 5l4 25h1l-1 2l2 7v5l2 2v3l-1 4l5 28h3l-1 1h-2l1 2h-1l1 2l5 50l2 9l1 5l1 4l-2 2l2 2v2h2v3h-4v2l-9 11l-9 8l-7 6l-1 2l-12 17v2l-1 2h-1l-2 1v-1h-2l-3 -3l-7 -8v-2h-4l-2 -2l-1 -2h1v-2l2 -2l4 -1l2 -1l3 -2l15 -11l20 -16l8 -9l-2 -16h-1l1 -2h-1l-1 -22l-1 -2h1l-1 -2v-14h-1l1 -2h-1l-1 -9v-2h-2v-1l1 -1v1h1l-5 -32l-2 -2v-1l-6 -19l-3 -24l1 -2h-1v-2l1 -2h-1l1 -2h-1l1 -13h-2l-5 1l-13 3h-10l-5 1l-18 -1l-5 -1l1 2h-1l-2 2v1h-2l-1 4l-3 10l-2 16v23v4l1 4l-3 3h-2v-1h-1v12l1 2l4 1l4 -1l6 2h2v-1l2 2l2 -1l3 1l4 1l2 1v-1v-1l1 1v1l2 -1l2 2l4 -1l2 1h2v1l2 -1h2l2 2v1l-6 -1l-41 -6h-2v10l1 2h-1v2h1l-1 2h1v6h1l-1 2l8 42l1 6l5 1v2l-1 1l-1 2h-2l-4 4v2l-3 4v1h-2v1l-5 5l-4 3v2l-2 1l-10 6l-8 6l-2 1l1 2l1 1v2l-1 1l-1 2h-8v2l-6 6h-2l-3 1l-5 -1l-4 -3l-4 -3h-4l-2 -2v-4h2l4 -2l2 -1l2 -2l2 -1h2l2 -1l2 -2h2l2 -2l1 -1l22 -12l9 -8l2 -1l13 -13l-1 -6h-1l1 -2h-1l-6 -44l1 -2h-1l1 -2l-1 -2h1l-1 -2v-14h-3v-2l-2 1l-6 -1l-2 -2h-1l3 4v1l-59 -7l-4 -1l-49 -3v2l-20 -1l-2 -2l-7 -1l-5 -2h-2h-33h-3l-2 -2l4 1v-1h-1l1 -1l4 1l2 -1v1l2 -1h2l2 1l1 -1l1 1v-1zM93 5085v-1h-1v1h1zM96 5085v-1h-1v1h1zM107 5087v-1h-1v1h1zM156 5093l1 -1h-1h-1l-2 -1l-3 1l-2 -2h-2v1l-2 -1l-3 -1h-1l-2 -1v1l-2 -1v1l-24 -3h-2v2l35 4l11 1zM128 5220h1l-1 -2v-1l-2 1l-1 1h1l2 1zM221 5103v-1h-1v1h1zM227 5104v-1h-1v1h1zM244 5229v-1h-1v1h1zM243 5231v-1l-1 -1l-1 1l1 1h1z"/></g><g class="f live" data-r data-f="0" fill="var(--live,#000)" fill-rule="evenodd"><path class="chunk" data-i="3" d="M124 5334h-2l-2 -2v-1v-2v-1l2 -2l1 -3l1 -4l5 -13l2 -2v-2l5 -12l13 -24l3 -2h1l2 -1l-1 4v2l-4 6l-7 13l-13 35l-1 3l-1 4l-4 4z"/><path class="chunk" data-i="4" d="M52 5302l-3 -1l-5 -1v-2l-1 -4l3 -2l2 -1l10 -7l2 -1l2 -2h2l2 -3l27 -14l1 -1l2 -2h5v1l-3 3l-2 1l-5 4l-25 14l-8 6l-2 1v2h-2l-1 1v2l2 2v3h-1l-2 1z"/><path class="chunk" data-i="10" d="M294 5326l-4 -1l-4 -6l-2 -5l-2 -15l-8 -18l-2 -7l-2 -6l2 -2l2 2v2l13 30l4 13l2 5l1 1h2l1 1v4l-1 1h-2v1z"/><path class="chunk" data-i="11" d="M219 5353h-5l-1 -1l-3 -52v-8l-1 -10h1l2 2v1l2 5l2 20l1 2h-1l1 2l1 16h1l-1 2h1v14l2 2l-1 1v2l-1 2z"/></g><g class="f live" data-f="1" fill="var(--live,#000)" fill-rule="evenodd"><path class="chunk" data-i="3" d="M121 5332h-2v-2v-1v-3v-2l2 -2l1 -3l2 -4l6 -11l3 -2l1 -1l7 -11l11 -22l2 -2h1h2l-1 2l-1 2l-3 5l-6 12l-19 32l-2 4l-1 5l-3 4z"/><path class="chunk" data-i="4" d="M50 5303l-4 -3l-6 -1l-1 -3l-1 -4l3 -3l2 -1l12 -8l3 -1l2 -2l3 1l3 -3l25 -12h2l2 -2h5v1l-3 3l-2 2l-5 3l-24 12l-9 5l-3 2l-1 1l-1 1l-2 2v1l3 3v4h-2l-1 2z"/><path class="chunk" data-i="10" d="M293 5324l-3 -1l-4 -5l-2 -4l-2 -16l-5 -17l-2 -5l-2 -5l1 -1l2 2l1 1l9 26l4 12l2 4l2 2v-1l2 2v3l-1 1l-1 1l-1 1z"/><path class="chunk" data-i="11" d="M222 5356h-5l-1 -1l-6 -54l-2 -7l-1 -11h2l1 2v2l2 6l5 18l1 1h-1l2 1l3 18l1 2l-1 1l2 1l-1 15l2 1l-1 1l-1 2l-1 2z"/></g><g class="f live" data-f="2" fill="var(--live,#000)" fill-rule="evenodd"><path class="chunk" data-i="3" d="M124 5330h-4l-1 -1l-1 -2v-1v-1l2 -2l1 -2l1 -3l3 -13l2 -3v-1l6 -14l16 -22l2 -3h2l1 -1v4l-1 2l-4 6l-9 12l-12 37l-1 2v4l-3 2z"/><path class="chunk" data-i="4" d="M54 5304l-3 -2h-5v-2l-1 -4l2 -2l2 -1l7 -5l2 -1l2 -2l2 1l3 -3l30 -17h1l2 -2h4l1 1l-2 3l-2 1l-5 4l-29 16l-7 4l-2 1v2h-1l-1 1v1l2 2v2l-1 1l-1 1z"/><path class="chunk" data-i="10" d="M291 5325l-4 -2l-4 -8l-1 -6v-14l-5 -12l-3 -6l-1 -7l1 -2l3 2v2l10 24l1 13l2 6l2 2h1l2 2v4l-2 1h-1l-1 1z"/><path class="chunk" data-i="11" d="M216 5350h-3l-1 -1l2 -45l-2 -10l-2 -11l2 -1l2 2l1 2l2 5l3 24v1l-1 1l1 1l-2 11h1l-1 1v1l-2 11l2 1l-1 2v2l-1 3z"/></g><g class="f jolt-f live" data-f="3" fill="var(--live,#000)" fill-rule="evenodd"><path class="chunk" data-i="3" d="M121 5340l-4 -1l-1 -2l-1 -2l1 -3v-2l3 -3l1 -3l2 -7l6 -18l2 -2v-2l3 -9l13 -23l3 -3l2 -1h2l-2 4l-1 2l-6 7l-7 14l-9 39l-2 5l-1 6l-4 4z"/><path class="chunk" data-i="4" d="M59 5306l-5 -2l-7 -1l-1 -2l-1 -3l4 -2l3 -1l12 -8l2 -1l2 -3h2l2 -4l27 -14h2l2 -1l4 -1v1l-3 2l-2 1l-6 3l-23 16l-6 8l-3 1v2h-2l-2 2v1l3 2l-1 3h-1l-2 1z"/><path class="chunk" data-i="10" d="M295 5328l-4 -2l-7 -5l-4 -4l-7 -17l-4 -26l1 -7l1 -4l2 -2l1 1v1l7 39l7 15l4 4l3 1l1 1l2 1v2l-1 1h-1l-1 1z"/><path class="chunk" data-i="11" d="M219 5348h-4l-2 -1l-2 -46v-6v-8h1l2 2v1v3l1 15h1l-1 2h1l2 18l1 1l-1 1l1 1v12l2 2l-1 1l-1 1v1z"/></g><path class="grain" fill="#000" fill-rule="evenodd" d="M178 4968h-1v-1h1v1zM177 4967h-4l1 -1h2v-1l1 1v1zM171 4965h-1v-1h1v1zM176 4964h-1l1 -1h1l-1 1zM173 4966h-1v-3l1 1v2zM172 4963h-2l-1 -1v-3l1 1v1h2v2zM176 4959h-1v-1h1v1zM172 4960l-1 -1v-1h1v2zM166 4957h-2v-1h2v1zM177 4956h-1v-1h1v1zM170 4958v-2v-1l2 1l-2 2zM169 4956h-1v-1h1v1zM164 4955h-1l1 -1h1l-1 1zM173 4954l-1 1h-1l1 -2v1h1zM168 4954h-1v-1h1v1zM166 4954h-1v-1h1v1zM179 4953h-1v-1h1v1zM165 4953h-1v-1h1v1zM170 4953h-2v-1l2 -1v1v1zM166 4952h-1l1 -1h1l-1 1zM168 4951h-1v-1h1v1zM170 4950h-1v-1h1v1zM173 4948h-1v-1h1v1zM170 4948h-2v-1h2v1zM174 4947h-1v-1h1v1zM171 4947h-1v-1h1v1zM176 4945h-1v-1h1v1zM173 4945h-1v-1h1v1zM175 4944h-1v-1h1v1zM178 4943h-1v-1h1v1zM172 4942h-1v-1h1v1zM176 4941h-1v-1h1v1zM173 4941h-1v-1h1v1zM174 4940h-1v-1h1v1zM175 4937h-1v-1h1v1zM172 4893h-1v-1h1v1zM173 4892h-1v-1h1v1zM174 4886h-1v-1h1v1zM171 4885h-1v-1h1v1zM175 4884h-1v-1h1v1zM176 4883h-1v-1h1v1zM174 4880h-1v-1h1v1zM-113 4907h-1v-1h1v1zM-109 4905h-1v-1h1v1zM-80 4903h-1v-1h1v1zM-258 4850v-1h1v1h-1zM-257 4848h1l-1 1v-1zM-253 4845l-1 1v-1h1zM-253 4844h1l-1 1v-1zM-247 4840l-1 1v-1h1zM-247 4839l1 1h-1v-1zM-238 4831v-1h1l-1 1zM-232 4823v-1l1 1h-1zM278 5001h-1v-1h1v1zM275 5001h-1v-1h1v1zM282 5000h-4v-1h4v1zM285 4999l-1 -1v-1l1 1v1zM282 4998h-1l1 -1h1l-1 1zM278 4999h-4l-1 -1l1 -1l2 1h2v1zM246 4998h-1v-1h1v1zM250 4997h-1v-1h1v1zM276 4997h-1v-1l1 -1l1 1l-1 1zM275 4995h-1v-1h1v1zM286 4994h-2v-1h2v1zM281 4994h-1v-1h1v1zM245 4994h-1v-1h1v1zM283 4993h-1v-1h1v1zM274 4993h-1l1 -1h1l-1 1zM249 4993h-1v-1h1v1zM247 4993h-1v-1h1v1zM270 4992h-1v-1h1v1zM268 4992h-1v-1h1v1zM250 4992h-1l1 -1h1l-1 1zM273 4992l-1 -1v-1h1v2zM259 4991h-1v-1h1v1zM256 4991h-4v-1h5l-1 1zM248 4991h-3l1 -1h2v1zM278 4990h-1l1 -1v1zM268 4991v-1l2 -1v1l-2 1zM266 4991h-4l-1 -1l1 -1l2 1h2v1zM250 4990h-1l1 -1h1l-1 1zM258 4990l-4 -1v-1h4v2zM278 4988h-1v-1h1v1zM277 4987h-1v-1h1v1zM249 4987h-1v-1h1v1zM254 4986h-2v-1h2v1zM261 4985h-1v-1h1v1zM276 4986h-2l-2 -2v-1h2l2 3zM248 4984h-3l1 -1h2v1zM250 4984l-1 -1l3 -1v1h-2v1zM270 4983h-3v-1l1 -1v1h3l-1 1zM256 4982l-2 1v-1l2 -1h2v1h-2zM246 4870h-1v-1h1v1zM245 4868h-1v-1h1v1zM246 4863l-2 -1v-1h2v1v1zM245 4853h-1v-1h1v1zM245 4851h-1v-1h1v1zM299 4809h-1v-1h1v1zM246 4785h-1v-1h1v1zM246 4783h-1v-1h1v1zM245 4778h-1v-1h1v1zM246 4777h-1v-1h1v1zM282 4643h-2v-3l2 -2l2 2v2l-2 1zM235 4996h-1v-1h1v1zM226 4996h-1v-1h1v1zM241 4995h-1v-1h1v1zM193 4995h-1v-1h1v1zM191 4994h-1v-1h1v1zM238 4993h-2v-1h2v1zM196 4994l-1 -1l1 -1h1l-1 2zM194 4993h-1v-1h1v1zM242 4992h-1l1 -1h1l-1 1zM234 4993v-1l2 -1v1l-2 1zM233 4992h-1v-1h1v1zM221 4991l-1 1v-1h1zM199 4992h-1v-1h1v1zM191 4992h-1v-1h1v1zM189 4992h-1v-1h1v1zM200 4991l-1 -1v-1l1 1v1zM188 4990h-1l1 -1h1l-1 1zM242 4989h-3l1 -1h2v1zM219 4988h-1v-1h1v1zM202 4989h-2v-1v-1l2 1v1zM187 4988h-1v-1h1v1zM234 4987h-1l1 -1h1l-1 1zM221 4988l-1 -1v-1h1v2zM204 4988l-2 -2h2h1l-1 2zM195 4987h-1v-1h1v1zM188 4987h-1v-1h1v1zM240 4986h-3l1 -1h3l-1 1zM206 4986h-1v-1h1v1zM199 4987h-1l-1 -1l1 -1l1 1v1zM242 4985h-1l1 -1h1l-1 1zM226 4985h-1l1 -1h1l-1 1zM207 4985h-1v-1h1v1zM228 4984h-1v-1h1v1zM200 4985l-1 -1l1 -1h2v1l-2 1zM226 4983h-1v-1h1v1zM203 4983h-1v-1h1v1zM186 4984v-1l2 -1l-2 2zM234 4983l-1 -1l1 -1l1 1l-1 1zM227 4982h-1v-1h1v1zM216 4982h-1v-1h1v1zM204 4982h-1v-1h1v1zM236 4981h-1v-1h1v1zM213 4981h-1v-1h1v1zM206 4981h-2v-1h2v1zM199 4981v-1h1v1h-1zM194 4981v-1l1 1h-1zM190 4981h-1v-1h1v1zM237 4980h-1v-1h1v1zM229 4980h-1v-1h1v1zM227 4980h-1v-1h1v1zM200 4979l1 1h-1v-1zM198 4980v-1h1v1h-1zM238 4979h-1v-1h1v1zM228 4979h-1v-1h1v1zM216 4979h-1v-1h1v1zM207 4980l-1 -1v-1h1v2zM202 4979h-1v-1h1v1zM199 4979v-1h1v1h-1zM191 4979h-1v-1h1v1zM189 4979h-1v-1h1v1zM239 4978h-1v-1h1v1zM231 4978h-1v-1h1v1zM229 4978h-1v-1h1v1zM210 4978h-2v-1h2v1zM203 4977l-1 1v-1h1zM196 4978h-1v-1h1v1zM240 4977h-1v-1h1v1zM232 4977h-1v-1h1v1zM230 4977h-1v-1h1v1zM211 4977h-1v-1h1v1zM202 4977l-1 -1h1v1zM200 4977h-1v-1h1v1zM193 4977h-1v-1h1v1zM222 4976h-1v-1h1v1zM212 4976h-1v-1h1v1zM194 4976h-1v-1h1v1zM241 4976l-1 -1v-1h1v2zM233 4975h-1v-1h1v1zM225 4975h-1v-1h1v1zM215 4975h-1v-1h1v1zM201 4976h-1v-2h2v1l-1 1zM236 4977l-1 -1l3 -3v1l-2 3zM234 4974h-1v-1h1v1zM227 4974h-1v-1h1v1zM216 4974h-1v-1h1v1zM213 4974h-1v-1h1v1zM205 4973l1 1v2l-2 -1v-1h1v-1zM202 4974v-1h1v1h-1zM235 4973h-1v-1h1v1zM218 4973h-1l1 -1h1l-1 1zM208 4973h-1v-1h1v1zM221 4972h-1v-1h1v1zM216 4972h-1v-1h1v1zM203 4973v-1l1 -1l1 2h-2zM198 4971v1l-1 -1h1zM196 4972h-1v-1h1v1zM224 4971h-2v-1h2v1zM198 4970h1l-1 1v-1zM197 4971h-1v-1h1v1zM237 4969v3h-1l-1 -3h2zM213 4970h-1v-1h1v1zM208 4972v-1l2 -2v1l-2 2zM207 4971h-1l-1 -1l1 -1l1 1v1zM197 4970l1 -1v1h-1zM242 4973l-1 -1v-4h1v5zM237 4968h2v5l-1 -1l-1 -3v-1zM235 4969h-1v-1h1v1zM233 4969h-1v-1h1v1zM230 4969h-1v-1h1v1zM223 4969h-1v-1h1v1zM215 4969h-1v-1h1v1zM199 4969h-1v-1h1v1zM241 4968h-1v-1h1v1zM226 4968h-1v-1h1v1zM212 4969l-1 -1l1 -1l1 1l-1 1zM209 4968h-1v-1h1v1zM203 4968h-1v-1h1v1zM235 4968l-1 -2h2l1 2h-2zM233 4967h-1v-1h1v1zM230 4967h-2v-1h3l-1 1zM219 4967h-1v-1h1v1zM215 4967h-1v-1h1v1zM204 4967h-1v-1h1v1zM201 4967h-1v-1h1v1zM240 4966h-1v-1h1v1zM222 4966h-1v-1h1v1zM211 4966h-1v-1h1v1zM202 4966h-1v-1h1v1zM182 4966h-2v-1h2v1zM238 4965h-1v-1h1v1zM224 4965h-1l1 -1h1l-1 1zM220 4965h-1v-1h1v1zM217 4966h-1h-1l1 -2h1v2zM212 4965h-1v-1h1v1zM206 4965h-1v-1h1v1zM236 4964h-4v-1h4v1zM229 4964h-1v-1h1v1zM218 4964h-1v-1h1v1zM207 4964h-1v-1h1v1zM184 4965l-2 -1v-1h2v1v1zM224 4963h-1l1 -1h1l-1 1zM214 4964l-1 -1l1 -1h1l-1 2zM208 4963h-1v-1h1v1zM191 4964l-1 -1v-1h1v2zM216 4962h-1v-1h1v1zM190 4962h-1v-1h1v1zM188 4963l-2 -1v-1h2v1v1zM222 4961h-2v-1h2v1zM217 4961h-1v-1h1v1zM197 4961h-1v-1h1v1zM193 4961h-1v-1h1v1zM218 4960h-1l1 -1h1l-1 1zM212 4960h-1v-1h1v1zM199 4960h-1v-1h1v1zM196 4960h-1v-1h1v1zM192 4960h-1v-1h1v1zM188 4960h-2v-1h2v1zM223 4960l-1 -1v-1h1v2zM213 4959h-1v-1h1v1zM210 4959h-1v-1h1v1zM197 4959h-1v-1h1v1zM190 4959h-2v-1h2v1zM181 4959h-1v-1h1v1zM199 4958h-1v-1h1v1zM192 4958h-2v-1h2v1zM222 4957h-1v-1h1v1zM216 4957h-2v-1h2v1zM205 4957h-1v-1h1v1zM224 4958h-1l3 -3v1l-2 2zM223 4956h-1v-1h1v1zM217 4956h-1v-1h1v1zM203 4956h-1v-1h1v1zM195 4956h-1v-1h1v1zM184 4956h-3l1 -1h2v1zM224 4955h-1v-1h1v1zM218 4955h-1v-1h1v1zM202 4955h-1v-1h1v1zM197 4955h-1v-1h1v1zM186 4955h-1l1 -1h1l-1 1zM228 4956h-1v-3h1l1 1h-1v2zM216 4954h-1v-1h1v1zM214 4954h-1v-1h1v1zM208 4954h-1v-1h1v1zM200 4954h-2v-1h2v1zM189 4954h-1v-1h1v1zM215 4953h-1v-1h1v1zM201 4953h-1v-1h1v1zM230 4952h-1v-1h1v1zM212 4952h-1v-1h1v1zM203 4952h-1v-1h1v1zM190 4953v-1l2 -1h1l-1 1l-2 1zM223 4951h-1v-1h1v1zM205 4951h-1v-1h1v1zM186 4951h-1v-1h1v1zM224 4950h-1v-1h1v1zM195 4951l-1 -1v-1l1 1v1zM187 4950h-1v-1h1v1zM208 4949h-1l1 -1h1l-1 1zM197 4949h-1v-1h1v1zM192 4949h-1v-1h1v1zM183 4949h-1v-1h1v1zM230 4949l-1 -1v-1l1 1v1zM212 4948h-2v-1h2v1zM199 4948h-1v-1h1v1zM184 4948h-1v-1h1v1zM231 4947h-1v-1h1v1zM228 4949l-1 -1v-2h1v3zM201 4947h-1v-1h1v1zM195 4948h-3v-1h2v-1h1v2zM185 4947h-1v-1h1v1zM230 4946h-1v-1h1v1zM204 4946h-1v-1h1v1zM196 4946h-1v-1h1v1zM190 4947v-1l2 -1v1l-2 1zM186 4946h-1v-1h1v1zM197 4945h-1v-1h1v1zM193 4945h-1v-1h1v1zM188 4945h-2v-1h2v1zM225 4944h-1v-1h1v1zM206 4944h-1v-1h1v1zM198 4944h-1v-1h1v1zM194 4944h-1v-1h1v1zM189 4944h-1v-1h1v1zM229 4944l-1 -1v-1h1v2zM221 4943h-1v-1h1v1zM209 4943h-1v-1h1v1zM195 4943h-1v-1h1v1zM190 4943h-1v-1h1v1zM216 4942h-1v-1h1v1zM213 4942h-1v-1h1v1zM191 4942h-1v-1h1v1zM184 4941h2v1h-2v-1zM227 4942l-1 -1v-1h1v2zM225 4941h-1v-1h1v1zM202 4941h-1v-1h1v1zM197 4942h-1h-1l1 -2h1v2zM192 4941h-1v-1h1v1zM220 4941h-2v-1l2 -1v1v1zM218 4940h-1v-1h1v1zM198 4940h-1l1 -1h1l-1 1zM193 4940h-1v-1h1v1zM204 4939h-1v-1h1v1zM194 4939h-1v-1h1v1zM183 4939h-1v-1h1v1zM195 4938h-1v-1h1v1zM184 4938h-1v-1h1v1zM182 4938h-1v-1h1v1zM200 4938h-1l1 -2h2l-2 2zM196 4937h-1v-1h1v1zM193 4937h-1v-1h1v1zM185 4937h-1v-1h1v1zM203 4936h-1v-1h1v1zM197 4936h-1v-1h1v1zM188 4936v-1l1 1h-1zM204 4935h-1v-1h1v1zM199 4935h-1v-1h1v1zM183 4935h-1v-1h1v1zM181 4935h-1v-1h1v1zM205 4934h-1v-1h1v1zM200 4934h-1v-1h1v1zM194 4934h-1v-1h1v1zM195 4932l-1 1v-1h1zM188 4933h-1v-1h1v1zM212 4932h-1v-1h1v1zM202 4933h-2v-1l2 -1v1v1zM194 4932h-1l1 -1v1zM200 4931h-1v-1h1v1zM194 4931v-1h1v1h-1zM192 4931h-1v-1h1v1zM210 4930h-2v-1h2v1zM195 4930l1 -1v1h-1zM206 4929h-1v-1h1v1zM188 4930l-1 -1v-1h1v2zM205 4928h-1v-1h1v1zM208 4928l-1 -1v-1h1v2zM206 4927h-1v-1h1v1zM182 4927h-1v-1h1v1zM214 4926h-1v-1h1v1zM209 4926h-1v-1h1v1zM183 4926h-1v-1h1v1zM204 4926v-1l2 -1l-2 2zM203 4924h-1v-1h1v1zM210 4924h-1l1 -2h2l-2 2zM208 4922v2h-2v-2h2zM213 4922h-1v-1h1v1zM208 4922v-1h1v1h-1zM206 4922h-1l-1 1l-1 -1l1 -1h2v1zM214 4921h-1l1 -1h1l-1 1zM222 4920h-1v-1h1v1zM224 4918h-1v-1h1v1zM208 4918v-1l1 1h-1zM195 4918h-1v-1h1v1zM220 4917h-1v-1h1v1zM196 4917h-1v-1h1v1zM222 4916h-2v-1h2v1zM214 4916h-1v-1h1v1zM213 4915h-1v-1h1v1zM226 4914h-1v-1h1v1zM231 4913h-1v-1h1v1zM225 4913h-1v-1h1v1zM221 4911h1l1 1h-1h-1v-1zM220 4912h-1l1 -1v1zM217 4912h-1v-1h1v1zM234 4911h-1v-1h1v1zM220 4911v-1l1 1h-1zM235 4910h-1v-1h1v1zM233 4910h-1v-1h1v1zM229 4909l-1 1v-1h1zM226 4912h-1v-3l1 1v2zM224 4911l-1 -1v-1l1 1v1zM220 4910h-1v-1h1v1zM229 4908h1l-1 1v-1zM228 4909l-1 -1h1v1zM225 4909h-1v-1h1v1zM238 4908h-1v-1h1v1zM228 4908v-1l1 1h-1zM226 4908h-1v-1h1v1zM204 4908h-1v-1h1v1zM180 4967h-1v-1h1v1zM181 4956l-2 3l-1 1l-1 -2l3 -2h1zM180 4952h-1v-1h1v1zM180 4930h-2v-1h2v1zM236 4907h-1v-1h1v1zM202 4907h-1v-1h1v1zM195 4908l-1 -1v-1h1v2zM240 4906h-1v-1h1v1zM230 4906h-1v-1h1v1zM225 4906h-1v-1h1v1zM196 4906h-1v-1h1v1zM233 4907h-1l-1 -1h1v-2h1v3zM242 4904h-1v-1h1v1zM228 4904h-1v-1h1v1zM208 4904h-1v-1h1v1zM205 4904h-1v-1h1v1zM198 4904h-1v-1h1v1zM238 4905v-1v-2l2 2l-2 1zM230 4903h-1v-1h1v1zM192 4903h-1v-1h1v1zM234 4903l-1 -1v-1l1 1v1zM231 4902h-1v-1h1v1zM210 4902h-1v-1h1v1zM206 4903l-1 -1l1 -1l1 1l-1 1zM191 4902h-1v-1h1v1zM242 4901h-1v-1h1v1zM214 4901h-1v-1h1v1zM208 4901h-1v-1h1v1zM196 4903h-2l-2 -3h2l2 2v1zM235 4900h-1v-1h1v1zM209 4900h-1v-1h1v1zM206 4899h-1v-1h1v1zM204 4899h-1v-1h1v1zM202 4900l-1 -1v-1h1v2zM203 4898h-1v-1h1v1zM205 4897h-1v-1h1v1zM222 4896h-1v-1h1v1zM210 4896h-1v-1h1v1zM212 4895h-1v-1h1v1zM202 4896h-2l2 -2h1l-1 2zM200 4895h-1v-1h1v1zM213 4894h-1v-1h1v1zM208 4894v1h-2l1 -2v1h1zM187 4894h-1v-1h1v1zM218 4893h-1v-1h1v1zM214 4893h-1v-1h1v1zM202 4893h-1v-1h1v1zM198 4894h-1l1 -2h2l-2 2zM219 4892h-1v-1h1v1zM216 4892h-1v-1h1v1zM207 4893v-1l1 -1l1 1l-1 2v-1h-1zM205 4893h-1l-1 -1l1 -1l1 1v1zM201 4892h-1v-1h1v1zM223 4891h-1v-1h1v1zM214 4891h-1v-1h1v1zM211 4891h-1v-1h1v1zM221 4890h-1v-1h1v1zM213 4890h-1v-1h1v1zM206 4889v1v1l-1 -1v-1h1zM203 4889l1 1h-1v-1zM203 4890l-1 1h-1l1 -2v1h1zM235 4889h-1v-1h1v1zM222 4889h-1v-1h1v1zM218 4891l-1 -1l1 -2h2l-2 3zM215 4889h-1v-1h1v1zM210 4890h-2l2 -2v2zM206 4888h1l-1 1v-1zM205 4889h-1v-1h1v1zM202 4889v-1l1 1h-1zM189 4889h-1v-1h1v1zM236 4888h-1v-1h1v1zM218 4888h-1v-1h1v1zM205 4888l1 -1v1h-1zM187 4888h-1v-1h1v1zM224 4887h-2v-1h2v1zM221 4887h-1v-1h1v1zM212 4888h-2v-2l2 2zM204 4887h-1v-1h1v1zM193 4887h-1v-1h1v1zM189 4887h-1v-1h1v1zM229 4886h-1v-1h1v1zM218 4886h-1v-1h1v1zM215 4886h-1v-1h1v1zM208 4886h-1l1 -1h1l-1 1zM191 4886h-1v-1h1v1zM239 4885h-1v-1h1v1zM235 4885h-1v-1h1v1zM216 4885h-1v-1h1v1zM193 4885h-1v-1h1v1zM240 4884h-1v-1h1v1zM212 4886h-1v-3h1l1 1h-1v2zM194 4884h-1v-1h1v1zM226 4883h-1v-1h1v1zM214 4883h-1v-1h1v1zM207 4883h-1v-1h1v1zM188 4883h-1v-1h1v1zM241 4882h-1v-1h1v1zM215 4882h-1v-1h1v1zM208 4884v-2v-1l2 1l-2 2zM189 4882h-1v-1h1v1zM217 4881h-1v-1h1v1zM213 4882l-1 -1v-1h1v2zM206 4882l-1 -1v-1h1v2zM199 4882l-1 -1v-1h1v2zM197 4882l-1 -1v-1h1v2zM191 4881h-1v-1h1v1zM243 4881h-1l-1 -1l1 -1l1 1v1zM218 4880h-1v-1h1v1zM210 4881l-1 -1v-1l1 1v1zM202 4880h-1v-1h1v1zM192 4880h-1v-1h1v1zM238 4879h-1v-1h1v1zM234 4878h1l-1 1v-1zM219 4879h-1v-1h1v1zM214 4879h-1v-1h1v1zM207 4880l-1 -1v-1h1v2zM203 4879h-1v-1h1v1zM200 4879h-1v-1h1v1zM193 4879h-1v-1h1v1zM190 4879h-1v-1h1v1zM244 4879l-1 -1v-1l1 1v1zM236 4878h-1v-1h1v1zM231 4879h-1l-1 -1l2 -1v2zM228 4878h-1v-1h1v1zM220 4878h-1v-1h1v1zM209 4878h-1v-1h1v1zM201 4878h-1v-1h1v1zM194 4878h-1v-1h1v1zM242 4877h-1v-1h1v1zM233 4876h1v2h-1v-2zM231 4877v-1h1v1h-1zM205 4877h-1v-1h1v1zM196 4877h-1v-1h1v1zM191 4878l-1 -1v-1h1v2zM222 4877l-1 -1l1 -1h2v1l-2 1zM208 4877l-1 -1v-1l1 1v1zM206 4876h-1v-1h1v1zM197 4876h-1v-1h1v1zM232 4876v-2h1v2h-1zM225 4875h-1v-1h1v1zM214 4877v-1l2 -2v2l-2 1zM210 4875h-1v-1h1v1zM207 4875h-1v-1h1v1zM226 4874h-1v-1h1v1zM217 4874h-1v-1h1v1zM208 4874h-1l1 -1h1l-1 1zM206 4874h-1v-1h1v1zM195 4874h-1v-1h1v1zM211 4873h-1v-1h1v1zM192 4873h-1v-1h1v1zM240 4872h-1v-1h1v1zM229 4873h-3v-1l2 -1h1v2zM222 4872h-1v-1h1v1zM202 4872h-1v-1h1v1zM197 4872h-1v-1h1v1zM234 4871h-1v-1h1v1zM218 4873l-1 -1l1 -2h1v2l-1 1zM209 4871h-1v-1h1v1zM200 4871h-1v-1h1v1zM198 4871h-1v-1h1v1zM230 4871l-1 -1l1 -1h2v1l-2 1zM213 4869l-1 1v-1h1zM211 4871l-1 -1v-1l1 1v1zM206 4870h-1v-1h1v1zM194 4870h-1v-1h1v1zM233 4869h-1v-1h1v1zM222 4869h-1v-1h1v1zM217 4870l-1 -1v-1h1v2zM212 4869l-1 -1h1v1zM207 4869h-1v-1h1v1zM228 4868h-1v-1h1v1zM224 4868h-1v-1h1v1zM201 4867l-1 1v-1h1zM199 4868h-1v-1h1v1zM196 4869h-2v-1l2 -1v1v1zM234 4868h-1l1 -2h2l-2 2zM225 4867h-1v-1h1v1zM207 4867h-1v-1h1v1zM201 4866h1l-1 1v-1zM200 4867l-1 -1h1v1zM197 4867h-1v-1h1v1zM244 4867l-1 -1l1 -1l1 1l-1 1zM227 4866h-1v-1h1v1zM205 4866h-1v-1h1v1zM203 4866h-1v-1h1v1zM200 4866v-1l1 1h-1zM198 4866h-1v-1h1v1zM243 4865h-1v-1h1v1zM240 4864h1v1h-1v-1zM223 4865h-1v-1h1v1zM206 4865h-1v-1h1v1zM204 4865h-1v-1h1v1zM238 4866h-1v-2l1 -1l2 1l-2 2zM230 4864h-1v-1h1v1zM222 4864h-1v-1h1v1zM214 4864h-1v-1h1v1zM211 4864h-1v-1h1v1zM202 4864h-1v-1h1v1zM231 4863h-1v-1h1v1zM229 4863h-1v-1h1v1zM226 4863h-1v-1h1v1zM215 4863h-1v-1h1v1zM209 4863h-1v-1h1v1zM207 4863h-1v-1h1v1zM200 4863h-1v-1h1v1zM242 4863h-2v-1l2 -1l1 1l-1 1zM223 4863l-1 -1v-1l1 1v1zM216 4862h-1v-1h1v1zM210 4862h-1v-1h1v1zM208 4862h-1v-1h1v1zM234 4861h-1v-1h1v1zM228 4862h-2v-2h2h1l-1 2zM225 4862l-1 -1v-1h1v2zM218 4861h-1v-1h1v1zM212 4861h-1v-1h1v1zM207 4861h-1v-1h1v1zM194 4860h1l-1 1v-1zM238 4860h-1l1 -1h1l-1 1zM220 4860h-1l1 -1h1l-1 1zM213 4860h-1v-1h1v1zM211 4860h-1v-1h1v1zM203 4860h-1v-1h1v1zM196 4860h-1v-1h1v1zM222 4859h-1v-1h1v1zM209 4859h-1v-1h1v1zM206 4859h-1v-1h1v1zM197 4859h-1v-1h1v1zM238 4858h-1v-1h1v1zM224 4858h-1v-1h1v1zM214 4858h-1v-1h1v1zM204 4858h-1v-1h1v1zM198 4858h-1v-1h1v1zM242 4857h-1v-1h1v1zM239 4857h-1v-1h1v1zM235 4857h-1v-1h1v1zM213 4857h-1v-1h1v1zM240 4856h-1v-1h1v1zM226 4856h-1v-1h1v1zM217 4856h-1v-1h1v1zM208 4856h-1v-1h1v1zM205 4857l-1 -1v-1l1 1v1zM237 4855h-1v-1h1v1zM229 4855h-1v-1h1v1zM222 4855h-2v-1h2v1zM219 4856l-1 -1v-1h1v2zM216 4855h-1v-1h1v1zM206 4855h-1v-1h1v1zM244 4855l-1 -1v-1l1 1v1zM242 4854h-1v-1h1v1zM235 4854h-1v-1h1v1zM228 4854h-1v-1h1v1zM223 4854h-1v-1h1v1zM198 4854h-1v-1h1v1zM236 4853h-1v-1h1v1zM233 4853h-1v-1h1v1zM207 4853h-1v-1h1v1zM201 4853h-1v-1h1v1zM230 4852h-1l1 -1h1l-1 1zM226 4852h-1v-1h1v1zM224 4852h-1v-1h1v1zM218 4853l-2 1l2 -3h3l-1 1l-2 1zM202 4852h-1v-1h1v1zM198 4852h-1v-1h1v1zM243 4851l-1 -1v-1l1 1v1zM234 4851l-2 -1v-1h2v1v1zM227 4850h-1v-1h1v1zM223 4850l-1 1l-1 -1l1 -1h3l-1 1h-1zM201 4850h-1v-1h1v1zM238 4852h-2v-2l2 -2v4zM229 4849h-1v-1h1v1zM226 4849h-1v-1h1v1zM210 4850h-2l2 -2h1l-1 2zM204 4849h-1v-1h1v1zM244 4848h-1v-1h1v1zM242 4848h-1v-1h1v1zM231 4848h-1v-1h1v1zM205 4848h-1v-1h1v1zM202 4848h-2v-1h2v1zM241 4847h-1v-1h1v1zM228 4848h-2l2 -2v2zM240 4846h-1v-1h1v1zM235 4846h-1v-1h1v1zM230 4847l-1 -1v-1l1 1v1zM212 4847l-1 -1v-1l1 1v1zM200 4846h-1v-1h1v1zM241 4845h-1v-1h1v1zM232 4845h-1l1 -1h1l-1 1zM207 4845h-1v-1h1v1zM203 4845h-1v-1h1v1zM236 4844h-2v-1h2v1zM201 4844h-1v-1h1v1zM208 4843h-1v-1h1v1zM204 4843h-1v-1h1v1zM202 4843h-1v-1h1v1zM205 4842h-1v-1h1v1zM216 4841l-1 -1v-1l1 1v1zM210 4840h-1v-1h1v1zM217 4839h-1v-1h1v1zM208 4840h-3v-2h1v1l2 -1v2zM209 4838h-1v-1h1v1zM205 4838h-1v-1h1v1zM218 4838l-1 -1v-1h1v2zM212 4837h-1v-1h1v1zM219 4836h-1v-1h1v1zM209 4836l-1 -1v-1h1v2zM207 4835h-1v-1h1v1zM212 4834h-1v-1h1v1zM205 4834h-1v-1h1v1zM220 4834v-1l2 -1l-2 2zM226 4832h-1v-1h1v1zM216 4832h-1v-1h1v1zM223 4832l-1 -1v-1h1v2zM217 4831h-1v-1h1v1zM214 4830v1l-1 -1h1zM224 4830h-1v-1h1v1zM218 4830h-1l1 -1h1l-1 1zM214 4829l1 1h-1v-1zM213 4830h-1l1 -1v1zM209 4830h-1v-1h1v1zM206 4830h-1v-1h1v1zM225 4829h-1v-1h1v1zM220 4829h-1v-1h1v1zM212 4829h-1v-1h1v1zM208 4829h-1v-1h1v1zM226 4828h-1v-1h1v1zM210 4828h-1v-1h1v1zM222 4828h-2l2 -2v2zM213 4829v-1l1 -2h1l-1 3h-1zM233 4826h-1v-1h1v1zM226 4826h-1v-1h1v1zM223 4826h-1v-1h1v1zM224 4825h-1v-1h1v1zM210 4826l-1 -1v-1h1v2zM236 4824h-1v-1h1v1zM225 4824h-1v-1h1v1zM219 4824v-1h1v1h-1zM237 4823h-1v-1h1v1zM228 4826l-1 -2h1l4 -2l-4 4zM226 4823h-1l1 -1h1l-1 1zM234 4822h-2v-1h2v1zM228 4822h-1v-1h1v1zM238 4821h-1v-1h1v1zM229 4821h-1v-1h1v1zM236 4821h-2v-1v-1l2 1v1zM219 4819h-1v-1h1v1zM243 4818h-1v-1h1v1zM237 4817l1 1v1l-2 -1h1v-1zM234 4818v-1h2v1h-2zM220 4818h-1l1 -1h1l-1 1zM211 4818h-1v-1h1v1zM239 4817h-1v-1h1v1zM236 4817v-1h1v1h-1zM216 4817h-1v-1h1v1zM212 4817h-1v-1h1v1zM223 4817l-1 -1v-1l1 1v1zM220 4816h-1v-1h1v1zM217 4816h-1v-1h1v1zM235 4814h-1v-1h1v1zM232 4815v-2h1v2h-1zM222 4813v1v1l-1 -1v-1h1zM212 4814h-1v-1h1v1zM227 4813h-1v-1h1v1zM213 4813h-1v-1h1v1zM244 4816h-1v-5l1 1v4zM240 4815v-1v-3l1 1l1 2l-2 1zM216 4812h-1v-1h1v1zM214 4812h-1v-1h1v1zM240 4811h-1v-1h1v1zM226 4811h-1v-1h1v1zM222 4810h1l-1 3v-3zM243 4811l-1 -1v-1l1 1v1zM233 4810v-1h6l-1 1l-4 1v-1h-1zM229 4811l-1 -1v-1l1 1v1zM242 4809h-1v-1h1v1zM232 4809h-3l1 -1h2v1zM233 4808h-1v-1h1v1zM221 4808h-1h-1l1 -1h1v1zM218 4809h-2v-1v-1l2 1v1zM223 4806h1l-1 2v-2zM221 4807v-1h1v1h-1zM227 4806h-1v-1h1v1zM225 4806h-1v-1h1v1zM222 4806v-1l1 1h-1zM230 4805h-1v-1h1v1zM218 4805h-1v-1h1v1zM215 4805h-1v-1h1v1zM227 4804h-1v-1h1v1zM220 4804h-1v-1h1v1zM226 4803h-1v-1h1v1zM217 4804l-1 -1v-1h1v2zM218 4802h-1v-1h1v1zM216 4802h-1v-1h1v1zM230 4800v1l-1 -1h1zM227 4802l-1 -1v-1h1v2zM224 4803l-1 -1l-3 -1v-1h4v3zM234 4800h-1v-1h1v1zM230 4800v-1h1v1h-1zM217 4800h-1v-1h1v1zM231 4798h1l-1 1v-1zM226 4799h-1v-1h1v1zM225 4798h-1v-1h1v1zM222 4798h-1v-1h1v1zM220 4799h-2v-1l2 -1v1v1zM238 4797h-1v-1h1v1zM219 4797h-1v-1h1v1zM237 4795h-1v-1h1v1zM226 4796h-1v-2h1l1 2h-1zM223 4795h-1v-1h1v1zM231 4793h1v1h-1v-1zM240 4793h-1v-1h1v1zM230 4793v-1h1v1h-1zM225 4793h-1v-1h1v1zM219 4793h-1v-1h1v1zM241 4792h-1v-1h1v1zM233 4792h-1v-1h1v1zM226 4792h-1v-1h1v1zM242 4791h-1v-1h1v1zM228 4790h-1v-1h1v1zM229 4789h-1v-1h1v1zM244 4787h-1v-1h1v1zM230 4787h-1v-1h1v1zM225 4787h-1v-1h1v1zM231 4786h-1v-1h1v1zM242 4783h-1v-1l1 -1l1 1l-1 1zM235 4782h-1v-1h1v1zM240 4781h-1v-1h1v1zM236 4781h-1l1 -1h1l-1 1zM233 4781h-1v-1h1v1zM244 4780h-1v-1h1v1zM238 4780h-1v-1h1v1zM242 4780l-1 -1l1 -1h1l-1 2zM244 4777h-1v-1h1v1zM208 4618h-1v-1h1v1zM240 4605h-1v-1h1v1zM-647 5231h-1v-1h1v1zM-650 5233h-1v-3h1v2h1l-1 1zM-649 5230h-1v-1h1v1zM-646 5229h-1v-1h1v1zM-648 5229h-1v-1h1v1zM-645 5228h-1v-1h1v1zM-653 5234h-1v-1h1v1zM-653 5232h-1v-1h1v1zM-9 5184h-1v-1h1v1zM-11 5183h-1v-1h1v1zM-6 5183l-2 -1v-1h2v1v1zM-8 5177h-1v-1h1v1zM-11 5175h-1v-1h1v1zM-11 5169h-1v-1h1v1zM-57 5210h-1h-1l1 -2h1v2zM-59 5209h-1v-1h1v1zM-55 5208h-1v-1h1v1zM-62 5209h-2l-2 -1v-1h4l1 1l-1 1zM-58 5207h-2v-1h2v1zM-70 5208l-2 -2h2h1l-1 2zM-44 5204h-1v-1h1v1zM-55 5203h-1v-1h1v1zM-36 5202h-1v-1h1v1zM-40 5202h-4v-1h4v1zM-31 5199l1 1h-1v-1zM-36 5200h-1v-1h1v1zM-50 5200h-1v-1h1v1zM-38 5200l-1 -1l1 -1h1l-1 2zM-42 5200h-4v-1h4l2 -2v1l-2 2zM-43 5198h-1v-1h1v1zM-45 5198h-1v-1h1v1zM-36 5197h-2v-1h2v1zM-48 5198l-4 -1v-1h5v2h-1zM-54 5197h-1l1 -1h1l-1 1zM-56 5196h-5l1 -1h5l-1 1zM-66 5196h-1v-1h1v1zM-62 5196h-2l-2 -2l4 1v1zM-68 5195h-4v-1h5l-1 1zM-46 5194h-1v-1h1v1zM-74 5195h-2v-1l2 -1l1 1l-1 1zM-54 5194h-4v-1l2 -1h2v2zM-38 5191h-1v-1h1v1zM-64 5192h-2l2 -2l1 2h-1zM-68 5192l-1 -1l1 -1h1l-1 2zM-35 5190h-1v-1h1v1zM-37 5190h-1v-1h1v1zM-44 5190h-1v-1h1v1zM-62 5190h-1l1 -1h1l-1 1zM-69 5190h-1v-1h1v1zM-31 5189h-1v-1h1v1zM-38 5189h-2v-1h2v1zM-52 5190h-2l2 -2l1 2h-1zM-32 5188h-3l1 -1h2v1zM-40 5188h-1v-1h1v1zM-19 5187h-1v-1h1v1zM-50 5187h-1l1 -1h1l-1 1zM-56 5187h-1v-1h1v1zM-18 5186h-1v-1h1v1zM-21 5186h-1v-1h1v1zM-35 5187h-1l-1 -1l1 -1l1 1v1zM-28 5187l-4 -1v-2l2 1l2 1h1l-1 1zM-16 5184h-2v-1h2v1zM-19 5184h-1v-1h1v1zM-33 5184h-1v-1h1v1zM-38 5186l-4 -2v-1h2l3 3h-1zM-13 5183h-1v-1h1v1zM-20 5183h-2v-1h2v1zM-36 5183h-1l1 -1h1l-1 1zM-12 5182h-1v-1h1v1zM-23 5182h-1v-1h1v1zM-13 5181h-1v-1h1v1zM-25 5181h-1v-1h1v1zM-16 5180h-1v-1h1v1zM-40 5180h-1l1 -1h1l-1 1zM-12 5179h-1l1 -1h1l-1 1zM-18 5180l-1 -1v-1h1v2zM-38 5179h-1v-1h1v1zM-42 5180l-2 -2h2v2zM-20 5178h-1v-1h1v1zM-36 5178h-1v-1h1v1zM-23 5177h-1v-1h1v1zM-26 5176h-1v-1h1v1zM-32 5176h-1l1 -1h1l-1 1zM-30 5175h-1l1 -1h1l-1 1zM-37 5175h-1v-1h1v1zM-45 5175h-1v-1h1v1zM-27 5174h-1v-1h1v1zM-40 5175l-2 -1v-1h4v1h-2v1zM-32 5173h-2v-1h2v1zM-35 5173h-1v-1h1v1zM-44 5174l-1 -1v-1h1v2zM-17 5172h-1h-1l1 -2h1v2zM-43 5172l-1 -1v-1h1v2zM-24 5170h-1l1 -1h1l-1 1zM-33 5170h-1v-1h1v1zM-41 5170h-1v-1h1v1zM-18 5169h-2v-1h3l-1 1zM-25 5169h-1v-1h1v1zM-14 5168h-1l1 -1h1l-1 1zM-32 5169v-1l2 -1v1l-2 1zM-34 5168h-1l1 -1h1l-1 1zM-38 5168l-2 1v-2h4v1h-2zM-15 5164h-1v-1h1v1zM-102 5216l-4 -1v1h-1v-2h5v2zM-116 5215h-1v-1h1v1zM-101 5214h-1v-1h1v1zM-105 5213h-1v-1h1v1zM-110 5215h-2v-3h1v2h1v1zM-104 5212h-1l1 -1h1l-1 1zM-126 5214l-2 -2v-1h2l1 1v2h-1zM-106 5211h-1l1 -1h1l-1 1zM-111 5211h-1v-1h1v1zM-108 5211h-2l-1 -1l1 -1h2v2zM-82 5209h-2v-1h2v1zM-86 5209h-1v-1h1v1zM-94 5209h-1l1 -1h1l-1 1zM-96 5209h-1v-1h1v1zM-84 5207h-6v-1h2l2 -1v1h2v1zM-91 5207l-1 -1v-1l1 1v1zM-94 5206h-2v-1h2v1zM-97 5206h-1v-1h1v1zM-99 5206h-1v-1h1v1zM-102 5206h-2v-1h2v1zM-106 5206h-2v-1h3l-1 1zM-109 5206h-1v-1h1v1zM-113 5206l-1 -1v-1h1v2zM-116 5205h-1v-1h1v1zM-121 5205h-1v-1h1v1zM-125 5205h-1v-1h1v1zM-128 5205h-1v-1h1v1zM-138 5205l-1 -1v-1l1 1v1zM-116 5203h-2v-1h3l-1 1zM-128 5203h-1l1 -1h1l-1 1zM-139 5203h-1v-1h1v1zM-130 5203h-2v-1l2 -1v1v1zM-133 5202h-1v-1h1v1zM-132 5201h-1v-1h1v1zM-139 5201h-1v-1h1v1zM-76 5194h-2v-1h2v1zM-81 5194h-1v-1h1v1zM-83 5194h-1v-1h1v1zM-85 5194h-1v-1h1v1zM-88 5194h-1v-1h1v1zM-80 5192h-1v-1h1v1zM-87 5192h-1v-1h1v1zM-104 5191h-1l1 -1h1l-1 1zM-100 5191h-2v-1l2 -1l1 1l-1 1zM-78 5189h-1v-1h1v1zM-82 5189h-4v-1h5l-1 1zM-88 5189h-2v-1h3l-1 1zM-97 5191l-1 -1v-2h3l-1 1h-1v1v1zM-102 5189h-3l1 -1h2v1zM-149 5215h-1v-1h1v1zM-154 5213h-1v-1h1v1zM-162 5213h-1v-1h1v1zM-178 5213h-1v-1h1v1zM-140 5213h-2v-1l2 -1l1 1l-1 1zM-157 5212h-1v-1h1v1zM-164 5212h-1v-1h1v1zM-144 5211h-1v-1h1v1zM-150 5211h-5l1 -1h5l-1 1zM-156 5211h-1v-1h1v1zM-158 5211h-3l1 -1h2v1zM-162 5211h-1v-1h1v1zM-165 5211h-1v-1h1v1zM-186 5211h-4v-1h5l-1 1zM-192 5211h-1l1 -1h1l-1 1zM-194 5211h-5l1 -1h4v1zM-200 5211h-1v-1h1v1zM-202 5211h-1v-1h1v1zM-175 5210h-1v-1h1v1zM-143 5209h-1v-1h1v1zM-146 5209h-1v-1h1v1zM-199 5209h-1v-1h1v1zM-142 5208h-1v-1h1v1zM-148 5208h-1v-1h1v1zM-150 5209l-1 -1v-1l1 1v1zM-152 5208h-6v-1h6v1zM-159 5208h-1v-1h1v1zM-162 5208h-1l1 -1h1l-1 1zM-166 5208h-1l1 -1h1l-1 1zM-168 5208h-1v-1h1v1zM-181 5207l-1 1v-1h1zM-196 5208h-1v-1h1v1zM-198 5208h-1v-1h1v1zM-181 5206h1l-1 1v-1zM-182 5207h-1l-4 1v-2h5v1zM-155 5206h-1v-1h1v1zM-158 5206h-2v-1h3l-1 1zM-162 5206h-2v-1h3l-1 1zM-166 5206h-1l1 -1h1l-1 1zM-170 5208h-1v-3l1 1v2zM-182 5206v-1l1 1h-1zM-203 5205h-1v-1h1v1zM-141 5205h-1l-1 -1l1 -1l1 1v1zM-148 5204h-1v-1h1v1zM-150 5204h-1v-1h1v1zM-176 5204h-1v-1h1v1zM-178 5204h-1v-1h1v1zM-184 5204h-1l1 -1h1l-1 1zM-190 5204h-1v-1h1v1zM-146 5202v1l-1 -1h1zM-192 5204l-4 -1v-1h4v2zM-152 5202h-1v-1h1v1zM-154 5202h-4v-1h4v1zM-158 5203h-2l-1 -1l1 -1l2 1v1zM-175 5202h-1v-1h1v1zM-178 5202h-4v-1h5l-1 1zM-183 5202h-1v-1h1v1zM-186 5202h-1v-1h1v1zM-147 5202h-4l1 -1l2 -1l1 1v1zM-188 5201h-1v-1h1v1zM-188 5203h-2l-1 -1v-2h1l2 2v1zM-173 5200h-1v-1h1v1zM-188 5199h-1v-1h1v1zM-184 5195h-1v-1h1v1zM-227 5224h-1v-1h1v1zM-223 5223l-1 -1v-1l1 1v1zM-230 5223l-1 -1v-1l1 1v1zM-233 5222h-1v-1h1v1zM-232 5221h-1l1 -1h1l-1 1zM-258 5221h-2v-1h2v1zM-261 5221h-1v-1h1v1zM-235 5221l-1 -1v-1l1 1v1zM-241 5220h-1v-1h1v1zM-242 5221h-4v-1h2v-1l2 1v1zM-246 5220h-1v-1h1v1zM-231 5219h-1v-1h1v1zM-237 5220l-1 -1v-1h1v2zM-248 5220h-2v-2l2 2zM-252 5220h-2v-2l2 1h1l-1 1zM-255 5221l-1 -1v-2h1v3zM-225 5220l-5 -1v-1l4 -1l1 1v2zM-233 5218h-1v-1h1v1zM-242 5218h-1v-1h1v1zM-248 5219v-1l4 -1v1h-2l-2 1zM-254 5218h-1v-1h1v1zM-222 5217h-1v-1h1v1zM-228 5217h-2v-1h2v1zM-236 5218l-4 -1v-1h4h1l-1 2zM-252 5218v-1l2 -1l-2 2zM-253 5217h-1v-1h1v1zM-263 5217h-1v-1h1v1zM-266 5216h1l-1 1v-1zM-267 5217h-1v-1h1v1zM-226 5216h-1v-1h1v1zM-244 5216h-1v-1h1v1zM-247 5216h-1v-1h1v1zM-267 5216l1 -1v1h-1zM-224 5215h-1v-1h1v1zM-230 5216l-1 -1l1 -1h1l-1 2zM-236 5215h-1v-1h1v1zM-240 5215h-1v-1h1v1zM-246 5215h-1l1 -1h1l-1 1zM-250 5215h-1v-1h1v1zM-254 5216h-2l-1 -2h1h4v1l-2 1zM-258 5217h-2v-2h-4v-1h6v3zM-241 5214h-1v-1h1v1zM-227 5213h-1v-1h1v1zM-246 5213h-1v-1h1v1zM-248 5213h-1v-1h1v1zM-252 5213h-1v-1h1v1zM-254 5213h-1v-1h1v1zM-230 5212h-1v-1h1v1zM-232 5212h-1v-1h1v1zM-238 5212h-1v-1h1v1zM-256 5212h-6v-1h6v1zM-204 5211h-3l1 -1h2v1zM-231 5211h-1v-1h1v1zM-247 5211h-1v-1h1v1zM-212 5210h-1v-1h1v1zM-235 5210h-1v-1h1v1zM-238 5210h-1v-1h1v1zM-243 5210h-1v-1h1v1zM-254 5210h-1v-1h1v1zM-257 5210h-1v-1h1v1zM-201 5209h-4l1 -1h1l2 -1v2zM-207 5209h-1v-1h1v1zM-214 5209h-1v-1h1v1zM-216 5209h-1v-1h1v1zM-250 5209h-1v-1h1v1zM-208 5208h-1v-1h1v1zM-215 5208h-1v-1h1v1zM-256 5208h-1v-1h1v1zM-264 5208h-1l1 -1h1l-1 1zM-213 5207h-1v-1h1v1zM-213 5205h-1v-1h1v1zM-240 5205l-1 -1v-1l1 1v1zM-242 5203h-1v-1h1v1zM-228 5202h-3l1 -1h3l-1 1zM-234 5202h-1v-1h1v1zM-243 5202h-4l1 -1h2v-1h1v2zM-252 5201h-2v-1h3l-1 1zM-213 5200h-1v-1h1v1zM-215 5200h-1v-1h1v1zM-219 5200h-1v-1h1v1zM-237 5200h-1v-1h1v1zM-245 5200h-1v-1h1v1zM-256 5200h-1v-1h1v1zM-265 5200h-1v-1h1v1zM-226 5200h-2l2 -2v2zM-230 5200h-2l2 -2l1 2h-1zM-254 5199h-1v-1h1v1zM-261 5200l-1 -1v-1h1v2zM-206 5198h-1v-1h1v1zM-210 5198h-1l1 -1h1l-1 1zM-212 5198h-1v-1h1v1zM-214 5198h-1v-1h1v1zM-217 5198h-1v-1h1v1zM-222 5198h-1v-1h1v1zM-224 5198h-1v-1h1v1zM-242 5198h-1v-1h1v1zM-233 5197h-1v-1h1v1zM-241 5197h-1v-1h1v1zM-244 5197h-2v-1h2v1zM-250 5197h-1v-1h1v1zM-252 5197h-2v-1h2v1zM-267 5197h-1v-1h1v1zM-223 5196h-1v-1h1v1zM-230 5196h-3l1 -1h2v1zM-204 5195h-1v-1h1v1zM-206 5195h-2v-1h2v1zM-210 5195h-2v-1h2v1zM-213 5195h-1v-1h1v1zM-216 5195h-4v-1h5l-1 1zM-221 5195h-1v-1h1v1zM-239 5195h-1v-1h1v1zM-241 5195h-1v-1h1v1zM-247 5195h-1v-1h1v1zM-254 5195h-2v-1h3l-1 1zM-267 5195h-1v-1h1v1zM-260 5195l-2 -1v-1h2v1v1zM-218 5193h-1l1 -1h1l-1 1zM-221 5193h-1v-1h1v1zM-224 5193h-1v-1h1v1zM-262 5193h-1v-1h1v1zM-204 5192h-2v-1h2v1zM-240 5192h-1v-1h1v1zM-252 5192h-1v-1h1v1zM-214 5191h-2v-1h3l-1 1zM-230 5190h2v1h-2v-1zM-243 5191h-1v-1h1v1zM-260 5190h-2v-1h2v1zM-238 5190h-4v-2l2 1h3l-1 1zM-248 5189h-1v-1h1v1zM-256 5189h-2v-1h2v1zM-259 5188l-1 1v-1h1zM-266 5189h-1v-1h1v1zM-240 5188h-1v-1h1v1zM-252 5187l1 1v1l-2 -1h1v-1zM-259 5187l1 1h-1v-1zM-260 5188h-1l1 -1v1zM-256 5187h-1v-1h1v1zM-260 5187v-1l1 1h-1zM-263 5187l-1 -1v-1l1 1v1zM-261 5180h-1v-1h1v1zM-262 5179h-1v-1h1v1zM-262 5177h-1v-1h1v1zM-265 5177h-1v-1h1v1zM-261 5176h-1v-1h1v1zM-264 5176h-1v-1h1v1zM-310 5219h-1v-1h1v1zM-314 5219h-1l1 -1h1l-1 1zM-321 5218l-1 1v-1h1zM-284 5218h-1v-1h1v1zM-299 5219l-1 -1v-1l1 1v1zM-302 5218h-1v-1h1v1zM-306 5218h-1v-1h1v1zM-321 5217h1l1 1h-1h-1v-1zM-322 5218h-2v-1h2v1zM-290 5217h-4v-1h5l-1 1zM-295 5217h-1v-1h1v1zM-322 5217v-1l1 1h-1zM-285 5217h-3v-1l2 -1h1v2zM-304 5216h-1v-1h1v1zM-306 5216h-6v-1h6v1zM-269 5216l-1 -1v-1h1v2zM-280 5215h-1v-1h1v1zM-284 5216v-1l2 -1l-2 2zM-289 5215h-1v-1h1v1zM-291 5215h-1v-1h1v1zM-317 5215h-1v-1h1v1zM-319 5215h-1v-1h1v1zM-322 5216l-2 -2h2v2zM-329 5215h-1v-1h1v1zM-272 5214h-1v-1h1v1zM-310 5214h-4v-1h4v1zM-294 5213h-1v-1h1v1zM-296 5213h-3l1 -1h2v1zM-306 5214v-1l6 -1v1h-4l-2 1zM-316 5213h-2v-1h2v1zM-320 5214h-2l2 -2v2zM-280 5213h-2v-1l2 -1v1v1zM-295 5212h-1v-1h1v1zM-309 5213l-1 -1v-1l1 1v1zM-313 5212h-1v-1h1v1zM-323 5213l-1 -1v-1l1 1v1zM-326 5212h-1l1 -1h1l-1 1zM-328 5212h-2v-1h2v1zM-301 5211h-1v-1h1v1zM-304 5211h-1v-1h1v1zM-312 5211h-1v-1h1v1zM-295 5210h-1v-1h1v1zM-310 5210h-1v-1h1v1zM-316 5210h-1l1 -1h1l-1 1zM-318 5212h-1v-3l1 1v2zM-323 5210h-1v-1h1v1zM-325 5210h-1v-1h1v1zM-327 5210h-1v-1h1v1zM-330 5210h-2v-1h2v1zM-269 5209h-1v-1h1v1zM-276 5209h-1v-1h1v1zM-280 5209h-1l1 -1h1l-1 1zM-282 5209h-4v-1h4v1zM-291 5209h-1v-1h1v1zM-307 5209h-1v-1h1v1zM-313 5209h-1v-1h1v1zM-266 5208h-3l1 -1h2v1zM-271 5208h-1v-1h1v1zM-274 5208h-2v-1h3l-1 1zM-278 5208h-1v-1h1v1zM-291 5208l1 -1v1h-1zM-310 5208h-1v-1h1v1zM-321 5208h-1v-1h1v1zM-307 5207h-1v-1h1v1zM-317 5207h-1v-1h1v1zM-279 5206h-1v-1h1v1zM-281 5206h-1v-1h1v1zM-275 5205h-1v-1h1v1zM-277 5205h-1v-1h1v1zM-311 5205h-1v-1h1v1zM-278 5204h-1v-1h1v1zM-282 5205l-1 -1l3 -1v1h-2v1zM-276 5203h-1l1 -1h1l-1 1zM-305 5202h-1v-1h1v1zM-272 5201h-1v-1h1v1zM-271 5200h-1v-1h1v1zM-268 5199h-2v-1h2v1zM-296 5199l-1 -1v-1l1 1v1zM-269 5196h-3v-1h2v-1h1v2zM-283 5194h-1v-1h1v1zM-286 5194h-1v-1h1v1zM-288 5194h-3l1 -1h2v1zM-270 5194h-2v-2l2 2zM-277 5193h-1v-1h1v1zM-279 5193h-1v-1h1v1zM-294 5193h-2v-1h2v1zM-297 5193h-1v-1h1v1zM-297 5191h-1v-1h1v1zM-272 5190h-1v-1h1v1zM-275 5190h-1v-1h1v1zM-284 5190h-1v-1h1v1zM-287 5190h-1v-1h1v1zM-291 5190h-1v-1h1v1zM-293 5190h-1v-1h1v1zM-300 5190h-2v-1h2v1zM-307 5190h-1v-1h1v1zM-309 5190h-1v-1h1v1zM-314 5190h-1v-1h1v1zM-318 5190h-1l1 -1h1l-1 1zM-269 5189h-1v-1h1v1zM-295 5190h-1h-1l1 -2h1v2zM-322 5190l-2 -1h-1l1 -1h3v2h-1zM-294 5188h-1l1 -1h1l-1 1zM-300 5188h-3l1 -1h2v1zM-311 5188h-1v-1h1v1zM-330 5188h-1v-1h1v1zM-273 5188l-1 -1v-1h1v2zM-306 5187h-1v-1h1v1zM-310 5187h-1v-1h1v1zM-312 5187h-1v-1h1v1zM-314 5187h-1v-1h1v1zM-317 5187h-1v-1h1v1zM-320 5187h-1v-1h1v1zM-325 5187h-1v-1h1v1zM-274 5186h-1v-1h1v1zM-291 5186h-1v-1h1v1zM-294 5186h-4v-1h5l-1 1zM-300 5186h-5l1 -1h4v1zM-316 5186h-1l1 -1h1l-1 1zM-328 5187l-1 -1l1 -1h1v1l-1 1zM-324 5185h-1v-1h1v1zM-330 5185h-1v-1h1v1zM-284 5184h-1v-1h1v1zM-289 5184h-1v-1h1v1zM-292 5184h-2v-1h2v1zM-296 5184h-1l1 -1h1l-1 1zM-299 5184h-1v-1h1v1zM-308 5184h-1l1 -1h1l-1 1zM-316 5184h-1l1 -1h1l-1 1zM-318 5184h-1v-1h1v1zM-327 5184h-1v-1h1v1zM-304 5184l-1 -1l1 -1h1l-1 2zM-310 5184h-2h-1l1 -2l2 2zM-314 5183h-1v-1h1v1zM-323 5183h-1v-1h1v1zM-330 5183h-1v-1h1v1zM-289 5182h-1v-1h1v1zM-326 5183l-1 -1l3 -1v1h-2v1zM-306 5183l-1 -1v-2h1l1 2l-1 1zM-311 5181h-1v-1h1v1zM-318 5182l-2 -2h2v2zM-321 5182h-1h-1l1 -2h1v2zM-298 5180h-1v-1h1v1zM-302 5180h-4v-1h5l-1 1zM-307 5180h-1v-1h1v1zM-309 5180h-1v-1h1v1zM-330 5180h-1v-1h1v1zM-287 5179h-1v-1h1v1zM-289 5179h-1v-1h1v1zM-292 5179h-1l1 -1h1l-1 1zM-296 5180v-1l2 -1l-2 2zM-286 5178h-1l1 -1h1l-1 1zM-268 5176l-2 2v-1h-2v-1h4zM-274 5177h-1l1 -1h1l-1 1zM-288 5176h-4v-1h4v1zM-268 5175h-1l1 -1h1l-1 1zM-278 5175h-2v-1h2v1zM-294 5175h-1v-1h1v1zM-296 5175h-3l1 -1h2v1zM-331 5175h-1v-1h1v1zM-302 5174h-2v-1h3l-1 1zM-291 5173h-1v-1h1v1zM-308 5173h-1v-1h1v1zM-326 5172h-1v-1h1v1zM-288 5170h-1v-1h1v1zM-291 5170h-1v-1h1v1zM-283 5169h-1v-1h1v1zM-287 5169h-1v-1h1v1zM-298 5169h-1v-1h1v1zM-312 5169h-1v-1h1v1zM-292 5168h-2v-1h2v1zM-286 5166v1l-1 -1h1zM-298 5167h-3l1 -1h2v1zM-309 5167h-1v-1h1v1zM-283 5167l-1 -1v-1l1 1v1zM-286 5165l1 1h-1v-1zM-287 5166h-1h-1l1 -1h1v1zM-306 5166h-1v-1h1v1zM-328 5166h-2v-1h3l-1 1zM-287 5165v-1h1v1h-1zM-290 5165h-1l1 -1h1l-1 1zM-311 5165h-1v-1h1v1zM-292 5164h-1l1 -1h1l-1 1zM-317 5164h-1v-1h1v1zM-343 5224l-1 -1v-1h1v2zM-345 5223h-1v-1h1v1zM-338 5222h-2v-1h2v1zM-342 5221h-1l1 -1h1l-1 1zM-346 5222l-1 -1v-1h1v2zM-336 5221h-2v-2h2l1 1l-1 1zM-339 5220h-1v-1h1v1zM-338 5219h-1v-1h1v1zM-332 5219h-3l1 -1l2 -1v1v1zM-336 5218h-2v-1h2v1zM-335 5217h-1v-1h1v1zM-346 5218l-1 -2l1 -1l1 1v2h-1zM-348 5220l-1 -2v-3l1 1l1 4h-1zM-340 5215h-1v-1h1v1zM-332 5212h-5l1 -1h5l-1 1zM-342 5212h-1v-1h1v1zM-346 5214h-2l-1 -2l1 -1l1 1l1 2zM-345 5211h-1v-1h1v1zM-334 5210h-5l1 -1h4v1zM-340 5210h-1v-1h1v1zM-344 5210h-1l1 -1h1l-1 1zM-332 5187l-1 -1v-1l1 1v1zM-347 5186h-1v-1h1v1zM-342 5184h-1l1 -1h1l-1 1zM-332 5183h-1v-1h1v1zM-340 5183h-1v-1h1v1zM-350 5183h-1v-1h1v1zM-353 5183h-1v-1h1v1zM-346 5183h-3v-1l1 -1v1h2v1zM-336 5181h-1v-1h1v1zM-339 5181h-1v-1h1v1zM-351 5181h-1v-1h1v1zM-335 5180h-1v-1h1v1zM-347 5180h-1v-1h1v1zM-339 5179h-1v-1h1v1zM-340 5178h-1v-1h1v1zM-350 5178h-1v-1h1v1zM-348 5178h-1v-2h1l1 2h-1zM-343 5176h-1v-1h1v1zM-351 5177h-1l-1 -1l1 -1l1 1v1zM-338 5167h-1v-1h1v1zM-346 5166h-1v-1h1v1zM-348 5166h-2v-1h2v1zM-352 5165h-3l1 -1h3l-1 1zM-361 5164h-1v-1h1v1zM-646 5227h-2v-1h2v1zM-645 5225h-1v-1h1v1zM-634 5222h-1v-1h1v1zM-641 5222h-1v-1h1v1zM-637 5221h-1v-1h1v1zM-636 5220h-1v-1h1v1zM-635 5219h-1v-1h1v1zM-638 5220l-1 -1v-1h1v2zM-629 5218h-1v-1h1v1zM-634 5218h-1v-1h1v1zM-628 5217h-1l1 -1h1l-1 1zM-631 5219l-1 -1v-2h1v3zM-635 5217h-1v-1h1v1zM-630 5216v-1l2 -1l-2 2zM-633 5215h-1v-1h1v1zM-632 5214h-1l1 -1h1l-1 1zM-625 5216h-2v-4h1h1l-1 2h1v2zM-629 5213h-1v-1h1v1zM-625 5211h-1v-1h1v1zM-628 5211h-1v-1h1v1zM-621 5209h-1v-1h1v1zM-619 5208h-1v-1h1v1zM-615 5206h-1v-1h1v1zM-613 5205h-1v-1h1v1zM-611 5204h-1v-1h1v1zM-609 5201h-1v-1h1v1zM-607 5202h-1h-1l1 -2v-1l1 1v2zM-603 5197h-1v-1h1v1zM-601 5196h-1v-1h1v1zM-599 5195h-1v-1h1v1zM-595 5195l-1 -1v-1l1 1v1zM-598 5195l-1 -1l1 -1h1v1l-1 1zM-596 5193h-1v-1h1v1zM-593 5191v-1h1v1h-1zM-11 5143h-1v-1h1v1zM-1 5126h-1v-1h1v1zM-5 5124h-1v-1h1v1zM-10 5122h-1v-1h1v1zM-4 5121h-1v-1h1v1zM-6 5120h-2v-1h2v1zM-10 5119h-1v-1h1v1zM-11 5118h-1v-1h1v1zM-12 5148h-1v-1h1v1zM-12 5139h-1v-1h1v1zM-253 5147h-1v-1h1v1zM-267 5132h-1v-1h1v1zM-289 5163h-1v-1h1v1zM-294 5163h-2v-1h3l-1 1zM-292 5162h-1l1 -1h1l-1 1zM-298 5162h-1l1 -1h1l-1 1zM-300 5162h-1v-1h1v1zM-295 5161h-1v-1h1v1zM-309 5161h-1v-1h1v1zM-292 5160h-2v-1h2v1zM-299 5160h-1v-1h1v1zM-282 5159h-1v-1h1v1zM-286 5159h-4v-1h5l-1 1zM-278 5158h-2v-1h2v1zM-281 5158h-1v-1h1v1zM-303 5158v-1h1v1h-1zM-272 5157h-1v-1h1v1zM-284 5157h-1l1 -1h1l-1 1zM-298 5157h-1v-1h1v1zM-300 5157h-2v-1h2v1zM-304 5157v-1l1 1h-1zM-308 5156h-1v-1h1v1zM-310 5156h-1v-1h1v1zM-271 5155h-1v-1h1v1zM-278 5155h-1v-1h1v1zM-314 5155h-1v-1h1v1zM-272 5154h-1v-1h1v1zM-284 5154h-1v-1h1v1zM-309 5154h-1v-1h1v1zM-322 5154v-1h2l1 1l-2 1v-1h-1zM-271 5153h-1v-1h1v1zM-277 5153h-1v-1h1v1zM-279 5153h-1v-1h1v1zM-291 5153h-1v-1h1v1zM-293 5153h-1v-1h1v1zM-274 5152h-2v-1h2v1zM-310 5153l-1 -1v-1l1 1v1zM-273 5151h-1v-1h1v1zM-278 5151h-1v-1h1v1zM-321 5151h-1v-1h1v1zM-275 5150h-1v-1h1v1zM-277 5150h-1v-1h1v1zM-285 5150h-1v-1h1v1zM-312 5151h-1v-1l1 -1l1 1l-1 1zM-325 5150h-1v-1h1v1zM-328 5150h-1v-1h1v1zM-330 5150h-1v-1h1v1zM-280 5149h-1v-1h1v1zM-294 5150l-1 -1v-1h1v2zM-298 5149h-1v-1h1v1zM-303 5149h-1v-1h1v1zM-276 5148h-1v-1h1v1zM-292 5149v-1l2 -1v1l-2 1zM-310 5149l-1 -1v-1l1 1v1zM-314 5149l-1 -1l1 -1h1v1l-1 1zM-316 5148h-1v-1h1v1zM-318 5149l-1 -1v-1l1 1v1zM-320 5148h-1v-1h1v1zM-275 5147h-1v-1h1v1zM-278 5147h-2v-1h2v1zM-281 5147h-1v-1h1v1zM-284 5147h-4v-1h5l-1 1zM-289 5147h-1v-1h1v1zM-292 5147h-1v-1h1v1zM-294 5147h-1v-1h1v1zM-296 5147h-3l1 -1h2v1zM-301 5147h-1v-1h1v1zM-315 5147h-1v-1h1v1zM-308 5147l-1 -1l1 -1h1v1l-1 1zM-310 5146h-1v-1h1v1zM-275 5145h-1v-1h1v1zM-286 5145h-1v-1h1v1zM-290 5145h-1l1 -1h1l-1 1zM-292 5145h-3l1 -1h2v1zM-297 5145h-1v-1h1v1zM-318 5146v-1l2 -1l-2 2zM-320 5146l-1 -2h1h1v2h-1zM-324 5143h3l-1 1h-1h-2h1v-1zM-288 5144l-2 -1v-1h4l-2 2zM-292 5143h-1l1 -1h1l-1 1zM-306 5143h-1v-1h1v1zM-275 5141h1v1h-1v-1zM-294 5142h-1v-1h1v1zM-302 5143l-4 -1v-1h6v1l-2 1zM-296 5142h-3v-2h3h1l-1 2zM-322 5142v-1l-2 1v-2h3v2h-1zM-288 5141l-1 -1l3 -1v1h-2v1zM-290 5140h-1v-1h1v1zM-300 5140h-1v-1h1v1zM-306 5140h-1v-1h1v1zM-316 5140h-2v-1h2v1zM-289 5139h-1v-1h1v1zM-326 5139h-1v-1h1v1zM-328 5139h-3l1 -1h2v1zM-309 5138h-1v-1h1v1zM-311 5138h-1v-1h1v1zM-314 5138h-2v-1h3l-1 1zM-318 5138h-2l2 -2l1 2h-1zM-321 5137h-1v-1h1v1zM-330 5137h-1v-1h1v1zM-269 5130h-1v-1h1v1zM-279 5119h-1v-1h1v1zM-291 5105v-1l1 -1v1v1h-1zM-354 5163h-1v-1h1v1zM-362 5163h-1v-1h1v1zM-337 5162h-1v-1h1v1zM-372 5158h-1v-1h1v1zM-368 5155h-1v-1h1v1zM-374 5154h-1v-1h1v1zM-365 5153h-1v-1h1v1zM-356 5151h-1v-1h1v1zM-348 5150h-1v-1h1v1zM-367 5150h-1v-1h1v1zM-364 5149h-1v-1h1v1zM-345 5148h-1v-1h1v1zM-359 5148h-1v-1h1v1zM-346 5147h-1v-1h1v1zM-352 5147h-1l1 -1h1l-1 1zM-364 5147h-1v-1h1v1zM-337 5146h-1v-1h1v1zM-343 5146h-1v-1h1v1zM-345 5145l-1 1v-1h1zM-348 5146h-2v-1h2v1zM-362 5147l-1 -1l1 -1h2v1l-2 1zM-363 5146h-1v-1h1v1zM-338 5145h-2v-1h2v1zM-345 5144h1l-1 1v-1zM-356 5146l-4 -1v-1h4h1l-1 2zM-341 5145l-1 -1v-1l1 1v1zM-351 5145l-1 -1v-1l1 1v1zM-354 5145l-1 -1l1 -1h1v1l-1 1zM-337 5144l-1 -1v-1h1v2zM-340 5143h-1v-1h1v1zM-354 5142h-1v-1h1v1zM-336 5143l-2 -2h-1l1 -1h2l1 2l-1 1zM-345 5141l5 -1v1h-2v2l-3 -1v-1zM-346 5141v-1l1 1h-1zM-357 5141h-1v-1h1v1zM-352 5141l-1 -1l-1 -2h2v3zM-355 5138l-1 1v-1h1zM-356 5138h-1l1 -1v1zM-333 5137h-1v-1h1v1zM-341 5137h-1v-1h1v1zM-348 5136h-1v-1h1v1zM-343 5135h-1v-1h1v1zM-350 5136l-1 -1v-1h1v2zM-357 5135h-1v-1h1v1zM-5 5079v-1h1v1h-1zM-14 5079h-1v-1h1v1zM504 5209h-2v-1h2v1zM508 5207h-2v-1h2v1zM504 5207h-1l1 -1h1l-1 1zM507 5205h-1v-1h1v1zM495 5210h-1v-1h1v1zM488 5209h-1l1 -1h1l-1 1zM480 5206h-1v-1h1v1zM476 5205h-2v-1h2v1zM471 5205h-1v-1h1v1zM467 5205h-1v-1h1v1zM472 5204h-1v-1h1v1zM468 5204l-2 -1l-2 1v-2h4v2zM457 5203h-1v-1h1v1zM447 5199h-1v-1h1v1zM446 5198h-5l1 -1h4v1zM439 5197h-1v-1h1v1zM451 5189h-1v-1h1v1zM454 5189h-2v-1l2 -1l1 1l-1 1zM452 5188h-1v-1h1v1zM452 5186h-1v-1h1v1zM450 5187h-1v-1l1 -1l1 1l-1 1zM444 5186h-1l1 -1h1l-1 1zM456 5188h-1v-2l-1 -2l2 -1v1v4zM448 5186h-2l-1 -2l1 -1l2 3zM454 5184h-2l2 -2v2zM445 5183h-1v-1h1v1zM452 5182h-3l1 -1h2v1zM446 5182l-1 -1l1 -1h1l-1 2zM442 5183l-2 -1v-2l2 1h1v1l-1 1zM439 5173h-1v-1h1v1zM440 5172h-1v-1h1v1zM437 5171h-1v-1h1v1zM446 5168h-2v-1h2v1zM442 5168h-2v-1h3l-1 1zM438 5168h-1v-1h1v1zM444 5167h-1v-1h1v1zM440 5167h-1v-1h1v1zM431 5200h-1v-1h1v1zM422 5198h-1v-1h1v1zM436 5196h-1l1 -1h1l-1 1zM430 5196h-1v-1h1v1zM409 5196h-1v-1h1v1zM434 5196l-2 -2h2v2zM402 5195h-1v-1h1v1zM429 5194h-1v-1h1v1zM426 5194h-1l1 -1h1l-1 1zM421 5193h-1v-1h1v1zM411 5193h-1v-1h1v1zM418 5192h-4v-1h4v1zM406 5192h-1v-1h1v1zM409 5191h-1v-1h1v1zM399 5191h-1v-1h1v1zM386 5191h-1v-1h1v1zM403 5190h-1v-1h1v1zM397 5189h-1v-1h1v1zM394 5189h-1v-1h1v1zM432 5185h-1l1 -1h1l-1 1zM430 5185h-3l1 -1h2v1zM426 5185h-1v-1h1v1zM422 5185h-4v-1h4v1zM406 5184h-1v-1h1v1zM404 5184h-2v-1h2v1zM422 5181h-2v-1h2v1zM417 5181h-1v-1h1v1zM414 5181h-2v-1h2v1zM411 5181h-1v-1h1v1zM409 5181h-1v-1h1v1zM426 5180h-1v-1h1v1zM423 5180h-1v-1h1v1zM403 5180h-1v-1h1v1zM421 5179h-1v-1h1v1zM418 5178h-2l-1 -2h1l2 2zM402 5177h-1v-1h1v1zM399 5177h-1v-1h1v1zM406 5176h-4v-1h5l-1 1zM400 5176h-1l1 -1h1l-1 1zM396 5176h-4v-1h5l-1 1zM390 5176h-1l1 -1h1l-1 1zM390 5174h-1v-1h1v1zM386 5175h-2v-1v-1l2 1h1l-1 1zM383 5174h-1v-1h1v1zM382 5173h-3v-1l1 -1v1h2v1zM378 5172h-1v-1h1v1zM381 5171h-1v-1h1v1zM377 5171h-1v-1h1v1zM374 5170h-1l1 -1h1l-1 1zM435 5169h-1v-1h1v1zM432 5169h-1l1 -1h1l-1 1zM430 5169h-1v-1h1v1zM426 5169h-2v-1h3l-1 1zM423 5169h-1v-1h1v1zM422 5168h-4l-1 -2h1l4 1v1zM433 5165h-1v-1h1v1zM404 5165h-1v-1h1v1zM432 5164h-1v-1h1v1zM412 5164h-2v-1h2v1zM397 5164h-1v-1h1v1zM371 5169h-1v-1h1v1zM370 5168l-1 -1l1 -1h1l-1 2zM368 5168l-2 -1h-1l1 -1h2v2zM362 5166h-1l1 -1h1l-1 1zM364 5165h-1v-1h1v1zM360 5165h-2l-1 -1l1 -1h2v2zM444 5162h-1l1 -1h1l-1 1zM423 5163h-1v-1h1v1zM421 5163h-1v-1h1v1zM390 5163h-1v-1h1v1zM388 5163h-1v-1h1v1zM418 5162h-2v-1h2v1zM415 5162h-1v-1h1v1zM410 5163l-4 -1h-1l1 -1l4 1v1zM381 5162h-1v-1h1v1zM424 5161h-2v-1h2v1zM405 5161h-1v-1h1v1zM386 5161h-1v-1h1v1zM418 5160h-1v-1h1v1zM404 5160h-1v-1h1v1zM390 5161h-2v-1v-1l2 1v1zM381 5160h-1v-1h1v1zM402 5159h-1v-1h1v1zM382 5160l-1 -2h1h2l-2 2zM413 5158h-1v-1h1v1zM398 5158h-1l1 -1h1l-1 1zM390 5156h-2v-1h2v1zM386 5156h-1v-1h1v1zM393 5155h-1v-1h1v1zM382 5155h-1l1 -1h1l-1 1zM388 5154h-2v-1h2v1zM385 5154h-1v-1h1v1zM376 5154h-1l1 -1h1l-1 1zM383 5153h-1v-1h1v1zM375 5152h-1v-1h1v1zM376 5150h-1l1 -1h1l-1 1zM374 5150h-1v-1h1v1zM382 5148h-1l1 -1h1l-1 1zM375 5148h-1v-1h1v1zM373 5147h-1v-1h1v1zM379 5146h-1v-1h1v1zM378 5148h-2v-3l1 1l1 2zM356 5164l-1 -1v-1h1v2zM358 5162h-2v-1h2v1zM362 5161h-1l1 -1h1l-1 1zM355 5162l-1 -1v-1h1v2zM353 5161l-1 -1v-1l1 1v1zM351 5160h-1v-1h1v1zM372 5159h-1l1 -1h1l-1 1zM370 5159h-1v-1h1v1zM367 5153h-1v-1h1v1zM359 5152h-1v-1h1v1zM368 5151h-1v-1h1v1zM366 5151h-1v-1h1v1zM358 5151h-1v-1h1v1zM356 5151h-2v-1h2v1zM372 5150h-1v-1h1v1zM370 5151l-1 -1v-1l1 1v1zM367 5150h-1v-1h1v1zM362 5150h-4v-1h5l-1 1zM354 5150h-1v-1h1v1zM356 5149h-1l1 -1h1l-1 1zM371 5147h-1v-1h1v1zM355 5147h-1v-1h1v1zM363 5146h-1v-1h1v1zM354 5146h-1v-1h1v1zM368 5145h-1v-1h1v1zM364 5145h-1l1 -1h1l-1 1zM361 5144h-1v-1h1v1zM358 5144h-1v-1h1v1zM365 5143h-1v-1h1v1zM367 5141h-1v-1h1v1zM364 5141h-4v-1h5l-1 1zM359 5141h-1v-1h1v1zM367 5140l1 -1v1h-1zM360 5139h-1v-1h1v1zM357 5139h-1v-1h1v1zM249 5109h-1v-1h1v1zM250 5107h-4v-1h5l-1 1zM245 5107h-1v-1h1v1zM212 5282h-1v-1h1v1zM244 5108h-1v-1h1v1zM242 5108h-1v-1h1v1zM238 5107h-2v-1h3l-1 1zM244 5106h-2v-1h2v1zM241 5106h-1v-1h1v1zM234 5106h-4v-1h5l-1 1zM238 5105h-3l1 -1h2v1zM234 5104h-1v-1h1v1zM231 5104h-1v-1h1v1zM218 5101h-1v-1h1v1z"/></svg>