<svg xmlns="http://www.w3.org/2000/svg" viewBox="-599 6381 1291 719"><g class="s" data-r fill="#000" fill-rule="evenodd"><path class="chunk" data-i="0" d="M-6 7040l-2 -1v1h-4l2 -2h4l1 2h-1zM48 7034h-4l1 -2h-1h-4v-1h4v-1l2 1v-1l2 2v2zM47 7033v-1h-1v1h1zM26 7030l-9 -1v-1l1 -1v1h10l-2 2zM14 7028h-8v-1h9l-1 1zM16 7023v-1h4l2 -1v1l-2 2v-1l-2 1v-1h-2zM2 7025l-1 -1l1 -2h-1l1 -1l6 1l2 2l-6 -1l-2 2zM-64 7046v-1l-1 -1l1 -1l4 1v1h-2l-2 1zM-30 7044l-11 -1l1 -1l2 -1h2l6 1h1l-1 2zM-42 7042h-8v-1h9l-1 1z"/><path class="chunk" data-i="1" d="M-65 7038l1 -1l2 1h2v1h-4l-2 3l-2 -1h-4v-1l6 -1l1 -1zM-70 7039l-2 -1v1l-2 -1v-1h4l1 1l-1 1zM-90 7041l-2 -1l-2 1l-1 -1v-2h1v1l2 -1h2l2 1v1l-2 1zM-112 7037h-5v-1l1 -2h2l-1 2h1h2v1zM-96 7035h-16v-1h6l2 -1v1h2l2 -1v1h4v1zM-190 7052h-2v-1l-2 1h-1l-2 -1l-5 1l2 -2l2 -1v1h6l2 2zM-157 7051l-1 -1v-2h5l-1 1l-2 1v-1l-1 1v1zM-174 7053l-8 -1v-2h-1l1 -1l2 -1l1 2h-1h-1l1 1h4l2 1v1zM-174 7045h-13l1 -1h12v1z"/><path class="chunk" data-i="2" d="M-167 7032h-3v-2l2 1v-1h2v-1l2 1h1l3 -1v3l-2 -1l-4 1v-1l-1 1zM-189 7028h-3l-1 -2h1l2 1v-1v-1l1 1v2zM-170 7023l-2 -1v1h-2l-2 -3l2 -1h2l2 3v1zM-172 7021v-1h-1v1h1zM-258 7054h-2l2 -2l2 -1v1v1l-2 1zM-255 7050h-3v-1h2l2 -2l1 2h-1l-1 1zM-248 7049v-1h-1v1h1zM-253 7049h3v-2h6v-1h1v2l-3 1l-7 3h-2v-2h1h1v-1zM-240 7046v-1v-1h-1v2h-1v-2h-1l1 -1h2v-1h1v2h1h1l-1 -2h2l1 2v1h-3l-2 1zM-204 7050v-1l-3 -1v-2l1 -2l-4 1l-1 -1l1 -2v-1l1 1v1h5v1v1l1 -1v-1l1 1v2h2v1l1 -1v-1h-1h-1l1 -1h4l2 1v-1h6v1h-5l1 4h-2l-2 -2v1l-6 1l-2 1zM-205 7047v-1l-1 -1v1l1 1zM-202 7047v-1h-2v1h2zM-196 7047v-1h-1v1h1zM-194 7047v-1h-1v1h1zM-211 7043h-1l-3 -3l1 -3v-2h2l2 1v-1l1 1v1h-3l1 6zM-213 7038v-1h-1v1h1zM-213 7040v-1h-1v1h1z"/><path class="chunk" data-i="3" d="M-246 7020v1h-2l-1 -1l1 -1h1v1h1zM37 7020l-3 1l-1 -1l1 -1h3l-1 -1l-2 -2l4 1l2 1l-2 2h-1zM-188 7022l-2 -1h-1l1 -1h1l-1 -1h-2v-1h4h1l-1 2v2zM-204 7021l-4 -1l-4 1v-1h1l-1 -1h-3l1 -1h13v2h-1v-1h-2v1v1zM-218 7022v-3h-2v-1h3v2h1l-2 2zM-240 7017l-8 -1l2 -2v1l6 1v1zM-230 7014h-2v-1l-2 1v-1h-2v-1h4l2 2zM-204 7012l-2 -1l-2 1v-1h-3l1 -1h6v2zM-226 6992h-15l1 -1h1l-1 -1h-1l1 -1h4l2 1v-2h2l2 -1l2 3h2v2zM-232 6991l1 -1v-1h-1l-1 1l1 1zM-229 6990v-1h-1v1h1z"/><path class="chunk" data-i="4" d="M-204 6980h-9l1 -1h9l-1 1zM-198 6977h-4l-2 -1v1l-2 -1h-1l1 -1h2l1 -1v-2h3l2 2h-2l2 2v1zM-201 6974v-1h-1v1h1zM-202 6976v-1h-1v1h1zM-200 6976v-1h-1v1h1zM-220 6976h-3l1 -1l1 -1h2l1 -1l2 1v1l-4 1zM-246 6977h-2v-3h2v-1l1 1v2l-1 1zM-246 6976v-1h-1v1h1zM-239 6976h-3v-1h2v-1v-1l2 1v-1l2 -1h2v2h4v1l-6 1h-2v-1l-1 1zM-254 6975v-1h-1v1h1zM-253 6976v-1h-1v1h1zM-253 6978v-1h-1v1h1zM-254 6981h-1v-1l1 -2h-2v1l-1 -1l1 -4l2 -2l1 2l1 1v1h2l-1 2h1v1l-3 1h-1v1zM-213 6976l-1 -1l-2 -1v-1h2v-2h3l-1 3l-1 2zM-228 6971h-8v-1l2 -1v1h6v1zM-274 7009v-1h2v2h1l-1 2v1l-1 -1l-1 -2h1l-1 -1z"/><path class="chunk" data-i="5" d="M-268 6974l-2 1h-4v-1l2 -1l2 1v-1h2v1zM-12 6960l-9 6l-9 3l-4 1l-2 1v-1l-4 1l-2 -1v1h-11l-4 -1l-5 -2l-2 -1l-2 -2l-2 -1l-12 -10l-2 -2l-2 -2v-4v-4l1 -6h3l-1 2v1v5v2l5 5l1 1l4 2l6 4l9 4h4l4 1v-1l2 1h2v-1l2 1v-1l4 1l2 -1v1l2 -1h3l7 -3l6 -6l3 -1l4 -2l6 -4h1l7 -6l2 -4l2 -2l1 -4l2 -2l4 -1l2 3l1 2h-1v2l-2 2l-1 2l-3 4l-1 2l-5 6l-12 8l-4 2zM1 6830h-12l-4 -1h-2l-8 -3l-5 -1l-2 -1l-4 -3l-2 -1h-2l-2 -1l-2 -2h-2l-2 -2h-1v-2h-2v-2h-1l-2 -1l-6 -8v-2l-2 -2v-3l-4 -10v-5v-17v-4l2 -5l4 -6l4 -7l2 -2v-1l1 -2h-1h-1v2l-5 4v-1l-2 1l-1 -2l-1 -2l2 -2l2 -4l2 -2l4 -1l2 1v2h2l2 -2v-2l4 -1l1 1l-4 4l-1 4l2 -2v-1l2 1v-2l9 -4l13 -5h1l-1 -1l-2 -2l-1 -2v-2h1l2 1v-1l6 1h3v2h4v1l1 1v-1h4l2 1v-1l3 2v4l5 5l3 3l4 6l1 1h2l1 1l1 2l4 7l2 7l4 7v3l1 2h-1l1 2l1 4l2 9v7l-2 10l-2 2v1l-2 5l-2 2l-3 6l-3 2l-2 2l-4 5h-2l-9 3zM-11 6728v-2l-13 1v1h3h10zM-51 6734v-1h-1v1h1zM-16 6738l1 -2h-1h-2v-1l-2 1l-1 1h1l4 1zM-48 6737v-1h-1v1h1zM-37 6738v-1h-1v1h1zM-12 6738v-1h-2l-1 1h3zM-50 6740v-1h-1v1h1zM-18 6745l1 -1h-7v1h6zM-25 6746v-1h-1v1h1zM-59 6789l1 -13l1 -4v-2l1 -3v-12v-4l2 -3v-2l-2 2l-4 6l-2 5v4l-1 11l1 2h-1l1 2v4l2 6l1 1zM-28 6747l1 -1h-1l-1 1h1zM-29 6748v-1h-1v1h1zM-47 6753l9 -8l4 -2l2 -3l2 -2l2 -4h-2l-2 3l-2 -1v2v1l-2 -1h-1l1 2l-2 1v-1h-2v1l-1 1h-1h-1v2h-1v1l-1 2h1l-1 3l-1 1l-2 -1v2h-1l1 1v1l1 -1zM-47 6776v-2l5 -9v-1l2 -2l1 -8h-1l-5 6l-1 1v2l-1 1l-2 2l1 10h1zM-2 6736v2l2 1l9 9l1 1v-1l-1 -2l-1 -2v-2l-10 -9h-4v1l2 1h1v1h1zM-4 6744v-1h-1v1h1zM-2 6746v-1h-1v1h1zM12 6790l1 -2h-1l1 -2v-4h-1l1 -2l-1 -5l-2 -3v-2h-1l1 -2h-1l1 -2l-2 -2v-4l-2 -2l-1 -2l-3 -6l-2 -2h-1l1 2l2 3v1l2 2l1 3l1 5l4 11v6l1 9h1zM11 6750v-1h-1v1h1zM-5 6754v-1h-1v1h1zM-4 6757v-1l-1 -1v1l1 1zM-1 6765v-1l-1 -2l-1 -3v-1l-1 -1v1v2l2 4l1 1zM18 6764v-2l-1 -1v3h1zM-11 6788h2v-2l2 -2l-1 -6l-1 -8l-1 -1h-2l-4 -1v-1l-2 1h-2l-2 2h-2l-4 4l1 6l3 4v1h2v2h2l2 2l7 -1zM-44 6803v-1h-1l-5 -15l-2 -5l-1 -1l1 8l2 6l1 3l2 2l1 3h2zM-58 6792v-2l-1 -1v3h1zM-35 6790v-1h-1v1h1zM-26 6795v-1h-1v1h1zM-11 6804v-2l-10 -4l-3 -1v-1h-1v2l3 2l4 2l3 2h4zM-32 6798v-1h-1v1h1zM-31 6799v-1h-1v1h1zM-38 6802v-1h-1v1h1zM-37 6803v-1h-1v1h1zM-43 6804v-1h-1v1h1zM-20 6819v-1h-1v1h1zM-1 6822h3l4 -1l2 -2l2 -1v-2l2 -1l4 -3v-2l2 -1l1 -1h-1v-1h2l2 -7l1 -4h1v-1h-2v2l-2 4l-5 7h-1l-2 2l-6 6h-1l-2 1l-4 1l-17 1l-1 1h1h2l3 2h4h8zM23 6786v-4h-1l1 -2v-1l-1 -3l-1 -2h1l-1 -2l-1 -2v-3l-1 -3h-1v10l1 2h-1l1 2h-1l1 8h1v-1l2 1h1zM0 6766v-1h-1v1h1zM-6 6797v-1h-1v1h1zM-151 6658v-2h-1v1l1 1zM-156 6661v-1l-1 -1v1l1 1zM-160 6663v-1h-1v1h1zM-161 6664v-1h-1v1h1zM-162 6665v-1h-1v1h1zM-163 6666v-1h-1v1h1zM-165 6667v-1h-1v1h1zM-166 6668v-1h-1v1h1zM-172 6673v-1h-1v1h1zM-175 6676v-2h-1v1l1 1zM-177 6677v-1h-1v1h1zM-178 6678v-1h-1v1h1zM-177 6680v-1h-1v1h1zM-129 6644v-1h-1v1h1zM4 6689v-1h-1v1h1zM-298 6953v-1h-1v1h1zM-311 6954v-1h-1v1h1zM-200 6954l2 1l1 3l1 1v-1l2 2l4 4h1l-1 2h3l6 8l1 2l2 2l6 4l2 1l2 2l2 1l11 5l3 1l2 2h1l7 5l8 5l10 4l17 4l20 5l5 -1l2 1v-1h11l41 -10l12 -4l5 -3l13 -7h2v-2l6 -4l4 -4v-1h2l2 -4l5 -5l7 -11l6 -9l3 -9l2 -5l5 -15l2 -4l4 -11l8 -25l4 -28v-33l-1 -2h1l-1 -2l-11 -49l-8 -21l-1 -2l-2 -2l-1 -2l-16 -25v-2l-8 -11l-1 -2h-1l-2 -2l-3 -5h-1l-1 -1h1v-1h-2v-2h-2l-4 -5l-6 -6l-16 -12l-12 -8l-13 -6l-10 -3l-4 -1l-3 -1l-2 -2l-26 -7l-12 -2l-10 -1l-2 1v-1l-2 1h-2l-5 2l-1 1l-2 1l1 2l-1 2l-2 -1h-2l-6 6h-2l-5 5v2l-1 1h-2v1l-2 -1l-4 -1l1 2l-3 2l-3 1v2l-4 1v2h-1l-2 2h-1v-2h-1v2l-1 1l-1 -1v1h-2v1h2l-2 2v2h-1l-1 -1v1l-2 2v2l-2 1h-2l-1 1v2l-3 4l-14 16l-4 8l-5 6l-7 15l-1 1l-2 2l-1 3l-11 24l-13 38v3h-1l1 2h-1l-3 17v9h1l-1 2l6 38l2 12l1 4h1l-1 2h1h1l-1 2l3 2v2l2 2l1 4l2 2v2l8 13v2h2l3 8v1l1 2h-1l2 2l-1 2l2 2h8l1 4l-1 2h-3v2h1h1l-1 2h1v2h3l-1 2l1 1h1v1h1zM59 6894v-1h-1v1h1zM56 6903l1 -1h-1l-1 1h1zM-463 6995v-1h-1v1h1zM-470 6999v-1h-1v1h1zM-493 7013v-1h-1v1h1zM-501 7019v-1h-1v1h1zM-441 6983v-1h-1v1h1zM-448 6986v-1h-1v1h1zM-441 6986v-1h-1v1h1zM-445 6988v-1h-1v1h1zM-454 6990v-1h-1v1h1zM-449 6990v-1h-1v1h1zM-458 6992v-1h-1v1h1zM-340 6959v-1h-1v1h1zM-347 6960v-1h-1v1h1zM-345 6960v-1h-1v1h1zM-351 6961v-1h-1v1h1zM-542 7045l1 -1h-1l-1 1h1zM-505 7021v-1h-1v1h1zM-504 7022v-1h-1v1h1zM-508 7024v-1h-1v1h1zM-514 7026h2v-1l1 -1l1 -2h-1l1 -2h2l4 -2l2 -1l2 -2l9 -7l3 -2h2l2 -2h2l2 -2h1l21 -12l2 -3h2l2 -2l4 -1l2 -2h2l5 -2l15 -7l18 -5v-1l2 1v-1l6 -1l2 -1v1l2 -1l8 -1v1l2 -2l8 -1l2 -1v1l2 -1l14 -3h4l17 -4l16 -4l21 -2l2 -1v1l2 -1l1 1h2l3 -1l2 -1v1l46 -5v-1l2 1v-1l18 -1l-1 -3l-3 -8l-1 -3l-2 -2l-1 -1l-4 -6l-6 -13l-4 -7l-6 -18v-6l-4 -13v-2h1l-1 -2v-2h-1l1 -2h-1v-14l-2 -12l1 -2h-1l3 -15l2 -7l2 -7l2 -4l10 -31l2 -2v-2l2 -2v-2l2 -2v-2l20 -33l2 -4l10 -13l7 -10h2v-2l1 -1h2l2 -5l8 -8l3 -2l4 -2l3 -2v-2l2 -1l5 -3l7 -4l2 -1v-1l2 1v-1v-1h2l6 -7l2 -2l8 -7l2 -1l2 -2h3l5 -2l8 -2h3l14 2l25 8l8 2l10 4l12 4l7 4h1l2 2h2l2 2l3 2l3 2l6 4l8 6l2 1l13 13l17 22l24 39l4 13l2 4l1 5l12 55l1 16h1l-1 2l-5 44l-3 3h-2l-1 1h1v4l-1 3h-1l-1 1h1v2v2v2h-2l1 2l-1 4l-1 4l1 2h-2v3l-4 10l-4 14l-7 15l-6 10l-9 13l-2 3h-2v2l-2 1h-1v2l-13 9l-2 2h-2l-2 2l-4 1l-2 2l-2 1l-27 9l-29 7h-22l-13 -2l-35 -9l-10 -5l-6 -4l-30 -16l-4 -4l-4 -6l-2 -3l-8 -6l-4 -3l-4 -7h-2l-1 -1l-3 -6l-2 -1h-1v-1l-1 -2l-2 1l-10 1l-2 -1v1h-2h-2h-2h-2h-2v1l-2 -1l-2 1v-1l-2 1h-8v1l-2 -1l-2 2v-1h-2v1l-2 -1l-2 2l-2 -1l-14 2v1l-2 -1l-6 1l-2 1v-1l-2 1h-2v-1l-2 1l-10 1l-2 -1v1l-4 1h-2v-1l-2 1l-4 1l-28 5v1l-2 -1v1h-5l-4 2h-3l-2 1v-1l-2 1l-8 1l-4 2h-4v1l-2 -1v1l-28 7l-9 3l-4 1l-1 1l-2 2l-3 1l-7 2l-8 4l-2 1l-2 2v-1l-2 2l-23 12l-3 2l-2 1l-16 11l-2 1l-5 3l-9 4h-2l-2 3h-2l-2 2l-11 7l-5 2l-5 2l-1 1l-2 -1v2h-2l-2 2l-1 -2h1l3 -1v-1l1 -2h2l15 -8l1 -1l2 -1v-1h-2v-1h2v-1l1 1l1 1l2 -2l4 -3h2l-1 -2h1h1l1 1v-1zM538 7036h-2v-3h3l-1 1h-1l1 2zM528 7032v-1h4l1 1l-1 2l-4 -1h2v-1h-2zM525 7033l-1 -1l-1 -2h1h3l-1 1h-1v1v1zM490 7009h-10v-1h2v-1l2 1h4l2 -1v1v1zM478 7009h-10v-1l6 -1h2l2 1h1l-1 1z"/><path class="chunk" data-i="6" d="M302 6937h-4v-1l2 -2h3l-1 1h-1l1 1h1l-1 1zM350 6829h-2v-1h1v-2h-1v-1h2l1 1h-1v3zM316 6826h-7v-2h1v1h2v-1l2 1h2v1zM342 6824l-6 -1v1l-2 -1h-1l1 -1h10l-2 2zM358 6826v-1l-2 -1l1 -2v-1l1 1l2 2h2v1h-2l-2 1zM314 6809l-1 -1l3 -2v-2h2l-1 2l-3 3zM302 6822l2 -1h1v2h-1l-2 1v-2zM302 6822h-2l1 2l-1 1l-2 -3h1v-2h-1h-1l2 -2l1 2h2v2zM271 6816v-2h1l3 4h-1h-1l1 2h-2l-1 -3l1 -1h-1z"/><path class="chunk" data-i="7" d="M278 6810h-1l-1 1l-1 -1l5 -4v2h-1v1h-1v1zM285 6803h-1v2h-2v-1h1v-2h2v1zM260 6790h-2h-1l1 -2h2v-2h1v2l-1 2zM248 6782v1h-2v-3l2 -1l1 1h-1v1l-1 1h1zM252 6785v-1v-2l2 -2l2 -2v1l2 -1v2l-6 5zM265 6769h1v-1h1l1 1v-1h2l-4 5l-8 5l-1 -2l3 -3h2l2 -3h1v-1zM266 6771v-1h-1v1h1zM262 6775v-1h-1v1h1zM260 6777v-1h-1v1h1zM264 6770h-2l2 -3l2 1h-1v1h-1v1zM287 6756l-5 -1v-1h2l1 -2l3 -3v1l2 -1v1h1v-2h1v2l-2 3h-2l-1 1v2zM287 6753v-1l-1 -1v1l1 1zM290 6752v-1h-2v1h2zM296 6748l-2 -2h3v-2h1v3h-2v1z"/><path class="chunk" data-i="8" d="M303 6744h-2v-3h3l2 -1v2l-2 1l-1 1zM303 6743v-1h-1v1h1zM279 6731h1l2 -2l1 1l-1 2h1l-1 1h-3l-1 3v1l-1 -1l-2 -2l1 -1l2 1v-2h1v-1zM278 6732h-1v-2h1v-2l2 -2l2 -1v1l-3 4v1h-1v1zM275 6728h-1v1l-1 -1l1 -2v-1l2 1l-1 2zM302 6720h-2l1 -2v-1h1l1 1h-1v2zM309 6712l2 -2v-2l2 -1h1v1h1v2h-1l-2 2h1v2h-1v-1l-4 2l-2 2h-3l1 -1l2 -1l2 -2l1 -1zM289 6713l-1 -1v-2l2 -3v-1l2 -3l1 1l-2 4l-2 3v1v1zM294 6701h-2v-1l2 -1h1v1h-1v1zM316 6699h-2l-2 2l-4 3v-2l2 -2h2l2 -2h2v1z"/><path class="chunk" data-i="9" d="M319 6702v-1h-1v1h1zM322 6704v-1h-1v1h1zM315 6708l-1 -1v-1h-1v1h-1l1 -3l1 -2h2v-3l1 -1l3 -1l1 1h-1v1h2l1 1l-1 1l-2 -1v2h4h1l-1 2h3l-1 1h-2l-2 -1v2h1l-1 1h-1v-1h-1v-3h-2v2l-2 -1v2v1l2 -1v2h-3zM328 6704h-1v-2l1 -2h-1v-4h1l1 2v4l-1 2zM301 6698h-1l-2 -2h1v-2h3v-2l2 -1v1l-1 5l-2 1zM302 6696v-1h-1v1h1zM284 6672h-1l2 -2v-2h1h1l-1 2l-2 2zM293 6663l-1 -1l1 -3v-1l1 -1l1 1l-1 2l-1 2v1zM311 6645v-1h-1v1h1zM312 6648v-2h-1v1l1 1zM312 6652l1 -2h-1l-1 1l1 1zM311 6654h-1v-2h-1v2h-1l-1 -2l1 -1h2v-4h-2l-2 3v1l-2 -1v2h-2l-2 3l-2 -1l-1 4h-2v-3h2v-2h1l4 -3v-2v-1l2 1v-1h2l1 -1h-1v-1l2 -1l4 -2l2 2h-2v2l2 1h1v-3h1l1 2l-1 2h-2v2l2 2h-3l-1 2v-1l-1 1zM320 6617v-1h-2v1h2zM314 6625v-1h-1v1h1zM310 6626v-2h2l1 -2l1 1l1 -1l1 -2h2l-1 -2v-1h-4v-1l1 -1l2 1v-1l4 1h2v2h-2l-1 2l-1 4h-2l-2 2h-1l-2 -1v1h-1zM306 6635l-2 -2v-1l2 1v-1l-1 -2h1h2l-1 2v2l-1 1zM308 6628v-1h-1v1h1zM311 6627v2h-1l-2 1l-3 -4h1l2 -3l2 -3l1 2l-2 2v1h-1l-1 1h3v1h1z"/><path class="chunk" data-i="10" d="M328 6577l-10 1l-5 -4l-1 -6v-5v-3l2 -2l1 -2l3 -3h4l2 -2l6 1l2 2l2 2h1l1 4l1 4h1l-1 2v2l-4 4l-1 4l-4 1zM332 6518l-4 -1l-1 -1v-2l2 -2l1 -5h8l1 1v6l-1 1l-2 1l-4 2zM296 6514h-3l-6 -2l-2 -5l1 -2v-1l2 -3l8 1l3 2l-1 8l-2 2zM289 6506v-1h-1v1h1zM668 7046l-4 -1h-2l-2 -2l-2 -1l-13 -4l-5 -2l-114 -44l-4 -2l-8 -2l-16 -5l-1 1l3 2l-2 2l-2 1h-2l-1 -4l-8 -3l-15 -6l-35 -10l-5 -1l-20 -5h-2l-2 -2h-2l-2 -2h-3l-4 -2l-10 -4h-4h-6l-7 -2v-1l-2 1v-1l-5 -1l-5 -1h-2l-1 1l1 18h1l-1 2h1l3 32l2 9l1 5l1 7v3h2v3h-2l-3 3v2l-7 6v2h-2l-2 2v2l-4 4h-2l-5 6l-2 2l-6 8l-5 9l-2 2v1l-2 2h-4l-3 -4v-1h-1l-2 -1l-3 -6l-1 -1h-4l-2 -3v-2l2 -3l4 -1l10 -6l8 -6l2 -2l20 -16l2 -2v-2h2l4 -4l-2 -22h-1l1 -2h-1v-6l-1 -2h1l-1 -2v-18h-1l1 -2h-1l-1 -16l-1 -2h1v-1l-18 -3v-1l-2 1v-2l-2 1v-1v-1l-2 2l-8 1v-1h3l-1 -1h-2l-2 -2l2 -2h2h5l12 3l10 2h2v-3l-4 -24l-3 -2v-3l-6 -19v-6l-1 -2h1l-1 -2l-1 -16h-1l1 -2l-1 -8l1 -6l1 -2h-1h-4l-11 2h-11l-6 1l-18 2l-2 -1v1l-2 -2h-3v2h-1l-3 3l-2 2l-1 3l-1 6l-1 5l-1 6l-1 2h1l-1 2v26v4l1 6l-1 1h-2v1l-2 -1h-1v13l17 2l2 1v-1l2 2l2 -1h2v1v1l2 -2l1 1v1l7 1v1l2 -1v1h2v1l-35 -5h-4l1 7v2l-1 2h1l-1 2l5 32h1l-1 2h1l3 19l1 5l3 2h2v2l-2 3h-2l-3 3l-1 2l-2 4l-6 7h-2l-4 5l-2 2l-4 2l-2 1l-2 2l-2 1l-8 6l-2 2l2 2l-1 4l-1 1l-2 -1l-6 1l-1 1v2l-5 5l-12 -1v-2h-2l-2 -3l-6 -1h-2v-4l2 -2h1l11 -6l31 -18l9 -6l2 -2l13 -12l-3 -24h-1l1 -2h-1l-4 -36h1l-1 -2h1l-1 -2l-1 -10v-1l-2 1h-2v-2l-2 1l-3 -1h-1h-1l2 2l-1 2l-112 -11v2l-14 -1l-2 1v-1h-4l-2 -2h-4l-4 -2l-3 -1h-2l-31 -1l-1 -2v-1h3l2 2h2v-2l25 1l10 2h17v1l2 -1h1l5 2l5 -1h1l2 1v-1h2l4 1v-1l2 1v-1l2 1h2v-1l2 1v-1h6v1l2 -1h3l-1 1h-1l1 1l42 1l19 2l3 1l26 4v1h1l5 -61l5 -14l1 -2v-1l1 -2h-1l-15 -1l-8 -2l-10 -3l-3 -1l-1 -1v-2l-2 -2l1 -9l1 -8v-6v-1l-1 -2h1l1 -8l2 -7l8 -29l6 -15l1 -3l2 -2l-1 -6l-2 -3l-3 -1l-3 -2l-6 1l-1 -1l-1 -2l-1 -2l-5 -8h-2l-4 -6l-1 -2l-3 -4v-2l-2 -2v-1l-10 -21l-1 -3l-1 -5l2 -2v1l1 -1v-1l5 -1l40 -14l4 -2h2l2 -2l2 -1l15 -5l5 -2h2v1l1 -1l2 -8l3 -10v-2l10 -18v-2l2 -2v-2l2 -2v-2h-2l-4 -3l-8 -7v-2l-2 -1h-1l-3 -6h-2l-10 -19l-4 -7l-3 -9l-3 -9l-1 -41h1l-1 -2h1v-6l6 -20l2 -2v-2l3 -4l2 -4l1 -2l8 -8h2l-2 -2v1l-6 1v1l-2 -1h-2l-1 -2v-4l6 -2h5v-2h-2l-1 -2h1v-1h-2l-1 -1v-2h1l-1 -2l2 -2l1 -2l2 1v-1l4 1l2 3l2 -1l7 1l-1 -6l2 -2h23l9 2h4l2 -1l2 2l3 -1l7 -2l14 -4l3 -2h1l3 -2v-2l3 -1l2 1h2v2l1 4l-2 2v2h-1l1 2h-1v1h4l2 3l1 4l1 1l3 1h2l4 2l5 2l5 2l5 3l2 1l16 13l2 3l8 10l2 3v2h2v2v4v2h-2l-2 1v-1l-2 1l-2 -5l-4 -1l-2 -1l-1 1l1 2l1 4h-1l1 2l1 3v3l3 30l1 5h2l-1 4v2l-3 1l-2 -1v1h-2l-2 -2l1 -2h-1v-2l-2 -3v-1v-1l-2 2l-4 -1h-2l-2 -3l-1 1l-1 30l-1 2h1l-1 2l-2 6l-3 7l-6 11v2l-8 7l-4 3l-2 2h-4l-2 2h-2l1 2l1 3h2v1h-1l1 3l3 9l1 3l2 15l4 13h3l67 -5l17 2v2h1h1l-1 2v2l-2 3l-2 3l-6 8l-6 9l-44 76l-1 1l-2 2l-1 3l1 4l2 5l1 3l8 50v3v7v3l-2 1l-1 1l-5 2l-48 12l-11 2l-9 2l-6 1v1l-2 -1v1l1 2h-1l-1 16l3 2l6 42l2 2v4h-1l1 2l3 24l1 1l6 1l20 4l15 6l4 1l4 1l7 3l2 2l3 1h4l17 4l24 6l13 2l114 39l34 13l33 14l10 3l2 2l2 1l2 2v2zM160 6917v-1h-1v1h1zM230 6926l-1 -2v-1h-3v1l-2 -2l-2 1l-2 -2l-2 1v-1l-2 1l-16 -2l-16 -1v1l46 6zM238 6926l1 -1h-1l-6 -1l-1 2h1h6zM206 7052v-2h-2v2h2zM207 7053v-1h-1v1h1zM281 6422v-1h-1v1h1zM364 6422l-1 -2l1 -2v-1l-2 1l-15 1v1l1 1v-1l16 2zM374 6585l2 -1v-2l4 -1l1 -1v-2h1l7 -6l1 -2l4 -6v-2l2 -2l1 -2l1 -5l4 -20l-1 -25h1l-1 -2l-7 -11v-1l-1 -2h1v-1h-2l-4 -5v-2l-2 -5h-3l-1 -2v-2l-1 -1l-1 -2h-2l-3 -4l-1 -2h-2l-2 -2l-6 -10v-2l-1 -3l-5 -1l-2 -2v-4l-2 -2l-5 -2l-3 -2h-2l-2 -2l-8 -1v-1l-2 1l-7 1l-7 1l-2 2h-2l-4 4h-2v1l-2 3h-2v1l-4 5h-2l-3 1v-4l3 -4v-1h-2l-7 3h-3l-6 6l-8 13l-2 7l-5 22l1 2h-1v14l1 2h-1v4h1l-1 2l3 17l3 8l14 27l8 10l2 4l1 1l6 3l11 5l11 4l2 1l2 1v-1l2 1l5 1l7 -2l4 1l2 -1l2 -2l2 1h1l5 -2l2 -1l6 -4h2l6 -5zM366 6442v-1h-1v1h1zM412 6459v-1v-1h-2v-3l-2 -2h-2v-2l-14 -10l-8 -5l-1 1l4 4l1 1v2l1 3l3 3l2 1l5 2l13 7zM382 6457v-1h-2l-2 -2v2l2 1h2zM383 6458v-1h-1v1h1zM397 6458v-1h-1v1h1zM384 6459v-1h-1v1h1zM385 6460v-1h-1v1h1zM386 6462v-2h-1v1l1 1zM421 6462v-1h-1v1h1zM422 6464v-1h-1v1h1zM414 6475l1 -1l-1 -6l-2 -2h-1l-2 -2h-1h-1l1 2l1 4l2 1l3 4zM423 6465v-1h-1v1h1zM392 6466v-1h-1v1h1zM394 6475v-2l-1 -1l-3 -4h-1l1 2v2l1 2l1 1h2zM416 6477v-1h-1v1h1zM417 6491v-3l-1 -1v3l1 1zM418 6493v-1h-1v1h1zM419 6500v-1h-1v1h1zM429 6525v-1h-1v1h1zM423 6527v-1h-1v1h1zM278 6652v-1h-1v1h1zM408 6741v-1v-1l36 -60l1 -1l2 -2v-2l2 -2v-2l2 -2l1 -2l12 -22l2 -2h-6l-4 -1l-6 -1l-2 -1v1h-2l-2 -1v1h-2l-2 -1v1l-36 2v1l-2 -1l-16 1v1h1l3 8l8 35l4 16l1 4l2 13h1l-1 2h1l1 18l1 1zM255 6717l2 -3l1 -2l-1 -2l3 -2v-4l16 -48l1 -4l-3 1l-16 6l-5 3l-8 3l-28 10l-3 1l-2 2l-3 1l1 3v4l2 3l2 5l1 2l2 2v2l2 2l1 2l2 4l2 2l12 12h1l5 4l4 3l4 2v1h1l1 -2v-2l1 -2l1 -2h-1l2 -2v-2h-1l-1 -1h1l1 -1h1l-1 -1zM254 6749v-1h-1v1h1zM361 6832h6h6l28 -10l13 -3l2 -3l-5 -42v-2h-3l-1 -2l-1 -8l-2 1l-3 -3l-1 -6l2 -2l1 -10h-1l1 -2h-1v-12l-4 -18l-3 -12l-3 -9l-2 -12l-6 -24l-2 -5v-2l-2 -2h-2l-1 -2l1 -1h2l-5 -29l-4 -4l-1 -3l-1 -4h-2v-5l-1 -2l-2 2l-4 1l-1 1v3l-8 3l-9 2l-6 1l-2 1v-1l-7 -1l-14 -4l-6 -2l-1 -1l-2 1v7h-2l-10 28l-4 13h-1l1 2l-2 2l-1 2h1v1h-2v1l1 2l-2 2h1v1h-2l-8 24v2l-2 5l-1 2h1l-1 2v1l-1 3l-2 4v2l-1 2h1v1h-2v1h2l1 1h-3l-8 22v3l-1 2l5 5l4 1l1 2h-1l1 2v6l-3 2h-2v1l-2 -1l-2 -1l-4 -2l-1 -1l2 -2h-1h-2v2l-2 4l-4 9l-7 21l-4 10l-2 7l1 3v4h-1l1 2h-1l1 2h-1v6h-1l1 2h-1v3v4v3l2 2l2 1l7 3l7 1l36 3l2 1v-1l11 -1l5 -1h14l37 -5v-1l1 -2h-1l1 -1l4 1v1l1 -1zM360 6834v-1h-2l-1 1h3zM322 6935v-1h-2l-1 1h3zM316 6936v-1h-1v1h1zM326 6936v-1h-2v1h2zM322 6938h1l-1 -2h-3v2h3zM328 6937v-1h-1v1h1zM331 6938v-1h-1v1h1zM360 6945l1 -1l-9 -1v1v1l2 -1l6 1zM364 6946v-1h-1v1h1zM370 6947v-1h-1v1h1zM375 6948v-1h-1v1h1zM378 6949v-1h-1v1h1zM494 6982v-1h-1v1h1zM496 6983l1 -1h-1l-1 1h1zM323 7061v-1h-1v1h1zM322 7062v-1h-1v1h1zM321 7064v-2h-1v1l1 1z"/></g><g class="f live" data-r data-f="0" fill="var(--live,#000)" fill-rule="evenodd"></g><g class="f live" data-f="1" fill="var(--live,#000)" fill-rule="evenodd"></g><g class="f live" data-f="2" fill="var(--live,#000)" fill-rule="evenodd"></g><g class="f jolt-f live" data-f="3" fill="var(--live,#000)" fill-rule="evenodd"></g><path class="grain" fill="#000" fill-rule="evenodd" d="M57 7020h-1v-1h1v1zM21 7043l-1 -1v-1l1 1v1zM18 7042h-1v-1h1v1zM-5 7042h-1v-1h1v1zM19 7041h-1v-1h1v1zM12 7041h-6v-1l4 -1l2 1v1zM4 7040h-1l1 -1h1l-1 1zM2 7040h-1v-1h1v1zM20 7040l-1 -1l1 -1h1l-1 2zM17 7039h-1v-1h1v1zM15 7039h-1v-1h1v1zM13 7039h-1v-1h1v1zM8 7039h-1v-1h1v1zM-2 7040h-2v-2l2 1h1l-1 1zM29 7037h-1v-1h1v1zM8 7037h-1v-1h1v1zM43 7036h-1v-1h1v1zM36 7035h-1v-1h1v1zM34 7035h-6v-1h6v1zM32 7033h-4v-1h4v1zM27 7033h-1v-1h1v1zM21 7033h-1v-1h1v1zM37 7032h-1v-1h1v1zM49 7031h-1v-1h1v1zM38 7031h-1v-1h1v1zM36 7031l-6 -1v-1l4 1h2v1zM29 7030h-1v-1h1v1zM40 7029h-1v-1h1v1zM38 7029h-1v-1h1v1zM16 7029h-1v-1h1v1zM34 7027h-2v-1h2v1zM27 7027h-1v-1h1v1zM25 7027h-1v-1h1v1zM4 7027h-4v-1h4v1zM-3 7027h-1v-1h1v1zM29 7026h-1v-1h1v1zM0 7025h-1v-1h1v1zM-3 7025h-1v-1h1v1zM36 7024h-1v-1h1v1zM28 7024h-1v-1h1v1zM18 7024v1h-5l1 -1l2 -1v1h2zM-11 7024h-1v-1h1v1zM40 7023h-1v-1h1v1zM32 7023h-1l1 -1h1l-1 1zM12 7023h-2v-1h2v1zM-8 7023h-3l1 -1h2v1zM38 7022h-1v-1h1v1zM26 7023l-2 -1h-1l1 -1h2l1 1l-1 1zM0 7022h-1v-1h1v1zM-5 7021h3v1h-3v-1zM-5 7022l-1 1h-1l1 -2v1h1zM44 7021h-1v-1h1v1zM30 7022h-2l-1 -2h1h5l-1 1l-2 1zM-6 7021v-1l1 1h-1zM-8 7021h-1v-1h1v1zM-10 7021h-1v-1h1v1zM50 7020h-2v-1h2v1zM41 7020h-1v-1h1v1zM-27 7048h-1v-1h1v1zM-29 7048h-1v-1h1v1zM-32 7048l-1 -2h1h2l-2 2zM-34 7047h-1v-1h1v1zM-36 7047h-3l1 -1h2v1zM-40 7047h-3l1 -1h2v1zM-24 7049l-2 -1v-1h2v-2h2v1l-2 3zM-46 7047l-1 -1l1 -1h1v1l-1 1zM-48 7046h-2v-1h2v1zM-56 7046h-2v-1h2v1zM-66 7046h-1v-1h1v1zM-50 7045h-1v-1h1v1zM-52 7046h-2h-1l1 -2l2 1h1l-1 1zM-65 7045h-1v-1h1v1zM-24 7044h-1v-1h1v1zM-28 7044h-1v-1h1v1zM-68 7045h-2v-2h2l1 1l-1 1zM-71 7045l-1 -1v-1l1 1v1zM-26 7044l-1 -1v-1h1v2zM-12 7042h-2v-1h3l-1 1zM-22 7042h-1v-1h1v1zM-52 7042h-1l1 -1h1l-1 1zM-54 7042h-4l2 -2v1h2v1zM-59 7042l-5 -1v-1h5v2zM-16 7039h-1v-1h1v1zM-18 7039h-1v-1h1v1zM-22 7039h-4v-1h5l-1 1zM-27 7039h-1v-1h1v1zM-30 7039h-1l1 -1h1l-1 1zM-66 7039l-1 -1h1v1zM-74 7039h-1v-1h1v1zM-32 7038h-1v-1h1v1zM-36 7038h-4v-1h5l-1 1zM-66 7038v-1l1 1h-1zM-68 7038h-1l1 -1h1l-1 1zM-51 7037h-1v-1h1v1zM-33 7036h-1v-1h1v1zM-35 7036h-1v-1h1v1zM-40 7036h-1v-1h1v1zM-43 7036h-1v-1h1v1zM-53 7036h-1v-1h1v1zM-55 7036h-1v-1h1v1zM-65 7036h-1v-1h1v1zM-69 7036h-1v-1h1v1zM-48 7035h-3l1 -1h2v1zM-52 7035h-1v-1h1v1zM-61 7035h-1v-1h1v1zM-68 7035h-1v-1h1v1zM-73 7035h-1v-1h1v1zM-62 7037l-3 -3v-1h2v1l2 2l-1 1zM-66 7034h-1v-1h1v1zM-75 7034h-1v-1h1v1zM-52 7033h-1v-1h1v1zM-69 7032h-1v-1h1v1zM-71 7032h-1v-1h1v1zM-14 7024h-2v-1h2v1zM-18 7024h-1v-1h1v1zM-12 7022h-5l1 -1h5l-1 1zM-18 7022h-1v-1h1v1zM-22 7022h-1v-1h1v1zM-26 7024v-1l2 -2l1 1l-1 1l-2 1zM-80 7045h-2v-1h2v1zM-87 7045h-1v-1h1v1zM-89 7045h-1v-1h1v1zM-92 7045h-1v-1h1v1zM-122 7045h-4v-1h5l-1 1zM-133 7045h-1v-1h1v1zM-78 7044h-2v-1h3l-1 1zM-84 7045l-1 -1l1 -1h1v1l-1 1zM-90 7044h-2v-1h2v1zM-94 7045h-2v-1l2 -1l1 1l-1 1zM-98 7045h-2v-2h4v1l-2 1zM-108 7044h-2v-1h3l-1 1zM-112 7044h-2v-1h3l-1 1zM-134 7044h-1v-1h1v1zM-102 7044h-3l1 -1l4 -1l-2 2zM-118 7045l-1 -1v-2h1v3zM-125 7043h-1v-1h1v1zM-128 7043h-1v-1h1v1zM-81 7042h-1v-1h1v1zM-85 7042h-1v-1h1v1zM-87 7042h-1v-1h1v1zM-103 7042h-1v-1h1v1zM-108 7042h-1v-1h1v1zM-110 7042h-2v-1h2v1zM-114 7042h-2v-1h3l-1 1zM-124 7042h-1v-1h1v1zM-138 7042h-1v-1h1v1zM-76 7042l-2 -1h-1l1 -1h5l-1 1h-2v1zM-82 7041h-1v-1h1v1zM-86 7041h-1v-1h1v1zM-96 7041h-1v-1h1v1zM-100 7041h-1v-1h1v1zM-134 7041h-1v-1h1v1zM-85 7039l-1 1v-1h1zM-102 7040h-2v-1h2v1zM-105 7042l-1 -1l-2 -1v-1h3v3zM-110 7040h-5l1 -1h5l-1 1zM-116 7040h-3l1 -1h2v1zM-122 7042l-2 -1v-1l2 -1l2 1l-2 2zM-125 7040h-1v-1h1v1zM-128 7040h-1v-1h1v1zM-136 7040h-1v-1h1v1zM-85 7038h1h1l-1 1h-1v-1zM-86 7039h-2v-1h2v1zM-101 7039h-1v-1h1v1zM-134 7039h-2v-1h2v1zM-76 7039h-3v-1l1 -1v1h2v1zM-81 7037l1 1v1l-2 -1h1v-1zM-82 7038h-1l1 -1v1zM-86 7038v-1l1 1h-1zM-124 7038h-3l1 -1h3l-1 1zM-82 7037v-1l1 1h-1zM-96 7037h-1v-1h1v1zM-105 7037h-1v-1h1v1zM-108 7037h-2v-1h2v1zM-76 7036h-2v-1h3l-1 1zM-86 7036h-1v-1h1v1zM-124 7036h-3l1 -1h3l-1 1zM-130 7036h-1v-1h1v1zM-90 7036l-2 -1v-1h4l-2 2zM-117 7035h-1v-1h1v1zM-118 7036h-4v-1h2v-1l2 2zM-78 7034h-1l1 -1h1l-1 1zM-86 7034h-1v-1h1v1zM-90 7033h-2v-1h3l-1 1zM-122 7033h-1l1 -1h1l-1 1zM-124 7033h-1v-1h1v1zM-127 7033h-1v-1h1v1zM-136 7033h-1v-1h1v1zM-139 7033h-1v-1h1v1zM-102 7032h-2v-1h2v1zM-122 7031h-3l1 -1h2v1zM-133 7031h-1v-1h1v1zM-106 7030h-1v-1h1v1zM-102 7029h-1v-1h1v1zM-120 7028h-1v-1h1v1zM-124 7028h-1l1 -1h1l-1 1zM-126 7028h-3l1 -1h2v1zM-130 7028h-3l1 -1h2v1zM-134 7028h-1v-1h1v1zM-136 7028h-1v-1h1v1zM-138 7029l-1 -1v-1l1 1v1zM-133 7027h-1v-1h1v1zM-136 7026h-1v-1h1v1zM-108 7025h-1v-1h1v1zM-124 7024h-1v-1h1v1zM-146 7056h-1l1 -1h1l-1 1zM-150 7056h-1v-1h1v1zM-152 7055h-1v-1h1v1zM-154 7055h-2v-1l2 -1l1 1l-1 1zM-158 7054h-1v-1h1v1zM-160 7054h-1v-1h1v1zM-159 7053h-1v-1h1v1zM-170 7053h-1l1 -1h1l-1 1zM-172 7053h-1v-1h1v1zM-144 7053l-1 -1l1 -1h1v1l-1 1zM-150 7052h-1v-1h1v1zM-161 7052h-1v-1h1v1zM-164 7052h-1v-1h1v1zM-166 7052h-2v-1h2v1zM-171 7052h-1v-1h1v1zM-173 7052h-1v-1h1v1zM-186 7052h-1v-1h1v1zM-188 7052h-1v-1h1v1zM-148 7053l-1 -2l1 -1l2 2l-2 1zM-152 7051h-2v-1h2v1zM-170 7051h-1v-1h1v1zM-184 7052h-1v-2h1l1 2h-1zM-145 7050h-1v-1h1v1zM-161 7050h-1v-1h1v1zM-163 7050h-1v-1h1v1zM-172 7050h-1v-1h1v1zM-147 7049h-1v-1h1v1zM-162 7049h-1v-1h1v1zM-166 7049h-1l1 -1h1l-1 1zM-168 7049h-3l1 -1h2v1zM-173 7049h-1v-1h1v1zM-176 7049h-1v-1h1v1zM-145 7048h-1v-1h1v1zM-150 7050l-2 -2l2 -1v1l1 2h-1zM-160 7048h-1v-1h1v1zM-178 7048h-1v-1h1v1zM-186 7049l-2 -1h-1l1 -1h3v1l-1 1zM-190 7049l-1 -1v-1l1 1v1zM-152 7047h-3l1 -1h2v1zM-148 7046h-1v-1h1v1zM-160 7046h-2v-1h2v1zM-164 7046h-2v-1h2v1zM-168 7047h-1v-1l1 -1l1 1l-1 1zM-171 7046h-1v-1h1v1zM-150 7045h-2v-1h2v1zM-155 7045h-1v-1h1v1zM-158 7045h-1v-1h1v1zM-152 7044h-2v-1h2v1zM-163 7044h-1v-1h1v1zM-156 7043h-1v-1h1v1zM-164 7043h-1v-1h1v1zM-175 7043h-1v-1h1v1zM-171 7042h-1v-1h1v1zM-174 7042h-1v-1h1v1zM-175 7041h-1v-1h1v1zM-177 7041h-1v-1h1v1zM-182 7041h-2v-1h2v1zM-194 7041h-1l1 -1h1l-1 1zM-196 7041h-1v-1h1v1zM-200 7041h-1l1 -1h1l-1 1zM-186 7040h-1v-1h1v1zM-188 7041h-4v-1h2v-1l2 1v1zM-202 7039h-2v-1h2v1zM-168 7037h-1v-1h1v1zM-202 7037h-1l1 -1h1l-1 1zM-198 7036h-2v-1h2v1zM-142 7035h-4v-1h5l-1 1zM-147 7035h-1v-1h1v1zM-197 7035h-1v-1h1v1zM-161 7034h-1v-1h1v1zM-168 7034h-1v-1h1v1zM-170 7034h-1v-1h1v1zM-173 7034h-1v-1h1v1zM-195 7034h-1v-1h1v1zM-144 7033h-4v-1h5l-1 1zM-166 7032l1 2h-1h-1v-2h1zM-177 7033h-1v-1h1v1zM-149 7033l-1 -1v-1l1 1v1zM-155 7031l-1 1v-1h1zM-172 7032h-1v-1h1v1zM-185 7032h-1v-1h1v1zM-140 7031h-1v-1h1v1zM-180 7031h-1v-1h1v1zM-183 7031h-1v-1h1v1zM-156 7030v-1h6v1l-5 1v-1h-1zM-156 7031l-1 1h-2v-2l1 -1v1h2v1zM-171 7030h-1v-1h1v1zM-178 7031l-2 -1v-1h4v1l-2 1zM-187 7030h-1v-1h1v1zM-147 7029h-1v-1h1v1zM-172 7029h-1v-1h1v1zM-174 7029h-1v-1h1v1zM-193 7029h-1v-1h1v1zM-158 7028h-4v-1h5l-1 1zM-167 7028h-1v-1h1v1zM-169 7028h-1v-1h1v1zM-178 7028h-1v-1h1v1zM-184 7029h-2v-2h2v2zM-187 7028h-1v-1h1v1zM-145 7027h-1v-1h1v1zM-152 7027h-1v-1h1v1zM-180 7028h-2l2 -2v2zM-194 7027h-1v-1h1v1zM-197 7027h-1v-1h1v1zM-202 7027h-1v-1h1v1zM-146 7026h-1v-1h1v1zM-186 7026h-2v-1h2v1zM-167 7025h-1v-1h1v1zM-172 7025h-1v-1h1v1zM-174 7025h-3l1 -1h2v1zM-178 7025h-2v-1h2v1zM-142 7024h-1v-1h1v1zM-144 7024h-3l1 -1h2v1zM-153 7024h-1v-1h1v1zM-160 7024h-2v-1h3l-1 1zM-164 7025h-2v-1l2 -1l1 1l-1 1zM-190 7025l-4 -1h-1l1 -1h4v1v1zM-179 7023h-1v-1h1v1zM-182 7023h-1v-1h1v1zM-154 7023l-1 -1l3 -1v1h-2v1zM-159 7022h-1v-1h1v1zM-162 7022h-3l1 -1h3l-1 1zM-166 7022h-1v-1h1v1zM-180 7022h-1v-1h1v1zM-157 7021h-1v-1h1v1zM-160 7021h-1v-1h1v1zM-186 7022l-1 -1v-1h1v2zM-192 7021h-3l1 -1h2v1zM-197 7022l-1 -1v-1h1v2zM-200 7021h-1v-1h1v1zM-202 7021h-1v-1h1v1zM-177 7020h-1v-1h1v1zM-185 7020h-1v-1h1v1zM-262 7056h-2l2 -2v2zM-266 7053l1 1v2h-1l-1 -2h1v-1zM-239 7053h-1v-1h1v1zM-263 7053h-1v-1h1v1zM-267 7053v-1h1v1h-1zM-204 7052h-1l1 -1h1l-1 1zM-206 7052h-2v-1h2v1zM-213 7052h-1v-1h1v1zM-215 7052h-1v-1h1v1zM-224 7052h-1v-1h1v1zM-243 7052h-1v-1h1v1zM-261 7052h-1v-1h1v1zM-226 7051h-3l1 -1h2v1zM-231 7051h-1v-1h1v1zM-234 7051h-1v-1h1v1zM-238 7052l-2 -2h2v2zM-241 7051h-1v-1h1v1zM-258 7051h-3l1 -1h2v1zM-267 7051h-1v-1h1v1zM-206 7050h-2v-1h3l-1 1zM-244 7050h-1v-1h1v1zM-209 7050h-3v-2l2 1v-1h1v2zM-214 7049h-2v-1h2v1zM-217 7050h-2v-2h2v2zM-220 7050l-4 -1h-1l1 -1h4v2zM-226 7049h-2v-1h2v1zM-229 7049h-1v-1h1v1zM-208 7048h-1v-1h1v1zM-212 7048h-1v-1h1v1zM-233 7048h-1v-1h1v1zM-240 7048h-1v-1h1v1zM-256 7048h-3l1 -1h2v1zM-220 7047h-1v-1h1v1zM-234 7047h-5l1 -1h4v1zM-212 7046h-2v-1h2v1zM-215 7046h-1v-1h1v1zM-218 7046h-1l1 -1h1l-1 1zM-222 7047l-1 -1v-1l1 1v1zM-224 7047l-1 -1v-1l1 1v1zM-250 7046h-1v-1h1v1zM-266 7046h-1v-1h1v1zM-219 7045h-1v-1h1v1zM-226 7046h-4l2 -2v1h2v1zM-231 7045h-1v-1h1v1zM-244 7046l-2 -2h2v2zM-251 7045h-1v-1h1v1zM-253 7045h-1v-1h1v1zM-262 7045h-1v-1h1v1zM-265 7045h-1v-1h1v1zM-225 7044h-1v-1h1v1zM-267 7044h-1v-1h1v1zM-216 7043h-2v-1h2v1zM-219 7043h-1v-1h1v1zM-231 7043h-1v-1h1v1zM-233 7043h-1v-1h1v1zM-244 7043h-1v-1h1v1zM-246 7043h-1v-1h1v1zM-248 7043h-1v-1h1v1zM-251 7043h-1v-1h1v1zM-264 7043h-2v-1h2v1zM-207 7042h-1v-1h1v1zM-230 7042h-1l1 -1h1l-1 1zM-235 7042h-1v-1h1v1zM-255 7043h-5v-1h4v-1l1 1v1zM-260 7042h-2v-1h2v1zM-225 7040h-1v-1h1v1zM-208 7038h-1l1 -1h1l-1 1zM-234 7038h-1v-1h1v1zM-220 7037h-1v-1h1v1zM-231 7037h-1v-1h1v1zM-204 7038h-2l1 -2h-1v-1h2v3zM-207 7036h-1v-1h1v1zM-227 7035h-1v-1h1v1zM-218 7030l-1 -1v-1h1v2zM-204 7027h-4v-1h4v1zM-209 7027h-1v-1h1v1zM-214 7027h-1v-1h1v1zM-213 7026h-1v-1h1v1zM-216 7026h-1l1 -1h1l-1 1zM-217 7025h-1v-1h1v1zM-224 7025h-1v-1h1v1zM-213 7024h-1v-1h1v1zM-210 7023h-1v-1h1v1zM-218 7024l-1 -1v-1h1v2zM-237 7023h-1v-1h1v1zM-232 7022h-1v-1h1v1zM-234 7023l-1 -1v-1l1 1v1zM-241 7022h-1v-1h1v1zM-244 7022h-2v-1h2v1zM-214 7021h-1v-1h1v1zM-224 7021h-1l1 -1h1l-1 1zM-226 7022l-1 -1v-1h1v2zM-251 7021h-1v-1h1v1zM-253 7021h-1v-1h1v1zM-220 7021l-1 -1v-1l1 1v1zM-234 7020h-1l1 -1h1l-1 1zM-236 7020h-1v-1h1v1zM-246 7019l1 1h-1v-1zM-267 7054h-1h-1l1 -1h1v1zM-268 7052l-2 1v-1v-2l2 2zM-268 7048l-2 2h-1v-2l3 -2v2zM-269 7045h-1v-1h1v1zM-520 7029h-1v-1h1v1zM-522 7030h-2v-2l2 2zM-521 7028h-1v-1h1v1zM-520 7027h-1v-1h1v1zM-515 7026v-1h1v1h-1zM-518 7026h-1v-1h1v1zM-514 7025v-1h2v1h-2zM-515 7025h-3v-1h2h2h-1v1zM-512 7023h-1v-1h1v1zM-573 7067h-1v-1h1v1zM-572 7066h-1l1 -1h1l-1 1zM-574 7065h-1l1 -1h1l-1 1zM-571 7064h-1h-1l1 -2h1v2zM-568 7063l-1 -1v-1l1 1v1zM-570 7062h-1v-1h1v1zM-567 7061h-1v-1h1v1zM-568 7060h-1v-1h1v1zM-563 7057h-1v-1h1v1zM-557 7056h-1v-1h1v1zM-562 7056h-1v-1h1v1zM-565 7056h-1v-1h1v1zM-563 7055h-1v-1h1v1zM-555 7054h-1v-1h1v1zM-559 7054h-1v-1h1v1zM-562 7054h-1v-1h1v1zM-557 7052h-1v-1h1v1zM-551 7051h-1v-1h1v1zM-556 7051h-1v-1h1v1zM-554 7050h-1v-1h1v1zM-558 7051l-1 -1v-1l1 1v1zM-555 7048h-1v-1h1v1zM-550 7047h-1l1 -1h1l-1 1zM-550 7045h-1v-1h1v1zM-545 7043h-1v-1h1v1zM-544 7041h-1v-1h1v1zM-533 7037h-1v-1h1v1zM-532 7036h-1v-1h1v1zM-533 7035h-1v-1h1v1zM-531 7034h-1v-1h1v1zM-528 7032h-1v-1h1v1zM-526 7031h-1v-1h1v1zM-525 7030h-1v-1h1v1zM54 7019h-2v-1h2v1zM64 7018h-1v-1h1v1zM62 7018h-2v-1h2v1zM68 7017h-2v-1h2v1zM60 7017h-1v-1h1v1zM58 7017h-1v-1h1v1zM56 7017h-1v-1h1v1zM72 7016h-1l1 -1h1l-1 1zM66 7016h-2v-1h2v1zM70 7015h-2v-1h2v1zM67 7015h-1v-1h1v1zM54 7015h-2v-1h2v1zM65 7014h-1v-1h1v1zM60 7014h-1l1 -1h1l-1 1zM58 7013h-1l1 -1h1l-1 1zM66 7012h-1l1 -1h1l-1 1zM60 7010h-1v-1h1v1zM56 7010h-1v-1h1v1zM69 7009h-1v-1h1v1zM54 7009h-1v-1h1v1zM68 7008h-1v-1h1v1zM64 7006h-1v-1h1v1zM56 7005h-1v-1h1v1zM62 7003h-1v-1h1v1zM54 7003h-1v-1h1v1zM58 7002h-1l1 -1h1l-1 1zM69 7001h-1v-1h1v1zM64 7001h-2v-1h2v1zM68 7000h-2v-1h2v1zM60 6977h-1v-1h1v1zM64 6976l-2 -2h2v2zM76 6958h-1v-1h1v1zM42 7019h-1v-1h1v1zM47 7019h-2v-2h2v2zM30 7018h-1l1 -1h1l-1 1zM-10 7017h-1v-1h1v1zM52 7018h-2l-1 -2l1 -1l2 3zM48 7016h-1v-1h1v1zM44 7018l-3 -2l1 -1l2 1v2zM46 7015h-1l1 -1h1l-1 1zM51 7014h-1v-1h1v1zM38 7013h-1v-1h1v1zM42 7012h-3l1 -1h2v1zM37 7012h-1v-1h1v1zM35 7011h-1v-1h1v1zM44 7010h-1v-1h1v1zM34 7010l-1 -1v-1h1v2zM50 7008h-1l1 -1h1l-1 1zM46 7009l-1 -1l1 -1h2v1l-2 1zM40 7008h-4v-1h4v1zM46 7007h-2v-1h2v1zM43 7007h-1v-1h1v1zM49 7006h-1v-1h1v1zM47 7006h-1v-1h1v1zM41 7006h-1v-1h1v1zM39 7006h-1v-1h1v1zM34 7007l-1 -1v-1l1 1v1zM48 7005h-1v-1h1v1zM52 7004h-1v-1h1v1zM36 7004l-1 -1l1 -1h1l-1 2zM38 7002h-1l1 -1h1l-1 1zM52 7002h-2v-2l2 2zM49 7001h-1v-1h1v1zM44 7001h-1v-1h1v1zM42 7001h-3l1 -1h2v1zM46 7001h-1v-1l1 -1l1 1l-1 1zM-180 7019h-1v-1h1v1zM-183 7020l-1 -1v-1h1v2zM-194 7019h-4v-1h5l-1 1zM-199 7020l-1 -1v-1h1v2zM-189 7012h-1v-1h1v1zM-202 7011h-1l1 -1h1l-1 1zM-184 7010h-1v-1h1v1zM-194 7010h-5l1 -1h4v1zM-183 7009h-1v-1h1v1zM-186 7009h-2v-1h3l-1 1zM-190 7009h-1l1 -1h1l-1 1zM-182 7008h-1v-1h1v1zM-200 7006h-2v-1h2v1zM-200 6991h-1l1 -1h1l-1 1zM-194 6990h-1v-1h1v1zM-194 6988h-1v-1h1v1zM-197 6988h-1v-1h1v1zM-198 6989h-2l-1 -1l1 -1l2 1v1zM-201 6987h-1v-1h1v1zM-193 6986h-1v-1h1v1zM-197 6986h-1v-1h1v1zM-194 6984h-1v-1h1v1zM-200 6982h-1v-1h1v1zM-199 6980h-3v-1h2v-1h1v2zM-195 6979h-1l-1 -1l1 -1l1 1v1zM-196 6977l-1 -1v-2h1l1 2l-1 1zM-180 6974h-1v-1h1v1zM-197 6973h-1v-1h1v1zM-184 6969h-1v-1h1v1zM-221 7019h-1v-1h1v1zM-242 7020v-1l2 -1l-2 2zM-243 7019h-1v-1h1v1zM-247 7019v-1h1v1h-1zM-249 7018l-1 1v-1h1zM-251 7019h-1v-1h1v1zM-249 7017l1 1h-1v-1zM-250 7018h-1l1 -1v1zM-205 7017h-1v-1h1v1zM-210 7017h-1v-1h1v1zM-212 7017h-5l1 -1h4v1zM-220 7017h-4v-1h5l-1 1zM-234 7017h-1v-1h1v1zM-250 7017v-1l1 1h-1zM-251 7017h-1v-1h1v1zM-254 7017h-1l1 -1h1l-1 1zM-264 7017h-1v-1h1v1zM-224 7016h-1v-1h1v1zM-230 7016h-1l1 -1h1l-1 1zM-216 7015h-1v-1h1v1zM-220 7015h-1v-1h1v1zM-250 7015h-1l1 -1h1l-1 1zM-257 7015h-1v-1h1v1zM-264 7015h-1v-1h1v1zM-228 7014h-1v-1h1v1zM-238 7014h-1v-1h1v1zM-240 7014h-1v-1h1v1zM-242 7014h-2v-1h2v1zM-245 7014h-1v-1h1v1zM-259 7014h-1v-1h1v1zM-267 7014h-1v-1h1v1zM-218 7013h-1v-1h1v1zM-220 7013h-1v-1h1v1zM-224 7013h-1v-1h1v1zM-226 7013h-1v-1h1v1zM-229 7013h-1v-1h1v1zM-214 7012h-4v-1h4v1zM-219 7012h-1v-1h1v1zM-222 7012h-2v-1h3l-1 1zM-225 7012h-1v-1h1v1zM-261 7013l-1 -1v-1l1 1v1zM-209 7009h-1v-1h1v1zM-212 7009h-1v-1h1v1zM-265 7009h-1v-1h1v1zM-216 7008h-4v-1h4v1zM-266 7008h-1v-1h1v1zM-222 7007h-1l1 -1h1l-1 1zM-252 7007h-1v-1h1v1zM-210 7006h-1v-1h1v1zM-227 7006h-1v-1h1v1zM-208 7005h-1v-1h1v1zM-222 7004h-1v-1h1v1zM-256 7004h-1v-1h1v1zM-214 7002h-1v-1h1v1zM-217 7002h-1v-1h1v1zM-243 7002h-1v-1h1v1zM-204 7002l-2 1v-1l2 -2v2zM-212 7001h-1v-1h1v1zM-223 7001h-1v-1h1v1zM-225 7001h-1v-1h1v1zM-233 7001h-1v-1h1v1zM-241 7001h-1v-1h1v1zM-208 7000h-1v-1h1v1zM-218 7000h-2v-1h2v1zM-205 6999h-1v-1h1v1zM-224 6999h-2v-1h2v1zM-236 6999h-1v-1h1v1zM-247 6999h-1v-1h1v1zM-208 6998h-1l1 -1h1l-1 1zM-210 7000l-1 -1l-1 -1v-1h2v3zM-230 6998h-2v-1h2v1zM-254 6998h-1v-1h1v1zM-209 6997h-1v-1h1v1zM-213 6997h-1v-1h1v1zM-229 6997h-1v-1h1v1zM-261 6997h-1v-1h1v1zM-215 6996h-1v-1h1v1zM-212 6995h-1v-1h1v1zM-221 6995h-1v-1h1v1zM-229 6995h-1v-1h1v1zM-225 6994h-1v-1h1v1zM-265 6994h-1v-1h1v1zM-218 6993h-1v-1h1v1zM-208 6992h-2v-1h2v1zM-212 6992h-2v-1h3l-1 1zM-215 6992h-1v-1h1v1zM-221 6992h-1v-1h1v1zM-202 6991h-3l1 -1h2v1zM-207 6991h-1v-1h1v1zM-214 6991h-1v-1h1v1zM-219 6992l-1 -1v-1h1v2zM-224 6992l-1 -1v-1h1v2zM-245 6991h-1v-1h1v1zM-206 6990h-1v-1h1v1zM-210 6991l-1 -1l1 -1l1 1l-1 1zM-212 6990h-1v-1h1v1zM-242 6991h-2v-1l2 -1v1v1zM-226 6989h-1v-1h1v1zM-244 6989h-1v-1h1v1zM-234 6988h-1v-1h1v1zM-236 6988h-1v-1h1v1zM-242 6988h-1v-1h1v1zM-231 6987h-1v-1h1v1zM-240 6987h-2v-1h3l-1 1zM-243 6987h-1v-1h1v1zM-209 6986h-1v-1h1v1zM-211 6986h-1v-1h1v1zM-221 6985h-1v-1h1v1zM-224 6985h-1v-1h1v1zM-232 6985h-2v-1h2v1zM-240 6984h-1v-1h1v1zM-204 6983h-1v-1h1v1zM-206 6983h-1v-1h1v1zM-243 6983h-1v-1h1v1zM-246 6983h-1l1 -1h1l-1 1zM-248 6983h-2v-1h2v1zM-251 6983h-1v-1h1v1zM-208 6982h-1l1 -1h1l-1 1zM-211 6982h-1v-1h1v1zM-214 6982h-1v-1h1v1zM-223 6982h-1v-1h1v1zM-234 6984h-1v-3l1 1v2zM-239 6982h-1v-1h1v1zM-255 6982h-1v-1h1v1zM-236 6981h-2v-1h3l-1 1zM-241 6981h-1v-1h1v1zM-253 6980h1h1l-1 2l-2 -1l1 -1zM-256 6981h-2v-1h2v1zM-266 6981h-1v-1h1v1zM-216 6980h-1v-1h1v1zM-240 6980h-1v-1h1v1zM-242 6980h-1v-1h1v1zM-248 6981l-1 -1l5 -1v1h-4v1zM-258 6980h-1v-1h1v1zM-234 6979h-1v-1h1v1zM-236 6979h-3l1 -1h2v1zM-218 6978h-3l1 -1h3l-1 1zM-224 6978h-1v-1h1v1zM-240 6978h-2v-1h2v1zM-258 6978h-2v-1h2v1zM-262 6978h-2v-1h2v1zM-238 6976v1l-1 -1h1zM-210 6976h-1v-1h1v1zM-225 6976h-1v-1h1v1zM-243 6978h-1v-3l1 1v2zM-250 6975l1 1h-1v-1zM-261 6976h-1v-1h1v1zM-224 6975h-1v-1h1v1zM-226 6975h-3l1 -1h2v1zM-262 6975h-1v-1h1v1zM-210 6974h-1l1 -1h1l-1 1zM-242 6974h-2v-1h2v1zM-252 6975v-2h2v2h-2zM-257 6976h-3v-1h2v-1v-1l1 1v2zM-261 6974h-1v-1h1v1zM-226 6973h-4v-1h4v1zM-232 6973h-1v-1h1v1zM-246 6973h-1v-1h1v1zM-265 6973h-1v-1h1v1zM-204 6972l-2 2h-2v-1h2v-1v-1l2 1zM-216 6972h-1l1 -1h1l-1 1zM-242 6972h-1v-1h1v1zM-245 6972h-1v-1h1v1zM-248 6972h-2v-1h3l-1 1zM-251 6972h-1v-1h1v1zM-253 6972h-1v-1h1v1zM-256 6972h-2v-1h2v1zM-218 6972h-4v-2h4v2zM-223 6973l-1 -1l-2 -1h-1l1 -1h3v3zM-260 6971h-1l1 -1h1l-1 1zM-262 6971h-1v-1h1v1zM-237 6971h-2v-2h2v2zM-240 6970h-1v-1h1v1zM-243 6970h-1v-1h1v1zM-246 6970h-1l1 -1h1l-1 1zM-250 6970h-1l1 -1h1l-1 1zM-252 6970h-1v-1h1v1zM-254 6970h-2v-1h2v1zM-257 6970h-1v-1h1v1zM-263 6970h-1v-1h1v1zM-258 6968h-1l1 -1h1l-1 1zM-261 6968h-1v-1h1v1zM-265 6971l-1 -1v-2l2 -1v1l-1 2v1zM-268 7019h-1v-1h1v1zM-272 7018h-1v-1h1v1zM-271 7016h-1v-1h1v1zM-273 7017l-1 -1v-1l1 1v1zM-275 7016l-1 -1v-1h1v2zM-276 7014h-1v-1h1v1zM-270 7013h-1l1 -1h1l-1 1zM-276 7012h-1v-1h1v1zM-274 7010h-1l1 -1v1zM-269 7008h-1v-1h1v1zM-271 6998h-1v-1h1v1zM-277 6997h-1v-1h1v1zM-271 6996h-1v-1h1v1zM-284 6996h-1v-1h1v1zM-290 6994h-1l1 -1h1l-1 1zM-291 6993h-1v-1h1v1zM-283 6991h-1v-1h1v1zM-291 6991h-1v-1h1v1zM-292 6990h-1v-1h1v1zM-293 6989h-1v-1h1v1zM-295 6986h-1v-1h1v1zM-294 6983h-1v-1h1v1zM-287 6982h-1v-1h1v1zM-292 6982h-2v-1h2v1zM-269 6981h-1v-1h1v1zM-281 6981h-1v-1h1v1zM-277 6980h-1v-1h1v1zM-280 6980h-1v-1h1v1zM-286 6980h-3l1 -1h2v1zM-275 6980l-1 -1v-1h1v2zM-282 6979h-4v-1h4v1zM-268 6980l-2 -1l-2 -1v-1l4 1h1l-1 2zM-279 6978h-1v-1h1v1zM-281 6978h-1v-1h1v1zM-274 6978l-1 -1l3 -1v1h-2v1zM-278 6978v-1l2 -1l-2 2zM-266 6977l-2 -1h-1l1 -1h2l1 1l-1 1zM-276 6975h-1v-1h1v1zM-275 6973h-1v-1h1v1zM-269 6972h-1v-1h1v1zM-278 6972h-1v-1h1v1zM-268 6972l-1 -2l1 -1l1 1v2h-1zM-272 6971h-1l1 -1h1l-1 1zM-274 6972l-1 -1v-1h1v2zM-280 6971l-1 -1v-1l1 1v1zM-269 6969h-1v-1h1v1zM-271 6969h-1v-1h1v1zM-276 6971h-2l-1 -1l1 -1l2 -1v3zM-273 6969h-1l-1 -1l1 -1l1 1v1zM-275 6967h-1v-1h1v1zM72 6954h-1v-1h1v1zM67 6954h-1v-1h1v1zM73 6953h-1v-1h1v1zM66 6953h-1v-1h1v1zM70 6952h-1v-1h1v1zM58 6915h-2v-1h3l-1 1zM62 6914h-2l-2 -2l4 1h1l-1 1zM-200 6953l1 1h-1v-1zM-201 6953v-1h1v1h-1zM-2 6735l1 1h-1v-1zM-3 6735v-1h1v1h-1zM-48 6753v-1h1v1h-1zM-44 6747v-2h1v1l-1 1zM-43 6744h1l-1 1v-1zM-40 6742v1l-1 -1h1zM-40 6741l1 1h-1v-1zM-132 6647h-1l1 -1h1l-1 1zM-173 6676l-1 1v-1h1zM-170 6672v-1h1v1h-1zM574 7043h-2v-1h2v1zM570 7043h-1v-1h1v1zM566 7043h-1l1 -1h1l-1 1zM580 7042h-1v-1h1v1zM578 7042h-2v-1h2v1zM575 7041h-1v-1h1v1zM582 7041l-4 -1v-1h6v1l-2 1zM588 7039h-1v-1h1v1zM585 7038h-1v-1h1v1zM553 7038h-1v-1h1v1zM548 7037h-1v-1h1v1zM546 7036h-2l-2 -2l4 1h1l-1 1zM540 7037l-1 -1l1 -2h1v2l-1 1zM534 7035l-1 -1l1 -2h2l-1 2l-1 1zM528 7033h-2v-1h2v1zM522 7032h-2v-1h3l-1 1zM522 7030h-3l1 -1h2v1zM513 7030h-1v-1h1v1zM518 7030h-3v-2h1l2 2zM511 7028h-1v-1h1v1zM504 7028h-1v-1h1v1zM509 7027h-1v-1h1v1zM504 7026h-1v-1h1v1zM501 7026h-1v-1h1v1zM532 7020h-1v-1h1v1zM488 7029h-1v-1h1v1zM483 7028h-1v-1h1v1zM498 7027h-1l1 -1h1l-1 1zM492 7026h-1v-1h1v1zM497 7025h-1v-1h1v1zM488 7025h-3l1 -1h2v1zM484 7023h-1v-1h1v1zM479 7022h-1v-1h1v1zM525 7019h-1v-1h1v1zM511 7018h-1v-1h1v1zM534 7017h-2v-1h2v1zM531 7017h-1v-1h1v1zM526 7017h-1v-1h1v1zM532 7016h-1v-1h1v1zM524 7016h-1v-1h1v1zM518 7015h-1l1 -1h1l-1 1zM516 7015h-1v-1h1v1zM509 7014h-1v-1h1v1zM503 7014h-1v-1h1v1zM526 7013h-1v-1h1v1zM507 7013h-1v-1h1v1zM502 7013h-1v-1h1v1zM525 7012h-1v-1h1v1zM501 7011h-1v-1h1v1zM518 7009h-2v-1h2v1zM515 7009h-1v-1h1v1zM512 7009h-1v-1h1v1zM510 7009h-2v-1h2v1zM513 7008h-1v-1h1v1zM506 7009h-2v-2h2v2zM502 7008h-1l1 -1h1l-1 1zM520 7005h-1v-1h1v1zM517 7003h-1v-1h1v1zM513 7003h-1v-1h1v1zM518 7001h-1v-1h1v1zM515 7001h-1v-1h1v1zM504 7001h-1v-1h1v1zM520 7000h-2v-1h2v1zM522 6999h-1v-1h1v1zM516 6999h-1v-1h1v1zM526 6997h-1v-1h1v1zM507 6998h-3v-1h2v-1h1v2zM522 6996h-1l1 -1h1l-1 1zM513 6996h-1v-1h1v1zM508 6995h-1v-1h1v1zM503 6994h-1v-1h1v1zM487 7013h-1v-1h1v1zM500 7012h-1v-1h1v1zM481 7012h-1v-1h1v1zM497 7011h-1v-1h1v1zM498 7010h-1v-1h1v1zM496 7010h-1v-1h1v1zM494 7010h-1v-1h1v1zM495 7009h-1v-1h1v1zM466 7008h-1l1 -1h1l-1 1zM464 7007h-3l1 -1h2v1zM496 7006h-1l1 -1h1l-1 1zM460 7006h-1l1 -1h1l-1 1zM495 7005h-1v-1h1v1zM458 7005h-3l1 -1h3l-1 1zM488 7004h-1v-1h1v1zM484 7004h-1v-1h1v1zM454 7004l-4 -1v-1v-1l2 1h2l1 2h-1zM495 6999h-1v-1h1v1zM497 6998h-1v-1h1v1zM450 6999l-1 -1l1 -1h1v1l-1 1zM500 6997h-1v-1h1v1zM491 6997h-1v-1h1v1zM448 6997h-2v-1h3l-1 1zM494 6997l-1 -1l3 -1h1l-1 1h-2v1zM488 6995h-2v-1h3l-1 1zM485 6995h-1v-1h1v1zM479 6994h-1v-1h1v1zM476 6994h-1v-1h1v1zM480 6992h-1l1 -1h1l-1 1zM451 6992h-1v-1h1v1zM477 6991h-1v-1h1v1zM475 6991h-1v-1h1v1zM472 6990h-2v-1h2v1zM469 6990h-1v-1h1v1zM444 6990h-2v-1h2v1zM467 6989h-1v-1h1v1zM464 6989h-1l1 -1h1l-1 1zM462 6989h-1v-1h1v1zM493 6988h-1v-1h1v1zM459 6988h-1v-1h1v1zM457 6986h-1v-1h1v1zM458 6984h-3l1 -1h2v1zM454 6984h-1v-1h1v1zM467 6982h-1v-1h1v1zM465 6981h-1v-1h1v1zM467 6980h-1v-1h1v1zM465 6979h-1v-1h1v1zM462 6979h-1v-1h1v1zM468 6978h-2v-1h2v1zM464 6978h-1v-1h1v1zM462 6977h-1v-1h1v1zM342 6944h-1v-1h1v1zM326 6941h-2v-1h2v1zM323 6941h-1v-1h1v1zM312 6939h-2v-1h3l-1 1zM312 6937h-1v-1h1v1zM310 6938h-6v-2l2 1l2 -1h2v2zM308 6936h-2v-1h2v1zM298 6934h-2v-1h2v1zM363 6832h-1v-1h1v1zM360 6832v-1l1 1h-1zM364 6831h-1v-1h1v1zM350 6831h-1v-1h1v1zM361 6830h-1v-1h1v1zM358 6830h-4v-1h4v1zM354 6832h-2l-2 -2v-1h3v1l1 2zM317 6828h-1v-1h1v1zM271 6855h-1v-1h1v1zM353 6828l-1 -1v-1h1v2zM322 6827h-1v-1h1v1zM363 6826h-1v-1h1v1zM324 6826h-1l1 -1h1l-1 1zM328 6825h-1l1 -1h1l-1 1zM320 6825h-3l1 -1h2v1zM350 6824h-1v-1h1v1zM346 6826l-1 -1l1 -2l1 1l-1 2zM345 6824h-1v-1h1v1zM333 6824h-1v-1h1v1zM331 6824h-1v-1h1v1zM356 6823h-1v-1h1v1zM349 6823h-1v-1h1v1zM327 6823h-1v-1h1v1zM324 6824h-3v-2h1v1h2v1zM313 6823h-1v-1h1v1zM310 6823h-2v-1h2v1zM346 6822h-1l1 -1h1l-1 1zM318 6822h-3l1 -1h2v1zM343 6821h-1v-1h1v1zM341 6821h-1v-1h1v1zM338 6821h-2v-1h2v1zM332 6822h-2v-2l2 2zM321 6821h-1v-1h1v1zM356 6821l-2 -1v-1h2l1 1l-1 1zM326 6820h-1v-1h1v1zM312 6820h-1v-1h1v1zM348 6819h-1v-1h1v1zM330 6819h-1l1 -1h1l-1 1zM318 6819h-5l1 -1h5l-1 1zM311 6819h-1v-1h1v1zM354 6818h-2v-1h2v1zM343 6818h-1v-1h1v1zM341 6818h-1v-1h1v1zM338 6818h-3l1 -1h2v1zM320 6818h-1v-1h1v1zM352 6817h-3l1 -1h2v1zM324 6817h-2v-1h2v1zM348 6816h-1l1 -1h1l-1 1zM326 6817v-1l4 -1h1l-1 1h-2l-2 1zM346 6815h-3l1 -1h2v1zM342 6815h-1v-1h1v1zM338 6815h-1l1 -1h1l-1 1zM336 6815h-5l1 -1h4v1zM314 6814h-1v-1h1v1zM316 6812h-1v-1h1v1zM308 6814v-1l2 -1l2 -1v1l-2 1l-2 1zM317 6811h-1v-1h1v1zM313 6811l-1 -1v-1l1 1v1zM318 6810l-1 -1l1 -1h1l-1 2zM310 6809h-1l1 -1h1l-1 1zM320 6807h-1v-1h1v1zM309 6806h-1v-1h1v1zM315 6805h-1v-1h1v1zM314 6803h-1l1 -1h1l-1 1zM317 6803l-1 -1v-1l1 1v1zM312 6802h-4v-1h5l-1 1zM320 6802l-1 -1v-1h1v2zM316 6801h-1v-1h1v1zM319 6800h-1v-1h1v1zM311 6800h-1v-1h1v1zM309 6800h-1v-1h1v1zM310 6799h-1v-1h1v1zM315 6797h-1v-1h1v1zM313 6797h-1v-1h1v1zM315 6795h-1v-1h1v1zM309 6779h-1v-1h1v1zM273 6827h-1v-1h1v1zM270 6827h-2v-1h3l-1 1zM307 6826h-1v-1h1v1zM305 6826h-1v-1h1v1zM302 6826h-1v-1h1v1zM268 6826h-1v-1h1v1zM306 6825h-1v-1h1v1zM278 6824h-2v-1h2v1zM307 6823h-1v-1h1v1zM297 6823h-1v-1h1v1zM298 6822h-1v-1h1v1zM278 6823v-1l2 -1v1l-2 1zM268 6824h-2l-1 -2l1 -1l1 1l1 2zM281 6821h-1v-1h1v1zM275 6821h-1v-1h1v1zM265 6821h-1v-1h1v1zM305 6819l1 1l-1 1v-2zM287 6820h-1v-1h1v1zM276 6820h-1v-1h1v1zM271 6820h-1v-1h1v1zM266 6820h-1v-1h1v1zM308 6820l-1 -1v-1h1v2zM288 6819h-1v-1h1v1zM284 6819h-3l1 -1h2v1zM302 6820v-2l2 -1l1 2h-1l-2 1zM285 6818h-1v-1h1v1zM278 6818h-1v-1h1v1zM306 6817h-1v-1h1v1zM299 6818l1 -2l2 2h-3zM280 6817h-2v-1h2v1zM271 6817h-1l-2 2v-1l2 -2h1v1zM265 6817h-1v-1h1v1zM307 6816h-1v-1h1v1zM302 6816h-1v-1h1v1zM292 6816h-1v-1h1v1zM281 6816h-1v-1h1v1zM275 6816h-1v-1h1v1zM266 6816h-1v-1h1v1zM308 6815h-1v-1h1v1zM305 6815h-1v-1h1v1zM303 6815h-1v-1h1v1zM288 6815h-1v-1h1v1zM276 6815h-1v-1h1v1zM265 6815h-1v-1h1v1zM304 6814h-1v-1h1v1zM283 6814h-1v-1h1v1zM271 6814h-1v-1h1v1zM268 6814h-1v-1h1v1zM266 6814h-1v-1h1v1zM305 6813h-1v-1h1v1zM297 6813h-1v-1h1v1zM279 6813h-1v-1h1v1zM274 6813h-1v-1h1v1zM294 6812h-1v-1h1v1zM284 6813v-1l2 -1v1l-2 1zM275 6812h-1v-1h1v1zM267 6813l-1 -1v-1l1 1v1zM307 6811h-1v-1h1v1zM301 6811h-1v-1h1v1zM281 6810l-1 1v-1h1zM279 6810l-1 1v-1h1zM268 6811h-1v-1h1v1zM288 6811h-2v-1l2 -1l1 1l-1 1zM281 6809l1 1h-1v-1zM279 6810v-1h1v1h-1zM271 6810h-1v-1h1v1zM269 6810h-1v-1h1v1zM307 6809h-1v-1h1v1zM290 6809h-1v-1h1v1zM287 6809h-1v-1h1v1zM283 6809h-1v-1h1v1zM280 6809v-1h1v1h-1zM271 6808h-1v-1h1v1zM294 6807h-1v-1h1v1zM284 6807h-1l1 -1h1l-1 1zM296 6806h-1v-1h1v1zM286 6806h-1v-1h1v1zM281 6806h-1v-1h1v1zM298 6805h-1v-1h1v1zM287 6805h-1v-1h1v1zM276 6805h-1v-1h1v1zM300 6804h-1l1 -1h1l-1 1zM286 6803v1l-1 -1h1zM275 6804h-1v-1h1v1zM304 6803h-1l1 -1h1l-1 1zM298 6803h-1v-1h1v1zM289 6803h-1v-1h1v1zM286 6802h1l-1 1v-1zM278 6803h-1v-1h1v1zM276 6803h-1v-1h1v1zM290 6802h-1v-1h1v1zM285 6802l1 -1v1h-1zM257 6802h-1v-1h1v1zM303 6801h-1v-1h1v1zM278 6801h-1v-1h1v1zM304 6801v-1l2 -1v1l-2 1zM297 6800h-1v-1h1v1zM291 6801l-1 -1v-1l1 1v1zM288 6800h-1v-1h1v1zM299 6799h-1v-1h1v1zM289 6799h-1v-1h1v1zM283 6799h-1v-1h1v1zM280 6799h-1v-1h1v1zM258 6800h-2v-2l2 2zM302 6798h-2v-1h2v1zM292 6800v-1l2 -2v1l-2 2zM290 6798h-1v-1h1v1zM267 6798h-1v-1h1v1zM264 6798h-2v-1h2v1zM306 6797h-1l1 -1h1l-1 1zM295 6797h-1v-1h1v1zM291 6797h-1v-1h1v1zM254 6797h-1v-1h1v1zM292 6796h-1v-1h1v1zM258 6796h-1v-1h1v1zM253 6796h-1v-1h1v1zM248 6797v-1l2 -1h1l-1 1l-2 1zM299 6795h-1v-1h1v1zM298 6796h-2v-2l2 2zM294 6795h-1v-1h1v1zM273 6795h-1v-1h1v1zM269 6795h-1v-1h1v1zM254 6795h-1v-1h1v1zM295 6794h-1v-1h1v1zM288 6794h-1v-1h1v1zM286 6794h-1v-1h1v1zM275 6794h-1v-1h1v1zM271 6794h-1v-1h1v1zM263 6794h-1v-1h1v1zM301 6793h-1v-1h1v1zM296 6793h-1v-1h1v1zM290 6793h-2v-1h2v1zM277 6793h-1v-1h1v1zM265 6793h-1v-1h1v1zM291 6792h-1v-1h1v1zM279 6792h-1v-1h1v1zM258 6794h-2v-2l2 -1v1v2zM250 6793h-2v-1l2 -1v1v1zM304 6791h-1v-1h1v1zM298 6791h-1v-1h1v1zM292 6791h-1v-1h1v1zM281 6791h-1v-1h1v1zM269 6791h-1v-1h1v1zM256 6792h-2h-1l1 -2l2 2zM249 6791h-1v-1h1v1zM303 6790h-1v-1h1v1zM300 6790h-1v-1h1v1zM294 6790h-1v-1h1v1zM288 6790h-1v-1h1v1zM283 6790h-1v-1h1v1zM271 6790h-1v-1h1v1zM262 6790h-1v-1h1v1zM254 6790h-1v-1h1v1zM301 6789h-1v-1h1v1zM295 6789h-1v-1h1v1zM284 6789h-1v-1h1v1zM281 6789h-1v-1h1v1zM273 6789h-1v-1h1v1zM246 6789h-1v-1h1v1zM306 6788h-1v-1h1v1zM302 6788h-1v-1h1v1zM296 6788h-1v-1h1v1zM275 6788h-1v-1h1v1zM263 6788h-1v-1h1v1zM258 6788h-1v-1h1v1zM250 6789l-2 -1v-1h2l1 1l-1 1zM307 6787h-1v-1h1v1zM288 6787h-1v-1h1v1zM281 6787h-1v-1h1v1zM276 6787h-1l1 -1h1l-1 1zM266 6787h-1v-1h1v1zM283 6786h-1v-1h1v1zM279 6786h-1v-1h1v1zM268 6786h-1v-1h1v1zM257 6787l-1 -1v-1l1 1v1zM250 6787v-1l2 -1v1l-2 1zM280 6785h-1v-1h1v1zM265 6785h-1v-1h1v1zM263 6785h-1v-1h1v1zM258 6785h-1v-1h1v1zM247 6785h-1v-1h1v1zM305 6784h-1v-1h1v1zM246 6784h-1v-1h1v1zM300 6783h-3l1 -1h2v1zM284 6783h-1v-1h1v1zM273 6783h-1v-1h1v1zM269 6783h-1v-1h1v1zM265 6783h-1v-1h1v1zM287 6782h-1v-1h1v1zM270 6782h-1v-1h1v1zM266 6782h-1v-1h1v1zM261 6782h-1v-1h1v1zM251 6782h-1v-1h1v1zM248 6782v-1h1v1h-1zM278 6781h-1v-1h1v1zM272 6781h-2v-1h2v1zM249 6780h1l-1 1v-1zM308 6783h-1v-4l1 1v2h1l-1 1zM299 6780h-1v-1h1v1zM292 6780h-1l1 -1h1l-1 1zM280 6780h-1v-1h1v1zM263 6780h-1v-1h1v1zM251 6780h-1v-1h1v1zM297 6779h-1v-1h1v1zM282 6779h-2v-1h2v1zM264 6779h-1v-1h1v1zM245 6779h-1v-1h1v1zM308 6778h-1v-1h1v1zM274 6779l-1 -1l1 -1l1 1l-1 1zM270 6780h-2v-2l2 -1l1 1h-1v2zM265 6778h-1v-1h1v1zM254 6778h-1v-1h1v1zM251 6778h-1v-1h1v1zM307 6777h-1v-1h1v1zM304 6777h-1v-1h1v1zM272 6777h-1v-1h1v1zM300 6776h-1l1 -1h1l-1 1zM277 6776h-1v-1h1v1zM256 6776h-1v-1h1v1zM254 6776h-1v-1h1v1zM278 6775h-1v-1h1v1zM274 6776h-2l2 -2v2zM266 6777l-1 -1l3 -2h1l-3 3zM250 6775h-1v-1h1v1zM306 6775h-3v-1l1 -1v1h2v1zM297 6774h-1v-1h1v1zM291 6775h-1l-1 -1l1 -1l1 1v1zM279 6774h-1v-1h1v1zM270 6774h-1v-1h1v1zM251 6774h-1v-1h1v1zM302 6773h-1v-1h1v1zM294 6774l-1 -1v-1h1v2zM276 6774h-2l2 -2h1l-1 2zM278 6772h-1v-1h1v1zM272 6773l-1 -1v-1l1 1v1zM283 6771h-1v-1h1v1zM273 6771h-1v-1h1v1zM253 6771h-1v-1h1v1zM280 6770h-1v-1h1v1zM275 6770h-1v-1h1v1zM276 6769h-1v-1h1v1zM287 6768h-1v-1h1v1zM277 6768h-1v-1h1v1zM271 6768h-1v-1h1v1zM267 6768l1 -1v1h-1zM258 6769l-1 -1v-1l1 1v1zM278 6767h-1v-1h1v1zM262 6767h-1v-1h1v1zM280 6766h-1v-1h1v1zM261 6766h-1v-1h1v1zM286 6765h-2v-1h2v1zM271 6766h-1h-1l1 -2h4v1l-3 1zM266 6765h-1v-1h1v1zM262 6765h-1v-1h1v1zM256 6765h-1v-1h1v1zM282 6764h-2v-1h2v1zM276 6764h-1v-1h1v1zM267 6764h-1v-1h1v1zM257 6764h-1v-1h1v1zM310 6745h-1v-1h1v1zM311 6744h-1v-1h1v1zM318 6741h-1v-1h1v1zM316 6741h-1v-1h1v1zM317 6739h-1v-1h1v1zM310 6740v-1l2 -1l-2 2zM309 6739h-1v-1h1v1zM315 6738h-1v-1h1v1zM313 6738l-1 -1v-1h1v2zM315 6736h-1v-1h1v1zM318 6736h-2l-1 -2h1l2 2zM312 6736l-1 -1v-1h1v2zM318 6734h-1v-1h1v1zM310 6734h-1v-1h1v1zM320 6733h-1v-1h1v1zM317 6733h-1v-1h1v1zM312 6733l-1 -1l1 -1h1v1l-1 1zM314 6731h-1v-1h1v1zM315 6730h-1v-1h1v1zM314 6721h-1v-1h1v1zM316 6719h-1v-1h1v1zM312 6719h-1v-1h1v1zM313 6718h-1v-1h1v1zM319 6716h-1v-1h1v1zM320 6715l-1 -1l1 -2h1v2l-1 1zM323 6712l-1 -1v-1h1v2zM316 6710v1l-1 -1h1zM316 6710v-1h2v1h-2zM310 6710h-1v-1h1v1zM318 6708h1l-1 1v-1zM325 6709h-1l-1 -1l1 -1l1 1v1zM321 6707l-1 1v-1h1zM326 6707h-1v-1h1v1zM320 6707l-1 -1h1v1zM318 6706v-1l1 1h-1zM312 6704h-1v-1h1v1zM313 6703h-1v-1h1v1zM326 6701h-1v-1h1v1zM279 6763h-1v-1h1v1zM268 6763h-1v-1h1v1zM275 6762h-1v-1h1v1zM283 6761h-1v-1h1v1zM278 6762l-2 -1h-1l1 -1h2v2zM259 6761h-1v-1h1v1zM281 6760h-1v-1h1v1zM266 6760h-1v-1h1v1zM260 6760h-1v-1h1v1zM292 6759h-1v-1h1v1zM278 6759h-1v-1h1v1zM293 6758h-1v-1h1v1zM287 6758h-1v-1h1v1zM279 6758h-1v-1h1v1zM294 6757h-1v-1h1v1zM288 6757h-1v-1h1v1zM282 6759l-3 -3h1l2 1l1 1l-1 1zM289 6756h-1v-1h1v1zM282 6756h-1v-1h1v1zM270 6755h-1v-1h1v1zM292 6754h-1v-1h1v1zM276 6753h-1l1 -1h1l-1 1zM295 6752h-1v-1h1v1zM302 6751h-1v-1h1v1zM303 6750h-1v-1h1v1zM297 6750h-1v-1h1v1zM304 6749h-1v-1h1v1zM294 6750l-1 -1v-1h1v2zM300 6748h-1l1 -1h1l-1 1zM293 6748h-1v-1h1v1zM307 6747h-1v-1h1v1zM303 6747h-1v-1h1v1zM292 6747h-1v-1h1v1zM308 6746h-1v-1h1v1zM305 6746h-1v-1h1v1zM307 6745h-1v-1h1v1zM300 6745h-1v-1h1v1zM296 6745h-1v-1h1v1zM300 6743h-1v-1h1v1zM281 6742h-1v-1h1v1zM308 6742l-1 -1l1 -1h1l-1 2zM272 6742l-1 -1v-1h1v2zM274 6740h-1v-1h1v1zM300 6739h-1v-1h1v1zM285 6738h-1v-1h1v1zM275 6739l-1 -1v-1l1 1v1zM306 6737h-1v-1h1v1zM276 6737h-1v-1h1v1zM286 6736h-1v-1h1v1zM283 6737l-1 -1v-1l1 1v1zM308 6735h-1l1 -1h1l-1 1zM274 6735l-2 -1h-1l1 -1h2l1 1l-1 1zM290 6733h-1v-1h1v1zM286 6733h-1v-1h1v1zM297 6731h-1v-1h1v1zM275 6732h-4l1 -1l1 -1h2v2zM290 6730h-1v-1h1v1zM286 6731l-1 -1l1 -1l1 1l-1 1zM291 6729h-1v-1h1v1zM288 6729h-1v-1h1v1zM284 6729h-1v-1h1v1zM277 6730h-1h-1v-2h1l1 2zM272 6729h-1v-1h1v1zM293 6728h-1v-1h1v1zM290 6728h-2v-1h2v1zM285 6728h-1v-1h1v1zM278 6728h-1v-1h1v1zM252 6727h-1v-1h1v1zM279 6725h1v1h-1v-1zM276 6726v-1h2v1h-2zM294 6725h-2v-1h2v1zM290 6725h-1v-1h1v1zM278 6725v-1l1 1h-1zM291 6724h-1v-1h1v1zM284 6725h-2v-1l2 -1l1 1l-1 1zM266 6724h-1v-1h1v1zM296 6724h-2l2 -2v2zM293 6723h-1v-1h1v1zM290 6723h-1v-1h1v1zM280 6724h-1l1 -2h2l-2 2zM294 6722h-1v-1h1v1zM286 6727v-1v-4l2 -1v1l-1 2l1 2l-2 1zM285 6722h-1v-1h1v1zM252 6722h-1v-1h1v1zM296 6721h-1v-1h1v1zM284 6721h-2v-1h2v1zM265 6721h-1v-1h1v1zM299 6722h-1h-1l1 -2v-1l1 1v2zM297 6720h-1v-1h1v1zM290 6719l1 1h-1v-1zM290 6720v1h-2l1 -2v1h1zM285 6720h-1v-1h1v1zM267 6720h-1v-1h1v1zM296 6719h-1v-1h1v1zM293 6719h-1v-1h1v1zM289 6719v-1h1v1h-1zM286 6719h-1v-1h1v1zM284 6719h-1v-1h1v1zM269 6719h-1v-1h1v1zM300 6717v1l-1 -1h1zM294 6718h-1v-1h1v1zM283 6718h-1v-1h1v1zM273 6718h-1v-1h1v1zM270 6718h-1v-1h1v1zM255 6718h-1l1 -1v1zM249 6718h-1v-1h1v1zM300 6716h1l-1 1v-1zM299 6717h-1v-1h1v1zM290 6717h-1v-1h1v1zM288 6718h-2v-2l2 2zM285 6717h-1v-1h1v1zM271 6717h-1v-1h1v1zM254 6717h-1v-1h1v1zM251 6717h-1v-1h1v1zM299 6716l1 -1v1h-1zM297 6716h-1v-1h1v1zM305 6715h-1v-1h1v1zM301 6715h-1v-1h1v1zM293 6715h-1v-1h1v1zM292 6716h-2v-2l2 2zM277 6715h-1v-1h1v1zM274 6715h-1v-1h1v1zM267 6715h-1v-1h1v1zM294 6714h-1l1 -1h1l-1 1zM288 6716h-1v-3l1 1v2zM286 6714h-1v-1h1v1zM275 6714h-1v-1h1v1zM269 6714h-1v-1h1v1zM255 6714h-1v-1h1v1zM296 6713h-1v-1h1v1zM292 6713h-1v-1h1v1zM277 6713h-1v-1h1v1zM270 6713h-1v-1h1v1zM256 6713h-1v-1h1v1zM308 6713h-1v-2l2 1h-1v1zM285 6713l-1 -1v-1l1 1v1zM271 6712h-1v-1h1v1zM306 6711h-1v-1h1v1zM298 6712h-2l2 -2h1l-1 2zM287 6711h-1v-1h1v1zM279 6711h-1v-1h1v1zM272 6711h-1v-1h1v1zM300 6710h-1v-1h1v1zM293 6711l-1 -1v-1l1 1v1zM286 6710h-1v-1h1v1zM282 6710h-1v-1h1v1zM280 6710h-1v-1h1v1zM274 6710h-1v-1h1v1zM288 6709h-1v-1h1v1zM284 6709h-1v-1h1v1zM275 6709h-1v-1h1v1zM272 6709h-1v-1h1v1zM270 6710l-1 -1v-1h1v2zM302 6709h-2v-1l2 -1l1 1l-1 1zM285 6708h-1v-1h1v1zM304 6707h-1v-1h1v1zM274 6707h-2v-1h2v1zM269 6707h-1v-1h1v1zM306 6706h-2v-1h2v1zM295 6707l-1 -1v-1l1 1v1zM289 6706h-1v-1h1v1zM287 6708h-1v-3l1 1v2zM285 6706h-1v-1h1v1zM275 6706h-1v-1h1v1zM270 6706h-1v-1h1v1zM307 6705h-1v-1h1v1zM296 6705h-1v-1h1v1zM271 6705h-1v-1h1v1zM276 6704h-1l1 -1h1l-1 1zM298 6704h-2l2 -2h1l-1 2zM294 6703h-1v-1h1v1zM284 6703h-1v-1h1v1zM282 6703h-1v-1h1v1zM260 6703h-1v-1h1v1zM300 6702h-1v-1h1v1zM295 6701l-1 1v-1h1zM291 6701l1 1h-1v-1zM291 6702l-1 1h-1l1 -2v1h1zM285 6702h-1v-1h1v1zM274 6702h-2v-1h2v1zM306 6701h-1v-1h1v1zM295 6701v-1h1v1h-1zM290 6701v-1l1 1h-1zM281 6701h-1v-1h1v1zM279 6701h-1v-1h1v1zM277 6701h-1v-1h1v1zM302 6700h-1l1 -1h1l-1 1zM296 6699l1 1h-1v-1zM285 6700h-1v-1h1v1zM282 6700h-1v-1h1v1zM280 6700h-1v-1h1v1zM326 6699h-1v-1h1v1zM326 6696h-1l1 -1h1l-1 1zM316 6698v-2l2 -1l1 1l-2 2h-1zM309 6696h-1v-1h1v1zM324 6695h-4v-1h5l-1 1zM314 6695h-2v-1h2v1zM310 6695h-1v-1h1v1zM317 6693h-1v-1h1v1zM315 6692h-1v-1h1v1zM313 6692h-1v-1h1v1zM319 6691h-1v-1h1v1zM316 6691h-1v-1h1v1zM320 6689h-1l1 -1h1l-1 1zM318 6689h-1v-1h1v1zM314 6689h-1v-1h1v1zM310 6689h-1v-1h1v1zM315 6688h-1v-1h1v1zM312 6688h-1v-1h1v1zM322 6687h-1v-1h1v1zM320 6687h-1v-1h1v1zM314 6687h-1v-1h1v1zM309 6687h-1v-1h1v1zM321 6686h-1v-1h1v1zM317 6687l-1 -1v-1l1 1v1zM310 6686h-1v-1h1v1zM316 6685h-2v-1h2v1zM311 6684l-1 1v-1h1zM323 6686h-1v-3l1 1v2zM311 6683h1l1 1h-1h-1v-1zM310 6684h-1l1 -1v1zM315 6683h-1v-1h1v1zM310 6683v-1l1 1h-1zM321 6683l-1 -1v-1l1 1v1zM316 6684v-2v-1l2 1l-2 2zM310 6681h-1v-1h1v1zM320 6680h-1v-1h1v1zM314 6680h-1v-1h1v1zM321 6679h-1v-1h1v1zM318 6679h-1v-1h1v1zM312 6679h-1v-1h1v1zM309 6679h-1v-1h1v1zM310 6678h-1l1 -1h1l-1 1zM316 6678h-2l2 -2v2zM312 6677h-1l1 -1h1l-1 1zM309 6660h-1v-1h1v1zM311 6659h-1v-1h1v1zM315 6656h-1v-1h1v1zM316 6655h-1v-1h1v1zM312 6654v1l-1 -1h1zM310 6654v2l-2 1v-1l1 -2h1zM318 6654h-1v-1h1v1zM319 6652h-1v-1h1v1zM317 6650h-1v-1h1v1zM309 6649h-1v-1h1v1zM319 6649l-1 -1v-1l1 1v1zM314 6646h-1v-1h1v1zM319 6645h-1v-1h1v1zM318 6643h-2v-1h2v1zM321 6642h-1v-1h1v1zM320 6641h-1v-1h1v1zM317 6640h-1v-1h1v1zM314 6640h-2v-1h2v1zM304 6699h-1v-1h1v1zM295 6699v-1h1v1h-1zM293 6699h-1v-1h1v1zM288 6699h-1v-1h1v1zM286 6699h-1v-1h1v1zM283 6699h-1v-1h1v1zM275 6700h-1h-1l1 -2h1v2zM298 6699l-1 -1v-1l1 1v1zM294 6698h-1v-1h1v1zM284 6698h-1v-1h1v1zM277 6698h-1v-1h1v1zM285 6697h-1v-1h1v1zM280 6697h-1v-1h1v1zM293 6696h-1v-1h1v1zM287 6696h-1v-1h1v1zM278 6696h-1v-1h1v1zM286 6695h-1v-1h1v1zM284 6695h-1v-1h1v1zM296 6694h-1v-1h1v1zM279 6695l-1 -1v-1l1 1v1zM292 6693h-1v-1h1v1zM289 6693h-1v-1h1v1zM286 6693h-1v-1h1v1zM281 6693h-1v-1h1v1zM274 6693h-1v-1h1v1zM310 6692h-3l1 -1l4 -2v1l-2 2zM306 6694h-1v-3l1 1v2zM300 6692h-1v-1h1v1zM290 6692h-1v-1h1v1zM275 6692h-1v-1h1v1zM307 6691h-1v-1h1v1zM301 6691h-1v-1h1v1zM294 6691h-1v-1h1v1zM292 6691h-1v-1h1v1zM288 6692l-1 -1v-1h1v2zM276 6691h-1v-1h1v1zM296 6689v1l-1 -1h1zM293 6690h-1v-1h1v1zM290 6690h-1v-1h1v1zM304 6690l-1 -1l1 -1h1l-1 2zM296 6689v-1h2v1h-2zM295 6689h-1v-1h1v1zM292 6689h-2v-1h2v1zM277 6689h-1v-1h1v1zM306 6688h-1v-1h1v1zM298 6687l1 1h-1v-1zM295 6688v-1h1v1h-1zM294 6688h-1l1 -1v1zM278 6688h-1v-1h1v1zM301 6687h-1v-1h1v1zM297 6686h1v1l-1 -1zM294 6687v-1h1v1h-1zM279 6687h-1v-1h1v1zM307 6686h-1v-1h1v1zM302 6686h-1v-1h1v1zM277 6686h-1v-1h1v1zM289 6685h-1v-1h1v1zM280 6685h-1v-1h1v1zM303 6684h-1v-1h1v1zM295 6686l1 -2l4 -1v1l-2 1l-1 1h-2zM281 6684h-1v-1h1v1zM305 6683h-1v-1h1v1zM302 6683h-2v-1h2v1zM287 6684l-1 -1v-1h1v2zM307 6682h-1v-1h1v1zM291 6682h-1v-1h1v1zM282 6682h-1v-1h1v1zM308 6681h-1v-1h1v1zM305 6681h-1v-1h1v1zM289 6682l-1 -1v-1h1v2zM283 6681h-1v-1h1v1zM307 6680h-1v-1h1v1zM290 6680h-1v-1h1v1zM284 6679h-1v-1h1v1zM291 6678h-1v-1h1v1zM280 6678h-1v-1h1v1zM281 6677h-1v-1h1v1zM279 6677h-1v-1h1v1zM294 6674h-1v-1h1v1zM295 6673h-1v-1h1v1zM288 6673h-1v-1h1v1zM286 6673h-1v-1h1v1zM283 6671h-1v-1h1v1zM296 6671l-1 -1v-1l1 1v1zM298 6669l-1 -1v-1l1 1v1zM288 6668h-1v-1h1v1zM299 6667h-1v-1h1v1zM289 6667h-1v-1h1v1zM285 6667h-1v-1h1v1zM293 6666h-1v-1h1v1zM283 6666h-1v-1h1v1zM301 6665l-1 -1v-1l1 1v1zM294 6664h-1v-1h1v1zM292 6664h-1v-1h1v1zM290 6666l-2 -2l2 -1l1 1l-1 2zM306 6663h-1v-1h1v1zM297 6663h-1v-1h1v1zM288 6663h-1v-1h1v1zM286 6663h-1v-1h1v1zM307 6662h-1v-1h1v1zM303 6662h-1v-1h1v1zM298 6662h-1v-1h1v1zM291 6662h-1v-1h1v1zM289 6662h-1v-1h1v1zM304 6661h-1v-1h1v1zM301 6661h-1v-1h1v1zM306 6660h-2v-1h2v1zM301 6659h-1v-1h1v1zM292 6659h-1v-1h1v1zM287 6659h-1v-1h1v1zM305 6658h-1v-1h1v1zM303 6657h-1v-1h1v1zM308 6658h-2l-1 -2l1 -1l2 3zM305 6655h-1v-1h1v1zM296 6653h-1v-1h1v1zM292 6653h-1v-1h1v1zM293 6652h-1v-1h1v1zM300 6650l-1 -2h1h1v2h-1zM298 6649h-1v-1h1v1zM296 6648h-1v-1h1v1zM297 6647h-1v-1h1v1zM301 6646h-1v-1h1v1zM298 6648v-1l-1 -1l1 -1l2 1l-2 2zM293 6646h-1v-1h1v1zM306 6645h-1v-1h1v1zM304 6646h-1v-2h1l1 2h-1zM299 6644h-1v-1h1v1zM308 6643h-1v-1h1v1zM302 6643h-1v-1h1v1zM300 6643l-1 -1v-1l1 1v1zM298 6642h-1v-1h1v1zM296 6642h-2v-1h2v1zM299 6641h-1v-1h1v1zM302 6639v1l-1 -1h1zM298 6640h-1v-1h1v1zM305 6639h-1v-1h1v1zM302 6638h1l-1 1v-1zM301 6639h-1v-1h1v1zM308 6638h-1v-1h1v1zM304 6638h-1v-1h1v1zM301 6638l1 -1v1h-1zM297 6638h-1v-1h1v1zM293 6638h-1v-1h1v1zM301 6637h-1v-1h1v1zM304 6636h-1v-1h1v1zM302 6636h-1v-1h1v1zM298 6636h-1v-1h1v1zM295 6637l-1 -1v-1l1 1v1zM316 6630h-1v-1h1v1zM314 6629h-1v-1h1v1zM315 6628h-1v-1h1v1zM311 6627v-1h2l-1 1h-1zM318 6627l-1 -1v-1l1 1v1zM319 6625h-1v-1h1v1zM323 6623h-1v-1h1v1zM321 6623h-1v-1h1v1zM321 6621h-1v-1h1v1zM313 6622h-1v-2h1v2zM322 6620h-1v-1h1v1zM314 6620h-1l1 -2h2l-2 2zM310 6620l2 -2v2h-2zM309 6619h-1v-1h1v1zM324 6618h-1v-1h1v1zM312 6618v-1h1v1h-1zM325 6617h-1v-1h1v1zM323 6615h-1v-1h1v1zM313 6615h-1v-1h1v1zM320 6614h-2v-1h3l-1 1zM314 6614h-1v-1h1v1zM311 6614h-1v-1h1v1zM322 6613h-1v-1h1v1zM318 6613h-1v-1h1v1zM316 6613h-1v-1h1v1zM320 6612h-1v-1h1v1zM313 6612h-1v-1h1v1zM324 6610h-1v-1h1v1zM322 6611l-1 -1v-1l1 1v1zM318 6610h-1v-1h1v1zM326 6608h-1v-1h1v1zM303 6635h-1v-1h1v1zM297 6635h-1v-1h1v1zM300 6635h-2v-1v-1l2 1v1zM303 6632h-1v-1h1v1zM296 6634l-2 -2l2 -1l1 1l-1 2zM305 6630h-1v-1h1v1zM304 6628h-1l1 -1h1l-1 1zM301 6628h-1v-1h1v1zM304 6625h-1v-1h1v1zM306 6622h-1v-1h1v1zM303 6620h-1v-1h1v1zM308 6616h-1v-1h1v1zM428 6516h-1v-1h1v1zM360 6476h-1v-5h3v1l1 2l-3 2zM286 6450h-2v-1h2v1zM243 6788h-1v-1h1v1zM241 6787h-1v-1h1v1zM243 6786h-1v-1h1v1zM244 6785h-1l1 -1h1l-1 1z"/></svg>