<svg xmlns="http://www.w3.org/2000/svg" viewBox="-562 8446 1252 1013"><g class="s" data-r fill="#000" fill-rule="evenodd"><path class="chunk" data-i="0" d="M-97 9096h-12l1 -1l2 -1h2v2h3l-1 -1h-1l1 -1h2v2h1v-2h1v1h3l-1 1h-1zM-396 8818l-2 2h-8v1l-2 -1h-2v1l-2 -1h-2h-1l3 -3v1l14 -1l2 1zM86 8784h-4l-1 -2v-1h3v1h-1l1 1l2 -1v2zM48 8785h-6v-1v-1l2 1h2l2 -1v1v1zM40 8784h-4v-3l6 -1h1l-1 2h-4v1h3l-1 1zM-232 8737l-3 1l1 -1l1 -1h-1v-1h2v1h1v-2h1v1l1 -1v-1l5 -1l1 2l-1 1l-3 1l-5 1zM-231 8732l-4 1v-2l2 -1h2l1 -1l2 -1v1l1 -1l1 -2h2l2 -2h3v2l-1 1l-2 1l-9 4zM-232 8732v-1h-1v1h1zM-333 8697l2 -1h2l1 -1l2 -1l1 2h-1l-2 1l-6 2l-6 1v-1l5 -1h1h1v-1z"/><path class="chunk" data-i="1" d="M-335 8697v-2h-1l-1 -1h1h2v2h1v1h-2zM-340 8699h-2l-1 -5l1 -2h1v2h-1l1 2v2h1v1zM-337 8689v-1h-1v1h1zM-337 8691h-1v-1h-1v2h-2l-1 -1h-1l1 -1h2l1 -2l1 -2h1v2l1 1l2 -2h2l1 1h-1v3l-1 -1v-1l-1 1l-1 1l-2 -1v1zM-330 8630h-2l1 -2v-1h1v1l1 -1h1v2l-2 1zM-322 8631h-2v-1l2 -3h2v-1h-1l1 -1l2 1v-1l2 1l-1 2v1l-1 -1v-1l-1 1l-3 3zM-320 8629v-1h-1v1h1zM-330 8627v-2l2 -2l1 1v1h-1v1h-1v1h-1zM-360 8686l-2 -1v1h-2v-2h1l-1 -2v-1l2 1v-1h2v-1h1v2h-1v1h2v1l-2 2zM-354 8687l1 -4l-1 -5l-2 -1l-2 -1v-1h2l3 3l1 8l-2 1z"/><path class="chunk" data-i="2" d="M-368 8678l-2 -1v1h-1v-2l4 -1h2v-1v-1l1 1v1l6 -1l-2 2h-6l-1 2l-1 -1v1zM-360 8671v-1l1 -2l1 -2h2l-1 2h1h1l-1 1h-2l-2 2zM-356 8666v-3h2l2 -2v1l-1 2h1v1h-2l-2 1zM-351 8650h-1v-2h-2v-1l5 -1v1h-1v1h-1v2zM-347 8648v-1h-1v1h1zM-346 8649v-1h-1v1h1zM-347 8652v-1h-1v1h1zM-346 8653l-2 1v-2l-2 -2v-2h1v-1l1 -1h-1v-1h1l3 3l1 1v-1l4 -1h1l-1 1l-2 2v2l-3 1l-1 -1v1zM-338 8644v2l-6 1l-1 -1l3 -2v-2l2 1l2 -2v1v1l-1 1h1zM-340 8645v-1h-1v1h1zM-333 8642l-3 -1h-1l1 -1h2v-2h1v4zM-333 8632v2l-7 -1h-3v-4l1 1v2l2 -1l1 1l1 1v-1h2l2 1l1 -1z"/><path class="chunk" data-i="3" d="M-337 8628h1v2l-2 1v-1v-1l1 -1zM-358 8631h-2v1l-2 -2l2 -2h1l-1 2h2v1zM-338 8629h-1v-1l1 -1h1v1h-1v1zM-331 8627h-1v1h-1l-1 -2h2v-1h1v2zM-359 8625v-1h-3v-1h2l2 -2l1 1v2h-1v1h-1zM-340 8625l-2 -1v-2h1l-1 -1v-1h2h1l-1 2l3 2l-1 1h-1l-1 -1v1zM-323 8620v-1h-1v1h1zM-320 8622v-1h-1v1h1zM-325 8625l1 -1l1 -2l-1 -1l-2 2v-1v-1l2 -3l2 -1v2h2v-1l2 1l1 1l-3 2v1h2v1h-4l-2 2h-1v-1zM-315 8626h-1v-2h-1l1 -2l1 -4l-3 -2l-4 1l-2 -1h-1l1 2l-4 1l-2 2v-1l-1 -2h1l2 -1v1h1v-2l1 -1l5 -1l1 1v-1h1l-1 -1v-1v-1l2 1h1l-1 2h2l2 2v1l2 3v2l-2 2h2l1 2h-1h-1l-2 -1v1z"/><path class="chunk" data-i="4" d="M-326 8615l-1 -1l1 -2h-2v-1h3v1l1 2h-2v1zM-268 8617h-2l-1 -1l-3 -11v-6l1 1v2h2v4h-1v1h2v1h-1l1 2h-1v2h1v-1l1 1l-1 2h2v3zM-274 8599l-1 -1v-2h-1v-1h3l-1 2v1v1zM-328 8599h-4v-1h1l1 -4l2 2v1h-2v1h2v1zM-329 8593h-1l-1 -1l1 -1l6 -1v1h-2l-3 2zM-337 8610v-1h1l2 -2v1h1v1h-1l-1 1h-2zM-307 8566h-8l-13 -4l-5 -2h-2l-1 -1l-2 -1l2 -2h1h7l6 2h4l2 1v-1h2h2l4 1l3 1l1 4l-2 2h-1zM-318 8522l-4 -1l-4 -5l1 -4h1l2 -1v1h6v2l1 6l-1 1l-2 1z"/><path class="chunk" data-i="5" d="M-338 8521h-3v-2l-1 -5l2 -2v1h2l2 1v4l-2 3zM-268 8591l-4 1l-2 2v-1l-2 1l-14 2l-2 -1v1l-2 -1h-1h-6h-2l-5 -1v-1l-2 1v-1l-4 -1l-4 -1l-10 -3l-4 -1l-2 -2l-2 -1l-12 -9l-5 -5l-5 -7l-2 -5l-1 -4l-2 -2l-3 -19v-25l4 -4v-2l2 -2v-2l2 -2v-2l8 -8v-2h2l12 -7l4 -3h3l3 -1l20 -3h12h2v2h4v-1l2 1l3 1h2l3 1l2 1v-1l6 2h2l2 1l2 1v2h2l4 4l4 1l2 3l1 4h1l7 6l6 9h1l2 1l1 4v2l2 2l1 2l2 5l2 5l1 2l2 7v5v2l-3 2l-2 -1l-5 -5l-2 -4h-1l2 14v2l1 2h-1h-1l1 2l1 3v1l1 2l-2 1l-4 -3l-2 2l-2 -1l-2 -1l-3 14l-1 1h-2v1l-8 8h-1v2l-1 1l-2 1l-4 2l-2 1zM-292 8479l1 -1h-3v1h2zM-288 8480l1 -1h-3v1h2zM-286 8481v-1h-1v1h1zM-281 8483v-1h-1v1h1zM-260 8491l1 -1v-1h-1l-1 1l1 1zM-269 8507l-1 -1l-3 -2v-2l-13 -10l-3 -1l-6 -3h-3v-1l-2 1v-1l-6 -1l-2 -1v1h-2l-2 -2h-13l-4 1l-2 1h-1l-2 1v-1h-2l-2 -1v1h-2l-7 4v2l-3 2l-7 6l-2 5l-1 3l1 2h-1v26h1l-1 2l1 2h-1v1h2v1l-2 2h1l1 3v2l1 3h1l-1 2h1h1l-1 2v1h2v1h-1l1 2h2v3h2l2 3v1l2 -1l2 2v2h2l1 2v2l4 1l3 1l4 5l2 1h2l10 4l7 1l32 -1h2l3 -2l2 -1l4 -2l2 -1l8 -8l1 -8v-11l-1 -7l-1 -2h1l-2 -9h-2v-1h1l-1 -1h-1v-3h2l-1 -4l-1 -4l-1 -2l-1 -2h1v-1h-2v-2l-3 -5l-2 -2h1l-1 -1zM-267 8495v-1h-1v1h1zM-262 8502l2 -2l-2 -3l-4 -2l-1 1l4 4l1 2zM-245 8501v-1h-1v1h1zM-240 8511v-1h-1v1h1zM-239 8513v-1l-1 -1v1l1 1zM-236 8516v-2l-2 -1l-1 1l3 2zM-253 8515v-1h-1v1h1zM-252 8517v-1l-1 -1v1l1 1zM-235 8518v-2h-1v1l1 1zM-251 8518v-1h-1v1h1zM-225 8542l-1 -5v-4l-2 -5l-4 -7l-1 -1l-1 -2h-1v4h-1l-2 1v-1h-2l1 6l1 2h2l5 8l1 2l2 2h3zM-240 8522v-1h-1v1h1zM-242 8529v-1h-1v1h1zM-241 8530v-1h-1v1h1zM-236 8536v-1h-1v1h1zM-243 8550v-1h-1v1h1zM-242 8552h1v-2h-1h-1l1 2zM-237 8555v-1h-1v1h1zM-358 8556v-1h-1v1h1zM-236 8557v-1h-1v1h1zM-235 8559v-1h-1v1h1zM623 9088h-1h-1l1 -2v-1h2v1h-1v2zM607 8920v-1h1l2 1v1h-2v-1h-1zM475 8920l-4 1l1 -1h2l7 -3l2 -1h1l3 -2v-4h1v4l-2 3l-2 1h-2l-2 1l-5 1zM470 8904h-2v-2l2 1v-1h2l-2 2zM414 8898h-6v-1h7l-1 1zM360 8899h-10v-1h11l-1 1z"/><path class="chunk" data-i="6" d="M316 8896h-2l1 -2h-1l1 -2l1 -1l1 1v2h1v1l-2 1zM442 8848h-2l-2 -2v-1l2 1l2 2zM410 8873l-4 -1v-1h3v-2h4v3h-1v-1h-2v1v1zM422 8841l-2 -2h-2l-1 -1l1 -1h1l3 2h2v1l-2 1zM260 8806l-4 1v-1l6 -1h1l-1 1h-2zM233 8812l-3 1l-1 -1l1 -1h2v-1l2 1v-1h3l-1 1l-1 1h-2zM224 8789h-10v-1h4v-1l2 1l2 -1l2 1v1zM234 8787h-4v-1l-2 1v-1v-1h2l2 1v-1h2v2z"/><path class="chunk" data-i="7" d="M107 9310v-2l3 -1l2 -1v4l-3 -1v1h-2zM113 9304v-1l2 -1h2l5 1v-1l-2 -1h-1l1 -1l4 1l2 1v-2h2v1l2 -2l6 -1h1l-2 2l1 2h-2v-2h-1v2l-7 1l-2 2l-2 -1v2h-2v-1l-2 2l-2 -1h-1v-2h-1h-1zM132 9301v-1h-1v1h1zM128 9302v-1h-1v1h1zM117 9304v-1h-1v1h1zM109 9300h-1h-1l1 -2h2l3 -2h1h1l-1 2l-3 1l-2 1zM-242 9272h-2v-2l2 1l2 -2v1l-2 2zM-268 9282l-4 1l-2 1v-2h3l3 -2h2l-2 2z"/><path class="chunk" data-i="8" d="M-200 9175h-2l-1 -1h1v-2l2 1v-1l2 2l-2 1zM-252 9155l-4 -1h-1l1 -1l2 -1v1h2v2zM-244 9151v1l-4 1l-2 -1v-1l5 -1l1 1z"/><path class="chunk" data-i="9" d="M-202 9144h-6v-1h2v-1v-1l1 1v1h1l1 -1h-1v-1h2v3zM-346 9182v-1l2 -2l1 1h2v-2h1h1l-1 2h1l-1 1h-4l-2 1zM-333 8594v-1h-1v1h1zM-336 8600v-1h-1v1h1zM-350 8632v-1h-1v1h1zM-364 8646h1v-2h1l-1 -1l2 -1v-2l2 -2v-2h1v-1h-4v-1h2v-1l2 1l1 -2h1l-1 -1v-1h-1v-2l2 1l1 -2l1 1h1v-4h1v1l1 -1l1 -1l2 -6l1 -1l1 -2h-1l1 -1l1 -1h-1l-8 -1v1l-2 -1v1l-2 -1v1h-6l-13 4l1 4l1 4l3 9l2 4l2 7l1 2h1v2v1l2 -1v-2zM-264 8694v-2l7 -6v-2l1 -1l2 2h2v-3h-1l1 -2l-2 -20l-6 -23v-5l-2 -1l-6 -3h-2v-1l-2 1l1 8l-1 2h1l1 12h1l-1 2h1l3 38h1l-1 2l1 1l1 1zM-368 8698v-1h-1v1h1zM-310 8719v-1h-1v1h1zM-267 8780l-1 -4l-2 -9v-11v-2l6 -3l12 -3l1 -1h-1h-1v-3v-14l1 -1l14 -3l17 -6l3 -1l1 1v2l-7 1l-2 2l-2 1l-7 2l-1 1l-2 2l-8 1l-2 2v12l2 -1h1l3 -2h2l2 -2v1l2 -1l5 -1l8 -2l10 -4l1 -1l2 -1v-3l-2 -5l-2 -4l-2 -8l-4 -6l-1 -2l-1 -1h-2l-3 -1l-4 -1l-1 5l-2 3l-3 1l-7 -1v1l-4 5l-6 -1l-4 -3h-2l-2 1l1 36l-1 1l-2 -1l-2 -32v-1l-2 1v6l-1 2h1l1 3v2h-3v2h-2h-22l-1 1h1v6l2 9l12 28l1 1l1 2l11 2zM-200 8697l3 -3l-1 -8l-2 -2v1l-4 1l-1 2l-1 1v2l-1 4l4 -1v2h1v-1l2 1v1zM-250 8712l3 -2l1 -4l2 -2l2 2h7l1 -3v-3l-2 -2v-2l2 -2v-2l1 -2l-9 -1l-2 1v2h-2h-2h-2l-1 -2v-2l-3 1h-2l-3 3v4h-1l-2 -1v1v3v4l1 4h1l2 -1l2 2v-1l1 1v2l3 2h2zM-204 8714l1 -3l1 -4l2 -6l1 -3l-5 -1l-2 -1l-2 -1v1l-2 9l1 11v2l1 3h-2v1v1l2 -1l2 -2v-2l1 -2h-1l2 -2zM-265 8700v-2h-1v1l1 1zM-265 8703v-1h-1v1h1zM-265 8715v-1l1 -2v-2v-2v-2h-1l-1 8l1 1zM-208 8725v-1h-1v1h1zM-204 8784l3 -2h3l2 -2h1l3 -2l12 -9l3 -1v-2l1 -5l-3 -13l-3 -2v-3l-2 -5l-2 -4l-1 -3v-1l-3 -4l-4 1l-2 2l-5 3h-1l-2 2l-2 2l-2 -1v1l-5 1l-2 1h-2l-1 1l-3 3l9 23l3 12l1 4l1 1l1 2h2zM-220 8791v-1h4l2 -2h2v-2l-4 -20l-6 -20l-1 -2l-1 -2l-6 1l-6 1v3l8 20l4 13l2 10l2 1zM-251 8800l15 -4l2 -1v1l2 -2h2l2 -2h3v-2l-1 -5l-2 -7l-4 -13l-7 -19h-2l-7 4l-5 2l-12 2v2h-1l-2 2l1 8l1 4l2 6l3 13l3 7v2l2 1h1l4 1zM-199 8723v-1h-1v1h1zM-200 8724v-1h-1v1h1zM-419 8799v-1h-1v1h1zM-288 8780v-1h-1v1h1zM-285 8780v-1h-1v1h1zM-266 8781v-1h-1v1h1zM-226 8803h3v-1l-1 -2l-16 3v1l14 -1zM-181 8779v-1h-1v1h1zM78 9059v-1h-1v1h1zM82 9059l1 -1h-1l-1 1h1zM68 9060v-1h-1v1h1zM164 9042v-1h-1v1h1zM169 9042v-1h-1v1h1zM146 9044h1l-1 -2h-3v2h3zM155 9043v-1h-1v1h1zM158 9043v-1h-1v1h1zM134 9046v-1h-1v1h1zM140 9048v-1h-1v1h1zM134 9049v-1h-1v1h1zM164 9049v-1h-1v1h1zM-142 9099v-1h-1v1h1zM-144 9104l1 -1h-1l-1 1h1zM-148 9105v-1h-1v1h1zM-156 9106v-1h-1v1h1zM-166 9108v-1h-1v1h1zM-185 9109v-1h-1v1h1zM-196 9114v-1h-1v1h1zM-203 9115v-1h-1v1h1zM-138 9098l1 -1h-1l-1 1h1zM-118 9101v-1h-1v1h1zM-116 9101v-1h-1v1h1zM-114 9101v-1h-1v1h1zM-126 9102l1 -1h-3l-1 1h3zM232 9035v-1h-1v1h1zM227 9036v-1h-1v1h1zM248 9038l12 -4l1 -1h-1l-2 -1v1l-2 -1l-2 2v-1l-2 1h-2v-1l-1 1v1l-4 -1v2h-5v1l-1 -1l-1 -1v1v1l-9 1l-7 1v1l-2 -1v1h-5l-5 2h-6l-2 1v-1l-2 1l-4 1l-9 2h-1l-1 1h9v-1l2 1v-1l16 -2l2 1v-1l23 -4l6 -1l5 -1zM234 9037v-1h-1v1h1zM331 8899l-1 -3l-1 -2h1l-1 -2l-1 -6l-8 -8h-2l-6 -4v-2l-6 -6l-15 -8l-5 -3h-2l-2 -2l-4 -1l-2 -2l-2 -1l-40 -12l-12 -3l-2 -1v1l-2 -2h-2v-1l-2 1v-1l-8 -2v1l-2 -1l-2 1v-1l-38 -5v-1l-2 1v-1l-98 -8l-2 -1v1l-2 -1l-72 -5v-1l-2 1v-1h-60v2l-2 2l-85 -1l-35 -2l-2 -1v1l-12 -1v1l-2 -1v1l-2 -1h-38l-7 1l-5 1l-1 -2l1 -1l5 -1l8 -1l-1 -1l-6 -1l-2 -3v-1l-2 -3v-2l-2 -2l-1 -6l-1 -2h-2l-2 -2h-4l-2 -1v1v2l6 15l1 3l2 2v2h1l-1 2h1l-2 2l-1 3l-5 13l-4 10l-1 4h-2v2l-3 1l-3 -3l-1 -2h1v-2l3 -4v-1l9 -19v-2h-1v1l-2 1l-3 1l-83 -8v-1l-2 1v-1l-18 -3h-13v-3h2l5 -1v-1l2 1l8 1l80 10h16l4 -1v-1l2 2l4 1v-1h-1l-1 -2v-2l-2 -7l-6 -13v-2l-2 -1l-53 -4l1 -1l2 -1v1h4v-1l1 1v1h1l2 -2l1 1v1h1l1 -1h-1v-1h2v2l7 -1v2h3v-2l2 1v-1h2l13 1h1l2 -1v1h6l1 -1h-1v-2l-4 -8l-6 -14l-2 -10l-1 -2h1l-1 -2l1 -2h-1v-7l-4 -1l-31 -9l-5 -3h-2l-3 -1v-1h-1l-1 4h-2l-6 9l-3 5l-6 8l-9 13l-10 15l-4 4l32 2l2 1v-1v-1h4v1h-3l1 1h1v1l-1 2l-2 -1l-18 -1v1l-2 -1l-16 -1l-3 3l-3 5l-1 1l-1 2h-2l-1 4l-1 2l-2 2l-1 3l-2 7h-1l-2 2l1 4h-1l1 2h-1v2l-2 1l-3 -1h-2l-1 -4h-2v-2l-2 -2h-2l-5 -2l-7 -4v-2h-2l-2 -2v-2l-5 -4v-2l3 -3l2 -1l5 5v1h1v1l1 -1h1v3h2l2 2v-1h1v2h1v-1l2 1h2l3 2h2v-2h1l4 -4v-2l2 -2l2 -4l5 -6l2 -2l-1 -1l-26 -1l-2 -1v1l-2 -1l-52 -1l-2 2l-2 -2l1 -4h7v1l2 -1v1l80 3l6 -6l2 -4l10 -12l1 -2l7 -10l11 -17h1l9 -9l-1 -1h-2l-16 -7h-2l-2 -2l-4 -1l-4 -4h-3v-3l1 -1h2v-3l3 -7l1 -4l1 -1h-1l1 -2l1 -2h-1v-1h2v-1l1 -2h-1l1 -1h1l1 -3l4 -8l-2 -4l-2 -3l-8 -18l-4 -10l-1 -7l-2 -2h1l2 -5l7 -1l17 -3h14h3v1v1l1 -1v-1l2 -3v-2l2 -2v-2h2v-2l2 -2v-2h1v2v3l-1 5h-2l-1 5l-1 3h-1l1 1v1h-2v4l-2 2v1l-1 4h-1v1h-1l-1 4h-2v2l-1 4l-5 4v2l-2 3v1l-1 2h1l-1 2l-1 -1v1h-1v2l-1 2h1l-2 2l1 4v2h2v5l-1 3l-1 2l-2 -2v-1h-2l-2 -1v2h-1v1h-1l-1 3l-3 9l-1 3l-1 2h2v-1l1 1l1 1v-1l2 1l1 -1h2v2h-1v2h-2l1 -2h-1l-4 2l1 -2h-1h-1l-2 -1l-2 9l1 1l4 1l2 2l1 -2l1 -1l1 1v2l5 1l2 2l2 1l8 3l2 1h3h2l4 -1l-1 5h2l2 2l4 1l4 1l2 -1v1v1l4 1l8 2h2v-2h-1l1 -1h1v1l3 3l2 1h2l2 1v-1h-1l-1 -3v-2l-1 -3l1 -1l2 1h1l1 2l1 4l1 2l2 3l8 1l2 2h6v-1l2 1v-1l6 -1h1l-1 -2v-1v-3v-4l1 -5l-6 -84l-5 -1l-2 -2h-2l-1 -2l-1 -4l2 -2l3 1l5 3h2l2 -1l2 3l7 2l8 3v1l1 2h-1l1 2l4 22l1 7l1 23l2 1h2l2 1v-1l6 1l5 2l1 1l2 1v2h1l-1 2v1l-1 2v3v2l6 -1v1l1 1v-1h1v2h1v-1l4 3l2 4l2 3l1 -1l2 -13l1 -4l2 -5v-2l1 -2l1 -1l3 -1h2h3h2l1 4l1 8l1 2h-1l-2 10h-1l1 2h-1l-1 4l-1 2h1l2 2l-4 1v1l-1 2h1h2v2l2 -1l2 -1l2 -1v1l6 1l2 1l2 4l2 2v4l1 3l1 5l2 2l3 4l3 13v3v5v3l-2 2l-4 2l-2 1l-1 1l1 2h1v-2h4l3 -2h3h19l17 2l81 -1l9 -1l1 5v2h-72v-1l-2 1v-1l-33 -1v-1l-1 -2l-19 1l-15 3v-1l-4 3h-1l-5 3l-2 2l-2 1l-7 2l-3 1l-2 2h-2l-4 3l-4 1l-1 1v4l4 1l21 2l2 -1h2v1l2 -1h21l11 1l18 1v1l2 -1v1h2l2 -1v1h14l2 -1v1h2v-1l2 1l1 -1h2l1 1l2 -1v1h2l2 -1v1l14 -3h42v1l2 -1h2l2 1v-1h4l2 1v-1h22v1l2 -1v1l88 6l2 1v-1l2 1l26 1v1l2 -1v1l2 -1v1l34 2v1l2 -1v1l36 4v-1l2 2h6l2 1v-1l22 4l52 14l10 4l20 11l10 6l13 11l3 3l10 9l1 8l1 1h3l-1 1h-2l1 2l1 3h7l-1 1h-4h-1l1 2l1 4l2 2l2 9l1 9h1l-1 2h1l-1 26v3l-5 14l-3 6l-14 23l-10 10l-3 2l-16 12l-3 2l-13 7l-18 7l-4 1l-12 3l-33 6l-8 1l-2 1v-1l-2 1l-28 2v1l-2 -1h-4l-2 1v-1l-2 1l-48 1l-2 1v-1h-2v1l-2 -1v1h-8v1l-2 -1v1h-2l-2 1v-1l-2 1l-14 1v1l-2 -1v1h-4v-1l-2 1l-10 1l-2 1v-1l-2 1v-1l-4 1v-1l-2 1l-3 1h-1l-2 -1v1h-2l-2 -1v1l-6 1v-1l-2 1h-2v1l-2 -1l-4 1l-2 1v-1l-6 1l-2 1v-1l-2 1l-2 1l-4 -1l-6 2h-6v1l-2 -1h-8l-10 2v1l-2 -1v1l-5 1l-90 18l-13 4v1h2v1l2 -1h4l2 -1v1l2 -1h1l3 1l4 -1l2 -1v1l4 1l1 1h-1v2l-4 1l-8 1v-1l-2 1l-8 1l-2 -1v2h-2l1 -2h-1h-3l1 1h1l-1 1l-10 2l-5 -1h-1l-1 1h1v1h-2l-2 -1v1l-6 1v1l-2 -1v1h-2l-2 -1v1l-2 -1v-1l-1 1h-1v2l-2 -1l-1 1l-1 -1v1l-5 2l-14 5l-4 1v-2l1 -1h2v-1v-1l-2 1h-2v2l-4 -1h-2v1h1l-1 1l-6 1l-107 24l-5 1l-2 2l-2 -1l-100 26l-96 10v1l-2 -1h-2h-1l1 2v4l-2 3h-2l-3 -3l-1 -5v-3v-2l2 -3l74 -7l2 -1v1l2 -1l16 -1l2 -1v1l2 -1l10 -1v-1l2 1v-1l4 -1l23 -4l15 -4l4 -1l2 -1v1l2 -1l15 -4l96 -24l29 -6l18 -4h6l2 -1v1l2 -1l6 -1v-1l2 1h2v-2h4v-1l2 1h3v-2h1v1l8 -1l2 -2v-1h1v3h1v-1h2v-4l1 1l1 1l2 1v-1h2l2 -2l5 -1l108 -27l18 -3l4 -2h6l4 -2l100 -15l4 1l3 -1l2 1v-1h10l2 -1v1l2 -1h4v-1l2 1l4 -1v-1l2 1l2 -1l2 -1v1l4 -1l4 -1l2 1v-1v-1l2 1l2 -2l6 1l1 -1h-1v-2h2l2 1v-1v-1h2v-1l2 1v-1h2l-1 2h1h2l2 1v-1v-1l30 -3l36 -5l2 1v-1l24 -3v-1l2 1v-1h6v-1l2 1v-1l12 -2l6 1l2 1h2l14 -8l16 -13l2 -1l8 -8v-2h2v-2h2l-1 -2h1h1v-2l2 -2l9 -14l2 -2l4 -15v-3l1 -3l-1 -30l-3 -15l-2 -2h1l-3 -4h1l-1 -1zM268 9029l1 -1h-3v1h2zM262 9030v-1h-2v1h2zM264 9030v-1h-1v1h1zM255 9031v-1h-1v1h1zM257 9031v-1h-1v1h1zM268 9031v-1h-1v1h1zM250 9032v-1h-1v1h1zM252 9032l1 -1h-1l-1 1h1zM261 9032v-1h-1v1h1zM245 9033v-1h-1v1h1zM-377 9154v-1h-1v1h1zM-285 9133v-1h-1v1h1zM-329 9142v-1h-1v1h1zM376 9211h-2v-1h1l-1 -2h2l1 2l-1 1zM322 9223v-1l-2 1l-1 -1l1 -1h5l-1 1l-2 1zM216 9270l-3 1l1 -1h1l5 -2l2 -1h1l-1 1h-1l-5 2zM461 9182h-1h-1l1 -2h2v-1l1 1v1l-2 1zM116 8668l1 -2h-1l-1 -4l-1 -4l-1 -2l-3 -2l-4 -2l-3 -1l-9 -1l-3 2v6l3 4l6 4h2h5l2 4l1 1l2 -2l4 -1zM122 8695h2l1 -1l1 -4l3 -2l-1 -8l-1 -4l-4 -4v-2l-7 1l-4 1l-4 4l-1 14h-1v1l6 -1l3 2v3l3 1l4 -1zM102 8693l2 -3v-12l2 -2v-2l-4 -1l-2 1v-1h-4l-4 4v-1l-2 2h-2l-4 4l-2 8l2 2l18 1zM107 8674v-1h-1v1h1zM133 8679l7 -13l1 -4l1 -6l-2 -2v-2l-2 -2h-1h-5l-5 1l-3 1l-3 2l-1 8l1 2h-1v2h-1l1 1h4l2 3v1l4 6l1 2h2zM119 8726l1 -1l2 -1v-2l2 -3v-3v-8v-2l-2 -2v-2h-8l-2 -1l-2 2h-1v2h-2l1 6v3l3 7l8 5zM144 8709l8 -1l1 -2l-1 -5l-1 -5l-1 -2l-14 -6h-2l-2 -1v1l-1 2l-2 5l-1 3l-1 2h1l2 2l1 5l5 2h8zM31 8777v-1h-1v1h1zM130 8777l-4 -1l-2 1l-2 -2h-3v1l-1 1v-1v-1h-2l-2 1v-1h-2v1l-2 -1h-3v1l-1 1v-1h-2l-2 1v-1l-2 1h-4l-1 1h1v2l2 -2h1v2h1v-1l2 1v-1l2 1l2 -1v1h2v-1l2 1h14l2 -1v1l2 -1h2l1 -1l1 -1l1 1v1h1l2 -1v1h2v-1l1 -2h-1h-1h-2h-1l-2 -1v1l-2 -1v1v1zM184 8778v-1l-44 -1l-1 2v1h5l2 -2l2 1h1l3 1l32 -1zM478 8837v-1h-1v1h1zM596 9107v-1h-1v1h1zM595 9108v-1h-1v1h1zM116 9313l1 -1h-1l-1 1h1zM110 9314v-1h-1v1h1zM89 9318v-1h-1v1h1zM86 9319v-1h-1v1h1zM97 9319v-1h-1v1h1zM165 9303l1 -1h3l10 -4l3 -1l2 -2l3 -1l10 -4l52 -12l15 -5l4 -3v1l1 -1l1 -1v1l2 -1l3 -1h2v-2h1v1l7 -1l35 -12l38 -8l24 -8l4 -1v-1l2 1v-1v-1l2 1v-1h2l14 -5l23 -8l6 -2l3 -1l2 -2l4 -1l2 -2l3 -1l9 -3l11 -6l12 -6l1 -1l2 -2l3 -1l18 -10l14 -10l63 -52v-2h2l2 -2v-2l8 -8l-10 5l-2 3v1l-8 6l-2 1v-1h-2l-1 -1l1 -4l12 -12l2 -1l19 -13v-2l1 -1l2 -1l4 -2l2 -2l5 -4v-2l5 -5l8 -5l11 -12l1 -2l2 -2l1 -2l2 -2v-2l2 -2l1 -3l4 -18l8 -47h-1l1 -2l-1 -2h1l-1 -2h1l-2 -14l-1 -2h1l-1 -2l-1 -8l-1 -2h1l-1 -2l-1 -4l-2 -2v-2l-2 -2l-4 -6l-1 -2l-11 -11l-2 -2l-4 -3l-26 -16l-34 -14l-35 -16l-11 -4l-114 -41h-2v3l-2 1h-2l-2 -3h-3l-46 -14l-11 -2l-4 -1l-26 -7l-26 -3v-1l-2 1l-70 -9l-18 -1v1l-2 -1h-2v1l-2 -1v1l-2 -1l-8 1l-2 -1v1l-2 -1v1l-2 -1l-1 1l-1 -1v1h-1l-1 -1l-2 1v-1l-1 1l-1 1v-1l-2 1v-1h-4l-2 -1v1v1h-2v-1l-2 1h-2l-2 -1v1h-8v-1l-2 1h-51v-2h5l1 -1l-1 -1l-2 1h-16v-1l-2 1v-1l-6 1l-3 -1h-1l-2 1v-1h-4l-1 1h1v1h-2v-2h-2l-10 1l-2 1v-1l-6 1l-2 1v-2h-12l-2 -1v1l-2 -1l-6 1l-2 -1v1h-7v-2h7v-1l2 1l2 -1v1l2 -1v1l2 -1h2v1l2 -1v1l2 -1h50l1 -7l7 -30l2 -5l4 -9v-2l2 -2v-2l2 -2v-1l2 -3l4 -4l1 -2l1 -2h2v-2l4 -4h-21l-3 -1l-6 -3v-6h-1l1 -2l1 -2l3 -6v-2l4 -4l7 -4h1h1l-1 -1l-2 -1l-4 -4l-1 -3v-7l1 -2v-2l1 -2l3 -1l2 -1v1h2v-1l2 1l1 -1h2l11 3l6 7h2v-2l4 -4h3l6 -2h8l7 1l1 1l3 11v3l-2 7l-2 3l-6 9v2l4 1l2 1l2 2l4 1l4 4v1l2 5l1 3v5l-1 3v2l-1 1l-1 2l-12 2l-10 -1h-2v-1h-1l-1 6v2l-4 7h-3l-5 1l-2 -2h-2l-6 -6v-2l-1 -2l-1 -4l-1 -4l-1 -1l-3 3l-1 2l-8 10l-1 2l-2 2l-1 3l-2 5l-1 2l-5 23l-2 3v4l-1 7h1l2 -1v1l8 -1l2 1v-1l4 1v-1l2 1l5 -1l115 1v1l2 -1l16 1l2 1v-1l2 1l3 1h4l25 5l6 -1l17 5h15l18 3l22 6l17 4l33 9l127 44l51 21l29 12l6 2l13 10l8 5l4 3l4 2l10 10l2 3l4 7l4 8l1 3l4 21v22l-1 12l-6 33l-4 14l-3 7h-1l2 2v2l-4 4h-2l-2 2l-6 8l-4 5h-2l-6 7l-2 2l-2 4l-1 2l-8 8h1l4 -4h1v2h-1v1l-1 1h-1l-10 10v1l-1 1h-1v1l-1 1h-1v2l-2 2v-1l-1 1h-1l-18 18l-4 2v2l-2 1l-8 6l-3 1v2l-3 2l-42 36l-14 8l-43 24l-7 3l-2 2l-2 1l-10 4l-97 32l-62 18l-7 2l-4 2l-8 2l-12 3l-2 2v-1h-2l-3 2h-4l-5 1v-1l-2 1l-2 -1h-1l1 2l-6 1l-2 -2h-2v1v1l-2 -1l-8 1v2h2l1 1l-1 1h-1v2l-2 1l-4 1l-20 7h-3v2l-2 -1l-1 1h-2l-4 2l-4 1v1l-3 3h-2v-1v-1l-2 1h-2l-23 8l-5 1l-2 -3h1v-2l1 -1h2l14 -6h2v-1l-11 2l-18 4l-5 1v-1l-2 2h-2v-1l-2 2h-4l-2 1v-1l-2 2l-2 -1h-1l-2 1l-3 1v-1l-2 1v-1h-3v1l-1 1v-1l-2 1h-2v-1l-2 2l-2 -1v1l-4 1l-2 1v-1l-1 1l-1 1v-1l-2 1l-2 1l-5 2h-1l-2 1v-1l-2 1l-6 1v1l-2 -1l-2 2v-1l-130 20l-7 1l-17 3v1l-2 -1v1l-15 2l-6 2l-5 2l-25 10l-19 9l-2 1l-2 2h-2l-6 3l-2 2l-3 1l-4 2l-3 1l-8 6v2l-2 1l-12 8l-8 6l-5 2l-1 1l-3 3l-1 1v-1l-2 2h-2l-3 4h1v1h-2v3l-2 2h-1l-3 1l-2 -1v-2v-4l4 -10h2l4 -2l6 -4l9 -5v-2l2 -1l7 -4l2 -2h2l2 -3h2l4 -3l2 -2l4 -3l9 -4l3 -1l2 -2l2 -1l2 -1l7 -4h1l2 -2l3 -1l12 -6l3 -1l2 -2l2 -1h2l13 -5l7 -2l12 -3l33 -5l51 -10h4l2 -1v1l2 -1l26 -2l2 -1v1l2 -1l12 -1v-1l2 1v-1l12 -2l2 -1v1l2 -1l12 -1l15 -5h2l23 -7h2v-1l1 1l1 1v-1l12 -1v1l2 -2l2 1l2 -2h1l3 1l1 -2l1 2l2 -2l2 1l6 -1v-1l2 1v-1l6 -1l2 -1v1l2 -1h2l2 1v-2l10 -2l2 1v-1h5l-1 1h-1l1 1h2v-1l2 1v-1h3l-1 -1h-4v-1h10v1l1 -1zM148 9307l2 -1v-1l-2 1v1zM141 9308v-2h-1v1h-2l-1 1h4zM146 9307v-1h-4v1h4zM154 9308v-1h-1v1h1zM134 9309l1 -1h-3v1h2zM130 9310v-1h-1v1h1zM126 9311v-1h-1v1h1zM122 9312l1 -1h-3v1h2zM38 9330v-1h-1v1h1zM32 9331v-1h-1v1h1zM233 9286v-1h-1v1h1zM226 9288h1l-1 -2h-1v2h1zM206 9291v-1h-1v1h1zM202 9292l1 -1h-1l-1 1h1zM200 9293v-1h-2v1h2zM196 9294v-1h-1v1h1zM191 9296v-1h-1v1h1z"/></g><g class="f live" data-r data-f="0" fill="var(--live,#000)" fill-rule="evenodd"><path class="chunk" data-i="7" d="M-314 9287l1 1l1 1v-1h2l1 2h-1l-2 1v-1l-3 -1h1v-1v-1zM-320 9290v-3l4 -1v1h1v2h-1l-2 1v-2h-1v2h-1zM-310 9283l-2 2v-1l-1 -2l1 -1l1 1l1 1z"/><path class="chunk" data-i="8" d="M-308 9278v-1h2v-1h1v2l-2 1v-1h-1zM-291 9270h-1h-1l1 -2v-1l2 1h1l-1 1l-1 1zM-422 9206l-2 -1v1h-3l1 -1l2 -1l2 -1v1l1 2h-1zM-428 9208l-2 1v-1l-2 1h-2l-1 -1h1v-2l-2 1h-2v-3h2v1l1 -1l-1 -2h2v1l2 -1v1h2v-1l2 2h-2l-2 2v1h2v-1l2 1v-1l2 2h-2zM-416 9203v-1l1 -2h1v2l1 2h-1h-1l-1 -1z"/></g><g class="f live" data-f="1" fill="var(--live,#000)" fill-rule="evenodd"><path class="chunk" data-i="7" d="M-312 9292l1 1v1l1 -1h2l1 2h-1l-1 1l-1 -1l-3 -1h1v-2zM-319 9294v-3h4l1 1l1 2h-2l-1 1l-1 -2v-1l-1 1l1 1h-2zM-308 9288l-2 2v-1l-2 -3l1 -1l2 1v1v1h1z"/><path class="chunk" data-i="8" d="M-306 9282v-1l2 -1l1 -1l1 1v1l-3 2v-1h-1zM-287 9271l-1 1l-1 -1l1 -1v-1l1 -1l1 2h1v1h-2zM-426 9204h-1l-1 -2l-1 2h-3l1 -2l3 -1l1 -1v1v1l1 1v1zM-432 9207h-2v-1l-1 1h-2l-1 -1l1 -1v-1l-1 1h-2v-3h1l1 1v-1v-1v-1v-1h1v1l1 -1l1 1h1v-1l2 2h-1h-1l-2 2l1 1l1 1v-1l1 1l1 -1l1 1v1l-1 1zM-420 9200v-1l1 -2h1v3l1 1v1h-2v-1l-1 -1z"/></g><g class="f live" data-f="2" fill="var(--live,#000)" fill-rule="evenodd"><path class="chunk" data-i="7" d="M-312 9287l1 1v1h1v-1h1l2 1h-1l-1 1v1l-1 -1l-3 -1h1v-2zM-317 9291v-2l4 -2v1v1l-1 1l-1 1v-1l-1 -1v1v1h-1zM-309 9283l-1 2l-1 -3v-1l2 1v1z"/><path class="chunk" data-i="8" d="M-307 9278l1 -1l1 -1v1l-1 2v-1h-1zM-290 9271h-2l1 -1v-1h1l1 1l2 -1l-1 1l-2 1zM-419 9208h-1l-2 -1v1l-3 -1v-1h3l1 -1l1 1v1l1 1zM-426 9210h-2l-1 -1l-1 1h-4l-1 -1l1 -1v-1l-2 1l-3 -1v-3h2l1 1h1v-2l-2 -1h1h1l1 1l1 -1l2 1l1 1l1 -1l2 2h-3l-1 1v2h2l1 -1l1 1l1 -1l2 2v1h-2zM-414 9206v-1v-1v-1l1 1l1 2l1 1h-1h-1v-1h-1z"/></g><g class="f jolt-f live" data-f="3" fill="var(--live,#000)" fill-rule="evenodd"><path class="chunk" data-i="7" d="M-310 9286h1v1h1h1l1 1h-1h-1l-1 1v-1l-3 -1h1h1v-1zM-317 9289v-3l5 -1v1h1l-1 1l-1 1h-2v-1h-1v1l-1 1zM-305 9283l-2 1v-2v-1l2 1l-1 1h1z"/><path class="chunk" data-i="8" d="M-302 9279h1l1 -1h1v1l-2 1v-1h-1zM-291 9270h-1l1 -1v-2v1l1 -1l-1 2v1zM-418 9210h-2l-1 -1l-1 1h-3l1 -1l3 -1l2 -1v1v1l1 1zM-427 9212h-1l-1 -1l-2 1l-3 -1l1 -1v-1l-2 1l-2 -1v-2h2l1 1v-1l-1 -1h1h1l1 1l1 -1l1 1h1l2 -1l1 2h-1h-2l-2 1v1h2h1l1 1l1 -1l2 1l-1 1h-2zM-412 9207l1 -1v-1v-1h1l1 3l1 1h-1h-2v-1h-1z"/></g><path class="grain" fill="#000" fill-rule="evenodd" d="M164 9093h-1v-1h1v1zM165 9092h-1v-1h1v1zM168 9091h-2v-1h2v1zM171 9091l-1 -1v-1l1 1v1zM169 9090h-1v-1h1v1zM163 9090l-1 -1v-1h1v2zM168 9089h-2v-1l2 -1v1v1zM165 9088h-1v-1h1v1zM170 9087h-2v-1h2v1zM166 9087h-1v-1h1v1zM171 9086h-1v-1h1v1zM165 9086h-1v-1h1v1zM174 9085h-1l1 -1h1l-1 1zM179 9084h-1v-1h1v1zM171 9084h-1v-1h1v1zM170 9083h-1v-1h1v1zM172 9082h-1v-1h1v1zM179 9080h-1v-1h1v1zM-106 9098h-2v-1h2v1zM-96 9094h-1v-1h1v1zM-95 9093h-1v-1h1v1zM-105 9093h-1v-1h1v1zM-99 9092h-1v-1h1v1zM-177 9110l-1 1v-1h1zM-172 9108v2h-1v-2h1zM-183 9106h-1v-1h1v1zM-179 9105h-1v-1h1v1zM-182 9104h-1v-1h1v1zM-172 9103v-1l2 1h-2zM-177 9102h1l-1 1v-1zM-178 9103h-2v-1h2v1zM-183 9103h-1v-1h1v1zM-168 9102h-1v-1h1v1zM-180 9102h-1v-1h1v1zM-175 9102l-1 -1v-1h1v2zM-178 9102v-2h1v2h-1zM-184 9101h-1v-1h1v1zM-181 9101h-1l-1 -1l1 -1l1 1v1zM136 9044h-1v-1h1v1zM152 9039v1h-4v-1l3 -1l1 1zM151 9038l1 -1v1h-1zM158 9037h-1v-1h1v1zM152 9038l2 -2l2 1h1l-1 1l-4 1v-1zM162 9036h-1l1 -1h1l-1 1zM179 9034h-1v-1h1v1zM76 9065h-3l1 -1h2v1zM72 9065h-1v-1h1v1zM79 9064h-1v-1h1v1zM82 9063h-1v-1h1v1zM87 9062h-1v-1h1v1zM178 8832h-1v-1h1v1zM172 8827h-1v-1h1v1zM170 8826h-1v-1h1v1zM179 8793h-1v-1h1v1zM174 8793h-2v-1h2v1zM178 8792h-1v-1h1v1zM175 8792h-1v-1h1v1zM144 8792h-1v-1h1v1zM177 8791h-1v-1h1v1zM167 8791h-1v-1h1v1zM143 8790h-1v-1h1v1zM141 8790h-1v-1h1v1zM138 8790h-1v-1h1v1zM136 8790h-2v-1h2v1zM132 8790h-1l1 -1h1l-1 1zM178 8789h-2v-1h2v1zM165 8788h-1v-1h1v1zM162 8788h-1v-1h1v1zM178 8787h-2v-1h2v1zM174 8787h-1v-1h1v1zM173 8786h-1v-1h1v1zM146 8786h-5l1 -1h5l-1 1zM140 8786h-4v-1h4v1zM135 8786h-1v-1h1v1zM132 8786h-2v-1h2v1zM178 8784h-1v-1h1v1zM176 8785h-2v-2h2l1 1l-1 1zM143 8784h-1v-1h1v1zM168 8783h-1v-1h1v1zM166 8783h-4v-1h4v1zM173 8780l-1 1v-1h1zM145 8778h-1v-1h1v1zM131 8778h-1v-1l1 1zM137 8777h-1v-1h1v1zM122 8777h-2v-1h2v1zM56 8790h-1v-1h1v1zM60 8789h-1v-1h1v1zM106 8788h-1v-1h1v1zM104 8788h-2v-1h2v1zM100 8788h-1l1 -1h1l-1 1zM98 8788h-1v-1h1v1zM93 8788h-1v-1h1v1zM89 8788h-1v-1h1v1zM82 8785h-1v-1h1v1zM80 8785h-1v-1h1v1zM110 8783h-1v-1h1v1zM106 8783h-1v-1h1v1zM98 8783h-3l1 -1h3l-1 1zM89 8784h-1h-1l1 -2h1v2zM80 8783h-3l1 -1h2v1zM65 8782h-1v-1h1v1zM62 8782h-2v-1h2v1zM57 8782h-1v-1h1v1zM86 8780h-1l1 -1h1l-1 1zM83 8780h-1v-1h1v1zM80 8780h-4v-1h4v1zM109 8777h-1v-1h1v1zM52 8790l-1 -1l1 -1h1l-1 2zM48 8790h-3l1 -1l4 -1l-2 2zM45 8789h-1v-1h1v1zM38 8789h-1v-1h1v1zM42 8789l-2 -1h-1l1 -1h2l1 1l-1 1zM40 8786h-2v-1h2v1zM36 8787h-2v-1l2 -1l1 1l-1 1zM50 8785h-1v-1h1v1zM35 8785h-1v-1h1v1zM53 8782l-2 1v-2h4l-1 1h-1zM50 8782h-1v-1h1v1zM46 8782l-2 -2h2l1 2h-1zM34 8783l-1 -1v-2h1v3zM52 8780h-1l1 -1h1l-1 1zM50 8780h-1v-1h1v1zM48 8780h-1v-1h1v1zM40 8780h-1v-1h1v1zM0 8777h-4v-1h4v1zM-6 8777h-5l1 -1h5l-1 1zM-12 8777h-1v-1h1v1zM-14 8777h-2v-1h2v1zM-19 8777h-1v-1h1v1zM-24 8777h-1l1 -1h1l-1 1zM-26 8777h-2v-1h2v1zM-29 8777h-1v-1h1v1zM-36 8777h-1v-1h1v1zM-18 8776h-1v-1h1v1zM-21 8777l-1 -1v-1l1 1v1zM-31 8776h-1v-1h1v1zM-34 8776h-2v-1h2v1zM-13 8775h-1v-1h1v1zM-27 8775h-1v-1h1v1zM-29 8775h-1v-1h1v1zM-37 8776h-2v-2h2v2zM-45 8774h-1v-1h1v1zM-264 8811h-1v-1h1v1zM-264 8807h-1v-1h1v1zM-329 8776h-1v-1h1v1zM-341 8776h-1v-1h1v1zM-344 8776h-1l1 -1h1l-1 1zM-338 8775h-2v-1h2v1zM-346 8775h-1v-1h1v1zM-348 8775h-2v-1h2v1zM-349 8773h-1v-1h1v1zM-356 8773h-3l1 -1h2v1zM-355 8772h-1v-1h1v1zM-363 8772l-1 -1v-1h1v2zM-434 8790v-1l1 1h-1zM-435 8789v-1h1v1h-1zM-443 8785h-1v-1h1v1zM-244 8742h-1v-1h1v1zM-242 8741h-1v-1h1v1zM-245 8741h-1v-1h1v1zM-240 8741v-1l2 -1v1l-2 1zM-236 8739h-1l1 -1h1l-1 1zM-235 8737h-1v-1h1v1zM-235 8734h-1v-1h1v1zM-208 8715h-1l1 -1h1l-1 1zM-206 8714h-1v-1h1v1zM-313 8715h-1v-1h1v1zM-314 8714h-1v-1h1v1zM-321 8713h-1v-1h1v1zM-316 8713l-2 -1v-1h2l1 1l-1 1zM-324 8712l-1 -1v-1h1v2zM-327 8710l-1 -1v-1h1v2zM-316 8709h-2v-2h2v2zM-324 8707h-1v-1h1v1zM-327 8707l-1 -1v-1l1 1v1zM-324 8705h-1v-1h1v1zM-317 8704h-1v-1h1v1zM-316 8703h-1v-1h1v1zM-327 8703h-1v-1h1v1zM-321 8701h-1v-1h1v1zM-326 8702l-1 -1v-1h1v2zM-316 8700h-1v-1h1v1zM-314 8699h-2v-2h2l1 1l-1 1zM-326 8698h-1v-1h1v1zM-313 8695h-1v-1h1v1zM-320 8695h-1v-1h1v1zM-332 8695v-1h1l-1 1zM-324 8695l-1 -1v-1l1 1v1zM-318 8693h-3l1 -1h2v1zM-332 8693v-1h2l-1 2l-1 -1zM-322 8694l-2 -2h1v-2h2l-1 2v2zM-318 8690h-1v-1h1v1zM-330 8690h-1v-1h1v1zM-321 8689h-1v-1h1v1zM-327 8689h-1v-1h1v1zM-311 8690h-1h-1l1 -2v-1l1 1v2zM-318 8688h-1v-1h1v1zM-328 8688h-1v-1h1v1zM-313 8687h-1v-1h1v1zM-329 8687h-1v-1h1v1zM-312 8686h-1v-1h1v1zM-327 8686h-1v-1h1v1zM-330 8686h-1v-1h1v1zM-325 8685h-1v-1h1v1zM-329 8685h-1v-1h1v1zM-322 8684h-2v-1h2v1zM-326 8684h-1v-1h1v1zM-359 8700h-1v-1h1v1zM-335 8698h-1l1 -1v1zM-343 8698h-1v-1h1v1zM-356 8698h-1v-1h1v1zM-361 8698h-1v-1h1v1zM-336 8697h-1v-1h1v1zM-354 8697h-1v-1h1v1zM-360 8697h-1l1 -1h1l-1 1zM-364 8697h-1l1 -1h1l-1 1zM-333 8696l1 -1v1h-1zM-352 8696h-1v-1h1v1zM-358 8696h-1v-1h1v1zM-362 8696h-1l1 -1h1l-1 1zM-365 8696h-1v-1h1v1zM-338 8695h-1v-1h1v1zM-350 8695h-1v-1h1v1zM-356 8695h-1v-1h1v1zM-363 8695h-1v-1h1v1zM-332 8694h-2v-1h2v1zM-354 8694h-1v-1h1v1zM-358 8694h-1l1 -1h1l-1 1zM-360 8695l-1 -1v-1l1 1v1zM-338 8693h-1v-1h1v1zM-345 8693h-1v-1h1v1zM-359 8693h-1v-1h1v1zM-361 8693h-1v-1h1v1zM-365 8694l-1 -1v-1h1v2zM-335 8691v1l-1 1l-1 -2h2zM-369 8694h-1v-2l2 -2l-1 4zM-358 8690h-1v-1h1v1zM-360 8691l-2 -1v-1h2v1v1zM-367 8690h-1v-1h1v1zM-342 8689h-1v-1h1v1zM-356 8691v-1l2 -2v2l-2 1zM-365 8688v2h-1v-2h1zM-341 8688h-1v-1h1v1zM-344 8688h-1v-1h1v1zM-334 8687h-1v-1h1v1zM-340 8687h-1v-1h1v1zM-343 8687h-1v-1h1v1zM-347 8688l-1 -1v-1h1v2zM-349 8687h-1v-1h1v1zM-351 8687h-1v-1h1v1zM-365 8686l2 2l-1 1l-1 -1v-2zM-373 8687h-1v-1h1v1zM-342 8686h-1l1 -1h1l-1 1zM-345 8686h-1v-1h1v1zM-332 8685h-1v-1h1v1zM-334 8685h-3l1 -1h2v1zM-355 8685h-1v-1h1v1zM-333 8684h-1v-1h1v1zM-337 8684h-1v-1h1v1zM-340 8684h-1v-1h1v1zM-348 8684h-1l1 -1h1l-1 1zM-328 8684l-1 -1v-1h1v2zM-319 8683l-1 -1v-1l1 1v1zM-327 8682h-1v-1h1v1zM-329 8681h-1v-1h1v1zM-331 8680h-1v-1h1v1zM-328 8679h-2v-1h2v1zM-330 8677h-1v-1h1v1zM-330 8651h-1v-1h1v1zM-331 8646l-1 -1v-1h1v2zM-330 8643h-2v-1h2v1zM-331 8639h-1v-1h1v1zM-330 8639l-1 -1l1 -1h1v1l-1 1zM-325 8637h-1v-1h1v1zM-328 8637h-1v-1h1v1zM-322 8636h-1v-1h1v1zM-326 8635h-1v-1h1v1zM-319 8634h-1v-1h1v1zM-331 8634h-1v-1h1v1zM-324 8634h-2l-1 -2h1l2 2zM-328 8633h-1v-1h1v1zM-330 8630h1l-1 1v-1zM-312 8630h-1v-1h1v1zM-325 8630h-1v-1h1v1zM-311 8629h-1v-1h1v1zM-316 8631v-1v-2l2 2l-2 1zM-326 8627v1l-1 -1h1zM-313 8626l-1 1l-1 -1h2zM-326 8627v-1h1l-1 1zM-328 8627v-1h1v1h-1zM-327 8626v-1h1v1h-1zM-326 8625v-1l1 1h-1zM-331 8625v-1h1v1h-1zM-311 8623h-1v-1h1v1zM-346 8683h-1v-1h1v1zM-366 8683h-2v-1h3l-1 1zM-373 8682h1v1l-1 -1zM-332 8682h-1v-1h1v1zM-336 8683h-1v-1l1 -1l1 1l-1 1zM-345 8682h-1v-1h1v1zM-337 8681h-1v-1h1v1zM-344 8681h-1v-1h1v1zM-355 8681h-1v-1h1v1zM-368 8681h-1v-1h1v1zM-333 8680h-1v-1h1v1zM-336 8680h-1l1 -1h1l-1 1zM-356 8679h-1v-1h1v1zM-367 8678v2h-1v-2h1zM-378 8679l-1 -1h1v1zM-341 8679h-1l-1 -1l1 -1l1 1v1zM-340 8677h-1v-1h1v1zM-333 8676h-1v-1h1v1zM-338 8676h-1v-1h1v1zM-334 8675h-1v-1h1v1zM-377 8676h-1l1 -2v2zM-362 8673h-2v-1l2 -2h1v2l-1 1zM-362 8669h-2v-1v-1l2 1v1zM-366 8667v1l-1 -1h1zM-354 8667h-1v-1h1v1zM-366 8666l2 -1v1v1h-2v-1zM-348 8665h-1v-1h1v1zM-350 8663h-1v-1h1v1zM-356 8662h-1v-1h1v1zM-344 8661h-1v-1h1v1zM-351 8661h-1v-1h1v1zM-350 8660h-1v-1h1v1zM-354 8660h-1v-1h1v1zM-347 8659h-1v-1h1v1zM-349 8659h-1v-1h1v1zM-353 8659h-1v-1h1v1zM-348 8658h-1v-1h1v1zM-347 8657h-1v-1h1v1zM-354 8657h-1v-1h1v1zM-341 8656h-1v-1h1v1zM-346 8656h-1v-1h1v1zM-350 8656h-1v-1h1v1zM-358 8656h-1v-1h1v1zM-356 8655h-2v-1h2v1zM-342 8654h-1v-1h1v1zM-345 8653v1l-1 1v-1v-1h1zM-353 8654h-1v-1h1v1zM-338 8653h-1v-1h1v1zM-352 8653h-1v-1h1v1zM-351 8652h-1v-1h1v1zM-354 8652h-1v-1h1v1zM-350 8650v1l-1 -1h1zM-353 8651h-1v-1h1v1zM-357 8650h-1v-1h1v1zM-334 8648l-2 2v-2h2zM-337 8649h-1v-1h1v1zM-336 8648h-1l1 -1v1zM-334 8646h1l-1 2v-2zM-336 8647v-1h1l-1 1zM-357 8646v2h-1v-2h1zM-335 8646l1 -1v1h-1zM-366 8646v-1l2 1h-2zM-333 8645h-1v-1h1v1zM-349 8645h-1v-1h1v1zM-354 8645h-1v-1h1v1zM-338 8643h2v1h-2v-1zM-350 8644h-1v-1h1v1zM-352 8644h-1v-1h1v1zM-363 8644h-1l1 -1v1zM-346 8643h-4v-1h4v1zM-354 8642h-1v-1h1v1zM-343 8641h-1v-1h1v1zM-352 8642l-2 -2h2h1l-1 2zM-344 8640h-3l1 -1h2v1zM-348 8640h-1v-1h1v1zM-350 8640h-1v-1h1v1zM-340 8639h-1v-1h1v1zM-353 8639h-1v-1h1v1zM-332 8638h-1v-1h1v1zM-348 8638h-1v-1h1v1zM-334 8637h-1v-1h1v1zM-336 8639l-1 -1v-2h1v3zM-338 8636h-1v-1h1v1zM-346 8636h-1v-1h1v1zM-332 8635h-1v-1h1v1zM-350 8636l-1 -1v-1h1v2zM-348 8634h-1v-1h1v1zM-363 8634h-1v-1h1v1zM-347 8633h-1v-1h1v1zM-362 8633h-1v-1h1v1zM-333 8632v-1h3v1h-3zM-357 8632h-1v-1h1v1zM-364 8633l-1 -1v-1l1 1v1zM-335 8631h-1v-1h1v1zM-340 8631l-1 -1h1v1zM-345 8632h-1h-1l1 -2h1v2zM-340 8630v-1h1v1h-1zM-344 8630h-1v-1h1v1zM-333 8631h-1l1 -3v3zM-340 8629h-1v-1h1v1zM-345 8629h-1v-1h1v1zM-364 8630l-1 -1l1 -1h1l-1 2zM-359 8628v-1h1v1h-1zM-337 8627v-1h1v1h-1zM-356 8626h1v1h-1v-1zM-358 8627v-1h1l-1 1zM-336 8626v-1l2 1h-2zM-339 8625v1l-1 1v-1v-1h1zM-341 8627l-1 -1v-1l1 1v1zM-343 8627l-1 -1v-1l1 1v1zM-359 8627h-2v-2h2v2zM-362 8627h-2v-1l2 -1v1v1zM-357 8626v-2h1h1l-1 2h-1zM-334 8624h-2v-1h2v1zM-336 8623h-2v-1h2v1zM-343 8622v2h-1v-2h1zM-354 8623h-1v-1h1v1zM-342 8622h-1v-1h1v1zM-352 8622h-1v-1h1v1zM-350 8621h-1v-1h1v1zM-354 8621h-1l1 -1h1l-1 1zM-356 8622l-1 -1v-1h1v2zM-332 8623v-1l-2 1l-1 -1l3 -3l1 1v2l-1 1zM-335 8621l-1 -1v-1l1 1v1zM-355 8620h-1v-1h1v1zM-311 8618l-1 -1v-1h1v2zM-328 8616h-1v-1h1v1zM-312 8615h-1v-1h1v1zM-330 8615h-1v-1h1v1zM-321 8614l1 -1v1h-1zM-331 8614h-1v-1h1v1zM-315 8613h-1v-1h1v1zM-316 8612h-1v-1h1v1zM-330 8613l-1 -1v-1l1 1v1zM-321 8613h-2v-3h1l1 2v1zM-318 8610h-1l1 -1h1l-1 1zM-320 8610h-2v-1h2v1zM-319 8609h-1v-1h1v1zM-325 8609h-1v-1h1v1zM-331 8608h1l-1 1v-1zM-326 8607h-1l1 -1h1l-1 1zM-329 8608l-1 -1l-1 -1l1 -1h1v3zM-323 8610h-1h-1l1 -2l1 -4h1l-1 6zM-328 8604h-2v-1h3l-1 1zM-326 8603h-1l1 -1h1l-1 1zM-322 8602h-1v-1h1v1zM-328 8602h-1v-1h1v1zM-330 8602h-1v-1h1v1zM-327 8599l-1 1v-1h1zM-272 8599h-1v-1h1v1zM-322 8600h-3l1 -1l2 -1v2zM-327 8598l1 -1h2v1l-2 1h-1v-1zM-328 8598v-1l1 1h-1zM-321 8598l-1 -1v-1h1v2zM-320 8596h-1v-1h1v1zM-323 8596h-1v-1h1v1zM-322 8595h-1v-1h1v1zM-324 8595h-1v-1h1v1zM-327 8595h-1v-1h1v1zM-321 8594h-1v-1h1v1zM-326 8594h-1l1 -1h1l-1 1zM-322 8593h-2v-1h2v1zM-331 8592h-1v-3l1 1v2zM-330 8589h-1v-1h1v1zM-337 8619h-1v-1h1v1zM-352 8620l-2 -2h2v2zM-333 8618h-1v-1h1v1zM-336 8617h-1v-1h1v1zM-340 8618l-1 -1v-1h1v2zM-350 8617h-1v-1h1v1zM-332 8616h-1v-1h1v1zM-334 8616h-1v-1h1v1zM-339 8616h-1v-1h1v1zM-348 8615h-1v-1h1v1zM-335 8613l-1 1v-1h1zM-349 8614h-1v-1h1v1zM-335 8613v-1h1v1h-1zM-348 8613h-1v-1h1v1zM-334 8611l1 1h-1v-1zM-336 8613h-3l1 -1l1 -1h1v1v1zM-335 8610h1v1l-1 -1zM-337 8611h-1v-1h1v1zM-331 8609l-1 1l-1 -1h2zM-338 8609v-1h1v1h-1zM-333 8608v-1h1l1 1h-2zM-334 8607v-1l1 1h-1zM-332 8606h-1v-1h1v1zM-333 8605h-1v-1h1v1zM-332 8604h-1v-1h1v1zM-342 8603h-1v-1h1v1zM-334 8602h-1v-1h1v1zM-332 8600h-1v-1h1v1zM-332 8589l-1 -1v-1l1 1v1zM-262 8531h-1v-1h1v1zM-269 8508h-1l1 -1v1zM630 9082h-1v-1h1v1zM630 9079h-1v-1h1v1zM632 9077h-1v-1h1v1zM634 9074h-1v-1h1v1zM639 9069h-1v-1h1v1zM600 9112v1l-1 -1h1zM566 9111h-1v-1h1v1zM604 9108v1l-1 -1h1zM573 9109h-1v-1h1v1zM604 9108v-1h1v1h-1zM605 9107v-1h1v1h-1zM606 9105l1 1h-1v-1zM610 9103h-1v-1h1v1zM580 9101h-1v-1h1v1zM618 9094v1l-1 -1h1zM618 9094v-1h1v1h-1zM619 9092h1l-1 1v-1zM585 9093h-1v-1h1v1zM621 9092h-1v-1h1v1zM586 9091h-1v-1h1v1zM623 9090h-1v-1h1v1zM621 9090h-1h-1l1 -2h1v2zM629 9080l-5 5v-1l4 -5l1 1zM601 9072h-1v-1h1v1zM598 9071h-1v-1h1v1zM602 9070h-1v-1h1v1zM603 9069h-1v-1h1v1zM549 9130h-1v-1h1v1zM532 9130h-1v-1h1v1zM550 9129h-1v-1h1v1zM542 9129h-1l1 -1h1l-1 1zM546 9128h-2v-1h2v1zM543 9126h-1v-1h1v1zM556 9124h-1v-1h1v1zM556 9119h-1v-1h1v1zM558 9118h-1v-1h1v1zM564 9117h-1v-1h1v1zM649 9057h-1v-1h1v1zM629 9011h-1v-1h1v1zM630 9010h-1v-1h1v1zM629 9008h-1v-1h1v1zM629 9006h-1v-1h1v1zM634 9005h-1v-1h1v1zM630 9005h-1l1 -1h1l-1 1zM632 9004h-1v-1h1v1zM605 9066h-1v-1h1v1zM606 9063h-1v-1h1v1zM596 9063h-1v-1h1v1zM607 9062h-1v-1h1v1zM605 9059h-1v-1h1v1zM608 9060h-1v-4h1h1l-1 2v2zM599 9057h-1v-1h1v1zM606 9057l-1 -1v-1l1 1v1zM609 9055h-1v-1h1v1zM600 9054h-1v-1h1v1zM608 9051h-1v-1h1v1zM601 9051h-1v-1h1v1zM606 9049l-1 -1v-1l1 1v1zM602 9048h-1v-1h1v1zM612 9048l-1 -1v-1h1v2zM609 9048h-1v-3l1 1v2zM607 9046h-1v-1h1v1zM613 9044h-1v-1h1v1zM615 9041h-1v-1h1v1zM609 9041h-1v-1h1v1zM610 9039h-1v-1h1v1zM615 9036h-1v-1h1v1zM612 9035h-1v-1h1v1zM613 9033h-1v-1h1v1zM618 9030h-1v-1h1v1zM614 9031l-1 -1v-1l1 1v1zM615 9029h-1v-1h1v1zM612 9029h-1v-1h1v1zM614 9028h-1v-1h1v1zM611 9028h-1v-1h1v1zM616 9027h-1v-1h1v1zM613 9027h-1v-1h1v1zM617 9025h-1v-1h1v1zM614 9025h-1v-1h1v1zM619 9024h-1v-1h1v1zM618 9023h-1v-1h1v1zM615 9023h-1v-1h1v1zM622 9022h-1v-1h1v1zM623 9021h-1v-1h1v1zM619 9021h-1v-1h1v1zM616 9021h-1v-1h1v1zM620 9020h-1v-1h1v1zM618 9020h-1v-1h1v1zM624 9019h-1v-1h1v1zM619 9018h-1v-1h1v1zM622 9016h1l-1 1v-1zM622 9017v1v1l-2 -1l1 -2l1 1zM626 9016h-1v-1h1v1zM621 9016l1 -1v1h-1zM619 9016h-1v-1h1v1zM623 9015h-1v-1h1v1zM625 9014h-1v-1h1v1zM620 9014h-1v-1h1v1zM628 9013h-1v-1h1v1zM624 9013h-1v-1h1v1zM623 9012h-1v-1h1v1zM626 9009l1 1l-1 2h-1v-3h1zM626 9008h1l-1 1v-1zM625 9009h-1v-1h1v1zM625 9008l1 -1v1h-1zM624 9008h-1v-1h1v1zM627 9007l-1 -1v-1l1 1v1zM628 9005h-1v-1h1v1zM626 9005h-1v-1h1v1zM443 9028h-1v-1h1v1zM448 9027h-1v-1h1v1zM439 9027h-1v-1h1v1zM446 9025h-1v-1h1v1zM450 9024h-1v-1h1v1zM462 9023h-1v-1h1v1zM454 9023h-1v-1h1v1zM457 9022h-1v-1h1v1zM461 9021h-1v-1h1v1zM464 9020h-1v-1h1v1zM468 9019h-1v-1h1v1zM374 9040h-1v-1h1v1zM395 9039h-1v-1h1v1zM401 9038h-1v-1h1v1zM399 9038h-1v-1h1v1zM406 9037h-1v-1h1v1zM404 9037h-2v-1h2v1zM416 9035h-2v-1h2v1zM412 9036h-4v-1l4 -1h1l-1 2zM395 9035h-1v-1h1v1zM421 9034h-1v-1h1v1zM401 9034h-1v-1h1v1zM406 9033h-1v-1h1v1zM427 9032h-1v-1h1v1zM436 9030h-1v-1h1v1zM421 9030h-1v-1h1v1zM431 9029h-1v-1h1v1zM314 9051h-1l1 -1h1l-1 1zM310 9053l-1 -2l1 -1l1 2l-1 1zM318 9050h-1l1 -1h1l-1 1zM322 9049h-1v-1h1v1zM311 9049h-1v-1h1v1zM326 9048h-1l1 -1h1l-1 1zM324 9048h-1v-1h1v1zM320 9049l-1 -1v-1l1 1v1zM330 9047h-2v-1h2v1zM336 9046h-3l1 -1h2v1zM328 9046h-1v-1h1v1zM340 9045h-2v-1h3l-1 1zM346 9044h-2v-1h3l-1 1zM354 9043h-3l1 -1h2v1zM360 9042h-1v-1h1v1zM370 9041h-1l1 -1h1l-1 1zM366 9041h-1v-1h1v1zM258 9065h-2v-1h2v1zM250 9065h-1v-1h1v1zM248 9065h-1v-1h1v1zM261 9064h-1v-1h1v1zM254 9064h-2v-1h2v1zM251 9064h-1v-1h1v1zM265 9063h-1v-1h1v1zM258 9063h-2v-1h2v1zM255 9063h-1v-1h1v1zM262 9062h-4v-1h4v1zM267 9061h-1v-1h1v1zM275 9060h-1v-1h1v1zM279 9059h-1v-1h1v1zM296 9057h-1v-1h1v1zM286 9057h-1v-1h1v1zM276 9058l-1 -1l1 -1h1l-1 2zM280 9056h-1v-1h1v1zM298 9055h-1v-1h1v1zM294 9055h-1v-1h1v1zM307 9054h-1v-1h1v1zM302 9054h-1l1 -1h1l-1 1zM297 9054h-1v-1h1v1zM292 9054h-1v-1h1v1zM306 9053h-1v-1h1v1zM304 9053h-1v-1h1v1zM301 9053h-1v-1h1v1zM299 9052h-1v-1h1v1zM308 9052l-1 -1v-1h1v2zM303 9051h-1v-1h1v1zM307 9050h-1v-1h1v1zM305 9049h-1v-1h1v1zM630 9003h-1v-1h1v1zM633 9002h-1v-1h1v1zM632 9001h-1v-1h1v1zM636 9000h-1v-1h1v1zM634 9000h-1v-1h1v1zM634 8998h-1v-1h1v1zM632 8998h-1v-1h1v1zM634 8995h-1v-1h1v1zM632 8994h-1v-1h1v1zM634 8993h-1v-1h1v1zM636 8988l-1 -1v-1h1v2zM633 8986h-1v-1h1v1zM631 8985l-1 -1v-1l1 1v1zM635 8981h-1v-1h1v1zM630 8979h-1v-1h1v1zM631 8971h-1v-1h1v1zM629 8971h-1v-1h1v1zM631 8956h-1v-1h1v1zM630 8952h-1v-1h1v1zM628 9003h-1v-1h1v1zM626 8967h-1v-1h1v1zM625 8962l-1 -1v-1h1v2zM624 8957h-1v-1h1v1zM625 8951h-1v-1h1v1zM622 8951h-1v-1h1v1zM626 8948h-1v-1h1v1zM625 8945h-1v-1h1v1zM624 8943h-1v-1h1v1zM622 8942h-1v-1h1v1zM619 8942h-1v-1h1v1zM623 8940h-1v-1h1v1zM621 8940h-1v-1h1v1zM618 8940h-1v-1h1v1zM502 8995h-1v-1h1v1zM496 8992h-1v-1h1v1zM489 8989h-1v-1h1v1zM484 8987h-1v-1h1v1zM472 8986h-1v-1h1v1zM480 8985h-1v-1h1v1zM484 8984h-2v-1h2v1zM478 8982h-1v-1h1v1zM470 8981h-1v-1h1v1zM472 8979h-1l1 -1h1l-1 1zM468 8978h-1v-1h1v1zM467 8977h-1v-1h1v1zM463 8976h-1v-1h1v1zM460 8975h-2v-1h2v1zM457 8974h-1v-1h1v1zM454 8974l-4 -1h-1l1 -1l3 1h1h1l-1 1zM446 8972h-2v-1h3l-1 1zM442 8972l-2 -2h4v1h-2v1zM438 8971l-2 -1v1l-1 -1v-1h3l1 1l-1 1zM434 8970h-5v-2h1l2 1v-1l2 2zM428 8970l-1 -1v-1h1v2zM424 8969h-1v-1h1v1zM421 8969h-1v-1h1v1zM422 8968h-1l1 -1h1l-1 1zM420 8968h-1v-1h1v1zM390 8968h-1v-1h1v1zM380 8968h-1v-1h1v1zM410 8967h-1v-1h1v1zM382 8967h-2v-1h3l-1 1zM373 8967h-1v-1h1v1zM379 8966h-1v-1h1v1zM374 8950h-1v-1h1v1zM376 8949h-1v-1h1v1zM375 8946h-1v-1h1v1zM388 8944h-1v-1h1v1zM391 8943h-1v-1h1v1zM375 8941h-1v-1h1v1zM372 8965h-1v-1h1v1zM368 8964h-1l1 -1h1l-1 1zM357 8957h-1v-1h1v1zM368 8949h-1v-1h1v1zM370 8948h-1v-1h1v1zM625 8937h-1v-1h1v1zM624 8935h-1v-1h1v1zM619 8935h-1v-1h1v1zM615 8934h-1v-1h1v1zM620 8933h-1v-1h1v1zM616 8933h-1v-1h1v1zM617 8932l-1 -1v-1h1v2zM621 8930h-1v-1h1v1zM618 8930h-1v-1h1v1zM616 8930h-1v-1h1v1zM620 8928h-1v-1h1v1zM614 8927h-1v-1h1v1zM613 8926h-1v-1h1v1zM612 8924h-1v-1h1v1zM607 8923h-1v-1h1v1zM612 8922h-1v-1h1v1zM608 8921v1l-1 -1h1zM607 8921h-1v-1h1v1zM605 8921h-1v-1h1v1zM607 8918h-1v-1h1v1zM604 8918h-1v-1h1v1zM611 8917h-1v-1h1v1zM610 8916h-1v-1h1v1zM609 8915h-1v-1h1v1zM603 8915h-1v-1h1v1zM602 8914h-2v-1h2v1zM599 8914h-1v-1h1v1zM609 8913h-1v-1h1v1zM607 8913h-1v-1h1v1zM605 8913h-1v-1h1v1zM600 8913h-1v-1h1v1zM598 8913h-1v-1h1v1zM606 8912h-1v-1h1v1zM605 8911h-1v-1h1v1zM598 8911h-1v-1h1v1zM602 8909h-1v-1h1v1zM596 8909h-1v-1h1v1zM601 8908h-1v-1h1v1zM594 8908h-1v-1h1v1zM600 8907h-1v-1h1v1zM599 8906h-1v-1h1v1zM591 8906h-1v-1h1v1zM597 8905h-1v-1h1v1zM590 8905h-2v-1h2v1zM587 8905h-1v-1h1v1zM596 8904h-1v-1h1v1zM588 8904h-1v-1h1v1zM592 8903h-1v-1h1v1zM587 8903h-1v-1h1v1zM585 8903h-1v-1h1v1zM594 8902h-2v-1h2v1zM586 8902h-1v-1h1v1zM592 8901h-1v-1h1v1zM584 8901h-1l1 -1h1l-1 1zM591 8900h-1v-1h1v1zM583 8900h-1v-1h1v1zM587 8899h-1v-1h1v1zM582 8899h-1v-1h1v1zM588 8899l-1 -1l1 -1h1v1l-1 1zM580 8900l-2 -2v1l-1 -1v-1h3v3zM587 8897h-1v-1h1v1zM576 8898l-1 -1l1 -1h1l-1 2zM586 8896h-2v-1h2v1zM582 8896h-1v-1h1v1zM575 8896h-1v-1h1v1zM571 8896h-1v-1h1v1zM569 8896h-1v-1h1v1zM584 8895h-2v-1h2v1zM572 8895h-1l1 -1h1l-1 1zM582 8894h-1v-1h1v1zM578 8894h-1v-1h1v1zM570 8894h-1l1 -1h1l-1 1zM576 8893h-1v-1h1v1zM566 8893h-1v-1h1v1zM578 8893l-1 -1l1 -1h1v1l-1 1zM572 8892h-1v-1h1v1zM576 8891h-3l1 -1h2v1zM570 8891h-2v-1h2v1zM572 8890h-2v-1h3l-1 1zM567 8890h-1v-1h1v1zM570 8889l-4 -1l-2 -2l4 1l2 1v1zM564 8894h-1v-1h1v1zM563 8893h-1v-1h1v1zM562 8891h-1v-1h1v1zM559 8891l-1 -1v-1l1 1v1zM564 8889h-1l1 -1h1l-1 1zM558 8889h-1v-1h1v1zM560 8887h-2v-1h2v1zM551 8887h-1v-1h1v1zM563 8888h-1h-1l1 -2v-1l1 1v2zM557 8886h-1v-1h1v1zM547 8886h-1v-1h1v1zM554 8885h-1l1 -1h1l-1 1zM557 8884h-1v-1h1v1zM551 8884h-1v-1h1v1zM540 8884h-1v-1h1v1zM549 8883h-1v-1h1v1zM537 8883h-1v-1h1v1zM546 8882h-2v-1h2v1zM535 8882h-1v-1h1v1zM542 8881h-2v-1h2v1zM532 8881h-1v-1h1v1zM544 8880h-1v-1h1v1zM539 8880h-1v-1h1v1zM545 8879h-1v-1h1v1zM536 8879h-1v-1h1v1zM525 8879h-1v-1h1v1zM542 8878h-1v-1h1v1zM537 8878h-1v-1h1v1zM534 8878h-1v-1h1v1zM522 8878h-2v-1h2v1zM535 8877h-1v-1h1v1zM530 8877h-1v-1h1v1zM528 8877h-1v-1h1v1zM517 8877h-1v-1h1v1zM520 8876h-1v-1h1v1zM515 8876h-1v-1h1v1zM444 8930h-2v-1h2v1zM453 8929h-1v-1h1v1zM459 8928h-1v-1h1v1zM444 8926h-1v-1h1v1zM438 8927l-1 -1l1 -1h4v1h-2l-2 1zM451 8925h-1v-1h1v1zM449 8925h-1v-1h1v1zM446 8925h-2v-1h3l-1 1zM459 8924h-1v-1h1v1zM456 8924h-4v-1h4v1zM464 8923h-1v-1h1v1zM462 8923h-3l1 -1h2v1zM458 8923h-1v-1h1v1zM463 8922h-1v-1h1v1zM466 8923l-1 -1l3 -1l2 -1l1 2h-1h-4v1zM489 8916h-1v-1h1v1zM490 8913l-1 -1v-1l1 1v1zM488 8908h-1v-1h1v1zM486 8909l-2 -1v-1h2l1 1l-1 1zM484 8907h-2v-1h2v1zM481 8907h-1v-1h1v1zM480 8906h-1v-1h1v1zM478 8906h-2v-1h2v1zM474 8905h-2v-1h3l-1 1zM459 8905h-1v-1h1v1zM477 8904h-1v-1h1v1zM466 8902h-1v-1h1v1zM464 8903h-2v-1v-1l2 1v1zM460 8902h-1l1 -1h1l-1 1zM454 8902h-1v-1h1v1zM452 8902h-1v-1h1v1zM449 8902h-1v-1h1v1zM456 8902l-1 -1v-1h1v2zM453 8901h-1v-1h1v1zM441 8901h-1v-1h1v1zM438 8901h-2v-1h2v1zM450 8900h-2v-1h2v1zM446 8900h-2v-1h3l-1 1zM443 8900h-1v-1h1v1zM416 8935h-1v-1h1v1zM428 8933h-1v-1h1v1zM424 8934h-2l2 -2h1l-1 2zM422 8933h-1v-1h1v1zM432 8932h-1v-1h1v1zM436 8931h-1v-1h1v1zM418 8930h-1v-1h1v1zM416 8930h-1v-1h1v1zM424 8929h-2v-1h2v1zM420 8930l-1 -2h1h1v2h-1zM428 8928h-1l1 -1h1l-1 1zM426 8928h-2v-1h2v1zM436 8927h-6v-1h6v1zM435 8901h-1v-1h1v1zM418 8900h-1v-1h1v1zM414 8900h-2v-1h2v1zM411 8900h-1v-1h1v1zM440 8899h-5l1 -1h5l-1 1zM434 8899h-1v-1h1v1zM430 8899h-4v-1h4v1zM420 8899h-1v-1h1v1zM402 8899h-1v-1h1v1zM400 8899h-2v-1h2v1zM383 8899h-1v-1h1v1zM380 8899h-1v-1h1v1zM377 8899h-1v-1h1v1zM373 8899h-1v-1h1v1zM405 8898h-1v-1h1v1zM423 8897h-1v-1h1v1zM416 8898v-1l4 -1v1h-2l-2 1zM396 8897h-1l1 -1h1l-1 1zM392 8897h-1v-1h1v1zM390 8897h-1v-1h1v1zM388 8897h-5l1 -1h4v1zM382 8897h-1v-1h1v1zM373 8897h-1v-1h1v1zM405 8896h-1v-1h1v1zM411 8895h-1v-1h1v1zM409 8895h-1v-1h1v1zM398 8894h-2v-1h2v1zM395 8894h-1v-1h1v1zM375 8894h-1v-1h1v1zM383 8880h-1v-1h1v1zM374 8880h-1v-1h1v1zM387 8879h-1v-1h1v1zM392 8878h-2v-1h2v1zM395 8877h-1v-1h1v1zM405 8876h-1v-1h1v1zM400 8876h-2v-1h2v1zM391 8876h-1v-1h1v1zM348 8900h-1v-1h1v1zM331 8900h-3v-1h3v1zM327 8900h-1v-1h1v1zM368 8899h-4v-1h5l-1 1zM363 8899h-1v-1h1v1zM350 8898h-4v-1h4v1zM324 8898h-2v-1h2v1zM322 8899h-5v-1l1 -1v1h4v1zM315 8898h-1v-1h1v1zM370 8897h-1v-1h1v1zM366 8897h-5l1 -1h4v1zM356 8897h-1v-1h1v1zM320 8897h-1v-1h1v1zM313 8897h-1v-1h1v1zM343 8896h-1v-1h1v1zM340 8896h-1v-1h1v1zM319 8896h-1v-1h1v1zM312 8896h-1v-1h1v1zM355 8895h-1v-1h1v1zM352 8895h-1v-1h1v1zM348 8895h-5l1 -1h4v1zM342 8895h-1v-1h1v1zM328 8895h-2v-1h2v1zM324 8895h-1l1 -1h1l-1 1zM322 8895h-2v-1h2v1zM372 8894h-2v-1h2v1zM368 8894h-2v-1h3l-1 1zM364 8894h-2v-1h3l-1 1zM361 8894h-1v-1h1v1zM357 8894h-1v-1h1v1zM341 8894h-1v-1h1v1zM355 8893h-1v-1h1v1zM320 8893h-1l1 -1h1l-1 1zM370 8892h-5l1 -1h4v1zM340 8892h-1v-1h1v1zM327 8892h-1v-1h1v1zM323 8892h-1v-1h1v1zM313 8892h-1v-1h1v1zM318 8891h-2v-1h2v1zM315 8891h-1v-1h1v1zM349 8890h-1v-1h1v1zM327 8890h-1v-1h1v1zM321 8890h-1v-1h1v1zM353 8889h-1v-1h1v1zM325 8889h-1v-1h1v1zM320 8889h-2v-1h2v1zM358 8888h-1l1 -1h1l-1 1zM336 8888h-1v-1h1v1zM324 8888h-1v-1h1v1zM363 8887h-1v-1h1v1zM337 8885h-1v-1h1v1zM370 8883h-1v-1h1v1zM357 8881h-1v-1h1v1zM528 8875h-1l1 -1h1l-1 1zM526 8876l-4 -1h-2v-1l6 1v1zM524 8874h-1v-1h1v1zM520 8874h-3l1 -1h2v1zM509 8874h-1v-1h1v1zM522 8873h-2v-1h2v1zM516 8873h-2v-1h2v1zM524 8872h-1v-1h1v1zM518 8872h-1v-1h1v1zM514 8872h-1v-1h1v1zM512 8872h-1v-1h1v1zM508 8872h-1v-1h1v1zM515 8871h-1v-1h1v1zM509 8871h-1v-1h1v1zM512 8870h-1v-1h1v1zM508 8870h-1v-1h1v1zM509 8869h-1v-1h1v1zM506 8870l-2 -1h-1l1 -1h2v2zM507 8868h-1v-1h1v1zM502 8868h-2v-1h3l-1 1zM504 8867h-1v-1h1v1zM501 8866h-1v-1h1v1zM502 8864h-1v-1h1v1zM500 8867h-1v-1h1v1zM498 8867l-2 -1h-1l1 -1h2v1v1zM494 8865h-2v-1h2v1zM496 8864h-1v-1h1v1zM439 8864h-1v-1h1v1zM499 8863h-1v-1h1v1zM476 8863h-1v-1h1v1zM446 8863h-2v-1h2v1zM492 8864l-4 -1v-1l2 -1v1h2v2zM452 8862h-1v-1h1v1zM450 8862h-1v-1h1v1zM488 8861h-1v-1h1v1zM486 8861h-1v-1h1v1zM456 8862h-1v-2h1l1 2h-1zM484 8861h-4v-1l4 -1l1 1l-1 1zM458 8860h-1l1 -1h1l-1 1zM447 8860h-1v-1h1v1zM480 8859h-2v-1h2v1zM477 8859h-1v-1h1v1zM460 8859h-1v-1h1v1zM455 8860l-1 -1v-1h1v2zM451 8859h-1v-1h1v1zM448 8859h-1v-1h1v1zM485 8858h-1v-1h1v1zM474 8859l-2 -1v-1h4v1l-2 1zM457 8858h-1v-1h1v1zM481 8857h-1v-1h1v1zM470 8857h-2v-1h3l-1 1zM478 8856h-1v-1h1v1zM467 8857h-3v-1h2v-1l1 1v1zM456 8857l-1 -1v-1l1 1v1zM466 8855h-1v-1h1v1zM464 8856h-2l-1 -2h1h2v2zM460 8854h-1l1 -1h1l-1 1zM455 8854h-1v-1h1v1zM459 8853h-1v-1h1v1zM456 8853h-1v-1l1 -1l1 1l-1 1zM449 8852h-1v-1h1v1zM454 8852h-2h-1l1 -2l2 2zM446 8851h-1v-1h1v1zM450 8851l-2 -1v-1h2l1 1l-1 1zM443 8850h-1v-1h1v1zM446 8850l-2 -1v-1h3v2h-1zM444 8848h-1v-1h1v1zM437 8848h-1v-1h1v1zM408 8875h-1v-1h1v1zM403 8875h-1v-1h1v1zM398 8875h-1v-1h1v1zM411 8874h-1v-1h1v1zM396 8874h-1l1 -1h1l-1 1zM415 8873h-1v-1h1v1zM406 8874h-2v-2l2 1h1l-1 1zM403 8873h-1v-1h1v1zM400 8873h-1v-1h1v1zM392 8873h-1v-1h1v1zM418 8872h-1v-1h1v1zM404 8872h-1v-1h1v1zM397 8872h-1v-1h1v1zM417 8871h-1v-1h1v1zM400 8871h-1v-1h1v1zM426 8870h-1v-1h1v1zM404 8870h-1v-1h1v1zM430 8869h-1v-1h1v1zM424 8869h-1v-1h1v1zM420 8869h-2v-1h2v1zM414 8870l-1 -2h1h1v2h-1zM408 8869h-2v-1h2v1zM434 8868h-1v-1h1v1zM418 8868h-1v-1h1v1zM422 8868l-1 -2h1h1v2h-1zM430 8866h-1l1 -1h1l-1 1zM428 8867h-2l-2 -1v-1l4 1v1zM418 8866h-1v-1h1v1zM434 8865h-1v-1l1 -1l1 1l-1 1zM416 8861h-1v-1h1v1zM380 8860h-1v-1h1v1zM379 8857h-1v-1h1v1zM387 8856h-1v-1h1v1zM385 8856h-1v-1h1v1zM397 8854h-1v-1h1v1zM395 8854h-1v-1h1v1zM387 8854h-1v-1h1v1zM384 8854h-1v-1h1v1zM380 8855h-4l-1 -1l1 -1h4l1 1l-1 1zM402 8853h-2v-1h2v1zM392 8853h-1l1 -1h1l-1 1zM404 8852h-1v-1h1v1zM396 8852h-1v-1h1v1zM408 8851h-1v-1h1v1zM409 8850h-1v-1h1v1zM404 8850h-1l1 -1h1l-1 1zM407 8849h-1v-1h1v1zM408 8848h-1v-1h1v1zM411 8847h-1v-1h1v1zM409 8847h-1v-1h1v1zM436 8846h-1v-1h1v1zM408 8846h-1v-1h1v1zM434 8845h-1l1 -1h1l-1 1zM429 8845h-1v-1h1v1zM410 8845h-1v-1h1v1zM407 8845h-1v-1h1v1zM409 8844h-1v-1h1v1zM406 8844h-1v-1h1v1zM432 8844l-4 -1v-1h2l2 2zM408 8843h-1v-1h1v1zM406 8842h-1v-1h1v1zM428 8842h-4v-2h2l2 1v1zM402 8840h-1v-1h1v1zM399 8839h-1v-1h1v1zM391 8839h-1v-1h1v1zM394 8838h-2l2 -2v2zM390 8837h-1l1 -1h1l-1 1zM388 8837h-1v-1h1v1zM416 8837h-2l-2 -1v-1l4 1h1l-1 1zM389 8836h-1v-1h1v1zM383 8836h-1v-1h1v1zM412 8835h-2v-1h2v1zM384 8835h-1l1 -1h1l-1 1zM377 8835h-1v-1h1v1zM374 8835h-1v-1h1v1zM410 8834h-2v-1h2v1zM408 8833h-2v-1h2v1zM375 8833h-1v-1h1v1zM406 8832h-2v-1h2v1zM394 8832h-1v-1h1v1zM403 8831h-1v-1h1v1zM400 8830h-1l1 -1h1l-1 1zM398 8829h-1l1 -1h1l-1 1zM384 8829h-1v-1h1v1zM396 8828h-1l1 -1h1l-1 1zM395 8827h-1v-1h1v1zM382 8828l-1 -1v-1h1v2zM380 8827h-1v-1h1v1zM378 8827h-1v-1h1v1zM392 8827l-1 -1l1 -1h1v1l-1 1zM379 8826h-1v-1h1v1zM377 8826h-1v-1h1v1zM376 8825h-2v-1h2v1zM390 8825h-2l-2 -1v-1l4 1h1l-1 1zM373 8825l-1 -1v-1l1 1v1zM384 8823h-1v-1h1v1zM382 8823h-2v-1v-1l2 1v1zM378 8821h-2v-1h3l-1 1zM376 8820h-1v-1h1v1zM374 8821l-1 -1v-1l1 1v1zM326 8868h-1v-1h1v1zM337 8867h-1v-1h1v1zM324 8868h-3v-2h1l2 2zM352 8866h-3l1 -1h3l-1 1zM334 8867h-2l-1 -1l1 -1h2l1 1l-1 1zM324 8866h-1v-1h1v1zM316 8866h-1v-1h1v1zM363 8865h-1v-1h1v1zM336 8865h-2v-1h2v1zM330 8865h-1v-1h1v1zM318 8866l-1 -1v-1h1v2zM353 8864h-1v-1h1v1zM360 8863h-1v-1h1v1zM361 8862h-1v-1h1v1zM358 8862h-2v-1h3l-1 1zM355 8862h-1v-1h1v1zM316 8862h-1v-1h1v1zM314 8862h-1v-1h1v1zM372 8861h-1v-1h1v1zM370 8861h-1v-1h1v1zM326 8861h-1v-1h1v1zM322 8861h-1l1 -1h1l-1 1zM320 8861h-1v-1h1v1zM312 8861h-1v-1h1v1zM363 8860h-1v-1h1v1zM338 8860h-1v-1h1v1zM336 8860h-2v-1h2v1zM333 8860h-1v-1h1v1zM314 8860h-1l1 -1h1l-1 1zM346 8859h-5l1 -1h5l-1 1zM322 8859h-1v-1h1v1zM318 8859h-3l1 -1h2v1zM365 8858h-1v-1h1v1zM355 8859h-1l-1 -1l1 -1l1 1v1zM352 8858h-4v-1h4v1zM329 8858h-1v-1h1v1zM361 8857h-1v-1h1v1zM356 8857h-1l1 -1h1l-1 1zM368 8856h-2v-1h2v1zM364 8857l-1 -1l1 -1l1 1l-1 1zM359 8835h-1v-1h1v1zM367 8834h-1v-1h1v1zM352 8834h-1v-1h1v1zM344 8834h-1l1 -1h1l-1 1zM372 8834l-1 -1v-1h1v2zM370 8833h-1v-1h1v1zM364 8834h-2v-2l2 1h1l-1 1zM360 8833h-4v-1h5l-1 1zM355 8833h-1v-1h1v1zM339 8833h-1v-1h1v1zM337 8833h-1v-1h1v1zM335 8833h-1v-1h1v1zM368 8832h-5l1 -1h4v1zM351 8832h-1v-1h1v1zM346 8832h-1v-1h1v1zM331 8832h-1v-1h1v1zM328 8832h-1l1 -1h1l-1 1zM326 8832h-2v-1h2v1zM323 8832h-1v-1h1v1zM360 8831h-1v-1h1v1zM358 8831h-1v-1h1v1zM354 8831h-1l1 -1h1l-1 1zM316 8831h-1v-1h1v1zM313 8831h-1v-1h1v1zM366 8830h-1l1 -1h1l-1 1zM349 8830h-1v-1h1v1zM359 8829h-1v-1h1v1zM354 8829h-1v-1h1v1zM326 8829h-1v-1h1v1zM349 8828h-1v-1h1v1zM345 8828h-1v-1h1v1zM314 8828h-1v-1h1v1zM329 8826h-1v-1h1v1zM325 8826h-1v-1h1v1zM317 8826h-1v-1h1v1zM311 8824h-1v-1h1v1zM309 8824h-1v-1h1v1zM369 8823h-1v-1h1v1zM366 8823h-2v-1h2v1zM362 8822h-1v-1h1v1zM358 8821h-1v-1h1v1zM356 8820h-2v-1h2v1zM372 8819h-1v-1h1v1zM367 8819h-1v-1h1v1zM352 8819h-1l1 -1h1l-1 1zM368 8818h-1v-1h1v1zM349 8818h-1v-1h1v1zM364 8817h-1v-1h1v1zM346 8817h-2v-1h3l-1 1zM356 8816h-1v-1h1v1zM343 8816h-1v-1h1v1zM340 8815h-2v-1h2v1zM349 8814h-1v-1h1v1zM336 8814h-1v-1h1v1zM346 8813h-1v-1h1v1zM333 8813h-1v-1h1v1zM329 8812h-1v-1h1v1zM308 8830h-2v-1h2v1zM304 8830h-2v-1h3l-1 1zM301 8830h-1v-1h1v1zM252 8830h-3l1 -1h2v1zM247 8830h-1v-1h1v1zM292 8829h-1v-1h1v1zM284 8829h-1l1 -1h1l-1 1zM282 8829h-3l1 -1h2v1zM278 8829h-1v-1h1v1zM274 8829h-4v-1h4v1zM264 8829h-1v-1h1v1zM261 8829h-1v-1h1v1zM258 8829h-1v-1h1v1zM246 8829h-1v-1h1v1zM304 8827h-1v-1h1v1zM289 8826h-1v-1h1v1zM307 8825h-1v-1h1v1zM304 8825h-1v-1l1 -1l1 1l-1 1zM253 8817h-1v-1h1v1zM262 8815h-2v-1h2v1zM259 8815h-1v-1h1v1zM248 8812h-1v-1h1v1zM245 8812h-1v-1h1v1zM325 8811h-1v-1h1v1zM334 8810h-1l1 -1h1l-1 1zM322 8810h-1v-1h1v1zM330 8809h-1l1 -1h1l-1 1zM328 8808h-2v-1h3l-1 1zM326 8807h-1v-1h1v1zM334 8805h-1v-1h1v1zM332 8805h-1v-1h1v1zM315 8804h-1v-1h1v1zM311 8803h-1v-1h1v1zM251 8811h-1v-1h1v1zM278 8810h-1v-1h1v1zM269 8810h-1v-1h1v1zM254 8810h-1l1 -1h1l-1 1zM272 8809h-1v-1h1v1zM260 8809h-3l1 -1h2v1zM250 8809h-1v-1h1v1zM248 8809h-3l1 -1h2v1zM275 8808h-1v-1h1v1zM268 8808h-1v-1h1v1zM254 8808h-4v-1h4v1zM277 8807h-1v-1h1v1zM266 8807h-1v-1h1v1zM255 8807h-1v-1h1v1zM279 8806h-1v-1h1v1zM270 8806h-1v-1h1v1zM281 8805h-1v-1h1v1zM277 8805h-1v-1h1v1zM274 8805h-1v-1h1v1zM268 8805h-2v-1h2v1zM282 8804h-1v-1h1v1zM271 8804h-1v-1h1v1zM269 8804h-1v-1h1v1zM278 8803h-1v-1h1v1zM273 8803h-1v-1h1v1zM286 8803l-1 -1v-1l1 1v1zM283 8801h-1v-1h1v1zM274 8803v-1l2 -2h1l-3 3zM286 8800h-1v-1h1v1zM280 8800h-2v-1h2v1zM282 8799h-1v-1h1v1zM285 8798h-1v-1h1v1zM277 8798h-1v-1h1v1zM274 8796h-1v-1h1v1zM272 8796h-1v-1h1v1zM284 8795h-1v-1h1v1zM278 8795h-1v-1h1v1zM270 8795h-1v-1h1v1zM280 8794h-1v-1h1v1zM276 8794h-1v-1h1v1zM266 8794h-2v-1h2v1zM274 8793h-2v-1h2v1zM262 8793h-1v-1h1v1zM279 8792h-1v-1h1v1zM271 8792h-1v-1h1v1zM264 8792h-2v-1h2v1zM258 8792h-1v-1h1v1zM256 8792h-3l1 -1h2v1zM268 8791h-2v-1h2v1zM259 8791h-1v-1h1v1zM246 8791h-1v-1h1v1zM275 8790h-1v-1h1v1zM264 8790h-1v-1h1v1zM262 8790h-1v-1h1v1zM249 8790l-1 1l-1 -1l1 -1h3l-1 1h-1zM247 8790h-1v-1h1v1zM272 8789h-1v-1h1v1zM260 8789h-3l1 -1h3l-1 1zM254 8788h-1v-1h1v1zM252 8788h-1v-1h1v1zM250 8788h-3l1 -1h2v1zM246 8788l-1 -1l1 -1h1l-1 2zM188 9083h-1v-1h1v1zM192 9082h-1l1 -1h1l-1 1zM209 9081h-1v-1h1v1zM198 9081h-2v-1h2v1zM214 9080h-2v-1h3l-1 1zM202 9080h-1v-1h1v1zM193 9080h-1v-1h1v1zM183 9080h-1v-1h1v1zM188 9079h-2v-1h2v1zM181 9079h-1v-1h1v1zM214 9078h-1l1 -1h1l-1 1zM186 9078h-1v-1h1v1zM219 9077h-1v-1h1v1zM197 9077h-1v-1h1v1zM190 9077h-2v-1h2v1zM203 9076h-1v-1h1v1zM228 9075h-1v-1h1v1zM207 9075h-1v-1h1v1zM202 9075h-2v-1h2v1zM208 9074h-1v-1h1v1zM206 9074h-1v-1h1v1zM218 9073h-1v-1h1v1zM241 9072h-1v-1h1v1zM222 9072h-1v-1h1v1zM228 9071h-1v-1h1v1zM225 9071h-1v-1h1v1zM226 9070h-1l1 -1h1l-1 1zM242 9069h-1v-1h1v1zM235 9069h-1v-1h1v1zM233 9069h-1v-1h1v1zM231 9069h-1v-1h1v1zM238 9068h-1v-1h1v1zM180 9085h-1v-1h1v1zM180 9081h-1v-1h1v1zM242 9067h-1l1 -1h1l-1 1zM239 9067h-1v-1h1v1zM185 9032h-1v-1h1v1zM199 9031h-1v-1h1v1zM188 9031h-1l1 -1h1l-1 1zM183 9031h-1v-1h1v1zM194 9030h-1v-1h1v1zM187 9030h-1v-1h1v1zM198 9029h-1l1 -1h1l-1 1zM190 9029h-2v-1h3l-1 1zM201 9028h-1v-1h1v1zM190 8838h-1v-1h1v1zM209 8836h-1v-1h1v1zM203 8836h-1v-1h1v1zM216 8835h-1v-1h1v1zM212 8835h-3l1 -1h2v1zM196 8833h-1l1 -1h1l-1 1zM194 8833h-1v-1h1v1zM185 8833h-1v-1h1v1zM196 8831h-1v-1h1v1zM193 8830h-1v-1h1v1zM191 8830h-1v-1h1v1zM188 8830h-1l1 -1h1l-1 1zM186 8830h-1v-1h1v1zM210 8822h-1v-1h1v1zM216 8821h-2v-1h2v1zM243 8819h-1v-1h1v1zM228 8819h-1v-1h1v1zM207 8819h-1v-1h1v1zM197 8819h-1v-1h1v1zM195 8819h-1v-1h1v1zM202 8818h-1v-1h1v1zM218 8817h-1v-1h1v1zM207 8817h-1v-1h1v1zM227 8816h-1v-1h1v1zM212 8816h-1v-1h1v1zM232 8815h-2v-1h2v1zM228 8815h-1v-1h1v1zM221 8815h-1v-1h1v1zM216 8815h-1v-1h1v1zM238 8814h-1v-1h1v1zM234 8814h-1v-1h1v1zM224 8814h-3l1 -1h2v1zM213 8814h-1v-1h1v1zM242 8813h-1v-1h1v1zM239 8813h-1v-1h1v1zM238 8812h-1v-1h1v1zM228 8813h-1v-1l1 -1l1 1l-1 1zM226 8814l-2 -2l2 -1v1l1 2h-1zM244 8810l-2 1h-2v-1l2 -1h2v1zM238 8811v-1l2 -1v1l-2 1zM203 8793h-1v-1h1v1zM200 8793h-2v-1h2v1zM197 8793h-1v-1h1v1zM195 8793h-1v-1h1v1zM188 8793h-2v-1h3l-1 1zM185 8793h-1v-1h1v1zM181 8793h-1v-1h1v1zM192 8793h-2v-1v-1l2 1v1zM242 8791l-2 -1v-1h2v1v1zM239 8790h-1v-1h1v1zM236 8790h-4l2 -2h4l-2 2zM230 8789h-1v-1h1v1zM228 8789h-3l1 -1h2v1zM204 8789h-1v-1h1v1zM201 8789h-1v-1h1v1zM194 8789h-5l1 -1h4v1zM187 8789h-1v-1h1v1zM184 8789h-1l1 -1h1l-1 1zM181 8789h-1v-1h1v1zM212 8789h-2v-1l2 -1l1 1l-1 1zM209 8789h-3v-1h2v-1l1 1v1zM202 8788h-1v-1h1v1zM199 8789l-1 -1v-1l1 1v1zM196 8789l-2 -1v-1h2l1 1l-1 1zM244 8787h-1v-1h1v1zM242 8787h-4v-1h4v1zM236 8787h-1l1 -1h1l-1 1zM201 8787h-1v-1h1v1zM191 8787h-1v-1h1v1zM189 8787h-1v-1h1v1zM185 8787h-1v-1h1v1zM227 8786h-1v-1h1v1zM222 8786h-3l1 -1h3l-1 1zM204 8786h-1v-1h1v1zM198 8785h-2v-1h2v1zM195 8785h-1v-1h1v1zM192 8785h-1v-1h1v1zM186 8785h-1l1 -1h1l-1 1zM184 8785h-2v-1h2v1zM181 8784h-1v-1h1v1zM204 8782h-1v-1h1v1zM186 8782h-2v-1h2v1zM180 8785h-1v-1h1v1zM66 9336h-4v-1h4v1zM61 9336h-1v-1h1v1zM70 9335h-3l1 -1h2v1zM66 9333h-2v-1h2v1zM81 9332h-1v-1h1v1zM68 9332h-2v-1h2v1zM63 9332h-1v-1h1v1zM59 9332h-1v-1h1v1zM74 9331h-1v-1h1v1zM69 9331h-1v-1h1v1zM64 9331h-1l1 -1h1l-1 1zM62 9331h-2v-1h2v1zM84 9330h-1v-1h1v1zM76 9330h-1v-1h1v1zM70 9330h-1v-1h1v1zM89 9329h-1v-1h1v1zM78 9329h-2v-1h2v1zM73 9329h-1v-1h1v1zM66 9330l-1 -2h1h1v2h-1zM72 9328h-1v-1h1v1zM92 9327h-1v-1h1v1zM89 9327h-1v-1h1v1zM76 9327h-1l1 -1h1l-1 1zM74 9327h-1v-1h1v1zM93 9326h-1v-1h1v1zM78 9326h-1v-1h1v1zM92 9325h-1v-1h1v1zM83 9326h-1h-1l1 -2h1v2zM86 9324h-1v-1h1v1zM81 9324h-1v-1h1v1zM79 9325l-1 -1v-1l1 1v1zM164 9303v-1l1 1h-1zM145 9301h-1v-1h1v1zM124 9300h-1v-1h1v1zM150 9299h-1v-1h1v1zM143 9299h-1v-1h1v1zM140 9300h-2v-2h2v2zM128 9299h-1v-1h1v1zM126 9299h-1v-1h1v1zM146 9298h-3l1 -1h2v1zM132 9298h-4v-1h4v1zM142 9297h-2v-1h2v1zM136 9297h-3l1 -1h3l-1 1zM145 9296h-1v-1h1v1zM143 9296h-1v-1h1v1zM139 9296h-1v-1h1v1zM142 9295h-1v-1h1v1zM118 9296h-2l2 -2h1l-1 2zM162 9294h-1v-1h1v1zM155 9294h-1v-1h1v1zM132 9294h-1v-1h1v1zM122 9294h-3l1 -1h2v1zM164 9293h-1l1 -1h1l-1 1zM137 9293h-1v-1h1v1zM127 9293h-1v-1h1v1zM166 9292h-1l1 -1h1l-1 1zM154 9292h-2v-1h3l-1 1zM140 9292h-1v-1h1v1zM130 9292h-3l1 -1h2v1zM124 9293h-2v-1l4 -1v1l-2 1zM156 9291h-1l1 -1h1l-1 1zM136 9291h-2v-1h2v1zM132 9292l-2 -2h2h1l-1 2zM173 9290h-1v-1h1v1zM171 9290h-1v-1h1v1zM165 9290h-1v-1h1v1zM145 9290h-1v-1h1v1zM139 9290h-1v-1h1v1zM174 9289h-1v-1h1v1zM140 9289h-1v-1h1v1zM176 9288h-1l1 -1h1l-1 1zM153 9287h-1v-1h1v1zM172 9285h-1v-1h1v1zM176 9283h-1v-1h1v1zM165 9282h-1v-1h1v1zM178 9280h-1v-1h1v1zM170 9280h-1v-1h1v1zM88 9323h-2v-1h2v1zM83 9323h-1v-1h1v1zM86 9313h-1l1 -1h1l-1 1zM88 9312h-1v-1h1v1zM105 9311v-1h1h1l-1 1h-1zM89 9311h-1v-1h1v1zM102 9311l-1 -1v-1l1 1v1zM91 9310h-1v-1h1v1zM92 9309h-1v-1h1v1zM116 9308h-1v-1h1v1zM94 9308h-1l1 -1h1l-1 1zM96 9307h-1v-1h1v1zM115 9306l-1 1h-1v-2h1v1h1zM97 9306h-1v-1h1v1zM113 9305h-1v-1h1v1zM100 9304l-2 1v-1l2 -1l2 -1h1l-1 2h-2zM104 9302h-1l1 -1h1l-1 1zM106 9301h-1l1 -1h1l-1 1zM-265 9280h-1v-1h1v1zM-267 9279h-1v-1h1v1zM-259 9278h-1v-1h1v1zM-260 9279h-2l-1 -1l1 -1l2 1v1zM-253 9276h-1v-1h1v1zM-256 9277h-3l1 -1l2 -1v1v1zM-250 9274h-1l1 -1h1l-1 1zM-244 9273h-2l-1 -1l1 -1l2 1v1zM-257 9272h-1v-1h1v1zM-254 9271h-1v-1h1v1zM-264 9271h-2v-1h2v1zM-236 9270h-1v-2h1l1 2h-1zM-260 9269h-1l1 -1h1l-1 1zM-229 9268h-1v-1h1v1zM-231 9269h-1l-1 -1l1 -1l1 1v1zM-233 9268h-1v-1h1v1zM-257 9268h-1v-1h1v1zM-230 9267h-1v-1h1v1zM-227 9267l-1 -1v-1l1 1v1zM-254 9267v-1l2 -1h1l-1 1l-2 1zM-250 9265h-1l1 -1h1l-1 1zM-233 9264h-1v-1h1v1zM-228 9263h-2v-1h2v1zM-244 9263h-1l1 -1h1l-1 1zM-266 9263h-1v-1h1v1zM-238 9262h-5l1 -1h4v1zM-229 9261h-1v-1h1v1zM-232 9262l-4 -1v-1h5v2h-1zM-237 9261h-1v-1h1v1zM-259 9260h-1v-1h1v1zM-310 9295h-2v-1h2v1zM-314 9295h-1l1 -1h1l-1 1zM-304 9294h-1l1 -1h1l-1 1zM-306 9294h-3l1 -1h2v1zM-310 9293h-1l1 -1h1l-1 1zM-314 9293h-1l1 -1h1l-1 1zM-296 9292h-2v-1h2v1zM-300 9293h-2l-1 -1l1 -1l2 1h1l-1 1zM-316 9292h-1v-1h1v1zM-319 9291l1 1l2 1h1l-1 1l-4 -1v-2h1zM-298 9291h-2v-1h2v1zM-304 9291h-1v-1h1v1zM-308 9291h-1v-1h1v1zM-319 9291v-1h1v1h-1zM-320 9291l-1 -1h1v1zM-294 9291l-2 -1v-1h2l1 1l-1 1zM-300 9290h-1v-1h1v1zM-302 9290h-1v-1h1v1zM-306 9290h-1v-1h1v1zM-290 9290l-1 -1v-1h1v2zM-296 9289h-2v-1h2v1zM-287 9289l-1 -1v-1l1 1v1zM-292 9288h-2v-1h2v1zM-302 9288h-1v-1h1v1zM-284 9288l-2 -2h2h1l-1 2zM-290 9287h-1l1 -1h1l-1 1zM-312 9287h-1v-1h1v1zM-315 9287v-1h1v1h-1zM-321 9290h-1v-4h1v4zM-280 9286h-1v-1h1v1zM-286 9286h-2v-1h2v1zM-295 9286h-1v-1h1v1zM-300 9286h-2v-1h2v1zM-318 9286h-1v-1h1v1zM-278 9286l-1 -1l3 -1v1h-2v1zM-283 9285h-1v-1h1v1zM-297 9285h-1v-1h1v1zM-305 9285h-1v-1h1v1zM-320 9286l-1 -1v-1h1v2zM-275 9284h-1v-1h1v1zM-280 9284h-1v-1h1v1zM-288 9284h-1v-1h1v1zM-293 9284h-1v-1h1v1zM-300 9284h-1v-1h1v1zM-302 9284h-1v-1h1v1zM-308 9284h-1v-1h1v1zM-316 9286v-2l2 -1v1l-1 2h-1zM-319 9284h-1v-1h1v1zM-277 9283h-1v-1h1v1zM-297 9283h-1v-1h1v1zM-305 9283h-1v-1h1v1zM-310 9282h1l-1 1v-1zM-318 9283h-1v-1h1v1zM-274 9282h-2v-1h2v1zM-293 9282h-1v-1h1v1zM-302 9282h-1l1 -1h1l-1 1zM-317 9282h-1v-1h1v1zM-272 9281h-1v-1h1v1zM-284 9281h-1v-1h1v1zM-306 9281h-1v-1h1v1zM-311 9282v-2h1h1l-1 2h-1zM-313 9281h-1v-1h1v1zM-316 9281h-1v-1h1v1zM-281 9280h-1v-1h1v1zM-293 9280h-1v-1h1v1zM-299 9280h-1v-1h1v1zM-278 9279h-1v-1h1v1zM-307 9279l-1 1h-1l1 -2v1h1zM-314 9280h-2l2 -2h1l-1 2zM-282 9278h-1l1 -1h1l-1 1zM-296 9278h-1v-1h1v1zM-309 9278h-1v-1h1v1zM-312 9278h-1v-1h1v1zM-292 9277h-1v-1h1v1zM-303 9277h-1v-1h1v1zM-311 9277h-1v-1h1v1zM-278 9276h-1l1 -1h1l-1 1zM-304 9276h-1v-1h1v1zM-309 9276h-1v-1h1v1zM-274 9275h-1v-1h1v1zM-291 9275h-1v-1h1v1zM-300 9275h-1v-1h1v1zM-302 9276h-1v-2h1l1 2h-1zM-308 9275h-1l1 -1h1l-1 1zM-272 9274h-1v-1h1v1zM-306 9274h-1v-1h1v1zM-269 9273h-1v-1h1v1zM-288 9273h-1v-1h1v1zM-296 9273h-2v-1h2v1zM-299 9274l-1 -1v-1h1v2zM-305 9273h-1v-1h1v1zM-268 9272h-1v-1h1v1zM-286 9272h-1v-1h1v1zM-303 9272h-1v-1h1v1zM-296 9271h-1v-1h1v1zM-301 9271h-1v-1h1v1zM-282 9270h-1v-1h1v1zM-294 9271h-1v-1l1 -1l1 1l-1 1zM-278 9268h-1v-1h1v1zM-288 9268h-1v-1h1v1zM-276 9267h-1v-1h1v1zM-274 9266h-1v-1h1v1zM-284 9266h-1v-1h1v1zM-286 9267h-2v-1l2 -1l1 1l-1 1zM-271 9265h-1v-1h1v1zM-283 9265h-1v-1h1v1zM-269 9264h-1v-1h1v1zM-282 9265v-1l2 -2h2l-2 2l-2 1zM-276 9262h-2v-1h3l-1 1zM-274 9261h-1l1 -1h1l-1 1zM-270 9260h-3l1 -1h2v1zM-202 9227h-1l1 -1h1l-1 1zM-200 9226h-1l1 -1h1l-1 1zM-197 9225h-1v-1h1v1zM-194 9224h-2v-1h2v1zM-200 9224h-2v-1h2v1zM-203 9225l-1 -1v-1l1 1v1zM-192 9223h-1v-1h1v1zM-198 9223h-1v-1h1v1zM-191 9222h-1v-1h1v1zM-196 9222h-1v-1h1v1zM-194 9221h-1v-1h1v1zM-187 9220h-1v-1h1v1zM-192 9220h-1v-1h1v1zM-203 9220h-1v-1h1v1zM-185 9219h-1v-1h1v1zM-190 9219h-1v-1h1v1zM-201 9219h-1v-1h1v1zM-184 9218h-1v-1h1v1zM-188 9218h-1v-1h1v1zM-182 9217h-1v-1h1v1zM-181 9216h-1v-1h1v1zM-185 9216h-1v-1h1v1zM-184 9215h-1v-1h1v1zM-179 9214h-1v-1h1v1zM-182 9214h-1v-1h1v1zM-181 9213h-1v-1h1v1zM-192 9213h-1v-1h1v1zM-180 9212h-1v-1h1v1zM-187 9212h-1v-1h1v1zM-179 9211h-1v-1h1v1zM-175 9209h-1v-1h1v1zM-178 9209h-1v-1h1v1zM-180 9209h-1v-1h1v1zM-185 9208h-1v-1h1v1zM-182 9208l-1 -1v-1h1v2zM-178 9206h-1v-1h1v1zM-176 9205h-1v-1h1v1zM-184 9203h-2v-1h2v1zM-184 9201h-1v-1h1v1zM-266 9258v-1l2 -1h1l-1 1l-2 1zM-259 9255h-1v-1h1v1zM-262 9256l-1 -1v-1h1v2zM-256 9254h-1v-1h1v1zM-260 9254h-1v-1h1v1zM-254 9253h-2v-1h2v1zM-266 9252h-1v-1h1v1zM-252 9252l-1 -1l3 -1v1h-2v1zM-254 9251h-1v-1h1v1zM-238 9250h-1v-1h1v1zM-261 9250h-1v-1h1v1zM-236 9249h-1v-1h1v1zM-259 9249h-1v-1h1v1zM-240 9248h-1v-1h1v1zM-257 9248h-1v-1h1v1zM-244 9247h-1l1 -1h1l-1 1zM-255 9247h-1v-1h1v1zM-241 9246h-1v-1h1v1zM-253 9246h-1v-1h1v1zM-243 9245h-1v-1h1v1zM-251 9245h-1v-1h1v1zM-227 9244h-1v-1h1v1zM-234 9245h-2v-1l2 -1l1 1l-1 1zM-238 9244h-1v-1h1v1zM-241 9244h-1v-1h1v1zM-249 9244h-1v-1h1v1zM-225 9243h-1v-1h1v1zM-232 9243h-1l1 -1h1l-1 1zM-239 9243h-1v-1h1v1zM-248 9243h-1v-1h1v1zM-223 9242h-1v-1h1v1zM-237 9242h-1v-1h1v1zM-246 9242h-1v-1h1v1zM-229 9242h-1h-1l1 -2h3l-1 1l-1 1zM-220 9240h-1v-1h1v1zM-226 9240h-1l1 -1h1l-1 1zM-233 9240h-1v-1h1v1zM-242 9240h-1l1 -1h1l-1 1zM-218 9239h-1v-1h1v1zM-231 9239h-1v-1h1v1zM-224 9239l-1 -1l1 -1h2v1l-2 1zM-230 9239l-1 -1l1 -1h1v1l-1 1zM-238 9238h-1l1 -1h1l-1 1zM-220 9237h-2v-1h2v1zM-228 9237h-1v-1h1v1zM-236 9237h-1v-1h1v1zM-226 9236h-1v-1h1v1zM-234 9236h-1v-1h1v1zM-218 9236h-2l2 -2h1l-1 2zM-232 9235h-2v-1h2v1zM-215 9234h-1v-1h1v1zM-222 9234h-2v-1h2v1zM-207 9233h-1v-1h1v1zM-210 9233h-1v-1h1v1zM-214 9233h-1v-1h1v1zM-221 9233h-1v-1h1v1zM-229 9233h-1v-1h1v1zM-219 9232h-1v-1h1v1zM-226 9232h-2v-1h2v1zM-209 9231h-1v-1h1v1zM-211 9232h-3v-1h2v-1h1v2zM-217 9231h-1v-1h1v1zM-213 9230h-1v-1h1v1zM-216 9230h-1v-1h1v1zM-223 9230h-1v-1h1v1zM-207 9230h-1h-1l1 -2h1v2zM-211 9229h-1v-1h1v1zM-214 9229h-1v-1h1v1zM-204 9228h-1l1 -1h1l-1 1zM-209 9228h-1v-1h1v1zM-219 9228h-1v-1h1v1zM-218 9227h-1v-1h1v1zM-208 9226h-1v-1h1v1zM-216 9226h-1l1 -1h1l-1 1zM-214 9225h-1v-1h1v1zM-212 9224h-1v-1h1v1zM-264 9222h-1v-1h1v1zM-205 9221h-1v-1h1v1zM-264 9218h-1v-1h1v1zM-260 9217h-1v-1h1v1zM-252 9215h-1v-1h1v1zM-266 9201h-1l1 -1h1l-1 1zM-260 9199h-3l1 -1l2 -1v1v1zM-257 9197h-1v-1h1v1zM-256 9196h-1l1 -1h1l-1 1zM-267 9259h-1l-1 -1h1v-2h1v3zM-270 9258h-1v-1h1v1zM-271 9254h-1v-1h1v1zM-268 9253h-1v-1h1v1zM-314 9237h-1v-1h1v1zM-327 9236h-1v-1h1v1zM-330 9235h-1v-1h1v1zM-306 9234h-1v-1h1v1zM-325 9234h-1v-1h1v1zM-319 9233h-1v-1h1v1zM-321 9233h-1v-1h1v1zM-320 9232h-1v-1h1v1zM-327 9232h-1v-1h1v1zM-318 9232v-1l2 -1h1l-1 1l-2 1zM-324 9231h-1v-1h1v1zM-292 9230h-1v-1h1v1zM-314 9231l-1 -1l1 -1h1v1l-1 1zM-311 9230l-1 -1v-1h1v2zM-282 9227h-1v-1h1v1zM-304 9227h-3l1 -1h2v1zM-314 9227h-1l1 -1h1l-1 1zM-325 9227h-1v-1h1v1zM-302 9227l-2 -1v-1h2v1v1zM-274 9225h-1v-1h1v1zM-298 9225h-2v-1h3l-1 1zM-320 9225h-1v-1h1v1zM-293 9224h-1v-1h1v1zM-295 9224h-1v-1h1v1zM-305 9224h-1v-1h1v1zM-307 9224h-1v-1h1v1zM-330 9224h-1v-1h1v1zM-304 9223h-1l1 -1h1l-1 1zM-326 9223h-1v-1h1v1zM-286 9222h-2v-1h2v1zM-295 9222h-1v-1h1v1zM-301 9222h-1v-1h1v1zM-275 9221h-1v-1h1v1zM-293 9221h-1v-1h1v1zM-298 9221h-1v-1h1v1zM-309 9221h-1v-1h1v1zM-277 9219h-1v-1h1v1zM-295 9219h-1v-1h1v1zM-307 9219h-1v-1h1v1zM-292 9219h-2v-1l2 -1l1 1l-1 1zM-287 9217h-1v-1h1v1zM-289 9217h-1v-1h1v1zM-300 9216h-1v-1h1v1zM-286 9215h-1v-1h1v1zM-297 9215h-1v-1h1v1zM-330 9215h-1v-1h1v1zM-272 9214h-1v-1h1v1zM-284 9214h-1v-1h1v1zM-295 9214h-1v-1h1v1zM-327 9214h-1v-1h1v1zM-331 9214h-1v-1h1v1zM-281 9213h-1v-1h1v1zM-292 9213h-1v-1h1v1zM-329 9213h-1v-1h1v1zM-279 9212h-1v-1h1v1zM-291 9212h-1v-1h1v1zM-288 9211h-1v-1h1v1zM-330 9211h-2v-1h2v1zM-274 9210h-1v-1h1v1zM-286 9210h-1l1 -1h1l-1 1zM-328 9211l-1 -1l1 -1h1v1l-1 1zM-283 9209h-1v-1h1v1zM-310 9209h-1v-1h1v1zM-325 9209h-1v-1h1v1zM-331 9209h-1v-1h1v1zM-281 9208h-1v-1h1v1zM-315 9208h-1v-1h1v1zM-318 9209l-1 -1v-1l1 1v1zM-328 9208h-1v-1h1v1zM-279 9207h-1v-1h1v1zM-316 9207h-1v-1h1v1zM-320 9207h-1v-1h1v1zM-326 9207h-1v-1h1v1zM-331 9207h-1v-1h1v1zM-277 9206h-1v-1h1v1zM-314 9206h-1v-1h1v1zM-330 9206h-1l1 -1h1l-1 1zM-274 9205h-1v-1h1v1zM-311 9205h-1v-1h1v1zM-316 9205h-1v-1h1v1zM-320 9205h-1v-1h1v1zM-327 9205h-1v-1h1v1zM-272 9204h-2v-1h2v1zM-308 9204h-1v-1h1v1zM-312 9204h-1v-1h1v1zM-314 9204h-1v-1h1v1zM-270 9203h-1l1 -1h1l-1 1zM-306 9203h-1l1 -1h1l-1 1zM-322 9203h-1v-1h1v1zM-327 9203h-1v-1h1v1zM-268 9202h-1v-1h1v1zM-291 9202h-1v-1h1v1zM-303 9202h-1v-1h1v1zM-300 9201h-1v-1h1v1zM-318 9201h-1v-1h1v1zM-326 9201h-2v-1h2v1zM-297 9200h-1v-1h1v1zM-304 9200h-1v-1h1v1zM-324 9200h-1v-1h1v1zM-282 9199h-1v-1h1v1zM-322 9199h-1v-1h1v1zM-312 9198h-1v-1h1v1zM-309 9197h-1v-1h1v1zM-286 9196h-1v-1h1v1zM-292 9196h-3l1 -1h2v1zM-366 9255h-1v-1h1v1zM-369 9254h-1v-1h1v1zM-362 9252h-1v-1h1v1zM-371 9252h-1v-1h1v1zM-360 9251h-1v-1h1v1zM-354 9250h-1v-1h1v1zM-356 9250h-2v-1h2v1zM-367 9249h-1v-1h1v1zM-366 9248h-1v-1h1v1zM-354 9246h-1v-1h1v1zM-364 9245h-1v-1h1v1zM-346 9243h-1v-1h1v1zM-349 9242h-1v-1h1v1zM-363 9242h-1v-1h1v1zM-353 9241h-1v-1h1v1zM-361 9241h-1v-1h1v1zM-360 9240h-1v-1h1v1zM-337 9239h-1v-1h1v1zM-342 9239h-1v-1h1v1zM-339 9238h-1v-1h1v1zM-346 9238h-1v-1h1v1zM-357 9238h-1v-1h1v1zM-334 9237h-1v-1h1v1zM-337 9237h-1v-1h1v1zM-345 9237h-1v-1h1v1zM-343 9236h-1v-1h1v1zM-352 9236h-1v-1h1v1zM-333 9235h-1v-1h1v1zM-341 9235h-1v-1h1v1zM-349 9234h-1v-1h1v1zM-337 9233h-1v-1h1v1zM-335 9232h-1v-1h1v1zM-346 9233h-2v-1l2 -1l1 1l-1 1zM-344 9231h-1l1 -1h1l-1 1zM-372 9230h-3l1 -1h2v1zM-376 9230h-3l1 -1h2v1zM-340 9230h-3l1 -1l2 -1h1l-1 2zM-368 9229h-2v-1h2v1zM-338 9228h-1l1 -1h1l-1 1zM-366 9228h-1v-1h1v1zM-336 9227h-1l1 -1h1l-1 1zM-362 9227h-2v-1h2v1zM-380 9228l-1 -1v-1h1v2zM-334 9226h-1v-1h1v1zM-358 9226h-1v-1h1v1zM-376 9226h-1v-1h1v1zM-332 9226l-1 -1l1 -1h1l-1 2zM-355 9225h-1v-1h1v1zM-374 9225h-1v-1h1v1zM-378 9225h-1v-1h1v1zM-360 9224h-1v-1h1v1zM-371 9224h-1v-1h1v1zM-348 9223h-1v-1h1v1zM-364 9223h-2v-1h2v1zM-376 9223h-1v-1h1v1zM-380 9224l-1 -1v-1h1v2zM-366 9222h-1v-1h1v1zM-371 9222h-1v-1h1v1zM-379 9222h-1v-1h1v1zM-343 9221h-1v-1h1v1zM-351 9221h-1v-1h1v1zM-355 9221h-1v-1h1v1zM-376 9221h-2v-1h2v1zM-372 9220h-3l1 -1l2 -1h1l-1 2zM-340 9217h-1v-1h1v1zM-352 9217h-1v-1h1v1zM-366 9217h-1v-1h1v1zM-337 9216h-1v-1h1v1zM-344 9216h-1v-1h1v1zM-351 9216h-1v-1h1v1zM-355 9216h-1v-1h1v1zM-362 9216h-2v-1h2v1zM-334 9215h-2v-1h2v1zM-340 9215h-1v-1h1v1zM-342 9215h-1v-1h1v1zM-348 9215h-1l1 -1h1l-1 1zM-360 9215h-1l1 -1h1l-1 1zM-336 9214h-1v-1h1v1zM-338 9214h-2v-1h2v1zM-335 9213h-1v-1h1v1zM-332 9212h-2v-1h2v1zM-336 9212h-1v-1h1v1zM-352 9212h-2v-1h2v1zM-342 9211h-1v-1h1v1zM-350 9211h-1l1 -1h1l-1 1zM-334 9210h-2v-1h2v1zM-347 9210h-1v-1h1v1zM-336 9209h-1v-1h1v1zM-341 9209h-1v-1h1v1zM-344 9209h-2v-1h2v1zM-334 9208h-1v-1h1v1zM-342 9208h-2v-1h2v1zM-340 9207h-1v-1h1v1zM-335 9205h-1v-1h1v1zM-333 9204h-1v-1h1v1zM-394 9204h-1l1 -1h1l-1 1zM-332 9203h-1l1 -1h1l-1 1zM-387 9202h-1v-1h1v1zM-393 9202h-1v-1h1v1zM-384 9201h-2v-1h2v1zM-388 9200h-1v-1h1v1zM-394 9200h-1l1 -1h1l-1 1zM-377 9199h-1v-1h1v1zM-392 9199v-1l2 -1h1l-1 1l-2 1zM-386 9197h-1v-1h1v1zM-367 9196h-1v-1h1v1zM-385 9196h-1v-1h1v1zM-392 9197h-2v-1v-1l2 1v1zM-414 9211h-1l1 -1h1l-1 1zM-411 9210h-1v-1h1v1zM-436 9210h-2v-1h3l-1 1zM-408 9209h-2v-1h2v1zM-414 9209h-1v-1h1v1zM-416 9209h-2v-1h2v1zM-438 9209h-2v-1h2v1zM-406 9208h-1v-1h1v1zM-412 9209l-1 -1v-1l1 1v1zM-402 9207h-2v-1h2v1zM-410 9208l-1 -1v-1h1v2zM-415 9208l-1 -1v-1h1v2zM-407 9206h-1v-1h1v1zM-413 9206h-1v-1h1v1zM-396 9205h-1v-1h1v1zM-400 9205h-1v-1h1v1zM-406 9205h-1v-1h1v1zM-411 9206l-1 -1v-1h1v2zM-415 9204l-1 1v-1h1zM-418 9208h-1v-4h1v2h1l-1 2zM-440 9207l-1 -1v-2h1v3zM-398 9205l-1 -1v-1l1 1v1zM-402 9204h-1v-1h1v1zM-404 9205l-1 -1v-1l1 1v1zM-409 9204h-1v-1h1v1zM-416 9204h-1l1 -1v1zM-412 9203h-1v-1h1v1zM-420 9204l-1 -1l1 -1h1l-1 2zM-400 9203l-1 -1v-1l1 1v1zM-409 9202h-1v-1h1v1zM-418 9203l-1 -1l1 -1h1v1l-1 1zM-425 9202h-1v-1h1v1zM-440 9204v-1l2 -1l2 -1v1l-2 1l-2 1zM-396 9201h-1v-1h1v1zM-412 9201h-1l1 -1h1l-1 1zM-416 9201h-1v-1h1v1zM-422 9201h-1v-1h1v1zM-402 9200h-4v-1h4v1zM-408 9202l-1 -2l1 -1l1 1v2h-1zM-413 9200h-1v-1h1v1zM-421 9200h-1v-1h1v1zM-428 9200h-1v-1h1v1zM-430 9200h-1v-1h1v1zM-432 9201h-3v-1l1 -1v1h3l-1 1zM-400 9199h-1v-1h1v1zM-407 9199h-1v-1h1v1zM-419 9199h-1v-1h1v1zM-427 9199h-1v-1h1v1zM-398 9198h-2v-1h3l-1 1zM-402 9198h-1v-1h1v1zM-405 9198h-1v-1h1v1zM-409 9198h-1v-1h1v1zM-426 9198h-1l1 -1h1l-1 1zM-429 9199l-1 -1v-1l1 1v1zM-396 9197h-1l1 -1h1l-1 1zM-415 9197h-1v-1h1v1zM-422 9197h-1v-1h1v1zM-424 9197h-1v-1h1v1zM-403 9196h-1v-1h1v1zM-408 9196h-1v-1h1v1zM-202 9182h-1v-1h1v1zM-196 9177h-1v-1h1v1zM-196 9173h-1v-1h1v1zM-202 9172h-1v-1h1v1zM-197 9172l-1 -1v-1h1v2zM-200 9171h-1v-1h1v1zM-190 9171l-1 -1v-1l1 1v1zM-196 9170h-1l1 -1h1l-1 1zM-201 9170h-1v-1h1v1zM-198 9169h-1v-1h1v1zM-200 9165h-1v-1h1v1zM-189 9163h-1v-1h1v1zM-193 9162h-1v-1h1v1zM-185 9161h-1v-1h1v1zM-192 9161h-1v-1h1v1zM-190 9160h-2v-1h2v1zM-181 9159h-1v-1h1v1zM-185 9159h-1v-1h1v1zM-188 9159h-2v-1h2v1zM-179 9158h-1v-1h1v1zM-186 9158h-1v-1h1v1zM-184 9157h-1v-1h1v1zM-191 9157h-1v-1h1v1zM-182 9156h-2v-1h2v1zM-190 9156h-1v-1h1v1zM-188 9155h-1v-1h1v1zM-178 9154h-2v-1h2v1zM-181 9155l-1 -1v-1l1 1v1zM-186 9154h-1v-1h1v1zM-184 9153h-1v-1h1v1zM-182 9152h-1v-1h1v1zM-203 9152h-1v-1h1v1zM-172 9151h-3l1 -1h2v1zM-180 9151h-1v-1h1v1zM-191 9151h-1v-1h1v1zM-194 9151h-5l1 -1h4v1zM-176 9150h-4v-1h5l-1 1zM-184 9150h-1l1 -1h1l-1 1zM-186 9150h-1v-1h1v1zM-188 9150h-3l1 -1h2v1zM-174 9149h-1v-1h1v1zM-202 9149h-2v-1h2v1zM-166 9148h-1v-1h1v1zM-170 9148h-1v-1h1v1zM-177 9148h-1v-1h1v1zM-189 9148h-1v-1h1v1zM-192 9148h-1v-1h1v1zM-200 9148h-1v-1h1v1zM-172 9148l-1 -1v-1h1v2zM-198 9147h-2v-1h2v1zM-197 9146h-1v-1h1v1zM-203 9146h-1v-1h1v1zM-201 9145h-1v-1h1v1zM-172 9144h-1v-1h1v1zM-196 9144h-1v-1h1v1zM-178 9143h-1v-1h1v1zM-182 9143h-1v-1h1v1zM-190 9142h-1v-1h1v1zM-198 9142h-1v-1h1v1zM-200 9143h-1v-1l1 -1l1 1l-1 1zM-195 9141h-1v-1h1v1zM-199 9140h-1v-1h1v1zM-196 9139h-1v-1h1v1zM-202 9140l-1 -2h1h1v2h-1zM-198 9137h-1v-1h1v1zM-202 9136h-2v-1h3l-1 1zM-253 9195h-1v-1h1v1zM-250 9194h-3l1 -1l2 -1h1l-1 2zM-248 9193v-1l2 -1h1l-1 1l-2 1zM-255 9192h-1v-1h1v1zM-244 9191h-1l1 -1h1l-1 1zM-242 9190h-1l1 -1h1l-1 1zM-250 9190h-1v-1h1v1zM-231 9188h-1v-1h1v1zM-236 9188h-1l1 -1h1l-1 1zM-238 9189l-1 -1v-1l1 1v1zM-246 9188h-1v-1h1v1zM-233 9187h-1l-1 -1l1 -1h4v1l-3 1zM-242 9186h-1v-1h1v1zM-228 9187l-1 -1v-2h1h1l-1 2v1zM-238 9185h-1v-1h1v1zM-266 9185h-1v-1h1v1zM-224 9184h-1l1 -1h1l-1 1zM-226 9184h-1v-1h1v1zM-219 9183h-1v-1h1v1zM-222 9183h-1l1 -1h1l-1 1zM-263 9183h-1v-1h1v1zM-214 9182h-1v-1h1v1zM-218 9182h-1v-1h1v1zM-234 9182h-1v-1h1v1zM-255 9182h-1v-1h1v1zM-259 9182h-1v-1h1v1zM-215 9181h-1v-1h1v1zM-212 9180h-1v-1h1v1zM-242 9180h-1v-1h1v1zM-248 9180h-1v-1h1v1zM-255 9180h-1v-1h1v1zM-210 9180l-1 -2h1h1v2h-1zM-246 9179h-1v-1h1v1zM-208 9178h-1v-1h1v1zM-215 9178h-1v-1h1v1zM-206 9177h-1v-1h1v1zM-212 9177h-1v-1h1v1zM-231 9177h-1v-1h1v1zM-236 9177h-1v-1h1v1zM-203 9177h-2v-2h2v2zM-218 9176h-1v-1h1v1zM-227 9176h-1v-1h1v1zM-234 9176h-2v-1h3l-1 1zM-222 9175h-1v-1h1v1zM-231 9175h-1v-1h1v1zM-236 9175h-1v-1h1v1zM-208 9174h-1v-1h1v1zM-212 9173h-2v-1h2v1zM-222 9173h-1v-1h1v1zM-226 9174h-3v-2h1v1h3l-1 1zM-218 9172h-1v-1h1v1zM-223 9172h-1v-1h1v1zM-206 9171h-1v-1h1v1zM-211 9171h-1v-1h1v1zM-214 9171h-1l1 -1h1l-1 1zM-226 9171h-1v-1h1v1zM-203 9171h-1l-2 -1v-1h3v2zM-208 9170h-1v-2h1l1 2h-1zM-252 9164h-1v-1h1v1zM-249 9163l-1 -1v-1l1 1v1zM-256 9162h-1v-1h1v1zM-267 9162h-1v-1h1v1zM-246 9162h-2l2 -2h2v1l-2 1zM-253 9161h-1v-1h1v1zM-242 9161l-1 -1v-1l1 1v1zM-260 9160h-2v-1h2v1zM-237 9159h-1v-1h1v1zM-264 9159h-1l1 -1h1l-1 1zM-232 9158h-1v-1h1v1zM-234 9158h-2v-1h2v1zM-247 9158h-1v-1h1v1zM-254 9158h-2v-1h2v1zM-261 9158h-1v-1h1v1zM-228 9157h-1v-1h1v1zM-230 9157h-1v-1h1v1zM-244 9157h-2v-1h3l-1 1zM-250 9158h-2v-2l2 1h1l-1 1zM-264 9157h-1v-1h1v1zM-224 9156h-2v-1h3l-1 1zM-239 9156h-1v-1h1v1zM-241 9156h-1v-1h1v1zM-248 9156h-1v-1h1v1zM-255 9156h-1v-1h1v1zM-257 9157h-3v-1h2v-1l1 1v1zM-262 9156h-1l1 -1h1l-1 1zM-222 9155h-1l1 -1h1l-1 1zM-236 9155h-1l1 -1h1l-1 1zM-246 9155h-1v-1h1v1zM-258 9155h-1v-1h1v1zM-217 9154h-1v-1h1v1zM-232 9154h-1l1 -1h1l-1 1zM-242 9154h-1l1 -1h1l-1 1zM-213 9153h-1v-1h1v1zM-227 9153h-1v-1h1v1zM-238 9153h-1v-1h1v1zM-250 9154l-1 -1v-1h1v2zM-210 9153l-2 -1h-1l1 -1h2v1v1zM-220 9152h-1l1 -1h1l-1 1zM-222 9152h-1v-1h1v1zM-236 9152h-1v-1h1v1zM-242 9152h-1v-1h1v1zM-244 9150h1l-1 1v-1zM-264 9151h-1v-1h1v1zM-204 9150h-1v-1h1v1zM-206 9150h-4v-1h4v1zM-228 9151l-1 -1v-1l1 1v1zM-245 9150l1 -1v1h-1zM-212 9149h-1v-1h1v1zM-221 9149h-1v-1h1v1zM-234 9150l-1 -1l3 -1v1h-2v1zM-238 9150l-3 1l1 -1l2 -1l2 -1v2h-2zM-248 9149h-2v-1h2v1zM-255 9149h-1v-1h1v1zM-264 9149h-1v-1h1v1zM-219 9148h-1v-1h1v1zM-230 9149h-1v-1l1 -1l1 1l-1 1zM-260 9148h-2v-1h2v1zM-206 9147h-1v-1h1v1zM-216 9147h-1v-1h1v1zM-223 9147h-1v-1h1v1zM-226 9148h-3l1 -1l2 -1h1l-1 2zM-256 9147h-1l1 -1h1l-1 1zM-214 9146h-1v-1h1v1zM-218 9146h-2v-1h2v1zM-221 9146h-1v-1h1v1zM-235 9146h-1v-1h1v1zM-241 9146h-1v-1h1v1zM-252 9146h-2v-1h3l-1 1zM-210 9145h-1l1 -1h1l-1 1zM-215 9145h-1v-1h1v1zM-217 9145h-1v-1h1v1zM-229 9145h-1v-1h1v1zM-214 9144h-1v-1h1v1zM-223 9144h-1v-1h1v1zM-230 9144h-1v-1h1v1zM-240 9144h-4v-1h4v1zM-250 9146v-1l4 -1v-1l1 1v1h-3l-2 1zM-216 9143h-2v-1h3l-1 1zM-224 9143h-1v-1h1v1zM-239 9143h-1v-1h1v1zM-208 9143l-2 -1v-1h2l1 1l-1 1zM-211 9142h-1v-1h1v1zM-230 9142h-1l1 -1h1l-1 1zM-232 9142h-1v-1h1v1zM-234 9143h-3l1 -1l2 -1v1v1zM-248 9142h-1v-1h1v1zM-224 9141h-1v-1h1v1zM-243 9141h-1v-1h1v1zM-218 9140h-1l1 -1h1l-1 1zM-237 9140h-1v-1h1v1zM-212 9139h-2v-1h3l-1 1zM-231 9139h-1v-1h1v1zM-223 9138h-1v-1h1v1zM-208 9136h-1v-1h1v1zM-290 9195h-2v-1h2v1zM-295 9195h-1v-1h1v1zM-304 9195h-1v-1h1v1zM-286 9194h-1v-1h1v1zM-288 9194h-1v-1h1v1zM-284 9193h-2v-1h2v1zM-299 9193h-1v-1h1v1zM-273 9192h-1v-1h1v1zM-280 9192h-1v-1h1v1zM-282 9192h-1v-1h1v1zM-296 9192h-1v-1h1v1zM-285 9191h-1v-1h1v1zM-288 9191h-1v-1h1v1zM-294 9191h-1v-1h1v1zM-276 9190h-1v-1h1v1zM-282 9190h-1v-1h1v1zM-284 9190h-1v-1h1v1zM-290 9190h-1v-1h1v1zM-272 9189h-1v-1h1v1zM-281 9189h-1v-1h1v1zM-288 9189h-1v-1h1v1zM-278 9188h-2v-1h2v1zM-285 9188h-1v-1h1v1zM-288 9187h-1v-1h1v1zM-273 9186h-1v-1h1v1zM-279 9186h-1v-1h1v1zM-270 9186l-1 -2h1h1v2h-1zM-281 9185h-1v-1h1v1zM-319 9179h-1v-1h1v1zM-328 9176h-1v-1h1v1zM-321 9175h-1v-1h1v1zM-324 9175h-1l1 -1h1l-1 1zM-326 9174h-1v-1h1v1zM-289 9173h-1v-1h1v1zM-311 9173h-1v-1h1v1zM-316 9173h-1v-1h1v1zM-323 9173h-1v-1h1v1zM-321 9172h-1v-1h1v1zM-298 9171h-2v-1h2v1zM-296 9170h-1v-1h1v1zM-303 9170h-1v-1h1v1zM-300 9169h-1v-1h1v1zM-289 9168h-1v-1h1v1zM-296 9168h-2v-1h2v1zM-327 9168h-1v-1h1v1zM-286 9167h-1v-1h1v1zM-293 9167h-1v-1h1v1zM-268 9166h-1v-1h1v1zM-282 9166h-1v-1h1v1zM-290 9166h-1v-1h1v1zM-303 9166h-1v-1h1v1zM-281 9165h-1v-1h1v1zM-300 9165h-2v-1h2v1zM-298 9164h-1l1 -1h1l-1 1zM-322 9164h-1v-1h1v1zM-269 9163h-1v-1h1v1zM-272 9163h-1v-1h1v1zM-294 9163h-1v-1h1v1zM-329 9163h-1v-1h1v1zM-290 9162h-2v-1h2v1zM-304 9162h-1v-1h1v1zM-320 9162h-1v-1h1v1zM-272 9161h-1v-1h1v1zM-302 9161h-2v-1h2v1zM-309 9161h-1v-1h1v1zM-273 9160h-1v-1h1v1zM-284 9160h-1v-1h1v1zM-299 9160h-1v-1h1v1zM-306 9160h-1v-1h1v1zM-310 9160h-1v-1h1v1zM-269 9159h-1v-1h1v1zM-296 9159h-1v-1h1v1zM-300 9158h-1l1 -1h1l-1 1zM-305 9158h-1v-1h1v1zM-287 9157h-1v-1h1v1zM-298 9157h-1l1 -1h1l-1 1zM-302 9157h-2v-1h2v1zM-285 9156h-1v-1h1v1zM-296 9156l-1 -2h1h1v2h-1zM-276 9154h-1v-1h1v1zM-292 9154h-2v-1h2v1zM-272 9153h-2v-1h2v1zM-288 9153h-1v-1h1v1zM-291 9153h-1v-1h1v1zM-268 9152h-2v-1h2v1zM-277 9152h-1v-1h1v1zM-269 9150h-1v-1h1v1zM-293 9150h-1v-1h1v1zM-270 9147h-1v-1h1v1zM-363 9195h-1v-1h1v1zM-382 9195h-1v-1h1v1zM-390 9195h-1v-1h1v1zM-359 9194h-1v-1h1v1zM-377 9194h-1v-1h1v1zM-355 9193h-1v-1h1v1zM-390 9193h-1v-1h1v1zM-394 9193h-1v-1h1v1zM-350 9192h-2v-1h2v1zM-373 9192h-1v-1h1v1zM-375 9192h-1v-1h1v1zM-387 9192h-1v-1h1v1zM-391 9192h-1v-1h1v1zM-346 9191h-2v-1h2v1zM-352 9191h-1v-1h1v1zM-378 9191h-1v-1h1v1zM-385 9191h-1v-1h1v1zM-388 9191h-2v-1h2v1zM-394 9191h-1v-1h1v1zM-342 9190h-1v-1h1v1zM-366 9190h-1v-1h1v1zM-386 9190h-1v-1h1v1zM-391 9190h-1v-1h1v1zM-344 9189h-1v-1h1v1zM-362 9189h-1v-1h1v1zM-382 9190l-2 -2h2v2zM-388 9189h-1v-1h1v1zM-384 9188h-1v-1h1v1zM-343 9187h-1v-1h1v1zM-369 9187h-1v-1h1v1zM-380 9188h-2v-2h2v2zM-366 9187h-2v-1l2 -1v1v1zM-374 9186h-1l1 -1h1l-1 1zM-376 9187h-2l-1 -1l1 -1h2v2zM-394 9186h-1v-1h1v1zM-360 9185h-1l1 -1h1l-1 1zM-362 9185h-1v-1h1v1zM-390 9185h-1v-1h1v1zM-392 9185h-1v-1h1v1zM-343 9184h-1v-1h1v1zM-356 9184h-2v-1h3l-1 1zM-366 9184h-1v-1h1v1zM-369 9185h-3v-1h2v-1l1 1v1zM-387 9184h-1v-1h1v1zM-364 9183h-1l1 -1h1l-1 1zM-348 9183l-2 -1v-1h2l1 1l-1 1zM-351 9183l-1 -1v-1l1 1v1zM-358 9182h-3l1 -1h2v1zM-354 9181h-1v-1h1v1zM-357 9181h-1v-1h1v1zM-352 9180h-1l1 -1h1l-1 1zM-375 9180h-1v-1h1v1zM-342 9179h-1v-1h1v1zM-330 9178h-4v-1h4v1zM-336 9179l-1 -1l1 -1l1 1l-1 1zM-346 9178h-1v-1h1v1zM-339 9177h-1v-1h1v1zM-353 9176h-1v-1h1v1zM-336 9176l-1 -1l1 -1h1l-1 2zM-350 9175h-1v-1h1v1zM-346 9174h-1v-1h1v1zM-342 9173h-2v-1h2v1zM-340 9172h-1v-1h1v1zM-344 9171h-1v-1h1v1zM-334 9170h-1l1 -1h1l-1 1zM-339 9169h-1v-1h1v1zM-344 9169h-1v-1h1v1zM-342 9168h-1l1 -1h1l-1 1zM-337 9166h-1v-1h1v1zM-400 9196h-2l2 -2v2zM-418 9195h-1v-1h1v1zM-420 9195h-1v-1h1v1zM-398 9195l-1 -1l1 -1h2v1l-2 1zM-417 9194h-1v-1h1v1zM-414 9193h-2v-1h2v1zM-398 9192h-1l1 -1h1l-1 1zM-413 9192h-1v-1h1v1zM-406 9190h-3l1 -1h2v1zM-404 9189h-1v-1h1v1zM-401 9188h-1v-1h1v1zM-397 9187h-1v-1h1v1zM-400 9187h-1v-1h1v1zM-396 9186h-1v-1h1v1zM248 9286h-1v-1h1v1zM252 9287l-2 -1l2 -2v2v1zM274 9268h-1l1 -1h1l-1 1zM276 9265h-1v-1h1v1zM246 9260h-1v-1h1v1zM373 9210h-1v-1h1v1zM379 9209h-1v-1h1v1zM378 9208h-2v-1h2v1zM373 9208h-1v-1h1v1zM384 9207h-1v-1h1v1zM380 9207h-1l1 -1h1l-1 1zM382 9206h-1v-1h1v1zM388 9205h-1v-1h1v1zM384 9206l-1 -2h1h1v2h-1zM392 9203h-1v-1h1v1zM398 9202h-1v-1h1v1zM393 9202h-1v-1h1v1zM403 9200h-1v-1h1v1zM398 9200h-3l1 -1h2v1zM402 9199h-1v-1h1v1zM399 9199h-1v-1h1v1zM403 9198h-1v-1h1v1zM410 9197h-1v-1h1v1zM412 9196h-1v-1h1v1zM406 9196l-2 1v-1l2 -1h2v1h-2zM397 9196h-1v-1h1v1zM312 9236h-1v-1h1v1zM310 9235h-2v-1h2v1zM316 9233h-2v-1h2v1zM309 9233h-1v-1h1v1zM318 9232h-2v-1h3l-1 1zM316 9231h-2v-1h2v1zM324 9230h-1v-1h1v1zM317 9230h-1v-1h1v1zM309 9230h-1v-1h1v1zM328 9229h-1v-1h1v1zM320 9229h-2v-1h2v1zM312 9229h-1v-1h1v1zM333 9228h-1v-1h1v1zM322 9229l-1 -1l5 -1v1h-4v1zM314 9228h-1v-1h1v1zM329 9227h-1v-1h1v1zM320 9226h-1v-1h1v1zM314 9226h-1v-1h1v1zM310 9227l-1 -1l1 -1h1v1l-1 1zM325 9225h-1v-1h1v1zM313 9225h-1v-1h1v1zM344 9224h-1v-1h1v1zM316 9225h-2v-1v-1l2 1v1zM312 9224h-1v-1h1v1zM347 9223h-1v-1h1v1zM341 9223h-1v-1h1v1zM317 9223h-1v-1h1v1zM351 9222h-1v-1h1v1zM347 9221h-1v-1h1v1zM341 9221h-1v-1h1v1zM328 9222h-2v-2h4v1l-2 1zM357 9220h-1v-1h1v1zM355 9220h-1v-1h1v1zM350 9220h-1l1 -1h1l-1 1zM334 9220h-1l1 -1h1l-1 1zM332 9220h-1v-1h1v1zM354 9219h-2v-1h2v1zM347 9219h-1v-1h1v1zM345 9219h-1v-1h1v1zM340 9219h-4v-1h4v1zM364 9218h-1v-1h1v1zM356 9218h-2v-1h2v1zM350 9218h-1v-1h1v1zM342 9218h-1v-1h1v1zM360 9217h-4v-1h4v1zM354 9217h-3l1 -1h2v1zM356 9216h-1v-1h1v1zM349 9216h-1v-1h1v1zM366 9215h-2v-1h2v1zM364 9216h-4l-1 -2h1l4 1v1zM368 9214h-2v-1h2v1zM362 9214h-1l1 -1h1l-1 1zM356 9214h-3l1 -1h2v1zM371 9213h-1v-1h1v1zM366 9213h-2v-1h2v1zM357 9213h-1v-1h1v1zM372 9212h-1v-1h1v1zM368 9212h-1l1 -1h1l-1 1zM363 9212h-1v-1h1v1zM371 9209h-1v-1h1v1zM251 9259h-1v-1h1v1zM248 9259h-2v-1h2v1zM245 9259h-1v-1h1v1zM256 9257h-1l1 -1h1l-1 1zM246 9256h-1v-1h1v1zM264 9255h-3l1 -1h2v1zM253 9255h-1v-1h1v1zM250 9255h-1v-1h1v1zM266 9254h-1v-1h1v1zM258 9254h-1v-1h1v1zM270 9253h-2v-1h2v1zM272 9252h-1v-1h1v1zM260 9252h-1v-1h1v1zM276 9251h-3l1 -1h2v1zM265 9252h-1h-1l1 -2h4v1l-3 1zM278 9250h-2v-1h2v1zM270 9250h-1l1 -1h1l-1 1zM247 9250h-1v-1h1v1zM281 9249h-1v-1h1v1zM282 9248h-1l1 -1h1l-1 1zM276 9248h-1v-1h1v1zM272 9249h-1v-1l1 -1l1 1l-1 1zM252 9248h-1l1 -1h1l-1 1zM248 9249l-1 -1v-1l1 1v1zM286 9247h-1v-1h1v1zM278 9247h-1l1 -1h1l-1 1zM275 9247h-1v-1h1v1zM270 9247h-2v-1h2v1zM251 9247h-1v-1h1v1zM271 9246h-1v-1h1v1zM259 9246h-1v-1h1v1zM256 9247h-2l-1 -1l1 -1l2 1h1l-1 1zM289 9246l-1 -1v-1h1v2zM284 9245h-1v-1h1v1zM282 9246h-2h-1l1 -2h2v2zM261 9245h-1v-1h1v1zM258 9245h-1v-1h1v1zM263 9244h-1v-1h1v1zM294 9243h-1v-1h1v1zM287 9244h-3v-1h2v-1h1v2zM280 9243h-1v-1h1v1zM266 9244l-2 -1h-1l1 -1h4v1h-2v1zM295 9242h-1v-1h1v1zM291 9242h-1v-1h1v1zM289 9242h-1v-1h1v1zM293 9241h-1v-1h1v1zM275 9241h-1v-1h1v1zM294 9240h-1l1 -1h1l-1 1zM270 9242v-1l2 -1v-1l1 1v1h-1l-2 1zM301 9239h-1v-1h1v1zM296 9239h-1v-1h1v1zM281 9239h-1v-1h1v1zM279 9239h-1v-1h1v1zM298 9238h-1v-1h1v1zM282 9238h-1l1 -1h1l-1 1zM280 9238h-1v-1h1v1zM301 9237h-1v-1h1v1zM286 9237h-1v-1h1v1zM284 9237h-1v-1h1v1zM308 9236h-1v-1h1v1zM304 9236h-1v-1h1v1zM296 9236h-1v-1h1v1zM288 9236h-2v-1h2v1zM305 9235l-1 -1v-1l1 1v1zM290 9235l-2 -1v-1h2v1v1zM302 9233h-1v-1h1v1zM294 9233h-1v-1h1v1zM292 9234l-1 -1v-1h1v2zM304 9232h-1v-1h1v1zM296 9232h-1l1 -1h1l-1 1zM298 9231h-1v-1h1v1zM299 9230h-1v-1h1v1zM305 9228h-1v-1h1v1zM303 9229h-2v-2h2v2zM308 9228l-1 -1v-1h1v2zM187 9305h-1v-1h1v1zM191 9304h-1v-1h1v1zM195 9303h-1v-1h1v1zM201 9301h-1v-1h1v1zM207 9299h-1v-1h1v1zM221 9291h-1v-1h1v1zM216 9291h-2l-1 -1h1h2v1zM216 9290v-1h3v1l-1 2l-2 -1l1 -1h-1zM224 9290h-3v-2h1v1h2v1zM183 9283h-1v-1h1v1zM197 9278h-1v-1h1v1zM183 9278h-1v-1h1v1zM186 9277h-1v-1h1v1zM204 9275h-1l1 -1h1l-1 1zM206 9274h-1v-1h1v1zM210 9273h-1v-1h1v1zM213 9272h-1v-1h1v1zM190 9272h-1v-1h1v1zM195 9270h-1v-1h1v1zM207 9269h-1v-1h1v1zM227 9266l-4 1l1 -1h1l3 -1h1l-1 1h-1zM206 9266h-1v-1h1v1zM214 9265h-1v-1h1v1zM209 9265h-1v-1h1v1zM232 9265h-2v-1l2 -1l1 1l-1 1zM217 9264h-1v-1h1v1zM215 9264h-1v-1h1v1zM208 9264h-1v-1h1v1zM234 9263h-1v-1h1v1zM214 9263h-1v-1h1v1zM239 9262h-1v-1h1v1zM237 9263h-1l-1 -1l1 -1l1 1v1zM220 9262h-1l1 -1h1l-1 1zM213 9262h-1v-1h1v1zM241 9261h-1v-1h1v1zM223 9261h-1v-1h1v1zM216 9262l-2 -2h2l1 2h-1zM244 9260h-2v-1h2v1zM226 9260h-1v-1h1v1zM222 9260h-1v-1h1v1zM218 9260h-1v-1h1v1zM180 9287h-1l1 -1h1l-1 1zM180 9279h-1v-1h1v1zM225 9259h-1v-1h1v1zM221 9259h-1v-1h1v1zM217 9259h-1v-1h1v1zM240 9258h-1v-1h1v1zM223 9258h-1v-1h1v1zM239 9257h-1v-1h1v1zM226 9257h-1v-1h1v1zM222 9257h-1v-1h1v1zM228 9256h-1v-1h1v1zM225 9256h-1v-1h1v1zM230 9255h-1l1 -1h1l-1 1zM234 9254h-2v-1h2v1zM239 9252h-1v-1h1v1zM241 9251h-1v-1h1v1zM238 9251h-1v-1h1v1zM244 9250l-1 -1v-1h1v2zM501 9160h-1v-1h1v1zM502 9159h-1v-1h1v1zM504 9158h-1l1 -1h1l-1 1zM506 9157h-1l1 -1h1l-1 1zM508 9156h-1v-1h1v1zM510 9155h-1v-1h1v1zM512 9154h-2v-1h2v1zM507 9154h-1v-1h1v1zM514 9153h-1v-1h1v1zM518 9151h-1v-1h1v1zM512 9151h-1v-1h1v1zM520 9150h-1v-1h1v1zM522 9149h-1v-1h1v1zM516 9149h-1v-1h1v1zM504 9149h-1v-1h1v1zM524 9148h-1v-1h1v1zM526 9147h-1v-1h1v1zM527 9146h-1v-1h1v1zM529 9145h-1v-1h1v1zM531 9144h-1v-1h1v1zM532 9143h-1v-1h1v1zM529 9143h-1v-1h1v1zM534 9142h-1v-1h1v1zM530 9142h-1v-1h1v1zM521 9142h-1v-1h1v1zM535 9141h-1v-1h1v1zM536 9140h-1v-1h1v1zM531 9140h-1v-1h1v1zM534 9139h-1v-1h1v1zM531 9138h-1v-1h1v1zM520 9138h-1v-1h1v1zM540 9137h-1v-1h1v1zM535 9137h-1v-1h1v1zM532 9137h-1v-1h1v1zM541 9136h-1v-1h1v1zM544 9134h-1v-1h1v1zM539 9134h-1v-1h1v1zM537 9134h-1v-1h1v1zM540 9132v1l-1 -1h1zM546 9132h-1v-1h1v1zM540 9131l1 1h-1v-1zM539 9132h-1l1 -1v1zM536 9132h-1v-1h1v1zM447 9190h-1v-1h1v1zM450 9189h-1v-1h1v1zM458 9187h-1v-1h1v1zM442 9187h-1v-1h1v1zM440 9187h-1v-1h1v1zM461 9186h-1v-1h1v1zM447 9186h-1v-1h1v1zM444 9186h-2v-1h3l-1 1zM462 9185h-1l1 -1h1l-1 1zM450 9185h-1v-1h1v1zM465 9184h-1v-1h1v1zM453 9185l-1 -1v-1l1 1v1zM444 9184h-1v-1h1v1zM456 9184h-2l2 -2h2v1l-2 1zM448 9183h-1v-1h1v1zM437 9181h-1v-1h1v1zM446 9180h-1v-1h1v1zM440 9180h-1v-1h1v1zM466 9180h-2l2 -2h1l-1 2zM460 9179h-1v-1h1v1zM449 9179h-1v-1h1v1zM470 9178h-3l1 -1h2v1zM463 9178h-1v-1h1v1zM472 9177h-1v-1h1v1zM456 9177h-1v-1h1v1zM474 9176h-2v-1h2v1zM455 9176h-1v-1h1v1zM481 9175h-1v-1h1v1zM461 9175h-1v-1h1v1zM463 9174h-1v-1h1v1zM460 9174h-1v-1h1v1zM478 9173h-1l1 -1h1l-1 1zM465 9173h-1v-1h1v1zM480 9172h-1l1 -1h1l-1 1zM468 9172h-1v-1h1v1zM487 9171h-1v-1h1v1zM482 9171h-1v-1h1v1zM470 9171h-1v-1h1v1zM483 9170h-1v-1h1v1zM485 9169h-1v-1h1v1zM474 9169h-1v-1h1v1zM490 9168h-1l1 -1h1l-1 1zM487 9168h-1v-1h1v1zM476 9168h-1v-1h1v1zM492 9167h-1v-1h1v1zM488 9167h-1v-1h1v1zM489 9166h-1v-1h1v1zM492 9164h-1v-1h1v1zM497 9163h-1v-1h1v1zM498 9162h-1v-1h1v1zM485 9162h-1v-1h1v1zM500 9161h-1v-1h1v1zM496 9161h-1v-1h1v1zM486 9161h-1v-1h1v1zM490 9158h-1v-1h1v1zM491 9157h-1v-1h1v1zM494 9155h-1v-1h1v1zM498 9154h-1v-1h1v1zM495 9154h-1v-1h1v1zM500 9151h-1v-1h1v1zM410 9195h-1v-1h1v1zM396 9195h-1v-1h1v1zM398 9194h-1v-1h1v1zM419 9193h-1v-1h1v1zM414 9193h-2v-1h3l-1 1zM399 9193h-1v-1h1v1zM422 9192h-1v-1h1v1zM418 9192h-1v-1h1v1zM402 9192h-2v-1h2v1zM424 9191h-1v-1h1v1zM408 9191h-1v-1h1v1zM429 9190h-1v-1h1v1zM406 9191h-2l-1 -1l1 -1h2l1 1l-1 1zM432 9189h-1l1 -1h1l-1 1zM424 9189h-1l1 -1h1l-1 1zM412 9189h-1v-1h1v1zM410 9189h-1v-1h1v1zM414 9188h-1v-1h1v1zM436 9186h-1v-1h1v1zM418 9187h-4v-1h3v-2h1v3zM425 9184h-1v-1h1v1zM542 9131h-1v-1h1v1zM539 9131v-1h1v1h-1z"/></svg>