<svg xmlns="http://www.w3.org/2000/svg" viewBox="-642 9639 1384 820"><g class="s" data-r fill="#000" fill-rule="evenodd"><path class="chunk" data-i="0" d="M-23 10108h1v-2h-1l2 -2v2h1v2l-6 5v-1l2 -3l1 -1zM-278 10154l-6 -1l-1 -1l1 -2h2l4 1v1h-1l1 1h1l-1 1zM-282 10152v-1h-1v1h1zM-288 10152l-4 -2h-3v-2h-1v-1l5 1l3 1l1 1h-1v2zM-290 10150v-1h-2v1h2zM2 10088v-1h-1v1h1zM-19 10103h2v-1l-1 -1v-1l2 -1l2 -2l2 1v-2l2 1v-1v-2l2 -1l4 -2l7 -5l3 -2v1h1l-1 2l-6 3v2l-2 1l-12 8l-2 1v2h-2v2h-2l1 -2v-1zM-4 10093v-1h-1v1h1zM-7 10095v-1h-1v1h1zM-236 10017h2v2l1 3l-2 2v2h-2l1 -3v-4v-2zM-239 10005h1l2 -1v2l-2 1v-1h-1v-1zM-254 10006v-2l2 -2l2 1l-1 1h1v3h-2v-1h1l-1 -1l-2 1zM-249 9983h-1l-1 -1h1v-2h2l-1 2v1zM-244 9978l-1 3l-1 2v1v1l-1 -1v-2h1l-1 -2h1h1l-1 -2l1 -1v1h1zM-266 9974v-1h2v1v1h-1v-1h-1zM-257 9973v-1h1l-1 -2h1h1l1 -3l1 1l-1 2v2l-1 2h-1v-1h-1z"/><path class="chunk" data-i="1" d="M-244 9970v-1h-1v1h1zM-245 9975v-1l1 -1v1h1v-2h-2l-2 -1l1 3l1 1zM-241 9972v-1h-1v1h1zM-251 9973v-1h-1v1h1zM-248 9975v-1h-1v1h1zM-252 9976v-1h-1v1h1zM-247 9976v-1h-1v1h1zM-251 9977v-1h-1v1h1zM-249 9977v-1h-1v1h1zM-244 9976v-1l-1 1h-1l-4 3v-1h-2v1l-2 -1l-1 -1h1v-1v-1l1 -1v-3h2l1 1v-1l2 1v-2h2v-1l2 -1h1v2h1l2 1v-1v-2h-1l1 -2l2 2l-1 4l-2 2l-1 1l-1 2v-1h-1zM-272 10014v-1h-2v-2h2v1h1l1 1v1h-2zM-278 9966l2 -2l2 -1v1l-2 3h-2v-1zM-260 9968v-2l4 -4h2l2 -1v3h1l-1 2v1h-2v-1l1 -2l-1 -1l-6 5zM-257 9942v-2h-1v-1h2l1 1h-1v2h-1zM-226 9908h-1h-23v-1l-2 1v-1l-2 1v-1h-4l-2 -1v-2h-1l1 -2l2 -2h26l6 -1l3 3l-1 3v1l-2 2zM-225 9907v-1h-1v1h1zM-230 9855l-3 -1l-3 -1h-2l-1 -1v-2h-1l1 -2v-1h1l2 -1v1l1 -1v-1l4 1h3v2v4v2l-2 1zM-205 9847v7l-3 2h-6l-2 -2v-6l4 -4h2h3h2v3z"/><path class="chunk" data-i="2" d="M544 10102h1v-1l1 1l1 2h-1l-2 -1v-1zM539 10097v-3h1v2h2l-2 2v-1h-1zM428 10150h-7l1 -1h6v1zM394 10147h-10v-1h11l-1 1zM334 10138l-10 -1v-1l10 1v1zM251 10112l-7 -1v-1h7v2zM517 10079l2 3l1 2h-2v-2l-4 -4l-13 -8h-1l-2 -1v1h-1v-2l-3 -1l-2 -1v1l-1 -1v-1l-4 -1l-10 -2l-11 -5l-2 -2l-3 -1l-4 -1l-4 -1l-1 -1v1l-2 -2h-4l-2 -2v1l-1 -1l1 -2h3l1 1v-1l2 2h2v-1l1 1l1 1v-1l2 2l3 1l7 3l11 4l21 7l2 2h2l2 2l3 1v2h2v2h1v-1l2 1h1l-1 2l3 1v1h1v1h1z"/><path class="chunk" data-i="3" d="M520 10003l6 -4l4 -3h2l2 -2h2v-2l-2 -1v1h-2l-2 2l-8 6l-2 1l-3 3h1l2 -1zM544 9994l2 1l12 7l6 6v2l4 3l2 1l6 4l2 1l1 4v2l1 3l3 36l-14 -2l-39 -7l-10 -1v-1l-2 1v-1l-2 1l-6 -1v1l-2 -1h-4l2 -39l-2 -2l-2 2v-2l2 -2v-2l2 -1l20 -15l3 -2l5 -2l4 2l5 4l1 1v-1zM546 9999v-1l-4 -3l-1 1l3 3h2zM547 9997v-1h-1v1h1zM556 10006v-2l-6 -4h-2l-2 -1v1l2 2h2l6 4zM516 10005l1 -1h-1l-1 1h1zM515 10006v-1h-1v1h1zM557 10007v-1h-1v1h1zM559 10008v-1h-1v1h1zM572 10021l-2 -3l-26 -15l-6 -7v-1l-2 2l-2 1l-12 7l-2 1l-2 2l-3 1l-4 1v1h-1l-1 1h1h1l-2 1l-2 37l16 1l51 9l5 1l-3 -31l-1 -3l-1 -4h-2v-1h2v-1h-2zM451 10018l-1 -1l-2 -1v-1h2v-5h1v8zM342 9991h-3l1 -1h1l-1 -2h2l1 2l-1 1zM354 9985h-9l1 -1h9l-1 1zM254 9999l-1 -1l1 -2h-1l3 -3v1v2h2l-2 2v-1l-1 1l-1 1zM298 9982l-2 1v-1h1v-2h1v1l2 -1h1l-1 2h-2zM578 9922v-1l1 -1l2 -2l1 2h-2l-1 4v-2h-1zM528 9911v-1h2v1l2 -1l2 2h-2h-3l-1 -1zM516 9907l-5 5l1 2l8 -1v-1h1v2l-9 1l-2 -1v-2l-2 1v-1l2 -2l8 -7v1l-1 2h-1v1zM490 9938v-1h2l1 1l-1 1h-1v-1h-1zM501 9921h-1v3l-2 -1l-1 2l-1 1h1l-4 4l-4 6l-1 2h2v1h1l-1 1h-1l-2 1l-3 1v-3l1 -3l2 -2l3 -4l16 -17h2v1h-1l1 2h-2l-3 3h-1v1h-1v1z"/><path class="chunk" data-i="4" d="M388 9962h-4v-4l-1 -24l1 -1h2v5l1 2h-1l1 17l1 3v2zM378 9929l-2 -1v1h-6v1l-3 -2l1 -1h1l4 1l3 -1l2 -1v2h1l-1 1zM313 9925l1 -1v-1l1 1v2l-3 2h-2v-3h2v1l1 -1zM318 9924h-2l1 -2v-1h1l2 -1v2h1l-1 1l-2 1zM252 9962l-2 -1h-1l1 -1h9l-1 1h-6v1zM272 9946l-2 -1v1l-2 -2h4v-1l1 1v2h-1zM283 9940h-1l-1 -2h1l2 -2h1v2h-1v1l-1 1zM292 9934v1h-2l-1 -1l1 -1h1v1h1zM276 9944h-2l-1 -2v-1h-2v-3h-3l-1 2v4h-2v-4l5 -5l1 -1l5 -2l2 -1l1 1l-1 1l-1 1h-2l-1 1l-2 1v2l2 1v-1h2l-2 2v2l2 -1h2l1 1l-1 1l-2 1zM273 9940v-1h-1v1h1zM307 9931l-1 2l-4 2l-2 -1l4 -4h1l1 1h1zM305 9930l1 -2h2l2 2h-2v-1l-1 1h-2z"/><path class="chunk" data-i="5" d="M274 9913v-1h2l2 -2v2l-2 3l-2 -1h1l-1 -1zM283 9910h-1v-2l2 -1v1l2 -2h2l4 -1v1l-2 2l-2 -1v1v1l-2 -1l-2 2v-1l-1 1zM295 9903h1v-1h1l1 1v1h2l-2 2l-2 -1v1v1h-2v-1h1l-1 -2h1v-1zM709 9874h-3l-2 -2l-1 -2l-2 -5v-1l-1 -2l-6 5l-2 1l-2 -2h1l7 -9v-1l-1 -2l3 -3l4 1l2 2v2h1l-1 2h1v2h1l-1 2h1l2 6l-1 4v2zM636 9890l-3 -1l-2 -1h-1l-2 -1v1l-2 -1h-1v-1l-1 -1v1l-2 -2l-2 1v-1l-10 -2l-1 -2v-1l4 1l19 6l2 1l2 1v2zM594 9869l2 1h1h6l17 4l3 1l7 3l4 1l6 3l4 2l2 2l17 -2l19 -4l2 -2l2 -2h2v-1l2 1h1l1 2l12 17l1 3l3 2l2 2l2 -1v1l4 1l1 1l1 2v2l-10 24v2h-1l1 1h3l-1 4l-1 5l-1 2h1l-2 2v2h-1l1 2h-1v6h1l-1 2l-2 2h-2l-2 -2l-4 -1h-2l-2 -2l-18 -4l-2 -2l-9 -1l-4 -2h-2l-11 -4l-8 -4h-2l-1 -2v-2l-1 -1h-2v-2v-6l6 -19l2 -5l2 -6l1 -1l1 -2h-1l1 -2l1 -2v-2l-6 -4l-20 -8l-5 1l-14 -5l-2 -1v1l-2 -1l-3 -1h1v-1zM694 9952h1l1 -4l3 -9l1 -3l2 -2v-2l4 -10l3 -7v-2l1 -3h1l-3 -3l-4 -3l-3 -2l-2 -4l-5 -6v-2l-4 -4l-4 -4v1l-22 4l-12 1l2 3l4 2l5 5l-1 1l-2 -1l-8 -5l-2 -1l-2 -1v-1h-1l-1 5l-7 23l-3 8v2l4 -3h2l2 1l-1 2l-1 8l6 2l15 5l14 5l17 4zM700 9954v-1h-1v1h1zM593 9870h-1v1l-2 -1h-1l1 -1l2 -1l2 1l-1 1zM522 9902h-2l1 -2l1 -2h4v1h-2l-2 1v2zM598 9969l-37 -5l-8 -2l-11 -3l-42 -6v1l-2 -1l-17 -1h-5l-11 -4l-3 -1h-2l-4 -5l-1 -2h1v-2l4 -2l24 -20v-2l10 -7l2 -1l7 -8l5 -6l4 -2l4 -4l2 -2l2 -2h-2l-2 -1v1h-1v-2h-1l1 -2v-2l1 -1l5 1l5 1l2 -1v1l48 6l2 -1v1l2 -1l17 2l16 3l4 1l3 1l1 1l1 2v2l-6 21l-2 5l-5 12l-7 30l-1 3v1l-3 3zM614 9899l1 -1v-4l-4 -1l-18 -4l-13 -1l-2 1v-1h-4l-1 1h1l12 3l4 -1h2l2 2l4 1l8 2l5 2l3 1zM472 9947v-1h-2v1h2zM476 9948v-1h-2l-1 1h3zM502 9951l1 -1l-27 -2v1l26 2zM539 9910l3 -1l1 -1l4 -6l5 -5h2v1h-1l-3 6l-5 4v2l1 1v-1v-1h6v1l2 -1h2l2 1v-1h2l2 1v-1h16l2 -1l2 -4l4 -4l1 -3l1 -3l-18 -2l-1 -2v-2l-45 -6l-4 4h-1l-2 4l-5 5h-1v2h-1l-6 5v2l-2 2h-2l-3 2l-4 4l-3 1l-1 1v2l-19 16l-8 8v2l17 2l31 4l2 1v-1l1 -3l3 -5l1 -2h-1h-6l-1 -1h3v-1l2 1v-1v-1h4v1h-2v1h2l2 -1v-2l-2 -1h-4v-1l4 -1h2v1l2 -1h2l1 -1l11 -15l2 -3h-3v-2h3v1l1 -1zM550 9911v-1h-1v1h1zM566 9924l4 -4l1 -2l5 -6h-34l-1 2l-2 2l-8 10l-2 4l-2 2l1 1l34 -3l4 -6zM522 9933v-1h-1v1h1zM527 9933v-1h-1v1h1zM526 9935v-1h-2v1h2zM524 9936v-1h-1v1h1zM527 9936v-1h-1v1h1zM530 9936v-1h-1v1h1zM532 9936v-1h-1v1h1zM560 9961v-1h-2l-1 1h3zM564 9962v-1h-2v1h2zM579 9924l-1 2h1l-1 2v2h6l1 2l-1 2h-6l-2 2l-1 10l-1 2l-2 -2l1 -12l-5 1l-4 -1l-4 4l-2 2v3l-1 1h-1v1h1l-5 5l-2 -2l1 -2l5 -8l1 -2h1v-1l-16 1l-2 1v-1l-2 1h-14v1l-2 -1l-3 3l-3 6h-1l1 1l1 1h-1h-1l1 2h4l7 2l44 8l17 4h7l4 -13l5 -18l6 -17l3 -13v-2l-14 -5h-3l-2 1l-2 -2h-2v1h1l-1 2l-2 2h-1l1 2l-2 2l-3 4l-1 2h10l2 1v-1l2 1l8 1l2 -1l1 1v2h-5v1l-2 -1l-3 -1h-1l-2 1v-1h-11v1l-1 -2h-3l-11 16l-2 3h8l3 -9h1v2h1zM577 9929v-1h-1v1h1zM578 9931v-1h-1v1h1zM422 9968h-6l-64 -2l-3 -2l-1 -3v-2l-1 -4v-10l2 -15l2 -4l15 -15l5 -3l9 -12l2 -2h2v-3h2v-2h2l2 1v2h2l10 6l3 2l7 4l8 5v2l10 2l3 3l-1 2h1l-1 2l-1 10l-3 34l-2 2v1l-2 1h-2zM420 9964l1 -4l3 -14l1 -7l1 -5l1 -2h-1l1 -2v-4h-1v1l-6 1l-1 -1h1l1 -1h-13l-2 1v-1l-2 1l-24 1l-1 -1h1l2 -1v1h2v-1l2 1l2 -2l2 1h8l-1 -2h1l6 1v-1l2 1l2 -2v1l2 -1h17v-5h1l-2 -2h-2l-3 1v-1l-3 -3l-2 -2l-4 -3l-6 -4l-6 -2l-2 -1l-2 -2l-2 -1l-5 -2l-2 -1l-1 2l-7 11h-2v2l-3 3h-2l-10 11v1h-2l-4 7l-4 4h-2l-1 2h1v2v1l-2 -1l3 20l3 3l2 -1v1l2 -1h10v1l2 -1l50 2zM350 9936v-1h-1v1h1zM413 9925v-1h-1v1h1zM415 9925v-1h-1v1h1zM401 9926v-1h-1v1h1zM330 9898l-4 1v-1v-1l2 1h1l2 -2h2v2h-3z"/><path class="chunk" data-i="6" d="M318 9898l-2 -1v1h-2l2 -2h2v2zM312 9895v-1h3l3 -1v1h-2l-3 2l-1 -1zM318 9893v-1l4 -1l4 -1v1l-4 1l-2 2l4 1v1h-6v-2h1l-1 -1zM346 9893h-4v-1h2v-1h-3v-2l2 1h2v2h1v1zM334 9889v3l-3 -1h-2v-3l1 -1l2 1v1h2zM331 9890v-1h-1v1h1zM332 9891v-1h-1v1h1zM342 9888h-2v-2h-1l1 -1h2v1h-1l1 2zM332 9888v-1h2l2 -2v1l-1 2h1v1h-2v-1h-2zM308 9900h-2v-3h2l2 -1v2v1l-2 -1v2zM528 9811h-7l1 -1h7l-1 1zM540 9810h-8v-1l8 -1l1 2h-1zM566 9870l-10 1v1l-2 -1v1l-20 -1v1l-2 -1v1l-2 -1v1l-2 -1l-11 -1l-11 -2l-17 -4v-2l-1 -1l-10 -1h-1l1 -2l2 1v-1v-1l1 1l1 1v-1l2 2h1v-2h2v-2l-1 -2h1l-1 -2h1v-36h-1l1 -2v-2l-1 -2l2 -2h3l6 -3l12 -5l1 -1l10 -9v-6h2l4 -1l2 1v-1l4 3l2 1l2 1v2l11 6l2 1l3 1l2 2h1l9 4l2 1l1 1v3h1l3 3v14l1 3v1l-1 2h1l-1 4l1 2h-1l3 18l1 2h-1l1 2l-1 5l-1 4l-7 1zM568 9864l-1 -8h1l-1 -2v-2h-1l1 -2v-2h-1l1 -2l-1 -2h1l-1 -2v-2l1 -12l-2 -2l-1 -17h-4l-2 2l-1 -1v-1h-13l-2 1l-1 -2l1 -1v1h6v-1l2 1h2v-1l2 1v-1h4v-1h-2l-21 -10l-7 -5l-2 -2h-2l-2 3l-8 9h-2l-2 2h-2l-2 2l-1 1l-4 2l-5 2h-2l-3 2l2 14l-1 2v2v20h-1l1 2l1 4v2l30 6l17 1v1l2 -1l24 -1v-1l2 1zM488 9860v-2l-2 2h2z"/><path class="chunk" data-i="7" d="M392 9857l-2 -3v-4l-1 -8h1l-1 -2v-6h1v6h2v4h-1l2 2l1 5v2l-1 3l-1 1zM246 9998h-3v4h-1l-1 -2l-1 -1v-2l1 -1v-1l1 1v1h2v-2h2v1h-1l1 2zM116 10009v-1h-1v1h1zM108 10014v-1h-1v1h1zM98 10020v-1h-1v1h1zM93 10023v-1h-1v1h1zM137 9993v-1h-1v1h1zM134 9995v-1h-1v1h1zM129 9999v-1h-1v1h1zM128 10000v-1h-1v1h1zM121 10005v-1h-1v1h1zM68 10040v-1h-1v1h1zM58 10047v1h-2v1l-2 -1v2h-2l-2 2h-2l1 2h-1l-2 2l-2 -1v1l-2 2l-10 7l-20 15v2l-2 1l-3 2v-1h-1l4 -4h1v-2l5 -5l4 -2l9 -7l7 -5l32 -22l4 -3l8 -5l30 -19l12 -9l4 -2l1 -1v-2h2l9 -7l26 -19l13 -8v-2l3 -1l13 -9l8 -6l26 -14l19 -14l9 -4l1 -1l2 -2h2l2 -2l3 -1l4 -2l18 -10h1l2 -2h3l12 -5l4 -1l5 -3l5 -2l44 -14l-3 -6l-1 -31h-1l1 -2h-1v-2h-3v-3h1l2 -1v-2l2 -2l2 -1l4 -2l2 -1l2 -2l2 -1l8 -5v-2l2 -1l2 -1v-2l2 -1h1l3 -5l2 -5l1 -7l1 -1h4l11 11v1h3v2l2 1l9 4h3l2 2l2 1l8 3h2l1 2l1 1v-1l2 1h3v2l1 3l3 4v1l-3 -1h-2l-2 -2v-3h-4l4 32l1 5l1 4l-1 2h1h10v2h1l-1 1l-28 3l-16 2v2l-2 1h-1v-2l-19 3l-8 2l-14 2v3h-2l-1 -5h-4l-8 3l-39 14l-5 2l-17 7l-6 2l-40 23l-8 6l-11 7l-17 10h-2l-2 2h-2l-2 2h-1l-35 24l-3 1v2l-3 1l-7 5v2h-3v2l-5 2v2l-3 1l-32 24l-28 17l-6 5l-14 8v-1l-1 1h-1l-2 2h-1l1 1zM379 9817l8 -1l11 -1v-1l2 1v-1h11l18 -4h5h1l-1 -2l-10 -2l-4 -1l-2 -2l-6 -3l-6 -3l-5 -5l-3 -4h-1l-2 6l-3 6l-10 11l-6 4l-2 1v1h5zM373 9818v-1h-1v1h1zM408 9836v2h-2l1 2l1 6l1 3l1 4l1 3l1 2l12 -2v1l2 -1l8 -1l6 -1l1 -2l-4 -36l-1 -2h-5l-10 2l-5 1v1l-2 -1v1l-20 1l-2 1v-1l-2 1h-9l-7 2l-11 2l1 32h-1l1 2v2l2 3v1l2 2l29 -6l7 -1v-1l2 1l2 -1l-1 -4l-1 -5l-1 -3v-7l1 -4h1v1h1zM130 10365l-9 -1l1 -1l9 1l-1 1zM147 10361l-1 1l-2 -1l1 -1h1v1h1zM134 10362h-4l-4 -2h-6v-1h2v-1l2 1v-1h2l2 2h2v-1l2 2l2 -1h1l-1 2zM145 10356h-1v-2l2 -1l2 3h-2v-1l-1 1zM60 10303l-6 -1h-1l1 -1h2v1h4v1zM26 10289l-2 -1l-2 -1v-1v-1l2 1l4 1v1l-2 1zM18 10287l-2 -1h-2l-2 -1v-1l4 1l2 1v1zM18 10285l-2 -1l-2 -1l-2 -2v1l-2 -2l4 1l4 1l2 1v1l-2 1z"/><path class="chunk" data-i="8" d="M-35 10261l1 1h2l7 4l3 2h2l2 2l2 1l4 1l2 1l2 1v1h-2l-12 -5l-12 -6l-2 -2h1v-1zM-58 10249l-1 -1l-9 -5l-2 -1v-1l2 1l10 5l1 1l-1 1zM-94 10226l-2 -1v-2h-2l-1 -1l1 -1h2l1 1v2h2v2h-1zM-149 10209v-1h-1v-1l1 -1h1v2v3v-1v-1h-1zM-179 10188v-1h-1v1h1zM-146 10216v-1l-1 1h-1l-1 -2v-1l-27 -21l-3 -2l-2 -2h-1h-1l1 -2v-1l2 1v-1l2 2l4 1v1h1l1 2h2v2l5 2v2h2v2h2v2l7 4l2 2h1v1l1 1h1v1l1 1l2 3l2 -1v1l-1 2h-1zM-144 10184h-1v-2h-2v-2h1l2 2l1 2h-1zM-242 10172l-1 -1l-1 -2h-2v-1h2v-1l1 1v1h3v1l-2 2zM-594 10214v2h-4v-2l2 1v-1l1 -1v1h1zM-332 10068l1 -2h-1l1 -2l-1 -6l-2 -8l-4 -4l-3 1h-2l-3 1l-6 6h-1l-3 6l-2 3v4l-2 6l-1 5l-1 2h12l2 -1v1l2 -1v1h12l2 -12zM-375 10081l-1 -2v-2l1 -2v-9l-1 -10l-2 -3h-2l-2 3v5l-3 12l-1 8h11zM-362 10081v-1h-1v1h1zM-365 10091v-1h-1v1h1zM-312 10144v-1h-4l-1 1h5zM-308 10144l1 -1h-3l-1 1h3zM-311 10145v-1h-1v1h1zM-589 10211v-1h-1v1h1zM-567 10201v-1h-1v1h1zM-570 10202l1 -1h-1l-1 1h1zM-583 10208h1v-2l2 1h1l1 -2v1l1 -1h1l1 -1h1h1l-1 -1h-1v-1h2l4 -2l1 -1l2 1v-2l2 -1v1h1v-2h2l2 -2h1h1l-1 -2h4l3 -2h3l2 -2h1l5 -2l7 -4h3l2 -2h2l2 -2h1l2 -1l3 -1v-2l2 1v-1l4 -1l2 -2l5 -1l36 -11l22 -5l9 -3l2 1v-2l40 -5v-1h-1l1 -2h-1l-3 -12v-4l2 -30l2 1h1l1 34v2l3 6v1l1 2l5 1h6h1l2 -1v1l31 -1l2 -49l1 1l1 2h-1l1 2l-1 2h1v2l-1 2h1l-1 6l-1 3v2l1 27l12 -1l12 -1l12 -1v-4v-15l-2 -12l-1 -3l-1 -4h-2l-4 -7l-2 -1l-2 -1l-7 -3h-2v2l-3 1l-2 1v-1h-2l-1 -2v-2l-5 -1l-1 1v3l-1 -1v-3l-9 1h-5h-2v-1l-2 1h-2v2l-2 2l1 2l-3 46h1l-1 2h-2l-1 -2l-1 -2v-3l5 -47l-13 1l-2 1v-1l-10 1l-2 -1v1v1l-2 -1h-1v-2h1l-1 -2l-1 -2l4 -3h5v-3l-1 -2h1l1 -6l1 -8l1 -8l2 -2v-2l2 -1h1h3h2l3 3l3 16v10l-2 2v1h8l1 -1l-3 -4v-2v-6l1 -6l-1 -2h2l1 -3l1 -2v-1l8 -9h2l1 -3l1 -1v1l2 -1l2 -2h3v-2h3l2 1v-1h2l2 2h2l2 2l3 3v1l2 9l1 6l1 2h-1v9l-2 6l-1 3v2l7 2l2 2l4 1l11 11l1 1l2 5l2 14l1 21l5 1l1 2l1 2l-2 2h-2v-2h-4v2h2l-2 2h-2l-1 2v1l-4 1l-47 1v-1l-2 1l-22 -1v1l-2 -1l-12 -1l-1 -1h1v-1l-10 1l-10 1l-3 1l-8 -1v2l-8 -1l-45 11v-1h-1v2l-9 3l-2 -1v2l-25 8h-3l-2 2l-2 1l-38 17l-2 1l-2 2l-2 1l-12 6h-2l-2 2l-2 1l-12 5h-2v-1l1 -1l1 -1v1h1v-2l1 -1l4 1l-1 -2h1h1l1 1l1 -1zM-189 10161h-2v-1v-1l-1 1v1l-10 -1l-2 1v-1l-2 1l-2 -1v1h-2v-1l-2 1l-6 -1l-8 -1l-1 -1l5 -100h-1l1 -2h-1v-4l-1 -2h-10v1l-2 -1v1h-12v1l-2 -1h-4v1l-2 -1h-1h-12l-2 35h-1l1 2h-1l-2 56l8 1v1l2 -1v1h4l2 1v-1l2 1l4 1l13 3l3 1l2 2l-1 4l-1 1l-4 1v-1l-2 1v-1l-3 -1l-19 -5v1l-2 -1l-9 -2l-5 -1l-1 -2v-1l-1 -3l1 -6l-1 -2h1l-1 -6l1 -2h-1l8 -65l1 -12h-7l-2 -1v1l-2 -1l-16 -2l-2 -2h-2l-2 -3h-2l-3 -3l1 -2h-1l1 -2v-1l8 -18l7 -23l1 -4h-2l-12 -6l-2 -1l-4 -5v-2v-5v-1l6 -6l4 -2l2 -1l2 -2h2l2 -2l5 -1l6 -1v2h1l2 1v-3l2 -3v-2l1 -2h-1l1 -2l1 -2l2 -10l3 -2l-1 -2h-2l-8 -6l-12 -12l-2 -4l-2 -2v-2l-2 -2v-4l-1 -3l-3 -1l-4 -4v-5l-5 1v-13l-1 1v1l-2 3v3h-3l-1 -3v-2l1 -2l-2 -2v-2h-1l1 -2l3 -14l4 -10l8 -22l8 -12v-2l12 -11l2 -1v-2l4 -3l4 -3h2l2 -2v1l2 -1l6 -1l2 -2l15 -3l7 -1v1l2 -1v1h4l20 7l3 3v2h2v2l7 6v2l6 6v2l4 7l3 8l6 22l1 17l-1 2h1v4h-1l1 2l-1 6h-1l1 2h-1v3l-3 7l-3 7l-4 10l-1 3l-2 2l-9 10h-2l-3 4l1 3v4l4 23l2 1h1v-2h3l2 1v-1l5 1l15 3l3 3l-1 6l-2 2l-2 2h1l-1 1h-1v2h-1l-1 1h1v1h-2l-1 1v2h-2v2l-3 2h-1v2l-2 2l1 3l2 7l10 29v3l2 2l1 6l-3 3l-4 2l-18 6h-2v1l-2 -1v1h-8l-1 2l1 46h1l-1 2v4h1l-1 2h1v2h-1l1 2h-1l1 2v2l-1 2h1l-1 4h1l-1 2v9l-3 21l1 1l2 -1v1h4v-1l2 1h10v-1l2 1h1h6h1l2 1l-1 5v2zM-203 9906l1 -2l1 -4l1 -2l2 -2l1 -8l2 -2h-1v-2h2l-1 -2l1 -1v-2l1 -3l1 -10h1l-1 -2l-1 -14l-1 -3l-2 -13l-1 -2h1l-2 -2l-1 -6l-2 -2l-1 -1v-2l-4 -7l-2 -3l-9 -12h-2v-2l-5 -2v1h-1v-2l-6 1l-5 -3h-2v-1l-2 1v-1h-2v-1l-2 1l-8 1l-2 1v-1l-1 -1v1v1l-7 2l-4 1l-2 2v2l-8 7l-7 5l-13 23l-3 6l-1 3l-1 5v18l1 6v2l5 25l2 2l4 6l9 10l8 6l11 4l3 1h15l7 -1h3l10 -4l3 -2l8 -6l3 -2l1 -2l5 -4zM-278 9800v-1h-1v1h1zM-279 9801v-1h-1v1h1zM-280 9802v-1h-1v1h1zM-281 9803v-1h-1v1h1zM-282 9804v-1h-1v1h1zM-283 9805v-1h-1v1h1zM-284 9806v-1h-1v1h1zM-285 9808v-2h-1v1l1 1zM-288 9814l1 -2l1 -4h-1l-1 4v2zM-289 9815v-1h-1v1h1zM-290 9817v-1h-1v1h1zM-291 9819v-1h-1v1h1zM-246 9788v-1h-1v1h1zM-250 9789v-1h-1v1h1zM-260 9792v-1h-1v1h1zM-230 9792v-1h-1v1h1zM-263 9793v-1h-1v1h1zM-310 9852v-2l1 -2l1 -4l2 -8l-1 -1v1l-1 1l-3 8l-1 4l1 3h1zM-311 9854v-2h-1v1l1 1zM-311 9868l1 -10h-1l-1 10h1zM-308 9868v-1h-1v1h1zM-304 9890l-2 -16h-1l1 14l2 2zM-262 9954v-1h-1v1h1zM-261 9956v-1h-1v1h1zM-265 9962v-1h-1v1h1zM-268 9967v-1h-1v1h1zM-269 9969v-1h-1v1h1zM-272 9970v-1h-1v1h1zM-270 9970v-1h-1v1h1zM-273 9971v-1h-1v1h1zM-304 9972l-1 4l3 2l8 4l2 1l9 -23v-2h-1v1l-3 1l-5 2l-6 3l-2 1l-4 4v1l-1 1h1zM-274 9972v-1h-1v1h1zM-271 9972v-1h-1v1h1zM-284 9987v-2h2l1 -3l3 -4l2 -3l1 -3h-1v2h-2l-6 6v2l-1 2l-1 3h2zM-272 9973v-1h-1v1h1zM-282 9975v-1h-1v1h1zM-273 9975v-1h-1v1h1zM-274 9976v-1h-1v1h1zM-275 9979v-1l-1 -1v1l1 1zM-278 9982v-1h-1v1h1zM-280 9984v-1h-1v1h1zM-276 9993l2 -1l2 -1l1 -1h-1l-2 -1l-2 3v1zM-286 9995v-1h-1v1h1zM-284 9996v-1h-2v1h2zM-287 9997v-1h-1v1h1zM-282 9998l-2 -2v2h2zM-286 10000v-1h2v-1h-4v-1l-1 1v1l3 1zM-288 10001v-1l-2 -1v1v1h2zM-282 10002v-1h-1v1h1zM-283 10003v-1h-1v1h1zM-281 10003v-1h-1v1h1zM-279 10003v-1h-1v1h1zM-286 10005l2 -1v-1h-2l-1 1l1 1zM-275 10005v-1l-1 -1v1l1 1zM-281 10005v-1h-1v1h1zM-288 10007l2 -1v-1h-2l-1 1l1 1zM-276 10006v-1h-1v1h1zM-272 10009v-1h3v-3h-3l-1 1v2l1 1zM-288 10008v-1h-2l-1 1h3zM-278 10008v-1h-1v1h1zM-266 10010h1l-1 -2l-2 1v-1l-2 2h4zM-286 10010v-1h-1v1h1zM-284 10017l2 -1v-2l2 -2v-2h2v-1h-3l-1 3l-3 4l1 1zM-291 10011v-1h-1v1h1zM-276 10014v-1h-1v1h1zM-270 10013v-1h-1l1 -2h-4v1l-1 3h3l1 2l-1 1l-2 -1l-3 1h-1l-3 3l-1 1v2l-1 1l1 1v-1l4 -1l2 -2l10 -5l1 -2l1 -1v1l2 -1l1 -1h-1l-4 -1v1l-2 -1v1v1h-2zM-266 10036l2 -1v1h1v-2l2 -2h-1l-10 4h-2l-2 -2v-2l-2 -2l1 -2v-2h-2l-4 2l-2 1v3v8h-4l-1 -3l1 -6h-1l-3 -3l1 -3l1 -4l1 -2l-1 -3l-1 -2h-2v4l-6 15l-1 3l1 2h2l2 2l6 1l19 2l1 -3l4 -4zM-289 10017v-1h-1v1h1zM-285 10018v-1h-1v1h1zM-288 10028l2 -6l1 -3h-1l-2 1v3l-2 3v2h2zM-268 10022v-1h-1v1h1zM-269 10023v-1h-1v1h1zM-276 10026v-1h-1v1h1zM-274 10026v-1h-1v1h1zM-269 10027v-1h-1v1h1zM-266 9964v-1h-1v1h1zM-267 9965v-1h-1v1h1zM-198 9980l5 -6l1 -2l2 -2l1 -2l-1 -2h-4l-4 -2h-6l-1 2l1 2l2 2l1 3l1 5l2 2zM-259 9989v-1h-1v1h1zM-260 9990v-1h-1v1h1zM-261 9991v-1h-1v1h1zM-246 9993v-1h-2v1h2zM-254 9995v-1h-1v1h1zM-246 9995v-1h-1v1h1zM-242 9995v-1h-2l-1 1h3zM-240 9995v-1h-1v1h1zM-255 9996v-1h-1v1h1zM-250 9999v-1h-1l1 -1l1 -1h-1l-2 -1l-3 3l1 1l2 -2v1v1h2zM-238 9996v-1h-2v1h2zM-237 9997v-1h-1v1h1zM-256 9998v-1h-1v1h1zM-248 9998l1 -1h-1l-1 1h1zM-245 9998v-1h-1v1h1zM-236 10002v-4l-1 -1v5h1zM-253 10000v-1h-1v1h1zM-245 10000v-1h-1v1h1zM-247 10001v-1h-1v1h1zM-246 10002v-1h-1v1h1zM-241 10002v-1h-1v1h1zM-239 10002v-1h-1v1h1zM-259 10003v-1h-1v1h1zM-243 10004v-1h-1v1h1zM-241 10004v-1h-1v1h1zM-243 10006v-1h-1v1h1zM-246 10006h1l-1 -1l1 -1l-1 -1l-2 2l-2 -1v-1l2 -1l-2 -2h-1l-2 1l-3 1l-1 2h1h1v2h1l-2 2v-1l-1 1v1h3v1l-1 2h1h1v-2l3 -2l2 -2h1l1 1v-1zM-245 10009v-1l-1 -1l-1 1l1 1h1zM-255 10013v-1h-1v1h1zM-256 10014v-1h-1v1h1zM-251 10013l1 -1h-1l-1 -1v1h-1l1 1v1l1 -1zM-257 10015v-1h-1v1h1zM-254 10015v-1h-1v1h1zM-252 10015v-1h-1v1h1zM-253 10016v-1h-1v1h1zM-260 10018v-2h-1v1l1 1zM-250 10017v-1h-1v1h1zM-256 10019v-1h-2v1h2zM-258 10020v-1h-1v1h1zM-253 10020v-1h-1v1h1zM-238 10020v-1h-1v1h1zM-267 10021v-1h-1v1h1zM-260 10021v-1h-1v1h1zM-258 10023l2 -1l2 -2l-4 1l-2 3l2 -1zM-238 10023v-1h-1v1h1zM-261 10025v-1h-1v1h1zM-249 10025v-1h-1v1h1zM-266 10026v-1h-1v1h1zM-262 10027v-1l-2 -1v1v1h2zM-260 10026v-1h-1v1h1zM-257 10027v-1h-1v1h1zM-247 10027v-1h-1v1h1zM-275 10029v-1l-1 -1v1l1 1zM-270 10031v-1h-1v1h1zM-264 10028v-1h-2v1h2zM-256 10028l1 -1h-1l-1 1h1zM-249 10028v-1h-1v1h1zM-258 10029l1 -1h-1l-1 1h1zM-250 10029v-1h-1v1h1zM-255 10030v-1h-1v1h1zM-253 10031v-1h-1v1h1zM-259 10033v-1h-1v1h1zM-257 10035v-1h-1v1h1zM-259 10036v-1h-1v1h1zM-261 10038v-1h-1v1h1zM-248 10038l1 -1h-1l-1 1h1zM-212 10039v-1h-2v1h2zM-213 10041v-1h-1v1h1zM-258 10043l2 -1v-1l-4 1v1h2zM-253 10042l-1 1l-2 -1v2h4v-1l2 1h4v-1l2 1v-1l6 -1v-1l1 1l-1 2l5 -1v-3h1v2h4v-1h-2v-1h2l-1 -4h2v4l1 1h3v-2h1l1 1h-1v1h2l1 -1h-1v-1h2v2h2v-1h1l-1 -1l1 -1l-1 -1l-3 1h-1l-2 -2l2 -1v1h6l3 2v2h1v-2h1v2h1v-1l2 1l2 1h2l3 -1l4 -2l7 -2v-2l-12 -38l-1 -2h-1l-4 4l-1 7l-2 1l-3 -1l-2 -1l-1 -2v-4l4 -4v-2l6 -6l-1 -4l-4 -12l-1 -2l-1 -2h-3v-2l-1 -2l3 -2l-3 -30l-2 -1l-2 1l-9 3l-3 1l-10 3h-2v-1l-2 1l-3 -1h-2l-2 1l-5 1v-2h-4v-1l-1 1l-1 1v-3l-6 -1l-1 1l-7 26v2l-1 2h1v2h-1l1 1l-3 3l-1 4l9 -8v-2l1 -1l2 -1v-1l1 -1v-1l3 -3h-2l2 -3h1l1 1v-1l2 -1v-2h1v-1h1l1 -1v-2h1v-1l1 -1v-1h1v-1h3l-1 3l-10 17v2l-2 2v2h-2v2l-2 4l-2 3l-4 4l-1 3l-5 4l2 2h2v1l2 -1v-2l4 -6l2 -2l1 2l-2 2v1h-2v3l3 2v-1h2v-2h2v-1h-2v-1h2v-1l2 1v-1l-1 -2h1h2l2 -2l-1 -2l3 -2v-3h1v1l1 2l-1 2h-1h-1l1 2h-1l2 2l-2 2l1 2v2l1 2l-1 1l-2 -1v2v1l-2 -1v2l-2 2h-2l-1 2h1l2 1v-1h1l1 3h1l1 1v-1h2l2 1l1 -2h-1h-1l-1 -2h-1v-1l1 -1h-1l2 -2l4 -2h1h1l-1 2l4 2h1l-3 -4l2 -1h4v1l2 -1l1 1h1v1l1 -1l1 -1l1 1l1 1l1 4l1 3l2 2v1h-2v-1h-1v2h-1l-2 -1l-1 1v1l-11 11h2l8 -9h2l-7 7l1 1l2 -1v1h4l2 1v1h-2h-7h-3l-1 1v1h-1l-1 1l-1 2h-2l-1 2l-1 2h1l3 1l1 -1l-1 -1h-1l3 -3l4 -1v-1h2l-1 -2h1h6l1 2v2l-3 4l-2 -1l-4 1v2h-2l-1 2l-1 2h-2l-2 2v4h-1v-2h-3v2h-2l-1 2h1h1l6 -2l5 -3l6 -6h2l-7 7l1 1h4v1l-11 2v1l-1 1h1zM-264 10044v-2h-1v1l1 1zM-239 10044v-1h-1v1h1zM-217 10051v-1h-1v1h1zM330 10395v-1l-2 1h-5l1 -1l4 -1h3v1l-1 1z"/><path class="chunk" data-i="9" d="M326 10391h-7l1 -1h6v1zM262 10358l-4 -1l-2 1l-1 -2h1h4l2 2zM302 10357h-2v-1l-2 1h-2l-1 -1l1 -1h4l2 1v1zM401 10302h-1v-2l4 -1l2 -2v1l-4 4v-1l-1 1zM357 10325h-1l-2 -1v1h-2l-2 -1v-1h7v2zM312 10296h-2l1 -2v-1h3l2 1v1h-2v-1l-2 2zM278 10349v-1l-2 -1v-1l6 1v1h-2l-2 1zM409 10293l-1 -1l-1 -3v-1l1 -2h-1l1 -2h-1l1 -5v-10l-1 -3l-2 -2l1 -2h-1l-1 -2v-2l-1 -2h1l1 2l1 1l1 4l1 4l1 26zM395 10238h1v2l2 2h-1l1 2h2l-1 2h1h1l-1 2h1l1 3l1 3v2h-1l-2 -2l-1 -5l-1 -3l-3 -4l-1 -3l1 -1zM394 10239h-2v-1v-1l-2 1l-1 -5h-2l-1 -4l1 -1h1l3 6l4 4h-1v1zM366 10280h-4l-3 -2h-1l-2 -2v-1l2 2l6 1l2 2z"/><path class="chunk" data-i="10" d="M228 10364l-4 -1v-1h2v-1l2 1h1l-1 2zM215 10363h-1v-3h-1v2h-1v-1l-2 1v-2h2l4 -1l1 1v2h1v-2l2 2l-2 1h-2v-1h-1v1zM206 10359h3v3h-3v1l-1 -1v-1l-9 -1h2l-1 -3h2v3h1v-1l2 1l3 -1l1 1v-1zM194 10358l2 -1v3l-2 -1v-1zM194 10359l-2 2v-1v-6h1l1 4h-1l1 1zM42 10294v-1h-1v1h1zM44 10295v-1h-1v1h1zM47 10296v-1h-1v1h1zM50 10300v-1h-1v1h1zM70 10302v-1h-1v1h1zM65 10303v-1h-1v1h1zM73 10303v-1h-1v1h1zM69 10304l-4 -1v1h-5v-1h2v-1h-2v-1h-4v-1l-4 -1l-1 1h1v1l-3 -1l-2 -1l1 -1h-1l-3 -1v1h-2l1 -2h-1l-2 -2l-2 1v-1v-1l-2 -1h1v-1l2 1l16 5l9 2l2 2l2 -1h2l21 6l19 3l2 1v-1l2 1h5l43 8h8l2 2h2l4 -1v1h-3l1 1h3v-1v-1l1 1v1l2 -1h2l2 2h8v-2h4v1h-2v1h6h1l-1 -2h28v-2h2l1 2v1h2v1l-1 2l-74 -2l-44 -7v-1l-2 1v-1l-12 -1v-1l-2 1v-1h-7l-9 -2v-2l-2 1l-3 -1l-5 -1l-1 -1h1v-1h-2h-3h1l1 -1h-1h-1zM77 10307v-1h-1v1h1zM80 10308l1 -1h-1l-1 1h1zM89 10310v-1h-1v1h1zM113 10312v-1h-1v1h1zM120 10313v-1h-1v1h1zM124 10314l1 -1h-1l-1 1h1zM134 10315l1 -1h-1l-1 1h1zM137 10315v-1h-1v1h1zM141 10316v-1h-1v1h1zM144 10317v-1h-1v1h1zM146 10317v-1h-1v1h1zM151 10318v-1h-1v1h1zM158 10319l1 -1h-3v1h2zM162 10319v-1h-1v1h1zM168 10320v-1h-1v1h1zM170 10320v-1h-1v1h1zM205 10322v-1h-1v1h1zM208 10322l1 -1h-1l-1 1h1zM212 10322v-1h-2v1h2zM218 10322l1 -1h-5l-1 1h5zM226 10322v-1h-2l-1 1h3zM228 10322v-1h-1v1h1zM244 10264l-1 -1l-1 -1v-1h4v1h-2v2zM206 10255v-1h-1v1h1zM223 10260v-1h-1v1h1zM232 10261v-1h-2v1h2zM230 10263v-1h-1v1h1zM233 10264v-1h-1v1h1zM236 10265v-1h-1v1h1zM240 10266v-1h-1v1h1zM242 10267v-1h-1v1h1zM245 10268v-1h-1v1h1zM248 10269v-1h-1v1h1zM252 10270v-1h-2l-1 1h3zM257 10272v-1h-1v1h1zM260 10273v-1h-1v1h1zM261 10274v-1h-1v1h1zM274 10279v-1h-1v1h1zM278 10281v-1h-2v1h2zM279 10282v-1h-1v1h1zM289 10289v-1h-1v1h1zM304 10296v-1h-2v1h2zM310 10304v-1h-1v1h1zM316 10309v1l7 4h1l2 1v-1h1v2l3 1l2 -1v2l9 2l9 2v1l-6 -1l-9 -2l-10 -4l-10 -6l-9 -7l-4 -2l-3 -3v-2l-4 1l1 -2v-1v-1l-2 1v-2l-2 1l-2 -2l-2 -1l-4 -3l-8 -5l-2 -1l-3 -2h-1l-2 1v-2l-49 -16l-7 -2l-2 -1v1l-2 -1h-2l-2 -2l-3 -1l-15 -4l-5 -1l-15 -3l-2 3h-2l-2 1l-1 -2l5 -5h1l7 -1l13 4l6 2h3l-1 2h1h1l3 -1v1v1l2 -1h3v2h1v-1h2l2 2v-1l2 2l2 -1l4 2v-1h1v2h1l2 -1v1l6 1v1l2 -1v1l2 -1h3v3h1l2 -1v1v1h2v-1h1v2h3l8 4l4 1l17 7l17 9l4 3h2v-1l1 1l-1 2l8 1v1h-2h-1l3 3v-1h4l-1 2l-1 2l4 4l4 2l4 4h-1l1 1zM386 10229l-1 1l-2 -1l1 -1h-1l-1 -2h1l-1 -1l-2 -1h1l-1 -1v-1h-1v1h-1v-1v-1l-2 1v-1h-2v-1h1l-3 -4l6 4h2l7 8h-1v1zM353 10221h-1l-1 -1h1l-1 -2l1 -1h2v2l-1 2zM350 10220l-1 -1l-2 -3l1 -1l2 1h1l-1 2v2z"/><path class="chunk" data-i="11" d="M346 10218l-4 -1v-1l2 -1h2l1 1h-1v2zM357 10207l2 1l10 6h1l2 2l-7 -1v-3h-1v1l-4 -1l-2 -2l-2 -1l1 -1v-1zM367 10214v-1h-1v1h1zM356 10209l-1 -1l-2 -1h1l1 -1h1h1v1h-1v1v1zM350 10204v-1h-1v1h1zM352 10205v-1h-1v1h1zM353 10207l-1 -1h-2l-2 -2l-2 -1l1 -1h-1v-1l3 1l3 1l2 2l-1 1v1zM346 10203l-6 -1v-1l4 -1h1l-1 2h2v1zM340 10201l-4 -1h-2l-2 -1h-1l1 -1l3 1h1l2 -1v2h2v1zM180 10132v-1h-1v1h1zM199 10119v-1h-1v1h1zM188 10123v-1h-1v1h1zM186 10127v-1h-1v1h1zM182 10128v-1h-1v1h1zM331 10127v-1h-1v1h1zM350 10132v-1h-1v1h1zM372 10137v-1h-1v1h1zM389 10141v-1h-1v1h1zM530 10094v-1h-1v1h1zM533 10096l2 2l5 8l1 2l3 2l2 2v4l-6 5l-1 1l-9 4l-20 4l-24 4l-4 2h-2l-17 4l-13 4l-2 2l-2 -1h-1l-3 1l-2 1v-1l-2 1h-14l-2 1v-1l-11 -1l-11 -1v-1l-2 1v-1h-2l-12 -3v-1h1l-1 -1h-1l-4 1l-11 -4l-3 1h-1l-1 -1h1v-1h-4l-2 -2v1l-16 -3v-2l-4 1v-2l-2 1h-2v-1v-1l-2 1l-16 -3v-1v-1l-2 1h-4v-2l-2 1l-20 -1l-2 -1l-2 -1l-2 1v-1l-62 -3l-2 -1v2l-2 -1h-5v2h-1l-2 -1v1h-2l-3 2h-1l-2 -1v1l-2 -1h-1v2h-1v-1l-2 1h-2l-2 1l-3 3h1v1l-4 1h-1l1 2h-2l-1 4l-1 2l2 2h-2l1 3l1 2l2 5l6 4l6 5h2l2 2h1l25 8l2 1v-1l2 1l14 3l18 5l2 -1l2 2l3 1h1l2 1v-1l2 1h1l13 5h4l2 2h2l5 2l4 1l5 1l4 1l2 2l3 1h1l2 -1v1h2l2 2l2 -1l2 2h1l-1 1h-3l-45 -14l-2 1v-1v-1l-12 -3l-2 1v-1v-1l-2 1v-1l-4 -1l-2 1l-2 -2v1l-2 -2h-4l-12 -3l-7 -1v-2h-1v1l-7 -1l-3 -2h-2l-2 -2l-2 1h-1v-1l-1 -1v1l-2 -1h-2l-2 -2v1h-2l-2 -2v1l-2 -1h-1l-2 -2h-2v-2h-1v1l-4 -4l-6 -4l-3 -3v-2h-2l-1 -4h-1l1 -2h-1l1 -8l2 -2h1l-1 -1l-1 -1l3 -3h3l1 -4l2 1h2l1 -2l1 -1v1l2 -1v1l1 -1h1l2 -2h2v1l2 -2h4v1l1 -1v-1h3v1l2 -1l10 -1h1l-1 -2l3 1l1 1v-1l2 1v-1l3 1h2l2 -1l15 1l2 1v-1l2 1l16 1l2 -1v1h2h1l-1 -2l4 1v1h-2v1h2l2 -1v1l36 5l63 14l30 7h31l4 -1l47 -12l26 -4l14 -4l3 -1l4 -2l6 -5l-4 -4h-1l-4 -8l-10 -12l-1 -2h-2l-1 -2l1 -2h1v2l1 1h2l1 2l-1 1h1l1 1l4 4l-1 1h1v1l1 -1zM540 10107v-1h-1v1h1zM325 10196v-1h-1v1h1zM-143 10219v-1h-1v1h1zM-136 10224v-2l-1 -1v3h1zM-134 10226l1 -2l-1 -1l-1 1v2h1zM-137 10225v-1h-1v1h1zM-135 10227v-1h-1v1h1zM-131 10227v-1h-1v1h1zM-134 10228v-1h-1v1h1zM-129 10228v-1h-1v1h1zM-126 10231v-1h-1v1h1zM-129 10233v-1h-1v1h1zM-122 10237v-1h-1v1h1zM-124 10239v-1h-1v1h1zM-123 10241v-1h-1v1h1zM-120 10246h1v-2h-1h-1l1 2zM-116 10249v-1h-1v1h1zM-115 10250v-1h-1v1h1zM-109 10257v-1h-1v1h1zM-107 10259v-1h-1v1h1zM-105 10262v-1h-1v1h1zM-103 10266v-1h-1v1h1zM-102 10268v-2h-1v1l1 1zM-101 10270v-2h-1v1l1 1zM-99 10273v-1h-1v1h1zM-98 10275v-1h-1v1h1zM-94 10277v-1h-1v1h1zM-95 10280v-1h-1v1h1zM-94 10281v-1h-1v1h1zM-93 10282v-1h-1v1h1zM-89 10282l-1 2l5 2v2h-1v1h2v2l4 1l1 2h-1v1h2l2 3l3 4h-1v1h3l12 15h2v2h2v2h2v2l35 26l10 8l13 8l5 2l9 4l1 1l2 2l3 1l3 1l5 3l23 9l7 3l3 1l5 2l40 13l13 3v1l2 -1v1h3l16 4l7 2l12 3l2 1v-1l9 3l46 7l2 1h2l5 -2l64 -10l7 -2l5 -1l4 -1l8 -4h4l23 -9l3 -1l2 -2h1l8 -4l9 -4l-2 -2h-1l-5 -4l-3 -1l-3 -2l-4 -2l-4 -3l-26 -18l-28 -16l-34 -21l-2 -2h-2l-2 -2l-2 -1l-7 -4h-1l-2 -2h-2l-4 -3l-1 -1l-3 -2l-20 -13l-39 -25l-1 -1l-2 -2h-2l-2 -2l-2 -1l-73 -39l-3 -2l-30 -15l-10 -4l-21 -8l-45 -14l-5 -2l-89 -18l-46 -14l-7 -3l-7 -3l-7 -2h-5h-4v-1l10 -1v-1l1 1l1 1v1l1 -1h2v1l1 1v-1l9 2l56 18h6l4 2l12 2l64 14h2l57 16l10 4l28 14l20 10l6 3l2 2h2l2 2l2 1l36 20h2l2 2h2l2 2h1l13 8h2l6 1v1h-3l1 1l2 1l65 44h1l2 1v-1h1v2l1 1l2 1l80 46l26 19l18 9l2 1l2 2h2l2 2l1 1h2l1 1l2 1v4l-2 1v-1l-3 -1l-2 -1l-3 -1l-2 -1l-4 3l-2 2l-3 1l-9 3l-2 1l-2 2h-3l-54 18l-66 12h-4l-41 -7l-2 -1v1l-2 -1l-6 -1l-33 -6l-30 -7l-20 -6l-18 -6l-11 -6l-30 -10l-2 -2l-5 -2l-3 -1l-2 -2l-4 -1l-2 -2h-1l-4 -2l-3 -1l-2 -3h-2l-6 -4l-4 -2l-2 -1v-2l-8 -5l-20 -14l-18 -15l-4 -3v-2h-2v-2l-2 -2h-2l-1 -2v-1h-1l-4 -3v-2h-2l-14 -18l-4 -6v-2h-2v-2h-2l-6 -11v-1l-2 -2v-2l-2 -2l-1 -2l-2 -4l-1 -2l-2 -2v-1l1 -1h-1v-2h-1v2h-1l-5 -6l-2 -2l-3 -4l-2 -3v-1l-4 -4l-7 -6v-2l-5 -4l-3 -2v-2h1v1l1 -1h2v2h1v-1h2l-1 1l1 2h2l1 -1l6 5v2l4 1v2h2v2l-1 1h1v2h1v1l1 -1l2 2l-1 1l1 2v1h1v1l1 -1h1v2h-1l1 1h2v1h-1l1 1h1l2 5h1l3 2l2 4l3 3l1 3l3 3l1 3l1 1v-1h2v2h-2v2l1 2l1 1l2 -1l1 2l-1 2h2l-1 2h1l3 1h-1l-1 1h1h1zM-86 10288v-1h-1v1h1zM-82 10293v-1h-1v1h1zM-75 10304v-1h-1v1h1zM-71 10308v-1h-1v1h1zM-50 10330v-1h-1v1h1zM-42 10336v-1h-1v1h1zM-41 10337v-1h-1v1h1zM-38 10339v-1h-1v1h1zM6 10371v-1h-1v1h1z"/></g><g class="f live" data-r data-f="0" fill="var(--live,#000)" fill-rule="evenodd"><path class="chunk" data-i="1" d="M-412 9895l1 -1h1v2h-2v-1zM-401 9885l-1 2h-3l2 -3l2 -4l3 -3h2v1l-4 4l-1 2h-1v1h1zM-412 9896l-1 2v1h-2v1l-1 2l-18 14l-4 2l-22 18l-13 6l-3 2h-4l-6 1h-13l-16 -3l-10 -4l-3 -1l-7 -5l-2 -1l-3 -7l-1 -2l-1 -6l1 -2h-1v-2l2 -9l1 -3l2 -2l2 -4l3 -3l4 -1l10 -1v-1l2 1l6 1l1 2v1h2l1 4v2l-1 1l1 2h-1l-1 4l-2 2l-2 -2v-2l-2 -2l-1 -4v-2h-4h-5l-4 1l-3 3l-1 2l-2 2l1 2h-1l-1 14l2 2v2l9 9l6 3l3 2l8 2l13 1v1l2 -1v1l2 -1l8 -1l6 -1l9 -3l7 -4l32 -24l23 -20h1h1l-1 1h-3l-1 2l-1 2l-1 -1v1l-1 1h-1v1l-1 1h1zM-417 9901v-1h-1v1h1zM-419 9903v-1h-1v1h1zM-421 9905v-1h-1v1h1z"/><path class="chunk" data-i="2" d="M-373 9762v-2l7 -7h1v1h1v1h-2l-1 1l1 2l-1 1l-1 -1v1h-2v1v1h-2v1h-1zM-362 9753v-1h-1v1h1zM-365 9753l1 -1v-2h2l2 1v1l-2 2h-2v-1h-1zM-373 9764h-2v2l-1 2l-22 11l-9 4l-4 1l-13 4h-6v1l-2 -1v1h-2l-2 -1v1l-12 -1v-1l-2 1v-1l-6 -1l-11 -2l-3 -1l-7 -7l-1 -2l-4 -4l-1 -3v-2v-9h-1l1 -2l1 -4h-1l1 -2l2 -2l-1 -2h1h1l1 -4l4 -3l5 -3l2 -1l3 -1h11h5l4 2l8 4h2l2 2l1 4v6v2h-2v2l-1 1h-2l-6 6h-2l-1 -1v-2l2 -2v-2l7 -6v-2l-4 -4l-2 -2l-3 -1h-2l-4 -1h-9l-4 1l-4 2l-7 7l-1 4l-1 6l-1 2h1l-1 2h1l-1 2l2 2l2 2l4 6l4 4h2l22 4l8 1l2 1v-1l9 -1l7 -1l4 -1l14 -5l12 -5l7 -4l1 -1l4 -3h1v2zM-377 9767v-1h-1v1h1zM-378 9768v-1h-1v1h1zM-380 9769v-1h-1v1h1zM-382 9770v-1h-1v1h1zM-222 9729l-8 1l-2 -2l-5 -2v-2l-3 -2v-3l-4 -12l1 -5l1 -3l7 -14l9 -5l13 -6l14 -3l7 -1l2 -1v1h14l2 -1v1l12 1l22 3l2 1v-1l2 1l36 5v1l2 -1v1l16 -1l2 1v-1h7l5 -2h5l-1 1h-2l-1 1v2l-10 -1v2h-3l-30 -1l-52 -7h-34l-6 1l-11 2l-5 2l-9 6h-1l-5 4l-1 2l-4 9l-1 1l-1 2h1l1 6v4l3 6l3 4h2l2 1l4 1l6 -2l1 -8l-2 -2v-2l1 -2h2l3 2v2v7v3l-5 4l-4 1zM-90 9683l1 -1h-1l-1 1h1zM-86 9683l1 -1h-1l-1 1h1zM-82 9683v-1h-2v1h2zM-80 9683v-1h-1v1h1z"/></g><g class="f live" data-f="1" fill="var(--live,#000)" fill-rule="evenodd"><path class="chunk" data-i="1" d="M-410 9894l1 -1v2v1h-1v-2zM-402 9882l-1 2h-2l2 -4l2 -3l3 -3h1l-4 4l-1 3h-1l1 1zM-410 9896l-1 1l-1 2h-1v2l-2 1l-20 12l-2 2l-21 21l-16 7l-3 1l-4 1h-5h-10l-14 -3l-14 -4l-3 -2l-11 -6h-2l-4 -8v-2v-7l1 -1l-1 -2v-1l4 -9l1 -4l2 -2l1 -4l2 -3l4 -1h7v-2l1 2l6 2l2 2v2h2l2 6v2v2l1 1l-1 1v5l-2 1h-1l-2 -1v-3l-3 -2l-1 -6l-1 -2l-4 -2h-4l-3 1l-2 3l-1 3l-2 2l1 1l-1 1l-1 14l2 2v2l11 9l9 3l4 1l9 3l10 2v1l1 -1l1 1l1 -1h7l6 -1l10 -3l8 -4l31 -26l22 -23l1 1v-1v2h-2l-1 2l-1 3v-1h-1v1v1h-1v1l-1 1v1h1zM-415 9901v-1h-1v1h1zM-417 9903v-1h-1v1h1zM-419 9905v-1h-1v1h1z"/><path class="chunk" data-i="2" d="M-375 9763v-2l7 -6v1h1v1h-1l-1 1l1 2l-1 1v-1h-1v1l-1 -1l-1 1v1h-1l-1 1h-1zM-365 9756v-1l-1 -1v1l1 1zM-368 9755v-1l1 -2l2 1l1 1h1l-2 3l-2 -1v-1h-1zM-375 9764h-2v3l-2 1l-23 12l-7 4l-3 1l-12 2l-7 -1l-1 1l-1 -1l-1 1l-3 -1l-1 -1l-1 1l-12 -2l-1 -1l-1 1l-1 -1h-4l-7 -1l-2 -1l-5 -4l-1 -2l-5 -3l-1 -2l-1 -2l-2 -8l-1 -1l1 -1v-4l-2 -1l1 -1v-1l2 -2l-1 -1v-1h1l1 -4l4 -4l7 -4l3 -1l4 -1h14l5 2l4 1l6 3h1l2 2v3v5v1l-2 1v1l-1 2l-1 1l-6 6l-2 1l-1 -1v-2l3 -2v-1l6 -8v-2l-2 -2h-1l-1 -2h-2l-2 -1h-4h-10l-6 1l-6 3l-7 7l-1 5l1 6h-1l2 1l-1 1l1 1l-1 1l2 2h1l2 1l3 3l3 3h1l18 3l10 2l1 1l1 -1l10 1h7l3 -1l11 -6l12 -6l8 -4h2l3 -3l2 1v1zM-379 9767v-1h-1v1h1zM-380 9768v-1h-2v1h2zM-383 9769v-1l-1 -1v2h1zM-385 9770v-2h-1v1l1 1zM-225 9727h-10l-2 -2l-3 -3v-1l-2 -3v-2v-9l1 -3l2 -3l10 -13l7 -7l10 -7l12 -3l8 -1l1 -1h1l15 -1l1 -2l1 1h9l20 6l1 2l1 -2l2 2l43 6l1 1l1 -1v1l13 -1l1 1l1 -1l7 -1l6 -1l6 -1v1l-3 1l-2 1v1h-11v1h-3l-26 1l-58 -12l-33 1l-7 1l-9 4l-3 2l-7 6l-1 1l-4 5l-1 2l-7 8v1l-2 1l1 1l-1 4v3l1 5l2 4h2l1 2h5l7 -1l1 -7l-1 -2v-3l1 -2h2l3 3v2v7v3l-6 3l-5 1zM-88 9683v-1l-1 1h-1h2zM-85 9683v-1h-1v1h1zM-83 9683l1 -1h-1l-1 1h1zM-80 9683v-1h-1v1h1z"/></g><g class="f live" data-f="2" fill="var(--live,#000)" fill-rule="evenodd"><path class="chunk" data-i="1" d="M-415 9890h1v-1h1v2h-2v-1zM-402 9882l-2 2l-2 -1l2 -2l2 -2l3 -3h1l-3 4l-1 2h-1h1zM-415 9891l-2 2v1l-2 1v1l-2 2l-17 15l-2 2l-24 15l-10 9l-2 2l-3 1l-5 1l-13 2h-18l-9 -3l-2 -2l-7 -6l-2 -1l-5 -8l-1 -2l-3 -6l1 -1l-1 -1v-2l1 -9v-4l3 -2l2 -5l3 -3l6 -1h12l1 -1l1 1l6 1l2 2v1h2l1 4v2v1l1 1l-1 1l-1 5l-1 2h-1l-1 -2v-2l-3 -3l-1 -5v-1l-5 -1h-6l-6 2l-3 2l-1 4l-2 2l1 1l-1 1v16l3 2v2l9 10l6 3l3 1l8 1l14 -1l1 1l1 -1h1l1 -1l8 -1l4 -3l7 -5l6 -4l30 -22l26 -21h2h1l-1 1h-4l-1 2l-1 1h-1h-1l-1 1h-1v1l-1 1h1zM-421 9897v-1h-2v1h2zM-424 9899v-1h-1v1h1zM-426 9901v-1h-1v1h1z"/><path class="chunk" data-i="2" d="M-372 9764v-1l9 -9h1v1h1v1h-2l-1 2l1 1l-1 2l-1 -1l-1 1h-1l-1 1v1h-2l-1 1h-1zM-359 9754v-1h-1v1h1zM-362 9754l1 -1v-2h2h2v1l-2 3h-2v-1h-1zM-371 9767h-2l-1 2l-1 2l-21 8l-11 3l-5 2l-16 3h-6l-1 1l-1 -1l-1 1h-1l-1 -1l-1 1l-9 -1v-1l-1 1l-1 -1l-5 -1l-11 -2l-4 -1l-6 -6l-1 -3l-2 -3v-2l-1 -2l2 -8h-1l1 -1l2 -4l-1 -1l1 -1v-1l2 -2l-1 -1v-1h1l1 -4l3 -3l4 -4h2l2 -1l10 -1h5h5l9 2l1 1l3 2l1 3l-1 6l-1 2h-2v1l-2 2h-1l-7 6h-2l-2 -1v-3l3 -2v-1l8 -7l1 -2l-4 -3h-1l-2 -2h-3h-2l-4 -1l-9 1l-3 1l-4 3l-4 7l-2 5l-1 6l-1 1l1 1l-1 1v1l-1 1v1l1 1h1l1 2l3 6l5 4h1l20 4h6l1 1l1 -1l9 -1l8 -1l5 -1l17 -5l12 -4l7 -2l1 -1l4 -3h1l1 3zM-376 9769v-1h-1v1h1zM-377 9770v-1h-1v1h1zM-379 9771v-1h-1v1h1zM-381 9772v-1l-1 -1v1l1 1zM-225 9729h-7l-2 -2l-4 -3v-1l-3 -2l-1 -2l-4 -13v-5l1 -4l8 -15l11 -5l14 -5l12 -4h6l1 -2l1 2h13l1 -1l1 1l13 2l26 5l1 1l1 -1l1 1l37 7l1 1l2 -1l1 1l15 -3l1 1l1 -1l4 -2l4 -2l3 -1v1h-2l-1 2v1l-6 1l-1 2l-2 1l-31 1l-55 -11h-34h-5l-9 3l-5 1l-11 4l-2 1l-5 4l-1 2l-5 10l-1 2l-1 1l1 1l1 6l1 5l3 6l4 3h1l2 1h3l6 -1l1 -9l-2 -2l1 -3l1 -1l2 -1l3 3v1l-1 8v3l-5 6l-4 1zM-86 9685l1 -1h-2v1h1zM-82 9685v-1h-1v1h1zM-80 9684l1 -1h-1l-1 1h1zM-78 9684v-1v1z"/></g><g class="f jolt-f live" data-f="3" fill="var(--live,#000)" fill-rule="evenodd"><path class="chunk" data-i="1" d="M-416 9897v-1h1v2v1l-1 -1v-1zM-406 9887l-2 2l-2 -1l2 -4l3 -4l4 -5h1l1 1l-5 5l-2 4l-1 1l1 1zM-416 9898l-1 1v1h-1v2l-1 1l-16 14l-4 2l-24 16l-13 4l-4 1l-6 1l-7 2h-12l-8 -3l-8 -2h-2l-8 -2h-1l-4 -5v-1l-1 -8v-1v-2v-2v-12v-4l1 -2l1 -4l2 -2h4l11 2l2 -1l1 2l8 2l2 2v1h2l2 4l-1 1v1l1 1h-1l-2 2l-2 1h-2h-2l1 -1l-3 -2l-1 -3l-1 -2l-5 -1l-6 -1h-4l-2 2l-1 3l-1 2l1 1l-1 1l1 16l2 2l1 2l8 3l6 1l2 1l5 1l8 1v1l2 -1v1l1 -1l9 -1l8 -1l9 -2l6 -1l37 -26l18 -16l1 1h1l-1 1l-3 -1l-1 3l-1 2l-1 -2v1h-1v1h-1l1 1h-1v1h1zM-419 9901l-1 -1v1h1zM-420 9903l-1 -1v-1v2h1zM-422 9905v-2h-1l1 1v1z"/><path class="chunk" data-i="2" d="M-371 9766l-1 -1l7 -8h1v1h1l-1 1h-1l-1 1l1 1l-1 1l-1 -1v1l-2 1v2h-1l-1 1zM-361 9757v-1h-1v1h1zM-364 9757v-1l1 -1h2l2 1h1l-3 2h-2l-1 -1zM-371 9768l-1 1v2l-1 2l-22 14l-10 2l-4 1l-11 2h-5l-1 1l-2 -1l-1 1h-2l-2 -2l-1 1l-16 -3l-2 -2l-1 2l-2 -2l-7 -2l-12 -5l-2 -1l-4 -6l-1 -3l-3 -2l-1 -3v-1l1 -9l-1 -1l1 -1l2 -5h-1l1 -2l3 -2l-1 -1l1 -1h1l2 -2l5 -3l7 -3l2 -1h2l9 -1h2l2 1l4 3h1l2 3v3v6v2h-1l-1 1l-1 1h-1l-3 4l-2 -1l-1 -1v-1l1 -1v-1l5 -5v-2l-2 -3l-1 -1l-1 -1h-1l-2 -1h-5l-4 1l-4 2l-9 5l-3 4l-2 6l-1 1h1l-1 2h1l-2 1v1l2 1h1l1 1l2 5l3 4h1l27 9l11 3l2 2v-1l10 1h6h4l16 -2l13 -7l5 -6h1l2 -4l2 -1v2zM-374 9772v-1l-1 1v1l1 -1zM-374 9774l-1 -1h-1l1 1h1zM-376 9775v-1l-1 1v1l1 -1zM-378 9777v-1h-1v1h1zM-220 9734h-11l-3 -3l-6 -5v-2l-3 -5l-1 -4l-1 -16l1 -4l2 -2l5 -9l6 -6l13 -9l15 -3h8l1 -1l1 1l16 3h1l1 1l14 4l26 8l1 1l1 -1l1 1l30 -8v1l1 -2v1l15 -4l1 1l1 -1h8h5l6 2h-1h-2l-1 1v1l-12 -2l-1 1l-3 1l-23 6l-53 -3l-38 -8h-8l-13 5l-5 3l-8 6l-3 4v1l-4 5v1l-1 1l1 1l-1 6l1 5l2 10l5 7l1 1l3 1l5 1l7 -1l-2 -9l-3 -3l-1 -4l1 -1l2 1l4 4l1 1l3 8l1 3l-4 5l-5 2zM-95 9675v-1h-1l-1 1h2zM-91 9675v-2h-1l-1 2h2zM-88 9674l1 -1h-2l-1 1h2zM-85 9674v-1h-1v1h1z"/></g><path class="grain" fill="#000" fill-rule="evenodd" d="M177 10132h-1v-3l1 1v2zM178 10128h-2v-2l2 2zM179 10125h-1v-1h1v1zM178 10124h-1v-1h1v1zM179 10123h-1v-1h1v1zM-60 10148h-1l1 -1h1l-1 1zM-58 10146l-1 -1v-1h1v2zM-57 10143h-1v-1h1v1zM-59 10143h-1v-1h1v1zM-56 10141h-1v-1h1v1zM-57 10140h-1v-1h1v1zM-54 10140l-1 -1v-1h1v2zM-52 10138l-1 -1v-1h1v2zM-49 10135h-1v-1h1v1zM-48 10134h-1v-1h1v1zM-47 10133h-1v-1h1v1zM-45 10132h-1v-1h1v1zM-48 10132h-1v-1h1v1zM-43 10130h-1v-1h1v1zM-39 10127h-1v-1h1v1zM-38 10126h-1v-1h1v1zM-36 10124l-1 -1l1 -2h2v1l-2 2zM-37 10122h-1v-1h1v1zM-33 10121h-1v-1h1v1zM-32 10120l-1 -1l1 -1h1l-1 2zM-34 10119h-1v-1h1v1zM-30 10118h-1v-1h1v1zM-33 10118h-1v-1h1v1zM-29 10117h-1v-1h1v1zM-28 10116h-1v-1h1v1zM-30 10116l-1 -1v-1h1v2zM-28 10115v-1l2 -1v1l-2 1zM-29 10114h-1v-1h1v1zM-24 10109l-1 -1h1v1zM-24 10108v-1l1 1h-1zM-21 10104l1 -1v1h-1zM-20 10103v-1h1v1h-1zM-19 10102l1 -1v1h-1zM-180 10153l1 1h-1v-1zM-173 10153h-1v-1h1v1zM-176 10153h-2v-1h2v1zM-182 10153v-1l2 1h-2zM-174 10152h-1v-1h1v1zM-179 10152h-1v-1h1v1zM-172 10151h-1v-1h1v1zM-176 10151h-2v-1h3l-1 1zM-178 10137v-1l1 1h-1zM-190 10137h-2v-1h2v1zM-182 10135h-1v-1h1v1zM-271 10154h-1v-1h1v1zM-276 10153h-1l1 -1h1l-1 1zM-285 10151h-1l-1 -1l1 -1l1 1v1zM-382 10154h-2v-1h2v1zM-386 10154h-2v-1h3l-1 1zM-392 10152h-1v-1h1v1zM-378 10142h-1v-1h1v1zM-379 10141h-1v-1h1v1zM-341 10093h-1v-1h1v1zM-405 10153h-1v-1h1v1zM-408 10153h-1v-1h1v1zM-394 10152h-3l1 -1h2v1zM-398 10152h-2v-1h2v1zM58 10046h1l-1 1v-1zM62 10044v1l-1 -1h1zM52 10052h-1v-1h1v1zM-258 10054h-1v-1h1v1zM-252 10053h-1v-1h1v1zM-212 10052h-1l1 -1h1l-1 1zM-215 10052h-1v-1h1v1zM-246 10043h-3l1 -1h2v1zM-234 10042h-1v-1h1v1zM-250 10042h-1l1 -1h1l-1 1zM-253 10041l1 1h-1v-1zM-238 10041h-1v-1h1v1zM-216 10040h-1v-1h1v1zM-224 10040h-1v-1h1v1zM-239 10040h-1v-1h1v1zM-244 10042l-2 -1v-1l4 -1l1 1l-3 2zM-218 10039v-1l1 1h-1zM-229 10039h-1v-1h1v1zM-236 10039h-1l1 -1h1l-1 1zM-230 10038h-3l1 -1h2v1zM-236 10037h-1v-1h1v1zM-238 10037h-3l1 -1h2v1zM-212 10036h-1v-1h1v1zM-224 10037h-2v-1v-1l2 1h1l-1 1zM-234 10036h-1l1 -1h1l-1 1zM-214 10035h-2v-1h2v1zM-227 10035h-1v-1h1v1zM-230 10035h-2v-1h2v1zM-220 10034l-1 -2h1h3l-1 1l-2 1zM-250 10035h-2v-1l2 -2h1v2l-1 1zM-246 10031h-1v-1h1v1zM-245 10030h-1v-1h1v1zM-243 10029h-1v-1h1v1zM-240 10029v-2l3 -1v2l-3 1zM-242 10027h-1l1 -1h1l-1 1zM-255 10026v-2h1v1h1v1h-1h-1zM-251 10020h2l-1 1l-1 -1zM-249 10020v-1h3v1h-3zM-241 10014h-1v-1h1v1zM-252 10013v-1h1v1h-1zM-236 10009h-2v-1h2v1zM-252 10008h-1v-1h1v1zM-247 10006l1 -1v1h-1zM-234 10006l-1 -1l1 -1h1l-1 2zM-255 10004l1 -1v1h-1zM-258 10001v-1h1l-1 1zM-261 10001v-1h1v1h-1zM-232 10000h-1v-1h1v1zM-260 10000l-1 -2h2v2h-1zM-232 9998h-1v-1h1v1zM-263 9998v-1l2 1h-2zM-259 9997h-1v-1h1v1zM-233 9996h-1v-1h1v1zM-234 9995h-1v-1h1v1zM-240 9992v-1l1 1h-1zM-249 9991h-1v-1h1v1zM-250 9988h-1v-1h1v1zM-248 9989l-1 -1v-2h1h1l-1 2v1zM-254 9987h-1v-1h1v1zM-252 9985v1l-1 -1h1zM-257 9986h-1v-1h1v1zM-252 9984h1l-1 1v-1zM-253 9985h-1v-1h1v1zM-253 9984v-1h1v1h-1zM-254 9984h-1l1 -1v1zM-254 9983v-1l1 1h-1zM-268 9984l2 -2v2h-2zM-256 9982h-1v-1h1v1zM-251 9981h-1v-1h1v1zM-254 9981h-1v-1h1v1zM-264 9981h-1v-1h1v1zM-247 9980h-1v-1h1v1zM-253 9980h-1v-1h1v1zM-244 9978v-1h1v1h-1zM-263 9978h-1v-1h1v1zM-245 9977v-1h1v1h-1zM-255 9977h-1v-1h1v1zM-262 9977h-1v-1h1v1zM-266 9977v-2h1v1l-1 1zM-255 9974h1v1l-1 -1zM-266 9975l-1 -1h1v1zM-238 9974h-1v-1h1v1zM-264 9973v-1h1l-1 1zM-258 9972h-1v-1h1v1zM-263 9972l1 -1v1h-1zM-236 9970h-1v-1h1v1zM-248 9970h-1l1 -1v1zM-251 9971v-1h-1v-1h2v2h-1zM-262 9971v-1v-1h1v1l-1 1zM-248 9969v-1l2 1h-2zM-256 9969h-1v-1h1v1zM-261 9969v-1h1v1h-1zM-249 9968h-1v-1h1v1zM-237 9967h-1v-1h1v1zM-237 9965h-1v-1h1v1zM-247 9965h-1v-1h1v1zM-261 9965h-1v-1h1v1zM-260 9964h-1v-1h1v1zM-274 10019h-1v-1h1v1zM-268 10015h-1v-1h1v1zM-270 9987h-2v-1h2v1zM-268 9985h-2v-1h2v1zM-270 9980v-2l2 -2l2 1l-2 2l-2 1zM-304 9971l1 1h-1v-1zM-238 9964l-1 -1l1 -2l1 1l-1 2zM-249 9962h-1v-1h1v1zM-258 9962h-1v-1h1v1zM-236 9961h-1v-1h1v1zM-250 9961h-2v-1h2v1zM-237 9960h-1v-1h1v1zM-243 9960h-1v-1h1v1zM-257 9961l-1 -1v-1l1 1v1zM-247 9957h-1v-1h1v1zM-255 9957h-1v-1h1v1zM-236 9959l-1 -1v-3l1 1v3zM-238 9958h-1v-3l1 1v2zM-240 9956h-1v-1h1v1zM-246 9956h-1v-1h1v1zM-233 9954h-1v-1h1v1zM-243 9954h-1v-1h1v1zM-245 9954h-1v-1h1v1zM-253 9954h-1v-1h1v1zM-236 9954h-1v-2h1l1 2h-1zM-250 9953h-1v-1h1v1zM-252 9953h-1v-1h1v1zM-241 9952h-1v-1h1v1zM-265 9953v-1l1 -1v2h-1zM-249 9950l-1 1v-1h1zM-264 9951v-1h1l-1 1zM-236 9951l-1 -1v-1l1 1v1zM-250 9950h-1l1 -1v1zM-263 9950l1 -1v1h-1zM-234 9949h-1v-1h1v1zM-242 9951l-1 -1l1 -2h1v2l-1 1zM-262 9949v-1l1 1h-1zM-250 9949v-1l2 -1l1 1l-2 2l-1 -1zM-260 9947h-1v-1h1v1zM-237 9946h-1v-1h1v1zM-259 9946h-1l1 -1v1zM-259 9945v-1h1v1h-1zM-265 9946h-1v-3l1 1v2zM-257 9943h-1v-1h1v1zM-261 9943h-1v-1h1v1zM-263 9943h-1v-1h1v1zM-259 9941h-1v-1h1v1zM-262 9942l-1 -1v-1h1v2zM-253 9940h-1v-1h1v1zM-260 9940h-1v-1h1v1zM-267 9940h-1v-1h1v1zM-258 9939l-1 -1h1v1zM-263 9939h-1v-1h1v1zM-266 9939h-1l1 -1h1l-1 1zM-264 9938h-1v-1h1v1zM-211 9926h-1v-1h1v1zM-274 9963v-1l2 -1v2h-2zM-278 9964v-1l1 -1l1 -2h1l-1 4h-2zM-272 9961v-1l2 -1v2h-2zM-270 9959v-1v-1h1v2h-1zM-274 9960l-1 -1l1 -2l1 1l-1 2zM-269 9957v-1h1v1h-1zM-272 9957l-1 -1v-1l1 1v1zM-271 9955l-1 -1v-1l1 1v1zM-270 9953h-1v-1h1v1zM-269 9952l-1 -1v-1h1v2zM-272 9951h-1v-1h1v1zM-270 9949h-1v-1h1v1zM-272 9946h-1v-1h1v1zM-270 9943h-1v-1h1v1zM-269 9942h-1v-1h1v1zM-394 9875l-1 -1v-1l1 1v1zM-391 9873h-1v-1h1v1zM-393 9873h-1v-1h1v1zM-392 9871h-1v-1h1v1zM-389 9870h-1v-1h1v1zM-386 9864h-1v-1h1v1zM-385 9862h-1v-1h1v1zM-383 9859h-1v-1h1v1zM-410 9894v-1h1v1h-1zM-401 9884h1l-1 1v-1zM-396 9880h-1v-1h1v1zM-396 9876h-1l1 -1h1l-1 1zM-222 9795h-1v-1h1v1zM-373 9766h-1v-1h1v1zM-372 9764v1l-1 -1h1zM-372 9764v-1h1v1h-1zM-371 9763v-1h1v1h-1zM-370 9762v-1h1v1h-1zM-369 9761v-1h1v1h-1zM-368 9760v-1h1v1h-1zM-359 9750h-1v-1h1v1zM-361 9750h-1v-1h1v1zM-360 9749l-1 -1l1 -2h1v2l-1 1zM-356 9746h-1v-1h1v1zM-358 9746h-1v-1h1v1zM-357 9745h-1v-1h1v1zM-356 9744h-1v-1h1v1zM-354 9742l-1 -1l1 -1h1l-1 2zM-351 9739h-1v-1h1v1zM-350 9738h-1v-1h1v1zM-348 9736h-1v-1h1v1zM-346 9734h-1v-1h1v1zM-343 9733h-3v-1h2v-1l1 1v1zM-71 9683h-1v-1h1v1zM-73 9683h-1v-1h1v1zM-64 9681h-1v-1h1v1zM-61 9680h-1v-1h1v1zM-59 9679h-1v-1h1v1zM-62 9678h-1l1 -1h1l-1 1zM-57 9677h-1v-1h1v1zM-60 9677h-1v-1h1v1zM-56 9676h-1v-1h1v1zM-50 9675h-1v-1h1v1zM-54 9675h-1v-1h1v1zM-48 9674h-1v-1h1v1zM-47 9672h-1v-1h1v1zM-44 9670h-1l1 -1h1l-1 1zM-42 9669h-1v-1h1v1zM-40 9668h-1v-1h1v1zM-38 9667h-1v-1h1v1zM-37 9666h-1v-1h1v1zM-36 9665h-1v-1h1v1zM-34 9664h-1v-1h1v1zM520 10142h-1v-1h1v1zM528 10141h-1v-1h1v1zM525 10141h-1v-1h1v1zM523 10141h-1v-1h1v1zM530 10140h-1l1 -1h1l-1 1zM535 10139h-1v-1h1v1zM524 10139h-1v-1h1v1zM521 10139h-1v-1h1v1zM530 10138h-2v-1h2v1zM527 10138h-1v-1h1v1zM525 10138h-1v-1h1v1zM534 10137h-2v-1h3l-1 1zM536 10136h-1v-1h1v1zM525 10136h-1v-1h1v1zM512 10134h-1v-1h1v1zM538 10133h-2v-1h2v1zM518 10133h-1l1 -1h1l-1 1zM530 10131h-1v-1h1v1zM551 10130h-1v-1h1v1zM539 10130h-1v-1h1v1zM549 10129h-1v-1h1v1zM547 10129h-1v-1h1v1zM542 10129h-1v-1h1v1zM538 10129h-1v-1h1v1zM541 10128h-1v-1h1v1zM549 10127h-1v-1h1v1zM550 10126h-1v-1h1v1zM551 10125h-1v-1h1v1zM555 10124h-1v-1h1v1zM553 10124h-1v-1h1v1zM552 10123h-1v-1h1v1zM549 10123h-1v-1h1v1zM556 10120h-1v-1h1v1zM554 10121l-1 -1v-2h1v3zM552 10118v-1l2 -1l-2 2zM550 10118l-1 -1v-1h1v2zM552 10116l-2 -2l2 -1l1 1h-1v2zM555 10113h-1v-1h1v1zM554 10111h-1v-1h1v1zM547 10111h-1v-1h1v1zM550 10111l-1 -1l1 -1l1 1l-1 1zM549 10109h-1v-1h1v1zM546 10109h-1v-1h1v1zM552 10108h-1v-1h1v1zM550 10108h-1v-1h1v1zM547 10108h-1v-1h1v1zM548 10107h-1v-1h1v1zM546 10107h-1v-1h1v1zM551 10106h-1v-1h1v1zM548 10105h-1v-1h1v1zM543 10105h-1v-1h1v1zM544 10103v1l-1 -1h1zM543 10103h-1v-1h1v1zM543 10102l1 -1v1h-1zM544 10101v-1l1 1h-1zM543 10101h-1v-1h1v1zM540 10100v1l-1 -1h1zM547 10100h-1v-1h1v1zM540 10099l1 1h-1v-1zM539 10100h-1v-1h1v1zM546 10099h-1v-1h1v1zM539 10099v-1h1v1h-1zM538 10099l-1 -1h1v1zM545 10098h-1v-1h1v1zM538 10098v-1h1v1h-1zM544 10097h-1v-1h1v1zM532 10096v-1l1 1h-1zM542 10094h-1v-1h1v1zM539 10094h-1v-1h1v1zM536 10094h-1v-1h1v1zM541 10093h-1v-1h1v1zM535 10093h-1v-1h1v1zM538 10092h-1v-1h1v1zM534 10092h-1v-1h1v1zM471 10147h-1v-1h1v1zM446 10147h-1v-1h1v1zM480 10146h-1v-1h1v1zM488 10145h-1l1 -1h1l-1 1zM476 10143h-1v-1h1v1zM436 10150h-1v-1h1v1zM430 10150h-1v-1h1v1zM416 10149h-2v-1h3l-1 1zM408 10148h-3l1 -1h2v1zM397 10147h-1v-1h1v1zM383 10147h-1v-1h1v1zM379 10147h-1v-1h1v1zM376 10146h-1v-1h1v1zM396 10145h-1v-1h1v1zM392 10145h-1l1 -1h1l-1 1zM379 10144h-1v-1h1v1zM376 10144h-1v-1h1v1zM422 10143h-1v-1h1v1zM415 10142h-1v-1h1v1zM406 10141h-2v-1h2v1zM372 10146h-1l1 -1h1l-1 1zM370 10146h-1v-1h1v1zM367 10146h-1v-1h1v1zM372 10144h-1v-1h1v1zM353 10144h-1v-1h1v1zM369 10143h-1v-1h1v1zM366 10143h-2v-1h2v1zM358 10142h-4v-1h5l-1 1zM352 10141h-1v-1h1v1zM349 10141h-1v-1h1v1zM347 10141h-1v-1h1v1zM346 10140h-1v-1h1v1zM344 10140h-1v-1h1v1zM370 10139h-1v-1h1v1zM340 10140l-4 -1h-1l1 -1h4v2zM355 10137h-1v-1h1v1zM341 10137h-1v-1h1v1zM358 10136h-2v-1h3l-1 1zM324 10136h-1v-1h1v1zM322 10136h-1v-1h1v1zM320 10136h-1v-1h1v1zM352 10135h-3l1 -1h2v1zM342 10135h-1v-1h1v1zM346 10134h-4v-1h4v1zM325 10134h-1v-1h1v1zM317 10134h-1v-1h1v1zM339 10133h-1v-1h1v1zM334 10132h-1v-1h1v1zM329 10131h-1v-1h1v1zM309 10130h-1v-1h1v1zM325 10129h-1v-1h1v1zM320 10128h-1v-1h1v1zM308 10132h-1l1 -1h1l-1 1zM306 10131h-2v-1h2v1zM303 10130h-1v-1h1v1zM306 10129h-2v-1h2v1zM300 10129h-2v-1h2v1zM303 10128h-1v-1h1v1zM297 10128h-1v-1h1v1zM300 10127h-2v-1h3l-1 1zM294 10127h-1v-1h1v1zM297 10126h-1v-1h1v1zM292 10126h-1v-1h1v1zM295 10125h-1v-1h1v1zM292 10124h-1v-1h1v1zM288 10124h-1v-1h1v1zM290 10123h-1v-1h1v1zM286 10123h-1v-1h1v1zM273 10115h-1v-1h1v1zM285 10114h-1v-1h1v1zM283 10114h-1v-1h1v1zM272 10114h-1v-1h1v1zM268 10113h-1v-1h1v1zM265 10113h-1v-1h1v1zM247 10113h-1v-1h1v1zM266 10112h-1v-1h1v1zM259 10111h-1v-1h1v1zM256 10111h-1l1 -1h1l-1 1zM254 10111h-2v-1h2v1zM246 10109h-1l1 -1h1l-1 1zM536 10090h-1v-1h1v1zM527 10089l1 1h-1v-1zM531 10089h-1v-1h1v1zM534 10089l-1 -1v-1l1 1v1zM530 10088h-1v-1h1v1zM535 10086h-1v-1h1v1zM526 10085h-1v-1h1v1zM521 10085h-1v-1h1v1zM531 10083h-1v-1h1v1zM521 10083h-1v-1h1v1zM521 10080h-1v-1h1v1zM517 10078h1l-1 1v-1zM508 10079h-2v-1h2v1zM516 10078v-1l1 1h-1zM515 10077v-1h1v1h-1zM498 10075h-1v-1h1v1zM495 10074h-1v-1h1v1zM484 10071h-1v-1h1v1zM480 10070h-1v-1h1v1zM472 10068h-1v-1h1v1zM487 10067h-1v-1h1v1zM468 10067h-1v-1h1v1zM476 10066h-1v-1h1v1zM469 10066h-1v-1h1v1zM469 10064h-1v-1h1v1zM460 10064h-1v-1h1v1zM471 10063h-1v-1h1v1zM465 10063h-1v-1h1v1zM461 10063h-1v-1h1v1zM459 10062h-1v-1h1v1zM469 10061h-1v-1h1v1zM461 10061h-1v-1h1v1zM459 10060h-1v-1h1v1zM456 10060h-1v-1h1v1zM467 10059h-1v-1h1v1zM460 10059h-1v-1h1v1zM457 10059h-1v-1h1v1zM465 10058h-1v-1h1v1zM458 10058h-1v-1h1v1zM456 10058h-1v-1h1v1zM463 10057h-1v-1h1v1zM460 10056h-1v-1h1v1zM455 10057l-1 -1v-1l1 1v1zM459 10055h-1v-1h1v1zM454 10055h-1v-1h1v1zM452 10055h-1v-1h1v1zM453 10052l-1 1v-1h1zM450 10052h-1v-1h1v1zM454 10047h-1v-1h1v1zM447 10046l1 -1v1h-1zM446 10045h-1v-1h1v1zM452 10044l-1 -1v-1h1v2zM447 10044l-1 -1v-1h1v2zM451 10042h-1v-1h1v1zM451 10040h-1v-1h1v1zM449 10040h-1v-1h1v1zM446 10042h-1v-3l1 1v2zM450 10039h-1v-1h1v1zM444 10039h-1v-1h1v1zM445 10037h-1v-1h1v1zM444 10036h-1v-1h1v1zM450 10037l-1 -1v-2h1v3zM451 10033h-1v-1h1v1zM449 10032h-1v-1h1v1zM449 10030h-1v-1h1v1zM446 10032h-1v-5l1 1v4zM572 10022h-1l1 -1v1zM511 10011l1 1h-1v-1zM543 9994l1 -1v1h-1zM501 9971h-1v-1h1v1zM504 9970h-1v-1h1v1zM505 9967h-1v-1h1v1zM501 9967h-1v-1h1v1zM502 9969v-1v-3l1 1l1 2l-2 1zM451 10029l-1 -1v-2h1v3zM446 10025h-1v-1h1v1zM449 10025l-1 -1v-1l1 1v1zM446 10023h-1v-1h1v1zM451 10023l-1 -1v-1l1 1v1zM449 10022h-1v-1h1v1zM444 10022l-1 -1v-1h1v2zM449 10018h-1v-1h1v1zM446 10021l-1 -1v-3l1 1v3zM444 10018h-1v-1h1v1zM444 10015h-1v-1h1v1zM449 10013h-1v-1h1v1zM446 10014h-1v-3l1 1v2zM447 10011h-1v-1h1v1zM445 10011h-1v-1h1v1zM450 10009l-1 -1v-1l1 1v1zM447 10009l-1 -1v-1l1 1v1zM445 10009l-1 -1v-1l1 1v1zM452 10009v-1v-2v-1l1 1v2l-1 1zM451 10007l-1 -1v-1l1 1v1zM449 10005h-1v-1h1v1zM454 10005l-1 -1l1 -1l1 1l-1 1zM452 10004h-1v-1h1v1zM453 10003l-1 -1v-1l1 1v1zM457 10001h-1v-1h1v1zM450 10003h-2v-1h1v-2h1v3zM458 10000h-1v-1h1v1zM455 10000h-1v-1h1v1zM451 10000h-1v-1h1v1zM460 9999h-2v-1h2v1zM456 9999h-1v-1h1v1zM461 9998h-1v-1h1v1zM457 9998h-1v-1h1v1zM454 9998h-2v-1h2v1zM459 9997h-1v-1h1v1zM464 9997l-1 -1v-1l1 1v1zM454 9996h-1v-1h1v1zM466 9995h-1v-1h1v1zM462 9995h-1v-1h1v1zM458 9995h-1v-1h1v1zM455 9995h-1v-1h1v1zM464 9994h-1l1 -1h1l-1 1zM470 9993h-2v-1h2v1zM466 9993h-1l1 -1h1l-1 1zM472 9992h-1v-1h1v1zM461 9992h-1v-1h1v1zM474 9991h-1v-1h1v1zM470 9991h-1v-1h1v1zM463 9991h-1v-1h1v1zM476 9990h-1v-1h1v1zM473 9990h-1v-1h1v1zM465 9990h-1v-1h1v1zM478 9989h-1v-1h1v1zM475 9989h-1v-1h1v1zM470 9989h-1v-1h1v1zM484 9988h-1v-1h1v1zM480 9988h-1v-1h1v1zM477 9988h-1v-1h1v1zM482 9987h-1v-1h1v1zM479 9987h-1v-1h1v1zM484 9986h-1v-1h1v1zM474 9986h-1v-1h1v1zM481 9986h-1h-1l1 -2h3l-1 1l-1 1zM487 9984h-1v-1h1v1zM484 9984h-1v-1h1v1zM489 9983h-1v-1h1v1zM486 9983h-2v-1h2v1zM479 9983h-1v-1h1v1zM487 9982h-1v-1h1v1zM484 9982h-1v-1h1v1zM489 9981h-1v-1h1v1zM483 9981h-1v-1h1v1zM490 9980h-1v-1h1v1zM487 9980h-1v-1h1v1zM494 9979h-1v-1h1v1zM486 9979h-1v-1h1v1zM492 9979h-2v-1l2 -1l1 1l-1 1zM490 9978h-1v-1h1v1zM488 9978h-1v-1h1v1zM494 9977h-1v-1h1v1zM498 9976h-1v-1h1v1zM496 9976h-2v-1h2v1zM500 9975h-1v-1h1v1zM497 9975h-1v-1h1v1zM494 9973h-1v-1h1v1zM500 9972l-2 2h-1l3 -3v1zM480 9972h-1v-1h1v1zM475 9972h-1v-1h1v1zM478 9970v1l-1 -1h1zM483 9970h-1v-1h1v1zM478 9969h2l1 1h-1h-2v-1zM488 9969h-1l1 -1h1l-1 1zM477 9969v-1h1v1h-1zM477 9970h-3v-2l3 1v1zM498 9968h-1l1 -1h1l-1 1zM496 9968h-1v-1h1v1zM494 9969h-3v-1l1 -1v1h2v1zM490 9968h-1v-1h1v1zM486 9969h-3v-2h1l2 1v1zM482 9969l-2 -1v-1h2v1v1zM494 9967h-2v-1h3l-1 1zM479 9967h-1v-1h1v1zM476 9967h-1v-1h1v1zM472 9967h-1v-1h1v1zM486 9966h-2v-1h2v1zM483 9966h-1v-1h1v1zM480 9966h-1l1 -1h1l-1 1zM478 9966h-1v-1h1v1zM492 9965h-1v-1h1v1zM320 10017h-1v-1h1v1zM324 10012h-1v-1h1v1zM319 10012h-1v-1h1v1zM320 10010l-1 -1v-1h1v2zM322 10007h-1v-1h1v1zM331 10006h-1v-1h1v1zM323 10005h-1v-1h1v1zM339 10000h-1v-1h1v1zM327 10000h-1v-1h1v1zM330 9998h-1v-1h1v1zM331 9997h-1v-1h1v1zM349 9996h-1v-1h1v1zM332 9996h-1l1 -1h1l-1 1zM352 9995h-1v-1h1v1zM334 9995h-1v-1h1v1zM341 9994h-1v-1h1v1zM336 9994h-1v-1h1v1zM356 9993h-1v-1h1v1zM343 9993h-1v-1h1v1zM358 9992h-1v-1h1v1zM344 9992h-1v-1h1v1zM338 9993l-1 -1l1 -1l1 1l-1 1zM360 9991h-1v-1h1v1zM362 9990h-1v-1h1v1zM328 9990h-1v-1h1v1zM364 9989h-2v-1h2v1zM350 9989h-1v-1h1v1zM344 9989h-1v-1h1v1zM335 9989h-1v-1h1v1zM365 9988h-1v-1h1v1zM353 9988h-1v-1h1v1zM346 9989l-1 -1l1 -1h1v1l-1 1zM355 9987h-1v-1h1v1zM318 9987h-1v-1h1v1zM311 9987h-1v-1h1v1zM367 9986h-1v-1h1v1zM328 9986h-1v-1h1v1zM322 9987l-2 -1v-1h4v1h-2v1zM366 9985h-1v-1h1v1zM357 9985h-1v-1h1v1zM344 9985h-1v-1h1v1zM340 9986l-2 -2h4v1h-2v1zM337 9986l-1 -1v-1h1v2zM334 9986h-4h-1l1 -2l2 1h3l-1 1zM315 9985h-1v-1h1v1zM360 9985h-2v-2h2v2zM356 9984h-1v-1h1v1zM362 9983h-1v-1h1v1zM338 9983h-1v-1h1v1zM367 9982h-1v-1h1v1zM363 9982h-1v-1h1v1zM321 9982h-1v-1h1v1zM366 9981h-1v-1h1v1zM328 9980h-1v-1h1v1zM314 9980h-1v-1h1v1zM362 9979h-1v-1h1v1zM360 9979h-1v-1h1v1zM350 9979h-1v-1h1v1zM348 9979h-1v-1h1v1zM346 9979h-4v-1h4v1zM324 9979h-1v-1h1v1zM339 9978h-1v-1h1v1zM316 9973h-2v-1h2v1zM317 9972h-1v-1h1v1zM318 9971h-1v-1h1v1zM312 9971h-1v-1h1v1zM313 9970h-1v-1h1v1zM320 9970l-1 -1l1 -1h1l-1 2zM309 9969h-1v-1h1v1zM310 9968h-1v-1h1v1zM314 9967h-3l1 -1h2v1zM310 9966h-1v-1h1v1zM320 9964h-1v-1h1v1zM318 9964h-1v-1h1v1zM316 9964h-1v-1h1v1zM247 10002h-1v-1h1v1zM248 10001h-1v-1h1v1zM246 10000h-2v-1h2v1zM248 9999h-2v-1h3l-1 1zM252 9998h-3v-2h1v1h2v1zM248 9997h-1v-1h1v1zM262 9997l-1 -1l1 -1l1 1l-1 1zM252 9996h-2v-1h2v1zM260 9995h-2v-1h2v1zM253 9995h-1v-1h1v1zM248 9995h-1l1 -1h1l-1 1zM276 9994h-1v-1h1v1zM270 9994h-2v-1h2v1zM267 9995l-1 -1v-1l1 1v1zM258 9994h-1v-1h1v1zM252 9994h-1v-1h1v1zM281 9993h-1v-1h1v1zM260 9993h-1l1 -1h1l-1 1zM285 9992h-1v-1h1v1zM278 9992h-1v-1h1v1zM275 9993h-4l1 -1h2v-1l1 1v1zM258 9992h-1v-1h1v1zM290 9991h-3l1 -1h2v1zM260 9991h-1v-1h1v1zM293 9990h-1v-1h1v1zM286 9990h-2v-1h2v1zM281 9990l-1 1l-1 -1l1 -1h3l-1 1h-1zM278 9990h-1v-1h1v1zM264 9990h-1v-1h1v1zM301 9989h-1v-1h1v1zM288 9989h-1v-1h1v1zM284 9989h-1v-1h1v1zM265 9989h-1v-1h1v1zM306 9988h-2v-1h3l-1 1zM294 9988h-2v-1h2v1zM277 9988h-1v-1h1v1zM271 9988h-1v-1h1v1zM301 9987h-1v-1h1v1zM298 9987h-1v-1h1v1zM280 9987h-1v-1h1v1zM272 9987h-1l1 -1h1l-1 1zM308 9986h-4v-1h4v1zM290 9986h-1l1 -1h1l-1 1zM286 9988h-2v-3l1 1l1 2zM274 9986h-1v-1h1v1zM276 9985h-1l1 -1h1l-1 1zM292 9985h-1v-1l1 -1l1 1l-1 1zM287 9985l-1 -1v-1l1 1v1zM280 9984h-2v-1h2v1zM294 9984h-1v-2h1l1 2h-1zM289 9983h-1v-1h1v1zM282 9983h-1l1 -1h1l-1 1zM296 9982h-1v-1h1v1zM284 9982h-1l1 -1h1l-1 1zM293 9981h-1v-1h1v1zM286 9981h-1v-1h1v1zM282 9981h-1v-1h1v1zM302 9980h-1l1 -1h1l-1 1zM295 9980h-1v-1h1v1zM289 9980h-1v-1h1v1zM306 9979h-1v-1h1v1zM297 9979h-1v-1h1v1zM290 9979h-1v-1h1v1zM299 9978h-1v-1h1v1zM293 9978h-1v-1h1v1zM288 9978h-1v-1h1v1zM301 9977h-1v-1h1v1zM294 9977h-1l1 -1h1l-1 1zM291 9977h-1v-1h1v1zM303 9976h-1v-1h1v1zM296 9976h-1l1 -1h1l-1 1zM293 9976h-1v-1h1v1zM305 9975h-1v-1h1v1zM294 9975h-1v-1h1v1zM307 9974h-1v-1h1v1zM300 9975h-3l1 -1l2 -1l1 1l-1 1zM296 9974h-1l1 -1h1l-1 1zM304 9972h-1v-1h1v1zM300 9972h-1v-1h1v1zM308 9971h-1v-1h1v1zM306 9972l-1 -1v-1h1v2zM302 9971h-1v-1h1v1zM303 9970h-1v-1h1v1zM584 9917h-1v-1h1v1zM581 9918v-2h1v2h-1zM582 9916v-1h1v1h-1zM596 9915h-1v-1h1v1zM593 9915h-1v-1h1v1zM583 9914h1h1l-1 1h-1v-1zM588 9908h-1v-1h1v1zM590 9905h-1v-1h1v1zM593 9900h-1v-1h1v1zM557 9945v-1h1v1h-1zM558 9943l1 1h-1v-1zM561 9943h-1l-1 -1l1 -1l1 1v1zM562 9941h-1l1 -1h1l-1 1zM564 9939h-1v-1h1v1zM506 9938h-2v-1h2v1zM501 9937h-1v-1h1v1zM509 9932h-1v-1h1v1zM513 9931l-3 1v-1l4 -1h1l-1 1h-1zM507 9931h-1v-1h1v1zM505 9931h-1v-1h1v1zM509 9930h-1v-1h1v1zM504 9930h-2v-1h2v1zM501 9929h-1v-1h1v1zM502 9921v1l-1 -1h1zM502 9921v-1h1l-1 1zM503 9919l1 1h-1v-1zM506 9918h-1v-1h1v1zM510 9916h-1v-1h1v1zM529 9912l-1 1h-1l1 -2v1h1zM524 9914h-2v-2v-1l2 1h2v1l-2 1zM538 9910v-1l1 1h-1zM517 9907l-1 1v-1h1zM517 9906h1l-1 1v-1zM520 9905l-1 -1l-1 -2h2v3zM524 9901h-1v-1h1v1zM496 9939h-2v-1h2v1zM494 9938h-1v-1h1v1zM495 9937h-1v-1h1v1zM498 9936h-1v-1h1v1zM497 9925l1 1h-1v-1zM417 9930h-1v-1h1v1zM419 9929h-1v-1h1v1zM384 9926h-1v-1h1v1zM324 9964h-1v-3l1 1v2zM317 9962l-1 -1v-1h1v2zM314 9961h-2v-1h2v1zM311 9961h-1v-1h1v1zM319 9960h-1v-1h1v1zM310 9960h-2v-1h2v1zM317 9959h-1v-1h1v1zM323 9958h-1v-1h1v1zM321 9957h-1v-1h1v1zM318 9955h-1l1 -1h1l-1 1zM314 9954h-1l1 -1h1l-1 1zM311 9953h-1v-1h1v1zM311 9941h-1v-1h1v1zM315 9939h-1v-1h1v1zM311 9938h-1v-1h1v1zM313 9937h-1v-1h1v1zM311 9936h-1v-1h1v1zM313 9935h-1v-1h1v1zM311 9934h-1v-1h1v1zM312 9933h-1v-1h1v1zM309 9933h-1v-1h1v1zM316 9932h-1v-1h1v1zM362 9931h-1v-1h1v1zM358 9931h-1l1 -1h1l-1 1zM368 9930h-2v-1h2v1zM364 9930h-2v-1h2v1zM361 9930l-1 -1v-1h1v2zM322 9925h-1v-1h1v1zM312 9925v-1v-1l1 1v1h-1zM316 9923h-1v-1h1v1zM311 9923h-1v-1h1v1zM322 9922h-1v-1h1v1zM314 9922h-1l1 -1h1l-1 1zM326 9920h-2h-1l1 -2l2 1h1l-1 1zM314 9918h-1l1 -1h1l-1 1zM310 9918h-1v-1h1v1zM321 9917h-1v-1h1v1zM317 9917h-1v-1h1v1zM335 9916h-1v-1h1v1zM332 9916h-1v-1h1v1zM323 9916h-1v-1h1v1zM316 9916h-1v-1h1v1zM340 9915h-1v-1h1v1zM326 9915h-1v-1h1v1zM332 9914h-1v-1h1v1zM329 9914h-1v-1h1v1zM321 9914h-1v-1h1v1zM327 9913h-1v-1h1v1zM325 9913h-1v-1h1v1zM336 9913h-2v-2h2v2zM329 9912h-1v-1h1v1zM330 9911h-1v-1h1v1zM336 9910h-1l1 -1h1l-1 1zM332 9912v-1l2 -2v1l-2 2zM332 9910h-1v-1h1v1zM345 9909h-1v-1h1v1zM339 9909h-1v-1h1v1zM340 9908h-1v-1h1v1zM336 9908h-1v-1h1v1zM350 9907h-1v-1h1v1zM348 9907h-1v-1h1v1zM342 9907h-1v-1h1v1zM311 9907h-1v-1h1v1zM343 9906h-1v-1h1v1zM310 9906h-1v-1h1v1zM349 9905h-1v-1h1v1zM344 9905h-1v-1h1v1zM314 9906l-2 -2h2h1l-1 2zM316 9904h-1v-1h1v1zM309 9904h-1v-1h1v1zM350 9904l-1 -1v-1h1v2zM320 9903h-1v-1h1v1zM312 9903h-1v-1h1v1zM346 9902h-1v-1h1v1zM342 9902h-1v-1h1v1zM326 9903h-2v-1v-1l2 1v1zM316 9902h-1v-1h1v1zM330 9902l-2 -2h2v2zM320 9901h-1v-1h1v1zM314 9902l-1 -1l1 -1h1l-1 2zM347 9900h-1v-1h1v1zM345 9900h-1v-1h1v1zM338 9900h-1v-1h1v1zM335 9900h-1v-1h1v1zM333 9900h-1v-1h1v1zM326 9900h-1v-1h1v1zM323 9902h-3v-1h2v-1v-1l1 1v2zM317 9900h-1v-1h1v1zM311 9900h-1v-1h1v1zM303 9962h-1v-1h1v1zM298 9962h-1l1 -1h1l-1 1zM248 9962h-1l1 -1h1l-1 1zM246 9962h-1v-1h1v1zM288 9961h-1l1 -1h1l-1 1zM286 9961h-1v-1h1v1zM279 9961h-1v-1h1v1zM276 9961h-1v-1h1v1zM265 9961h-1v-1h1v1zM262 9961h-2v-1h3l-1 1zM303 9960h-1v-1h1v1zM272 9961h-4v-1v-1l2 1h3l-1 1zM308 9959h-1v-1h1v1zM306 9960h-2l2 -2l1 2h-1zM300 9959h-1l1 -1h1l-1 1zM294 9959h-3l1 -1h2v1zM262 9958h-1l1 -1h1l-1 1zM310 9957h-3l1 -1h2v1zM256 9958l-1 -1v-1h1v2zM254 9957h-1v-1h1v1zM248 9956h-1v-1h1v1zM261 9955h-1v-1h1v1zM254 9955h-1v-1h1v1zM251 9954h-1v-1h1v1zM249 9954h-1v-1h1v1zM247 9954h-1v-1h1v1zM308 9953h-2v-1h3l-1 1zM304 9953l-1 -1v-1l1 1v1zM299 9952h-1v-1h1v1zM264 9952h-4v-1h4v1zM259 9952h-1v-1h1v1zM271 9947h-1v-1h1v1zM293 9946h-1v-1h1v1zM268 9946h-2v-1h2v1zM287 9945h-1v-1h1v1zM301 9944h-1v-1h1v1zM305 9943h-1v-1h1v1zM290 9943l-1 -1l1 -1l1 1l-1 1zM271 9942h-1v-1h1v1zM300 9941h-1v-1h1v1zM297 9941h-1v-1h1v1zM284 9940v1l-1 -1h1zM280 9941h-1l1 -1h1l-1 1zM268 9942v-1l2 -1l-2 2zM308 9939h-3l1 -1h3l-1 1zM301 9939h-1v-1h1v1zM295 9939h-1v-1h1v1zM284 9939l1 -1h3v1l-4 1v-1zM304 9938h-1l1 -1h1l-1 1zM296 9939l-1 -1l1 -1h2v1l-2 1zM294 9938h-1v-1h1v1zM292 9938h-1v-1h1v1zM308 9937h-1v-1h1v1zM275 9937h-1v-1h1v1zM298 9937l-1 -1l1 -1h2v1l-2 1zM296 9936h-1v-1h1v1zM288 9936h-3l1 -1h2v1zM278 9938h-2l2 -2l2 -1l1 1l-1 1l-2 1zM306 9935h-1v-1h1v1zM289 9935h-1v-1h1v1zM283 9935h-1v-1h1v1zM284 9934h-1l1 -1h1l-1 1zM245 9934h-1v-1h1v1zM291 9933v-1h1v1h-1zM288 9933h-3l1 -1h2v1zM292 9933l1 -1l1 -1l1 1l-1 2h-2v-1zM307 9931v-1h1v1h-1zM291 9930h-1v-1h1v1zM282 9931v-1l2 -1v1l-2 1zM281 9932h-1h-1l1 -2h-1l1 -1h1v3zM247 9930h-1v-1h1v1zM293 9929h-1v-1h1v1zM285 9929h-1v-1h1v1zM282 9929h-1v-1h1v1zM259 9929h-1v-1h1v1zM304 9928h-1v-1h1v1zM299 9928h-1v-1h1v1zM296 9929l-1 -1l1 -1l1 1l-1 1zM286 9928h-1v-1h1v1zM250 9928h-1v-1h1v1zM304 9926h-2v-1h2v1zM301 9927l-1 -1v-1l1 1v1zM291 9926h-1v-1h1v1zM288 9927l-2 -1v-1h2l1 1l-1 1zM265 9926h-1v-1h1v1zM254 9926h-1v-1h1v1zM306 9925h-1v-1h1v1zM302 9925h-1v-1h1v1zM292 9925h-1l1 -1h1l-1 1zM290 9925h-1v-1h1v1zM267 9925h-1v-1h1v1zM255 9925h-1v-1h1v1zM295 9924h-1v-1h1v1zM275 9924h-1v-1h1v1zM257 9924h-1v-1h1v1zM308 9924h-2v-2l2 1h1l-1 1zM298 9923h-3l1 -1h2v1zM259 9923h-1v-1h1v1zM304 9922h-1v-1h1v1zM300 9922h-1v-1h1v1zM273 9922h-1v-1h1v1zM302 9921h-1v-1h1v1zM280 9921h-1v-1h1v1zM306 9920h-3l1 -1h2v1zM266 9920h-3l1 -1h2v1zM286 9919h-1v-1h1v1zM284 9919h-1v-1h1v1zM267 9919h-1v-1h1v1zM262 9919h-1v-1h1v1zM308 9919h-2v-1l2 -1v1v1zM288 9918h-1v-1h1v1zM274 9918h-1v-1h1v1zM268 9918h-1v-1h1v1zM276 9917h-1v-1h1v1zM271 9917h-1v-1h1v1zM267 9917h-1v-1h1v1zM270 9916h-1v-1h1v1zM280 9915h-3l1 -1h2v1zM294 9915l-1 -1l1 -1l1 1l-1 1zM274 9914h-2v-1h2v1zM283 9913h-1v-1h1v1zM300 9912h-1v-1h1v1zM295 9911h-1v-1h1v1zM291 9911h-1v-1h1v1zM288 9911h-1v-1h1v1zM286 9912l-1 -1v-1h1v2zM284 9910v1l-1 -1h1zM282 9912l-2 -1v1h-1v-2h3v2zM304 9910h-2v-1h2v1zM289 9910h-1v-1h1v1zM298 9909h-1l1 -1h1l-1 1zM293 9909h-1v-1h1v1zM291 9909h-1v-1h1v1zM302 9908h-2v-1h2v1zM306 9907h-1v-1h1v1zM285 9905h-1v-1h1v1zM294 9904h-2v-1h2v1zM286 9904h-1v-1h1v1zM304 9904h-2h-1l1 -2h2v2zM289 9903h-1v-1h1v1zM306 9903l-1 -1v-1l1 1v1zM298 9902l2 -1l1 1l-1 1h-2v-1zM297 9902l1 -1v1h-1zM294 9903v-1v-1l1 1v1h-1zM292 9902h-1l1 -1h1l-1 1zM297 9901h-1v-1h1v1zM302 9901l-2 -1v-1h2v1v1zM294 9900h-1v-1h1v1zM593 9891h-1v-1h1v1zM588 9870h-2v-1h2v1zM586 9869h-6v-1h6v1zM588 9868h-2v-1h2v1zM580 9868h-6v-1h6v1zM526 9897h-1l1 -1h1l-1 1zM529 9895h-1v-1h1v1zM532 9893h-1v-1h1v1zM533 9892h-1v-1h1v1zM532 9891h-1v-1h1v1zM533 9890h-1v-1h1v1zM534 9888h-1v-1h1v1zM535 9887h-1v-1h1v1zM536 9885h-1v-1h1v1zM476 9859h-1l1 -1h1l-1 1zM472 9859h-1l1 -1h1l-1 1zM467 9859h-1v-1h1v1zM469 9857h-1v-1h1v1zM466 9857h-1v-1h1v1zM408 9835l1 1h-1v-1zM344 9899h-2v-1h2v1zM322 9899h-1v-1h1v1zM351 9898h-1v-1h1v1zM346 9898h-1v-1h1v1zM344 9897h-2v-1h3l-1 1zM325 9897h-1v-1h1v1zM350 9895v1v1l-1 -1v-1h1zM338 9897h-3v-1l1 -1v1h3l-1 1zM313 9896v2h-1l-1 -2l1 -1v1h1zM350 9894h1l-1 1v-1zM349 9895h-1v-1h1v1zM338 9895h-2v-1h2v1zM330 9895h-1v-1h1v1zM349 9894l1 -1v1h-1zM347 9894h-1v-1h1v1zM341 9894h-1v-1h1v1zM332 9894h-1v-1h1v1zM327 9896h-1v-3l1 1v2zM324 9894h-2v-1h3l-1 1zM309 9894h-1v-1h1v1zM330 9893h-2v-1h3l-1 1zM326 9893h-1v-1h1v1zM314 9892h-1v-1h1v1zM348 9891h-1v-1h1v1zM338 9893h-2v-3h1v2h1v1zM316 9891h-1v-1h1v1zM338 9890h-1v-1h1v1zM328 9890h-2v-1h2v1zM345 9889h-1v-1h1v1zM321 9889h-1v-1h1v1zM325 9888h-1v-1h1v1zM348 9888l-3 -1h-1h-1l1 -1l4 1h1l-1 1zM338 9888l-1 -1v-1h1v2zM352 9886h-1v-1h1v1zM331 9886h-1v-1h1v1zM349 9886h-1h-1l1 -2h1v2zM334 9885h-2v-1h2v1zM347 9885h-5v-1h4v-1l1 1v1zM338 9884h-1v-1h1v1zM336 9884h-1v-1h1v1zM340 9883h-1v-1h1v1zM344 9883l-1 -1v-1l1 1v1zM305 9901h-1l-1 -1h1l-1 -2h1h1v3zM296 9899h-1v-1h1v1zM301 9897h-1v-1h1v1zM307 9895h-1v-1h1v1zM560 9811h-1v-1h1v1zM556 9811h-1v-1h1v1zM518 9811h-1l1 -1h1l-1 1zM531 9811l-1 -1v-1l1 1v1zM538 9808h-1v-1h1v1zM486 9814h-1v-1h1v1zM484 9811h-3l1 -1h3l-1 1zM478 9811h-2v-1h3l-1 1zM407 9835v-2h1l1 1l-1 1h-1zM391 9834l-1 -1v-1h1v2zM389 9832h-1v-4h1v4zM390 9828h-1v-1h1v1zM388 9826h-1v-1h1v1zM388 9824h-1v-1h1v1zM223 10154h-1v-1h1v1zM218 10154h-1v-1h1v1zM216 10153h-2v-1h3l-1 1zM206 10153h-1v-1h1v1zM214 10152l-1 -1v-1h1v2zM209 10151h-1v-1h1v1zM213 10150h-1v-1h1v1zM202 10150h-2v-1h2v1zM211 10150l-1 -1l-1 -1l1 -1h1v3zM198 10148h-1l1 -1h1l-1 1zM213 10147h-1v-1h1v1zM204 10147h-1v-1h1v1zM197 10147h-1v-1h1v1zM208 10146h-1v-1h1v1zM195 10146h-1v-1h1v1zM211 10145h-1v-1h1v1zM207 10145h-1v-1h1v1zM193 10145h-1v-1h1v1zM205 10145l-1 -1v-1l1 1v1zM208 10143h-1v-1h1v1zM204 10143h-1v-1h1v1zM197 10143h-1v-1h1v1zM189 10143h-1v-1h1v1zM202 10142h-2v-1h2v1zM200 10141h-1v-1h1v1zM186 10141h-1v-1h1v1zM198 10140h-1v-1h1v1zM191 10140h-1v-1h1v1zM184 10140h-2v-1h2v1zM196 10139h-2v-1h2v1zM192 10138l-1 -1v-1h1v2zM186 10137h-1v-1h1v1zM185 10136h-1v-1h1v1zM190 10136h-2v-2l2 2zM187 10135l-1 -1v-1l1 1v1zM186 10133h-1v-1h1v1zM194 10125h-2v-1h2v1zM182 10125h-1v-1h1v1zM196 10124h-1v-1h1v1zM185 10123h-1v-1h1v1zM181 10123h-1v-1h1v1zM199 10122h-1v-1h1v1zM184 10121h-1l1 -1h1l-1 1zM187 10120h-1v-1h1v1zM183 10120h-1v-1h1v1zM194 10119v-1l1 1h-1zM186 10119h-1v-1h1v1zM193 10118h-1v-1h1v1zM190 10119h-2l-1 -1l1 -1h2v2zM191 10117h-1v-1h1v1zM196 10117l-2 -1v-1h2v1v1zM200 10115h-1l1 -1h1l-1 1zM198 10115h-1v-1h1v1zM204 10114h-1l1 -1h1l-1 1zM242 10113h-6v-1h6v1zM225 10113v-1h1v1h-1zM212 10113h-3l1 -1h3l-1 1zM236 10112h-6v-1h6v1zM218 10112h-2v-1h2v1zM215 10112h-1v-1h1v1zM226 10111h-1l1 -1h1l-1 1zM222 10111h-1l1 -1h1l-1 1zM220 10111h-1v-1h1v1zM234 10110h-2v-1h3l-1 1zM230 10110h-1v-1h1v1zM228 10110h-1v-1h1v1zM243 10109h-1v-1h1v1zM180 10122h-1v-1h1v1zM244 10003h-1v-1h1v1zM239 10000h-1v-1h1v1zM244 9962h-1v-1h1v1zM242 9962h-2v-1h2v1zM238 9962h-2v-1h2v1zM235 9962h-1v-1h1v1zM224 9959h-1v-1h1v1zM231 9957h-1v-1h1v1zM244 9954h-1v-1h1v1zM239 9954h-1v-1h1v1zM225 9952h-1v-1h1v1zM229 9951h-1v-1h1v1zM229 9946h-1v-1h1v1zM231 9944h-1v-1h1v1zM229 9943h-1v-1h1v1zM233 9942h-1v-1h1v1zM231 9941h-1v-1h1v1zM234 9939h-2v-1h2v1zM235 9938h-1v-1h1v1zM238 9936h-1v-1h1v1zM241 9934h-1v-1h1v1zM242 9933h-1l1 -1h1l-1 1zM244 9932h-1v-1h1v1zM176 10378h-1v-1h1v1zM174 10374h-1v-1h1v1zM142 10371h-1v-1h1v1zM134 10369h-3l1 -1h3l-1 1zM146 10368h-1v-1h1v1zM128 10368h-1v-1h1v1zM126 10368h-3l1 -1h2v1zM142 10367h-1v-1h1v1zM140 10367h-2v-1h2v1zM122 10367h-2v-1h2v1zM136 10366h-2v-1h3l-1 1zM133 10366h-1v-1h1v1zM117 10365h-1v-1h1v1zM120 10363h-2v-1h3l-1 1zM117 10363h-1v-1h1v1zM142 10363h-2v-1l2 -1v1v1zM147 10361v-1h1v1h-1zM144 10361h-2v-1h2v1zM138 10363l-2 -1h-1l1 -2l2 1h2v1l-2 1zM148 10359l1 1h-1v-1zM146 10360v-1h1v1h-1zM144 10360v-1l1 1h-1zM118 10360h-2v-1h2v1zM147 10359v-1h1v1h-1zM136 10359h-1v-1h1v1zM175 10358h-1v-1h1v1zM147 10358h-1v-1h1v1zM146 10356v1l-1 -1h1zM124 10357h-1v-1h1v1zM178 10356h-1v-1h1v1zM175 10356h-1v-1h1v1zM122 10356h-1v-1h1v1zM178 10354h-1v-1h1v1zM144 10353h-1v-1h1v1zM115 10353h-1v-1h1v1zM116 10350h-1v-1h1v1zM112 10348h-1v-1h1v1zM103 10348h-1v-1h1v1zM177 10343h-1v-1h1v1zM176 10341l-1 -1v-1l1 1v1zM178 10339l-1 -1l1 -1h1v1l-1 1zM106 10347h-1v-1h1v1zM113 10346h-1v-1h1v1zM108 10346h-1v-1h1v1zM110 10345h-1l1 -1h1l-1 1zM104 10343h-1v-1h1v1zM69 10305h-3l-1 -1h4v1zM48 10331h-2v-1h2v1zM51 10330h-1v-1h1v1zM42 10330h-1v-1h1v1zM40 10329h-1v-1h1v1zM37 10329h-1v-1h1v1zM19 10322h-1v-1h1v1zM22 10321h-1v-1h1v1zM13 10321h-1v-1h1v1zM10 10321h-2v-1h2v1zM18 10320h-3l1 -1h3l-1 1zM11 10320h-1v-1h1v1zM13 10319h-1v-1h1v1zM8 10319h-1l1 -1h1l-1 1zM6 10319h-1v-1h1v1zM6 10317h-1v-1h1v1zM47 10299h-3v-1h3v1zM40 10297h-1l1 -1h1l-1 1zM38 10296h-1v-1h1v1zM36 10295h-2v-1h2v1zM34 10294h-3l1 -1h2v1zM30 10293h-2v-1h3l-1 1zM28 10292h-2v-1h2v1zM36 10292h-2l2 -2l1 1h-1v1zM26 10291h-3l1 -1h2v1zM23 10290h-1v-1h1v1zM32 10291l-4 -1v-2h3l3 1v1l-2 1zM20 10289l-2 -1v-1h2l1 1l-1 1zM22 10285h-2v-1h2v1zM10 10284h-1l1 -1h1l-1 1zM178 10260h-1v-1h1v1zM175 10260h-1v-1h1v1zM172 10260h-3l1 -1h2v1zM174 10257h-2v-1h3l-1 1zM171 10257h-1v-1h1v1zM8 10283h-2l-1 -1l1 -1l2 1v1zM9 10281h-1v-1h1v1zM4 10281h-1v-1h1v1zM10 10280h-1v-1h1v1zM2 10280h-2l-1 -2h1l2 2zM8 10280l-4 -1l-1 -1l1 -1l4 1v2zM2 10277h-1l1 -1h1l-1 1zM-2 10278l-4 -1v-1h2l2 2zM1 10276h-1v-1h1v1zM-6 10276h-2v-1h2v1zM-1 10275h-1v-1h1v1zM-3 10274h-1v-1h1v1zM-5 10273h-1v-1h1v1zM-8 10272h-1v-1h1v1zM-12 10270h-2v-1h2v1zM-16 10269h-1l1 -1h1l-1 1zM-19 10267h-1v-1h1v1zM-28 10263h-1l1 -1h1l-1 1zM-36 10262h-2v-1h2v1zM-32 10261h-1v-1h1v1zM-36 10261v-1l1 1h-1zM-38 10261h-1v-1h1v1zM-34 10260h-1v-1h1v1zM-40 10260h-1l1 -2h2l-2 2zM-41 10259h-1l-1 -1l1 -1l1 1v1zM-44 10257v1l-1 -1h1zM-44 10256h2v1h-2v-1zM-45 10257h-1l-1 -1h1h1v1zM-49 10256h-1v-1h1v1zM-45 10256v-2h1v2h-1zM-51 10255h-1v-1h1v1zM-47 10256l-1 -1l-2 -1v-1h3v3zM-53 10254h-1v-1h1v1zM-51 10253h-1v-1h1v1zM-55 10253h-1v-1h1v1zM-54 10252l-2 -1v-1h3v2h-1zM-56 10250h-1v-1h1v1zM-62 10248h-1v-1h1v1zM-71 10243h-1v-1h1v1zM-70 10241h-2v-1h2v1zM-75 10241h-1v-1h1v1zM-89 10281l1 1h-1v-1zM-91 10278h-1v-1h1v1zM-96 10272h-1l1 -1h1l-1 1zM-98 10266h-1v-1h1v1zM-100 10263l1 1l-1 1v-2zM-101 10262h1v1l-1 -1zM-102 10260h1v2h-1v-2zM-103 10259h1v1h-1v-1zM-104 10259v-1l1 1h-1zM-105 10256h-1v-1h1v1zM-114 10253l-1 -1h1v1zM-77 10240h-1v-1h1v1zM-120 10240v-1l1 1h-1zM-121 10239v-1h1v1h-1zM-72 10240l-4 -1l-1 -1l1 -1l2 1l2 2zM-80 10238h-1v-1h1v1zM-81 10237h-1v-1h1v1zM-83 10236h-1v-1h1v1zM-78 10237l-2 -1l-2 -2l4 1l1 1l-1 1zM-85 10235h-1v-1h1v1zM-82 10234h-2l-1 -2h1l2 2zM-124 10234v-2h1v2h-1zM-125 10232v-1h1v1h-1zM-86 10232h-1v-2h1l1 2h-1zM-88 10230h-1l1 -1h1l-1 1zM-89 10229h-1v-1h1v1zM-90 10228h-1v-1h1v1zM-91 10227h-1v-1h1v1zM-95 10227h-1v-1h1v1zM-96 10226h-1v-1h1v1zM-97 10225h-1v-1h1v1zM-99 10223h-1v-1h1v1zM-99 10221h-1v-1h1v1zM-98 10220h-1v-1h1v1zM-616 10231h-2v-1l2 -1v1v1zM-615 10229h-1v-1h1v1zM-614 10228h-1v-1h1v1zM-611 10226h-1v-1h1v1zM-610 10225h-1v-1h1v1zM-607 10223h-1v-1h1v1zM-603 10221h-1v-1h1v1zM-602 10220h-1l1 -1h1l-1 1zM-104 10219h-1v-1h1v1zM-138 10218h1v1h-1v-1zM-103 10218h-1v-1h1v1zM-139 10217h1v1h-1v-1zM-140 10217v-1h1v1h-1zM-105 10216h-1v-1h1v1zM-107 10215h-1v-1h1v1zM-108 10214h-1v-1h1v1zM-110 10212h-1v-1h1v1zM-111 10211h-1v-1h1v1zM-113 10210l-1 1v-1h1zM-113 10209l1 1h-1v-1zM-114 10210h-1l1 -1v1zM-114 10209v-1l1 1h-1zM-114 10208h-3l1 -1h2v1zM-119 10206h-1v-1h1v1zM-118 10205h-1v-1h1v1zM-119 10204h-1v-1h1v1zM-120 10203h-1v-1h1v1zM-123 10203h-1v-1h1v1zM-122 10202h-1v-1h1v1zM-126 10201h-1v-1h1v1zM-124 10200h-1v-1h1v1zM-126 10199h-3l1 -1h2v1zM-130 10196h-1v-1h1v1zM-132 10195l-2 -1v-1h2v1v1zM-134 10192h-1v-1h1v1zM-136 10190h-2v-1h2v1zM-138 10189l-2 -2v-1l2 2v1zM-141 10215h1v1h-1v-1zM-143 10216l1 -1v1h-1zM-142 10215v-1h1v1h-1zM-143 10213h1v1h-1v-1zM-144 10213v-1l1 1h-1zM-151 10207v-1h1v1h-1zM-150 10206v-1l1 1h-1zM-152 10206h-1v-1h1v1zM-151 10205h-1v-1h1v1zM-152 10204h-1v-1h1v1zM-156 10203l-1 -1v-2h1h1l-1 2v1zM-158 10201l-2 -1l2 -2v2v1zM-159 10198h-1v-1h1v1zM-161 10198h-1v-1h1v1zM-160 10197h-1v-1h1v1zM-161 10195h-1v-1h1v1zM-166 10194h-1v-1h1v1zM-164 10193h-1l1 -1h1l-1 1zM-165 10192h-1v-1h1v1zM-166 10191h-2v-1v-1l2 1v1zM-173 10188h1l-1 1v-1zM-174 10188v-1l1 1h-1zM-140 10186h-1v-1h1v1zM-176 10186h-1v-1h1v1zM-142 10186l-1 -1l1 -1h1l-1 2zM-177 10185h-1v-1h1v1zM-184 10187l-2 -1v-2l3 2l-1 1zM-180 10184h-1v-1h1v1zM-188 10183h-1v-1h1v1zM-188 10181h-2v-1h2v1zM-148 10180h-1l1 -1h1l-1 1zM-191 10180h-1v-1h1v1zM-193 10179h-1v-1h1v1zM-150 10178l-1 -2h1h1v2h-1zM-202 10177h-1v-1h1v1zM-200 10176h-1v-1h1v1zM-151 10174h-1v-1h1v1zM-156 10171h-1v-1h1v1zM-159 10165h-1v-1h1v1zM-164 10160h-1v-1h1v1zM-167 10158h-1v-1h1v1zM-180 10158h-1v-1h1v1zM-167 10156h-1v-1h1v1zM-182 10155v1l-1 -1h1zM-204 10176h-1v-1h1v1zM-204 10174h-1v-1h1v1zM-207 10174h-1v-1h1v1zM-205 10173h-1v-1h1v1zM-209 10171h-1v-1h1v1zM-244 10171h-1v-1h1v1zM-212 10171h-2v-1v-1l2 1v1zM-214 10169h-1v-1h1v1zM-248 10169h-1v-1h1v1zM-212 10168h-1v-1h1v1zM-211 10167h-1v-1h1v1zM-213 10167h-1v-1h1v1zM-259 10162h-1v-1h1v1zM-260 10158h-1v-1h1v1zM-262 10157h-1v-1h1v1zM-264 10156h-1v-1h1v1zM-438 10159h-1v-1h1v1zM-423 10158h-1v-1h1v1zM-426 10158h-1v-1h1v1zM-429 10158h-1v-1h1v1zM-410 10157h-1v-1h1v1zM-400 10156h-1v-1h1v1zM-405 10156h-1v-1h1v1zM-522 10175h-1v-1h1v1zM-518 10174h-1v-1h1v1zM-515 10173h-1v-1h1v1zM-518 10171h-1v-1h1v1zM-520 10171l-1 -1v-1l1 1v1zM-510 10169h-1v-1h1v1zM-513 10170l-1 -1v-1h1v2zM-505 10168h-1v-1h1v1zM-500 10167h-1v-1h1v1zM-502 10167h-1v-1h1v1zM-497 10166h-1v-1h1v1zM-504 10166h-1v-1h1v1zM-494 10165h-1l1 -1h1l-1 1zM-490 10164h-1l1 -1h1l-1 1zM-486 10163h-2v-1h2v1zM-483 10162h-1v-1h1v1zM-480 10161h-1v-1h1v1zM-477 10160h-1v-1h1v1zM-474 10159h-1l1 -1h1l-1 1zM-466 10157h-1v-1h1v1zM-585 10208v-1l2 1h-2zM-578 10205v-1l1 1h-1zM-575 10204h-1l1 -1v1zM-559 10193l-1 -1v-1l1 1v1zM-556 10191h-1v-1h1v1zM-560 10191h-1v-1h1v1zM-553 10190h-1v-1h1v1zM-552 10189h-1v-1h1v1zM-547 10188h-1v-1h1v1zM-550 10188h-1v-1h1v1zM-548 10187h-2v-1h2v1zM-547 10186h-1v-1h1v1zM-544 10184h-1v-1h1v1zM-543 10183h-1v-1h1v1zM-540 10182h-2v-1h2v1zM-538 10181h-2v-1h2v1zM-536 10180h-2v-1h2v1zM-530 10179h-1v-1h1v1zM-534 10179h-2v-1h2v1zM-532 10178h-2v-1h2v1zM-528 10177h-4v-1h4v1zM-525 10176h-1v-1h1v1zM-524 10175h-1v-1h1v1zM-536 10176l-1 -1l1 -1h1l-1 2zM-530 10174h-1v-1h1v1zM-527 10173h-1v-1h1v1zM-531 10173h-1v-1h1v1zM-526 10172h-1v-1h1v1zM-524 10172l-1 -2h1h1v2h-1zM-600 10218v1l-1 -1h1zM-600 10217l1 1h-1v-1zM-601 10218h-1l1 -1v1zM-598 10217h-1v-1h1v1zM-601 10217v-1h1v1h-1zM-595 10213v-1h1v1h-1zM-169 10155h-1v-1h1v1zM-182 10155v-1h2v1h-2zM-183 10155h-1v-2h2v1h-1v1zM-270 10155h-1v-1h1v1zM-272 10155h-1v-1h1v1zM-274 10155h-2v-1l2 -1v1v1zM-390 10155h-1v-1h1v1zM-393 10155h-1v-1h1v1zM320 10398h-1v-1h1v1zM317 10397h-1v-1h1v1zM315 10396h-1v-1h1v1zM336 10395h-1v-1h1v1zM334 10395l-2 -1v-1h2v1v1zM318 10394h-1v-1h1v1zM320 10393h-1l1 -1h1l-1 1zM338 10391l1 1l-1 2h-1v-3h1zM330 10392h-4v-1h5l-1 1zM315 10392h-1v-1h1v1zM338 10390h1l-1 1v-1zM337 10391h-1v-1h1v1zM336 10392h-2l-2 -2h2l2 2zM310 10391h-1v-1h1v1zM337 10390l1 -1v1h-1zM332 10390h-2v-1h2v1zM318 10390h-2v-1h3l-1 1zM315 10390h-1v-1h1v1zM337 10389h-1v-1h1v1zM330 10389h-1v-1h1v1zM314 10389h-1v-1h1v1zM335 10388h-1v-1h1v1zM327 10388h-1v-1h1v1zM334 10387h-1v-1h1v1zM324 10387h-1v-1h1v1zM330 10387v-1l2 -1v1l-2 1zM322 10386h-1v-1h1v1zM328 10385h-1l1 -1h1l-1 1zM325 10385h-1v-1h1v1zM319 10385h-1v-1h1v1zM326 10384h-1v-1h1v1zM317 10384h-1v-1h1v1zM314 10383h-1v-1h1v1zM324 10383h-3l1 -1l2 -1v1v1zM312 10382h-1v-1h1v1zM328 10381h-1v-1h1v1zM325 10381h-1v-1h1v1zM318 10381h-1v-1h1v1zM310 10381h-2v-1h2v1zM315 10380h-1v-1h1v1zM314 10379h-2v-1h2v1zM316 10378h-1l1 -1h1l-1 1zM313 10377h-1v-1h1v1zM309 10377h-1v-1h1v1zM311 10376h-1v-1h1v1zM314 10370h-2v-1h2v1zM312 10369h-1v-1h1v1zM312 10361h-1l1 -1h1l-1 1zM309 10359h-1v-1h1v1zM314 10358h-1v-1h1v1zM312 10356h-1v-1h1v1zM310 10355h-1v-1h1v1zM272 10410h-1v-1h1v1zM268 10410h-2v-1h2v1zM269 10409h-1v-1h1v1zM266 10409h-1v-1h1v1zM268 10408h-1v-1h1v1zM266 10407h-1v-1h1v1zM265 10406h-1v-1h1v1zM262 10406h-2v-1h2v1zM264 10405h-1v-1h1v1zM262 10404h-1v-1h1v1zM255 10403h-1v-1h1v1zM256 10401h-1v-1h1v1zM261 10400h-1v-1h1v1zM247 10399h-1v-1h1v1zM257 10398h-1v-1h1v1zM252 10396h-1v-1h1v1zM249 10395h-1v-1h1v1zM247 10394h-1v-1h1v1zM245 10394h-1v-1h1v1zM306 10390h-1v-1h1v1zM302 10389h-1l1 -1h1l-1 1zM308 10388h-1l1 -1h1l-1 1zM306 10388l-3 -1v-1l1 -1v1h2h1l-1 2zM279 10386h-1v-1h1v1zM289 10385h-1v-1h1v1zM300 10384h-1v-1h1v1zM286 10384h-1v-1h1v1zM274 10384h-1v-1h1v1zM299 10383h-1v-1h1v1zM294 10383h-2v-1h2v1zM291 10383h-1v-1h1v1zM283 10383h-1v-1h1v1zM296 10382h-1v-1h1v1zM291 10381h-1v-1h1v1zM277 10381h-1v-1h1v1zM289 10381l-1 -1v-1l1 1v1zM274 10380h-1l1 -1h1l-1 1zM305 10379h-1v-1h1v1zM303 10378h-1v-1h1v1zM280 10378h-1v-1h1v1zM257 10378h-1v-1h1v1zM306 10376h-1v-1h1v1zM298 10376h-1v-1h1v1zM266 10377l-2 -1v-1h2v1v1zM263 10376h-1v-1h1v1zM258 10376h-1v-1h1v1zM304 10375h-1v-1h1v1zM262 10375h-1v-1h1v1zM252 10375h-1v-1h1v1zM302 10374h-1v-1h1v1zM246 10374h-1v-1h1v1zM299 10373h-1v-1h1v1zM259 10373h-1v-1h1v1zM302 10372h-1l1 -1h1l-1 1zM269 10372h-1v-1h1v1zM252 10372h-1v-1h1v1zM250 10372h-1v-1h1v1zM245 10372h-1v-1h1v1zM295 10371h-1v-1h1v1zM264 10371h-1v-1h1v1zM255 10371h-1v-1h1v1zM248 10371h-2v-1h2v1zM297 10370h-1v-1h1v1zM292 10370h-1v-1h1v1zM268 10370h-1v-1h1v1zM261 10371l-1 -1v-1l1 1v1zM257 10370h-1v-1h1v1zM249 10369h-1v-1h1v1zM298 10368h-1v-1h1v1zM266 10368h-1v-1h1v1zM251 10368h-1v-1h1v1zM246 10368h-1v-1h1v1zM307 10367h-1v-1h1v1zM264 10367h-1v-1h1v1zM253 10367h-1v-1h1v1zM248 10367h-2v-1h3l-1 1zM304 10366h-2v-1h2v1zM287 10366h-1v-1h1v1zM280 10366h-1l1 -1h1l-1 1zM250 10366h-1l1 -1h1l-1 1zM284 10365h-1l1 -1h1l-1 1zM258 10365h-1v-1h1v1zM246 10365h-1l1 -1h1l-1 1zM308 10364h-1v-1h1v1zM300 10365h-2l-1 -1l1 -1l2 1v1zM282 10364h-3l1 -1h2v1zM274 10364h-1v-1h1v1zM297 10364h-3v-1h2v-1h1v2zM290 10363h-1v-1h1v1zM285 10363h-1v-1h1v1zM279 10363h-1v-1h1v1zM269 10363h-1v-1h1v1zM256 10363h-1v-1h1v1zM252 10363h-1l1 -1h1l-1 1zM309 10362h-1h-1l1 -2h1v2zM305 10362h-1v-1h1v1zM301 10362h-1v-1h1v1zM299 10362h-1v-1h1v1zM274 10362h-2v-1h2v1zM249 10362h-1v-1h1v1zM295 10362h-3v-1h2v-1h1v2zM288 10361h-4v-1h4v1zM270 10362v-1l2 -1l-2 2zM261 10361h-1v-1h1v1zM293 10360h-1v-1h1v1zM283 10361l-1 -1v-1l1 1v1zM280 10360h-1v-1h1v1zM269 10360h-1v-1h1v1zM266 10361l-2 -1v-1h3v1l-1 1zM262 10360h-1v-1h1v1zM306 10360l-4 -1v-1h4v2zM296 10359h-1l1 -1h1l-1 1zM294 10359h-1v-1h1v1zM276 10360h-1v-2h1l1 2h-1zM274 10359h-5l1 -1h4v1zM263 10359h-1v-1h1v1zM268 10358h-1v-1h1v1zM294 10357h-2v-1h2v1zM279 10357h-1v-1h1v1zM266 10358h-3l1 -1l2 -1v2zM248 10357h-1v-1h1v1zM308 10356h-2v-1h2v1zM304 10356h-1l1 -1h1l-1 1zM295 10356h-1v-1h1v1zM255 10356h-1v-1h1v1zM252 10356h-1v-1h1v1zM293 10355h-1v-1h1v1zM246 10355h-1l1 -1h1l-1 1zM308 10354h-2v-1h2v1zM303 10354h-1v-1h1v1zM296 10354h-2v-1h2v1zM290 10355h-2v-1v-1l2 1v1zM280 10354h-1v-1h1v1zM266 10354h-1v-1h1v1zM245 10354h-1v-1h1v1zM293 10353h-1v-1h1v1zM291 10353h-1v-1h1v1zM286 10353h-3l1 -1h2v1zM301 10352h-1v-1h1v1zM290 10352h-4v-1h4v1zM300 10351h-1v-1h1v1zM291 10351h-1v-1h1v1zM286 10351h-3l1 -1h2v1zM278 10351h-2v-1h2v1zM296 10350h-1v-1h1v1zM288 10350h-1l1 -1h1l-1 1zM282 10350h-3l1 -1h3l-1 1zM292 10349h-1v-1h1v1zM286 10349h-3l1 -1h3l-1 1zM277 10349h-1v-1h1v1zM271 10349h-1v-1h1v1zM276 10348h-2v-1h2v1zM267 10348h-1v-1h1v1zM376 10323h-1v-1h1v1zM380 10322h-2v-1h2v1zM384 10321h-1v-1h1v1zM390 10318h-1v-1h1v1zM391 10317h-1v-1h1v1zM375 10317h-1v-1h1v1zM373 10316h-1v-1h1v1zM380 10315h-1l1 -1h1l-1 1zM378 10316h-2v-2l2 2zM382 10314h-1v-1h1v1zM378 10314h-1v-1h1v1zM384 10313h-1l1 -1h1l-1 1zM381 10313h-1v-1h1v1zM383 10312h-1v-1h1v1zM388 10312h-3v-2h1v1h2v1zM391 10310h-1v-1h1v1zM400 10308h-1v-1h1v1zM394 10309l-1 -1l1 -1l1 1l-1 1zM392 10308h-1v-1h1v1zM396 10307l-1 -1v-1l1 1v1zM398 10306l-1 -1v-1h1v2zM399 10304h-1v-1h1v1zM402 10302v1l-1 -1h1zM374 10301h-1v-1h1v1zM377 10300h-1v-1h1v1zM375 10300h-1v-1h1v1zM380 10299h-1v-1h1v1zM378 10299h-1v-1h1v1zM382 10298h-1v-1h1v1zM377 10298h-1v-1h1v1zM408 10297h-1v-1h1v1zM402 10298l-1 -1v-1h1v2zM384 10297h-2v-1h3l-1 1zM381 10297h-1v-1h1v1zM407 10296h-1v-1h1v1zM388 10296h-1v-1h1v1zM386 10296h-1v-1h1v1zM408 10295h-1l1 -1h1l-1 1zM403 10295h-1v-1h1v1zM378 10295h-2v-1h2v1zM392 10294h-1v-1h1v1zM390 10295l-1 -1v-1l1 1v1zM382 10294h-3l1 -1h2v1zM384 10293h-1l1 -1h1l-1 1zM394 10292h-1v-1h1v1zM386 10292h-1l1 -1h1l-1 1zM376 10292h-2v-1h2v1zM395 10291h-1v-1h1v1zM389 10291h-1v-1h1v1zM379 10291h-1v-1h1v1zM404 10292h-1v-3l1 1v2zM396 10290h-1v-1h1v1zM394 10290h-1v-1h1v1zM382 10290h-1v-1h1v1zM389 10289h-1v-1h1v1zM392 10288h-1v-1h1v1zM390 10288h-1v-1h1v1zM397 10287h-1v-1h1v1zM388 10287h-1v-1h1v1zM405 10289l-1 -1v-3l1 1v3zM389 10286h-1v-1h1v1zM387 10286h-1v-1h1v1zM393 10287l-1 -1v-2h1v3zM320 10329h-2v-1h2v1zM340 10328h-3l1 -1h2v1zM336 10328h-1v-1h1v1zM344 10327h-3l1 -1h2v1zM364 10326h-3v-2h3l1 2h-1zM346 10327l-1 -1l3 -1l2 -1v2h-4v1zM371 10324h-1v-1h1v1zM358 10323h-1l1 -1h1l-1 1zM362 10322h-1v-1h1v1zM360 10322h-1v-1h1v1zM364 10321h-1v-1h1v1zM366 10320h-1l1 -1h1l-1 1zM370 10319h-1l1 -1h1l-1 1zM338 10319h-1v-1h1v1zM374 10318h-3l1 -1h2v1zM335 10318h-1v-1h1v1zM331 10313h-1v-1h1v1zM324 10313h-1l1 -1h1l-1 1zM337 10312h-1v-1h1v1zM341 10311h-1v-1h1v1zM332 10311h-5l1 -1h5l-1 1zM324 10311h-1l1 -1h1l-1 1zM338 10310h-2v-1h2v1zM335 10310h-1v-1h1v1zM348 10309h-2v-1h2v1zM343 10309h-1v-1h1v1zM341 10309h-1v-1h1v1zM324 10309h-1v-1h1v1zM321 10309h-1v-1h1v1zM316 10308h1l-1 1v-1zM345 10308h-1v-1h1v1zM350 10307h-2v-1h2v1zM332 10307h-3l1 -1h2v1zM358 10306h-1v-1h1v1zM352 10306h-1l1 -1h1l-1 1zM337 10306h-1v-1h1v1zM335 10306h-1v-1h1v1zM333 10306h-1v-1h1v1zM324 10308l-1 -2l1 -1l1 1v2h-1zM342 10305h-2v-1h2v1zM330 10305h-1l1 -1h1l-1 1zM328 10307l-1 -1v-2h1v3zM325 10305h-1v-1h1v1zM322 10305h-1v-1h1v1zM346 10304h-1v-1h1v1zM332 10304h-1v-1h1v1zM367 10303h-1v-1h1v1zM364 10304h-2l2 -2v2zM348 10303h-1l1 -1h1l-1 1zM336 10303h-1v-1h1v1zM334 10303h-1v-1h1v1zM370 10302h-1v-1h1v1zM366 10302h-1v-1h1v1zM343 10302h-1v-1h1v1zM341 10303l-1 -1v-1l1 1v1zM347 10301h-1v-1h1v1zM330 10301h-1v-1h1v1zM372 10300h-2v-1h2v1zM357 10300h-1v-1h1v1zM344 10300h-2v-1h2v1zM354 10299h-1l1 -1h1l-1 1zM351 10300l-1 -1v-1h1v2zM334 10299h-1v-1h1v1zM364 10298h-2v-1h2v1zM347 10298h-1v-1h1v1zM336 10298h-1v-1h1v1zM371 10297h-1v-1h1v1zM370 10296h-1v-1h1v1zM363 10296h-1v-1h1v1zM366 10295h-1v-1h1v1zM323 10295h-1v-1h1v1zM370 10294h-1v-1h1v1zM347 10294h-1v-1h1v1zM344 10294h-1v-1h1v1zM328 10294h-1v-1h1v1zM318 10294h-2v-1h2v1zM310 10294h-1v-1h1v1zM346 10293h-1v-1h1v1zM326 10293h-2v-1h2v1zM322 10293h-2v-1h3l-1 1zM348 10292h-1v-1h1v1zM339 10292h-1v-1h1v1zM354 10291h-1v-1h1v1zM349 10291h-1v-1h1v1zM326 10291h-1v-1h1v1zM323 10291h-1v-1h1v1zM310 10291h-2v-1h3l-1 1zM345 10290h-1v-1h1v1zM342 10290h-5l1 -1h5l-1 1zM336 10290h-1v-1h1v1zM319 10290h-1v-1h1v1zM316 10290h-2v-1h2v1zM313 10290h-1v-1h1v1zM353 10289h-1v-1h1v1zM352 10288h-1v-1h1v1zM309 10288h-1v-1h1v1zM317 10287h-1v-1h1v1zM314 10287h-2v-1h3l-1 1zM310 10287h-1l1 -1h1l-1 1zM328 10286h-2v-1h2v1zM324 10286h-3l1 -1h3l-1 1zM318 10286h-1l1 -1h1l-1 1zM348 10286l-2 -2h2l1 2h-1zM344 10285h-1l1 -1h1l-1 1zM342 10285h-6v-1h6v1zM331 10285h-1v-1h1v1zM284 10347h-1v-1h1v1zM271 10347h-1v-1h1v1zM273 10346h-1v-1h1v1zM270 10345h-2v-1h2v1zM263 10345h-1v-1h1v1zM264 10345v-1l4 -1v1h-2l-2 1zM262 10343h-1l1 -1h1l-1 1zM257 10343h-1v-1h1v1zM259 10342h-1v-1h1v1zM254 10342h-2l2 -2v2zM251 10341h-1v-1h1v1zM250 10340h-1v-1h1v1zM248 10339h-1v-1h1v1zM245 10337h-1v-1h1v1zM305 10329h-1v-1h1v1zM302 10329h-1v-1h1v1zM300 10329h-1v-1h1v1zM298 10329h-1v-1h1v1zM245 10310h-1v-1h1v1zM249 10307h-1v-1h1v1zM293 10297l-1 1v-1h1zM293 10296h1l-1 1v-1zM292 10297h-1v-1h1v1zM291 10297l-1 1h-4v-1l4 -1v1h1zM286 10297h-2v-1h2v1zM278 10297h-1v-1h1v1zM268 10297h-1v-1h1v1zM292 10296v-1l1 1h-1zM290 10296v-1l1 1h-1zM282 10296h-1v-1h1v1zM308 10296h-2l2 -2l1 2h-1zM272 10295h-1v-1h1v1zM288 10293h-2v-1h3l-1 1zM284 10293h-2v-1h3l-1 1zM280 10293h-1l1 -1h1l-1 1zM278 10293h-3l1 -1h2v1zM274 10293h-2v-1h2v1zM272 10292h-1v-1h1v1zM270 10292h-1v-1h1v1zM306 10291h-1v-1h1v1zM304 10291h-2v-1h2v1zM269 10291h-1v-1h1v1zM267 10291h-1v-1h1v1zM286 10290h-2v-1h2v1zM282 10290h-1v-1h1v1zM279 10290h-1v-1h1v1zM275 10290h-1v-1h1v1zM272 10289h-2v-1h2v1zM265 10289h-1v-1h1v1zM263 10289h-1v-1h1v1zM306 10288h-2v-1h2v1zM303 10288h-1v-1h1v1zM300 10288h-4v-1h5l-1 1zM269 10288h-1v-1h1v1zM307 10287h-1v-1h1v1zM268 10287h-1v-1h1v1zM393 10283h-1v-1h1v1zM390 10283h-1v-1h1v1zM388 10283h-1v-1h1v1zM406 10284h-1v-3l1 1v2zM397 10283l-1 -1v-1l1 1v1zM392 10282h-1v-1h1v1zM384 10282h-1v-1h1v1zM381 10282h-1v-1h1v1zM379 10282h-1v-1h1v1zM390 10281h-2v-1h2v1zM376 10282l-1 -2h1h1v2h-1zM386 10280h-4v-1h4v1zM381 10280h-1v-1h1v1zM395 10279h-1v-1h1v1zM376 10279h-2v-1h2v1zM373 10279h-1v-1h1v1zM393 10278h-1v-1h1v1zM390 10277h-1v-1h1v1zM386 10276h-1v-1h1v1zM404 10261h-1v-1h1v1zM373 10260h-1v-1h1v1zM374 10259h-1l1 -1h1l-1 1zM376 10258h-1v-1h1v1zM375 10257h-1v-1h1v1zM379 10256h-1v-1h1v1zM377 10256h-1v-1h1v1zM373 10256h-1v-1h1v1zM381 10255h-1v-1h1v1zM378 10255h-1v-1h1v1zM375 10255h-1v-1h1v1zM386 10254h-1v-1h1v1zM376 10254h-1v-1h1v1zM383 10253h-1v-1h1v1zM384 10252h-1l1 -1h1l-1 1zM374 10252h-1v-1h1v1zM396 10251h-1v-1h1v1zM380 10251h-1v-1h1v1zM375 10251h-1v-1h1v1zM395 10250h-1v-1h1v1zM385 10250h-1v-1h1v1zM382 10250h-1v-1h1v1zM390 10249h-1l1 -1h1l-1 1zM383 10249h-1v-1h1v1zM389 10248h-1v-1h1v1zM384 10248h-1v-1h1v1zM392 10248l-1 -1l1 -1h1l-1 2zM388 10247h-1v-1h1v1zM385 10247h-1v-1h1v1zM386 10246h-1v-1h1v1zM381 10247l-1 -1v-1l1 1v1zM390 10246l-1 -1v-1h1v2zM388 10245h-1v-1h1v1zM383 10245h-1v-1h1v1zM392 10244h-1v-1h1v1zM384 10244h-1v-1h1v1zM392 10241h-1v-1h1v1zM383 10241h-1v-1h1v1zM389 10240h-1v-1h1v1zM386 10241l-1 -1v-1l1 1v1zM382 10240h-1v-1h1v1zM389 10238h-1v-1h1v1zM385 10238h-1v-1h1v1zM384 10237h-1v-1h1v1zM379 10237h-1v-1h1v1zM386 10236h-1v-1h1v1zM383 10236h-1v-1h1v1zM374 10235h-1l1 -1h1l-1 1zM386 10234h-1v-1h1v1zM380 10234h-1v-1h1v1zM386 10232h-1v-1h1v1zM383 10232h-1v-1h1v1zM375 10232h-1v-1h1v1zM380 10231h-1l1 -1h1l-1 1zM376 10229h-1l1 -1h1l-1 1zM383 10229h-3l-1 -1l1 -1l3 1v1zM374 10228h-2v-1h2v1zM378 10227l-6 -1v-1l4 1h2v1zM380 10224h-1v-1h1v1zM361 10282h-1v-1h1v1zM371 10281h-1v-1h1v1zM369 10281h-1v-1h1v1zM355 10279h-1v-1h1v1zM367 10278h-1v-1h1v1zM354 10277h-1v-1h1v1zM362 10277v-1l2 -1v1l-2 1zM360 10276l-1 -1v-1h1v2zM356 10275h-1v-1h1v1zM357 10274h-1v-1h1v1zM359 10271h-1v-1h1v1zM356 10273l-1 -1v-2h1v3zM361 10270h-1v-1h1v1zM360 10269h-1v-1h1v1zM357 10270l-1 -1v-1h1v2zM358 10268h-1v-1h1v1zM362 10267h-1v-1h1v1zM359 10267h-1v-1h1v1zM355 10267h-1v-1h1v1zM365 10266h-1v-1h1v1zM363 10266h-1v-1h1v1zM360 10266h-1v-1h1v1zM364 10265h-1v-1h1v1zM360 10265v-1l2 -1v1l-2 1zM369 10262l-1 1v-1h1zM363 10263h-1v-1h1v1zM369 10261l1 1h-1v-1zM368 10262h-1l1 -1v1zM368 10261v-1l1 1h-1zM365 10261h-1v-1h1v1zM371 10260h-1v-1h1v1zM368 10260h-2v-1h2v1zM372 10259h-1v-1h1v1zM369 10259h-1v-1h1v1zM370 10258h-1v-1h1v1zM372 10257h-1v-1h1v1zM366 10257h-1v-1h1v1zM368 10256h-1v-1h1v1zM370 10254h-1v-1h1v1zM362 10231h-1l1 -1h1l-1 1zM358 10230h-1v-1h1v1zM354 10228h-1v-1h1v1zM352 10228h-1v-1h1v1zM370 10227h-2v-1h2v1zM348 10227h-1l1 -1h1l-1 1zM368 10226h-2v-1h2v1zM372 10225h-1v-1h1v1zM370 10225h-2v-1l2 -1v1v1zM366 10224h-1v-1h1v1zM362 10225l-1 -1l1 -1h1v1l-1 1zM360 10224h-1v-1h1v1zM348 10224h-1v-1h1v1zM368 10224l-1 -1v-1h1v2zM364 10223h-1l1 -1h1l-1 1zM366 10222h-1v-1h1v1zM363 10222h-1v-1h1v1zM354 10222h-1v-1h1v1zM340 10222h-1v-1h1v1zM360 10222l-2 -1l-2 -1v-1h4l1 1v2h-1zM332 10220h-1v-1h1v1zM266 10280h-1v-1h1v1zM264 10279h-1v-1h1v1zM270 10274h-1v-1h1v1zM269 10272l-1 -1v-1h1v2zM264 10270h-1v-1h1v1zM268 10269h-1v-1h1v1zM261 10268l-1 1v-1h1zM267 10268h-1v-1h1v1zM261 10267l1 1h-1v-1zM260 10268h-1l1 -1v1zM260 10267v-1l1 1h-1zM258 10267h-2v-1h2v1zM266 10266h-2v-1h2v1zM259 10266h-1v-1h1v1zM254 10266h-1l1 -1h1l-1 1zM264 10265h-1v-1h1v1zM252 10265h-1v-1h1v1zM249 10265h-1v-1h1v1zM262 10264h-1v-1h1v1zM254 10264h-1v-1h1v1zM246 10264h-1v-1h1v1zM251 10263h-1v-1h1v1zM257 10261h-1v-1h1v1zM252 10260h-1v-1h1v1zM250 10259h-1v-1h1v1zM243 10393h-1v-1h1v1zM241 10392h-1v-1h1v1zM232 10392h-1v-1h1v1zM235 10390h1h1l-1 1h-1v-1zM235 10391l-1 1h-1l1 -2v1h1zM234 10390v-1l1 1h-1zM233 10390h-1v-1h1v1zM227 10390h-1v-1h1v1zM231 10389h-1v-1h1v1zM229 10389h-1v-1h1v1zM228 10388h-1v-1h1v1zM224 10387h2v1l-2 1l-1 -1h1v-1zM223 10388h-4l1 -1h1h3l-1 1zM218 10387h-1v-1h1v1zM220 10386h-2v-1h3l-1 1zM216 10386h-1v-1h1v1zM217 10385h-1v-1h1v1zM212 10385h-1v-1h1v1zM214 10384h-1v-1h1v1zM211 10384l-1 -1v-1h1v2zM204 10381h-2v-1h2v1zM197 10381h-1v-1h1v1zM200 10380h-2v-1h2v1zM197 10379h-1v-1h1v1zM191 10379h-1v-1h1v1zM185 10377h-1v-1h1v1zM235 10372h-1v-1h1v1zM215 10372h-1v-1h1v1zM230 10371h-1v-1h1v1zM227 10371h-1v-1h1v1zM220 10371h-1v-1h1v1zM244 10370h-2v-1h2v1zM241 10370h-1v-1h1v1zM222 10370h-1v-1h1v1zM238 10369h-2v-1h2v1zM235 10369h-1v-1h1v1zM225 10371h-2v-1l-1 -2h2l1 2v1zM218 10370v-1l2 -1h1l-1 1l-2 1zM232 10368h-2v-1h3l-1 1zM218 10368h-1v-1h1v1zM213 10368h-1v-1h1v1zM228 10367h-3l1 -1h2v1zM215 10368l-1 -1v-1h1v2zM244 10366h-1v-1h1v1zM222 10366h-4v-1h5l-1 1zM203 10366h-1v-1h1v1zM240 10366l-1 -1v-1h1v2zM236 10365h-2v-1h2v1zM218 10365h-2v-1h2v1zM206 10366h-2v-2l2 2zM198 10365h-3l1 -1h2v1zM232 10364h-1l1 -1h1l-1 1zM230 10364h-1v-1h1v1zM216 10363v1l-1 -1h1zM213 10364h-1v-1h1v1zM194 10364h-2v-1h3l-1 1zM235 10363h-1v-1h1v1zM221 10363h-1v-1h1v1zM190 10363h-1v-1h1v1zM188 10363h-1v-1h1v1zM222 10362h-1v-1h1v1zM185 10362h-1v-1h1v1zM182 10362h-2v-1h3l-1 1zM240 10360h-1v-1h1v1zM187 10360h-1v-1h1v1zM184 10360h-1l1 -1h1l-1 1zM205 10359v-1h1v1h-1zM201 10358h-1v-1h1v1zM188 10358h-1v-1h1v1zM196 10357v-1l1 1h-1zM186 10357h-2v-1h2v1zM182 10357h-2v-1h3l-1 1zM244 10356h-1l1 -1h1l-1 1zM227 10356h-1v-1h1v1zM184 10355h-2v-1h2v1zM242 10354h-1l1 -1h1l-1 1zM241 10353h-1v-1h1v1zM238 10353l-1 -1v-1l1 1v1zM235 10351h-1v-1h1v1zM228 10351h-1v-1h1v1zM227 10350h-1v-1h1v1zM223 10350h-1v-1h1v1zM213 10350h-1v-1h1v1zM219 10349h-1v-1h1v1zM217 10349h-1v-1h1v1zM208 10349h-1v-1h1v1zM205 10349h-1v-1h1v1zM224 10348h-1l1 -1h1l-1 1zM216 10348h-2v-1h2v1zM204 10348h-1v-1h1v1zM200 10348h-1l1 -1h1l-1 1zM198 10348h-1v-1h1v1zM189 10348h-1v-1h1v1zM180 10359h-4v-1h2v-2l3 2l-1 1zM180 10355h-1v-1h1v1zM242 10347h-1v-1h1v1zM221 10347h-1v-1h1v1zM210 10347h-2v-1h2v1zM199 10347h-1v-1h1v1zM196 10347h-3l1 -1h2v1zM217 10346h-1v-1h1v1zM204 10346h-1v-1h1v1zM188 10346h-1v-1h1v1zM186 10346h-1v-1h1v1zM235 10345h-1v-1h1v1zM215 10345h-1v-1h1v1zM182 10345h-1v-1h1v1zM231 10344h-1v-1h1v1zM212 10344h-2v-1h3l-1 1zM209 10343h-1v-1h1v1zM206 10342h-1l1 -1h1l-1 1zM201 10342h-1v-1h1v1zM199 10342h-1v-1h1v1zM189 10342h-1v-1h1v1zM217 10341h-1v-1h1v1zM194 10341h-3l1 -1h2v1zM204 10341h-2l-1 -1l1 -1l2 1v1zM198 10340h-1v-1h1v1zM200 10339h-2v-1h2v1zM191 10339h-1v-1h1v1zM242 10338h-1v-1h1v1zM240 10338h-1v-1h1v1zM213 10338h-1v-1h1v1zM198 10338h-1v-1h1v1zM239 10337h-1v-1h1v1zM234 10336h-1l1 -1h1l-1 1zM196 10337h-1v-1l1 -1l1 1l-1 1zM238 10335h-1v-1h1v1zM232 10335h-1v-1h1v1zM230 10335h-1v-1h1v1zM195 10335h-1v-1h1v1zM235 10334h-1v-1h1v1zM228 10334h-1v-1h1v1zM232 10333h-1v-1h1v1zM226 10333h-4v-1h4v1zM196 10333h-1v-1h1v1zM192 10333h-1v-1h1v1zM228 10332h-1v-1h1v1zM220 10332h-1l1 -1h1l-1 1zM224 10331h-1l1 -1h1l-1 1zM215 10331h-1v-1h1v1zM220 10330h-1v-1h1v1zM211 10330h-1v-1h1v1zM209 10330h-1v-1h1v1zM215 10329h-1v-1h1v1zM203 10329h-1v-1h1v1zM200 10329h-2v-1h2v1zM197 10329h-1v-1h1v1zM192 10329h-1v-1h1v1zM210 10328h-1v-1h1v1zM194 10328h-2v-1h2v1zM205 10327h-1v-1h1v1zM198 10327h-1v-1h1v1zM195 10327h-1v-1h1v1zM200 10321h-1l1 -1h1l-1 1zM190 10321h-1v-1h1v1zM188 10321h-3l1 -1h2v1zM233 10318h-1v-1h1v1zM235 10316h-1v-1h1v1zM185 10264h-1v-1h1v1zM211 10263h-1v-1h1v1zM193 10263h-1v-1h1v1zM196 10262h-1v-1h1v1zM239 10261h-1v-1h1v1zM235 10261h-1v-1h1v1zM209 10261h-1v-1h1v1zM207 10261h-1v-1h1v1zM204 10261h-1v-1h1v1zM201 10262h-3v-1h2v-1h1v2zM182 10261h-1l1 -1h1l-1 1zM188 10260h-1v-1h1v1zM186 10259h-1v-1h1v1zM182 10259h-1v-1h1v1zM184 10256h-1v-1h1v1zM190 10255h-1v-1h1v1zM211 10253h-1v-1h1v1zM356 10219h-1v-1h1v1zM342 10219h-1v-1h1v1zM371 10218h-1v-1h1v1zM339 10218h-1v-1h1v1zM369 10217h-1v-1h1v1zM341 10217h-1v-1h1v1zM334 10217h-1v-1h1v1zM323 10217h-1v-1h1v1zM337 10216h-1v-1h1v1zM343 10215h-1v-1h1v1zM340 10216h-2l2 -2h1l-1 2zM336 10215h-1v-1h1v1zM328 10215h-1l1 -1h1l-1 1zM338 10214h-1v-1h1v1zM332 10214h-2v-1h2v1zM315 10214h-1v-1h1v1zM334 10215l-1 -1l1 -2h1v2l-1 1zM311 10212h-1v-1h1v1zM321 10211h-1v-1h1v1zM314 10210h-1v-1h1v1zM315 10208h-1v-1h1v1zM312 10207h-1l1 -1h1l-1 1zM354 10205l1 1h-1v-1zM311 10206h-1v-1h1v1zM310 10205h-1v-1h1v1zM342 10200h-1l1 -1h1l-1 1zM337 10198h-1v-1h1v1zM302 10206h-1v-1h1v1zM297 10202h-1v-1h1v1zM300 10201h-1v-1h1v1zM303 10200h-1v-1h1v1zM297 10195h-1v-1h1v1zM296 10194h-1v-1h1v1zM289 10191h-1v-1h1v1zM274 10185h-1v-1h1v1zM281 10180h-1v-1h1v1zM261 10180h-1v-1h1v1zM277 10178h-1v-1h1v1zM276 10177h-1v-1h1v1zM274 10176h-1v-1h1v1zM267 10176h-1v-1h1v1zM268 10173h-2v-1h2v1zM260 10173h-1v-1h1v1zM265 10172h-1v-1h1v1zM254 10172h-1v-1h1v1zM264 10171h-3l1 -1h2v1zM260 10170h-2v-1h3l-1 1zM248 10170h-1v-1h1v1zM258 10169h-2v-1h2v1zM246 10168h-1v-1h1v1zM256 10168l-4 -1h-1l1 -1l4 1v1zM250 10166h-3l1 -1h3l-1 1zM247 10165h-1v-1h1v1zM243 10167h-1v-1h1v1zM240 10166h-1v-1h1v1zM225 10166h-1v-1h1v1zM237 10165h-1v-1h1v1zM244 10165l-1 -1l1 -1h1v1l-1 1zM235 10164h-1v-1h1v1zM233 10163h-1v-1h1v1zM239 10162h-1v-1h1v1zM236 10161h-1v-1h1v1zM234 10160h-1v-1h1v1zM214 10160h-1v-1h1v1zM227 10159h-1v-1h1v1zM222 10157h-1l1 -1h1l-1 1zM221 10156h-1v-1h1v1zM220 10155h-2v-1h2v1zM214 10155h-1v-1h1v1z"/></svg>