<svg xmlns="http://www.w3.org/2000/svg" viewBox="-614 11514 1285 835"><g class="s" data-r fill="#000" fill-rule="evenodd"><path class="chunk" data-i="0" d="M-316 11884l-1 -2l1 -4l1 -4l1 -1l2 1v2l-2 -1v1l1 2h-1h-1l1 2v2l-2 2zM-312 11872v-2l1 -2l1 -1l1 1l-1 2h1l-1 1l-2 1zM-276 11849v-1l-2 1v-1v-2h2l2 1v1l-2 1zM-269 11848v-1h-1v1h1zM-264 11849v-1h-1v1h1zM-262 11850v-1h-1v1h1zM-261 11851v-1h-1v1h1zM-247 11860v-1h-1v1h1zM-246 11861v-1h-1v1h1zM-259 11878v-1h-1v1h1zM-254 11883l2 1v2l2 1l10 -1l12 -3l4 -1l3 -2l-1 -2l-4 -4l-2 -1l-2 -2l-3 -1l-5 -1l-2 -1l-2 -2l-4 -2l-4 -3h-2v-2l-4 -1l-2 -3l-5 -1v-2h-1l-2 -2l-2 1v-1h-4h-1l3 -4h-6v-1l7 1h2v2h1v-1l4 1l3 2l-1 2l2 1v-1v-1l2 1v3l1 -1l1 -1v1l2 1l-1 2h1v1h2l2 1v-1h2l1 2v1l9 4l10 5l4 2l3 2l1 4l2 1l2 1l-1 2v2h-2l-5 4h-2l-13 3l-7 1v1l-2 -1v1l-2 -1h-2l-2 1v-1l-11 -1l-4 -1l-6 -2h-7l-4 1h-2l-3 1h-15l-2 -2l-4 -1l-2 -1v-2h-1l3 -3l2 1l5 2l2 1h11l12 -3h3l4 2l6 2l9 1v1h1l-1 -2l-4 -7l-2 -3l-2 -2l-1 -4h1l1 2l1 1l1 2l1 1v-1l2 1v2h-1l1 1l1 1v2l2 1v1l1 1v-1v-1zM-253 11886v-1h-1v1h1zM-252 11888v-1h-1v1h1zM-361 11893h-5l-6 -1l-2 -2l-2 -2l-13 -10l-3 -1l-1 -1l-3 -6l-1 -2l-2 -2l1 -8l2 -2l13 -16l2 -2h-1v-2v-3v-2h2v-2h2l4 -1l2 2l2 -1v1l2 -1l1 1h2l7 -1v1l2 -1l13 2l3 1l5 1l3 1l2 2l4 2l1 4l2 2v3v7l-1 4l-2 2v2l-5 4v2l-5 4h-1v2l-4 4v2l-3 3l-4 -1l-1 2l-3 4l-3 2l-3 2l-3 1zM-332 11853v-5l-1 -4h-2l-7 -4l-2 -1l-5 -1l-7 -1l-1 1l3 3l2 1l8 5l3 3l4 7l1 3l2 -2v-1l2 -4zM-361 11887l6 -3l1 -2l2 -4l1 -2h2l1 -2l2 -4l1 -2l1 -4h1l-1 -2l1 -2l-3 -2v-2l-6 -5l-2 -1l-16 -10l-2 -1l-3 -1l-4 1l-1 2l-1 3l-11 12l-2 2v3v5l2 4l4 5l3 1l9 7l6 3l2 1h7zM-88 11833l-2 -1l1 -2l-2 -2l-1 -1v-2l-1 -2l-1 -10l-4 -8l-2 -5l-2 -2l-4 -1h-1l1 -1l2 -1l2 1h2l-1 2h1h2l1 2l1 1l4 9l1 2l1 10v2l2 2v2l2 2v2h-2v1zM-98 11801v-1h-1v1h1zM-97 11802v-1h-1v1h1zM-108 11797h-13l1 -1l2 -1v1h2l-1 -2h1l2 2h6v1zM-131 11844h-9v-1l-2 1v-1l-2 1h-1l-7 -3v-1v-1l-2 1h-1l1 -4v-2l2 -4l1 -5l5 -21l4 -3h2l6 6h1l3 1l4 2l11 4l4 1l4 2l4 1l1 4l2 2v2v4v2l-1 2l-5 5l-6 1l-19 4zM-134 11841v-1h10l16 -3l4 -5v-1l2 -2v-2l-1 -2l-1 -3l-4 -3l-3 -1l-25 -8l-2 -1l-2 -3l-2 -2l-1 2v2l-7 23v4l1 3l1 1l14 2z"/><path class="chunk" data-i="1" d="M-230 11796l-2 -1v1h-12v-2h4v1l2 -2l11 1l-1 1h-2v1zM-196 11791h-2v-3l-5 -2l-3 -1l-11 -3h-5h-1l3 -3h1v1l1 1v-1l11 2l7 1l2 2l3 3l1 2l-2 1zM150 11740l-1 -2l-1 -3l1 -5l1 -2l8 -14v-2l2 -1l1 -1h2l-1 4l-5 14l-1 4l-1 2l-3 4l-2 2zM118 11742l-2 -2l-1 -3h-1l-2 -1l-3 -6l-5 -13l-2 -2v-1l2 -2l1 2l1 2l6 8l2 2l1 2l3 3l3 3v1v3v2l-1 1h-2v1zM-30 11785l-3 -1l-7 -2l-10 -3v-1l-2 1v-1h-2v-1l-2 1v-1h-2l-8 -3l-14 -4l-4 -1v-1l-2 1v-1l-2 1l-10 -1h-1l1 -2l-2 -1l-1 1h-2v-2l-17 -3v-1v-1l-1 1l-1 1v-1l-18 -2v-1l-2 1h-2v-2h-2v1l-2 -1l-2 -2l2 -3l2 1h2v-1l2 2h2v-1l2 1l8 1l2 1v-1l2 1l20 3l36 8h3l3 1v1l2 -1l2 2l2 1h2l2 1l2 1v-1l2 1l2 1v-1l2 2h2v-1l2 2l3 1l4 1l3 1l2 2v2l-1 2h1v1zM-143 11756v-1h-1v1h1zM-129 11758v-1h-1v1h1zM-130 11759v-1h-1v1h1zM-124 11759v-1h-1v1h1zM-122 11759v-1h-1v1h1zM-100 11761v-1h-1v1h1zM-84 11765v-1h-1v1h1zM-80 11766v-1h-1v1h1zM-95 11767v-1h-1v1h1zM-88 11768v-1h-1v1h1zM-74 11767v-1h-1v1h1zM-71 11768v-1h-1v1h1zM-68 11769l1 -1h-1l-1 1h1zM-66 11770v-1h-1v1h1zM-62 11771v-1h-1v1h1zM-48 11776v-1h-1v1h1zM-35 11782v-1h-1v1h1zM-182 11745l-2 -1l-15 -5l-6 -1l-9 -1l-2 1l-1 -2l1 -2l12 1l5 1l17 5v1l1 2l-1 1zM-180 11730l-2 1l-1 -1l1 -2h-2l-22 -9l-4 -2l-4 -3v-2l2 -1l2 2l6 3l24 8l2 1l2 1v2l-2 1l-2 1zM-170 11715l-7 -4l-30 -10l-5 -2h-2l-2 -3h4l30 10l5 2l6 2l2 1v3l-1 1z"/><path class="chunk" data-i="2" d="M-210 11760l-4 -1l-11 -5l-15 -4h-6v-1l-2 1v-1l-6 -1l-2 1v-1h-2v-2h-2l-1 2l-2 4l-5 4v-1l-2 1v-1h-2l-1 -1v-2l-2 -2l-1 -2l1 -3l3 -6l4 -7l2 -7l6 -11v-2l2 -1l1 1l-1 2l-8 19l-4 9v2l1 2v1l1 -1l1 -2l5 -6v-2l7 -8l3 -5v-2l1 -6l-3 -1l-2 -2v-4h2l2 -1l4 1v2h2l1 2l1 1v2l1 2l-4 9l1 2l2 1l8 5l2 1l2 2l4 1l3 2v2h3l2 2l11 9l1 5l-2 2zM-228 11747l1 -1l-7 -6l-4 -2v-2l-6 -4l-3 -2h-1l-2 2l-3 5h-2v1l-1 2h2l2 2l24 5zM-380 11719l1 -1h2l-3 3h-1v-1h1v-1zM-392 11710h1v-1h1v-1v-1l2 1l-2 3h-2v-1zM-396 11708v-1l2 -1h2l-2 2v1l-2 -1zM-384 11706l1 -2v-1h1v1h1l-1 2h-2zM-392 11706v-1h2l2 -2h1v2h-1l-2 1v1l-2 -1zM-387 11703v-1l1 -1h2v1h1v1h-1l-2 1l-1 -1zM-376 11699v-1h-1v1h1zM-377 11700v-1h-1v1h1zM-382 11703l2 -1v-1h2v-1h-2v-1h-1v-1l3 -1l2 -1l2 1v3l-2 2h-2l-2 2h-1l-1 -1zM-417 11741h1v-1h1v-2h1v1l1 -1v-2h1l2 1l1 -1v-2h1l1 1l-1 1v2h-2l-2 2h-2l-2 2h-1v-1z"/><path class="chunk" data-i="3" d="M-396 11729v-1h-1v1h1zM-394 11725l2 -1h1v1h-1l-1 1v2h-1v-1l-1 1l-1 2l-4 2l-2 2l-2 -1v1v1h-3v-3h1v1l1 -1l1 -1v1l1 -1l1 -1v-1l2 1v-2l2 -1h2l1 -2l1 1v-1zM-401 11716v-1h-1v1h1zM-414 11724h-2l2 -3h2l1 -2h1v-1h2l3 -2v-1l2 -1h2l2 -1l1 1v1l-6 3l-2 1l-2 2v-1h-1v2l-1 1l-2 -1l-1 2l-1 -1v1zM-414 11717l-2 -2v1h-1v-2h1l2 -1l1 1l-1 2v1zM-392 11711v1l-4 1v1l-2 -1h-1v-1h1l2 -1v1h1l1 -3h2v1h-1l1 1zM-196 11840h-3l-25 -8l-2 -1l-9 -5l-31 -13l-2 -1l-2 -2l-3 -1l-7 -3l-6 -3l-2 -1v-2v-5v-2l2 -2v-1l2 -2h1v-2h1l3 -2l1 -3l10 -13l8 -15l1 -2h1l1 1h-1v2h1l-1 2l-1 2l-2 2l-1 3v2l-4 5l-6 8l-2 4l-9 11l-1 3h-1l1 1l5 3l10 4l36 16l13 7l6 1l2 2h4l2 2l2 1l2 2l6 1l5 -11l5 -12l2 -4l2 -5l6 -15l6 -14l14 -30l6 -24l4 -8v-3l2 -2v-1l4 -7l-1 -4v-2h1l-2 -3l-3 -1l-39 -11l-2 -2l-4 -1h-2l-4 -1l-2 -2l-3 -1l-6 -2l-1 -1l-2 1v4l-3 4l-1 2l-3 4l-1 2l-2 2v2l-2 2v1l-3 5l-3 5l-4 7l-2 2l-1 3v2l-4 -1h-2v-2v-6v-2l1 -1h2v-1l3 -4v-2l2 -2l1 -1l11 -19l3 -4v-2l2 -3v-1l4 -5l6 -1l4 3l1 1l17 6l2 1l2 2l2 1h2l4 2l7 2l25 8h4l2 2h1l-1 13v2l-2 4l-1 3l-2 2l-2 4l-2 2l-1 2l-14 39l-4 9l-22 51l-5 13l-2 2l-2 4l-1 2h-2zM-356 11668l-11 -2l-5 -1l-2 -2l-4 -2l-1 -1v-2h-1v-1l3 1l3 1l5 3l2 1h10l3 1v2l-2 2zM-361 11645l-5 1l-1 -2v-2l1 -1h2l5 -2h3l1 -1l-2 -2v-2l-2 -5l-1 -3v-1l3 3l1 2l-1 2h1h1l-1 2h2l1 2l1 1v2l-1 1l-3 3l-1 1h-2l-2 1zM-358 11628v-1h-1v1h1zM-329 11620h-6l-5 -3l-4 -3v-2l2 1h2l2 2l4 2h5h3l1 1l-1 2h-3zM-361 11618h-15l-4 -3l-3 -3l-1 -2l-1 -2l1 -1h2v1l4 5h2l2 2l14 -1v-1l2 1l2 2l-2 2h-3z"/><path class="chunk" data-i="4" d="M-332 11602l-4 3h-2l-1 -1l2 -2h-1l1 -6l1 -1v1h2l2 2v4zM-371 11601h-2v-7l3 -2h2l2 -1l1 1l1 4v2l-2 1l-5 2zM-368 11596v-1h-1v1h1zM-405 11565l1 -3l5 -5v1h1v1l-2 1h-1l1 1l-2 2l-1 1h-1v1h-1zM-432 11605v-1v-1l4 -7l5 -11l11 -21l1 -2h-1l-3 2l-1 2l-5 8l-1 2l-2 2l-1 2l-5 11l-1 2l-1 6l-1 5l1 1zM-388 11557v-1h-1v1h1zM-410 11565v-1h-1v1h1zM-403 11566h1v-1l4 -4l4 -2l4 -3l2 -1v-1v-1l2 1l-1 2h1v1l-4 1l-1 1l-1 -1v1l-1 1h-1v1h1l-1 2h-2l-10 14l-2 4l-4 10v4l-2 12l-2 5v2h1l-1 2h1l1 13v4l2 3l2 9l1 3l3 6l4 5h2v1l8 8h1l9 6l7 2l3 1h15l6 -1l4 -1h2l3 -1l2 -3h2l2 -2l2 -1l4 -2l6 -6v-1h2l4 -5v-1l5 -7l1 -2l2 -5l4 -10v-5l1 -2h-1l1 -2l-1 -9l-2 -8v-2l-4 -11l-2 -7l-1 -3l-3 -2v-2l-3 -4l-5 -5l-2 -4l-6 -4l-3 -1l-20 -10l-3 -1l-7 -1l-9 -1v1v1l-2 -1h-2l-14 5l-5 3h-1l-6 6l-8 14l-1 2l-2 2v2l-2 2l1 1l2 -3l1 -2l7 -10l1 -3h2v1h1l-1 2l1 1l1 -1v-2zM-406 11569v-1h-1v1h1zM-413 11570v-1h-1v1h1zM-405 11570v-1h-1v1h1zM-406 11571v-1h-2v1h2zM-407 11573v-1h-1v1h1zM-408 11574v-1h-2v1h2zM-409 11576v-1h-1v1h1zM-410 11578v-1h-1v1h1zM-411 11580v-2h-1v1l1 1zM-428 11610l2 -1h1l1 -3l2 -3l2 -3l2 -1h1l1 -6l4 -11v-2l-2 2l-1 2l-9 12v2l-4 10v2zM-419 11585v-1h-1v1h1zM-416 11649v-3l-3 -16v-22l-1 -1v1v1h-2l-4 9l-2 5l-1 3h2l1 -1l2 1l-1 2l-1 3l1 6l1 2v2l1 1l-1 2h-2l-1 -2l-1 -3l-1 -9h-4v-2h-1v2l-2 3v4h2l1 1v4h1l3 2v4l13 1zM-432 11625v-1v-2l2 -5l1 -1l-1 -1l-1 1v2l-1 3l-1 3l1 1zM-433 11627v-1l-1 -1v1l1 1zM-429 11627v-1h-1v1h1zM-415 11651v-1h-1v1h1zM-413 11655v-1h-1v1h1zM-405 11682v-1h-1v1h1zM-404 11683v-1h-1v1h1zM-398 11690v-1h-1v1h1zM-408 11691l1 -1h-1l-1 1h1zM-399 11691v-1h-1v1h1zM-391 11689v-1h-1v1h1zM-304 11699l2 -1l-1 -2l-1 -2h-2l-7 -3l-5 -1v2l-2 2v2h3l3 -1v1l2 -1v1l2 -1h4l2 1v2v1zM-398 11700l1 -1h-1l-1 1h1zM-401 11701v-1h-1v1h1zM-399 11701v-1h-1v1h1zM-400 11702v-1h-1v1h1zM-401 11703v-1h-1v1h1zM-397 11722v-1h-1v1h1zM-420 11726v-1h-2v1h2zM-406 11726v-1h-1v1h1zM-408 11727v-1h-1v1h1zM-424 11728v-1h-1v1h1zM-418 11728v-1h-2v1h2zM-420 11729v-1h-1v1h1zM-414 11729v-1h-1v1h1zM-409 11729v-1h-1v1h1zM-425 11730v-1h-1v1h1zM-421 11730v-1h-1v1h1zM-416 11730v-1h-1v1h1zM-423 11731v-1h-1v1h1zM-428 11731h2v-1h-2v-2h-2v2h-1l1 1h1l1 1v-1zM-429 11733v-1h-1v1h1zM-429 11735v-1h-1v1h1zM-422 11735v-1h-2l-1 1h3zM-427 11736v-1h-1v1h1zM-393 11696v-1h-1v1h1zM-376 11717v-1l-1 -1v1l1 1zM-387 11717v-1h-1v1h1zM-379 11717v-1h-1v1h1zM-389 11718v-1h-1v1h1zM-391 11719v-1h-1v1h1zM-385 11720v-1h-1v1h1zM-388 11722l1 -2h-1l-1 1l1 1zM-388 11754l1 -1h-1l-1 1h1zM-320 11697v-1h-1v1h1zM-284 11733l2 -5l3 -6l5 -12v-4l-5 -2l-4 -1l-5 -2h-2v2h4l1 1v4l-2 2v2h1l-1 2l-1 2h-3l-3 2h-2v1h8l1 1v2h1v-1l2 1l2 2h-1v2h-6l-4 2h-4v-2h-5l-1 1h1l1 1h2l11 4l4 1zM-323 11717v-3l1 -6l-2 1v-1l1 -2l-1 -2h-1l-3 6l-1 2l-1 2l2 2l5 1zM-321 11706v-1h-1v1h1zM-318 11707v-1h-2v1h2zM-320 11708v-1h-2v1h2zM-312 11720l2 -2h-1v-3h-1l-2 -2l-1 1l-1 3v1l2 2h2zM-296 11720v-1h-2v1h2zM-331 11770v-2l2 -2l1 -2l2 -6l1 -2h-1l1 -2l2 -4l2 -5l1 -3h1l-1 -2v-2l2 -2l1 -4l1 -2h2v-1l-2 -1h-2l-2 -1l-2 5v2l-2 2v2l-14 27l-2 5l-4 9l-4 5l-2 5l-1 1l-2 2l3 4l4 2l2 1v-1v-1l1 -2l1 -3l2 -2v-2l2 -3v-3l2 -2l1 -3v-1l2 -2v-2l2 -2zM-420 11758v-1h-1v1h1zM-430 11762h1l-1 -2h-1v2h1zM-428 11761v-1h-1v1h1zM-426 11761v-1h-1v1h1zM-431 11763v-1h-1v1h1zM-426 11763v-1h-1v1h1zM-444 11764v-1h-1v1h1zM-442 11765l1 -1h-1l-1 1h1zM-433 11765v-1h-1v1h1zM-399 11766v-1h-1v1h1zM-402 11768v-1h-1v1h1zM-401 11769v-1h-1v1h1zM-403 11771v-1h-1v1h1zM-409 11773v-1h-1v1h1zM-406 11773v-1h-1v1h1zM-410 11774v-1h-1v1h1zM-409 11775v-1h-1v1h1zM-413 11776v-1h-1v1h1zM-410 11776v-1h-1v1h1zM-412 11777v-1h-1v1h1zM-418 11780v-1h-1v1h1zM-421 11782v-1h-1v1h1zM-422 11783v-1h-1v1h1zM-402 11783v-1h-1v1h1zM-423 11784v-1h-1v1h1zM-409 11785v-1h-1v1h1zM-426 11786v-1h-1v1h1zM-415 11787v-1h-1v1h1zM-417 11790v-1h-1v1h1zM-424 11792l1 -1h-1l-1 1h1zM-428 11793v-1h-1v1h1zM-341 11757v-1h-1v1h1zM-390 11761v-1h-1v1h1zM-395 11763v-1h-1v1h1zM-396 11767h-1v1l-1 1v-1l-2 2l-4 2l-4 3l-2 1l-2 1v2h-2l-2 2v-1h-1v2l-1 1h-2l-2 2l-6 3v2h2v-1l2 1l2 -1l2 -2l2 1v-2l2 -1l2 1v-2l9 -2l4 -1v-2l2 1h1l2 -2l2 1v-1h4v-1l2 1h2l3 -2h2l1 1l2 -1v1h4l1 5h-1l1 2l-1 1h-2l-3 3v2l-1 1l-5 3h-1h-1l1 1l6 -1l4 1h2l1 1v2l-1 1h-2v1l-2 -1v1h-6l-10 2l-8 1l-1 -1v-4l1 -1l2 -1l14 -10l2 -2h-6l-17 4l-18 6h-5h-2l-2 -2v-2l3 -4v-1l6 -3l2 -1v-2l5 -3h2l1 -2v-1h3l2 -2l2 -2h2v1l1 -1l1 -1h-1l1 -2l2 -1l10 -6v-2h2l1 -1v-2h-5l-44 13h-6h-2l-2 -1v-2v-1l-2 1v2l-4 8l-2 5l-3 5v2l3 2l2 2h4l5 2l4 2l3 1l2 2v-1l2 2h4l2 2h1l3 2l18 4l16 2v1l2 -1v1l2 -1l3 1v1l1 2h-1v2l-3 2h-2l-8 -2l-6 -1v-1l-2 1v-1h-5l-15 -5l-5 -1l-10 -4l-11 -4h-2l-2 -2h-4l-2 -2l-4 -1l-2 -5l-2 -2v-2l2 -2v-1l4 -7l2 -2l1 -3l3 -6l12 -21l2 -2l1 -3l3 -8l1 -1l2 -2l1 -3l4 -9l3 -6l2 -2v-2l2 -2l1 -4l2 -2v-2l8 -14l6 -7l1 -3l1 -1h2v-1h-2l-4 -6l-4 -4h-2l-2 2l-3 -1h-1l-4 -3v2h1l-3 3h-1l-3 -2h-2v-1l-2 1v-1h-2l-2 -2v-3h-9h-1l-3 -3v-3h-1l-2 -1l1 -5l1 -3l4 -4l4 -4v-1l1 -2l3 -12l3 -19l2 -5l11 -21h2l11 -16l1 -1l4 -2l8 -6l2 -1v-2h1v2h2l3 -2l17 -4h1l2 1v-1l2 1l6 1l5 1l2 1l14 6l1 1l2 2h2l2 2l2 1l6 4l2 1l2 1l2 4l10 14l1 2l2 2h-1l2 2l-1 2h1v2l2 3v4l2 3v2h1l-1 2h1l1 8v15v5l-4 11l-2 5l-2 6l-4 6l-16 15l-2 1l-8 6l-6 2l-6 2v3v15l4 33l2 4v3l1 2h-1l1 2l1 3v3l1 2v1l1 -1l10 -17l5 -7l2 -2v-2h1v-1h-2l-3 -1l-3 -1l-2 -2l-4 -2v-2v-7v-2l6 -8l8 -15v-1l2 -2h6l2 2l3 1l4 1l3 1l2 2l6 1l6 5l2 1l10 2l6 3l2 1v2v7v3l-2 2l-2 6l-6 13v1l-2 3l-4 1v1l-2 -1v1l-2 -1l-2 -1l-11 -4l-4 -1l-3 -1v-1h-1l-1 4l-2 2v2l-3 4v2l-2 2l-1 3l-1 5l-10 21l-9 24l-2 2v2h-2h-4l-2 -1l-2 -1l-4 -3l-4 -2l-1 -2l-1 -2v-2l10 -17l8 -15v-2l-2 1h-2l-2 -1l-5 -73h-4l-9 2l-2 -1v1l-2 -1l-2 1v-1h-3l-10 -4l-4 -2l-6 -4l-1 -1l-6 -5l-1 4l-1 4l-1 2l1 1v-1l8 -1l3 3v2h1l2 -2l2 1h2v1l2 -1v1v1l-2 4l-2 3l-2 2h-1v2l-1 1h-2v2h-2v1l-2 2h-1v2l-1 1l-4 2l-1 -1l3 -2l-1 -2v-3l5 -2v-3h2l2 -2h2l1 -2l-3 -2v2l-2 -1l-1 1h1v1l-3 1l-5 2v1l-1 -1l-1 -1v1h-2l-1 -2v-1l-1 1l-1 2l-3 5l-9 17l-1 3l-1 2h-1l-1 1v2h-1v1h1v1h1v1l1 -1h1v-1l2 -1l3 -1l-1 1v1l4 -1v1l-1 1h-1v1h1l1 1l2 -2l3 -1l6 -2l3 -1l2 -2h2l2 -2h1l5 -2l11 -6h3l4 -1l2 1v2l-6 6h-1l-2 -1v1h-1v1l-2 -1v2l-2 1v-1l-2 2h1v1l-2 1l-3 1v-1h-1l1 -2v-1l-2 2h-2v2h-1l-2 -1l-6 3l-3 1l-2 2h-1l-4 2l-11 4l-4 1l-3 -3v-2h-1l-1 2l-1 2l-4 8l-8 14l-1 2h1l4 -4h2l4 -4h2l2 -2h1l1 1v-1h1v-1l1 -3h3v-2h1v1l2 -1v1l1 -1l-1 -2h2l2 -2h1v1l-1 1h1l-3 4l-2 1l-7 5l-11 6l-1 2l-3 1v1v1l2 -1h2v-1l1 1l1 2l4 -1l1 -1h-1l2 -2l6 -2l2 2h1v-2h-1v-1l3 -1h2l28 -8l11 -1l2 3l-1 4l-5 4h-1v2l-1 1h-2l-2 2h-2v1h1l-1 1h-2l-1 2l-1 -1v1zM-387 11796v-1h-1v1h1zM249 12075v-1h1v-1h1v1h1v2h-2v-1h-1zM247 12069v-1l3 -2v2h-1v1h-2zM251 12065v-1l3 -3h2v1h-1v1h-1v1h-1v1h-2zM257 12066h1v-1h1l1 1v-1l1 -1h1v-1l1 -1h1v-1l1 -1h1v2l-6 6h-2l-1 -2zM257 12062l-1 -1v-1l2 -1v1h1v1h-1v1h-1z"/><path class="chunk" data-i="5" d="M266 12059l1 -1h1v2v1l-2 -1v-1zM259 12060l-1 -1v-1l4 -3v1h1v1h-1v1h-1v1h-1v1h-1zM253 12014l-1 2l-2 1l-3 1l-1 -1l-1 -1l1 -1l2 1l1 -2l1 -1v1l1 -1h1v1h1zM268 12014h-1v-3h1v1h1v1h-1v1zM265 12013h-1v-1l2 -2h1v1h-1l-1 1v1zM275 12010h1v-1h1l1 1v1h-2v2h-2v-1h1v-2zM257 12006v-2h1v1h1v1h-2zM276 12001l1 -1l-1 -1l-1 1l1 1zM278 12002v-1h-1v1h1zM269 12003v-1h-1v1h1zM279 12004v-1h-1v1h1zM264 12005v-1h-1v1h1zM272 12005v-1h-1v1h1zM277 12006v-1h-1v1h1zM272 12007v-1h-1v1h1zM271 12008v-1h-1v1h1zM260 12009v-1h-1v1h1zM270 12010v-1h-1v1h1zM255 12011v-1h-1v1h1zM257 12011v-1h-1v1h1zM252 12013v-1h-1v-1l2 -1h1v-1h2l1 -1v-1h1l1 -1h1v-1l1 -1l3 -1l1 -1h-1v-1l4 1l-1 -2h1h1l3 2h2l-2 -2v-2l2 1v-1h2l4 4l1 2l-1 1h-2v1h2v2h-1l-2 -1v1h-1v-1l-1 1h-1l-2 2h-1v1h-1v1h-1l-1 -1v-1h-1l1 -2h1l-1 -1l2 -1v-2l-2 1l-3 1v1h-1l-2 2l-4 2l-2 2h-2v-1h-1v1h-1zM259 11984h-1h-1l3 -3v1v1l-1 1z"/><path class="chunk" data-i="6" d="M265 11980v-2h-1l2 -2h1l-1 2h1v2h2l-1 2l-2 -1v-1h-1zM273 11976v-2h-1v1l1 1zM274 11977h-1v2l-2 1h-2l1 -2h-2l1 -2l-1 -1l-1 1l1 -2v-2h2h1l-1 2v1l2 -2h2v1h1v1h-1v1v1zM246 11961l1 -1h1v2l-2 1v-1v-1zM262 11941v-1h-1v1h1zM264 11941l-2 2v-1h-2v-2l2 -1l2 1h-1l1 1zM284 11925h-2v-1l-2 1v-1v-1h2l2 1v1zM259 11916h-2l2 -2v-1h1l1 1h-1v1l-1 1zM255 11916h-1v1l-2 -1l4 -4h1l-2 2v2zM270 11900h-2v-2l2 -2h2l-1 2l-1 2zM274 11894v-2h2l1 -2l1 -2l2 1h1v1l-1 1v-1l-2 2l-2 2h-2z"/><path class="chunk" data-i="7" d="M289 11828h-7l-4 -1v-2h-2l-1 -3l-1 -4v-10l1 -4l1 -4l1 -2l3 -4l8 1l4 5l1 3v1l2 2l2 10l-1 8l-2 3l-5 1zM287 11813v-1h-1v1h1zM309 11762l-7 1l-2 -1v-2v-4v-2l2 -2h10l-1 8v2h-2zM276 11753l-2 -1l-2 -1v-1l-1 -2h1l1 -4l1 -2h2v-2h2l4 4v2v2v2l-2 1l-2 1l-2 1zM213 12056l-1 -1v-1l2 -1l3 -2v1l-2 2v1h-1v1h-1zM244 12050v-1h-1v1h1zM241 12052v-1h-1v1h1zM244 12053l2 -1l-2 -2l-2 2v1h2zM237 12054v-1h-1v1h1zM242 12057l1 -1l-1 -2v-1h-3v1l-1 2h2v-1l2 2zM226 12054h1l-1 -1v-1h-1v1l-1 1h1l1 1v-1zM235 12055v-1h-1v1h1zM227 12057v-1l-1 -1v1l1 1zM233 12056v-1h-1v1h1zM225 12057v-1h-1v1h1zM236 12057l1 -1h-1l-1 1h1zM213 12058v-1h-1v1h1zM222 12057l2 -1v-1h-3v1h-1v1h1l1 1v-1zM228 12061l2 -1l4 -1v1l2 -2l-2 -1h-3v1l-1 1v-1l-2 1l-1 1l1 1zM240 12058v-1h-1v1h1zM214 12059v-1h-1v1h1zM219 12059v-1h-1v1h1zM212 12063v-3l-1 -1v3l1 1zM220 12060v-1h-1v1h1zM227 12061v-1h-1v1h1zM233 12061v-1h-1v1h1zM224 12064l-2 -3l-2 1h-2v1l4 1h2zM226 12062v-1h-2v1h2zM230 12062l1 -1h-1l-1 1h1zM228 12063v-1h-2v1h2zM213 12064v-1h-1v1h1zM212 12065v-1h-1v1h1zM218 12065v-1h-2v1h2zM261 12042v-1h-1v1h1zM266 12044h1l-1 -2l-2 1h-2v1h4zM261 12045v-1l-1 -1v1h-2v1h3zM269 12044v-1h-1v1h1zM252 12045l1 -1h-1l-1 1h1zM272 12045v-1h-1v1h1zM258 12046v-1h-2l-1 1h3zM265 12046v-1h-1v1h1zM252 12048h1l-1 -2h-1v2h1zM254 12047l1 -1h-1l-1 1h1zM247 12048v-1h-1v1h1zM267 12048v-1h-1v1h1zM246 12049v-1h-1v1h1zM248 12050h2l1 -2h-1l-2 1l-2 1v1l2 -1zM251 12051v-1h-1v1h1zM269 12051v-1h-1v1h1zM270 12053l1 -1l-1 -1l-1 1l1 1zM248 12053v-1h-1v1h1zM247 12054v-1h-1v1h1zM269 12054v-1h-1v1h1zM245 12055v-1h-1v1h1zM269 12056v-1h-1v1h1zM267 12057v-1l-1 -1v-1h1l-1 -1v-1h-1v1h-1v1h-1v-2l2 -2h1l-1 -1v-1l-4 1l-1 -1v1l-2 1v-1l-2 1h-1l-7 4l-2 1v1v1l-2 -1v1l-4 1v2l-8 2l-2 2l-4 1v-1l-2 2h-4l-2 1v-1l-2 1v-1v-1l-2 1h-2l-3 -2l1 -5v-2l2 -2v1h1l1 1v-1h1l1 1v-1l2 -1v1h1v-2h2v-2l1 1l2 -2h2v1h1l1 -2v2v1h1l-1 1v2h2l2 -2l2 -1l8 -3v-2h2l11 -6l3 -1l5 -1h9l4 4v4h1l-2 2v2l-3 2l1 2h-1h-1l-3 2v-1h-1zM228 12050v-1h-2v-1h4l-1 2h-1zM210 12045l-1 -1l1 -1l2 -1l5 -4h1h1l-1 2l-4 2l-4 3zM245 12020l-1 2l-3 1v-1h-1h-1v-1h1l2 -1v1l1 -1l1 -1v1h1zM238 11969v-1l2 -2h1l-1 2h-1v1h-1z"/><path class="chunk" data-i="8" d="M246 11961h-1v-2h-1h-1l1 -1h2l2 -1v1v1l-1 1h-1v1zM236 11946v-1h-1v-1l1 -1v1h1v2h-1zM239 11941h-1v-2l1 -1v-2h-1v-1l3 1l-1 2v2h-1v1zM240 11932h4v1h-2v1h1l-2 2v-2l-1 -2zM182 11766l-4 -1l-1 -1v-4l2 -2l1 -2l2 -3l6 -8l1 -3l7 -6h2v2l-2 3l-8 13l-1 2l-2 2l-1 2v2l1 2l-1 1h-2v1zM180 11797l-7 -2l-4 -1l-5 -1l-2 -2l-9 -3l-10 -4l-2 -1l-5 -1l-4 -1v-1h-1l-1 35l6 1l4 2l3 2l2 5l3 9l1 2l1 1v-1h2l2 -1l6 -2h6h2l1 1l1 4l2 2l2 2h1l1 -2v-2l-1 -2l3 -32l2 -7zM180 11857v-2v-1l-2 -2l-2 1v-1h-3v-2l-1 -1l-2 1h-2l-1 -1h3v-2h-6l-2 -1l1 -5v-2l-3 1l-4 1l-4 2l-5 5l-1 2l-4 -1v-2l-1 -13l-1 -6l-1 -2l-1 -2h-2l-2 -2l-3 1h-2v3l1 1h2v-1l2 2h-1v2h-1v-2l-2 1h-2l-2 3v1l-1 2l-1 3h-1l1 2l1 10l1 6l1 4l1 2l3 6h1l-1 2l1 1l2 1h2l9 4h1l2 1v-1l2 1l1 -1v-2l-3 -2v-1h2v-1l2 2l12 -2l8 -2l6 -6v-1l2 -4zM239 11890h1l1 -1h-3v1l-2 -1l-1 1l1 1l3 -1zM244 11890v-1h-1v1h1zM245 11908l1 -1l2 -6l1 -3h-1l1 -2l1 -2v-2l1 -2l-1 -1l-2 2v-1h-1v2l-7 1h-16l-3 3l-1 2h1v19l8 2l6 1l3 1l1 -1l3 -5v-2l1 -3l2 -2zM226 11937l2 -1l1 -5h2v-1l2 -2l-1 -1l-5 -1l-4 -1l1 11l2 1zM240 11930v-1h-1v1h1zM235 11931v-1h-1v1h1zM234 11933v-1h-1v1h1zM230 11938l3 -2v-2l-1 -1v1l-1 2l-1 2zM226 11939v-1l-1 -1v1l1 1zM228 11946l1 -4l2 -2l-1 -2h-1l-1 2l-2 4v2h2zM232 11949v-1l-1 -1v1l1 1zM217 11968l1 -2l2 -3v-3l2 -2v-1l2 -2v-1l1 -2h-1h-2l-1 2l-7 14l-1 2h1v1h-2v3l2 1l2 -3v-3l1 -1zM212 11976v-1h-1v1h1zM210 11981l2 -1l1 -4h-1v1h-2v3v1zM219 11979v-1h-1v1h1zM210 11984v-2h-1v1l1 1zM209 11986v-1h-1v1h1zM199 12053v-1h-1v1h1zM198 12055v-1h-1v1h1zM244 12075v-1h-1v1h1zM244 12077v-1h-2v1h2zM242 12079v-1l-1 -1v1l1 1zM198 12086h1l-1 -4l-2 -1v1v3l2 1zM243 12082v-1h-1v1h1zM321 11848v-2h1v1h2l13 -4l5 -3h2l2 -2h2l4 -5l8 -5l8 -8l1 -2l3 -6l3 -6l3 -6v-4l1 -42l-1 -2l-2 -3v-2l-1 -3l-3 -2v-3h-2l-2 -3l-3 -6v-2l-1 -1h-2l-2 -5l-1 -2l-4 -1l-8 -11l-3 -3l-2 -4v-1l-1 -2h1v-1l-4 -1h-2l-1 -2l-1 -4l-2 -2l-5 -2l-2 -1l-3 -1l-2 -2h-12l-10 2l-5 2l-7 4l-2 2v2h-2l-2 2v2l-2 1l-4 1l-1 -2l1 -1l2 -5h1l-1 -1h-1l-3 1l-6 2l-2 2h1v2h-1l-2 -2l-2 4l-3 4l-4 6l-2 2l-1 3l-2 5l-2 11l-2 13h1l-1 2l1 27l1 6l2 8l1 3l15 30l8 10l6 5l2 2l3 1l7 3h2l2 2l2 1l6 2l9 2h8h2zM342 11670v-4h-3l-13 2l-1 1l17 1zM362 11684l1 -1h-1l-1 1h1zM390 11708h1l-2 -4l-9 -10l-3 -2l-4 -2l-3 -2l-4 -3l-3 -1v2l4 4v2h1l-1 2l3 3l6 2l2 1l4 2l5 3l3 3zM360 11705v-1h-2l-2 -2v2l2 1h2zM361 11706v-1h-1v1h1zM362 11707v-1h-1v1h1zM364 11709v-1v-1h-2v1l2 1zM365 11710v-1h-1v1h1zM371 11715v-1h-1v1h1zM374 11723v-1l-6 -5v1l2 4l2 1h2zM400 11712l1 -1h-1l-1 1h1zM394 11724l-1 -8l-3 -2l-2 -1l-2 -1l1 4l5 6l2 2zM396 11741v-5l-2 2h1v2l1 1zM397 11743v-1h-1v1h1zM277 11863v-1h-1v1h1zM264 11882l1 -2l1 -2l4 -4l6 -9v-1v-1l-2 1l-2 -1l-1 1l-5 9l-2 7v2zM258 11898v-1h-1v1h1zM257 11899v-1h-1v1h1zM253 11901v-1h-1v1h1zM287 11926l15 1v-1l2 1v-1h10v1l2 -1v1l35 -7l10 -4l2 -1l-1 -4l-4 -13v-2l-2 -2h-1l-12 -7l-3 -1l-6 -2l-10 -2l-1 -2l1 -3h4h8l7 2l2 1l7 3l2 1v-2l-2 -4l-2 -5l-2 -5l-1 -4l-2 -2l-1 -3l-2 -4l-2 -5v-4h-2v2l-4 3l-2 1l-2 1v-1l-2 1l-5 1l-5 1l-8 1l-6 -2l-17 -6h-2l-1 -1v1v3v3h-1l1 2h-1l-1 4h-1l1 2h-2l-1 2l-1 4l-2 2l-1 2l-4 4l1 2h-2l-1 3l-1 2v1l-1 2h1v2h-1l-1 -1v1h-1l1 1v1l-2 1v-1h-1v1h-1v-3h-2v2l-2 2v2l2 -2h1l1 1l-1 3h-2l-1 4l-5 4l-2 -1v2h1l-2 3v1h-2v1h1l-4 4l-1 2l-1 4l-1 3l6 1l2 -1v1h2h4l4 1l7 1l17 1v-1l2 -2h1v1l-1 1h1zM286 11927v-1h-1v1h1zM375 11918l13 -6l2 -1v-1h-2l-3 -2l-4 -1l-11 -5h-2v-1l-1 1l1 4l3 12h4zM335 11930v-1h-1v1h1zM375 11956v-2l-1 -1v3h1zM246 12073v-1h-1v1h1zM245 12076v-1h-1v1h1zM249 12077v-1h-1v1h1zM247 12082v-1h-1v1h1zM260 12082l1 -1h-1l-1 1h1zM245 12083v-1h-1v1h1zM249 12084v-1h-1v1h1zM252 12085v-1h-1v1h1zM256 12085l1 -1h-3l-1 1h3zM259 12085v-1h-1v1h1zM260 12085h-1h-9l-3 -1h-3l-4 -4v-4l2 -2l5 -5v2l-1 1h1l1 1v-1h1v-1h1v-1h1v-1h1v-1h1v-1h1v-1h1v-1h1v-1h1v-1h1v-1h1v-1h1v-1h1v-1h1v-1h1v-1h1v-1h1v-1h1v1v1h1v1h-1v1h-1l-1 -1v1l-1 1h-1v1l-1 1h-1v1l-1 1h-1v1l-1 1l-4 4l-1 2h2l-2 2v-1h-1l-1 -1v1l-1 1h-1v1h1v1h1v2h7l-1 1h-6v1v1l2 -1h5v2h1v-2h2l-1 -2l1 -1v1h3l-1 1h-1l1 1h1v2l11 1l5 1l7 1v1h-1v3l21 -1l2 2v2l-5 1l-38 4l-7 -1l-2 -2h-2v1l-2 -1v1l-40 1l-2 1v-1h-6l-2 -1v1l-2 -1l-8 -5l-2 -1l-2 -1v-2h1l-1 -2h1l1 -10l-1 -2h1v-3v-13h-1l2 -2l-1 -1h-1l1 -1l2 -2v-2h-2l2 -2h1l1 -4l-1 -2l2 -2l1 -3l5 -15v-2h-1l-2 -2v-1h-2v-1h1l1 -3l4 -9l6 -28h1l-1 -2h1l1 -2l2 -4v-2h-1l1 -1h1l1 -2l4 -7v-2h1l-1 -2v-3v-6l-2 -18l-19 -3l-5 -1l-2 -2l-3 -1h-2l-1 -1l-2 -2l-3 -1l-8 -4l-9 -7l-6 -4l-2 -1l-9 -8l-1 -4l-2 -1l-1 -1l-7 -2l-2 -2l-6 -4l-7 -6v-28l-1 -5l2 -7v-3l3 -7l2 -8l-1 -4v-2h1l-1 -2v-24l-2 -2v-4l2 -1h1h4l10 3l4 2l5 2h2l2 1l2 2l2 1l7 2l19 6h4l3 4l-1 2h1l-1 5l-2 13l-3 29l-1 5l-1 2h1v2l1 2v4v2l-2 2v2l-2 2l-2 4l-5 5l-2 1h-2l-3 1l-6 1v4l-1 1l-4 1v2l4 4l2 1l16 11l6 3l3 1l3 -1l2 2h2v1h-1l1 1h1v2l4 1l3 1l2 -1v2l9 2h4l-1 -20h-1l1 -2v-3h-2l-1 -1v-4l1 -1l24 -1l2 -1v1l2 -1l12 -1h3l5 -9l8 -11l2 -2v-2l2 -2v-1l4 -7l1 -2h2v-2h-2l-7 -4l-5 -6l-2 -4l-3 -3h-2l-4 -6v-2l-1 -1l-2 -2v-2l-2 -2v-2l-2 -2l-1 -4l-2 -2l-1 -2l-5 -15l-1 -8v-41l1 -5l2 -11l4 -9l6 -11l6 -8l4 -2h1l-1 -1l-4 1l-6 1l-2 -3v-2l2 -3l8 -1h1l-2 -2v-2l-3 -2l1 -6h1l2 -1v1l2 -1h2l2 3h2v-1l2 1h6l-1 -2v-4l3 -2l6 -1l2 1v-1l16 1l2 2l10 -1v2l7 -1l7 -2l14 -4l5 -2v-2l1 -2h6l1 2v1l1 3l-1 2l-2 2l1 2h-1l1 1h2l2 2h2v1h-1v4l1 1l3 1l9 3l4 1l5 3l5 3l4 2l4 4l4 5h2l4 5l9 12l2 2l1 2l2 2l-1 5h-2h-3h-2v-1l-2 -2h-1l-2 -2h-1l-2 -1v1l3 17h1l1 1h-1l2 30h2l1 4l-1 2h-2v2l-5 -1h-2l-1 -4v-3l-1 -2l-1 -1l-2 2h-4l-2 -2l-2 -2l-1 1v4l1 2h-1l1 2l-3 28l-1 4l-4 9l-6 11l-6 6l-6 4l-2 2h-4l-2 3l-2 1l-6 2l-2 1l-1 1v3h2l1 3l1 3l12 17l1 3l1 2l3 11l2 3v1l2 2l5 3l8 3l4 2l19 5v5l-4 4h-2l-2 2h-2l-2 2h-1l-15 6v2l1 2l7 26l-1 3v1l-1 2h-2l-2 -2h-1l7 58h1l-1 2h1l3 13v9h1l-1 2h1l1 7l1 7l1 2h-1l1 2l2 6v2v3v1l-2 3l-4 1l-2 2v-1l-2 1h-4v1l-2 -1v1l-88 8l-1 -1l1 -5l7 -1l45 -2l26 -4l18 -3l1 -1l-7 -45l-10 -73v-17h2v-4l-2 -5h-2l-4 2l-3 1h-1l-2 1v-1l-2 1l-10 1l-2 2h-1l-3 -1l-2 1l-2 -1v-2h-4l-21 4h-35l-2 -1v1v2h-1v-2l-1 -1l-18 -2v1l-2 -1v1l-2 -1v1v1l-1 -1v-2h-1l-2 1l-2 -2h-1l-1 3l-2 -1v1v1l-1 2l-1 3l-1 2h-1l1 2l-2 2l-1 2v1l2 -2h1v1h1l-2 2v1h-1v3h-1l-2 -1v1v1h2v1h-4l-6 18l-1 2l-2 2v2h1h1l-1 2h-2l-2 2v2l2 2l-1 3v2l-4 12v2l-6 17v2l-1 3l-1 1h1l-2 2l-2 7l-1 3v2h1l-1 2v1l-2 3v2h1l-1 2h1h1v2h-1l-3 2l-1 16v4l2 -1h2l2 1l1 4l5 4l4 3l46 2v-1l2 1v-1l6 -1l2 -1l-2 -2l-2 1v-1l-3 1l-1 -1v1zM271 12086v-1h-1v1h1zM279 12089h5v-1l-2 -2l-10 -1v1h2v1h-4v3l9 -1zM284 12087v-1h-1v1h1zM516 12283h-4v-2h-3l1 -1h3l4 2h-1v1zM646 12295l-2 -1l-5 -2l-19 -7l-8 -3l-2 -1l-2 -2l-3 -1l-13 -6l-6 -2l-38 -15h-2l-5 25l-1 1h-2l-4 1l-8 -4h-2l-2 -2h-4l-8 -4l-8 -2h-3v2h-2l-3 1l-2 -1v-2l-2 -2h-2l-13 -5l-5 -1l-2 -1v1h-2l1 -2h-1l-10 -2l-2 1l-2 -2v1l-1 2l-1 2h-2l-3 -2l-2 -4l-3 -4h1v-2h1v-1l-24 -4l-1 1h1l-2 3l-16 -3l-5 -4l1 -11v-4l5 -14v-2l-11 -2l-2 -1l-7 -3l-8 -3l-14 -5l-2 -1h-1h-1l1 2h-2l-14 -4h-4l-2 -1v1l-2 -1l-1 1l1 2l4 46l2 11l1 5l2 2v4l-2 2l2 2v3h2v3h-3l-2 2v1l-9 11h-2v2l-5 4l-8 8l-2 2l-2 4l-8 12l-2 2v2h-2v1l-2 -1h-2l-2 -2l-6 -9l-1 -2h-5l-1 -1l-1 -4l4 -3l3 -1l3 -1l18 -14l18 -15l9 -8l-3 -28h-1l1 -2h-1l-2 -30l-1 -12l-14 -3l-2 -1v1l-2 -1h-2l-4 -3l-3 -1h-1l-2 2h-3v-2l1 -2l5 -1l2 1h2l15 5h2l2 -1v1h3l-4 -27l-2 -2l-2 -6v-2l-3 -12l-4 -22l1 -14l1 -1h2l2 3v7h2l1 1l3 22h1l-1 2h1v4l1 2h-1l1 2l1 6l1 4v2l1 14h1l-1 2h1v5l2 10l5 1l30 8l10 3l4 1l5 2l6 3l11 3v2h1v-4l1 -2h-1h-2v-2v-4v-2l4 -19l2 -5l2 -4l1 -2l3 -2h1h2h2l-1 5l-1 6l-3 11l-4 19v8v1l-2 2l-1 7l-1 9l2 2l5 2l5 2l25 4l1 -19l3 -27l1 -4l2 -9l2 -15l2 -2l-22 -4l-7 -2l-5 -2l-8 -4h-1l1 -2h-1v-2l1 -2h2l2 -1l2 2h1v2l2 1h2l2 1l6 1l-1 -2l-2 -5l-2 -11l-2 -5l-1 -3l-2 -14v-18l2 -8l2 -6h1l8 -7l2 -1l10 -4l3 1l5 2h2l4 5l6 21v5h1l-1 2l3 18l1 1l1 -1l1 -3l2 -4l14 -23l10 -10l5 -4l11 -4l4 -1l2 2h1l3 1l2 1l6 5l3 12v2l-2 7l-7 21l-2 10l-1 4l-2 2v2l-1 3l-1 3l-2 2v2l29 8l2 2l4 1l2 2l1 1h2l5 2l2 2h2l2 2v2v5v2l-6 4l-2 1v2v10l-8 37l-2 7l-1 6h-1v1l3 1l55 22l20 8l16 6h2l5 3v3l-1 1zM458 12158l-1 -6l-1 -2h-4v1l-6 -5v-6l6 -6h-2l-1 -2l1 -2l4 -7l1 -2l-5 -1l-3 -4l-1 -1v-2l1 -1l6 -6l-1 -2l-6 -1l-3 -3v-2l2 -2l3 -8h2l-1 5l-1 2v2l-1 1l-1 2l6 2h4v1l1 -1l-5 -18v-2l-1 -2l-1 -1h-2h-5h-1l-2 2l-3 1l-7 4l-1 2l-3 6v3l-1 7h1l-1 2l3 24l2 6l3 17h1l2 1v-1h2l2 1v1h-2l-2 1v-1l-1 1v1l23 1zM508 12153l2 -1l1 -3l5 -14l2 -7l2 -6l2 -8v-2l2 -7v-15l-2 -2v-2l-4 -1l-2 -2h-2v-1l-2 1l-1 1l-5 2l-2 1l-2 1l-11 10l-8 12l-7 13l-6 18l-1 3l-2 2l1 1l33 3l3 1l2 2h2zM458 12120h1l-1 -8l-1 -6h-1l-7 8l3 3l2 1l4 2zM460 12147l1 -1l-1 -15l-1 -9l-1 -1v1l-1 2l-2 4l-1 3v2v3v2l-2 1l-3 3l1 4h2l8 1zM468 12126v-1h-1v1h1zM303 12184v-1h-1v1h1zM306 12187v-1h-1v1h1zM309 12186v-1h-1v1h1zM312 12187v-1h-1v1h1zM338 12193l1 -1h-1l-6 -1l-1 1h1l6 1zM342 12194v-1h-1v1h1zM347 12195v-1h-1v1h1zM352 12196l1 -1h-1l-1 1h1zM430 12156l1 -1h-3v1h2zM432 12157v-1h-1v1h1zM497 12156h3v1l3 -3h-1l-3 -1l-9 -1l-2 1v-1v-1l-2 1h-2h-7l-5 -2h-7l-1 6l-1 3l21 3l5 2l8 2l5 1l2 1l1 -4l-1 -1l-8 -1v-3h-10v-1l-2 1v-1h-5v-2h1l2 1v-1v-1l2 1h12v1l1 -1zM494 12158l1 -1h-1l-1 1h1zM499 12158v-1h-1v1h1zM491 12262v-20h-1l1 -2h-1v-8l1 -2h-1l1 -2l2 -15l7 -25l3 -8v-2h1l-2 -2v-3l-8 -1l-35 -6h-2v4l-1 2h1l-2 13l-1 6l-5 32l-1 23h2l9 2l5 1v1l2 -1l4 1l3 2v4l1 1l4 1l10 3l3 1zM536 12275l2 -7l2 -11v-5h-2l-2 -2v-2h4v1l1 -1l1 -3l4 -13l6 -31l1 -10h-3l-1 -5h1l-2 -2l-2 1l-2 -2l-3 -1l-10 -3l-3 -1l-16 -4h-2v2l-2 2l-3 2l-1 3l-2 5l-4 17l-1 4v43h1l-1 2v2h1l-1 2h1l-1 2h1l-1 2l1 2h4l11 2l9 4h2l2 2h2l6 3h2zM508 12158v-1l-4 -1v-1l-1 1v2h5zM526 12161l1 -1h-1h-2l-6 -2l-2 -1l-2 -1v2l2 1l5 1l5 1zM530 12162v-1h-2v1h2zM556 12184l2 -1l4 -2l1 -1v-2l-1 -1l-2 -1l-18 -10l-2 -1v1h-1v-2h-1v1l-10 -1l-14 -2h-1l1 2h5l16 4l10 4l2 1v1l-1 2l6 4h2l2 1l1 1l-1 1v1zM535 12173v-3h-1v1l-2 -1h-4v-2h-2v1l-2 -1l-2 -1v1h-2l-2 -2v1l-7 -1v3l24 4zM301 12310v-1h-1v1h1zM300 12312v-2l-2 2h2zM192 12310l-8 -1l-6 -6h-6l-1 -1v-5l3 -1l2 -2l3 -1l2 -1h1l2 -2h2l2 -2h2l2 -2h2l22 -14l16 -12l7 -8l-5 -43l-1 -11h-1l1 -2h-1l1 -2h-1v-17h-2l-5 -1v-2h-1v1h-3v3l-9 -1l-2 1v-1l-2 1v-1l-99 -10v2l-29 -1v1l-2 -1v1l-11 1l-64 10l-77 21l-2 1v-1h-2v-1l2 -1l2 -1l8 -2v-1l2 1v-1l4 -1l2 -1v1l2 -1h1l6 -3h3v1l1 -1v-1h5v-1l2 1l2 -2l6 1v-1h-3l1 -1h3l11 -4h2l68 -14h6v1l1 -1v-1h5v1l2 -1v1h1v-2h11h1l-1 -2l-5 -1l-15 -1l-2 -2v-1l17 1l3 1h2l3 1l100 4l20 3l28 5h3v-12l1 -2h-1l1 -2l4 -42l1 -4v-3l1 -3l3 -3l2 -1l3 2l-1 4l-2 7v6l-1 9h-1l1 2v21l1 4v5l-2 2h-2l-2 -1v13h2l4 1v1l2 -1v1h8l2 2v-1l2 1h2v-1l2 1v-1l2 1h1h4l2 2h2h7v2h2v1l2 -2h2l2 2l2 -1v1h2v2l-51 -8h-3l1 19h-1l2 2l-1 2h1v2l-1 2h1l2 11l2 16l1 5l1 2h-1l1 2l1 4l1 5l5 1l-1 2v2l-2 1l-4 3v2l-3 4l-5 5l-13 11l-2 1l-3 1l-2 2l-6 5l-3 3h1v2v2v2l-2 1h-2v-1l-2 1v-1l-2 1l-3 3l-5 5l-2 1zM-16 12184v-1h-1v1h1zM-19 12185v-1h-1v1h1zM-23 12186v-1h-1v1h1zM-27 12187v-1h-1v1h1zM-36 12189l1 -1h-1l-1 1h1zM-43 12191v-1h-1v1h1zM-50 12193v-1h-1v1h1zM58 12161v-1h-1v1h1zM136 12165l1 -1h-1l-1 1h1zM140 12165v-1h-2v1h2zM142 12165v-1h-1v1h1zM164 12168v-1h-1v1h1zM167 12168v-1h-1v1h1zM169 12169v-1l-1 -1l-1 1l1 1h1zM216 12174l1 -1h-3v-1l-2 1v-1l-2 1l-2 -1h-3l-3 -1v-1l-2 1l-2 -1h-2h-2h-2l-8 -2h-8l-2 -1l-1 1l1 1l30 4l12 1zM172 12169v-1h-2v1h2zM219 12174v-1h-1v1h1zM269 12182v-1h-1v1h1zM286 12185v-1h-2v1h2zM186 12301v-1h-1v-2h-2v2l1 1h2z"/></g><g class="f live" data-r data-f="0" fill="var(--live,#000)" fill-rule="evenodd"><path class="chunk" data-i="0" d="M-136 11926h-20l-2 -2l-2 -1l-2 -2l-3 -1l-6 -2l-3 -1l-2 -2l-1 -1l-7 -3l-6 -7l-2 -2l1 -6l1 -2v-2l9 -12l5 -5l3 -5l1 -2l-1 -2h1v-2l3 1h1l4 3h3l7 2l5 2l15 4l2 1l10 7l1 4l1 3v10l-2 5v2l-4 4l-1 5l-1 5l-2 2h-2l-2 2h-2zM-136 11922l4 -1l2 -7v-2l-2 -5v-2l-4 -5l-8 -9h-2l-1 -1v-2l-12 -8l-1 -1l-6 -5v-2h-2l-2 -2h-2l1 2h-1l-1 2l-12 16l-1 3l-1 1l-2 2v4l3 4v1l8 5l6 4h2l2 2h2l11 6h2l5 2l12 -2zM-126 11906l1 -6v-7l-1 -6l-8 -5l-2 -2l-10 -2l-4 -1l-2 -2h-2l-2 -3h-4h-1l3 4l4 2l14 12l2 2l4 4l5 7l3 3z"/><path class="chunk" data-i="1" d="M-573 11818h-5h-2l-6 1v-1h2v-1h-3l1 -1h4l10 -4l26 -10l18 -5h2l30 -9h2h2h2l1 2v2l-3 3l-6 1l-53 14l-7 3l-4 1l-2 2h-3l-6 2zM-574 11816v-1h-1v1h1zM-577 11817v-1h-1v1h1z"/></g><g class="f live" data-f="1" fill="var(--live,#000)" fill-rule="evenodd"><path class="chunk" data-i="0" d="M-135 11926l-23 -2l-2 -2l-4 -1l-2 -2l-3 -1l-6 -3l-2 -1l-1 -2h-1l-5 -4l-5 -6v-1l-2 -1l1 -4l1 -2l2 -1l10 -10l5 -6l4 -6l1 -2l-2 -1l1 -1v-1h3h1l3 2l3 -1h4l3 1l14 3l2 2l11 9l2 4l1 4v10l-2 6l-1 2l-4 4v6l-1 5l-1 2h-2l-1 1h-2zM-136 11923l4 -1v-7v-2l-2 -6l-1 -2l-5 -6l-9 -11h-1l-1 -2v-1l-7 -9h-1l-3 -4h-1l-2 -2l-2 1l1 1l-1 1l-1 2l-14 16l-2 2l-1 1l-2 2l-1 3l3 2v1l6 6l4 3l2 1l1 2l3 1l12 5l2 1l7 1l12 1zM-129 11906h1l1 -7v-8l-2 -6l-8 -7l-3 -3l-9 -2h-3l-1 -2h-1l-2 -2l-2 1h-1l2 3l2 1l10 13l3 2l4 5l6 9l3 3z"/><path class="chunk" data-i="1" d="M-568 11818h-5l-2 1l-7 1h-1l1 -1h2l-1 -1l-3 1l1 -1l5 -2l10 -4l24 -9l17 -7l2 -1l27 -10l3 -1h2l2 1l1 2v3l-3 2h-7l-50 17l-6 3h-3l-1 2l-3 1l-5 3zM-569 11815h-1v1l1 -1zM-572 11817v-1h-1v1h1z"/></g><g class="f live" data-f="2" fill="var(--live,#000)" fill-rule="evenodd"><path class="chunk" data-i="0" d="M-135 11931l-22 -2l-2 -3l-3 -2l-2 -3l-3 -1l-6 -4l-3 -1l-2 -2h-2l-7 -3l-5 -6l-2 -2l1 -6l1 -2l1 -3l7 -13l6 -6l4 -5l2 -2h-1l1 -1l1 -1h2h1l3 3l3 1l7 2l5 3l14 4l2 2l8 7l2 4l1 3l2 11l-1 4v2l-3 4v7v5l-3 3l-2 1l-2 1l-3 1zM-135 11926l4 -2l2 -8v-3l-3 -6l-1 -3l-3 -6l-8 -9l-1 -1l-2 -1v-1l-13 -8l-2 -1l-5 -6l-1 -1h-1l-1 -2h-2h-1l1 1l-1 1l-2 2l-13 17l-1 3l-1 2l-1 2v5l2 2v1l8 5l6 3l2 1l2 2l3 1l11 7l2 2l6 2l14 -1zM-127 11907l1 -1v-6l-1 -7l-2 -5l-7 -6l-1 -2l-9 -3l-5 -1l-2 -2h-1l-3 -3h-4h-1l4 4l3 2l14 11l3 2l3 4l5 9l3 4z"/><path class="chunk" data-i="1" d="M-574 11818h-4h-2l-5 1v-1h2l-1 -1h-2h1l4 -1l10 -2l23 -12l19 -8h2l27 -6l1 -1h2l2 1l1 1l1 3l-2 2h-6l-51 16l-6 4l-4 1l-2 1l-3 1l-7 1zM-574 11817v-1h-1v1h1zM-577 11817h-1h1z"/></g><g class="f jolt-f live" data-f="3" fill="var(--live,#000)" fill-rule="evenodd"><path class="chunk" data-i="0" d="M-132 11924l-18 5l-3 -1l-4 -1l-3 -1l-3 -1l-8 -3l-3 -1l-2 -3l-1 -1l-7 -7l-7 -11v-2l-3 -3l2 -6l1 -2l1 -2l8 -8l3 -3l2 -5l1 -2l-1 -1l1 -1v-1l3 -1h2l2 3h4l6 1l5 3l20 6l4 3l14 12l3 4l1 4l1 9l-3 4v1l-5 3l-2 3l-3 2l-3 2l-1 1l-2 1h-2zM-132 11922l4 -2l4 -3v-1l-2 -3l-1 -1l-5 -4l-15 -11l-2 -1l-2 -2l-1 -2l-13 -15h-2l-4 -6v-1l-1 -1l-2 -1h-1l-1 1h1l-1 1l-1 2l-8 11l-2 2v1l-3 2v5l4 5v2l8 10l6 6l1 1l3 3h2l14 5h3h6l11 -3zM-119 11912h1l2 -4l-1 -7l-3 -7l-12 -9l-3 -3l-15 -6l-6 -1l-2 -3h-1l-3 -4l-4 1l3 4l2 3l20 20l5 4l6 4l8 7l3 1z"/><path class="chunk" data-i="1" d="M-576 11814h-5h-1l-5 1v-1h2l-1 -1l-2 1v-1l4 -1l9 -5l27 -13l12 1h2l41 -5l2 -1h3l2 1l2 3v4l-2 4h-9l-59 2l-8 4l-3 1l-3 2l-3 1l-5 3zM-577 11811v-1h-1v1h1zM-580 11812v-1l-1 1v1l1 -1z"/></g><path class="grain" fill="#000" fill-rule="evenodd" d="M167 11849h-1v-1h1v1zM-255 11883v-1h1v1h-1zM-255 11881h-1v-1h1v1zM-258 11878h1l-1 1v-1zM-261 11875v-1h1v1h-1zM-262 11871h-1v-1h1v1zM-265 11870l-1 -1v-1h1v2zM-266 11868l-1 -1v-1h1v2zM-267 11866h-1v-1h1v1zM-266 11864h-1v-1h1v1zM-250 11858v-1h2v1h-2zM-252 11857v-2l2 1v1h-2zM-312 11873h-1v-1h1v1zM-308 11867l-1 -1l1 -2h2l-2 3zM-269 11863h-1v-1h1v1zM-305 11863h-1v-1h1v1zM-270 11862h-1v-1h1v1zM-304 11861h-1v-1h1v1zM-271 11860h-1v-1h1v1zM-303 11860h-1v-1h1v1zM-302 11859h-1v-1h1v1zM-274 11857h-1v-1h1v1zM-300 11857h-1v-1h1v1zM-276 11856h-1v-1h1v1zM-278 11855h-1v-1h1v1zM-280 11855h-1v-1h1v1zM-276 11854h-1v-1h1v1zM-285 11854h-1v-1h1v1zM-299 11854h-1v-1h1v1zM-280 11853h-1l1 -1h1l-1 1zM-287 11853h-1v-1h1v1zM-286 11852h-1v-1h1v1zM-292 11852h-1l1 -1h1l-1 1zM-294 11851h-1l1 -1h1l-1 1zM-296 11850h-1v-1h1v1zM-298 11849h-1l1 -1h1l-1 1zM-294 11849h-2v-1l2 -1l1 1l-1 1zM-279 11847h-1v-1h1v1zM-284 11847h-2v-1h3l-1 1zM-287 11847h-1v-1h1v1zM-290 11847h-1v-1h1v1zM-276 11845h-4v-1h4v1zM-281 11845h-1v-1h1v1zM-284 11845h-2v-1h2v1zM-287 11845h-1v-1h1v1zM-292 11845h-2v-1h2v1zM-295 11846l-1 -1v-1h1v2zM-297 11845h-1v-1h1v1zM-299 11843h-1v-1h1v1zM-298 11842h-1v-1h1v1zM-129 11798h-1v-1h1v1zM-133 11798h-1v-1h1v1zM-107 11796h-1v-1h1v1zM-122 11797h-4v-1v-1l2 1h2v1zM-139 11797l-1 -1v-1l1 1v1zM-139 11770h-1v-1h1v1zM-100 11768h-3l1 -1h2v1zM-109 11768h-1v-1h1v1zM-112 11768h-1v-1h1v1zM-107 11767h-1v-1h1v1zM-104 11768h-3l1 -1h1v-1v-1l1 1v2zM-138 11768h-2l1 -2v-1l1 1v2zM-128 11764h-1l1 -1h1l-1 1zM-130 11764h-1v-1h1v1zM-118 11763h-1v-1h1v1zM-120 11763h-1v-1h1v1zM-136 11763h-1v-1h1v1zM-138 11763h-2v-1h2v1zM-128 11762h-1v-1h1v1zM-131 11762h-1v-1h1v1zM-138 11761h-1v-1h1v1zM-140 11769h-1v-1h1v1zM-142 11764h-1v-1h1v1zM-141 11762h-1v-1h1v1zM-226 11794h-1v-1h1v1zM-222 11780h-1v-1h1v1zM-395 11767l-1 1v-1h1zM-406 11769v-1h1v1h-1zM-437 11762h-1v-1h1v1zM-434 11761h-1v-1h1v1zM-438 11761h-1v-1h1v1zM-441 11760h1v1l-1 -1zM-436 11760h-1v-1h1v1zM-434 11759h-2v-1h2v1zM-437 11759h-1v-1h1v1zM-433 11758h-1v-1h1v1zM-430 11756h-1v-1h1v1zM-589 11818h-1v-1h1v1zM-588 11817l-2 -1v-1h2v1v1zM-216 11696h-1v-1h1v1zM-394 11731h-1v-1h1v1zM-393 11730h-1v-1h1v1zM-391 11729h-1v-1h1v1zM-390 11728h-1l1 -1h1l-1 1zM-388 11727h-1v-1h1v1zM-386 11726h-2v-1h2v1zM-390 11725v1l-1 -1h1zM-385 11725h-1v-1h1v1zM-384 11723v1l-1 -1h1zM-384 11723v-1h2v1h-2zM-382 11722v-1h1v1h-1zM-392 11709v-1l1 1h-1zM-388 11708v-2h2v-1l2 1l-2 2h-2zM-380 11701l-1 -1h1v1zM-384 11701v-1l2 -1h1v1h-1v1h-2zM-428 11755h-1v-1h1v1zM-429 11754h-1v-1h1v1zM-425 11753h-1v-1h1v1zM-427 11753h-1v-1h1v1zM-422 11751l-2 -1v-1h2v1v1zM-431 11750v-2l2 1h-1v1h-1zM-416 11746h-1v-1h1v1zM-414 11745h-2v-1h2v1zM-412 11743h-1v-1h1v1zM-411 11742h-1v-1h1v1zM-408 11740h-1v-1h1v1zM-417 11740l1 -1v1h-1zM-406 11739h-1v-1h1v1zM-405 11738h-1v-1h1v1zM-403 11737h-1v-1h1v1zM-402 11736h-1l1 -2h2l-2 2zM-398 11734h-1v-1h1v1zM-397 11733h-1v-1h1v1zM-396 11732h-1v-1h1v1zM-404 11731v-1l1 1h-1zM-429 11731v-1h1v1h-1zM-417 11727v-1h1v1h-1zM-416 11725l1 1h-1v-1zM-426 11726v-1h1v1h-1zM-413 11724l-1 1v-1h1zM-425 11725v-1h1v1h-1zM-427 11725v-1h1v1h-1zM-426 11724v-1h1v1h-1zM-419 11723v-1l3 -2h1l-3 3h-1zM-419 11721h-1v-1h1v1zM-425 11721h1l2 -1v2l-2 1h-1v-2zM-417 11720h-1v-1h1v1zM-420 11720h-2v-1h2v1zM-415 11720l3 -3l1 1v1h-1l-2 1h-1zM-420 11719v-1l2 -1v1l-2 1zM-411 11718v-2h1h1l-1 2h-1zM-417 11717h-1v-1h1v1zM-407 11716h-1h-1l1 -2h1v2zM-405 11715h-1v-1l2 -2h2v1h-2l-1 2zM-411 11714h-2v-2l1 -1l1 1v2zM-409 11712l-1 -1v-1h1v2zM-407 11710h-1v-1h1v1zM-411 11711l-1 -1v-1l1 1v1zM-402 11712l2 -2l2 -2h2l-2 3l-4 1zM-406 11709h-1v-1h1v1zM-405 11708h-1v-1h1v1zM-408 11708h-1v-1h1v1zM-406 11707h-1v-1h1v1zM-404 11705h-1v-1h1v1zM-408 11705h-2v-1h2v1zM-406 11704h-1v-1h1v1zM-405 11703l-1 -1v-1l1 1v1zM-400 11696h-1l1 -1h1l-1 1zM-396 11693h-1v-1h1v1zM-393 11691h-1v-1h1v1zM-52 11566h-2v-3h3v1l-1 2zM-384 11607h-2v-1h2v1zM-339 11604h-1v-1h1v1zM-404 11566v-1h1v1h-1zM-403 11565v-1h1v1h-1zM-393 11561v-1h1v1h-1zM-392 11560v-1h1v1h-1zM-396 11556v-1h1v1h-1zM-395 11554h1l-1 1v-1zM-396 11554v-1l1 1h-1zM-400 11560h1l-1 1v-1zM-398 11558v-1h1v1h-1zM-397 11557v-1h1v1h-1zM-399 11557v-1h1v1h-1zM-398 11556v-1h1v1h-1zM-396 11555h-1v-1h1v1zM496 12156v-1l1 1h-1zM441 12156h-1v-1h1v1zM494 12154h-2v-1h2v1zM491 12154h-1v-1h1v1zM319 12192h-1v-1h1v1zM307 12190h-1v-1h1v1zM302 12189h-4v-1h4v1zM296 12188h-3l1 -1h3l-1 1zM302 12187h-4v-1h4v1zM274 12182h-1v-1h1v1zM448 12088h-1v-1h1v1zM449 12086h-1v-1h1v1zM282 12088h-1v-1h1v1zM278 12088h-2v-1h3l-1 1zM266 12086h-1v-1h1v1zM264 12086h-1v-1h1v1zM261 12085l-1 1v-1h1zM286 12084h-1v-1h1v1zM282 12082h-1l1 -1h1l-1 1zM280 12081h-2v-1h2v1zM265 12081h-1v-1h1v1zM298 12080h-1v-1h1v1zM276 12080h-2v-1h3l-1 1zM268 12079h-4v-1h5l-1 1zM273 12078h-1v-1h1v1zM270 12078h-1v-1h1v1zM303 12077h-1v-1h1v1zM294 12076h-1l1 -1h1l-1 1zM282 12076h-1v-1h1v1zM298 12075h-1v-1h1v1zM280 12072h-1v-1h1v1zM269 12072h-1v-1h1v1zM254 12072v-1h1v1h-1zM247 12072v-1h1v1h-1zM284 12071h-1l1 -1h1l-1 1zM248 12071v-1h1v1h-1zM286 12070h-1v-1h1v1zM249 12070v-1h1v1h-1zM255 12071v-1l1 -2h2v2l-2 1h-1zM250 12069v-1h1v1h-1zM251 12068l1 -1v1h-1zM291 12067h-1v-1h1v1zM288 12068l-1 -1v-1h1v2zM285 12067h-1v-1h1v1zM269 12067h-1v-1h1v1zM252 12067v-1h1v1h-1zM290 12066h-1v-1h1v1zM281 12066h-1v-1h1v1zM253 12066v-1h1v1h-1zM250 12066v-1h1v1h-1zM291 12065h-1v-1h1v1zM259 12065v-1h1v1h-1zM254 12065v-1h1v1h-1zM282 12064h-1v-1h1v1zM271 12064h-1v-1h1v1zM260 12064v-1h1v1h-1zM255 12064v-1h1v1h-1zM272 12063h-1v-1h1v1zM261 12063v-1h1v1h-1zM256 12063v-1h1v1h-1zM262 12062v-1h1v1h-1zM263 12061v-1h1v1h-1zM296 12061h-2v-1l2 -1l1 1l-1 1zM286 12060h-1v-1h1v1zM264 12060v-1h1v1h-1zM290 12059h-1l1 -1h1l-1 1zM287 12059h-1v-1h1v1zM280 12059h-2v-1h2v1zM276 12059h-1v-1h1v1zM298 12059l-1 -1v-1l1 1v1zM299 12057h-1v-1h1v1zM289 12058l-1 -1v-1h1v2zM290 12056h-1v-1h1v1zM263 12056v-1h1v1h-1zM292 12055h-1v-1h1v1zM284 12055h-2v-1h3l-1 1zM279 12055h-1v-1h1v1zM264 12055v-1h1v1h-1zM262 12055v-1h1v1h-1zM251 12055h-1v-1h1v1zM300 12055l-1 -1v-1l1 1v1zM265 12054v-1h1v1h-1zM253 12054h-1v-1h1v1zM290 12054h-3l1 -1l2 -1l1 2h-1zM282 12053h-1v-1h1v1zM279 12053h-1v-1h1v1zM254 12053h-1v-1h1v1zM293 12052h-1v-1h1v1zM290 12051h-1l1 -1h1l-1 1zM280 12051h-1v-1h1v1zM287 12051l-1 -1v-1l1 1v1zM265 12050h-1l1 -1v1zM261 12049l-1 1v-1h1zM295 12049h-1v-1h1v1zM288 12049h-1l1 -1h1l-1 1zM286 12049h-1v-1h1v1zM281 12049h-1v-1h1v1zM299 12048h-1v-1h1v1zM285 12048h-1v-1h1v1zM298 12047h-1v-1h1v1zM296 12045h-1v-1h1v1zM282 12045h-1v-1h1v1zM280 12045h-1v-1h1v1zM294 12044h-5l1 -1h4v1zM288 12044h-1v-1h1v1zM285 12044h-1v-1h1v1zM246 12040h-1v-1h1v1zM247 12039h-1v-1h1v1zM248 12038h-1v-1h1v1zM249 12037h-1v-1h1v1zM251 12036h-1v-1h1v1zM246 12036h-1v-1h1v1zM252 12034h-1l1 -1h1l-1 1zM246 12034h-1v-1h1v1zM254 12033h-1v-1h1v1zM250 12033h-1v-1h1v1zM247 12033h-1v-1h1v1zM255 12032h-1v-1h1v1zM248 12032h-1v-1h1v1zM246 12032h-1v-1h1v1zM256 12031h-1v-1h1v1zM252 12031h-1v-1h1v1zM249 12031h-1v-1h1v1zM245 12031h-1v-1h1v1zM257 12030h-1v-1h1v1zM246 12030h-1v-1h1v1zM258 12029h-1v-1h1v1zM259 12028h-1v-1h1v1zM260 12027h-1v-1h1v1zM250 12027h-1v-1h1v1zM261 12026h-1v-1h1v1zM258 12026h-1v-1h1v1zM253 12026h-1v-1h1v1zM251 12026h-1v-1h1v1zM262 12025h-1v-1h1v1zM259 12025h-1v-1h1v1zM256 12025h-1v-1h1v1zM247 12025h-1v-1h1v1zM264 12024h-2v-1h2v1zM257 12024h-1v-1h1v1zM261 12023h-1v-1h1v1zM258 12023h-1v-1h1v1zM266 12022h-2v-1h2v1zM262 12022h-1v-1h1v1zM259 12022h-1v-1h1v1zM255 12022h-1v-1h1v1zM251 12022h-1v-1h1v1zM267 12021h-1v-1h1v1zM263 12021h-1v-1h1v1zM260 12021h-1v-1h1v1zM248 12021h-1v-1h1v1zM261 12020h-1v-1h1v1zM254 12021l-1 -1v-1l1 1v1zM249 12020h-1v-1h1v1zM265 12019h-1v-1h1v1zM256 12019h-1v-1h1v1zM244 12019v-1h2h1l-2 2l-1 -1zM268 12020l-1 -1l1 -2h2v1l-2 2zM262 12019l-1 -1v-1l1 1v1zM252 12018h-1v-1h1v1zM271 12017h-1v-1h1v1zM264 12017h-1v-1h1v1zM258 12017h-1v-1h1v1zM272 12016h-1v-1h1v1zM265 12016h-1v-1h1v1zM255 12016h-1v-1h1v1zM273 12015h-1v-1h1v1zM269 12014l-1 1v-1h1zM256 12015h-1v-1h1v1zM246 12015h-1v-1h1v1zM274 12014h-1v-1h1v1zM269 12013l1 1h-1v-1zM267 12014l-1 1h-1v-2h1v1h1zM262 12014h-1v-1h1v1zM253 12014v-1h1v1h-1zM247 12014h-1v-1h1v1zM245 12014h-1v-1h1v1zM259 12013h-1v-1h1v1zM250 12013v-1h1v1h-1zM272 12011v1l-1 -1h1zM260 12012h-1v-1h1v1zM250 12012h-1v-1h1v1zM248 12012h-1v-1h1v1zM272 12011v-1h2v1h-2zM262 12011h-1v-1h1v1zM274 12010v-1h1v1h-1zM263 12010h-1v-1h1v1zM253 12010h-1l1 -1v1zM277 12009v-1h2l-1 1h-1zM275 12009v-1h1v1h-1zM265 12009h-1v-1h1v1zM253 12009v-1h1v1h-1zM268 12008h-2h-1v-1h3v1zM255 12008h-1v-1h1v1zM257 12007h-1v-1h1v1zM280 12005l1 1h-1v-1zM256 12006h-1v-1h1v1zM259 12005v-1h1v1h-1zM258 12004v-1l1 1h-1zM260 12004v-2h1v2h-1zM248 12001h-1v-1h1v1zM244 12000h1l-1 1v-1zM270 12000l-1 -2h1h1v2h-1zM245 11999h-1v-1h1v1zM246 11998h-1v-1h1v1zM253 11997h-1v-1h1v1zM250 11997h-1v-1h1v1zM247 11997h-1v-1h1v1zM255 11995h-1v-1h1v1zM250 11995h-1v-1h1v1zM248 11995h-1v-1h1v1zM246 11994h-1v-1h1v1zM254 11994l-1 -1v-1h1v2zM259 11992h-1v-1h1v1zM256 11992h-1v-1h1v1zM246 11993v-1l2 -1v1l-2 1zM260 11991h-1v-1h1v1zM249 11991h-1v-1h1v1zM258 11990h-1v-1h1v1zM256 11990h-1v-1h1v1zM250 11990h-1l1 -1h1l-1 1zM255 11989h-1v-1h1v1zM256 11988h-1l1 -1h1l-1 1zM253 11988h-1v-1h1v1zM265 11987h-1v-1h1v1zM254 11987h-1v-1h1v1zM246 11987h-1v-1h1v1zM266 11986h-1v-1h1v1zM256 11986h-2v-1h2v1zM245 11986h-1v-1h1v1zM267 11985h-1v-1h1v1zM260 11984v2h-2l1 -2h1zM257 11985h-1v-1h1v1zM269 11984h-1v-1h1v1zM260 11983h2v1h-2v-1zM272 11983h-1v-1h1v1zM250 11983h-1v-1h1v1zM271 11982h-1v-1h1v1zM266 11981v1l-1 -1h1zM264 11983l-1 -1v-1l1 1v1zM251 11982h-1v-1h1v1zM272 11981h-1v-1h1v1zM265 11981h-1v-1h1v1zM262 11981h-1v-1h1v1zM255 11981h-1v-1h1v1zM253 11981h-1v-1h1v1zM275 11980h-1v-1h1v1zM254 11980h-1v-1h1v1zM264 11980h-2l2 -2v2zM258 11979h-1v-1h1v1zM256 11979h-1v-1h1v1zM277 11978h-1v-1h1v1zM275 11977l-1 1v-1h1zM257 11978h-1v-1h1v1zM275 11975l1 1l-1 1v-2zM260 11976h-1v-1h1v1zM278 11977l-1 -1v-2h1v3zM264 11975h-1v-1h1v1zM275 11974v-1h1v1h-1zM263 11974h-1v-1h1v1zM276 11972h1l-1 1v-1zM274 11973v-1h1v1h-1zM265 11973h-1v-1h1v1zM275 11972l1 -1v1h-1zM268 11972h-1v-1h1v1zM272 11972l-1 -2h1h2l-2 2zM246 11967h-1v-1h1v1zM248 11965h-1v-1h1v1zM245 11965h-1v-1h1v1zM246 11964h-1v-1h1v1zM250 11962h-1v-1h1v1zM245 11962h-1v-1h1v1zM252 11960h-1v-1h1v1zM248 11959l1 1h-1v-1zM253 11959h-1v-1h1v1zM250 11959h-1v-1h1v1zM254 11958h-1v-1h1v1zM251 11958h-1v-1h1v1zM247 11957h-1v-1h1v1zM252 11956h-1v-1h1v1zM250 11956l-1 -1l1 -1h1l-1 2zM248 11955h-1v-1h1v1zM258 11954h-1v-1h1v1zM252 11954h-1v-1h1v1zM249 11954h-1v-1h1v1zM253 11953h-1v-1h1v1zM250 11953h-1v-1h1v1zM260 11952h-1v-1h1v1zM258 11952h-1v-1h1v1zM254 11952h-1v-1h1v1zM255 11951h-1v-1h1v1zM262 11950h-1v-1h1v1zM260 11950h-1v-1h1v1zM256 11950h-1v-1h1v1zM253 11950h-1v-1h1v1zM257 11949h-1v-1h1v1zM254 11949h-1v-1h1v1zM247 11949h-1v-1h1v1zM264 11948h-1v-1h1v1zM259 11948h-1v-1h1v1zM255 11948h-1v-1h1v1zM260 11946h-1v-1h1v1zM259 11945h-1v-1h1v1zM257 11945h-1v-1h1v1zM268 11944h-1v-1h1v1zM252 11944h-1v-1h1v1zM260 11944l-1 -1v-1h1v2zM270 11942h-1v-1h1v1zM255 11941h-1v-1h1v1zM245 11941h-1v-1h1v1zM273 11940h-1v-1h1v1zM271 11940h-1v-1h1v1zM264 11940l2 -1v1v1h-2v-1zM267 11939h-1v-1h1v1zM247 11939h-1v-1h1v1zM275 11938h-1v-1h1v1zM248 11938h-1v-1h1v1zM276 11937h-1v-1h1v1zM268 11939v-1l2 -2v2l-2 1zM267 11937h-1v-1h1v1zM277 11936h-1v-1h1v1zM268 11936h-1v-1h1v1zM266 11936h-1v-1h1v1zM261 11936h-1v-1h1v1zM249 11936h-1v-1h1v1zM270 11935h-1v-1h1v1zM246 11936h-2l2 -2h1l-1 2zM287 11925l1 1h-1v-1zM273 11926h-1v-1h1v1zM289 11925h-1v-1h1v1zM274 11925h-1v-1h1v1zM276 11924h-2v-1h2v1zM261 11925l-1 -1v-1l1 1v1zM289 11923h-1v-1h1v1zM287 11921l-1 1v-1h1zM285 11923h-1l-1 -1l1 -1l1 1v1zM260 11922h-1v-1h1v1zM256 11924v-1l-1 -1l1 -1l2 1l-2 2zM287 11920h1l-1 1v-1zM263 11921h-1v-1h1v1zM261 11921h-1v-1h1v1zM252 11923l-1 -1l1 -2h1v2l-1 1zM245 11921h-1v-1h1v1zM286 11921h-1v-2l2 1h-1v1zM283 11922l-1 -1l-1 -1l1 -1h1v3zM265 11920h-1v-1h1v1zM248 11923l-1 -1l3 -3l1 1l-3 3zM285 11919h-1v-1h1v1zM262 11919h-1v-1h1v1zM257 11919h-1v-1h1v1zM247 11919h-1v-1h1v1zM266 11918h-1l1 -1h1l-1 1zM264 11918h-1v-1h1v1zM261 11917l-1 1v-1h1zM253 11918h-1v-1h1v1zM261 11916h1h1l-1 1h-1v-1zM260 11917l-1 -1h1v1zM257 11916l-1 2h-1v-2h2zM268 11916h-1v-1h1v1zM260 11916v-1h1v1h-1zM251 11916h-1v-1h1v1zM249 11916h-1v-1h1v1zM269 11915h-1v-1h1v1zM266 11915h-1v-1h1v1zM261 11914h1l-1 1v-1zM250 11915h-1v-1h1v1zM264 11915l-1 -1v-1l1 1v1zM270 11914l-1 -1v-1h1v2zM268 11913h-1v-1h1v1zM258 11912h1v1h-1v-1zM266 11913l-1 -1v-1l1 1v1zM257 11912l1 -1v1h-1zM254 11912h-1v-1h1v1zM272 11912l-1 -1v-1h1v2zM267 11911h-1v-1h1v1zM268 11910h-1v-1h1v1zM264 11910h-1v-1h1v1zM262 11911h-1v-1l1 -1l1 1l-1 1zM258 11910h-1v-1h1v1zM254 11910h-1v-1h1v1zM272 11910v-1l2 -1l-2 2zM271 11909h-1v-1h1v1zM267 11909h-1v-1h1v1zM272 11908h-1v-1h1v1zM269 11908h-1v-1h1v1zM263 11908h-1v-1h1v1zM255 11908h-1v-1h1v1zM276 11907h-2v-1h2v1zM273 11907h-1v-1h1v1zM261 11909h-3v-1h2v-2h1v3zM259 11906h-1v-1h1v1zM256 11908l-1 -2l1 -1l1 1v2h-1zM274 11905h-1v-1h1v1zM268 11906l-1 -1v-1h1v2zM264 11907l-1 -1l1 -2h1v2l-1 1zM258 11905h-1v-1h1v1zM252 11905v-1h1l-1 1zM277 11906h-1v-3l1 1v2zM275 11904h-1v-1h1v1zM269 11904h-1v-1h1v1zM266 11904h-1l1 -1h1l-1 1zM261 11904h-1v-1h1v1zM276 11903h-1v-1h1v1zM273 11903h-1v-1h1v1zM270 11903h-1v-1h1v1zM264 11903h-1v-1h1v1zM278 11903l-1 -1l1 -1h1v1l-1 1zM269 11902h-1v-1h1v1zM266 11902h-2v-1h3l-1 1zM260 11902h-1v-1h1v1zM270 11902v-1l2 -1l-2 2zM261 11901h-1v-1h1v1zM277 11900h-1v-1h1v1zM262 11900h-1v-1h1v1zM280 11901l-1 -1l1 -2h1v2l-1 1zM267 11899h-1v-1h1v1zM263 11899h-1v-1h1v1zM282 11898h-1v-1h1v1zM279 11898h-1v-1h1v1zM264 11898h-1v-1h1v1zM275 11896l-1 4h-1l1 -4h1zM269 11897h-1v-1h1v1zM267 11897h-1v-1h1v1zM265 11897h-1v-1h1v1zM280 11897l-1 -1v-1l1 1v1zM275 11896l1 -1h1v1h-1h-1zM266 11896h-1v-1h1v1zM277 11895v-1h1v1h-1zM271 11895h-1v-1h1v1zM283 11897l-1 -1l-1 -2l1 -1l2 1l-1 2v1zM287 11893h-1v-1h1v1zM284 11893h-1v-1h1v1zM278 11892l2 1l1 1h-1h-2v-2zM274 11896h-2l-1 -4h1l2 2v2zM268 11895l-2 -1l2 -2v2v1zM262 11893v-1h1l-1 1zM285 11892h-1v-1h1v1zM274 11892h-1v-1h1v1zM271 11892h-1v-1h1v1zM269 11892h-1v-1h1v1zM263 11892v-1h1v1h-1zM261 11892l1 -1v1h-1zM283 11892l-1 -1v-1h1v2zM272 11891h-1v-1h1v1zM275 11890h-1v-1h1v1zM273 11890h-1v-1h1v1zM282 11889h-1v-1h1v1zM276 11889h-1v-1h1v1zM266 11889v-1h1l-1 1zM287 11889l-1 -1v-1l1 1v1zM283 11888h-1v-1h1v1zM272 11888h-1v-1h1v1zM277 11887h-1v-1h1v1zM275 11888l-1 -1v-1h1v2zM282 11886h-1v-1h1v1zM280 11886h-1v-1h1v1zM278 11886h-1v-1h1v1zM288 11885h-2v-1h2v1zM284 11887l-1 -1h1v-2l2 2l-2 1zM279 11885h-1v-1h1v1zM278 11884h-1v-1h1v1zM276 11884h-1v-1h1v1zM284 11883h-1v-1h1v1zM279 11883h-1v-1h1v1zM280 11882h-1v-1h1v1zM292 11881h-1v-1h1v1zM289 11881h-1v-1h1v1zM278 11882l-1 -1v-1h1v2zM290 11880h-1v-1h1v1zM287 11880h-1v-1h1v1zM283 11880h-1v-1h1v1zM292 11879h-1v-1h1v1zM288 11879h-1v-1h1v1zM293 11878h-1v-1h1v1zM289 11878h-1v-1h1v1zM285 11878h-1v-1h1v1zM281 11878h-1v-1h1v1zM290 11877h-1v-1h1v1zM293 11876h-1v-1h1v1zM291 11876h-1v-1h1v1zM287 11876h-1v-1h1v1zM295 11875h-1v-1h1v1zM292 11875h-1v-1h1v1zM286 11875h-1v-1h1v1zM293 11874h-1v-1h1v1zM280 11873h-1v-1h1v1zM295 11872h-1v-1h1v1zM301 11871h-1v-1h1v1zM299 11871h-1v-1h1v1zM296 11871h-1v-1h1v1zM290 11871h-1v-1h1v1zM279 11872l-1 -1v-1h1v2zM300 11870h-1v-1h1v1zM297 11870h-1v-1h1v1zM299 11868h-1v-1h1v1zM293 11868h-1v-1h1v1zM304 11867h-1v-1h1v1zM295 11867h-1v-1h1v1zM284 11867h-1v-1h1v1zM305 11866h-1v-1h1v1zM292 11866h-1v-1h1v1zM296 11865h-1v-1h1v1zM286 11865h-1l1 -1h1l-1 1zM304 11864h-1v-1h1v1zM288 11864h-1v-1h1v1zM305 11863h-1v-1h1v1zM302 11864l-1 -1v-1h1v2zM299 11863h-1v-1h1v1zM293 11863h-1v-1h1v1zM290 11863h-1l1 -1h1l-1 1zM301 11862h-1v-1h1v1zM288 11862h-1l1 -1h1l-1 1zM294 11861h-1v-1h1v1zM304 11860h-1v-1h1v1zM292 11860h-1v-1h1v1zM300 11859h-1v-1h1v1zM293 11859h-1v-1h1v1zM303 11858h-1v-1h1v1zM286 11851h-1v-1h1v1zM285 11848v2h-1v-2h1zM208 12179h-1v-1h1v1zM220 12068h-1v-1h1v1zM221 12057v-1h1v1h-1zM215 12056v-1h1v1h-1zM225 12054v-1h1v1h-1zM218 12054h-1v-1h1v1zM189 12054h-1v-1h1v1zM229 12053v-1h1v1h-1zM220 12051l1 1h-1v-1zM218 12051h1l-1 1v-1zM204 12053h-2v-1l2 -1v1v1zM186 12053v-1l2 -1v1l-2 1zM229 12050h1v1l-1 -1zM219 12051v-1h1v1h-1zM217 12051v-1h1v1h-1zM186 12051h-1v-1h1v1zM234 12050h-1v-1h1v1zM230 12051l1 -1v-1l1 1v2h-2v-1zM224 12049v1l-1 -1h1zM222 12050h-2v-1h2v1zM190 12051l-1 -1l1 -1h1v1l-1 1zM233 12049h-1v-1h1v1zM224 12048h1l-1 1v-1zM223 12049h-1v-1h1v1zM206 12051l-1 -1l1 -1l2 -1v2l-2 1zM201 12049h-1v-1h1v1zM188 12049h-1v-1h1v1zM236 12049h-2v-1l2 -1v1v1zM232 12048h-1v-1h1v1zM223 12048l1 -1v1h-1zM210 12048h-1v-1h1v1zM204 12049v-1l2 -1v1l-2 1zM202 12048h-1v-1h1v1zM238 12047h-2v-1h2v1zM230 12046v1l-1 -1h1zM228 12046v1l-1 -1h1zM212 12047h-1v-1h1v1zM207 12047h-1v-1h1v1zM204 12047h-2v-1h2v1zM188 12047h-1l1 -1h1l-1 1zM239 12046h-1v-1h1v1zM234 12046h-1v-1h1v1zM230 12045l1 1h-1v-1zM229 12046h-1v-1h1v1zM227 12046h-1l1 -1v1zM225 12046h-1v-1h1v1zM208 12046h-1l1 -1h1l-1 1zM205 12046h-1v-1h1v1zM240 12045h-1v-1h1v1zM229 12045v-1h1v1h-1zM227 12045v-1h1v1h-1zM226 12045h-1v-1h1v1zM189 12045h-1v-1h1v1zM241 12044h-1v-1h1v1zM237 12044h-1v-1h1v1zM234 12044h-1v-1h1v1zM214 12046h-2l2 -3h2v1l-2 2zM208 12044h-1v-1h1v1zM191 12044h-1v-1h1v1zM238 12043h-1v-1h1v1zM235 12043h-1v-1h1v1zM233 12043h-1v-1h1v1zM231 12043h-1v-1h1v1zM218 12043h-2v-1h2v1zM192 12043h-1v-1h1v1zM239 12042h-1v-1h1v1zM236 12042h-1v-1h1v1zM219 12042h-1v-1h1v1zM210 12042h-1v-1h1v1zM206 12042h-1v-1h1v1zM244 12042h-2l2 -2h1l-1 2zM241 12041h-1v-1h1v1zM238 12041h-1v-1h1v1zM220 12041h-1l1 -1h1l-1 1zM212 12041h-2v-1h2v1zM205 12041h-1v-1h1v1zM242 12040h-1v-1h1v1zM237 12040h-1v-1h1v1zM222 12040h-1v-1h1v1zM213 12040h-1v-1h1v1zM206 12040h-1v-1h1v1zM243 12039h-1v-1h1v1zM234 12039h-1v-1h1v1zM244 12038h-1v-1h1v1zM241 12038h-1v-1h1v1zM239 12038h-1v-1h1v1zM237 12038h-1v-1h1v1zM224 12039h-2v-1l2 -1l1 1l-1 1zM220 12038h-1v-1h1v1zM211 12038h-1v-1h1v1zM209 12038h-1v-1h1v1zM240 12037h-1v-1h1v1zM222 12037h-2v-1h2v1zM217 12037h-1v-1h1v1zM210 12037h-1v-1h1v1zM239 12036h-1v-1h1v1zM237 12036h-1v-1h1v1zM228 12036h-1v-1h1v1zM223 12036h-1v-1h1v1zM219 12036h-1v-1h1v1zM214 12036h-1v-1h1v1zM220 12035h-1v-1h1v1zM213 12035h-1v-1h1v1zM244 12034h-1v-1h1v1zM230 12034h-1l1 -1h1l-1 1zM227 12034h-1v-1h1v1zM224 12035l-1 -1l1 -1h1v1l-1 1zM215 12034h-1v-1h1v1zM243 12033h-1v-1h1v1zM229 12033h-1v-1h1v1zM223 12033h-1v-1h1v1zM216 12033h-1v-1h1v1zM244 12032h-1v-1h1v1zM220 12032h-1v-1h1v1zM217 12032h-1v-1h1v1zM230 12032l-2 -2h2v2zM226 12031h-1v-1h1v1zM219 12031h-1v-1h1v1zM238 12030h-1v-1h1v1zM231 12030h-1v-1h1v1zM228 12030h-1v-1h1v1zM220 12030h-1v-1h1v1zM240 12029h-2v-1h2v1zM235 12029h-1v-1h1v1zM229 12029h-1v-1h1v1zM222 12029h-1v-1h1v1zM233 12029l-1 -1v-1l1 1v1zM231 12028h-1v-1h1v1zM223 12028h-1v-1h1v1zM212 12028h-1v-1h1v1zM206 12027l1 1h-1v-1zM235 12027h-1v-1h1v1zM232 12027h-1v-1h1v1zM225 12027h-1v-1h1v1zM208 12027h-1v-1h1v1zM234 12026h-1v-1h1v1zM238 12026l-1 -1l1 -1h1l-1 2zM235 12025h-1v-1h1v1zM228 12025h-1v-1h1v1zM244 12024h-1v-1h1v1zM241 12023l-1 1l-1 -1h2zM237 12024h-1v-1h1v1zM239 12023h-1v-1h1v1zM239 12020h-1v-1h1v1zM216 12020h-1v-1h1v1zM243 12019h-1v-1h1v1zM241 12019h-1v-1h1v1zM238 12019h-1v-1h1v1zM222 12019h-1v-1h1v1zM242 12018h-1v-1h1v1zM223 12018h-1v-1h1v1zM198 12018h-1v-1h1v1zM241 12017h-1v-1h1v1zM225 12016h-1v-1h1v1zM226 12015h-1v-1h1v1zM227 12014h-1v-1h1v1zM222 12014h-1v-1h1v1zM212 12014h-1v-1h1v1zM214 12013h-1v-1h1v1zM229 12012h-1v-1h1v1zM236 12011h-1v-1h1v1zM216 12011h-1l1 -1h1l-1 1zM232 12010h-1v-1h1v1zM239 12009h-1v-1h1v1zM236 12009h-1v-1h1v1zM218 12010v-1l2 -1l-2 2zM240 12008h-1v-1h1v1zM235 12008h-1v-1h1v1zM222 12008h-2v-1h2v1zM236 12007h-1v-1h1v1zM218 12007h-1v-1h1v1zM239 12006h-1v-1h1v1zM237 12006h-1v-1h1v1zM232 12006h-1v-1h1v1zM224 12007l-1 -1l1 -1l1 1l-1 1zM216 12006h-1v-1h1v1zM238 12005h-1v-1h1v1zM240 12005l-1 -1v-1l1 1v1zM234 12004h-1v-1h1v1zM227 12005h-1l-1 -1l1 -1l1 1v1zM223 12004h-1v-1h1v1zM229 12003h-1v-1h1v1zM224 12003h-1v-1h1v1zM244 12001v1l-1 -1h1zM242 12003h-2v-1l2 -1v1v1zM237 12002h-1v-1h1v1zM231 12002h-1v-1h1v1zM226 12002h-1v-1h1v1zM243 12001h-1v-1h1v1zM238 12001h-1v-1h1v1zM232 12001h-1l1 -1h1l-1 1zM243 12000l1 -1v1h-1zM239 12000h-1v-1h1v1zM234 12000h-1v-1h1v1zM229 12000h-1v-1h1v1zM240 11999h-1v-1h1v1zM236 11999h-1v-1h1v1zM224 11999h-1v-1h1v1zM242 11997h-1v-1h1v1zM238 11997h-1l1 -1h1l-1 1zM244 11996h-1v-1h1v1zM229 11996h-1v-1h1v1zM240 11996h-1l1 -2h2l-2 2zM244 11994h-1v-1h1v1zM234 11993h-1v-1h1v1zM218 11993h-1v-1h1v1zM238 11992h-1v-1h1v1zM237 11991h-1v-1h1v1zM222 11989h-2v-1l2 -1l1 1l-1 1zM224 11986h-1l1 -1h1l-1 1zM227 11984h-1v-1h1v1zM226 11983h-1v-1h1v1zM229 11982h-1v-1h1v1zM227 11982h-1v-1h1v1zM230 11981h-1v-1h1v1zM228 11981h-1v-1h1v1zM231 11980h-1v-1h1v1zM232 11979h-1v-1h1v1zM206 11980l-1 -1v-1h1v2zM233 11977l-1 1v-1h1zM222 11978h-1v-1h1v1zM233 11977v-1h1v1h-1zM232 11977l-1 -1h1v1zM223 11977h-1v-1h1v1zM234 11975l1 1h-1v-1zM232 11976v-1h1v1h-1zM224 11976h-1l1 -1h1l-1 1zM233 11975v-2h1l1 1l-1 1h-1zM228 11974h-2v-1h2v1zM205 11977l-1 -1v-3l1 1v3zM230 11973h-1v-1h1v1zM214 11973h-1v-1h1v1zM206 11973h-1v-1h1v1zM238 11972h-1v-1h1v1zM239 11970l-1 1v-1h1zM207 11971h-1v-1h1v1zM239 11970v-1h1v1h-1zM238 11970h-1l1 -1v1zM244 11969h-1v-1h1v1zM240 11968h1l-1 1v-1zM216 11969l-1 -1h1v1zM208 11969h-1v-1h1v1zM237 11968h-1v-1h1v1zM231 11968h-1v-1h1v1zM216 11968v-1l1 1h-1zM209 11968h-1v-1h1v1zM243 11966l-1 1v-1h1zM243 11965l1 1h-1v-1zM242 11966h-1l1 -1v1zM210 11966h-1v-1h1v1zM242 11965v-1l1 1h-1zM233 11965h-1v-1h1v1zM211 11965h-1v-1h1v1zM244 11963h-1v-1h1v1zM242 11963h-1v-1h1v1zM240 11962h-1v-1h1v1zM243 11961h-1v-1h1v1zM238 11956h-1v-1h1v1zM242 11953h-1v-1h1v1zM234 11953h-1v-1h1v1zM235 11952h-1v-1h1v1zM237 11951h-1v-1h1v1zM236 11949v1l-2 -1h2zM236 11949v-1h1l-1 1zM240 11947h-1v-1h1v1zM237 11946h1l-1 2v-2zM241 11946h-1v-1h1v1zM242 11945h-1v-1h1v1zM243 11944h-1v-1h1v1zM237 11943h1l1 1h-1h-1v-1zM242 11943h-1v-1h1v1zM236 11943v-1v-1h2v1h-1v1h-1zM240 11940h1v2l-2 -1h1v-1zM243 11940h-1v-1h1v1zM236 11938h2v1l-2 1v-2zM244 11938l-1 -1v-1h1v2zM238 11937h-1v-1h1v1zM565 12288h-1v-1h1v1zM554 12291h-1v-1h1v1zM550 12291h-1l1 -1h1l-1 1zM560 12290h-1l1 -1h1l-1 1zM546 12290h-1v-1h1v1zM541 12290h-1v-1h1v1zM555 12289h-1v-1h1v1zM562 12288h-2v-1h3l-1 1zM530 12288h-1v-1h1v1zM542 12287h-1l1 -1h1l-1 1zM539 12287h-1v-1h1v1zM529 12287h-1v-1h1v1zM564 12286h-1v-1h1v1zM562 12286h-1v-1h1v1zM532 12286h-2v-1h2v1zM528 12285h-1v-1h1v1zM526 12285h-1v-1h1v1zM522 12285h-1v-1h1v1zM519 12285h-1v-1h1v1zM524 12284h-1l1 -1h1l-1 1zM517 12283l-1 1v-1h1zM517 12282h3h1l-1 1h-3v-1zM509 12282h-1v-1h1v1zM503 12281h-1v-1h1v1zM508 12280h-2v-1h2v1zM506 12282l-2 -2v-1l3 3h-1zM504 12279h-3l1 -1h2v1zM498 12280h-1v-1h1v1zM500 12279l-4 -1h-1l1 -1h4v1v1zM490 12278h-1l1 -1h1l-1 1zM473 12278h-1v-1h1v1zM494 12277h-1v-1h1v1zM492 12277h-1v-1h1v1zM466 12277h-1v-1h1v1zM489 12276h-1v-1h1v1zM482 12276h-1v-1h1v1zM480 12276h-1v-1h1v1zM460 12276h-1v-1h1v1zM487 12277h-1l-1 -1h1v-2h1v3zM483 12275h-1v-1h1v1zM476 12275h-1v-1h1v1zM480 12274h-2v-1h2v1zM470 12274h-3l1 -1h2v1zM464 12273h-1v-1h1v1zM458 12272h-2v-1h2v1zM455 12272h-1v-1h1v1zM468 12264h-1v-1h1v1zM466 12264h-6v-1h6v1zM456 12263h-1v-1h1v1zM465 12262h-1v-1h1v1zM458 12261h-2v-1h2v1z"/></svg>