<svg xmlns="http://www.w3.org/2000/svg" viewBox="-581 12506 1224 516"><g class="s" data-r fill="#000" fill-rule="evenodd"><path class="chunk" data-i="0" d="M-258 12880h-5l-3 -1l-2 -1h-2l-5 -6l-1 -1l-2 -5l-1 -4l3 -2h6l2 2h2l1 2l-1 6v2h-4l4 4l4 1l5 1l3 -1l1 1h-1l1 2h-1h-4zM-270 12872v-1h-1v1h1zM-60 12843l-3 1l-1 -3v-2l3 -8v-1l2 -2l-1 -2l2 -2h-1l1 -2l2 -2l1 -3l1 -5l2 -6l2 -2l2 -1v1h2l1 2l1 1l8 17l2 -2v-2l2 -5l1 -3l2 -2l1 -4l2 -7v-3l2 -3l5 1l1 3l-1 4l3 13l3 14l1 3l1 3l-3 3h-2v-2h-2l-2 -3l-1 -8h-1l1 -2h-1l-1 -8l-1 -1l-1 1l-1 2l-4 16l-1 4l-1 1h-4l-1 -1l-1 -3l-4 -6v-2l-1 -1l-2 -2v-2l-2 -2v-2h-1v2l-8 21l-1 3l-1 1h-2zM-136 12818v-2l2 -3h1v2l-1 1h1l-1 1l-1 1h-1zM-76 12849h-4l-1 -1l1 -2l-2 -17h-8l-1 3l-3 10l-10 19h-3l1 -3l2 -7l6 -12l1 -3l2 -2v-2l-1 -1l-6 1l-2 1v-1v-2l4 -1l4 -1v-2l2 1h2l2 -10l1 -3l2 -2v-2h3l1 2l1 6l2 3v4l12 -1v3h-3l-7 1v3l2 4l1 13l-1 1zM-84 12826h1l-1 -2l-1 -6l-1 -1v1l-1 3v2l-1 3h4zM-94 12832v-2h-1v1l1 1zM-135 12819l-3 9v4l-1 2h1l14 -2l7 -1v-1l1 -1v1h2v2l-2 2l-23 3l1 5v2l2 2v2l4 4h15v-6l1 -1l2 1v10l-2 3l-11 -1h-2l-4 -2l-1 -1l-2 -1l-4 -9l-1 -3l-1 -6h-1l1 -2l2 -9l2 -3v-2h-1l1 -1l2 -1v1h1zM-184 12868l-2 1l-2 -3v-6h1l-1 -2h1l1 -4l4 -19v-7l2 -2h2l1 -4l2 -2l1 -2l2 -4l4 -4l6 -3l4 -1l2 2v2v6v2l-2 2v2l-3 2l-1 3l-8 10h-2v3l2 2v1l5 2l5 2l2 1l4 3l2 1l5 4l1 9l-6 1l-1 -2l-1 -1v-2l-4 -6h-2v-2l-5 -2l-3 -1l-6 -4l-2 -1v-1h-1v2l-4 21l-3 1zM-170 12827l1 -1l6 -8l1 -2l1 -2h-1l-7 6l-1 2v2l-1 2l1 1zM-171 12828v-1h-1v1h1zM-204 12874l-1 10l-2 2v1h-3l-1 -1l1 -11l1 -13h1l-1 -2l1 -2h-1l3 -34l2 -9l1 -6h3v4l-4 24v35h1l-1 2zM-201 12813v-1h-1v1h1zM-186 12804l-2 -1l-2 -1v1l-14 1l-2 1v-1l-2 1h-12v-1l-2 1v-1h-2v1l-1 -1l1 -2l2 1v-1l17 1v-1l1 -1v1l2 -1l16 -2l2 -1v1h2v1h-1v2l-1 1h-2v1zM-245 12879l-3 1l-2 -2v-2h-1l1 -2v-1l4 -1l3 -4l1 -4l1 -5v-16l-2 -8l-1 -3l-9 -10l-2 -4l-2 -5l-1 -4l-1 -5l2 -2l3 -4l11 1l3 1l5 2l1 2v4v2l1 2l-1 1v-1h-2l-1 -2l-1 -4l-2 -1l-3 -1l-7 -1l-3 3l1 6l2 2l13 16l1 2l2 3v4l1 5v13l-1 5l-1 5l-1 2l-3 7l-6 3z"/><path class="chunk" data-i="1" d="M-316 12804v-4l2 2h-1l1 1v3v1h-1v-3h-1zM-314 12800h-1l1 -4v-1l2 1v3h-2v1zM-313 12798v-1h-1v1h1zM-310 12790h-1l1 -2l1 -3l2 1h1h1l-1 1h-2v1l-2 2zM-300 12782l-4 1v-1h3l3 -2h4v1l-3 1h-3zM-292 12781l-2 -1v-1l8 -1l-2 2h-4v1zM-136 12990l-10 1l-2 1v-1l-2 1l-11 -1l-9 -1h-8l-22 3l-12 1v1l-2 -1h-5l-9 -3l-3 -3l-1 -1v-2l-1 -1l-2 -2l1 -9l2 -9l4 -4l8 -6l2 -1l8 -3l6 1l4 1l4 3l2 1v-1l19 -17l3 -1l5 -5l-1 -1l-9 1h-7l-4 -1l-15 -2l-4 -1l-5 -2l-10 -4l-2 -2v-1l-4 -1l-3 -1l-35 -4l-3 -1l-7 -2l-18 -5l-2 -2l-2 -1l-8 -7l-2 -1l-2 -5l-1 -3l-3 -11l-1 -3l-1 -4h-2l-2 -2v-2h-1l1 -2h-2v-2l-4 -6v-2v-9v-4l8 -29v-1l2 1v2l-1 2h1l-1 2l-5 20v2l-1 4v10l1 2l4 8v2l2 1l3 3v1l1 3l1 3l3 13l2 2v2l4 2l5 4l4 3l5 2l15 5l7 2l37 5l3 1l4 1v1l2 2h1l9 4l5 2l4 1l15 2h2h9l12 -3l9 -6l8 -4l13 -3l5 -2h2l2 -3l3 -1h2l12 -3l5 -1l5 5l3 6h1l-1 2l2 2l3 6l1 2v1l1 -1l1 -2l2 -4l4 -6l2 -3h2l1 -1v-2l1 -1h2l1 -1v-2l21 -15l6 -3l3 -2h3l25 -3h2l1 -3l2 -5v-2l1 -1l3 -4l10 -2l13 -1v-1l6 -6l1 -3v-3l1 -4v-43l-1 -6v-3l-2 -3l-6 -9v-2l-1 -2l-7 -6l-10 -9l-11 -7l-3 -2l-2 -3l-7 -1h-10l-6 2l-8 2l-4 2l-4 1l-12 3l-5 1h-18l-2 -2l-2 -1l-6 -3l-4 -5l-5 -1h-11l-12 3l-3 1h-1l-2 1v-1l-2 2l-4 1l-2 2l-2 -1v1v1h-2l-2 2h-2l-4 3l-4 1v2h-2v1l-2 -1v1l-5 1v2l-5 1l-2 2l-2 -1v1l-12 -1l-4 -1l-59 2v2h-1v-1l-10 1v2l-2 -1h-1l-3 2l-6 3v1l-2 -1l1 -2l1 -2l5 -2l3 -2l8 -2l63 -4l8 1h10l2 -1l17 -8l12 -6l21 -8l4 -2h6h9h3l3 2l10 7l4 3h2h17l16 -4l7 -2l7 -2l6 -2h12h4l3 2l19 14h2v2l5 5h2l8 9v1l3 5l3 5l2 4l1 4l1 7v43l-2 9l-2 2v2h-2v2h-1l1 1l5 1l11 3l10 2l2 -2l1 -1l4 -1l3 -1h6l6 2h2l2 2h2l4 4l7 10l4 7l1 4v6l-1 7v10l1 4l1 4h1l2 -3l23 -1l13 -3l4 -1l7 -8v-1v-5l-3 -5v-2l-1 -7h-1l1 -2l1 -6l6 -6l2 -1l5 -5l3 -5l2 -5l-1 -2h1l2 -12l-2 1l-10 -1l-16 4l-2 1v-1h-2h-3l-26 7h-2l-23 7l-6 1l-1 -1v-2l1 -2h3l13 -6l21 -6h2l32 -10h3l3 2v2l-1 2h4l12 -4h4l4 4l-1 9l-1 5l-2 2v4l-2 2v1h-2l-3 5l-5 6h-2l-5 6l-1 4v8l1 3l3 6v2l-2 3v2l-4 5l-7 5h-2l-9 2l-5 1l-19 1v-1l-2 1l-9 8v2h-1v-1l-3 1l-31 10l-5 -1l-7 -1l-6 -2l-5 1h-1l-2 2h-4v-1l2 -2l4 -3l2 -1v1l6 1l9 2h2l2 1l15 -5l19 -7l4 -1v-2v-4l-2 -7v-9l1 -7v-7v-2l-2 -2l-1 -2l-2 -4l-8 -10l-1 -1h-2l-9 -3h-4l-7 2l-2 2h-2v1l-2 -1l-8 -1l-3 -1l-5 -1l-4 -1l-10 -1l-4 3l-2 1l-2 1v2l-2 2h-2l-8 4h-2l-2 1v1l2 2l1 3l2 1l4 1l3 1l10 3l4 3l1 4v8l-1 3v2l-1 4v9l1 4l2 6l1 6l-3 3l-1 1l-17 6l-2 1l-2 2l-2 1l-9 6l-4 2l-4 1h-23l-2 -1l-7 -4h-2l-5 -1v-1l-2 1v-1l-2 1v-1l-2 1h-10v1l-2 -1l-4 -1h-2l-6 -4l-2 -1l-2 -5l-1 -2h1l1 2l3 4h2v2l4 1l4 1v2l2 -2h2v2h1v-2h5v1h-3l1 1h3v-2h8h1l2 1v-1l3 1l4 1l1 1l2 1v2h3h25l3 -1l2 -1l9 -7l3 -1l20 -9h1l2 -1v-4l-2 -2l-4 -6l-1 -3v-14l1 -5l2 -2l1 -2h-1l-1 -4l-1 -1l-12 -3l-4 -1l-2 -2h-2l-3 -3l-1 -4l-2 -2v1l-20 1l-2 1v-1l-4 1l-7 2l-3 1l-2 3l-7 4v2l-3 1l-2 2l-2 1l-16 15l-2 4l-1 2h1v1h-2v3v12h1l-1 2v1l-3 -3v-1l-3 -11l-2 -5l-3 -6l-1 -3l-3 -2v-2l-5 -4h-3l-11 4h-2l-2 1l-1 1l1 1l8 -1l-1 2h1h1l-1 1l-8 -1v2h-6l-2 -1v1v1l-2 -1v1l-6 1l-3 2l-5 2l-7 3l-3 1l-2 2l-34 29l-6 1l-2 -3h-2l-3 -1h-4l-8 2l-5 3l-7 7l-1 8v5l1 5l5 4l7 1h14l27 -4l2 -1v1l6 1h3l5 1h17l7 -1l5 -1l9 -3l18 -14l5 -4l5 -2h3l13 -1v1l2 -1l1 1v2l-1 1l-14 1l-4 1l-5 2l-3 1l-10 8l-2 1l-6 5l-2 1l-6 2l-8 3zM-6 12878l2 -1l6 -3h2l6 -5l2 -1v-1l-7 1l-5 1l-4 3l-2 4v2zM131 12847v-1h-1v1h1zM134 12847v-1h-1v1h1zM-242 12915l1 -1h-1l-1 1h1zM-238 12915v-1h-1v1h1zM-84 12956v-1h-1v1h1zM-82 12957v-1h-1v1h1zM-67 12958v-1h-1v1h1zM-42 12965l1 -1h-1l-1 1h1zM-30 12621l-4 -1v-1h9l-1 1h-2l-2 1zM52 12604l-12 3l-4 -1h-2l-2 -2h-2l-2 -3l-4 1l-12 4l-20 8l-12 4l-5 1v-2h3v-1l2 1v-1v-1h2v1h1v-2l6 -2l7 -2l2 -1l2 -2l3 -1l11 -4l10 -4l3 -1h1l2 1v2l2 1l2 2h3l5 1l24 -6l14 -4l1 2v2l1 2h-1v2h-1l-1 -2l-1 -2h-3l-23 6z"/><path class="chunk" data-i="2" d="M321 12928v2h-1l1 2v1h-1l-2 -1l1 -4l1 -2v-2l2 -1v1l1 2h-1l-1 1l-1 1h1zM324 12920v-2l1 -2l1 -1h2v1l-2 2l-2 2zM537 12848l1 1l1 1h-1v2l2 -1l1 1l1 2l3 8l1 10v2l3 4l1 2l-2 1h-2v-3l-2 -2l-1 -3l-1 -9h1l-1 -2l-1 -4l-2 -2l-1 -2l-2 -2v-2l-2 -3l-2 -1h2v-1l3 2l-1 1h1zM532 12846h-10v-1h2v-1l2 1v-1l2 1h4v1zM504 12892l-4 1l-2 -1v1l-10 -1l-2 -2l-4 -1l-1 -1l1 -4l8 -30v-2l2 -2l4 1l2 1v2l5 2l18 7l7 3h2l3 2l1 2v2l1 2v6v2l-7 6l-5 2l-19 2zM510 12888l16 -2l4 -4h2v-2l1 -6l-2 -2l-1 -2l-2 -2h-3l-23 -8l-2 -1l-6 -5l-2 2v4l-6 18v4h-1l1 2l1 2l1 2h22zM490 12862v-1h-1v1h1zM372 12898l1 -1h-1l-1 1h1zM383 12905v-1h-1v1h1zM385 12907v-1h-1v1h1zM388 12909v-1h-1v1h1zM392 12912v-1h-1v1h1zM378 12928l1 4l3 2v-2h1v2l1 2l11 -1l15 -4l4 -1v-2l-2 -2v-2l-2 -1l-1 -1l-11 -4l-2 -1l-2 -2l-5 -3l-7 -4l-4 -2l-6 -4l-2 -2h-2v-2l-2 1h-2l1 -2l1 1v-1l6 -1l2 2h2l1 2h-1v1h1l1 1l1 -1l1 1v1l2 -1l2 2l2 2v1l2 -1l4 4l2 1l2 2l3 1l4 2l7 3h2l5 5v2l3 2h1v4l-6 4h-2l-2 1l-13 3l-6 1l-2 1v-1l-2 1v-1h-2l-2 1v-1h-10v-1l-2 1h-1l-3 -2h-2l-2 -2h-2h-7l-9 2h-12l-3 -1l-8 -3l1 -3v-2h2v-1l2 1h1v2h2l2 2h2h11l10 -2h6l3 1l2 1h1l2 2h10l-2 -3l-2 -4l-2 -3l-2 -2l-1 -2v-2l-1 -2v-1l1 1l1 1l2 4v1l2 2v2h2zM383 12936v-1h-1v1h1z"/><path class="chunk" data-i="3" d="M494 12805v-1h-1v1h1zM506 12807l1 -1h-1l-1 1h1zM516 12808v-1h-1v1h1zM536 12810v-1h-1v1h1zM526 12811v-1h-1v1h1zM549 12813v-1h-1v1h1zM555 12815v-1h-1v1h1zM558 12815v-1h-1v1h1zM564 12817v-1h-1v1h1zM568 12818l1 -1h-1l-1 1h1zM577 12821v-1h-1v1h1zM585 12824v-1h-1v1h1zM589 12825v-1h-1v1h1zM605 12831l1 1l-2 2l-2 -2h-2l-2 -1v1l-2 -1l-5 -1l-3 -1l-2 -2l-2 1v-1l-4 -1l-2 -1v1l-2 -1h-1l-5 -2l-14 -5h-4v-1l-2 1v-1l-11 -1l-1 -1v1h-1v-2l-45 -8l-4 -1l-3 -3h1v-2l7 1h3l53 9l17 4l21 8h3l2 1v-1h2v2l5 2h3l2 2h1v2h-1v1h1zM404 12845l-3 -1l-10 1v-1l1 -1v1l2 -1l10 -1v1l2 -1v1h2v-1l2 2h-6v1zM441 12840h-3v-2l-2 -2h-2l-5 -2l-13 -3v-1l-2 1v-1v-2h3v2h7l9 2h2l5 3v2l1 3zM424 12831v-1h-1v1h1zM454 12794h-2l-13 -6l-8 -1l-11 -1l-2 -2h14l8 2l4 1l4 1l3 2h1l2 2v2zM453 12778l-1 -2l-3 -1l-4 -1l-15 -6l-4 -2l-5 -4l1 -1l2 -1l2 3h2l2 2l2 1l13 4l11 4h2l2 2l-4 3h-1v-1h-1h-1zM467 12763h-3l-2 -2l-2 -1l-7 -2l-4 -2l-5 -1l-15 -5l-5 -2h-2l-2 -1v-1l2 -2v1h2l5 2l22 7l10 4l5 2l1 2v1zM425 12808h-3l-14 -5l-24 -5l-5 -1v3h-1l1 2h-1h-1l1 -6l-2 -2l-1 2l-1 2l-2 2l-1 3h-1l-2 2l-2 -1h-2l-2 -2v-2l-2 -2l1 -5l1 -2l6 -13l4 -10l4 -6v-2l2 -1v1h1v-2l3 -2v1l2 -1l2 1l6 5v5l-2 4v2l-1 1l-1 2l2 1l1 1l13 7l2 1l6 5l1 1l9 6l2 2v2h3v2h1l-1 2v2h-2zM373 12786l1 -2l6 -6l2 -5l2 -5l1 -2l-1 -2h-2l-2 -2v-2h-1l-1 2v2l-8 17l-4 9v3v2h2l2 -3l3 -6zM408 12796v-2l-4 -4l-2 -1l-10 -7l-3 -2l-3 -1l-2 3l-2 4l-2 3h2l2 2l6 1l12 3l6 1zM248 12757v-1l2 -2v1l1 -1l1 -1l1 1l-1 2l-4 1zM333 12748v-4l-1 -1h-2l-3 -1l-3 -1l-2 -2h-2v-1l-3 2l-1 4h-1l1 1l15 -1l1 2l1 2zM352 12782l1 -4l1 -2l2 -2v-2l2 -5l2 -7l1 -4l-1 -2l-10 -3l-2 -1h-2v2h2l3 2l-1 4l-2 2h1l-1 5l-4 1l-3 1h-1l-1 1h7l2 2l5 1v3l-1 1h-2v1l-2 -1h-1l-5 2h-3v-1l-1 -2l-2 1h-4v1h2l2 1l7 3h3l2 2h4zM311 12754l-2 2l-2 4l-1 2l2 3l2 1h2v-2l2 -2v-2h-1l1 -2l-1 -1h3l1 -1l-1 -1l-2 1v-3h-3v1zM324 12769l2 -1l-1 -2l-3 -4h-2l1 2h-1v2l-1 2h1h1l3 1zM339 12769v-1h-1v1h1zM290 12848l2 -2v-1l2 -2l6 -18l5 -7l5 -10v-2h1l-1 -2v-2l3 -2v-2l2 -5l1 -3l-1 -2h1v-2l2 -2l1 -3v-2h1l1 -1h-1l-2 -1l-2 -1l-1 2l-1 4l-2 2v1l-3 6l-7 15l-1 2l-2 2v2l-3 6l-4 9l-4 5l-2 5l-1 1l-2 2v3l3 1l4 4zM294 12805l2 -1v-2l2 -2v-2l6 -10l8 -10v-2l1 -2l-1 -1l-4 -1l-5 -2l-1 -1l-2 -1v-2v-8v-2l6 -8l8 -15v-2l8 1h2l11 5l4 1l3 1l6 5h2l14 5l5 5l-1 3v1l1 2l-2 2v1l-1 3l-2 4l-6 13v1l-4 4l-4 1v1l-2 -1l-2 -1l-7 -2l-4 -2l-7 -2v-1l-1 1l-3 5l-3 7l-2 2l-1 4l-1 2h1l-1 2v2l-2 2l-1 1l-3 8l-1 3l-2 2v1l-12 29l-2 3l-6 -1l-4 -3l-4 -2v-2h-2l-3 -3l1 -4l10 -15l6 -15l1 -3h1v-1v-1z"/><path class="chunk" data-i="4" d="M293 12807h-1l-2 1l-2 -2l-6 -68v-2l2 -1l1 1v2v10l9 57l-1 1v1zM439 12889h-3l-24 -8l-11 -7l-29 -12l-17 -7l-5 -2l-3 -3l1 -7v-2l11 -13l2 -2l1 -2l2 -2l2 -2v-1l9 -15l1 -2l2 2v1l-7 13l-2 2l-10 14l-2 2l-3 3l-2 1l-1 6l3 2h1l43 18l14 8l4 3l3 1h4h2l3 1l2 3h2l2 2h4v1l2 -1l4 -9l6 -16l2 -4l1 -1l2 -2l1 -3l10 -24l16 -39l4 -15l4 -10l4 -9v-2l1 -8l-1 -2l-4 -1h-2l-36 -11l-2 -2l-4 -1h-2l-2 -1l-2 -1v1l-2 -1l-2 -1v1l-1 -1v-1h-1l-2 -2l-4 -1l-2 -1v1l-1 2h1v2l-2 2l-8 13l-5 9l-5 8l-2 2v2l-2 2l-1 2l-1 4h-4l-2 -2l-1 -4l1 -2v-2l6 -6v-2l2 -2v-1l8 -13l2 -3l2 -4l2 -3l2 -2l1 -3l1 -2v-1l4 -4l6 -1l2 3h2l2 2h2l2 1l4 1l5 2l3 1l2 2l2 1h2l4 1l2 2l2 1l5 2l31 8v2h1l-1 2h1l-1 2v2l1 2h-1l1 2h-1v2h-1l1 2l-2 2v1l-3 5l-2 2l-1 3l-6 13l-1 4l-7 20l-6 14l-24 56l-2 4l-2 6l-3 4l-3 3h-1zM326 12709l-5 -1l-3 -1l-7 -7l1 -1l2 2l6 3l2 2h4l2 2l-2 1zM310 12908l-4 6l-2 4l-2 1l-2 1l-3 2l-1 2l-2 5v1l-2 2h-2l-3 -1v1l-7 7l-1 1l-5 2h-4h-3l-3 -1l-2 -2l-2 -1l-14 -11l-5 -5l-3 -6l-2 -3v-3l2 -3l3 -5l7 -8h2l2 -2v-2l2 -2l-1 -8h2v-2h2l5 -1l2 2l16 -1v1l2 -1l11 2l8 2l3 1l2 3h2l2 2v2l2 4l1 2v6l-1 2l-2 4zM274 12936l4 -2l4 -4v-2l5 -4l3 -7l1 -2v-6l-5 -8l-6 -3l-4 -3l-8 -5l-2 -1l-3 -2h-2l-3 1l-2 2l-1 2l-10 12l-2 2l-2 2l1 7v2l2 2v1l2 3l2 1l9 6l3 2l2 1l2 2l4 1h6zM300 12908l2 -2v-1l2 -2v-1l1 -2h-1l1 -2h-1l-1 -4l-3 -2h-1l-5 -4h-2l-5 -1l-9 -1l2 2l2 1l6 4l2 1l10 14zM256 12889v-1h-1v1h1zM219 12790v-1h-1v1h1zM210 12797v-3l2 1v-1v-2l6 -4h2v1h1v2l-2 1l-5 2v2h-2l-2 1zM215 12793v-1h-1v1h1zM224 12787v-1h-1v1h1zM223 12788v-1h-1v1h1zM220 12788l2 -3h2l2 -1l1 1v1l-1 2l-2 -1v1v1h-3v-1h-1zM227 12785v-3l3 -2v2h1v-2h3l-1 2v1h-1l-2 2h-3zM229 12783v-1h-1v1h1zM217 12766l1 -2h2l1 2h-1h-1v2l-2 -1l1 -1h-1z"/><path class="chunk" data-i="5" d="M221 12763v-1l1 -1h1v1h-1v1h-1zM232 12766v-1h-1v1h1zM227 12770v-1h-1v1h1zM220 12774h-2l2 -2l4 -3l2 -2l2 -1h2v-2h2l3 -2h1l2 -2h2v1h1l-1 1l-2 2l-2 -1v1v1l-4 1l-2 2h-2v2l-2 1h-2l-2 1l-1 2l-1 -1v1zM224 12761l1 -1h1v2h-2v-1zM241 12761v-1l2 -2v-1h1l1 1h-1v3h-3zM223 12761v-1l3 -4h2v1l-1 1h-1v1l-1 1h-1v1h-1zM243 12755v-1l3 -1l11 -7l4 -1v5l-1 1l-5 3h-2l1 -2v-1l2 1v-2h1l-1 -2l-4 4l-2 -1v1v1h-3v2h-1l-2 1l-1 -1zM259 12749v-1l-1 -1v1l1 1zM227 12758h1v-1l1 -1h1v-1h2l1 -1v-1h1v-1h1v-1h1v1l-4 4l-4 3h-1v-1zM229 12752v-1h1l3 -2v2h-1v1h-3zM245 12710l-5 1v-1l-2 1l-2 -1l-3 -1h-1l-2 -1v-2l2 -1l8 -1l4 -1l8 -3h2l1 -2l1 -1v-2l1 -2l1 -7l2 -1h2l3 3l-1 4l-4 12l-2 1l-1 1l-8 2l-4 2z"/><path class="chunk" data-i="6" d="M228 12669l-8 1l-3 -4v-1l-1 -3h2l1 2l3 3l2 -1h2l2 -1l2 -2h4l1 1v3h-1l-2 2h-4zM244 12662h-1v-4l6 -1l5 -1l1 -2l1 -2l5 1v4h-1l-2 2l-14 2v1zM248 12645l-4 -1h-2v-4l2 -2l1 -2v-1l1 1l2 2l2 2v2l-2 3zM228 12645l-2 -1l1 -4v-2h-1v-1h2v-1l2 1v-1h2v6l-4 3zM125 12766l4 -2h2v-2l3 -3h1l5 -2h2l2 -3l1 -7l-12 -2v-1l-1 -2l-4 -1v1l-2 -1l-8 1l-1 -2v-2l2 -2h-1h-8l-9 2l-11 3l-2 1l-5 4v8l1 1l6 -1l12 -2h2h2h2l1 2l1 2h-1v2l-1 1h-2v1l-2 2h-1v2l-1 4l2 1h2l3 -3l3 -3l2 -1v1l4 1l4 3l3 -1zM96 12761v-1h-1v1h1zM244 12582h2v-1h-2l-2 1v1l2 -1zM242 12584v-1h-1v1h1zM240 12585l1 -1h-1l-1 1h1zM264 12730v-1l5 -1l20 -5l5 -2v-3l5 -4l1 -2v-2l5 -14l1 -4h1l-1 -2h1l1 -6l1 -2h-1l1 -8l1 -2h-1v-2h1l-1 -2v-2h1l-1 -2h1v-4l-1 -2h1v-4l-1 -2h1l-1 -2l-3 -6l-1 -2l-1 -5h-2l-2 -1l-2 -5l-1 -2l-1 -4l1 -3l2 -2l1 -2l1 -2l-7 -4v-2l-2 1l-2 -2l-2 -1l-4 -2l-2 -2v-3l-2 -5v-2l-4 -3l-9 -3l-7 -1v1l-2 -1v1l-6 1l-8 3l-5 2v2l-1 1h-3l-9 12l-8 11l-2 3l-2 2l-2 7l-6 22v15l4 29l8 8h-1l1 2l-2 1h-1v2h2l1 2v2l1 1l5 5l4 2l2 2l11 3l15 1l2 1v-1h2l2 1v-1l2 1zM213 12608v-1h-1v1h1zM212 12609v-1h-1v1h1zM219 12609v-1h-1v1h1zM211 12610v-1h-1v1h1zM218 12610v-1h-1v1h1zM210 12611v-1h-1v1h1zM217 12611v-1h-1v1h1zM216 12612v-1h-1v1h1zM212 12739l2 -1h2l2 -1v1l2 -2v-1l-2 1h-2l-3 -1l-11 1v1l10 2zM243 12738v-1h-1v1h1zM241 12746v-1h-1v1h1zM239 12748v-1h-1v1h1zM238 12771v-1h-1v1h1zM236 12772v-1h-1v1h1zM209 12773v-1h-1v1h1zM234 12773v-1h-2v1h2zM244 12775v-1h-1v1h1zM231 12776v-1h-1v1h1zM207 12779v-3h-1v2h-1l1 1h1zM215 12778h2v-2h-1v1h-2l-1 1l1 1l1 -1zM212 12778v-1h-1v1h1zM208 12781l1 -1v-2h-1l-1 2l1 1zM211 12779v-1h-1v1h1zM205 12781v-1h-1v1h1zM218 12782v-1h-2v1h2zM215 12783v-1h-1v1h1zM214 12784v-1h-2l-1 1h3zM209 12785v-1h-1v1h1zM244 12811v-1h-1v1h1zM188 12812v-1h-1v1h1zM192 12813v-1l-1 -1v1l1 1zM206 12813v-1h-1v1h1zM196 12814v-1h-2v1h2zM238 12814v-1h-1v1h1zM240 12814v-1h-1v1h1zM236 12815v-1h-1v1h1zM237 12816v-1h-1v1h1zM233 12819v-1h-1v1h1zM229 12820v-1h-1v1h1zM231 12821v-1h-1v1h1zM225 12823v-1h-1v1h1zM227 12823v-1h-1v1h1zM224 12824v-1h-1v1h1zM221 12826v-1h-1v1h1zM220 12827v-1h-1v1h1zM217 12829v-1h-1v1h1zM216 12830v-1h-1v1h1zM213 12832v-1h-1v1h1zM212 12833v-1h-1v1h1zM211 12834v-1h-1v1h1zM209 12835v-1h-1v1h1zM208 12836v-1h-1v1h1zM207 12837v-1h-1v1h1zM218 12837v-1h-1v1h1zM205 12839v-1h-1v1h1zM205 12841v-1h-1v1h1zM212 12841v-1h-2v1h2zM252 12576v-1h-1v1h1zM294 12596v-6l-8 -1v1l2 1l6 5zM308 12602l3 -2v-2l-5 -5h-2v-1l-2 2h2l2 2l1 2h-1v2l-1 2h1h2zM303 12604v-1h-1v1h1zM315 12646v-2h1l-1 -2l1 -2l1 -2l-3 -26l-2 -3h-2l-2 3h1l1 2v2v7l2 3v4h1l-1 2h1l-1 2l1 5l1 7h1zM321 12628v-2l-1 -1v3h1zM326 12646h1l-1 -3l-4 -13v-2h-1l1 7l1 5l1 3l2 3zM316 12648v-1h-1v1h1zM322 12658v-1h-1v1h1zM323 12660v-1h-1v1h1zM324 12662v-1h-1v1h1zM325 12664v-1h-1v1h1zM326 12665v-1h-1v1h1zM327 12667v-1h-1v1h1zM317 12670v-2l-1 -1v3h1zM322 12668v-1h-1v1h1zM323 12670v-1h-1v1h1zM325 12677v-1l-1 -3v-1l-1 -1v1l1 4l1 1zM326 12697v-1v-2l-2 -6l-1 -2l-2 -2l-1 -4l-1 -5h-2v2v6l1 2l2 4l2 4l4 4zM245 12739v-1l-1 -1v1l1 1zM253 12764v-1h-1v1h1zM260 12765v-1h-1v1h1zM248 12770v-1h-1v1h1zM250 12771v-1h-1v1h1zM247 12773v-1h-1v1h1zM246 12775l-2 1l-3 1l-1 -1v1h-1v2h-1l-2 2l-2 -1v-2l2 -1h1v-2h5v-2h3v-1l1 -2l-5 2l-2 1l-3 1l-2 2l-2 1l-8 3l-9 4l-3 1l-4 1l-2 -2h-2v-2h-1l-1 2l-4 8l-5 8l-3 5v1l-2 2v1h2l4 -5h2l4 -3h1v-1l1 -1v1h1v-2h3v-2h2v-1l1 1v1h1l-2 2l-8 5l-2 1l-2 3h-2l-1 2h-1v1h1l1 1v-1l2 2h4v-1l-1 -1h2l3 1v-1h2v-1l-2 -2l4 1l1 -1h-1v-1l7 -2l5 -1l4 -2h2l18 -5l8 -1l2 -1v1h2l1 2l1 2h-1l-2 5h-1l-6 6h-3v1l-1 2h-2l-4 2l-20 14l-2 2l-3 2l-3 2h-1v1h-1l-1 1l1 1l6 -1l2 -3h2v1l1 -1l3 -2l2 -1h2l16 -5l2 -1l4 1l3 -1h4h3v-1l2 1l2 2v1v3l-2 2l-2 3h-2v2l-5 2v2h-1h-1l1 1l6 -1l4 1h2v4l-22 4h-7v-2h-1l1 -2v-2l3 -1l6 -4l4 -3l2 -2l3 -2l-1 -1l-5 1l-13 2l-10 4l-4 1l-8 3l-5 -1h-1l-2 -1v-4l4 -5l3 -1l3 -3l2 -1l4 -4h2l4 -4h3v-2h1l4 -3h2l2 -2h1v-2l5 -2l6 -7h-2l-26 8h-2l-22 6h-4h-2l-2 -2l-2 -2v2l-2 5l-1 3l-2 2l-1 2l-2 6v3v2h2l2 2h4l2 2h2l13 5l9 4l20 6h6l2 1v-1l2 1l10 1l1 2l-1 4l-2 1l-11 -3h-5v-1l-2 1v-1l-20 -5l-26 -9l-4 -1l-6 -2l-4 -4h-2v-2l-2 -2l1 -4l1 -2l3 -6l2 -4l1 -2l2 -4v-2l6 -9l8 -13l1 -2l3 -5l18 -35v-2h1l-1 -1l-14 -3l-7 -1h-17l-24 3l1 2l-1 6l-1 8l-3 4l-3 1h-2l-3 1l-6 5l-4 2l-5 2h-5l-2 -1h-2h-2l-9 4h-3l-2 -1l-3 -3l-2 -2v-2l-1 -2h1l-1 -2h1l-1 -2v-2h1l-1 -1h-12h-2l-2 -3l-1 -3l-1 -11l3 -2v-2l5 -4h2l10 -3h22l10 1l4 2h3l11 -2l39 -2l6 -1h12l5 1l4 1v-1l2 1l5 1h2l2 -2h1h1l-3 -4l-4 -1l-6 -7v-1l-3 -5l-2 -4l1 -2v-2h1l-1 -1l-3 -3l-2 -2v-12h-1l1 -2l-3 -18l-1 -2h1l-1 -2l1 -10l6 -25l4 -8l4 -7l1 -2h-1v1l-7 3l-3 1l-2 -3l2 -4l4 -4h2l1 -2l-1 -2l2 -2l7 -4v-2l7 -6h1l3 -6h4l2 -2h2l2 -5l1 -2h3l2 2l2 -1l5 -3l3 -1h3h2l5 1v2h5h1l2 1v2h2l2 2h2v-1l2 1l4 -1l4 -1l2 -1v1h2l2 2v4l2 2l6 -1l3 3l1 2l4 2l2 2l3 6l1 3l3 15l1 2l10 25v3l1 6l-2 2l1 4l2 2l1 8h1l-2 2v2h-4l1 9v2l-2 3v2h-1l1 2l1 5v8v2h-4l-4 -5l-2 -2l-3 -4l-1 -3l-1 -1l-1 -1l-1 1v2l-4 12l-3 10l-2 2l-4 7l-1 1l-3 3l-1 1l-4 1l-17 5l-16 2v1l-2 -1v1h-2v-1l-2 1v-1h-1v2h-2l-9 12h-2l-2 1l2 -3h-2l-1 2v1h-1v-1v-1h-1l1 -2h2v-2h2v-1v-1l2 1v-2l2 -1l2 -1v-1h-2v-1l-2 1v-1l-2 2l-2 -1l-2 1l1 2h-1l-2 1v-1l-2 1l-6 -1v2l-2 2l-3 6l-9 18l-1 2h1l1 -2v-1l2 -1h2v2l-1 1h-2v2h-2v1l-1 2h1l2 -1v1l1 -1h1l1 -1h3l-1 2l1 1l2 -1l2 -1l9 -3l18 -9l3 -1l2 -2l5 -1l5 -1l1 2v2l-3 3l-4 3h-1l2 -2l-1 -1l-4 3v-1l-1 1l-1 2l-2 2h-2l-1 2h-1v1zM248 12845l1 -1h-1l-1 1h1z"/></g><g class="f live" data-r data-f="0" fill="var(--live,#000)" fill-rule="evenodd"><path class="chunk" data-i="1" d="M-191 12652l-11 -1l-8 -1l-2 -2l-3 -2l-1 -2v-2l-1 -2l-3 1l-12 5l-2 1l-2 2h-4v-3l3 -1l19 -10v-1v-1l2 1h2l1 2h-1l1 2v1l2 5h1l2 2l8 2h4l30 -4l24 -6l2 2v3h-2v1l-2 3h-2l-2 -2l-2 1l-41 6z"/><path class="chunk" data-i="2" d="M-135 12534v-1h-1v1h1zM-138 12538v-1h-1v1h1zM-99 12553l5 1v-1l2 1l14 -1v1h1v-2h1v1l2 -1l2 1v-1l15 -4l5 -2l4 -1l7 -3h2l1 -1l4 -3h2l3 2v3l3 1h20l6 1l2 1l-1 4v2l-1 1l-2 -1h-1v-2l-1 -1l-26 -1l-4 -4l-2 2h-2l-9 4l-8 2l-3 2h-2v1l-2 -1v1l-12 2v1l-2 -1v1h-23h-5l-8 -3l-6 -2l-2 -1l-6 -4h-2l-2 -2l-2 -4l-2 -3l-2 1l-10 4l-4 2h-4l-2 2v-1l-2 1l-2 1l-2 1v-1l-2 1l-6 1l-2 1v-1l-2 1l-6 1v-1h1v-2l5 -1l16 -4h2l2 -1l3 -2l1 1l1 -1h3v-2l2 -1v1v1l2 -1l2 -2h-1l1 -2l2 -2v1l1 -1l1 -2l4 -2l3 2l1 2l2 4v2l4 3l4 3h2l2 2h2l12 5v1l1 -1zM-81 12557v-1h-1v1h1zM-75 12556v-1h-1v1h1zM-4 12547v-1h-1v1h1zM0 12548v-1h-1v1h1zM-216 12565h-2l-2 -1l2 -2l2 2v1zM-217 12564v-1h-1v1h1zM502 12975h-17l-4 -1l-19 -8l-2 -1l-2 -2h-2l-2 -3h-2l-7 -8l-1 -1v-2v-3l2 -6l2 -3l14 -17l1 -2l1 -2h-1v-3h5l1 1v2l13 3l5 2l15 4l4 2l8 7v2l2 3l1 5l-1 2h1l-1 2v3l-2 3v2l-5 4l1 2h-1l1 2h-1l-1 6l-2 2l-2 1l-2 2zM501 12970h1l2 -2v-11v-2l-2 -3l-2 -3l-2 -3l-6 -5l-14 -12l-4 -2l-2 -1v-2l-6 -6h-2l1 2h-1l-1 2l-2 4l-12 16l-3 4v2l2 2v2l6 5l2 1l5 4l20 8l2 1l18 -1zM508 12955l2 -1l1 -6l1 -2h-1l1 -2v-1l-2 -5l-1 -2l-5 -5l-2 -1l-4 -1l-3 -1l-10 -3h-1l-4 -4h-4l-1 1l3 3l5 3l8 8l5 3l7 7v2h2l3 6v1z"/><path class="chunk" data-i="4" d="M612 12635l-6 -2h-2v1l-2 -1l-2 -1v1l-3 -1l-7 -2l-4 -4v-1l-2 -4l-2 -5v-1l-2 2l-3 1l-10 3l-12 3h-7l-9 -2h-2l-6 -4l-3 -6l-3 -7l-1 -4l-1 -9h1l-2 -2l-12 12l-12 9l-2 1l-2 2h-2l-2 2h-1l-24 12l-18 4l-5 1v-2h-2v1l-2 -1h-2l-2 2l-2 -1h-1l1 -2v-2l12 -2l16 -4l10 -4l10 -5l14 -8l3 -3l10 -7v-2h1l4 -3v-2l2 -1l3 -3v-1h1l2 -1v-3h2l1 -5v-2l7 -2l3 2l1 7l1 22l1 3v2l1 2l5 4l5 2h5l2 -1v1l2 -1l3 -1l7 -2h2l2 -1l2 -2l2 1v-2l3 -1l2 -1h1l2 -2l2 -3l8 -1l3 4v18l1 1l10 2l8 1l2 2v3h2v3h1l-1 2h-6v1zM438 12630l1 -1h-3v1h2zM524 12590v-1h-1v1h1z"/></g><g class="f live" data-f="1" fill="var(--live,#000)" fill-rule="evenodd"><path class="chunk" data-i="1" d="M-189 12649l-9 1h-7l-3 -2h-1l-3 -2l-1 -1l-1 -2l-1 -1h-3l-13 8l-2 1l-2 2h-5v-2l3 -2l21 -12v-1v-1l1 1h2l2 1l-1 1l1 1l1 1l2 4h2l2 1l8 1h3l26 -3l23 -6l1 2l1 3l-2 1v1l-2 3h-2l-2 -2l-1 1l-38 3z"/><path class="chunk" data-i="2" d="M-135 12537v-1h-1v1h1zM-137 12540l-1 -1h-1v1h2zM-98 12556l5 1l2 -1h1l14 -3h1v-1v-1l1 1l1 -1l1 -1v1l1 -1l11 -6l4 -2l4 -1l8 -2l2 -1h2l3 -2h3l3 2v2l3 1l21 4l7 3l1 2v4l-1 2l-1 1l-1 -1h-1v-2l-2 -2l-27 -7l-5 -4l-3 1h-1l-11 3l-7 3l-3 1l-1 1l-1 1v-1l-1 1l-8 4v1h-1l-1 1l-23 4l-6 -1l-8 -1l-5 -3l-2 -1l-5 -4l-1 -1l-3 -3l-2 -3l-3 -3h-2l-10 4h-4h-5l-2 2l-1 -1l-1 1l-4 1l-1 1l-2 -1l-1 1l-9 1l-1 1l-1 -1l-1 1l-6 2v-1l1 -1v-2l5 -1l19 -4h2h3l3 -2l2 1v-1h3v-1l2 -1v1l1 1l1 -1h1l1 -1l-1 -1h1v-1l1 -2l1 1h1v-1l1 -1l4 -2l3 2l1 2l3 4l1 1l3 4l4 3h2l1 2l3 1l12 4l1 1v-1zM-79 12557v-1l-1 1h1zM-74 12555v-1v1zM-5 12550v-2h-1l1 1v1zM-1 12552v-2h-1v1l1 1zM-218 12563h-3l-1 -2l2 -1h1l2 2l-1 1zM-219 12562v-1h-1v1h1zM502 12977h-14l-4 -1l-23 -10l-2 -1l-3 -2l-2 -1l-4 -4h-1l-6 -10v-1l-1 -2l1 -3l4 -5l2 -2l11 -19l1 -2l1 -1l-1 -1l1 -2h3l1 1v1l12 2l6 3l19 7l5 3l8 10v1l1 3l2 5l-1 1l1 1l-1 1v3l-1 3l-1 2l-6 6l1 1l-1 1l1 1l-1 1l-1 6l-2 1l-3 1l-2 2zM501 12973h2l1 -2l1 -11v-2l-2 -2l-2 -4l-2 -3l-7 -7l-20 -18l-3 -2l-2 -1v-2l-4 -5h-1l-1 1h1l-1 1l-1 2l-1 4l-10 17l-3 4l-1 1l1 2v2l5 7l2 1l6 6l24 11h2h16zM510 12957l2 -1l1 -7l1 -1l-1 -1l1 -1v-1l-2 -5l-1 -2l-6 -7l-2 -1l-5 -3l-4 -2l-13 -4l-2 -1l-4 -4h-4h-1l3 4l6 4l10 10l7 5l9 10v1l2 1l2 5l1 1z"/><path class="chunk" data-i="4" d="M609 12632l-6 -1h-1l-1 1l-1 -1h-1l-1 -1l-1 1l-2 -1l-6 -2l-3 -4v-1l-1 -4l-1 -5v-1l-2 2l-1 1l-9 6l-13 5l-9 1l-12 -1l-2 -1l-7 -4l-4 -7l-3 -9l-1 -6l-1 -11l1 -1l-1 -2l-11 14l-11 8h-2l-3 2h-2l-3 1l-2 1l-24 12l-15 6l-4 1v-1l-1 -1l-1 1h-1h-3l-2 1h-1h-1v-1l1 -1l12 -3l12 -8l8 -5l9 -5l17 -7l4 -1l9 -8l1 -1l1 -1l3 -4v-1l1 -2h1l2 -3v-1h2l1 -2l1 -2l2 -1l1 -4l1 -1l8 -2l2 2l1 6l-1 27l1 4l1 3v2l6 5l8 2h7l1 -1h2l1 -1l4 -1l8 -3l2 -1l3 -1l1 -2l1 1v-1l1 -1h2l1 -1l1 -1l2 -1v-1l2 -1l6 -2l2 2l-2 14l1 2l10 3l9 1l2 1v3l1 1v2l1 1l-2 1h-5l-1 1zM440 12629l1 -1h-2l-1 1h2zM521 12586v-1h-1v1h1z"/></g><g class="f live" data-f="2" fill="var(--live,#000)" fill-rule="evenodd"><path class="chunk" data-i="1" d="M-192 12650l-11 1l-6 -1l-2 -2l-2 -2v-1l-1 -2v-1h-3l-12 5h-2l-2 2h-4v-3h2l21 -9v-2h1l1 1h2l1 1l-1 1l1 1v2v4h1l2 2l6 1h3l28 -7l26 -7l2 2l-1 4h-1l-1 2l-2 2h-3l-2 -2l-1 1l-40 7z"/><path class="chunk" data-i="2" d="M-132 12537v-1h-1v1h1zM-135 12542v-1h-1v1h1zM-100 12549h3l1 -1v1l14 -1l1 2v-1l1 -1v-1l1 2l1 -1h1l2 1l1 -1h15l5 -1l4 -1l7 -2l2 -1h2l3 -4h3l3 4v3l3 1l23 -1h7l2 1v4v1l-2 2l-1 -1h-1l-1 -1l-2 -1l-30 1l-4 -5l-2 2h-2l-8 3l-8 1h-3h-1l-1 1l-2 -1l-1 1h-13l-1 1l-1 -2l-1 1h-21h-3h-6l-5 -1h-2l-6 -2h-2l-2 -2l-2 -4l-3 -2l-1 1l-11 5l-4 1l-4 1l-2 2l-1 -2l-1 1l-3 1l-1 1l-1 -2l-1 1h-7v1l-2 -2v1h-7v-1v-2h5l16 -1h3h2l3 -3l2 2v-1h3l1 -2l1 -2l1 1v1v1l1 -2h1l2 -1l-1 -2l1 -1v-1l2 -2v1h1v-2l1 -2l4 -2l2 3l1 2l2 4v1l4 3l5 1h1l2 2l2 -1l9 2v1l1 -1zM-85 12553v-1l-1 -1v2h1zM-79 12552l1 -1h-2v1h1zM-1 12549l-1 -1h-1v1h2zM3 12549v-1h-1v1h1zM-221 12564h-2l-1 -2l1 -1h1l2 1l-1 2zM-221 12563v-1h-1v1h1zM505 12977l-17 3l-5 -1l-21 -11l-1 -1l-2 -2h-3l-3 -3h-1l-10 -8l-1 -2l-1 -2l-1 -3l3 -8l3 -3l16 -19v-1l1 -1l-1 -2v-2l4 1l2 2l1 1l12 6l5 3l16 4l5 2l10 7l1 2l2 3l1 5l-1 1l1 1l-1 1l-1 3l-1 2l-1 2l-5 4l1 1l-1 1l1 1l-1 1v6l-2 2l-2 1l-2 3zM505 12972h1l1 -2l-1 -12l-1 -2l-2 -3l-3 -3l-2 -3l-6 -5l-14 -12l-3 -2l-3 -2v-1l-8 -8l-1 -1v1l1 1l-1 1l-1 2l-2 3l-15 17l-2 6v2l1 2l1 2l8 6l2 1l6 3l22 11l3 1l19 -3zM511 12956l1 -1l1 -6l1 -1l-1 -1h1v-2l-3 -5l-1 -1l-7 -5h-2l-5 -2l-3 -1l-9 -3h-2l-4 -5l-3 -1l-1 1l4 4l4 4l8 6l5 3l9 8v1h2l3 5l2 2z"/><path class="chunk" data-i="4" d="M608 12633l-4 -3h-2l-1 1v-1l-1 -1l-1 -1l-1 1l-2 -1l-7 -2l-3 -2v-1l-2 -3l-1 -4v-1l-3 2h-3l-11 3l-12 4l-5 1l-6 -2l-1 -1l-5 -3l-5 -6l-5 -7l-2 -4l-3 -8l1 -1l-2 -1l-12 11l-14 11l-2 1l-2 2h-2l-2 2h-1l-21 7l-22 5l-5 1l-1 -2h-1l-1 1l-1 -1h-3l-2 2v-1h-1v-3v-2l12 -2l19 -5l11 -2l8 -3l12 -7l4 -3l11 -10v-1h2l3 -4v-1l2 -1h1l2 -2v-2h1l1 -1v-2h1l1 -6v-2l7 -1l3 4l3 8l5 19l2 3l1 1l1 2l4 4l4 1l4 1l1 -1l1 1l1 -1l3 -1l7 -1l2 -1h3l3 -2v1h1v-2h4l2 -1l1 -1l2 -2v-1l2 -3l7 -1l3 3v17l1 1l6 2l7 1l1 2l1 4l1 1l1 2l1 1l-1 2l-5 -2l-1 1zM434 12628v-1h-2v1h2zM523 12592l-1 -1h-1l1 1h1z"/></g><g class="f jolt-f live" data-f="3" fill="var(--live,#000)" fill-rule="evenodd"><path class="chunk" data-i="1" d="M-195 12648l-11 -1l-8 -2l-2 -1h-1l-2 -2l-1 -1v-2l-1 -1l-2 1l-8 8h-1l-2 1l-3 1l1 -1l3 -1l12 -13v-1v-1l1 1l1 -1h2l-1 2l1 1l2 4h1l2 2l8 1h4h30l27 3l3 2l1 3h-3v1l-2 1h-3l-3 -2h-1l-44 -2z"/><path class="chunk" data-i="2" d="M-130 12532h-2v1l2 -1zM-135 12535h-1h1zM-103 12550l5 2h1l1 1l14 2h2v-1l1 1l1 -1h1l2 1h1l17 -4l5 -3l5 -1l6 -4l2 -2h2l2 -3h3l4 3l1 2l3 1l24 2l5 2l1 1l-2 2l-1 2l-1 1l-1 -1h-1v-1v-1l-27 -2l-6 -5l-2 2l-1 1l-9 6l-10 3l-4 1h-2l-1 1l-1 -1l-1 1h-12l-1 1l-1 -1l-1 1l-23 -4l-6 -1l-8 -3l-6 -3l-1 -1l-3 -5h-1l-1 -3l-1 -3l-2 -1l-2 1l-10 6l-4 3l-3 1l-2 3h-1l-1 1l-2 2l-1 1h-1l-1 1l-7 3l-1 1l-1 -1l-1 1l-7 2l-1 -1h2v-1l5 -2l15 -8l2 -2l2 -1l2 -3h2v-1l3 -1v-1l2 -1l1 1l1 -1l1 -1l2 -1h-1l1 -1v-1l2 -1h1h1l2 -1l6 -2l2 1l1 2v1l1 3l3 2l1 1v2l2 1l11 7l1 1v-1zM-83 12557l-1 -1h-1l1 1h1zM-78 12557l-1 -1v1h1zM1 12549v-1h-1v1h1zM4 12550v-1h-1v1h1zM-212 12569h-3l-2 -2l1 -2h1l3 2v2zM-213 12568l-1 -2h-1v2h2zM499 12967l-14 3l-2 1l-17 -1h-2l-3 -2l-2 1l-3 -4h-1l-8 -12l-1 -2l-1 -3v-4l1 -6l1 -3l12 -13l1 -3l2 -1l-1 -1v-3h5l2 1v2l16 3l7 3l17 4l4 3l3 6v1v3v4l-1 1h1l-1 1l-1 3l-1 3v1l-3 4v1h-1l1 1h-1l-2 5l-2 1h-3l-2 2zM500 12963h1l2 -1l4 -6v-1v-1l-1 -1v-1l-5 -4l-21 -15l-5 -2l-3 -2l-1 -2l-8 -7h-1h-1l2 2l-2 1l-1 2l-3 3l-9 12l-1 5v2l1 3l1 2l6 9l2 1l7 4l20 2l1 -1l15 -4zM509 12954l1 -1l2 -5v-1l1 -1v-1v-4v-1l-3 -5h-1l-4 -2l-3 -1l-12 -3l-2 -1l-7 -5h-5l-1 1l6 4l7 5l11 9l5 4l5 5h-1h1v2v1z"/><path class="chunk" data-i="4" d="M616 12641l-9 -2h-2l-2 1l-1 -1h-2l-2 -2l-1 1l-4 -1l-11 -5l-5 -6v-2l-2 -6v-8l-1 -1l-2 3l-1 1l-6 4l-8 2h-7l-10 1h-2l-6 -1l-3 -3l-1 -6v-4l1 -9l1 -1l-1 -1l-15 9l-11 8l-1 1l-2 3h-2l-2 2l-2 1l-34 11l-15 -1l-4 -1v-2h-1l-1 1l-1 -1l-2 -1l-2 2l-1 -1h-2l1 -2v-1l10 -1h12l12 -3l14 -5l15 -10l3 -2l10 -5v-1h2l4 -3v-1l2 -1h2l3 -2l1 -2h1l2 -2v-2l3 -1v-5v-2l7 -4l3 3l2 7l-1 26l1 3v2v1l5 2h5l6 -1l1 -1v1l1 -1l3 -1l4 -4l2 -1l1 -2l2 -2l1 1v-1l1 -1l2 -2l2 -2h1l2 -2v-1l4 -3l6 -2l2 3l-3 24l3 3l15 5l12 2l2 2l1 5h2l1 3l1 1l-2 2h-6l-1 1zM438 12625v-1l-2 -1v1l2 1zM530 12595v-2h-1v2h1z"/></g><path class="grain" fill="#000" fill-rule="evenodd" d="M-555 12998h-1v-1h1v1zM-543 12997h-1v-1h1v1zM-554 12997h-1l1 -1h1l-1 1zM-556 12997h-1v-1h1v1zM-552 12996l-1 -1l3 -1h1l-1 1h-2v1zM-554 12995h-1v-1h1v1zM-91 12949h-1v-1h1v1zM-91 12931h-1v-1h1v1zM-100 12917h-1v-1h1v1zM-102 12917h-2v-1h2v1zM-104 12916h-1v-1h1v1zM-109 12915h-1v-1h1v1zM-108 12914h-1v-2h1l1 2h-1zM-110 12913h-3l1 -1h2v1zM-252 12877h-1v-1h1v1zM-246 12870h-1v-1h1v1zM-58 12821h-1v-1h1v1zM-118 12830h-2v-1h2v1zM-139 12821h-1v-1h1v1zM-94 12821l-1 -1v-1l1 1v1zM-135 12818h1l-1 1v-1zM-94 12818h-1v-1h1v1zM-137 12818h-1v-1h1v1zM-133 12816v-1h1v1h-1zM-94 12816l-1 -1v-1h1v2zM-128 12814h-2v-1h2v1zM-132 12813l1 1l-1 1v-2zM-93 12813h-1v-1h1v1zM-125 12813h-1v-1h1v1zM-130 12813h-1v-1h1v1zM-133 12813v-1h1v1h-1zM-124 12812h-1l1 -1h1l-1 1zM-128 12812h-1l1 -1h1l-1 1zM-118 12811h-2v-1h2v1zM-121 12811h-1v-1h1v1zM-181 12825l-1 -1v-4h1v5zM-200 12808h-2v-2l2 2zM-228 12805h-1l1 -1h1l-1 1zM-226 12804h-1v-1h1v1zM-230 12804h-1v-1h1v1zM-225 12803h-1v-1h1v1zM-246 12781l-1 -1l1 -1l1 1l-1 1zM-315 12807v2h-2l1 -5v2v1h1zM-314 12802h1l-1 1v-1zM-311 12792h1l-1 1v-1zM-311 12793l-1 1h-1l1 -2v1h1zM-312 12792v-2h1v2h-1zM-304 12786h-1v-1h1v1zM-301 12785h-1v-1h1v1zM-306 12785h-1v-1h1v1zM-304 12784h-2v-1h2v1zM-296 12783h-1v-1h1v1zM-288 12782h-1v-1h1v1zM-290 12782h-1v-1h1v1zM-247 12779h-1v-1h1v1zM-249 12778h-1v-1h1v1zM-263 12778h-1v-1h1v1zM-251 12777h-1v-1h1v1zM-284 12779h-1v-1h1v1zM-280 12778h-1v-1h1v1zM-282 12778h-2v-1h2v1zM-276 12777h-1v-1h1v1zM-35 12619h-1v-1h1v1zM-38 12617h-1v-1h1v1zM-37 12616h-1v-1h1v1zM-38 12615h-1v-1h1v1zM-40 12614l-2 -2h2v2zM-448 12588h-1v-1h1v1zM-100 12553v-1l1 1h-1zM-190 12557h-1v-1h1v1zM-202 12557h-1v-1h1v1zM-188 12556h-2v-1h3l-1 1zM-201 12555h-1v-1h1v1zM-186 12554h-1v-1h1v1zM-181 12554h-3v-1h2v-1h1v2zM-184 12553h-2v-1h2v1zM-180 12552h-1v-1h1v1zM-179 12549h-1v-1h1v1zM-174 12548h-1v-1h1v1zM-167 12547h-1v-1h1v1zM-164 12546h-1v-1h1v1zM-160 12545h-1v-1h1v1zM-156 12544h-1v-1h1v1zM-151 12542v-1l2 1h-2zM-156 12542h-1v-1h1v1zM-147 12541h-1v-1h1v1zM-151 12541h-1v-1h1v1zM-149 12540h-1v-1h1v1zM-143 12538h-1v-1h1v1zM-141 12537h-1v-1h1v1zM-219 12566h-1v-1h1v1zM-214 12563h-1v-1h1v1zM-213 12560h-1v-1h1v1zM-211 12559h-1v-1h1v1zM-204 12558h-1v-1h1v1zM-204 12556h-1v-1h1v1zM-452 12585h-1v-1h1v1zM382 12932h-1v-1h1v1zM378 12927l1 1h-1v-1zM377 12926h1v1l-1 -1zM376 12926v-2h1v2h-1zM375 12923h-1v-1h1v1zM321 12927l1 1h-1v-1zM324 12923v1l-1 -1h1zM324 12921l1 1l-1 1v-2zM323 12923h-1l1 -2v2zM323 12921v-1h1v1h-1zM327 12920h-1v-1h1v1zM368 12916l-1 -2l1 -1l1 1v2h-1zM370 12913h-1v-1h1v1zM330 12915h-2v-3h2l-1 2h1v1zM367 12912h-1v-1h1v1zM366 12910h-1v-1h1v1zM332 12910h-1v-1h1v1zM365 12909h-1v-1h1v1zM333 12909h-1v-1h1v1zM364 12908h-1v-1h1v1zM537 12847l1 1h-1v-1zM508 12847h-1v-1h1v1zM505 12847h-1v-1h1v1zM502 12847h-1v-1h1v1zM532 12845v-1l2 1h-2zM518 12846h-3v-2h1v1h3l-1 1zM510 12846h-2v-2l2 1h1l-1 1zM530 12844h-3l1 -1h2v1zM522 12844h-1v-1h1v1zM520 12845l-1 -1v-1l1 1v1zM517 12844h-1v-1h1v1zM496 12844h-1v-1h1v1zM377 12901v-1h1h1v1h-2zM363 12907h-1v-1h1v1zM364 12906h-1v-1h1v1zM356 12904h-1v-1h1v1zM355 12903h-1v-1h1v1zM337 12903h-1v-1h1v1zM356 12902h-1v-1h1v1zM348 12902h-2v-1h2v1zM340 12901h-1v-1h1v1zM342 12900h-1v-1h1v1zM344 12899h-1v-1h1v1zM338 12898h2l-2 2l-1 -1h1v-1zM337 12899h-1v-1h1v1zM337 12898l1 -1v1h-1zM341 12898l-1 -1v-1h1v2zM368 12896h-1l1 -1h1l-1 1zM362 12898l-3 -1v-2h2l3 1l-2 2zM358 12896h-2v-1h2v1zM351 12896h-1v-1h1v1zM348 12896h-1v-1h1v1zM365 12897v-1l-1 -2h2v3h-1zM362 12895h-1l1 -1h1l-1 1zM340 12895h-1l1 -1h1l-1 1zM337 12895h-1v-1h1v1zM361 12894h-1v-1h1v1zM358 12894h-1v-1h1v1zM356 12894h-4v-1h4v1zM350 12894h-2v-1h3l-1 1zM344 12894h-1v-1h1v1zM339 12894h-1v-1h1v1zM341 12893h-1v-1h1v1zM337 12893h-1l-1 -1l1 -1l1 1v1zM605 12830h1l-1 1v-1zM539 12816l-1 1v-1h1zM537 12817h-1v-1h1v1zM534 12817h-2v-1h3l-1 1zM530 12817h-1l1 -1h1l-1 1zM527 12817h-1v-1h1v1zM529 12816h-1v-1h1v1zM526 12816h-1v-1h1v1zM520 12816h-1v-1h1v1zM532 12815h-2v-1h2v1zM527 12815h-1v-1h1v1zM511 12813h-1v-1h1v1zM501 12812h-1v-1h1v1zM504 12811h-1l1 -1h1l-1 1zM497 12818h-1v-1h1v1zM498 12817h-1v-1h1v1zM498 12815h-1v-1h1v1zM496 12816h-1v-5h3v1h-2v4zM494 12812h-1v-1h1v1zM500 12810h-2v-1h2v1zM494 12811v-1l2 -1h1l-1 1l-2 1zM413 12830l-1 -1v-1h1v2zM455 12779l-1 1h-2l1 -2l1 1h1zM420 12745h-1v-1h1v1zM313 12757h-1l-1 -1v-2h1l1 2v1zM246 12777h-1v-1h1v1zM246 12775l1 -1h2l-1 2l-2 -1zM249 12774l1 -2h2l-2 2h-1zM252 12772v-1h1v1h-1zM253 12771v-1h1v1h-1zM254 12770v-1h2v1h-2zM256 12769v-1h1l-1 1zM254 12769l-1 -1h1v1zM246 12758v1l-1 -1h1zM246 12758v-2l2 1v1h-2zM438 12634h-1v-1h1v1zM441 12633h-1v-1h1v1zM437 12633h-1v-1h1v1zM210 12837v1l-1 -1h1zM214 12837h-1v-1h1v1zM210 12836h1l-1 1v-1zM218 12835v-1l1 1h-1zM215 12834h-1v-1h1v1zM196 12811h-1v-1h1v1zM193 12811v-1h1v1h-1zM201 12811v-1l1 -1v1l2 1h-3zM197 12809h1l1 1v1h-1v1h-1v-3zM200 12809h-2v-1h2v1zM196 12808h1v1h-1v-1zM201 12808h-1v-1h1v1zM200 12807h-1v-1h1v1zM204 12806h-1v-1h1v1zM203 12805h-1v-1h1v1zM210 12802h-1v-1h1v1zM214 12799h-1v-1h1v1zM216 12798l-1 -1v-1h1v2zM220 12795l-1 -1v-1l1 1v1zM225 12791h-1v-1h1v1zM226 12790h-1v-1h1v1zM228 12789h-2v-1h2v1zM230 12788h-1v-1h1v1zM231 12787h-1v-1h1v1zM232 12786h-1v-1h1v1zM233 12785h-1v-1h1v1zM235 12784h-1v-1h1v1zM237 12783h-1v-1h1v1zM238 12782h-1v-1h1v1zM240 12781h-1v-1h1v1zM241 12780h-1v-1h1v1zM243 12779h-1v-1h1v1zM244 12778h-1v-1h1v1zM241 12777l-1 1v-1h1zM221 12774l-1 1v-1h1zM212 12775v-1h1v1h-1zM213 12774v-1l2 1h-2zM224 12773h-1v-1h1v1zM216 12773h-1l1 -1h1l-1 1zM218 12772h-1v-1h1v1zM219 12771h-1v-1h1v1zM220 12770v-1l2 -1l-2 2zM223 12768h-1v-1h1v1zM215 12768l1 -1v1h-1zM216 12767v-1h1v1h-1zM226 12767h-2v-1l2 -1h1v1h-1v1zM227 12765v-1h1v1h-1zM223 12763l-1 1v-1h1zM220 12764v-1h1v1h-1zM228 12764l2 -2h1l-1 2h-2zM223 12763v-1h1v1h-1zM220 12763h-1v-1h1v1zM233 12762h-1v-1h1v1zM234 12761h-1l1 -1h1l-1 1zM226 12760v-1h1v1h-1zM238 12760h-2h-1l1 -2h2v2zM238 12758v-1h2v1v1l-2 -1zM240 12757v-1l3 -1v2l-1 1l-2 -1zM228 12756v-1h1v1h-1zM225 12756h-1v-1h1v1zM229 12755v-1h1v1h-1zM226 12755h-1v-1h1v1zM231 12754h-1v-1h1v1zM227 12754h-1v-1h1v1zM224 12754h-1v-1h1v1zM233 12753h-1v-1h1v1zM229 12754h-1l1 -2v2zM233 12752v-1h1v1h-1zM226 12751h-1v-1h1v1zM230 12749h-1v-1h1v1zM235 12746h-1v-1h1v1zM236 12745h-1v-1h1v1zM241 12741h-1v-1h1v1zM237 12741h-1v-1h1v1z"/></svg>