<svg xmlns="http://www.w3.org/2000/svg" viewBox="-631 13385 1298 730"><g class="s" data-r fill="#000" fill-rule="evenodd"><path class="chunk" data-i="0" d="M-130 14060l-7 -2l-7 -4l-7 -8l-1 -2v-2l-1 -3v-13l5 -5l5 -1h9l4 1l5 5l1 3l1 5l-1 2l-8 1v1l-2 -1l-2 1v-1h-8v-1h1v-2h7l2 1v-1h4l1 -2l-2 -4l-4 -1h-7h-2l-3 3l-1 2v2l2 4l1 3l2 5l1 1l6 3l2 2h2h6h3l3 -2h2l5 -6l1 -3l-1 -3v-2h1l-1 -2l-1 -3l-1 -3v-2l-3 -3l-5 -2l-13 -5h-9l-5 1l-2 2l-4 1v2l-2 1l-2 1l-1 2l-2 4l-1 2l-2 2v12l-2 2h-2l-3 -2l1 -13l1 -3l1 -2l4 -6l1 -2l5 -5l2 -1l2 -2l3 -1l5 -2l4 -1l2 -1v1l8 1l3 1l5 1l4 1l2 2h1l7 4l4 6v2l1 3v19l-3 2v2l-4 3l-1 1l-5 2h-3l-5 1l-2 1zM170 13948l-6 -1v-1h4l2 -1v1l1 2h-1zM-49 14008l-1 1l-3 -3v-2h-1l1 -2l-1 -2l-6 -1l-3 -1l-3 -1h-2l-6 -7v-1l-1 -2l-1 -3v-9v-2l4 -6h2l2 -3v-1l7 -5h2l4 -1v2l-2 1l-5 2l-7 8v2l-2 2l1 8l1 4l5 5h1l3 1l3 1l5 1v1l1 -1l1 -5v-2h-2l-2 -2l-2 -1l-4 -1v-5l2 -1l1 -1l9 -3l4 -1l2 2l-1 12l2 2l1 10l-2 2l-4 1l-1 7h-2zM-124 14000h-2l-2 -2l1 -6l6 -17v-2l-1 -3l2 -2l1 2v4h1l-1 2v1v9l-1 6l-1 4l-3 2v2zM-84 13997h-4l-4 -2l-7 -7l-1 -2l-4 -6l-1 -2l-1 -1l-2 1v3l-4 8v1l1 2l-3 2l-3 -2v-2h-1l1 -2l1 -3l2 -7v-4l2 -2v-1l8 -1l2 2l2 2v1l6 9l1 2l3 3l2 1h2v-2l1 -8l1 -12l-3 -4l3 -3h2l4 3v4l-2 26l-2 3h-2zM-148 14000h-2l-5 -2v-2l-2 -2v-10l2 -2v-1h1l2 -2h3v3l-4 1v2l-1 5l2 2l4 1l1 -1l1 -4l2 -10l-2 -2l-2 -2l-6 1l-3 3l-1 2h-2l1 5v2l-2 -1h-2l-1 -10l6 -7l5 -1h7h2l4 4l1 3v13l-1 3l-1 3v2l-3 2h-1l-3 2zM-176 14011l-6 -1v-2l-1 -8h-3v1l-2 -1l-5 -1l-3 -1l-4 -2l-5 -4l-1 -3l-2 -7v-4l1 -2h-1l1 -2l1 -4v-4l2 -3v-1l6 -6l4 -2l6 -3h2l9 1l-1 3v1v1l-2 -2l-2 1l-15 7l-3 7v4v9l1 5l5 4l4 1h5l5 -2l-1 -7l-1 -1l-2 -1h-2l-4 -1v1l-2 -1h-2l-1 -5l1 -1h2l22 -1l1 2l1 1v2l-4 7l-4 16l1 6h1l-2 3zM-364 13968h2v-1h4v1h-2l-4 1v-1z"/><path class="chunk" data-i="1" d="M-365 13963h1l1 -1h2l-1 2h-3v-1zM-372 13968v-1h-2v1h2zM-374 13969v-1h-2v1h2zM-370 13971v1l-6 1l-3 -3l3 -3l9 -5v2h-1l-2 2h-2v1h2v1h2v1l-4 1l-1 1h3zM-374 13972v-1h-2v1h2zM-383 13961v-1l1 -1h2l1 1l-1 1h-1v2l-2 -1h1l-1 -1zM-372 13961l-6 -1h-1l1 -2l4 -1v1h-1v2h3v1zM-357 13958v-1h-1v1h1zM-363 13962h-1v-2h1l-1 -1l-4 -1h-1l1 -1h3v-1l1 -1v1l5 -1l2 1h2v2h-2v2h-1l-1 -3h-3l-1 1h3v2l-1 1h-1l-1 1zM-414 13970l2 -2v1h2v2h-3v-1h-1zM-404 13967h-1v1l1 2h-2l-4 -1l-1 -2h1l1 -1l1 -1l2 1v-1l2 1v1zM-407 13968v-1h-1v1h1zM-392 13965l-4 -1l1 2l-1 1l-1 -1v-3l9 -2v1h-2l2 2h1l-1 1h-2l-2 -2v1v1z"/><path class="chunk" data-i="2" d="M-408 13953v1v1l-2 -1l-2 -2h2v1h2zM-420 13956l-2 -1v1h-1v-2h-1v1l-1 -1l1 -2v-1l2 1h2l1 2h-1l1 2h-1zM-421 13954v-1h-1v1h1zM-438 13945h-2l-1 -1h1v-2h1v2h1v1zM-472 13951h-5l1 -1l2 -1l2 -1l1 1v1h-1v1zM-467 13949v-1l1 -1l2 1v1h1v1h-1h-2v-1h-1zM-464 13948v-1h2l4 -1l2 -2h1l-1 2l-2 2h-2l-1 2h1h2v1h-4l-1 -2v-1h-1zM-558 13940l-2 -1v-1l2 -1h4v1h-3v2h-1zM166 13926l-2 1v-1h1v-2h1v1h2v1h-2z"/><path class="chunk" data-i="3" d="M142 13924l-2 -2l2 -1l2 -1v2h-2v2zM153 13918l-3 1v-1l2 -1l2 -1l1 2h-1h-1zM167 13914l-1 1h-1v2h-3v-1h2v-2l2 -1v1h1zM170 13913h-2v-1h1l-1 -2h4v1h-2v1h1l-1 1zM178 13912h-2v-2h-1l1 -1h1v1l1 2zM-107 13944h-7l-1 -2l-1 -5v-11l-2 1l-4 1l1 -2h-1v-1l4 -1l3 -2l-1 -2h1l-1 -4l-2 -2h2v-2l9 -2h5h4l1 2v2h-2l-3 -2h-4l-4 1l-1 1l1 6l2 1l14 -2v1l-2 2l-4 1l-9 1v2l-1 2h1l-1 2v6l2 2l6 -1h11l1 -10l2 -5v-2h-2l-1 -4l3 -2h3l2 -8l2 -2l5 -5l4 -1h9l3 1l3 3v1v7v2l-3 2l-5 4l-7 2l-4 2h-6l-4 18l-2 3l-2 -1h-2l-15 2zM-74 13914l5 -2h1l6 -6l-2 -2l-10 1l-1 1l-3 7l-1 2l5 -1zM-139 13946h-7l-4 -1l-1 -5v-2l2 -8l-1 -1v1h-2v1l-2 -1v-2l2 -1h2l-1 -13h5l2 5v3l2 1l16 -2l1 1v4l-1 1h-2v1l-2 -1v1h-6l-2 -1v1l-2 -1l-3 1l-1 12l12 -1l2 -1v1h4l2 1v4l-2 2h-3h-4h-6zM-130 13911l-16 1l-4 1l-6 6l-2 -1l1 -2l5 -6l10 -2l8 -2l3 1h2v3l-1 1z"/><path class="chunk" data-i="4" d="M-166 13945l-2 -1l1 -2v-2l-3 -4l-2 -1l-6 -3l-4 -3l-3 -1l-1 4v2l-1 6l-2 2v1h-3l-1 -1v-2v-6l1 -7l1 -5l-2 -2v-4l1 -2h3l2 -16l1 -6l2 -1h2l1 1l-1 11l-1 9l1 1v-1h3l9 -4l9 -4h1l2 -1l1 1v2l-1 1l-2 1l-13 6h-1l-2 2l-3 1l-2 1h-1l-2 2l2 1l15 9l1 1l6 5v6l-2 2l-2 -1v1h-2v1zM-568 13914h-5v-2l1 -1l2 2l2 -2l2 -1h1l-1 2h-2v2zM-430 13815l-4 -1l2 -3h2v-1l2 1h1l-1 1h-3v2h1v1zM-442 13812l2 -2v1h2v1v1l-2 -1l-1 1v-1h-1zM-426 13808h-2v-5h2v1h-1v2l1 2zM-460 13820l-4 2h-1l1 -2h3l5 -2l2 -1l1 1l-1 1l-3 1h-3zM-494 13824l-2 -2h2l2 -2v-2h-1l1 -1l3 1v2h-1l-2 2v1h-2v1zM-500 13822l-2 -2h1l-1 -2v-2v-1l2 1l-1 2l3 2v1h-2v1z"/><path class="chunk" data-i="5" d="M-488 13818l-1 -2h1h1l2 -2h1h1l-1 2h-2l-2 2zM-494 13810l1 2h-1l3 4h-1l-3 -1v-3h-1l-2 2h-1v-2h1l2 -2l1 -1v1h1zM-476 13811l-1 1h-1l-2 1l-1 -1l1 -1l4 -3h2l-1 2h-1v1zM-448 13792l-2 -1l-3 -1v-2h1v1l6 1l-2 2zM-454 13788h-1l1 -2v-1h-3l1 -1h2v-1l2 1l-1 2h1l-2 2zM-450 13782v-1h-1v1h1zM-449 13783v-1h-1v1h1zM-448 13787v-3h-2l1 2l1 1zM-446 13787l-2 2v-1h-2l-1 -4h-1l1 -2l-1 -1h-2v-1h6l1 2l-1 2h2v2h-1l1 1zM-442 13758h2l-2 2l-2 1l-1 -1l2 -2l1 1v-1zM-494 13809l2 -1l-1 -2h1h3v-2l1 -1h2v1h1v-2h2v-2h4v2l-1 1l-1 -1v-1l-1 1l-2 4h-2l-2 -1v1v2h-2l-2 2h-2v-1z"/><path class="chunk" data-i="6" d="M-486 13796v-1h-1v-1h3v-1l1 1v1l-2 1h-1zM-490 13794v-1h-1v1h1zM-491 13795v-1h-1v1h1zM-493 13798h-1l-1 2l-1 1l-1 -2l2 -1l-1 -1h-1v-1h-1v-1h2v1l2 -1v1h1v-2h-1h-1l1 -1h1l3 -1l2 1v-1v-1h4v1h-2l-1 2h-1h-1v1h-1l-1 1h1l-2 2v-1l-1 1zM-479 13789l-1 1l-2 1l-1 -1l1 -2h2v1h1zM-469 13748v2h-1l-2 -2v1l-1 -1v-2h1v1l1 -1l1 -2l2 1l-1 1l-1 2h1zM24 13742h-4l-2 -2v-2l-6 -1l-2 1v-1h-12l-2 1v-1l-8 1l-21 -2l-13 -4l-2 -2l-4 -1v-2l-4 -1l-2 -2v-2h-2v-2l-2 2l-3 2l-4 2l-3 2l-2 2h-2l-2 2l-2 1l-30 11l-16 4l-2 1v-1l-2 1l-15 2l-33 2v-1v-1l-1 1v1h-1l-1 -1h1v-1h-6l-1 -1l1 -1l8 -2v1l2 -1l10 -1v-1l2 1l16 -1l2 -1v1l2 -1h5l27 -6l25 -10l11 -6l6 -4l4 -4l1 -4l1 -2h2h3h3l2 5l1 1l7 7l2 1l2 2l3 1l3 1l4 2l13 1l38 1l3 1l2 1v2h1l-1 2h1l-1 4v2zM-159 13747v-1h-1v1h1zM-155 13747v-1h-1v1h1zM-176 13749v-1h-1v1h1zM-182 13750v-1h-2l-1 1h3zM-457 13715h-1v-1l2 -2h1v2h1h1l-1 1h-2v-1h-1v1zM-477 13740h1v-2l2 -2v2h-1l1 1l-2 3v1h-2l-1 1v2h-2v2h-1h-1l1 -2v-1h-4v-1l2 -1l1 -1h2l2 -1l2 1v-2zM-481 13745v-1l-1 -1v1l1 1zM-471 13737v-1h-1v1h1zM-474 13738h1v-3h1l2 1v2h-2l-2 1v-1z"/><path class="chunk" data-i="7" d="M-468 13736l-2 -2h2l2 -1v1v1h-2v1zM-452 13623h-2v-3l-2 -2l1 -2l1 -2l4 -1h2l2 1l2 2l-2 2v1h-4l-1 1v2l-1 1zM-452 13622v-2h-1v1l1 1zM-455 13671l-9 1v1l-2 -1h-4l-2 -2l-2 -2l-4 -5l-1 -4l-1 -3l2 1l2 1v2h2l1 2l1 2l5 1h9l4 -1l3 -1h1l2 -2h4l2 1v2h1l-1 2v1l-5 2l-3 1l-5 1zM-478 13624h-4v-2h-1l1 -2h-1l1 -2v-1h2v-1v-1l2 1l5 1v5h-2l-3 2zM642 13732l-2 -2v-5h2v2l1 3l-1 2zM322 13604h-1l-1 -1h-1l1 -1l3 1h-1v1zM325 13598h1v4h-3l1 -1h1l-1 -1h-1l1 -2v1l1 -1zM361 13601v-1h-1v1h1zM324 13605v-1h-1v-1l5 1v1l2 -1v1h4v1l2 -1l7 -1h4l17 -7l37 -16l3 -1l2 -2h1h4h2v2l9 4l4 1h15l5 -1l33 -7v-1l3 -3h1h3l4 1v8l-30 6l-12 4h-5h-17h-4l-5 -2l-7 -4l-2 -1l-5 3l-42 18l-12 4l-5 1h-14h-3v-1l1 -2h-2v2h-2l1 -2l-1 -2h2v-1h-2zM328 13607l1 -1h-1l-1 1h1zM332 13608l1 -1h-3v1h2zM329 13610v-1h-1v1h1zM332 13610v-1h-1v1h1z"/><path class="chunk" data-i="8" d="M188 13911h-3v-2h-2v-2l2 1h2v2h1v1zM190 13900l-2 -1v1h-4h-1l1 -2v-1l1 1v1l1 -1v-1h2l2 -2l1 1v2h1v1h-2v1zM190 13898v-1h-1v1h1zM188 13899v-1h-1v1h1zM207 13890v-1h1l2 -1v1h2v1l-4 1v-1h-1zM270 13749v-1l-2 1l-18 -1h-6l-4 -2l-5 -2h-1l-8 -8l-4 -4v-6l2 -2l2 -1l4 3l1 2l3 4l1 2l1 2l5 2l3 1l10 3h6l2 -1v1l2 -1l7 -1l9 -2l3 -1l2 1h1l2 2l1 4l-2 2v1l-3 1h-12l-2 1zM183 13614h-1l-2 -1v1l-10 -1l-3 -1l-5 -1l-2 -1l-2 -2l-5 -2v-2h-1l-2 -2v-2h-2v-2l-2 -2v-2l-6 4l-7 6l-12 8l-28 13l-17 6l-20 3l-2 -1v1h-1v-2h-1v1l-2 -1l-5 -2h-2l-3 -1l-1 -1v-3h1l2 1v-1l1 1v1l6 1h14l7 -1l2 -1v1l2 -1h2l23 -10l19 -8l8 -6l4 -3l4 -2l5 -5v-2h2l1 -4l1 -2l-1 -2h1v-2l3 -3h4l3 3l1 5v4l3 7l3 2l4 3l2 1l5 2h4h4l6 -1l2 -1l7 -3l3 -3l3 -1l2 -3h6l2 2h1v6l-3 2l-2 1h-2l-2 1l-4 3l-1 1l-5 2l-5 2l-4 2zM42 13628l1 -1h-1l-1 1h1zM45 13629v-1h-1v1h1zM48 13630v-1h-1v1h1zM52 13631v-1h-2l-1 1h3zM59 13631v-1h-1v1h1zM61 13631v-1h-1v1h1zM59 13633v-1h-1v1h1zM-469 13563v-1h-1v1h1zM-460 13697v-1h4l3 -1l5 -1l2 1v-1l2 1l6 -1v-1l2 1v-1h3l5 -2h2l4 -3l2 -1l4 -3v1l1 -1v-1h1l4 -3v-3h2v-1h-1l1 -2h2v-2l1 -2h-1l2 -2l-1 -2h1l-1 -2h1l1 -10h-1l1 -2v-2h-1l1 -2l-2 -6l-2 -2l-1 -5l-1 -5l-1 -5l-1 -5l-2 -2l-1 -3l-3 -7l-5 -6l-1 -2l-11 -12l-10 -8l-5 -2l-2 -1l-3 -1l-4 -1l-2 1v-2h-2v1l-1 -1l-1 -1v1l-2 -1v1l-15 -2v-2h-2l-5 3l-7 7v2h-2l-3 6l-6 11l-2 5l-4 15l-2 9l-1 2h1v12l1 2h-1v2h1l-1 2v4l1 2h-1l1 2l1 5l1 4l6 13l7 4l17 8l21 7zM-529 13642v-1h-1v1h1zM-522 13639v-1h-1v1h1zM-522 13641v-1h-1v1h1zM-520 13667v-1l-2 -7v-7h-1v2v10v2l3 1zM-477 13701l-5 -1v-1l-1 1v4l1 1h2v-1l-2 -2l2 -1v1v1h1v2h2l6 -1v-2l-6 -1zM-481 13711h2v1l1 1v-1h4l2 1v-1v-1h2v-1l2 1v-1v-1l2 1h1h2h1h1l-1 2h2v-2h2l-1 2v1h-5v-1l-2 1h-4v-1h-1v2l-1 1l-2 -1l-10 1v2h-2l-4 31h-1l1 2h-1l-1 13l-2 4v4l4 1l21 6v2h1l2 -1l4 5l-2 2l-4 1v2h-2v-1h1l-1 -1h-4v-1l-2 -2h-2v-2l-4 -1l-2 -1v1l-2 -2l-4 -1h-2l-2 -1l-2 -1l-7 36l-1 8l1 2h-1l1 4l1 1h10l2 1v-1l4 1l4 -1l4 1l2 1v-1l2 1v-1l2 1l69 -1l9 -2l4 -1l2 -3v-12l-2 -12l-6 -34l-1 -1v1l-2 2l-3 4l-2 3l-1 4l-3 9l-1 2l-1 2h-4l-2 -2v-2l2 -2v-2l3 -6l3 -7l3 -3l5 -6l2 -4l-2 -5l-1 -3l-2 -2l-1 -2l-9 -12l-4 -7h-2l-1 -4l-2 -4l-2 -5l-2 -5l-2 -3v-2l-2 -1l-5 1h-3l-14 1v1l1 2h-1l-6 -1l-2 1l-2 -2h-6l-2 -1v1v1h-6l-2 2l-2 -1h-2v1l-1 -1l-1 -1l-1 9h1h1l-1 -2l2 -1v1l2 2v-2l-1 -1zM-467 13712v-1h-1v1h1zM-477 13714v-1h-1v1h1zM-453 13704v-1h-1v1h1zM-394 13752l2 -2l10 -14l1 -2l-13 -4l-9 -2l-7 -1l2 3l8 12l2 3l2 4l1 3h1zM-500 13769v-1l1 -4v-3l1 -6h-2l-9 9v3l4 1l5 1zM-556 13885l2 -2v1h2v-1l2 1v-1l15 -3v-2v-7l-3 -19l-1 -4l-3 -3l-8 -1l-3 2l-1 7l-2 13h-1l1 2h-1l-1 6l-2 9h-2v1l2 1h4zM-523 13868l3 -3h1l5 -7l2 -5v-4v-1v-1l-2 1l-2 2h-2l-3 2l-1 2v2l-6 13l1 3l4 -4zM-452 13929l2 -1h16v-1l2 1v-1l18 1l-1 -18l-1 -2h1v-26h1l-1 -2h1l1 -12v-2v-4v-2l-1 -12h-1l1 -2h-1l1 -2l-1 -3v-1l-1 -2h1v-4l-11 -1l-2 1v-1h-2v1l-2 -1l-5 1l-3 -1h-2v1l-2 -1l-2 1l-2 -1v1h-14v2l2 6l2 6l1 22l1 2h-1l1 4v2h-1l1 2h-1v2l1 2h-1v2h1l-1 2v2l1 2h-1l1 2l3 34l1 1zM-76 14064l2 -1l43 -31l4 -1l8 -3l14 -2h2l7 2l10 -1l4 -3l1 -5v-10l-1 -3l-3 -7v-7l1 -4l19 -18l-1 -3v-2l1 -1l3 -3l2 -1l1 -7l1 -3l2 -5l4 -7l5 -8l9 -12l2 -6l1 -2l2 -2h-1l-10 -1l-2 -1v-2l-2 -1l-6 -5l-1 -4l-5 -5h-2l-6 -8l-2 -3l-2 -4l-2 -2l-34 -4l1 2v2l-5 5l-4 2l-3 1h-12l-3 -1l-7 -3l-9 -4l-2 -1l-2 -2l-2 -1l-15 -6l-2 -1l-7 -1v-1l-2 1l-4 1l-26 8v1l1 2l-2 2l-1 2h-2l-2 5l-1 1l-3 4l-5 2l-2 1h-4h-1l-4 -3v-2l-1 -2l-5 -12l-2 -5l-5 -7h-1v1l-2 -2h-2l-2 -2h-2v1l-2 -1h-2l-2 2h-2v1h1l-1 1h-2v2h-2v2l-2 1l-4 2l-2 2l-2 2v1h-2l-2 2h-2l-4 4h-2l-1 1v2l-3 1l-2 2h-2l-2 2l-2 1h-2l-7 3l-5 2l-2 -1v1l-2 -1h-1l-6 -4l-1 -1l-2 -1v-2l-2 -2l-8 1l-2 2h-2l-5 3l-15 9l-24 13l-2 1l-2 2l-2 1l-9 6l-10 4l-3 1l-13 2l-4 1l-7 2l-3 6l-1 4l2 3l7 1l36 4l8 2l11 6l6 3l9 9l2 4l3 4l4 5v1l2 2l1 4l2 2v2l2 2v2l2 2l1 6l2 2l2 5l1 4l4 9v2l2 2h-1l1 2l2 2l-1 2h1l1 5h2l2 5v2h1l-1 2l3 2l1 2l7 12h1l3 2l1 5h2l2 2l14 -2l19 -5l12 -2h4l7 2l3 4l3 8l1 2l3 2l2 1l2 2h18l12 -3l8 -3l11 -5l15 -6l2 -2zM-574 13887l1 -1l-3 -6l-4 -3l-1 -1h-2l1 4v2l2 2h2l4 3zM-564 13886v-1h-1v1h1zM-520 13936l21 -3v-2l-1 -3l-2 -6l1 -11l-3 -14l1 -6l-3 -8l-9 1l-20 5v3l7 34l2 11l6 -1zM-536 13891v-1l-1 -1v1l1 1zM-559 13896v-1h-1v1h1zM-535 13896v-1h-1v1h1zM-558 13902v-1h-1v1h1zM-555 13903v-1h-1v1h1zM-553 13908v-1h-1v1h1zM-575 13922h1l2 -1v1l2 8h1l-1 2l2 2h2v1h-4v2l1 3h1v-2h1v2h1l-2 2v1h2l2 2l18 -3v1l1 -1v-1l5 -1h4l4 -1v-1h-1l1 -2h-1l-5 -34v-9v-3h-2l-7 2l-11 3v1l3 2l1 3l3 9l5 14l3 10h2v2l-3 3l-4 -5h1l-1 -2v-2l-2 -2l-1 -4l-1 -4h-1l1 -2h-1l-1 -6l-2 -2v-2l-2 -3v-1l-2 -2v-2h1l-1 -1v-1l-2 -3l-17 3l-5 1h-2v1h1l1 2l3 8l3 10h1v2h1v2h2l1 -1h-1l-1 -1zM-574 13926l1 -1h-1l-1 1h1zM-572 13928v-2h-1v1l1 1zM-573 13929v-1h-1v1h1zM-458 13931v-1h-1v1h1zM-450 13931v-1h-2v1h2zM-448 13931v-1h-1v1h1zM-594 13954v-1h-2v1h2zM-599 13956v-1h-1v1h1zM-602 13958v-1h-1v1h1zM-570 13944v-1h-1v1h1zM-549 13944v-1h-1v1h1zM-565 13946v-2h-2v2h2zM-554 13945v-1h-1v1h1zM-558 13946l1 -1h-1l-1 1h1zM-563 13947v-1h-1v1h1zM-578 13950v-1h-1v1h1zM-586 13952l1 -1h-1l-1 1h1zM-398 13935l-10 -3h-6h-37v4h3l18 -3l2 -1v1h2l1 1v4l-3 2l-8 -1l-2 2v-1l-8 1l-2 2l-2 -1l-6 1l-1 -1h1l-2 -2h-1l1 -2v-2h1l-1 -2v-2l-2 -1v1l-13 -1l-17 3l-1 2l-1 4l-2 1l-6 1v1l-2 -1v1h-2v-1l-2 1v-1l-2 1h-6v1l-2 -1v1l-14 2l-5 1l-9 3l-17 3h-11l-2 -2h-2l-19 5l-3 1l-6 3v-1l-1 1h-1v-2l2 -1l4 -3h2l2 -2h4l16 -4v-2l-2 -12l-6 -20v-4l-2 -2h1l-2 -2l-2 -4l2 -2l-1 -1h-5v-2h-1l-2 1l-1 -2v-1l-1 -3l2 -2v-2l8 1l2 -1v1l2 -1h1l-1 -2h-2l-1 -6v-7v-2h2l3 -1l3 2h1l6 6v1v7h2v-1l2 1v-1h3l1 -7l5 -34l2 -2v-2l1 -1l5 -1h6h3l3 2h1l2 2l2 2l1 3v2l3 9v4v1l2 -1l1 -6h-1v-1h2l1 -4l2 -5h2l5 -4h2l5 -1l1 2l2 6v4l-2 5l-1 2l-6 9h-2v2h-1l-3 3v1h2l9 -3l5 1l7 2v1l2 2l3 20l1 4l-1 2h1v8h-1l1 2h-1v2h1l-1 2h1v5l2 8l28 -2v-1l2 1h2v-1h-1l-1 -11l-4 -73h-1l1 -2l-1 -8h-1l-2 1v-1h-10l-2 1v-1h-26l-4 -4l-1 -4v-11l9 -38v-2l-8 -2l-3 -1l-5 -2v-2h-1l1 -2v-2l4 -4l15 -16l1 -4l6 -22l3 -14h-1v-1h2v-5h1l-1 -1h-1l-5 -3l-8 -3l-2 -1l-2 -2l-4 -1v-2l-5 -7l-1 -2l-2 -2h1l-1 -2l-1 -4h-1v2h-2h-3h-4v-2h-1l-2 2h-2l-2 3h-4l-2 -3l1 -7l5 -22l2 -10l14 -34l1 -3l5 -6v-2l2 -3l4 -5l2 -2l6 -7l3 -1l4 -4l3 -1l2 -2l8 -1v1l2 -1h1l2 -1l3 -1l2 3l4 1v1h1l1 2l13 3l3 1l2 2l2 1h2l4 3l5 5l3 2l6 6v1h2v2h2v2l4 5l1 2l3 3h1l3 7l2 5l4 17l2 2v2l2 5l2 9h1l-1 2v2l1 3l-3 15l-2 3v3l-2 2v1l-6 8l-12 7l-2 2h-2l1 2l1 2l2 5l4 9l2 5l1 1l1 2l20 1l6 1l4 1h2l2 1l3 2v2v6l-3 4l-8 11h-2l-5 5l1 2l6 32l4 15v5v12v2l-2 2v2l-2 1l-7 1l-9 2h-6l-1 8h-1l1 2l-1 2h1l-1 2h1l1 11v2l-1 3h1l-1 2l-1 40l1 2h-1v2l1 2h-1l1 2l1 9v2l11 -1l7 1l2 1v4l-2 2l8 1v-1l2 1l18 4l2 2l2 -1v1l1 -1l1 -2l-1 -2h1v-2l1 -2l1 -2l2 -2v-2l2 -3l3 -1l7 -2l3 -1l11 -1l2 1v-1h3l11 -4l4 -4l5 -4l12 -6h1l2 -2l3 -1l2 -1l9 -4l2 -1l2 -3h2l2 -2l4 -2l4 -3v1h1v-2h4v-2h1v1l1 -1l1 -1v1l4 -3l4 -1h5l11 8l2 1h5l3 -1l6 -2l10 -7l4 -3l2 -1l2 -2h2l4 -3l2 -2l12 -9l2 -1l2 -1h8l6 1l2 2l4 1l4 5l1 2l2 2l1 3l5 15l1 1l4 -1l3 -2l-1 -2h2v-2l2 -2v-1l1 -1h-1v-1l8 -3l27 -10h4h13l9 2l5 2l4 1l2 2h2l2 2l4 1l2 2l2 -1v1v1h2l2 2l4 1l2 1v-1l2 1v-1h2v1l2 -1l2 -1l6 -3l1 -2v-1h1l2 1v-1h5v1l1 1v-1l11 2h21l5 6l2 4l3 3l4 2l4 3l2 1l2 3l2 4l4 3l3 3l1 2l6 -1l20 -11l3 -2l14 -11h4l3 1l6 5l3 1h5l4 -1v1l2 -1v1l2 -2l2 1h2l2 1v-1l2 1v-1l2 1h3l3 -2l12 -2l2 1v-1h9h3l2 2h8l47 -6h17l3 1l2 1h1l4 4v1l2 2v2l1 7l-1 2h1l-1 4l2 2l3 1l9 2l1 -1h-1v-2l-1 -2l2 -7v-10l-1 -3l-1 -3l1 -2v-1l2 -2l2 -1l2 -2h4l1 -1v-2l3 -2l2 -1l2 -1l6 -3l2 -1l12 -4l6 -2l4 -3l2 -1l6 -2l2 -1l1 -1v-2l3 -2l1 -3l1 -2v-1l1 -2h-1l1 -2l1 -1l2 -7l4 -6v-2l3 -2v-2l-1 -2h2l2 -1h4l5 1l4 2l5 1l2 1l2 2h2l5 4l1 2v2l2 4v6v6v2h1l-1 2l1 2l2 4l3 3l4 -4l1 -1h2l1 -1l2 -2h2l2 -2l15 -4l3 1l5 2l9 5l2 1l2 2h3h5l3 -1l3 -1l10 -7l3 -1l-1 -2v-2l-1 -3v-7v-3h1l2 -2l3 -1l10 -4l22 -6l5 -1l22 -5l6 -3l4 -1l2 -1l2 -2h2l5 -3l10 -4l1 -1l2 -1l1 2l1 6l2 2v-1l1 1l2 22l12 -1l8 -1l5 -2l6 -4l3 -2l12 -8v-2h2v-2l3 -2v-38v-4l-4 -8v-4l2 -3l1 -3l11 -13l2 -3v-2l1 -2v-9l-1 -3l-2 -4v-2l-2 -1l-1 1v2l-3 2h-1l-42 16l-9 4l-15 6l-17 11l-6 7l-4 6l-2 3v3v7v3l2 2l2 2l3 4l2 4l1 2l-2 1l-1 -1l-1 -3l-7 -9l-1 -2l-1 -2v-8l1 -4l1 -3l2 -5l11 -11l2 -1l14 -8l57 -23h1l2 -2l3 -1h2l1 -1l2 -1v-2l2 -2h4l2 2v2l2 2l1 2v2l1 3v10v2l-3 5l-11 13l-1 3l-2 3v2l3 8l1 4v37l-1 2l-3 6h-2v2l-13 10l-3 2l-10 5l-8 3l-15 1l-6 20v3h1l-1 2v2l-3 6l-5 5l-1 1l-16 8l-2 1h-9l-2 -2h-2l-2 -1v-2l6 1l6 -1v1l2 -1h1l4 -2l1 -1l2 -2l3 -1l6 -2l1 -1l4 -3v-2l1 -2l1 -3l4 -14l2 -9l1 -2l-4 -4v-2l-1 -6l2 -6l1 -3v-2l-3 -6v-1v-1l-2 1l-2 1l-4 1l-2 1l-2 2l-3 1l-15 6l-55 16l-7 2l-2 2v3v3v2l3 5l1 3v16l-2 10l1 5l3 5v2l6 4l2 2l5 -1l2 -1l5 -2l2 -2l2 -1l4 -3h2l1 10l1 1h12h2l1 1l-1 4l-2 2v-1l-2 1l-3 7l-1 3l-2 2l-2 6l-2 2l-36 8l-8 8l-1 2l-2 2l-1 2l-2 2l-1 6l-1 1l-5 1h-15l-2 -2h-2l-2 -2l-2 -2h-2l-4 3l-2 2l-14 -1l-19 4l-19 4l-2 2h-3l-10 4l-8 3l-4 1l-5 1l-2 1v-1h-4v3l-4 -1h-2l-1 -1l-5 -11l-2 -7l-1 -15v-3l-5 -4l-4 -2l-9 -4h-3l-2 -2l-2 2v4l-2 1h-2v-2l-1 -5l-1 -1l-1 1l-1 2l-6 14l-4 11l-1 1l-3 3l-1 1h-2l-2 1l-13 2h-3l-19 -3v-1l-2 1l-5 1l-1 3l-4 5v1l-4 5l-2 1l-14 6l-15 2l-29 1l-3 -1h-3v2h-3v-2l-3 -2v2l-2 2l-4 -1l-2 -3l-1 -2h1v-3l-4 -1l-3 -2l1 -2l4 1v-1l-6 -6v-1h-2l-1 -1v-2h1h1l-1 -2l-2 1v-1l-2 -3h-2l-2 -3l-3 1l-6 2l-5 1l-2 -2v-2l-6 -8l-1 -3l-1 -3l-2 -2l-1 -2l-7 -10l-1 -2l-3 -2h-1l-3 12l-1 2l-2 2l-7 12l-1 2l-2 2l-1 2l-4 6l-1 3l-1 3l-3 9l-1 2l-1 3l-23 25v4v2l1 3l2 2l2 10l-1 2h1l-1 2l-1 5l-1 3l-1 4h-1l-4 3l-6 1h-8h-6h-9h-5l-5 2h-1l-2 1v-1l-2 2l-3 1l-8 5l-33 24l-8 4l-9 4l-6 2l-5 3l-13 5l-19 4h-5l-5 -1l-3 -1l-6 -2l-1 -1l-3 -3l-1 -1l-2 -5l-2 -3v-3h-2h-12l-13 2l-18 5h-12l-3 -1l-5 -4l-1 -3l-8 -11l-12 -26l-1 -2l-2 -2l-1 -4l-7 -19l-5 -12l-10 -17h-2l-1 -2v-1h-2v-1l-7 -8l-6 -4h-2l-2 -2l-4 -1l-2 -2l-4 -1l-8 -2l-35 -4l-4 -1l-7 -4v-2l-4 1l-26 -6v1l-2 -1l-6 -1v1l-2 -1l-2 -1v1zM-383 13935v-1h-1v1h1zM-376 13936v-1h-2v1h2zM-372 13937v-1h-2v1h2zM-368 13938v-1h-2v1h2zM-364 13939v-1h-2v1h2zM-362 13940v-1h-1v1h1zM122 13949v-1h-1v1h1zM213 13885l-6 -1l-5 2h-2v-1l-2 1h-2v1l-2 -1l-2 1v-1l-2 1l-24 3l-12 2l-2 -2h-2l-5 2h-3l-2 -1v1h-2l-2 -1v1l-2 -1l-16 1l-4 -4h-2v-2l-4 -3l-6 -1l-12 10l-6 3l-4 3l-7 2l2 4l2 3h2v1l3 4l6 4l6 6v2l2 2v1l4 5l2 3l10 -3h2l2 1l1 1v2l1 1l3 1l8 6l1 2v2l6 8v2l1 3h2v1l3 3l7 1h25l19 -4l11 -6h2l3 -4l1 -1l1 -4l1 -3l2 -1l2 -2h13l5 1l4 1l20 1l2 -1v1l2 -1l3 -1l2 -5l3 -7l1 -2l2 -2l1 -3l1 -5l1 -4l1 -3h-7v-1l-2 1h-2v-1l-2 1v-1l-6 -1v1h-1v-2h-3l-1 -2v-2h-1l1 -2h-1l1 -4h-1l1 -2l-1 -6l-1 -2h1v-1h-2v-1l-2 -3l-24 -1l-2 1v-1l-2 1h-6v1h-1v1zM308 13866v-1h-1v1h1zM304 13871l1 -1v-2l2 -2h-1h-2l-5 2l-1 1l-1 1h1l6 1zM568 13815l-1 -9l-1 -1l1 9l1 1zM282 13913v-1h-1v1h1zM410 13879l-2 1l-2 -2h-2l-2 -2v-2l-10 -10h-3l-1 -2l-8 -10l-2 -2l-2 -21l-1 -5l-3 -4h-2l-3 -2l-7 -2h-4l-1 2v1h-1l-2 1l1 2h-1h-1l-5 15v3l-2 2v2l-2 2l-1 4l-3 3l-2 1h-2l-2 1l-2 2l-2 1l-8 4l-6 4l-5 4l-1 4l-2 1l-12 -1l-2 2h-1l-4 -2h-4h-2l-1 1l-2 1v2l1 2l1 3l1 5h1l-1 2l-1 4v3l-1 5l5 5l20 6l4 1l2 1l2 2h2l5 5l1 5l1 12l1 3l2 6l1 2l3 2h1v2l1 2h2v-1l2 1v-1l6 -2l4 -1l13 -5l5 -1l4 -1v1l2 -1l18 -3l26 -4l4 -3l4 -3l2 -1h2l4 -1l3 4l1 2l4 2l2 1v-1h2h4h4l1 -2l2 -2l9 -12l2 -4l4 -4l6 -1l2 -1v1h3l21 -5l5 -1l1 -5l2 -2v-1l4 -5v-2h1l-1 -1l-22 2v1l-2 -1v1l-20 2l-16 6l-8 2l-14 2l-2 1v-1l-4 1l-2 -1v1l-2 -1h-2v-1h2l2 -1v1l4 -1l2 1v-1h2l2 1v-2h6l2 1v-2l3 1h1l1 -1h-1v-1l6 -1l2 1l2 -2v1h1v-2h1l1 -1h-11v1l-2 -1l-2 1v-1h-2v1l-2 -1v1l-23 -3l-3 -1l-7 -2l-1 -1l-3 -3l-1 -2l-3 -4l-2 -3l-1 -3l2 -2l4 1l3 3l4 6l1 2h2l3 2l9 2v-1l2 1h4v1l2 -1v1l2 -1v1h12l2 -2l4 -2h3h1l2 -1v2h1l-1 1l-1 -1h-2l-3 1l-1 1l1 1h2v-1l2 1v-1h2v1l2 -1v1l2 -1l18 -1v-1l2 1v-1l4 -1v-1h-2l-6 -4l-3 -4l-1 -2l-2 -2v-3v-6v-6l1 -19l-3 1l-5 3l-4 4l-3 1l-7 3l-4 1l-13 -2l-2 -2l-5 -3h-8l-5 1l-3 1h-2l-5 4h-2l-4 4l1 5h2v3l2 2l1 2l4 4l1 2l1 2l4 1v1h-1l1 1zM502 13886h1l-1 -2l-1 -5l-3 1l-7 4l-1 1l-2 1v1l14 -1zM484 13886v-1h-2v1h2zM449 13888v-1h-1v1h1zM444 13891v-1h-1v1h1zM447 13891v-1h-1v1h1zM494 13891v-1h-1v1h1zM485 13892v-1h-1v1h1zM489 13892v-1h-1v1h1zM464 13893v-1h-1v1h1zM466 13894v-1h2v-1l-3 1l1 1zM470 13893v-1h-1v1h1zM477 13893v-1h-1v1h1zM469 13894v-1h-1v1h1zM458 13895v-1h-2v1h2zM460 13897v-1h-1v1h1zM462 13897v-1h-1v1h1zM520 13887v-1h-1v1h1zM503 13891v-1h-1v1h1zM325 13954v-1h-1v1h1zM326 13956v-2h-1v1l1 1zM327 13957v-1h-1v1h1z"/></g><g class="f live" data-r data-f="0" fill="var(--live,#000)" fill-rule="evenodd"><path class="chunk" data-i="8" d="M532 13472l-4 -3l-6 -1h-4l-6 -2l-2 -1l-2 -2l-2 -1l-2 -1l-8 -5v-2h-2l-4 -6l-2 -7l-2 -2v-1v-1l-2 1l-2 1l-10 7l-10 6l-2 1l-2 2h-2l-2 2l-1 1l-24 10l-29 8l-12 1v1l-2 -1v1l-2 -1h-1l1 -1l2 -1v1h2v-1l2 1l2 -2h2l2 1v-1v-1l8 -1v1l1 -1v-1l29 -9l12 -4l18 -10l17 -12l1 -4l2 -1h3l1 3l2 2l1 3l3 5l3 6l5 5l4 3l2 2l3 1l4 1l8 2h7h2l3 2l-1 4l-2 2zM328 13427h-4l-2 -3v-2l-2 -2h-2h-7l-13 2l-25 4h-17l-7 -2l-6 -3v-1l-1 -2l-2 1l-2 1l-8 6l-27 11l-3 1l-2 2h-1l-18 8l-19 4v-1l-2 1l-12 -1v-1h9l-1 -1h-12v-1h12l2 -1v1l6 -2h4v-1l2 1v-1l4 -1l7 -1v-1l1 -1v1h1v-2h1l2 1v-1v-1l2 1v-1h2l2 -2l2 -1h2l2 -1l2 -2l2 -1l21 -8l3 -1l2 -2l1 -1l4 -2l5 -3l3 -3l3 -3h2l3 3v2l5 4l10 3h2l6 -1v-1l2 1v-1l2 1v-1h4v-1l2 1l2 -1l6 -1l8 -2v1l2 -1l6 -1l4 -1l2 -1v1l2 -1l7 1l5 1l3 4v1l1 3v3v2zM178 13445v-1h-1v1h1zM173 13446v-1h-1v1h1zM170 13447l1 -1h-1l-1 1h1zM166 13448l1 -1h-3l-1 1h3zM160 13450l1 -2h-1l-2 2h2zM163 13449v-1h-1v1h1zM184 13443v-1h-1v1h1zM181 13444v-1h-1v1h1z"/></g><g class="f live" data-f="1" fill="var(--live,#000)" fill-rule="evenodd"><path class="chunk" data-i="8" d="M529 13472h-1l-3 -4l-5 -1l-3 -1l-5 -3h-1l-2 -2h-1l-2 -1l-6 -3l-1 -1h-1l-4 -4l-4 -7l-1 -2l-1 -2h-1l-1 1l-2 1l-12 9l-9 4l-1 1l-2 1h-1l-2 2h-1l-27 11l-31 4l-12 -1h-1l-1 -1l-1 1l-1 -1h-2l1 -1h1l1 -1l1 1h1h1l1 1h1l2 -2l2 1l1 1h1v-2l7 1l1 1h1v-2l33 -7l13 -5l15 -7l18 -12l1 -5l2 -2l4 1l1 3l3 3l2 3l2 5l4 5l4 2l5 2l1 1l2 1l2 1l5 2h6h2l3 3l-1 5l-1 2zM329 13431h-4l-3 -3l-1 -2l-3 -2l-2 -1l-7 -1l-13 -1l-26 1l-15 1l-6 -1l-5 -2v-1l-1 -1l-1 1l-2 1l-8 7l-25 11l-2 1l-2 2l-1 1l-21 10l-21 5l-1 -1l-1 1l-11 -3l1 -1l7 2l-1 -2l-10 -2v-1l10 2l1 -1l1 2l5 -1l4 -1l1 -1l1 1l1 -1h4l9 -3v-1l1 -1l1 1l1 -2h1l2 1v-1v-1l1 -1l1 1l1 -1h3l2 -2l1 -1l2 -1l3 -1l1 -2h2l20 -8l2 -1l3 -2h1l4 -3l5 -4l3 -3v-1l2 -3l1 -1l2 3l4 3l9 1h2l5 -1l1 -1l1 1l1 -1l1 1l1 -1h3l2 -1l1 1h2l7 -1h7l1 1l1 -1h6l3 1l1 -1l1 1l1 -1l8 3l5 2l5 4l1 1l2 3v3v2zM180 13450v-1h-2v1h2zM173 13451v-1h-1v1h1zM170 13452l1 -1h-2v1h1zM166 13453v-1h-3l-1 1h4zM159 13455l1 -1v-1h-1l-2 1l1 1h1zM162 13454v-1h-1v1h1zM187 13447v-1h-1v1h1zM184 13448v-1h-2v1h2z"/></g><g class="f live" data-f="2" fill="var(--live,#000)" fill-rule="evenodd"><path class="chunk" data-i="8" d="M533 13470h-1l-3 -4h-8l-5 -1l-7 -2h-3l-3 -2l-1 -1l-3 -1l-6 -6l-1 -2h-1l-1 -6l-1 -7l-1 -1v-2h-1l-1 1l-1 1l-9 9l-9 8l-2 1l-2 2h-3l-2 2h-2l-26 9l-28 11l-14 2l-1 1l-2 -1l-1 1l-1 -1l-2 -1l1 -1l1 1l1 -1l1 1h1l2 -1l1 1h1l3 -2h2l1 1l1 -1v-1l9 -2l1 1l1 -1v-1l26 -10l13 -4l21 -11l15 -14l2 -3l1 -1h3l1 1l1 2l1 2l1 4l1 7l3 5l5 3l3 2l3 1l4 2l10 2h8h3l2 2l-1 4l-1 2zM331 13429l-3 1l-3 -3l1 -3l-3 -3h-1h-8l-16 3l-27 2l-17 -2l-6 -2l-6 -5v-1l-1 -2l-2 1l-2 1l-9 7l-25 14h-2l-3 2h-1l-17 6l-14 8l-1 -1l-1 1l-15 1v-1l11 -2l-1 -1l-15 2v-1l15 -2l1 -1l1 1l6 -2l3 -2l1 -1l1 1v-1l3 -1l5 -2l1 -1v-1l1 1l1 -1l1 -1v1h1v-1l1 -1v1l1 -1h2l2 -1l2 -1h2l2 -1l3 -1l1 -1l18 -11l3 -1l2 -2l1 -1l4 -3l6 -3l4 -3v-1l3 -2h2l3 4v1l4 5l9 5h2h5v-1l1 1h1l1 1l1 -1h3v-1l2 1h2l7 -1l9 -2l1 1l2 -1l8 -2l6 -1l1 -1l1 1l2 -1h8l4 1l3 4v2l1 3v4v2zM180 13443v-1h-1v1h1zM176 13444v-1l-1 1v1l1 -1zM174 13446v-1h-1v1h1zM171 13447v-1l-3 1v1l3 -1zM165 13451l1 -2l-1 -1l-1 1l-1 1l1 1h1zM168 13449v-1h-1v1h1zM185 13441v-1h-1v1h1zM182 13442v-1h-1v1h1z"/></g><g class="f jolt-f live" data-f="3" fill="var(--live,#000)" fill-rule="evenodd"><path class="chunk" data-i="8" d="M532 13479h-1l-5 -4l-8 -3l-5 -3l-5 -5l-2 -2l-1 -3l-1 -1l-2 -2l-7 -6v-1h-2l-4 -4l-3 -4l-1 -2l-1 -1v-1l-1 1l-2 1l-11 5l-11 6l-1 1l-2 2l-2 1l-1 3l-1 1l-15 14l-36 5l-10 2v1l-1 -1l-1 1l-1 -1h-1v-1h1l1 -2l1 2l1 -2l1 2h1l1 -3h1l2 1v-2l7 -1l1 1h1v-1l36 -6l7 -8l13 -13l18 -10l2 -3l1 -1h2l1 2l1 3l2 2l2 4l4 4l5 4l3 3l2 3l2 1l3 4l8 5l9 3h4l4 4l-1 4l-2 1zM331 13424l-4 1l-2 -1v-1l-3 -1h-2l-9 1l-11 3l-23 6l-25 -5l-10 -4l-7 -4v-1l-2 -2v1h-2l-5 3l-27 14l-2 1l-2 2l-1 1l-15 8l-20 4l-1 -1l-1 1l-9 2v-1l7 -2h-1l-9 1l1 -1l9 -1l1 -1l1 1l5 -2h4l1 -1l1 1l1 -1h3l7 -2v-1h1l1 -1h1h1v-1h1l1 -1h1l2 -2l1 -1l2 -2l2 -1l3 -2l1 -1l23 -12h2l2 -1h1l2 -1l3 -2l1 -2l1 -1l1 -2h2l3 3v1l6 4l16 5h3h9l1 -1l2 1l1 -1l2 2l1 -2l4 1l1 -2l1 2l3 -1l5 -2l5 -2l1 2v-1l5 -1h4l1 -1l1 1l2 -1l9 2h6l5 2v1l1 1l-1 1l-1 1zM178 13444h-1h1zM173 13445h-1h1zM170 13446l1 -1l-1 1h-1h1zM166 13447l1 -1h-4v1h3zM159 13449l2 -1l-1 -1h-1l-2 2h1h1zM162 13448l1 -1h-1l-1 1h1zM183 13442h-1v1l1 -1zM181 13443h-1v1l1 -1z"/></g><path class="grain" fill="#000" fill-rule="evenodd" d="M171 13979h-1v-1h1v1zM174 13978h-1v-1h1v1zM168 13977h-2v-1h2v1zM177 13976h-1v-1h1v1zM178 13975h-1v-1h1v1zM172 13975h-1l1 -1h1l-1 1zM169 13975h-1v-1h1v1zM174 13974h-1v-1h1v1zM151 13974h-1v-1h1v1zM179 13973h-1v-1h1v1zM173 13973h-1v-1h1v1zM150 13973h-1v-1h1v1zM127 13968l-1 -1v-1h1v2zM129 13966h-1v-1h1v1zM144 13964h-1v-1h1v1zM142 13963h-2v-1h2v1zM150 13962h-1v-1h1v1zM144 13962h-1v-1h1v1zM146 13961h-1v-1h1v1zM156 13960h-2v-1h2v1zM145 13960h-1v-1h1v1zM143 13961h-4l1 -1h2v-1l1 1v1zM158 13959h-1v-1h1v1zM150 13960h-2v-1l4 -1l-2 2zM162 13958h-1v-1h1v1zM160 13958h-1v-1h1v1zM156 13958h-1v-1h1v1zM154 13959l-1 -1v-1l1 1v1zM145 13958h-1v-1h1v1zM158 13957h-2v-1h2v1zM151 13957h-1v-1h1v1zM148 13959h-3l1 -1h1v-2h1l1 2l-1 1zM166 13956h-1v-1h1v1zM160 13956h-1v-1h1v1zM154 13956h-1l1 -1h1l-1 1zM157 13955h-1v-1h1v1zM153 13955h-1v-1h1v1zM172 13954h-2v-1h2v1zM161 13954h-1v-1h1v1zM174 13953h-1l1 -1h1l-1 1zM163 13953h-1v-1h1v1zM165 13952h-1v-1h1v1zM169 13951h-1v-1h1v1zM162 13951h-1v-1h1v1zM138 13950h-4v-1h4v1zM133 13950h-1v-1h1v1zM168 13949h-1v-1h1v1zM166 13950h-2v-2h2l1 2h-1zM163 13949h-1v-1h1v1zM148 13949h-2v-1h2v1zM144 13949h-3l1 -1h2v1zM140 13950l-1 -1v-1h1v2zM158 13948h-4v-1h4v1zM151 13949h-1l-1 -1l1 -1l1 1v1zM133 13948h-1v-1h1v1zM136 13947h-3l1 -1h3l-1 1zM178 13947l-1 -1v-1l1 1v1zM176 13947h-5l1 -1h2v-1l2 1v1zM146 13946h-2v-1h3l-1 1zM155 13945h-1v-1h1v1zM179 13944h-1v-1h1v1zM172 13944h-1v-1h1v1zM170 13944h-2v-1h2v1zM166 13944h-1l1 -1h1l-1 1zM145 13944h-1v-1h1v1zM155 13943h-1v-1h1v1zM142 13943h-1v-1h1v1zM136 13943h-1l1 -1h1l-1 1zM173 13942h-1v-1h1v1zM171 13942h-1v-1h1v1zM154 13942h-1v-1h1v1zM150 13942h-1l1 -1h1l-1 1zM131 13942h-1v-1h1v1zM128 13942h-1v-1h1v1zM179 13941h-1v-1h1v1zM175 13942l-1 -1v-1h1v2zM170 13941h-1v-1h1v1zM168 13942h-2l2 -2v2zM165 13941h-1v-1h1v1zM162 13941h-4v-1h5l-1 1zM153 13941h-1v-1h1v1zM135 13941h-1v-1h1v1zM132 13941h-1v-1h1v1zM156 13941l-1 -1v-1l1 1v1zM134 13940h-2v-1h2v1zM145 13939h-1v-1h1v1zM148 13938h-1v-1h1v1zM160 13937h-1v-1h1v1zM166 13936h-1v-1h1v1zM149 13936h-1v-1h1v1zM152 13935h-1v-1h1v1zM171 13934h-1v-1h1v1zM140 13934h-1v-1h1v1zM174 13933h-1v-1h1v1zM170 13933h-1v-1h1v1zM161 13933h-1v-1h1v1zM149 13933h-1v-1h1v1zM143 13933h-1v-1h1v1zM172 13932h-1v-1h1v1zM169 13932h-1v-1h1v1zM148 13932h-2v-1h2v1zM-53 13958h-1v-1h1v1zM-110 13990h-1v-1h1v1zM-180 13959l-1 -1v-1l1 1v1zM-370 13971v-1h2v1h-2zM-368 13970v-1h4v1h-2v1l-2 -1zM-368 13968v-1h4v1h-4zM-357 13967h-1v-1h1v1zM-364 13967v-1l2 1h-2zM-370 13967v-1h2v1h-2zM-360 13966h-2v-1h2v1zM-390 13965v1l-2 -1h2zM-356 13965h-3l1 -1h2v1zM-368 13966l1 -2h2l-1 2h-2zM-384 13964h-2l-1 -2h1l2 2zM-357 13961v1l-1 1v-1v-1h1zM-361 13962v-1h2v1h-1h-1zM-367 13962v-1h2v2h-1v-1h-1zM-376 13962h-2v-1h2v1zM-383 13962h-1h-1l1 -1h1v1zM-395 13962h-1v-1h1v1zM-357 13960h1l-1 1v-1zM-359 13961v-1h1v1h-1zM-392 13961h-2v-1h2v1zM-390 13960h-1v-1h1v1zM-370 13958l2 1h1l-1 1l-3 -1h1v-1zM-371 13959h-3v-1h3v1zM-383 13960l-1 -1v-1h1v2zM-385 13959h-1v-1h1v1zM-387 13959h-1v-1h1v1zM-392 13959h-2v-1h2v1zM-371 13958l1 -1v1h-1zM-384 13958h-1v-1h1v1zM-390 13958h-2v-1h2v1zM-371 13957h-1v-1h1v1zM-388 13957h-2v-1h3l-1 1zM-385 13956h-1v-1h1v1zM-395 13951h-1v-1h1v1zM-393 13950h-1v-1h1v1zM-394 13949l-1 -1v-1l1 1v1zM-391 13949l-1 -1v-3l1 1v3zM-394 13947l-2 -1v-1h3v1l-1 1zM-392 13942h-1v-1h1v1zM-392 13940h-1v-1h1v1zM-394 13941h-2v-1l2 -1v1v1zM-386 13939h-1v-1h1v1zM-390 13939h-1l1 -1h1l-1 1zM-388 13938h-1v-1h1v1zM-392 13938h-1v-1h1v1zM-439 13977h-1v-1h1v1zM-434 13976h-1v-1h1v1zM-438 13975h-2v-1h2v1zM-434 13974h-1v-1h1v1zM-437 13974h-1v-1h1v1zM-441 13974h-1v-1h1v1zM-443 13974h-1v-1h1v1zM-430 13973h-1v-1h1v1zM-440 13973h-1v-1h1v1zM-442 13973h-1v-1h1v1zM-413 13971l-1 1v-1h1zM-421 13972h-1v-1h1v1zM-426 13973l-1 -1v-1l1 1v1zM-408 13971h-1v-1h1v1zM-414 13971l-1 -1h1v1zM-423 13971h-1v-1h1v1zM-425 13971h-1v-1h1v1zM-437 13971h-1v-1h1v1zM-416 13970h-1v-1h1v1zM-419 13970h-1v-1h1v1zM-436 13970h-1v-1h1v1zM-439 13970h-1v-1h1v1zM-417 13969h-1v-1h1v1zM-435 13969h-1v-1h1v1zM-437 13969h-1v-1h1v1zM-401 13967v2h-1l-2 -2h3zM-414 13968h-1v-1h1v1zM-433 13969l-1 -1v-1l1 1v1zM-401 13966h4v2l-4 -1v-1zM-411 13967h-1l-1 -1h1h1v1zM-434 13967h-1v-1h1v1zM-411 13966v-1l2 1h-2zM-429 13966h-1v-1h1v1zM-433 13966h-1v-1h1v1zM-398 13965h-2v-1h2v1zM-404 13966v-2l2 1l1 1h-3zM-400 13964h-3l1 -1h2v1zM-429 13964h-1v-1h1v1zM-397 13963h-1v-1h1v1zM-403 13963h-1v-1h1v1zM-424 13963h-1v-1h1v1zM-427 13963h-1v-1h1v1zM-401 13962h-1v-1h1v1zM-422 13962h-1v-1h1v1zM-398 13961h-1v-1h1v1zM-414 13961h-1v-1h1v1zM-420 13961h-1v-1h1v1zM-419 13960h-1v-1h1v1zM-422 13960h-1v-1h1v1zM-409 13958h-1v-1h1v1zM-413 13958h-1v-1h1v1zM-416 13958h-1l1 -1h1l-1 1zM-407 13957h-1v-1h1v1zM-411 13957h-1v-1h1v1zM-414 13957h-1v-1h1v1zM-423 13957h-1v-1h1v1zM-401 13954h-1v-1h1v1zM-412 13956l-4 -1l-1 -1l1 -1l4 1v2zM-399 13953h-1v-1h1v1zM-418 13953h-1v-1h1v1zM-397 13952h-1v-1h1v1zM-406 13953v-1l2 -1h1l-1 1l-2 1zM-410 13952v-1h3l-1 2v-1h-2zM-416 13952h-2v-1h3l-1 1zM-454 13952h-1v-1h1v1zM-400 13951h-1l1 -1h1l-1 1zM-402 13951h-1v-1h1v1zM-418 13951h-1v-1h1v1zM-445 13951h-1v-1h1v1zM-401 13950h-1v-1h1v1zM-411 13951h-4l1 -1h1l2 -1v2zM-416 13950h-2v-1h2v1zM-419 13950h-1v-1h1v1zM-399 13949h-1v-1h1v1zM-404 13949h-2v-1h2v1zM-408 13950h-2v-2l2 1h1l-1 1zM-415 13949h-1v-1h1v1zM-439 13949h-1v-1h1v1zM-454 13949h-1v-1h1v1zM-401 13948h-1v-1h1v1zM-407 13948h-1v-1h1v1zM-412 13948h-2v-1h2v1zM-431 13948h-1v-1h1v1zM-434 13948h-1l1 -1h1l-1 1zM-437 13948h-1v-1h1v1zM-444 13948h-1v-1h1v1zM-396 13948l-4 -1v-1h2l2 2zM-428 13947h-2v-1h3l-1 1zM-402 13946h-1v-1h1v1zM-407 13946h-1v-1h1v1zM-424 13946h-1v-1h1v1zM-443 13947l-1 -1v-1l1 1v1zM-450 13946h-2v-1h3l-1 1zM-453 13947h-1l-1 -1l1 -1l1 1v1zM-399 13945h-1v-1h1v1zM-405 13945h-1v-1h1v1zM-417 13945h-1v-1h1v1zM-419 13945h-1v-1h1v1zM-429 13945h-1v-1h1v1zM-445 13946l-1 -1v-1h1v2zM-402 13944h-1v-1h1v1zM-413 13944h-1v-1h1v1zM-415 13944h-1v-1h1v1zM-441 13944h-1v-1h1v1zM-446 13944h-1v-1h1v1zM-451 13944h-1v-1h1v1zM-453 13944h-1v-1h1v1zM-459 13944h-1v-1h1v1zM-399 13943h-1v-1h1v1zM-405 13943h-1v-1h1v1zM-410 13943h-1v-1h1v1zM-412 13943h-1v-1h1v1zM-428 13943h-2v-1h2v1zM-436 13943h-2v-1h2v1zM-443 13943h-1v-1h1v1zM-397 13942h-1v-1h1v1zM-424 13942h-2v-1h2v1zM-427 13942h-1v-1h1v1zM-433 13943l-3 1v-1h2l2 -2l1 1l-1 1h-1zM-434 13942h-1v-1h1v1zM-403 13941h-1v-1h1v1zM-420 13941h-1l1 -1h1l-1 1zM-399 13940h-1v-1h1v1zM-416 13940h-2v-1h3l-1 1zM-396 13939h-1v-1h1v1zM-412 13939h-1v-1h1v1zM-404 13938h-1v-1h1v1zM-408 13938h-1v-1h1v1zM-406 13937h-1l1 -1h1l-1 1zM-396 13935v1l-2 -1h2zM-402 13936h-1v-1h1v1zM-409 13936h-1v-1h1v1zM-471 13965h-1v-1h1v1zM-469 13964h-1v-1h1v1zM-468 13963h-1v-1h1v1zM-469 13962h-1v-1h1v1zM-471 13963l-1 -1v-2h1v3zM-473 13962l-1 -1v-1h1v2zM-470 13959h-1v-1h1v1zM-469 13957h-1v-1h1v1zM-472 13957h-1v-1h1v1zM-476 13956h-1v-1h1v1zM-467 13955h-1v-1h1v1zM-472 13955h-2v-1h2v1zM-475 13954l-1 1v-1h1zM-468 13954h-2v-1h2v1zM-471 13954h-1v-1h1v1zM-475 13953l1 1h-1v-1zM-476 13954h-1l1 -1v1zM-476 13953v-1l1 1h-1zM-462 13952h-2v-1h2v1zM-465 13952h-1v-1h1v1zM-477 13952h-1v-1h1v1zM-466 13950v1l-1 -1h1zM-472 13951l1 -1h3v1l-2 1l-2 -1zM-468 13950v-1h1v1h-1zM-471 13949v-1h1h2v1h-3zM-468 13948v-1l1 1h-1zM-481 13947h-1v-1h1v1zM-472 13946h-4v-1h4v1zM-478 13948h-1v-2l1 -1v1h2l-2 2zM-466 13945h-1v-1h1v1zM-470 13946l-2 -2h4l-2 2zM-480 13945h-2v-1h2v1zM-462 13944h-1v-1h1v1zM-464 13945l-2 -1v-1h2l1 1l-1 1zM-475 13944h-1v-1h1v1zM-478 13944l-1 -1l1 -1h1l-1 2zM-461 13942h-1v-1h1v1zM-471 13942h-1v-1h1v1zM-474 13942h-1v-1h1v1zM-466 13941h-2v-1h2v1zM-460 13940h-1v-1h1v1zM-560 13938h-1v-1h1v1zM-552 13937h-1l1 -1h1l-1 1zM-549 13936h-1v-1h1v1zM-556 13936h-1v-1h1v1zM-555 13935h-1v-1h1v1zM-554 13934h-1v-1h1v1zM-537 13933h-1v-1h1v1zM-539 13933h-1v-1h1v1zM-553 13933h-1v-1h1v1zM-552 13932h-1v-1h1v1zM-605 13962l-1 1v-1h1zM-605 13962v-2h1v2h-1zM-606 13962h-1l1 -2v2zM175 13931h-1v-1h1v1zM171 13931h-1v-1h1v1zM152 13931h-1v-1h1v1zM149 13931h-1v-1h1v1zM174 13930h-1v-1h1v1zM157 13930h-1v-1h1v1zM154 13931l-2 -1v-1h2v1v1zM135 13930h-1v-1h1v1zM178 13930h-2v-2l2 2zM175 13929h-1v-1h1v1zM149 13929h-1v-1h1v1zM137 13929h-1v-1h1v1zM162 13928h-1v-1h1v1zM153 13928h-1v-1h1v1zM151 13928h-1v-1h1v1zM176 13927h-1l1 -1h1l-1 1zM154 13927h-1v-1h1v1zM146 13927h-1v-1h1v1zM161 13926h-1v-1h1v1zM170 13925h-1l1 -1h1l-1 1zM159 13925h-1v-1h1v1zM140 13925h-1v-1h1v1zM137 13925l-1 2l-2 -1l2 -2v1h1zM162 13924h-1v-1h1v1zM144 13924h-1l1 -1h1l-1 1zM136 13924v-1h2l1 1l-2 1v-1h-1zM179 13923h-1v-1h1v1zM174 13924h-3l1 -1l2 -1h1l-1 2zM165 13923h-1v-1h1v1zM147 13923h-1v-1h1v1zM178 13922h-1v-1h1v1zM176 13922h-1v-1h1v1zM167 13922h-1v-1h1v1zM149 13922h-1v-1h1v1zM152 13921h-1v-1h1v1zM164 13920h-1v-1h1v1zM156 13920h-1v-1h1v1zM150 13920h-3l1 -1h2v1zM158 13919h-1v-1h1v1zM146 13919h-2v-1h2v1zM142 13919h-1l1 -1h1l-1 1zM171 13918h-1v-1h1v1zM162 13918h-2v-1h2v1zM141 13918h-1v-1h1v1zM173 13917h-1v-1h1v1zM156 13917h-1l1 -1h1l-1 1zM148 13917h-2v-1h2v1zM145 13917h-1v-1h1v1zM178 13916h-2v-1h2v1zM159 13916h-1v-1h1v1zM152 13916h-1l1 -1h1l-1 1zM144 13916h-1v-1h1v1zM142 13917h-1v-1l1 -1l1 1l-1 1zM170 13915h-1v-1h1v1zM162 13915h-1l1 -1h1l-1 1zM158 13915h-1v-1h1v1zM172 13914h-1v-1h1v1zM167 13913l1 1h-1v-1zM148 13915h-2v-1l2 -1h4v1l-4 1zM179 13913h-1v-1h1v1zM176 13914h-3l1 -1l2 -1v2zM173 13913h-1v-1h1v1zM158 13913h-1v-1h1v1zM156 13913h-2v-1h2v1zM153 13913h-1v-1h1v1zM145 13913h-1v-1h1v1zM160 13913l-1 -1l5 -1v1h-4v1zM157 13912h-1v-1h1v1zM149 13912h-1v-1h1v1zM175 13911h-1v-1h1v1zM166 13913v-1h-1l1 -2h1v3h-1zM154 13911h-2v-1h2v1zM150 13911h-1v-1h1v1zM157 13910h-1v-1h1v1zM160 13909h-1v-1h1v1zM155 13909h-1v-1h1v1zM169 13908h-1v-1h1v1zM162 13908h-1l1 -1h1l-1 1zM145 13908h-1v-1h1v1zM166 13907h-2v-1h3l-1 1zM148 13907h-1v-1h1v1zM170 13906h-1v-1h1v1zM161 13906h-1v-1h1v1zM156 13906h-1v-1h1v1zM154 13906h-1v-1h1v1zM150 13907h-1v-1l1 -1l1 1l-1 1zM172 13905h-2v-1h2v1zM164 13905h-1v-1h1v1zM159 13905h-1v-1h1v1zM152 13905h-1v-1h1v1zM174 13904h-1l1 -1h1l-1 1zM169 13904h-1v-1h1v1zM158 13904h-1v-1h1v1zM156 13904h-1v-1h1v1zM177 13903h-1v-1h1v1zM162 13902h2h1l-1 1h-2v-1zM162 13903v1h-2l1 -2l1 1zM150 13903h-1l1 -1h1l-1 1zM178 13902h-1v-1h1v1zM175 13902h-1v-1h1v1zM168 13902h-3l1 -1h2v1zM161 13902l1 -1v1h-1zM157 13902h-1v-1h1v1zM155 13902h-1v-1h1v1zM152 13902h-1v-1h1v1zM170 13901h-1v-1h1v1zM164 13901h-1l1 -1h1l-1 1zM158 13901h-1v-1h1v1zM173 13899l1 1h-1v-1zM173 13900l-1 1h-1l1 -2v1h1zM167 13900h-1v-1h1v1zM178 13900l-1 -1v-1h1v2zM171 13899h-1v-1h1v1zM160 13899h-2v-1h2v1zM154 13900h-2v-2l2 2zM179 13898h-1v-1h1v1zM176 13899h-2v-2h2v2zM172 13899v-1v-1l1 1v1h-1zM168 13898h-1v-1h1v1zM158 13898h-1v-1h1v1zM156 13899h-1v-1l1 -1l1 1l-1 1zM165 13897h-1v-1h1v1zM178 13896h-1v-1h1v1zM169 13896h-1v-1h1v1zM162 13896h-1v-1h1v1zM159 13895h-1v-1h1v1zM153 13895h-1v-1h1v1zM157 13894h-1v-1h1v1zM175 13893h-1v-1h1v1zM172 13893h-1v-1h1v1zM172 13891h-1v-1h1v1zM-121 13919h-1v-1h1v1zM-123 13919h-1v-1h1v1zM-118 13918h-2l2 -2h1l-1 2zM-120 13917h-1v-1h1v1zM-123 13872h-1v-1h1v1zM-122 13871l-1 -1h1v1zM-159 13921h-1v-1h1v1zM-551 13931h-1v-1h1v1zM-569 13926h-1v-1h1v1zM-568 13924h-1v-1h1v1zM-570 13923h-1v-1h1v1zM-563 13921h-1v-1h1v1zM-576 13922v-2h1v2h-1zM-571 13920h-1v-1h1v1zM-577 13920l1 -1v1h-1zM-544 13918h-1v-1h1v1zM-577 13918h-1v-1h1v1zM-565 13917l-1 -1v-1l1 1v1zM-564 13915h-1v-1h1v1zM-566 13915h-1v-1h1v1zM-574 13914h-1v-1h1v1zM-564 13912h-1v-1h1v1zM-561 13911h-1v-1h1v1zM-563 13911l-1 -1v-1l1 1v1zM-573 13911l-1 -1v-1l1 1v1zM-561 13909h-1v-1h1v1zM-564 13909h-1v-1h1v1zM-572 13911v-1v-2l2 2l-2 1zM-576 13909h-1v-1h1v1zM-559 13909l-1 -1v-1l1 1v1zM-569 13909l-1 -1v-1l1 1v1zM-575 13908h-1v-1h1v1zM-568 13907h-1v-1h1v1zM-577 13907h-1v-1h1v1zM-558 13906h-1v-1h1v1zM-561 13907l-1 -1v-1l1 1v1zM-569 13906h-1v-1h1v1zM-572 13908h-2v-3l1 1l1 2zM-580 13906h-1v-1h1v1zM-567 13905h-1v-1h1v1zM-574 13905h-1v-1h1v1zM-581 13905h-1v-1h1v1zM-566 13904h-1v-1h1v1zM-570 13904h-1v-1h1v1zM-572 13905h-1v-1l1 -1l1 1l-1 1zM-564 13902h-1v-1h1v1zM-580 13902h-1v-1h1v1zM-571 13902l-1 -1v-1h1v2zM-573 13902l-1 -1v-1h1v2zM-560 13900h-1l1 -1v1zM-583 13900h-1v-1h1v1zM-572 13900l-1 -1v-1h1v2zM-574 13899h-1v-1h1v1zM-552 13899l-1 -1l1 -1l1 1l-1 1zM-553 13897h-1v-1h1v1zM-430 13823h-3l1 -1h2v1zM-426 13822h-3l1 -1h2v1zM-436 13822h-1v-1h1v1zM-423 13821h-1v-1h1v1zM-432 13821h-1v-1h1v1zM-439 13821h-1v-1h1v1zM-421 13819l-1 1l-1 -1h2zM-429 13820h-1v-1h1v1zM-435 13820h-1v-1h1v1zM-421 13818h1l-1 1v-1zM-423 13819h-1v-1h1v1zM-425 13819h-1v-1h1v1zM-428 13819h-1v-1h1v1zM-437 13819h-1v-1h1v1zM-440 13820l-1 -1v-1h1v2zM-423 13818v-1l2 1h-2zM-436 13818h-1v-1h1v1zM-428 13817h-1v-1h1v1zM-431 13817h-1v-1h1v1zM-423 13816h-1v-1h1v1zM-441 13817l-1 -1v-1l1 1v1zM-449 13816l-3 1v-1l4 -1h1l-1 1h-1zM-436 13815h-1v-1h1v1zM-439 13815h-1v-1h1v1zM-446 13815h-1v-1h1v1zM-454 13815h-1v-1h1v1zM-420 13814h-1v-1h1v1zM-441 13813l-1 1v-1h1zM-444 13814h-2v-1h3l-1 1zM-422 13814l-2 -1h-1l1 -1h2v2zM-426 13813h-1v-1h1v1zM-442 13813l-1 -1h1v1zM-449 13813h-1v-1h1v1zM-454 13812h-2v-1h2v1zM-432 13811h-2v-1h2v1zM-428 13810h-1v-1h1v1zM-453 13810h-1v-1h1v1zM-431 13809h-1v-1h1v1zM-440 13809h-1l1 -1h1l-1 1zM-434 13808h-1v-1h1v1zM-458 13808h-1v-1h1v1zM-437 13807h-1v-1h1v1zM-459 13807h-1v-1h1v1zM-432 13806h-1v-1h1v1zM-449 13806h-1v-1h1v1zM-451 13806h-1v-1h1v1zM-458 13806h-1v-1h1v1zM-446 13805h-1v-1h1v1zM-456 13805h-1v-1h1v1zM-436 13804h-1v-1h1v1zM-444 13804h-1v-1h1v1zM-454 13804h-1v-1h1v1zM-517 13861h-1v-1h1v1zM-521 13861h-1v-1h1v1zM-518 13860h-2v-1h2v1zM-522 13860h-1v-1h1v1zM-521 13859h-1v-1h1v1zM-466 13837l-1 -1v-1l1 1v1zM-492 13825h-1l1 -1h1l-1 1zM-500 13825h-1v-1h1v1zM-474 13824h-1l1 -1h1l-1 1zM-488 13824h-1v-1h1v1zM-496 13824h-1v-1h1v1zM-468 13823h-1l1 -1h1l-1 1zM-470 13823h-1v-1h1v1zM-485 13823h-1v-1h1v1zM-466 13822h-1v-1h1v1zM-483 13822h-1v-1h1v1zM-479 13821h-1v-1h1v1zM-496 13822l-1 -1v-1h1v2zM-475 13820h-1v-1h1v1zM-471 13819h-1v-1h1v1zM-476 13819h-1v-1h1v1zM-497 13819h-1v-1h1v1zM-467 13818h-1v-1h1v1zM-475 13818h-1v-1h1v1zM-480 13819l-1 -1v-1l1 1v1zM-485 13818h-1v-1h1v1zM-494 13818h-1v-1h1v1zM-474 13817h-1v-1h1v1zM-472 13816h-1v-1h1v1zM-498 13816h-1v-1h1v1zM-464 13815h-1v-1h1v1zM-466 13815h-1v-1h1v1zM-468 13815h-2v-1h2v1zM-474 13815h-1v-1h1v1zM-479 13816l-1 -1v-1h1v2zM-465 13814h-1v-1h1v1zM-472 13815v-1l2 -1v1l-2 1zM-482 13814h-1v-1h1v1zM-500 13815h-1v-1l1 -1l1 1l-1 1zM-481 13813h-1v-1h1v1zM-462 13813h-2v-1l2 -1v1v1zM-472 13812h-1v-1h1v1zM-475 13811l-1 1v-1h1zM-485 13812h-1v-1h1v1zM-491 13812h-1v-1h1v1zM-458 13810l-3 1l1 -1h1l2 -2h2v2h-3zM-466 13811h-1v-1h1v1zM-475 13810h1l-1 1v-1zM-497 13811h-1v-1h1v1zM-488 13810h-1v-1h1v1zM-465 13810l-1 -1v-1h1v2zM-495 13809v-1h1v1h-1zM-497 13809h-1v-1h1v1zM-473 13808h-1v-1h1v1zM-484 13808h-2v-1h2v1zM-470 13808l-2 -1h-1l1 -1h2v2zM-483 13807h-1v-1h1v1zM-460 13806h-1v-1h1v1zM-482 13806h-1v-1h1v1zM-462 13805h-1v-1h1v1zM-470 13806v-1l2 -1l-2 2zM-480 13805h-1v-1h1v1zM-460 13804h-1l1 -1h1l-1 1zM-466 13804h-1v-1h1v1zM-528 13857h-1v-1h1v1zM-528 13855h-1v-1h1v1zM-183 13753h-1v-1h1v1zM-188 13752h-1v-1h1v1zM-200 13753h-2v-2h2l1 1l-1 1zM-192 13751h-1l1 -1h1l-1 1zM-199 13751h-1v-1h1v1zM-190 13750h-1v-1h1v1zM-193 13750h-1v-1h1v1zM-191 13749h-1v-1h1v1zM-195 13749h-1v-1h1v1zM-198 13749h-2v-1h2v1zM-192 13748h-1v-1h1v1zM-194 13747h-1v-1h1v1zM-428 13803h-1v-1h1v1zM-442 13803h-1l1 -1h1l-1 1zM-455 13803h-1v-1h1v1zM-429 13802h-1v-1h1v1zM-438 13802h-1l1 -1h1l-1 1zM-452 13803h-2v-1v-1l2 1v1zM-434 13801h-1v-1h1v1zM-439 13801h-1v-1h1v1zM-455 13801h-1v-1h1v1zM-456 13798h-1v-1h1v1zM-454 13797h-2v-1h2v1zM-458 13797h-1l1 -1h1l-1 1zM-453 13796h-1v-1h1v1zM-454 13795h-1v-1h1v1zM-443 13794h-1v-1h1v1zM-450 13794h-2v-1h2v1zM-442 13793h-1v-1h1v1zM-448 13793h-2v-1h2v1zM-453 13792h-1v-1h1v1zM-456 13791h-1l1 -1h1l-1 1zM-445 13790h-1v-1h1v1zM-458 13790l-2 -2h2v2zM-440 13787h-1v-1h1v1zM-446 13786h1l-1 1v-1zM-456 13788h-2l2 -2v2zM-444 13786h-1v-1h1v1zM-459 13786h-1v-1h1v1zM-447 13782h1l2 2h-2l-1 -2zM-454 13782h-6l2 -2l4 1v1zM-456 13780h-1l1 -1h1l-1 1zM-446 13778h-1v-1h1v1zM-449 13778h-1v-1h1v1zM-454 13779l-1 -1l1 -1h2v1l-2 1zM-459 13778h-1v-1h1v1zM-450 13777h-2v-1h2v1zM-454 13777h-1v-1h1v1zM-457 13777h-1v-1h1v1zM-449 13776h-1v-1h1v1zM-452 13776h-1v-1h1v1zM-455 13776h-1v-1h1v1zM-448 13775h-1l1 -1h1l-1 1zM-447 13773h-1v-1h1v1zM-449 13774l-1 -1v-1h1v2zM-457 13773h-1v-1h1v1zM-443 13772h-1v-1h1v1zM-448 13772h-1v-1h1v1zM-456 13772h-1l1 -1h1l-1 1zM-444 13771h-1v-1h1v1zM-447 13771h-1v-1h1v1zM-440 13770h-1v-1h1v1zM-454 13771l-1 -1v-1l1 1v1zM-458 13770h-1v-1h1v1zM-441 13769h-1v-1h1v1zM-459 13769h-1v-1h1v1zM-442 13768h-1v-1h1v1zM-449 13769l-1 -1v-1l1 1v1zM-452 13770h-1v-2l1 -1l1 1l-1 2zM-454 13768h-1v-1h1v1zM-457 13768h-1v-1h1v1zM-441 13767h-1v-1h1v1zM-446 13766h2v1h-2v-1zM-446 13767v1h-2l1 -2l1 1zM-450 13767h-1v-1h1v1zM-455 13767h-1v-1h1v1zM-435 13766h-1v-1h1v1zM-437 13766h-1v-1h1v1zM-439 13767l-1 -1v-1l1 1v1zM-442 13766h-1v-1h1v1zM-447 13766l1 -1v1h-1zM-454 13766h-1l1 -1h1l-1 1zM-436 13765h-1v-1h1v1zM-440 13765h-1v-1h1v1zM-444 13765h-2v-1h3l-1 1zM-452 13765h-1v-1h1v1zM-458 13765h-2v-1h2v1zM-441 13764h-1v-1h1v1zM-447 13764h-1v-1h1v1zM-453 13764h-1v-1h1v1zM-456 13764h-1l1 -1h1l-1 1zM-438 13765l-1 -1v-2h1v3zM-450 13764l-2 -1h-1l1 -1h2h1l-1 2zM-435 13764h-1v-3h2v1h-1v2zM-437 13762h-1v-1h1v1zM-442 13763l-1 -1v-1l1 1v1zM-446 13763l-1 -1l3 -1v1h-2v1zM-448 13762h-1v-1h1v1zM-455 13762h-1v-1h1v1zM-457 13762h-1v-1h1v1zM-432 13761h-1v-1h1v1zM-456 13761h-1v-1h1v1zM-435 13760h-1v-1h1v1zM-449 13760h-1v-1h1v1zM-452 13760h-2v-1h3l-1 1zM-438 13760l-1 -1l1 -1h1l-1 2zM-434 13758h-1v-1h1v1zM-446 13759h-2v-2h2v2zM-443 13758v-2h1v2h-1zM-448 13757h-1v-1h1v1zM-434 13756h-1v-1h1v1zM-436 13756h-1v-1h1v1zM-440 13755h-1v-1h1v1zM-438 13754h-1v-1h1v1zM-441 13754h-1v-1h1v1zM-456 13740h-1v-1h1v1zM-465 13803h-1v-1h1v1zM-476 13803h-1v-1h1v1zM-491 13803h-1v-1h1v1zM-462 13802h-2v-1h2v1zM-493 13802h-1v-1h1v1zM-492 13801h-1v-1h1v1zM-461 13801l-1 -1v-1l1 1v1zM-472 13800h-2v-1h2v1zM-486 13800h-1v-1h1v1zM-460 13800l-1 -2l1 -1l2 1l-2 2zM-485 13798l-1 1v-1h1zM-489 13799h-1v-1h1v1zM-492 13798v1l-1 -1h1zM-468 13798h-2v-1h2v1zM-473 13798h-1v-1h1v1zM-476 13800h-2l2 -3l2 1l-2 2zM-497 13799h-2v-2h2v2zM-472 13797h-1l1 -1h1l-1 1zM-480 13797h-1l1 -1h1l-1 1zM-485 13796l1 1h2v1h-3v-2zM-486 13798h-2l1 -2h1v2zM-466 13796h-1l1 -1h1l-1 1zM-487 13796h-1h-1v-1h2v1zM-464 13795h-1v-1h1v1zM-469 13795h-1v-1h1v1zM-480 13795h-1v-1h1v1zM-466 13794h-3l1 -1h2v1zM-472 13794h-2v-1h2v1zM-460 13793h-2v-1h2v1zM-469 13793h-1v-1h1v1zM-481 13794l-1 -1v-1h1v2zM-476 13792h-1v-1h1v1zM-478 13793h-2v-1v-1l2 1v1zM-464 13792l-2 1v-1l2 -2h3l-1 1l-2 1zM-467 13791h-1v-1h1v1zM-474 13791h-2v-1h3l-1 1zM-478 13791h-1v-1h1v1zM-483 13791h-1v-1h1v1zM-464 13790h-1v-1h1v1zM-471 13790h-1h-1l1 -2h1v2zM-479 13788h3v1h-3v-1zM-464 13788h-2v-1h2v1zM-474 13788h-2v-1h2v1zM-480 13788v-1l1 1h-1zM-483 13788h-1v-1h1v1zM-462 13787h-1v-1h1v1zM-487 13786h-1v-1h1v1zM-460 13783h-1v-1h1v1zM-461 13781h-1v-1h1v1zM-460 13780h-1v-2h1l1 2h-1zM-467 13778h-1v-1h1v1zM-464 13777h-1v-1h1v1zM-472 13776h-1v-1h1v1zM-462 13776h-2l2 -2h1l-1 2zM-460 13774h-1v-1h1v1zM-471 13774h-1v-1h1v1zM-466 13773h-1v-1h1v1zM-462 13773h-2l-1 -1l1 -1l2 1v1zM-474 13772h-1v-1h1v1zM-469 13771h-1v-1h1v1zM-462 13771l-4 -1v-1h4l1 1l-1 1zM-473 13770h-1v-1h1v1zM-476 13769h-1v-1h1v1zM-469 13767h-1v-1h1v1zM-464 13766h-4v-1h4v1zM-474 13766h-1l1 -1h1l-1 1zM-480 13766h-1v-1h1v1zM-471 13765h-1v-1h1v1zM-466 13764h-1v-1h1v1zM-470 13764h-1v-1h1v1zM-473 13764h-1v-1h1v1zM-479 13764h-1v-1h1v1zM-464 13763h-2v-1h2v1zM-472 13763h-1l1 -1h1l-1 1zM-460 13763v-1l-2 1v-1v-1h3v1l-1 1zM-475 13765l-1 -1v-3l1 1v3zM-473 13761h-1v-1h1v1zM-472 13760h-1v-1h1v1zM-475 13760h-1v-1h1v1zM-482 13760l-1 -1v-1h1v2zM-471 13757h-1v-1h1v1zM-474 13757h-1v-1h1v1zM-463 13754h-1v-1h1v1zM-470 13754h-2v-1h2v1zM-481 13755l-1 -1v-1l1 1v1zM-467 13753h-1v-1h1v1zM-473 13753h-1v-1h1v1zM-468 13752h-1v-1h1v1zM-464 13750h-1v-1h1v1zM-467 13750h-1v-1h1v1zM-475 13749h-1v-1h1v1zM-477 13749h-1v-1h1v1zM-469 13748v-2h1v2h-1zM-483 13747h-1v-1h1v1zM-468 13745l1 1h-1v-1zM-478 13747l-1 -1l1 -1h2v1l-2 1zM-465 13745h-1v-1h1v1zM-473 13745h-1v-1h1v1zM-464 13744h-1v-1h1v1zM-472 13744h-1v-1h1v1zM-475 13744h-1v-1h1v1zM-460 13743h-1l1 -1h1l-1 1zM-465 13743h-1v-1h1v1zM-471 13743h-1v-1h1v1zM-474 13743h-1v-1h1v1zM-462 13742h-1v-1h1v1zM-464 13742h-1v-1h1v1zM-473 13742h-1v-1h1v1zM-484 13742h-1v-1h1v1zM-468 13741h-1v-1h1v1zM-463 13741l-1 -1v-1l1 1v1zM-467 13740h-1v-1h1v1zM-479 13741v-2l2 1h-1v1h-1zM-485 13740h-1v-1h1v1zM-458 13738h-1v-1h1v1zM-452 13734h-1v-1h1v1zM-456 13732h-1v-1h1v1zM-457 13731h-1v-1h1v1zM-455 13729h-1v-1h1v1zM-453 13729l-1 -1v-1l1 1v1zM-458 13728h-2v-1h2v1zM-446 13726h-1v-1h1v1zM-448 13725h-1v-1h1v1zM-452 13727l-1 -1l1 -2h2l-2 3zM-453 13721v1l-1 1v-1v-1h1zM-457 13722h-1v-1h1v1zM-453 13720h1l-1 1v-1zM-454 13721l-1 -1h1v1zM-458 13721h-1v-1h1v1zM-454 13720v-1l1 1h-1zM-448 13721l-1 -1v-2h1v3zM-452 13718v1l-1 -1h1zM-459 13719h-1v-1h1v1zM-447 13718h-1v-1h1v1zM-452 13717l1 1h-1v-1zM-457 13718h-1v-1h1v1zM-453 13718h-1v-2l2 1l-1 1zM-449 13716h-1v-1h1v1zM-456 13715v1l-1 -1h1zM-446 13715l-1 -1v-1l1 1v1zM-450 13712h-1v-1h1v1zM-448 13712v-1l2 -1l-2 2zM-448 13709h-1v-1h1v1zM-449 13708h-1v-1h1v1zM-455 13708h-1v-1h1v1zM-457 13708h-1v-1h1v1zM-450 13707h-1v-1h1v1zM-461 13739h-1v-1h1v1zM-469 13739h-1v-1h1v1zM-466 13736l-2 2h-1l1 -2h2zM-459 13736h-1h-1l1 -2h1v2zM-466 13735l1 1h-1v-1zM-461 13735h-1v-1h1v1zM-463 13735h-1v-1h1v1zM-470 13734h-1v-1h1v1zM-468 13733l-1 -1l1 -1h1v1l-1 1zM-470 13732h-1v-1h1v1zM-462 13731h-1v-1h1v1zM-469 13731h-1v-1h1v1zM-464 13731l-1 -1v-1l1 1v1zM-468 13730h-1v-1h1v1zM-460 13731l-2 -1l2 -2v2v1zM-467 13729h-1v-1h1v1zM-465 13728h-1v-1h1v1zM-462 13727h-2v-1h2v1zM-468 13724h-1v-1h1v1zM-474 13724h-1v-1h1v1zM-460 13723h-1v-1h1v1zM-469 13723h-1v-1h1v1zM-467 13723l-1 -1v-1l1 1v1zM-476 13722h-1v-1h1v1zM-461 13721h-1v-1h1v1zM-464 13720h-1v-1h1v1zM-467 13720h-1v-1h1v1zM-469 13720h-1v-1h1v1zM-472 13720h-1l1 -1h1l-1 1zM-468 13719l-1 -1v-1l1 1v1zM-461 13717h-1v-1h1v1zM-473 13717h-1v-1h1v1zM-476 13717h-2v-1h2v1zM-479 13717h-1v-1h1v1zM-465 13716h-1v-1h1v1zM-460 13715h-5l1 -1h4v1zM-475 13711h-1v-1h1v1zM-461 13709h-1v-1h1v1zM-474 13710l-4 -1v-1h4h1l-1 2zM-482 13711v-1l-1 -2h1l1 2v1h-1zM-480 13709l-1 -1l1 -1h1v1l-1 1zM-464 13707h-2v-1h2v1zM-468 13708h-4v-1l4 -1h1l-1 2zM-474 13707h-3l1 -1h2v1zM-463 13706h-1v-1h1v1zM-490 13705h-1v-1h1v1zM-476 13703h-1v-1h1v1zM-479 13703v-1l1 -1h1v1l-1 1h-1zM-478 13615l-1 -1v-1l1 1v1zM-465 13562h1l-1 1v-1zM-466 13562v-2h1v2h-1zM144 13451h-1l1 -1h1l-1 1zM142 13450h-2v-1h2v1zM139 13450h-1v-1h1v1zM137 13449h-1v-1h1v1zM135 13448h-1v-1h1v1zM132 13448h-1v-1h1v1zM118 13448h-1v-1h1v1zM136 13447h-1v-1l1 -1l1 1l-1 1zM119 13446h-1v-1h1v1zM135 13445l-1 -1v-1l1 1v1zM133 13445l-1 -1v-1l1 1v1zM134 13442h-2v-1h2v1zM104 13455h-1v-1h1v1zM102 13455h-1v-1h1v1zM103 13454h-1v-1h1v1zM109 13451h-1v-1h1v1zM111 13450h-1v-1h1v1zM114 13449h-1v-1h1v1zM109 13449h-1v-1h1v1zM415 13905h-1v-1h1v1zM410 13878h1l-1 1v-1zM378 13869h-1v-1h1v1zM379 13868h-1v-1h1v1zM291 13917h-1v-1h1v1zM378 13866l-1 -1v-1h1v2zM376 13865h-1v-1h1v1zM377 13863l-1 -1v-1l1 1v1zM376 13861h-2v-2h2v2zM542 13779l-1 -1v-1l1 1v1zM603 13704l-1 -1v-1h1v2zM602 13701l-1 -1v-1l1 1v1zM600 13699l-1 -1l1 -1h1v1l-1 1zM501 13646h-1v-5l1 1v4zM502 13642l-1 -2h1h1v2h-1zM501 13640h-1v-1h1v1zM504 13640l-1 -1v-1h1v2zM323 13609h-1v-1h1v1zM324 13606h-1v-1h1v1zM323 13605h-1v-1h1v1zM328 13601h-1v-1h1v1zM322 13601h-3l1 -1h2v1zM328 13599h-1v-1h1v1zM327 13598h-1v-1h1v1zM324 13598v-1l1 1h-1zM322 13597h-1v-1h1v1zM383 13478h-1v-1h1v1zM208 14000h-2v-1h2v1zM209 13999h-1v-1h1v1zM211 13997h-1v-1h1v1zM213 13995h-1v-1h1v1zM214 13992h-1v-1h1v1zM196 13992h-1v-1h1v1zM194 13992h-1v-1h1v1zM214 13988l-1 -1v-1h1v2zM189 13986h-1v-1h1v1zM201 13984h-1v-1h1v1zM196 13984h-1v-1h1v1zM182 13949h-1l1 -1h1l-1 1zM184 13947h-2v-1h2v1zM181 13946l-1 -1v-1h1v2zM184 13944h-1v-1h1v1zM183 13942h-1v-1h1v1zM180 13942v-1l2 -1l-2 2zM180 13951h-2v1h-1v-2h3v1zM181 13930h-1v-1h1v1zM183 13927h-1v-1h1v1zM183 13924h-1v-1h1v1zM188 13923h-1v-1h1v1zM189 13922h-1v-1h1v1zM187 13922h-1v-1h1v1zM190 13920h-1v-1h1v1zM182 13920h-1v-1h1v1zM183 13919h-1v-1h1v1zM185 13917h-1v-1h1v1zM187 13916h-1v-1h1v1zM186 13915h-1v-1h1v1zM184 13914h-1l1 -1h1l-1 1zM188 13913h-2v-1h3l-1 1zM181 13913h-1v-1h1v1zM190 13912h-1v-1h1v1zM184 13912h-1v-1h1v1zM183 13911h-1v-1h1v1zM190 13910h-2v-2h2v2zM181 13909h-1v-1h1v1zM189 13907h-1v-1h1v1zM184 13906h-1v-1h1v1zM182 13901h-1l1 -1h1l-1 1zM183 13899h-1v-1h1v1zM195 13897l-3 1v-3h5v2h-2zM187 13896h-1v-1h1v1zM185 13896h-1v-1h1v1zM200 13896h-2l-1 -2h1l2 2zM186 13895h-1v-1h1v1zM183 13895h-1v-1h1v1zM204 13894h-2v-1h3l-1 1zM189 13894h-1v-1h1v1zM187 13894h-1v-1h1v1zM207 13893h-1v-1h1v1zM200 13894h-1l1 -2h2l-2 2zM208 13891v1l-1 -1h1zM205 13892h-1v-1h1v1zM187 13892h-1v-1h1v1zM207 13891h-1l-1 -1h1h1v1zM194 13891h-1l1 -1h1l-1 1zM182 13890h-1v-1h1v1zM206 13889h-1v-1h1v1zM188 13889h-1v-1h1v1zM213 13887h-1v-1h1v1zM206 13887h-1v-1h1v1zM214 13884h1v2l-1 1l-1 -2h1v-1zM180 13929h-1v-1h1v1zM180 13924h-1v-1h1v1zM180 13915h-1l1 -1h1l-1 1zM180 13910h-2v-1h2v1zM180 13902h-1v-1h1v1zM180 13900h-1v-1h1v1zM180 13897h-1l1 -1h1l-1 1zM180 13895h-1l1 -1h1l-1 1zM223 13734h-1v-1h1v1z"/></svg>