<svg xmlns="http://www.w3.org/2000/svg" viewBox="-426 14985 969 656"><g class="s" data-r fill="#000" fill-rule="evenodd"><path class="chunk" data-i="2" d="M9 15575h1v-1v-1h1v1h1l-1 2v2h-2h-2h-1l-2 1l-1 -1l1 -2h-1v-2h1v1h2v1v1l1 -1l1 -1v1l1 -1zM10 15577v-1h-1v1h1zM13 15574h-1v-1h-1l-1 -1v1h-2v1h-2l-1 -2l2 -2v-1l1 1v1h2l2 -2v1v2h2v1l-1 1zM14 15572v-1l1 -2h-1h-1l1 -1h1v-2h1l1 1v1h-1v1h1l-1 1v2l2 -2h2v2h-2l-3 1v-1h-1zM17 15568h1l-1 -1v-1l1 -2h2v2l-1 3h-2v-1zM12 15561l-1 3v1l-1 -1l-1 -2h1l1 -1h1zM10 15546v-2l-2 1l-1 1h3zM8 15549l1 -1l-1 -1l-1 1l1 1zM0 15549v-1h-1v1h1zM3 15550v-2h-1v1l1 1zM1 15551v-1h-1v1h1zM6 15551v-2v-2h-2v2l1 1l-3 1v3h3v-2l1 -1zM7 15553v-1h-1v1h1zM4 15557v-1h-1v1h1zM1 15559v-1h-1v1h1zM-5 15564l1 -1h2v-1h-2l2 -2v1l1 -1v-2l1 -1h2l-1 -3v-2h-1v2h-2l-1 -2h1v-1h-2v-3l2 -1l4 -1l2 -2l4 -3h4l1 1v6l-2 2l-12 14h-1l-2 2l-2 2v-3l1 -1zM28 15564h2v-2h-1l-1 -2h1l-1 -2l-2 -14l1 -2h-1l-2 2l-9 14l-3 3v-1h-1v-1h1l1 -1h-1l2 -2v-2l6 -9l4 -7l1 -2l1 -1h4l1 4l1 3l3 16l2 2v2l3 3l8 4l4 1l1 2v6l-1 1h-7v-1l-3 -4h-2l-4 -3l-5 -5v-1h-3v-1zM179 15522v2h-5v-3l5 -1v1l-1 1h1zM176 15523v-1h-1v1h1z"/><path class="chunk" data-i="3" d="M55 15484h-3l3 -4l-1 -1l-2 1v-2h5v2l-2 2v2zM56 15480v-1h-1v1h1zM61 15482h-1v-4l-2 -1h-1l1 -1h2l2 2h-1l1 2h-1v2zM18 15533l-4 -1v-2l2 -2h1l-1 2l2 2v1zM16 15531v-1h-1v1h1zM28 15530l-2 -2h2l2 -1v1v1h-2v1zM37 15505h-3v-3h1v2h1v-2l2 -1v1l-1 3zM52 15493h-2l-1 -1l1 -2h2v-1l2 1v1h-2l-1 1h1v1zM40 15474h2l-1 2h1h1l-1 1l-6 1l-1 -2h1l3 -1h1v-1z"/><path class="chunk" data-i="4" d="M52 15582l20 -8l6 -3l3 -3l-3 -2l-3 -1l-4 -1l-1 -1l-2 -2h-2l-4 -3l-5 -4v-2l-2 -2l-1 -6v-9l2 -8v-2l1 -3l3 -2l2 -4l10 -11l2 -3v-2l2 -2l1 -2l1 -4l2 -4v-6h1l-1 -2l-1 -8l-2 -2l-5 -6l-7 -2l-14 -4l-5 -1l-2 -1v1l-2 -1h-2v1l-2 -1l-6 1v1l1 2h-1l1 2l-1 2h1l-1 2l1 11h2v2h1l1 1h-3v10l-1 10l1 2h-2v3h-2l-1 1l-3 6l-6 5l-4 3l-2 2h-3l-8 4l-7 4l-6 4l-2 1l-2 1v2h-2l-2 8l-4 14v2h1l-1 2h1v4h-1v1l4 1l1 2l1 2h2v1h-2v2l1 2l17 7h3l31 1l4 -1l9 -2l3 -2zM-22 15567v-1l-1 -1v1l1 1zM-28 15575v-1h-1v1h1zM-30 15576v-1h-1v1h1zM81 15572l-1 1l-22 11l-25 9h-28l-5 -1l-20 -6l-3 -4l-1 -2v-3l-1 -3h-1v1l-2 1l-8 4l-2 1l-6 7l-1 2l-1 2h1l1 4l1 4l5 2l12 2l3 2l1 5h2v1l2 -1l2 1v-1l4 -1l13 -2l6 -2l6 -2h5l2 2l5 1h17l16 -3l4 1l7 -2l5 -2l2 -1l4 -2l2 -1l5 -3h2l1 -1l2 -1v-2h2l4 -4v-2v-7v-2v-3v-2h2h4h2l1 6h1l-1 2h1l-1 2l-1 4v2l-2 2v2l-4 4h-2l-2 3h-3v2l-3 1l-2 1l-6 3l-5 2l-3 1l-36 5h-12h-4l-5 -2l-3 -1l-31 7l-5 1l-2 -2h-2v-1l-2 -2v-3l-14 -3l-5 -4l-1 -2v-2l-1 -2v-7l2 -5l5 -5h2l2 -2h2l2 -2l2 -1l4 -1v-1l2 -3h2l1 -1l-1 -2v-2v-7v-3l4 -18l6 -6l3 -2l7 -4l2 -1l5 -3l7 -3l6 -3l8 -8v-2l2 -2v-2l4 -16h-1l1 -2l-3 -12h1l-1 -2v-10l-2 -2v-2h-1l1 -2l1 -2h6v-1l2 1v-1l4 1v-1l2 1l2 -1v1h6v1l2 -1l19 6h2l3 1l2 2l2 1l3 2l1 2l2 4l1 2l1 4v12l-1 4l-3 9l-1 3l-2 2l-1 1l-2 3l-12 16l-2 5l-1 4v13l3 2l2 5l4 1l2 2h2l6 3l4 1l2 1l3 3l-1 4l-2 2l-2 -1l-1 1l-1 -1v1h-1v1l-1 1h1z"/><path class="chunk" data-i="6" d="M410 15583h-2v-1l-2 1v-1v-1h-4v-1l8 1v2zM392 15569h-13l1 -1h2l2 -1v1l2 -1v1h4l2 -1v1v1zM416 15564h-4v-1h2v-1h-1l1 -1l3 3h-1zM418 15560h-8v-1h8v1zM362 15560l-6 -1l-2 1l-1 -2h1l2 -1v1h6v2zM338 15548l-2 -2h2v-1l2 1l-1 2l-1 -1v1z"/><path class="chunk" data-i="7" d="M354 15545l-8 -2v-1v-1l2 1l2 1v-1l4 1v-1l2 2l-2 1zM334 15543h-4l-1 -1l1 -1l2 1l2 -1v1v1zM303 15564v-1l-2 1h-1l-2 -1v1v1l-1 -1v-1h-3v-1h10l2 2h2v1h-4v-1h-1zM312 15564h-2h-1l1 -2h-6v-1h8l2 -2h3v3h-2h-2h-1h-1l1 2zM314 15561v-1h-1v1h1zM290 15557l1 -1h1l2 1v-1h4l3 1v2h6l-1 1l-12 1l-2 2h-7l1 -3v-2h4v-1zM295 15558v-1h-1v1h1zM297 15559v-1h-1v1h1zM292 15560l1 -1h-3v1h2zM287 15562v-1h-1v1h1zM260 15523v-1l4 -4v-2l4 -4h-2l-2 1l-3 1l1 -2h2l2 -2h2l2 -2h2v2h1l-1 1l-1 1h-1v1l-2 1v2h-1v1h-1l-1 1v1h-1v1v1l-1 1h-1v1h-2zM255 15463l-5 1v-1l8 -1v1h-3zM252 15460l-2 -1v1l-2 -1h-2v-1h2h4h2l-2 2zM260 15462h-2l1 -2l-1 -2h-1v3h-1l-1 -1h1v-2l-2 -1h-2v-1l6 -1l2 -1v2h4l2 2l-2 2h-2l-2 2zM258 15457l1 -1h-3v1h2zM264 15459v-1l-1 -1v1l1 1zM262 15459v-1h-2l-1 1h3z"/><path class="chunk" data-i="8" d="M275 15449h-1l-6 1v-1l7 -1v1zM275 15448v-1h4v3l-1 2h-5l1 -1h1v-2l1 -1h-1zM278 15449v-1h-1v1h1zM278 15451v-1h-1v1h1zM268 15448l-4 -1v-1h2v-2l2 1v-1h2l1 2h-1h-1v2h-1zM262 15416h-8l-4 -4l-3 -8l1 -3l2 -5l4 -4l8 1l3 1l5 2l1 2l1 2h-1l1 2v2l-2 5v1l-4 5l-4 1zM261 15406v-2h-1v1l1 1zM262 15407v-1h-1v1h1zM273 15366h-1l-3 -2l1 -8l2 -1l1 1l-1 1h-1l1 1h3v2l1 4l-2 1l-1 1zM232 15553l-2 -1v1l-4 -1v-3l2 1h2l-1 -2h1l4 3h1l-1 1h-2v1zM234 15534v-1l-2 1h-3l1 -1l8 -2v1l-2 1l-2 1zM222 15534h-4v-1l6 -1l2 -1v1v1l-4 1zM241 15523v-1h-1v1h1zM253 15505v-1h-1v1h1zM251 15508v-1h-1v1h1zM251 15510h-1l-1 2l-5 6v1h-2l-1 1l1 2h1v-2h1v1h2l2 -2l3 -1l8 -3v-1l1 -1l1 1l-1 2h-2l-7 4l-3 1l-2 2l-2 1l-3 1h-1l-3 -3l2 -2v-1h2l6 -9h1v-1h-2v-1h-1v-1h1l2 -1v-1h2v-1h-2v-1h4l2 1l-1 4v-2h-1v2h-1v2zM250 15510v-1h-1v1h1z"/><path class="chunk" data-i="9" d="M229 15516h1l2 -1v1h1v-2h2l1 1v1h-2l-2 2h-2l-1 -2zM235 15514v-1l3 -1v1h1v1l-1 1h-2v-1h-1zM246 15509l-2 2l-1 1h-2l-2 1v-1h-1v-1l4 -1l1 -2h2l1 1zM208 15513v-1h-1v1h1zM205 15516v-2l-1 -1v3h1zM209 15514l-1 2h-2v3l-1 -1v-1h-4v-2h1l1 -1h-1v-1h2l2 -3l-2 -1l2 -1v1l1 -1h2v2h-1v1h1v2l-1 1h1zM227 15512v-2l3 -3h1v1h1v1l-3 1v1h-1v1h-1zM214 15509v-3h1l1 1v1l-2 1zM212 15511v-1h-1v1h1zM209 15513l1 -1l-1 -1v-1l2 -2h-1h-1l1 -2h1l1 1v3h1v2l-3 2h-1v-1zM215 15506l-1 -1v-1h2h1v1h-1v1h-1zM233 15507l-1 -1v1h-1v-1h-1v-1h2l1 -1l-1 -1h2v1h1l-1 2v1h-1z"/><path class="chunk" data-i="10" d="M204 15509h-2v-1l2 -2v-2l2 -2v2v2v1h-2v1v1zM229 15502l1 -2h2v1l-1 1h-2zM224 15508l-2 3l-4 1v2h1l-1 1h-1v2h2v1l-1 1v-1l-2 2h-4l-2 1v-1l-2 2h-4v1l-2 -1v-1l5 -1v-2h1v1h3v-1l1 -1v1h4l-1 -7h1l2 -2h3l1 -5h2l1 -2l-1 -1v1l-4 1l-2 2l1 -3v-2h1l2 1v-1v-1h-4l-2 2v-1h-1v-1l4 -1l3 -1l1 1v2h1v-2h3l1 4h-2v1h2v1l1 -1h2v1h-1v1h-2l-2 2v-1v-1l-2 1v1l-1 1h1zM219 15511v-1h-1v1h1zM235 15500v-1h-1v1h1zM237 15501v-1h-1v1h1zM238 15502v-1h-1v1h1zM228 15514h1v-1h1v-1l2 -2v-1l1 -1h1v-1l2 -1v-2h1l-1 -1v-1h-1l-1 -1v1h-2v-1l1 -1h-1l2 -2h1l1 1v-1h1l-1 -1v-1l4 -1l1 1l-1 4l-6 11l-1 1l-1 2h-2l-1 2l-1 2h1l-1 1l-7 1v-2l4 -4v-2h2v1l-1 1h1l1 1v-1zM227 15519v-1h-1v1h1zM222 15486v-1h-1v1h1zM221 15487v-1h-1v1h1zM219 15488h1l-1 -1l-1 -1v1l-1 1h-1v-2l2 -2l2 1v-1l1 -2l1 1v-1h1v2h1h1l-4 4v2l-2 1v-3zM244 15361h-2v1l-3 -2v-7h2l3 -1v2l2 2v2l-2 3zM257 15277l-4 -1h-1l-3 -2v-2l-3 -4v-2h2l2 3l4 1h2l1 2l1 2h-1v3zM204 15325l-2 -1l-3 -2v-2v-3l1 -2v-1l2 -2h1l3 -2h2l2 1v2v5l-2 4l-2 2h-2v1zM121 15455l31 -5l2 -2v-1h2l6 -7l1 -3l1 -4l2 -9l2 -2v-2l2 -3v-1l-1 -2h1l-1 -4l-1 -2l-2 1l-2 1h-2l-2 1l-3 3v4l-3 2h-3v-2l-3 -11v-2l-2 -2v-1l-2 -3h-4l-1 1v2l-2 2l-1 4v3l-1 7l-1 1h-5v-1l-3 -4l-4 -1v-1l-2 1h-1h-4l-2 1h-1l-3 2v3h1l2 1v2l6 5l4 1l1 2l1 2h4l2 2l-1 2v2l-3 2v-1l-2 1v-1h-2l-7 3l-1 1l-4 3l-1 10l12 -1zM277 15293l7 -2l1 -1h-5l-6 2v1h3zM300 15295v-1h-4v1h4zM296 15296v-1h-2l-1 1h3zM304 15301v-1l-1 -1v1l1 1zM270 15307v-1h-1v1h1zM271 15309h-3v-1h1l-1 -1h-2v1l-2 -1v1h-2l-15 6l-7 5l-6 7l-3 5l-1 3l-2 2v1l-2 2l-2 5v2l-2 2l-1 6h-1l1 2h-1l-1 8l-1 2h1l-1 2v4h1l-1 2l2 13v4l2 3v2l3 2v3h1l2 1l1 3l4 9l7 6l3 1v1l3 4l7 3l9 4l28 2l4 3l10 -2h4l10 -4l11 -8l5 -2l3 -4l5 -7l1 -2l1 -3l2 -5l-1 -7l-1 -7v-10v-4l1 -4l-2 -14l-1 -4v-2l-1 -3l-1 -1h-2l-3 -3v-4l-5 -4l-1 -2l-7 -9l-1 -3l-5 -4l-2 -2l-4 -2l-4 -2l-8 -4h-2l-4 1l-1 1h1v1l-4 -1l-6 -1l-2 -2l-8 2v1h-1v1zM336 15330v-1h-1v1h1zM337 15331v-1h-1v1h1zM338 15332v-1h-1v1h1zM240 15431v-1h-1v1h1zM231 15449v-1h-1v1h1zM227 15451v-1h-1v1h1zM227 15455v-1h-1v1h1zM226 15457v-1h-1v1h1zM225 15458v-1h-1v1h1zM224 15460v-1h-1v1h1zM220 15465v-1h-1v1h1zM217 15470v-1h-1v1h1zM216 15472v-1h-1v1h1zM212 15473v-1h-1v1h1zM211 15475v-1h-1v1h1zM214 15476v-1h-1v1h1zM216 15476v-1h-1v1h1zM210 15477v-1h-1v1h1zM209 15484v-1h-1v1h1zM208 15485v-1h-1v1h1zM192 15517v-1l-1 -1v1l1 1zM193 15518v-1h-1v1h1zM188 15524l2 -1l1 -1l-1 -1l-2 2v1zM198 15523v-1h-1v1h1zM192 15525v-1h-1v1h1zM192 15527l2 -1v-1h-2l-1 1l1 1zM190 15527v-1h-1v1h1zM196 15527v-1h-2v1h2zM197 15528v-1h-1v1h1zM205 15538h3v-1h-4v1h-1v-2h3l-2 -3h-2v-2l-2 -1l-3 -1h-14l1 2v1l2 2l6 4v1l2 -1h2v1l1 -1v-1h5v2l3 -1zM218 15538v-1h-1v1h1zM238 15538v-1h-1v1h1zM241 15539v-2h-2v2h2zM201 15539v-1h-1v1h1zM221 15542l7 -2l6 -1l1 -1l-19 1l-1 1l3 2h3zM218 15551v-1l-2 -2l-3 -4l-5 -5v1l-2 -1v1l-8 1v1l2 2l3 1l13 5l2 1zM254 15545v-1h-2h-1l1 -2h2v1l2 -1h9v-2l-1 -2v-1l-2 1l-30 4l-6 1v1h8l2 -1v1l2 -1h6v1l2 -1h4v2h4zM238 15545v-1h-1v1h1zM242 15545v-1h-1v1h1zM244 15545v-1h-1v1h1zM233 15546v-1h-1v1h1zM219 15552v-1h-1v1h1zM244 15568l6 -2v-1l-4 -1l-8 -2l-3 -1h-2l2 3l2 4l1 1h2l4 -1zM351 15379v-3h-1v2l1 1zM328 15478l2 -3h2l10 -11l-2 -1l-4 -1l-8 -2h-4v5l3 13h1zM278 15521v-1h-1v1h1zM276 15522v-1h-1v1h1zM276 15524v-1h-1v1h1zM264 15526h2l-1 -2h1h2v1l1 -1l1 -2l2 1v-1v-1l5 -1l7 -1l1 1l-1 2l-2 2l-6 8l-2 2l-3 2l1 1l2 -1l14 -4l4 -1l8 -1v-1l2 1v-1l2 1v-1l2 1l3 1h1l3 3l1 2l8 -2h1l-1 -2v-1h-4l-1 -1v-2l1 -1l2 1h2v-2l-2 -2l-2 -2l2 -1h2v-1h-1l1 -2h-1l1 -2h-1l3 -28l-2 2l-5 2v2h-2l-25 17l-2 1l-2 3l-6 -1v-4l2 -2h2l4 -2l32 -22l2 -1l1 -1l-3 -23h-2l-1 -1l3 -4l-1 -9l2 -7h2l4 -1v1l-1 1v-1h-2l-2 2l-1 6l2 10l17 3l4 -1h2l3 2v2v4v2l-1 1h-2l-6 7v1l-3 1l-5 4l-2 2l-2 2v1v3v2h1l-1 2l-2 24h2l3 -2h4l5 -2l6 -1v1l2 -1h2v1l2 -1v1h2l2 2l-1 6l-3 2h-1l2 2v2l-1 2h-2l-2 2h-2v2l40 10l8 2l66 23l22 9h2l2 2l3 1l19 7l4 2l6 2v2h1l-1 1l-2 -1l-4 -1l-7 -3l-10 -4l-79 -30l-74 -21h-2l-3 2h-1l-2 2l-2 -1v2l-2 -1v1h-2v3l2 12l4 13l2 2v2l-2 1h-2v-1l-2 2l-4 1l-2 1h-2l-24 -1l-2 1v-1l-2 1h-2l-2 -1l-2 1v-1l-3 -1h-2l-20 -5h-9l-14 3l2 2l3 6l2 2l-1 4l-12 4l-14 6l-5 3v1l-1 2h-4l-1 -2v-2l1 -2h2l6 -4h2l2 -2h2l2 -2h1l12 -6h1h1l-3 -4l-2 -4l-2 -1v1l-38 8l-24 7h-2v1l-2 -1h-2l-2 -2l-1 1l3 14l4 4h2v2l-2 2h-4l-3 -2l-1 -2v-2l-1 -3l-4 -23l1 -1h4l3 3v2l3 2l21 -4l43 -10h1l-2 -2l-1 -3l-4 -4l-1 -3l-8 -3l-6 -2l-3 -1l-2 -2h-2l-5 -2l-10 -6l-7 -4l-2 -2l-1 -4l-1 -6l4 -3h1v-1l-1 -1v1h-3v-1l1 -1h-1v-1h2l3 1l1 -2v-2l-3 -3l-12 -10l-9 -9l-2 -4l-1 -3v-4v-3l2 -1l2 1h2l8 3l5 1l9 3h2l3 3l-1 2h-4l-13 -4h-3l-2 -1l-2 -1v1l-2 -1l1 3l5 7l4 5l10 7l1 2l1 2h2l1 -2l3 -4l4 -4v-2l2 -2v-2l2 -2v-2l2 -2h-1v-4l2 -2l1 -1l4 -10l1 -3l8 -10l7 -12l1 -2l-13 1v1l-2 -1v1l-2 -1h-2v-2l-4 1h-2v-1l-2 1h-4l-2 -1v1l-2 -1v1h-8l-2 1v-1h-4v-1l-2 1h-4l-2 2v2l-8 8h-2l-2 2l-3 1l-2 -1h-1l-2 -2l-2 1l-10 1v1l-2 -1v1h-8l-2 -1v1l-8 1h-7h-4v-2l-2 -2v-12l2 -2l1 -2l4 -4l4 -2l-5 -6l-3 -4v-2l-2 -2l1 -8l3 -3h2l2 -2h12l2 2h2v1h1l1 -4l2 -7l1 -3v-2l3 -2l2 -2h8l4 4l4 8l1 2h3l2 -2h1l2 -2h2h5h2l3 4l1 4l1 8h-1l1 2h-1v2l-3 7l-1 3l1 2h-1v2l-3 4h1l24 -3l27 -2h2v-2h2l9 -1l2 1v-1l4 -4v-1h-2l-1 -1l-1 -3l-4 -4l-2 -3v-2l-1 -2l-2 -2l-1 -4l-2 -2l-3 -1l-3 -5v-2l-2 -2l-2 -13l-1 -11l-1 -2h1l1 -9l2 -8l2 -6l4 -9l4 -10l1 -2l7 -6l5 -4l-1 -1l-3 -3h1l-1 -2l1 -1l7 -5l5 -2l2 -1v-2h2v-1l2 1v-1l6 -1l4 -3h2l2 -2l2 -1l2 -2l7 -1h8l8 1l9 1l4 4l2 1l2 2l14 11l2 2l4 1h2l2 5l2 4l3 4l9 12v2v4l-1 3l1 3l3 6l1 4l1 6l1 14h1l-1 2l-1 12l-3 4h1v6l-1 1h-2l-2 7l-2 4l-1 2l-6 8l-3 3l-2 1l-13 8l-13 6h-4l-12 2l-16 1l-2 -3h-12h-2l-2 1v-1l-2 -2h-1l-2 -2h-1l-2 -2l-4 -1l-2 -1v2h-1v-2h-1v2l2 2l1 4l1 2l-2 2l-1 4l-11 -1v3l-3 2v3h-2l-1 5l-4 4h1l-5 6l-1 2l1 1h-2v1h2l-2 2v2h-2l-4 6l-1 2l-2 2l1 2h-2v2l-2 2v2l-2 4l-1 2l-2 2l-1 7l-1 3v2h3v1l-4 1h-2v2l2 1l6 1l-2 1l-1 1l3 2h8v-1l2 1h2v1l2 -1l4 -1v1l2 -1h8l2 1v-1l1 1v1l-25 2v-1l-2 2l6 5v-1h4l1 1h-3l-1 1l1 1l3 -1h21l2 -1v1l2 -1l20 -1l2 2v1l2 -2l5 -2v-1l7 -7l1 -1h-1l1 -2h-1h-1v2l-1 1h-2v-1l-2 2l-2 -1v1v1l-2 -1v2l-5 1l-7 1l-2 -2l4 -5h2l-2 3v1l2 -2h1v1h1l2 1v-1zM276 15529v-1h-1v1h1zM334 15530l2 -2l7 -6l-1 -1l-2 -1l-2 2l-7 1l-5 1v5h2l6 1zM291 15533v-1h-1v1h1zM298 15533l1 -1h-1l-1 1h1zM307 15533v-1h-1v1h1zM285 15535v-1h-1v1h1zM282 15536v-1h-1v1h1zM280 15538v-1h-1v1h1zM258 15544l-2 -1l-1 1l1 1h1l-4 2h-1l-2 -1v1l-2 -1l-2 2h-2v-2h-5l-1 -1v1l-2 1v-1h-1v2h2h2h1l2 -1l2 2l12 1v-2h1v2h3v1h-8v1l-2 -1h-6l-2 -1v1l-2 -1v1l-2 -1l-3 -1h-1l-2 -2h-10l-1 1l4 4l3 3h1l3 1l25 8h3l10 -4l2 -1v-1h-16l-1 -2v-2h2l4 -1v-3h5h1l-1 -2h2v2l6 -1v3l-1 2h1v1l-2 -1h-2l-2 1l-1 1h13v-1h-2v-1l8 -1l25 -9l3 -1l1 -1l-1 -1l-5 -1l1 -4h-2l-2 -2h-2l-2 -1v1l-9 1l-18 5l-3 1l-2 1v-1h-4v1h2v2l-2 1h-5v-1l-1 -1v1h-2zM264 15544v-1h-1v1h1zM266 15544v-1h-1v1h1zM246 15547l1 -1h-1l-1 1h1zM267 15553v-1h-1v1h1zM263 15554v-1h-1v1h1zM268 15554l1 -1h-1l-1 1h1zM265 15555v-1h-1v1h1zM267 15555v-1h-1v1h1zM262 15556l1 -1h-1l-1 1h1zM257 15557v-1h-1v1h1zM260 15557v-1h-1v1h1zM286 15558l-3 1l-13 5h-2h-1l1 2h4l12 4h4v1l2 -1l2 2v-1h24l14 -2v-2l-6 -25l-2 2h-2l-6 4v2h-2v2l-2 2h-2l-2 -2v-2h1l-1 -1h-1l-10 4l-3 1l-1 2h-1v1h-4v1zM328 15533v-1h-1v1h1zM309 15534v-1h-1v1h1zM323 15537v-1h-1v1h1zM318 15540l2 -1l1 -1l-1 -1l-3 1h-2v3l3 -1z"/><path class="chunk" data-i="11" d="M208 15292l-4 -2l-2 -1v-1h1l-1 -1h-4v-2v-3v-2l3 -2l-1 -7l-2 -7l-2 -7l-6 -11l-12 -22l-8 -20l-8 -28l2 -2l3 4l1 1l14 36l4 9l10 17l2 7l8 17l4 13v4l2 2h1l-1 2v2l-2 3h-2v1z"/></g><g class="f live" data-r data-f="0" fill="var(--live,#000)" fill-rule="evenodd"><path class="chunk" data-i="0" d="M-302 15270l-2 2h-1l5 -6l4 -1l2 -1l1 2h-1h-2l-2 2h-1l-3 2zM68 15211h-2l-1 -1v-2h2v2h1h1l-1 1zM63 15209h-3l-1 -1h1v-2l2 1h1v2zM25 15173l-1 -1h-2l2 -2v1l2 -1v2h-1v1zM84 15135h2v3h1l-1 2l-4 5h-2l-1 -1l1 -1h2l3 -3l-1 -3v-2zM84 15137v1v1l-2 -1l-11 -1l1 -1h8v-1l-12 -1v1l-2 -1v1h-2l-1 -1l1 -1l14 1l2 -1v1l4 1l-2 1l-1 1h3zM62 15135l-2 -1h-2l-6 1v-2h4v1l2 -1h4v2zM60 15137h-13l1 -1h13l-1 1zM51 15135h-7v-1l4 -1v1l2 -1h1v2z"/><path class="chunk" data-i="1" d="M35 15101v-1h-1v1h1zM32 15104v-1h-1v1h1zM30 15107v-1h-1v1h1zM27 15108v-1h-1v1h1zM26 15109v-1h-1v1h1zM23 15111v-1h-1v1h1zM21 15116v-1h-1v1h1zM16 15121v-1h-1v1h1zM13 15122v-1h-1v1h1zM11 15126v-1h-1v1h1zM13 15126v-1h-1v1h1zM11 15131v-1l-1 -1v1l1 1zM13 15131v-1l-1 -1v1l1 1zM16 15133v-1h-1v1h1zM24 15135v-1h-1v1h1zM26 15135v-1h-1v1h1zM18 15136l1 -1h-3v1h2zM33 15136v-1h-1v1h1zM22 15137v-1h-1v1h1zM24 15137v-1h-1v1h1zM59 15085v-1h-1v1h1zM53 15089h-1l-1 1h-1v1h1v1h-1h-1l-1 -1v1h-2l-1 3l-1 -1v1l-1 1h-1v1l-4 1l1 2l-3 3l-2 -1h-1l1 2h-2v2l-4 3l-2 1h-1l1 2l-2 1v-1l-2 2v2l-3 2l-1 -1v1h-1l1 1v2h-2l-1 2l-1 -1v1l-1 2h1v2v2v2l4 1h1l-1 1h-1l1 1h25l-1 1h-2v1l-2 -1v1l-2 -1h-2v1l1 1h-1v1h-1l-3 -1v-1h1l-1 -1h-2l-4 3l-2 -1v1l-6 -2l-3 -1h-1l-2 -1v-2l-1 -2v-4l1 -4l1 -2l5 -4v1l1 -1h1l-1 -1v-1l7 -7l6 -3v-2h2v-2l2 -1l16 -11l3 -2h2v-2h1l2 -2h2v1h1l-1 1v2h-2v-1l-1 1h-1v1h-2v1h-1v1zM27 15064v-1h-1v1h1zM29 15065v-1h-1v1h1zM31 15065v-1h-1v1h1zM33 15065v-1h-1v1h1zM34 15066v-1h-1v1h1zM36 15066v-1h-1v1h1zM42 15068l1 -1h-1l-1 1h1zM45 15068v-1h-1v1h1zM46 15069v-1h-1v1h1zM48 15069v-1h-1v1h1zM52 15070l1 -1h-1l-1 1h1zM55 15071v-1h-1v1h1zM60 15072v-1h-1v1h1zM61 15073v-1h-1v1h1zM60 15082v-2l2 -2l-1 -4l-8 -2l-4 -1v-1l-1 -1v1l-8 -1l-2 -2v1h-1v-2h-1v1h-4v-1v-1l-2 1l-5 -1v-2h1v-1l9 2l22 6l3 1h2l1 2l-1 1h1v2l1 1v-1v-2h1v4l-1 1v-1h-1v2h-1v1l-1 1h-1zM21 15062v-1h-1v1h1zM24 15063v-1h-1v1h1zM25 15063h-1l-3 1l-3 -2l1 -2h-2l-1 -1h-1v-1h-1l-3 -2l-1 -1v-3h-1l-1 -1v-3v-1h1v3h1v-2l2 -1v2v4v1l2 3l2 1l7 2l3 2h-1v1zM16 15040h-2l2 -2h1v1h-1v1zM19 15037h1v-1h1v-1l1 -1h1v2l-4 3v-2zM17 15038v-2l3 -3l1 1v1h-1v1h-1v1h-1v1h-1zM25 15012v-1h-1v1h1zM28 15012v-1h-1v1h1zM31 15019v-1h-1v1h1zM24 15031h-2v1h-1v-2h2l1 -2l2 -5l1 -3l2 -2v-2l1 -2l-2 -1l-2 1h-3v-2l1 -2l8 -1l1 1l1 3v2l-3 9l-2 2l-1 1v-1v-1l-2 1v2l-2 2v1zM334 15265h-2l-2 -1v1l-2 -1l-2 -2v-1h2l2 1l2 -2l2 2l1 2l-1 1zM340 15238l-8 -1l-1 -1l1 -2v-2l1 -2l3 -2h2l1 -4l1 -2l2 -2v-2l12 -32l2 -8l1 -4l1 -2h-1l1 -2v-2l2 -2l4 -4l1 2l-1 11l-2 8l-8 23l-6 15l-6 14v1l-2 2z"/><path class="chunk" data-i="2" d="M271 15242l-4 1v-2h-1l-2 -1l-2 2h-2l1 -3v-2h1l4 -3v-12l-1 -2h1l-1 -2l-1 -6l-4 -17v-4l3 -23l1 -18h2l-1 -2v-1h2v5l-1 2h1l-1 35l4 18l2 14l1 17h1l-1 2v2h-2zM266 15152v-1h-1v1h1z"/><path class="chunk" data-i="3" d="M-316 15486l2 -2h1v1h-1v1h-2zM-326 15477v-1h2l5 -4h2l1 1v1h-4l-2 3h-2v1l-2 -1z"/><path class="chunk" data-i="4" d="M-317 15472l1 -1h1v1l-1 1v-1h-1zM-329 15473v-1l1 -1l6 -3v2l-5 2l-2 1zM-315 15471v-1h2l4 -2l2 -1v2h-1l-2 2h-5zM-302 15469v-1l4 -1l3 -1l-1 1l-1 1h-2l-3 1zM-329 15464l1 -1h1v1h1v1l-3 -1zM-307 15467v-1l11 -4l3 -1v1h1l-2 1l-2 1v-1l-1 1v1h-3v1l-2 -1v1v1h-2l-2 1l-1 -1zM-320 15460v-1h-1v1h1zM-324 15463v-1h-1l1 -2h2v-2l3 1v2h-1l-2 2h-2zM-319 15459v-1l1 -1v1h1v-2l1 -2l2 1l-2 1v3h-3z"/><path class="chunk" data-i="5" d="M-313 15454l1 -1h2v1h1v1l-3 1l1 -2h-1h-1zM-262 15422v-1l-2 1l-7 1l-18 -3h-2l-2 -2h-1l-2 -2l2 -1l1 1h2l3 1h18l13 -3l6 -2l5 -2v-2h2v-1l2 1h2v2v3v2h-2l-2 2l-2 1h-2l-3 1l-5 1l-4 1l-2 1zM-336 15454h-2v-4h-1l1 -1l2 -1v2l2 -1v1l-1 2l-1 2zM-336 15451v-1h-1v1h1zM-336 15453v-1h-1v1h1zM-250 15378l-8 1v-1l4 -1l2 1v-2h2l2 -2l2 1v-1h2l5 -2l3 -1v3l-2 2v-1l-4 1h-2l1 2h-1h-6zM-252 15358l-2 -1l-1 -1h1v-2l2 -1l3 -1l6 -1v1l1 2h-1v2h-1l-2 1v-1l-4 1l-2 1zM-279 15384l-18 1v-2l-3 -1h-2l-2 -1l-1 -1l-1 -2l-1 -4l-1 -3h2l1 1l1 2v2l1 2l1 1l6 1v2l2 -1h15l2 -1h2l3 -1l1 1l-1 2h-2l-3 2h-2zM-285 15365l-5 1l-1 -2h1v-2l4 -4h4l4 -2h2l2 1v3l-2 2h-2l-4 2l-3 1zM-326 15304v1h-3l1 -4v-3l2 -2v-1l1 1l-1 2v2v3h-2v1h2zM-368 15333v-1l-2 -3v-2l1 -3h1l1 6l1 2l-2 1z"/><path class="chunk" data-i="6" d="M-353 15315l-1 -1v-8h2l-1 2v7zM-298 15285v-1h-1v1h1zM-299 15286v-1h-1v1h1zM-315 15287v-1h-1v1h1zM-298 15288v-1h-1v1h1zM-304 15289v-1h-1v1h1zM-297 15289v-1h-1v1h1zM-299 15291v-1l-1 -1l-1 1l1 1h1zM-316 15291v-1h-1v1h1zM-308 15291v-1h-1v1h1zM-310 15292v-1h-1v1h1zM-301 15292v-1h-1v1h1zM-313 15294v-1h-1v1h1zM-301 15294v-1h-1v1h1zM-302 15295v-1h-1v1h1zM-303 15298v-1h-1v1h1zM-319 15298h1v-1l1 -1h1v-1l1 -1v-1h-2l-1 -2v-2h2v-1h-1l1 -4l2 1v-1l2 -2l-1 -2h1h1l2 -5h2v-3h2l-1 2l-4 7l-4 6v1l-1 2h1l2 -1l6 -3h2l2 -2h2v-2h2l2 -2h2v-2h2l2 -2h2l2 -3l4 -2l2 -2l2 1h1l-1 2v2h-2l-2 3l-2 -1v2l-2 1v-1l-2 2h-2l1 2h-1l-2 -1v1h-2l-2 3l-1 2h1v1l-4 4v2l-1 2h1v2h-1l1 2h-2l-3 -2l1 -4l1 -3v-1l-1 -1v1h-2l-4 2l-5 4l-5 3l1 -1zM-365 15208v-1h-1v1h1zM-364 15210v-1h-1v1h1zM-362 15213v-1h-1v1h1zM-363 15215v-1h-1v1h1zM-361 15215v-1h-1v1h1zM-372 15276l4 -3h2l2 -2l1 -1h2l5 -4l2 -2h-1l-1 -3v-2l-1 -1l-3 -3l-1 -1l-7 -4l-5 -2h-3h-7l-3 1l-4 3v2l-3 6l-1 4l2 5l1 1l3 3h1l3 1l4 1l8 1zM-348 15261v-1h-1v1h1zM-363 15277v-1h-1v1h1zM-361 15277h-1l-1 1l2 2h-1v2l-2 1v-1l-2 1h-6l-7 7l-3 6l-2 2l-1 3v2l-1 3h2v1h-3v3l-1 2h2v2l-2 -1v1v4h-1l1 1h1v5l-1 2h1v2h1l-1 2h1v3h2l1 5l3 2l2 2l5 1v1l-1 2l-6 -1l-2 -2h-2l-2 -3l-2 -4l-2 -3v-3v-13l2 -13h-1l-2 4l-2 2l-1 3l-2 5l1 27l3 16l5 1l4 1h9h2v1h1v-6l2 -2l1 -4l2 -2l2 -4l3 -6l1 -2l3 -4l3 -4l4 -5l2 -1l18 -10l8 -3h2l2 -2l3 -1l11 -4h3l7 -1v-1l2 1l6 -1h21l5 1l3 1l4 2l5 2l6 3l4 5h-1l3 4l2 1l3 1l4 -15v-8l-4 -10l-1 -3l-2 -2l-2 -5l-2 -3l-7 -9h-1l-2 -2l-3 -1l-6 -2l-2 -1l-5 -1l-2 -1v1l-2 -1l-4 -1l-7 -2h-2l-4 -2l-17 -2v-1l-1 1l-1 1v-1h-4l-2 1v-1l-2 1h-2v1l-2 -1v1h-2l-2 2l-6 1l-2 2l-2 -1v1h-2l-2 2v-1l-4 1v2l-10 3v2l-3 1l-5 2l-1 1v2h-1v-1l-1 1h-1v1h1v1l-1 1v-1h-1v1zM-388 15321v-1h-1v1h1zM-268 15446l7 -2l7 -4l5 -2h4l9 -4l9 -7l1 -3l-4 -4v-4l2 -2l4 1l1 1v2h2l1 -5v-28l-4 -21l-6 -20l-2 -4l-4 -8l-6 -8l-2 -2v-2l1 -2h-3l-2 -2h-1l-2 -1l-3 -1l-2 -2h-1l-2 -1l-3 -1l-9 -1h-19l-2 1v-1l-12 3l-7 2l-5 1l-2 2l-6 3h-2l-2 2l-8 4l-6 4l-2 1l-4 5l-4 5l-9 19l-1 4h2l2 2v4l-2 2h-2l1 2v4h-1l1 2l1 7l4 15v2h-2l2 2l-1 2l1 2h-1l1 2h-1l5 5l19 15l4 2l17 7l17 5h6h21zM-387 15332v-1h-1v1h1zM-376 15344v-1h-1v1h1zM-358 15401v-1h-1v1h1zM-339 15445v-1h-1v1h1zM-348 15460v-1h-1v1h1zM-353 15467v-3h-1v2l1 1zM-351 15466v-2h-1v1l1 1zM-360 15476h2l-1 -2h1v-2l2 -3v-3v-1l-2 1l-4 1l-2 2h-2l-1 1v2l3 4h4zM-306 15451v-1h-2v1h2zM-308 15452v-1h-1v1h1zM-304 15452v-1h-1v1h1zM-283 15459v-1h-1v1h1zM-284 15465l1 -1l-1 -1l-2 1v1h2zM-288 15465v-1h-1v1h1zM-286 15466v-1h-1v1h1zM-194 15474l2 -2l3 -4l-3 -3l-2 -1h-2v3l2 3v4zM-352 15468v-1h-1v1h1zM-354 15469v-1h-1v1h1zM-354 15471v-1h-1v1h1zM-355 15474v-1h-1v1h1zM-342 15489v-2h-2v2h2zM-314 15536l4 -4l4 -2l2 -2v-1l4 -1v-2l2 -2l4 -2l18 -14l2 -2l8 -8l1 -2h-1l-7 1l-26 7l-3 1v1l-2 -1v1l-10 2l-11 2h-7h-2l-1 -2l1 -3v-1l9 -10l-1 -1l-10 -2l-2 -1v1h-2l-2 2h-2l-2 2h-1v1l-1 1v-1l-2 1l-4 2v1l3 4h-1v2l-2 -1l-2 -1v-2l-2 -1v1l-1 2l1 2h-1l1 8l2 2h2l4 3l4 3l2 1l2 1l2 1l8 5l14 6l4 2zM-350 15490h2h1v-2h2v-2h-1l-1 1l-3 -1l-4 -1l-1 1v4h1l2 -2h1v1l-2 1l1 2l2 -2zM-344 15490v-1h-2v1h2zM-346 15491v-1h-1v1h1zM-348 15492l1 -1h-1l-1 1h1zM-349 15493v-1h-1v1h1zM-353 15495v-1l-1 -1v1l1 1zM-351 15494v-1h-1v1h1zM-355 15499v-1h-1v1h1zM-285 15468v-1h-1v1h1zM-292 15473v-1h-1v1h1zM-296 15476v-1h-1v1h1zM-322 15493v-1h-1v1h1zM-302 15501v-1h-2l-1 1h3zM-306 15502l1 -1h-3v1h2zM-308 15503v-1h-2v1h2zM-312 15504v-1h-2l-1 1h3zM-317 15505v-1h-1v1h1zM-322 15506v-1h-2l-1 1h3zM-303 15531v-1h-1v1h1zM-262 15491v-1h-2v1h2zM-260 15494v-2h-1v1l1 1zM-307 15535v-1h-1v1h1zM-311 15536v-1h-1v1h1zM-309 15537v-1h-1v1h1zM-244 15539l1 5l19 -3l4 -1l9 -4h1l3 -2l1 -2v-2l3 -7l6 -25l-1 -12l-1 -1v1l-9 10h-2l-4 1v-5l8 -7h1v-2h1l5 -5l-1 -5l-2 -10l-12 1l-2 1v-1l-1 -2h1l2 1v-1v-1h4v1h1v-2h5v-3l-4 -9l-12 -18h-2v2l-8 8h-2l-4 2l-5 2l-4 2l-9 4h-2l-11 4h-4h-7h-2v1l-2 -1v1l-2 -1h-2l-2 1v-1l-2 1v-1h-4l-4 -2h-4l-2 2v-1l-1 1l-3 3v-1h-1v-1h1l2 -1v-1h-4l1 -3l-1 -1v1h-1v-2h-3l-15 -7l-9 -5l-10 -7l-3 -3v-2l-3 -3h-2l-3 -5l-1 -2h-2l-2 -2l-1 -2l-1 -2h1l-1 -2v-2l-4 -11l-2 -21v-2l-13 -1l-5 -1l-6 -1l-1 -1l-3 -14l-1 -6l-1 -18l1 -2h-1l1 -2l1 -9l1 -3l3 -7l1 -1l3 -4v-2l2 -2l2 -2l2 -4l2 -2l4 -4v-1h-2l-3 -1l-4 -2h-2l-1 -1l-5 -5l-2 -2l-1 -7v-6l1 -4l3 -6v-1l2 -3l7 -3l2 -1h9l3 1l5 2l5 2l1 1l4 3l-4 -28h-1l1 -2v-1l-2 -3v-2v-2l-1 -2l-2 -2v-2h3v2l4 5v1l2 2v3l2 7l5 24l1 6h1l2 -6l5 -12l8 -20l6 -24h2l4 -1v2v4l-2 6v3l-3 2v2l-4 9l-3 9l-4 8l-1 2l-2 2l-1 3l-5 12v1l-1 2l3 -1l5 -2v-2l3 -1h3l2 -2h2l9 -4l11 -1h13l10 1l4 2l10 3l4 1l13 3l2 2h2l5 2l3 1l2 2h1l5 7l4 8l4 7l5 13v7l-1 6h-1l1 2h-1l-1 3l-3 9h-1l1 2l1 2l1 2l4 6l1 3l2 3v4l-2 2h1v2l3 8l2 8l3 14v1l1 -1l2 -3h2l2 3l-1 13l-3 14l-3 7l-1 4l-2 2v2v2l10 14l3 7l5 10v3l7 2l5 1v2l1 5l-2 2l-2 4h-1l-2 2v1l-1 25l-3 17l-1 4l-2 6l-1 4l-1 1l-5 5l-2 2l-3 1l-17 4l-6 1v1l-2 -1l-9 1l-5 27l-1 7l1 1l16 3v1l2 -1v2l2 -1l1 1v2h-1l1 2l-1 3l-1 4h-3l-2 -3l-1 -3l-5 -1l-10 -3h-2v-2h-2l1 -13l4 -20l1 -3v-2l-36 -1v-1l-2 1v-1h-5v13h1l-1 2v6l14 3l5 1v2l-2 1h-1v4h-9l-2 -1v1l-2 -1h-4l-2 -2l-3 -1v-2v-4l1 -2v-1l1 -2h-1l1 -2l-1 -17l-7 -2h-2l-3 -1l-2 -1v1l-2 -1l-2 -1l-14 -5l-2 -1l-5 -2l-9 -7l-2 -1l-6 -5l-6 -5l-2 -5v-13v-2l2 -3l1 -4v-2l1 -4l-7 -3h-1l-5 -4v-2l-1 -4h-1l1 -2v-2l2 -1l5 -2l8 -3l4 -1l1 -4l3 -11h1v2h1l-2 2l1 3v2l-2 3v2v1l2 -1v-3l2 -3l1 -2l5 -7v-1l2 -2v2h1l-1 2l-2 3h-2v1h1l-2 2l-1 4h1l-1 1h-1v3h1l-2 2v2h2l2 2l-2 1h-4l-4 10v1v1l2 -1h1l5 -3l2 -2l1 -1h2l10 -6v3l-3 1l-2 2h-3v2h-2l-10 6l-1 1l-1 1h1l6 1v1h1v-2h1v2l4 -3h1l-2 3v1h4l1 1v-1h2l1 -1h3l1 -2l4 -2h1l2 -2h2l2 -2l3 -1l2 -1h1l2 -2h4l-2 2l-23 11v2l12 2l1 1v-1h2v-1h1v-1l1 -1h-1l1 -1h1l1 1v-1l7 -4v-2l3 -1l3 -2l3 -2l1 -2h1l2 -2h2l1 -2h-1h-1l-1 -1h-2l2 -2l6 -1v-1l-8 1v-1h-1l2 -1l3 -2h4l4 -1l2 -1l2 2v2l-6 7l-7 5l-3 1l-4 3l-4 3v-1h-1v1h-1v1l-1 2l-1 1l-2 -1v2l-4 3l-2 2l-4 3l-3 1v2l-6 3v2h-2v2l-2 2h1l12 -2l11 -2l4 -1l3 1v-1h2v-1h-2v-1h3l3 1v-1l4 -1h2v-1h-2v-1h3l3 1v-1h2h1v-1h3l1 -1h-1h-2v-1h4l4 1v-1h4v-1h-4h9h2v4l-3 3v-1h-1v1h-1v1h-1v1h-1v1h-1v1l-3 2l-4 3v1l-1 1h-1l-2 2h-2v2h-2l-1 2h-1h-1v2h-1l-3 2v1h-1v1h-2l-2 2h-1v2h-1l-3 2v1h-1l-2 1v1h2l-3 3l-3 1v1l-2 2v1l3 1h3l3 1v-3h3v2l2 2h4v1l2 -1v1l1 -1v-1h5l2 1v-2l6 -1l3 -1h2l2 1v1l-1 2l-18 2v1l4 1h2v-1l2 1h2l2 -1v1h2l2 1v-1l2 1v-1l10 1v-1l2 1l2 -1v1l8 -1v-5h1v3l1 1v-1v-3z"/></g><g class="f live" data-f="1" fill="var(--live,#000)" fill-rule="evenodd"><path class="chunk" data-i="0" d="M-301 15275l-2 2l-1 -1l6 -5l4 -1l1 -1l2 1l-1 1h-2l-2 2l-2 1l-3 1zM72 15211h-2l-2 -1v-2h2l1 2h1v1zM66 15209h-4l1 -1l-1 -1l1 -1l1 1h1l1 2zM22 15169l-1 -1l-2 -1h-1l2 -1l1 1l2 -1v1v1h-1v1zM83 15134l1 1l1 2l1 1l-1 1v1l-4 4h-2l-1 -1l2 -1h1l3 -3l-1 -3v-2zM83 15136v2l-1 -1l-11 -4v-1l8 2v-1l-11 -3l-1 1l-1 -1l-2 1l-2 -1l1 -1l15 3l1 -1l1 1l3 2h-2l-1 1l3 1zM60 15130h-2h-2h-7v-1h4h1h1h5v1zM58 15132l-15 1l1 -1l15 -1l-1 1zM47 15130l-7 1l1 -1l3 -1l1 1l1 -1h1v1z"/><path class="chunk" data-i="1" d="M38 15103v-1h-1v1h1zM34 15105v-1l-1 1h1zM32 15108v-1h-1v1h1zM30 15108h-1h1zM29 15109v-1h-1v1h1zM26 15111v-1h-1v1h1zM25 15116v-1h-1v1h1zM21 15121v-1h-1v1h1zM18 15123v-2l-1 1v1h1zM16 15127v-1h-1v2l1 -1zM18 15127v-1h-1v1h1zM16 15133v-1l-1 -1v1l1 1zM18 15133v-2h-1v1l1 1zM20 15135v-1h-1v1h1zM26 15135v-1l-1 1v1l1 -1zM27 15135v-1h-1v1h1zM22 15137v-1l-2 1v1l2 -1zM31 15134v-1v1v1v-1zM24 15138v-1h-1v1h1zM25 15137v-1v1v1v-1zM61 15083v-1l-1 1v1l1 -1zM56 15089h-1l-1 1v1v1h-2v-1v1v1h-2l-2 3v-1v1h-1l-1 1l-1 1l-3 2h-1l1 1l-4 3l-1 -1h-1l-1 1l1 1h-1l-1 2l-3 2l-3 1v1l1 1l-1 1l-1 -1l-1 1v2l-3 3v-1h-1v1v1h1l-1 2l-1 1l-1 2v-2l-1 1v1l-1 2h1v2l-1 3l1 2h3h1l-1 1l-1 1v1l18 -5v1h-2l-1 1l-1 -1v1h-1h-2v1l1 1h-1v1h-1h-1h-1l1 -2l-2 1l-3 3h-1l-1 1l-3 -1h-3h-1l-1 -2l-1 -1v-3v-4l2 -5v-2l5 -5v1l1 -1v-1h-1v-1l6 -7l5 -2l1 -1l1 -1l1 -1l2 -1l17 -13l2 -2l2 -1v-2h1l2 -3h1v1v2l-1 1l-1 1v-1h-1v1v1h-1l-1 1l-1 1v1zM27 15066v-2h-2l1 1l1 1zM30 15067v-1h-2v1h2zM32 15067v-1h-1v1h1zM35 15067v-1h-1v1h1zM37 15068l-1 -1h-1v1h2zM39 15068v-1h-1v1h1zM47 15070v-1h-1l-1 1h2zM50 15070l-1 -1h-1l1 1h1zM51 15071v-1h-1v1h1zM53 15071l-1 -1v1h1zM57 15071v-1l-1 1h-1h2zM58 15072v-1v1zM62 15072v-1h-1v1h1zM63 15073v-1h-1v1h1zM62 15080v-1l1 -2v-3l-6 -2h-3v-1h-1l-1 1l-7 -1l-3 -2l-1 1l-1 -1v-1l-1 1h-5v-1l-1 -1l-1 1l-7 -2l-1 -2h1v-1l12 3l23 5h2h1l1 1v1v2v1l1 -1v-2h1l-1 4l-1 -1v1v1l-1 1v1h-1zM19 15062v-1h-1v1h1zM23 15064v-1h-2l1 1h1zM24 15064l-1 1l-4 -1l-4 -2l1 -2l-2 -1v-1h-1l-1 -1l-1 -1h-1l-3 -3l1 -1h-1v-4h-1v-1h-1v-4l1 -1h1l-1 3h1v-1l3 -1l-1 2l-1 4l1 2l2 4l2 1l8 5l4 2h-1v1zM14 15036h-1l1 -1h2v1h-1h-1zM18 15034l1 -1v1v-1l2 -1v1l-4 3l1 -2zM16 15035v-1l3 -3h1l-1 2h-1v1h-1l-1 1zM23 15010v-1v1v1v-1zM25 15010l1 -1h-1v1zM27 15017v-1v1zM22 15029h-1l-1 1v-1l1 -1l1 -1l2 -5v-3l2 -2v-3l1 -1l-1 -2l-2 1l-2 1v-3l1 -2l5 -1l1 1l1 3l-1 2l-2 9l-1 2l-1 2v-2l-1 1v2h-1l-1 1v1zM335 15267l-2 1l-1 -1l-1 1l-1 -1l-1 1l-1 -2v-1h3l3 -2h1l1 1v1l1 1l-2 1zM342 15239l-6 -2l-1 -1v-2l1 -2v-1l2 -2h1l2 -3v-2l2 -2v-1l14 -33l1 -8v-5h1l-1 -2v-1v-2l2 -2l-1 -1l3 -4l2 2l1 14l-1 7l-8 22l-7 16l-6 12v2l-1 1z"/><path class="chunk" data-i="2" d="M269 15243h-3v-2h-2v-1l-2 2l-2 -1v-2l1 -2h1l3 -3v-14v-2v-1v-1l-1 -8l-4 -15v-3l4 -18l3 -21h1l1 -1l-1 -1v-1h2v6l-1 1l1 1l-5 32l4 14l1 17l1 20v1l-1 3h-1zM269 15153v-1h-1v1h1z"/><path class="chunk" data-i="3" d="M-315 15482l1 -2h1v1h-1v1h-1zM-323 15476v-1l2 -1l4 -3l2 -1v1l-2 1l-3 3h-1l-1 2l-1 -1z"/><path class="chunk" data-i="4" d="M-315 15470v-1h1v1v1h-1v-1zM-326 15473l1 -2l5 -3v1l-4 4h-2zM-314 15469h1l1 -1l4 -2l2 -1l-1 2h-1l-2 1l-4 1zM-302 15466l4 -2h3h-1l-2 1l-2 1h-2zM-327 15466v-1h2l1 1v-1v1h-3zM-306 15465l11 -4l3 -1v1l-2 1h-1h-1l-1 1h-2l-1 1h-1l-1 1h-2l-1 1l-1 -1zM-318 15462v-1h-2l1 1h1zM-322 15465v-1l-1 -1l1 -1h1l1 -1h3l-1 2h-1l-2 1l-1 1zM-317 15461l-1 -1h1h1h1v-1l1 -2l2 1l-2 1l-1 2h-2z"/><path class="chunk" data-i="5" d="M-311 15457l1 -1h3v1h1v1l-3 1l-1 -1h1v-1h-2zM-262 15423l-1 -1l-1 1l-7 1l-15 -3l-2 -1l-2 -1l-1 -1l-2 -1l1 -1h2l2 1l3 1l17 1l12 -3l6 -3l4 -3v-2h1l1 -2l1 1h2v2v3v2l-2 1l-2 2l-1 1l-2 1l-3 1l-5 2h-5l-1 1zM-335 15456h-1l-1 -4l-1 -1h1l1 -1l1 1v1l1 -1v1v3l-1 1zM-335 15453v-1h-1v1h1zM-335 15455v-1h-1v1h1zM-247 15379l-7 1l1 -1l3 -1l1 1v-1l2 -1l2 -1l1 1v-1l2 -1l4 -1l3 -1v3l-2 1l-1 -1l-3 1h-1v1l-5 1zM-250 15363l-4 -1l1 -1v-1l1 -2l4 -1l8 -1v1l1 1l-1 1v2h-2l-1 1l-1 -1l-5 1l-1 1zM-277 15387l-23 2v-2l-3 -2l-2 -1l-2 -1l-1 -2l-1 -2l-1 -6l-1 -3l1 -1l2 3v2l1 3l1 2l1 2l6 2v1v1l2 -1h20l2 -1l3 -1l3 -1l2 1l-2 2h-2l-3 2l-3 1zM-286 15365h-6l-1 -2l1 -1v-1l5 -4h3h4l2 1l2 1l1 2l-2 2l-2 1l-4 1h-3zM-322 15306l-1 1h-2l1 -4v-2l3 -3v-1h1l-1 3l-1 2v3h-2v1h2zM-364 15334l-1 -2l-2 -2v-2v-3v-1l2 1l2 6l1 1l-2 2z"/><path class="chunk" data-i="6" d="M-350 15317l-1 -1l-2 -6h1h1l-1 1l2 6zM-298 15285h-1h1zM-299 15286v-1h-1v1h1zM-311 15288l-1 -1v1h1zM-298 15287h-1h1zM-303 15289v-1h-1v1h1zM-297 15288v-1h-1v1h1zM-299 15290v-1l-1 -1l-1 1l1 1h1zM-312 15291h-1v1l1 -1zM-306 15290h-1v1l1 -1zM-308 15291v1v-1zM-301 15291v-1h-1v1h1zM-310 15294v-1h-1v1h1zM-301 15292v-1l-1 1h1zM-302 15293v-1v1zM-302 15296v-1h-1v1h1zM-315 15298h1v-1h1v-1l1 -1v-1v-1h-1v-1l-1 -2h1l1 -1h-1l1 -3l1 1v-1v-1l2 -1l-1 -1h1l2 -4h1l1 -2h1v1l-4 5l-2 5l-1 1v1h2l4 -3l1 -1l2 -1h2v-1l2 -1l2 -1h2v-2h2l2 -2h2l4 -3l5 -2l2 -3l1 1h2l-1 2l-1 1l-1 1l-4 3l-1 -1v1l-1 1l-1 1l-1 -1l-3 2h-1l-1 1h1v1h-1l-1 -1l-2 1h-1l-2 2l-1 2h1v1l-4 3v2l-1 1h1v1l-1 1l1 1v1h-2l-2 -2v-3l1 -3l1 -1h-1h-1l-1 1l-3 2l-4 4l-4 4v-1h1v-1zM-362 15207v-1h-1v1h1zM-361 15209v-1h-1v1h1zM-359 15212v-1h-1v1h1zM-360 15214v-1h-1v1h1zM-358 15214v-1h-1v1h1zM-375 15273l3 -4h1l2 -2l2 -1l2 -1l6 -3l1 -2l-1 -1v-3v-2l-1 -1l-2 -2l-1 -1l-6 -2l-5 -2h-3h-7l-3 2l-3 4l-1 1l-2 7v4l2 4v1l3 2h1l3 1h3l6 1zM-351 15257v-1h-1v1h1zM-368 15275v-1l-1 -1v2h1zM-366 15275h-1l-1 1l2 2l-1 2v1l-1 2l-1 -1l-1 1l-5 -1l-5 8l-3 4l-2 2l-1 4l-1 2v3h1l1 2l-3 -1l-1 4l-1 1v1h2v2h-1l-1 -1v1v4l-2 1l1 1h1v6l-1 1l2 1v2l1 1l-1 1l1 1v2l2 1l2 4l4 3h1l3 2l5 1l1 2l-2 1l-8 -1l-3 -2h-1l-3 -3l-3 -4l-2 -3l-1 -4v-14l4 -15l-1 -1l-1 1l-2 4l-2 2l-1 4l-3 6l3 28l6 15l6 2l4 2h9h1h1l1 -4l2 -2l2 -4l2 -2l3 -5l4 -7v-3l3 -4l3 -6l4 -4h1l16 -9l8 -3l2 -1l2 -2l3 -1l10 -6l3 -1l5 -1l1 -1l1 1l6 -2l21 2l5 1l2 1l3 2l5 2l6 3l6 5l-1 1l5 4l3 1l2 2l2 -15l-2 -9l-6 -11l-1 -3l-2 -4l-3 -5l-1 -3l-4 -10l-2 -2l-2 -1l-4 -1l-2 -1l-5 1l-1 -1l-1 1h-1h-4h-7l-2 -1h-4l-18 -3l-1 -1v2h-1l-1 -1h-5l-1 1l-1 -2l-2 2l-2 -1l-1 2l-1 -2l-1 1h-3l-1 2h-7l-2 2l-1 -1h-1h-1l-2 2l-1 -2l-3 1l-1 2l-11 1v2h-4l-5 3l-2 1v2h-1v-1l-1 1l-1 1h1v1v2h-1v-1h-1v1zM-391 15322v-1h-1v1h1zM-272 15441l7 -2l8 -3l6 -1l5 -1l10 -3l7 -7l1 -3l-4 -4v-3l2 -3l3 1l2 1v2l1 -1l1 -5l3 -25l-1 -19l-5 -18l-1 -4l-6 -10l-9 -11l-2 -2v-2v-1l-3 -1l-3 -2l-1 -1l-3 -1l-2 -1l-2 -1l-2 -1l-2 -1h-3l-8 -2l-18 1l-1 1l-1 -1l-10 4l-6 4l-5 1l-2 2l-7 3l-3 1l-2 1l-7 4l-5 3l-1 1l-3 5l-3 6l-12 21l-1 3h1l1 1l-1 2l-2 2h-1h-1l1 1l-1 3h-1l1 1l-1 6l3 17v2l-1 1l2 3l-1 1v2l1 1v1l1 1l-1 2l5 5l21 17l4 2l21 8l18 3l5 -1l14 -6zM-389 15334v-1h-1v1h1zM-374 15347v-1h-2v1h2zM-363 15398v-2h-1l1 2zM-338 15447v-1l-1 -1v1l1 1zM-345 15462v-2h-1v2h1zM-351 15470v-3l-1 -1v4h1zM-349 15469l1 -2h-1l-1 1l1 1zM-359 15482l2 -1l-1 -1l1 -2l1 -1l1 -4l1 -5l-1 1l-5 1l-2 3h-2l-2 1v3l3 4l4 1zM-303 15454l1 -1l-2 1l-1 1l2 -1zM-305 15455h-1h1zM-301 15455l1 -1h-1l-1 1h1zM-284 15457v-1l-1 1h1zM-286 15462l2 -1h-1h-1l-1 1h1zM-289 15463v-1h-1v1h1zM-287 15463v-1h-1v1h1zM-190 15474l1 -1l3 -4l-3 -2h-3h-2l1 2l1 2l1 3h1zM-350 15472v-2h-1v2h1zM-352 15473v-1h-1v1h1zM-352 15475v-1h-1v1h1zM-353 15479v-1h-1l-1 1h2zM-340 15490v-1h-2v2l2 -1zM-316 15534l5 -4l5 -1l1 -1v-1l4 -1v-1l2 -2l3 -2l19 -15l4 -2l9 -7l-1 -1l1 -1l-9 -1l-31 8l-2 1l-1 1l-1 -2l-1 2l-7 2l-9 1l-7 -1l-1 -1l-1 -1l1 -3l1 -2l10 -9l-2 -1h-9h-2l-1 1h-1l-2 2h-3l-2 2h-2v1l-1 1l-1 -1l-1 1l-5 2l3 2l-1 1v1h-1l-1 -1h-1h-1v-1l-2 -1l-1 3h1l-1 1l1 5l2 2l2 1l4 2l3 3l2 1l2 1l2 2l5 6l14 6l6 2zM-349 15493l3 -1v-1l2 -1l1 -1h-1l-2 1l-3 -1h-4l-2 2v2h1l2 -2h2v1l-3 1l2 1l2 -1zM-343 15492l1 -1h-2l-1 1h2zM-345 15493v-1h-1v1h1zM-347 15494l1 -1h-2v1h1zM-348 15494h-2v1l2 -1zM-353 15496v-1h-1v1h1zM-351 15495h-1h1zM-355 15499v-1h-1v1h1zM-287 15465v-1h-1v1h1zM-294 15469v-1h-1v1h1zM-299 15471v-1h-1v1h1zM-320 15491v-2l-1 1v1h1zM-307 15500v-1h-2v1h2zM-310 15501l1 -1h-2v1h1zM-312 15502l1 -1h-2v1h1zM-315 15503l1 -1h-2l-1 1h2zM-318 15504v-1h-1v1h1zM-323 15505l1 -1l-2 -1l-1 1l2 1zM-303 15530v-1h-1v1h1zM-261 15492l-1 -1l-1 1h2zM-258 15495l-1 -1h-1l2 1zM-307 15533l-1 -1h-1v1h2zM-313 15534v-1h-1v1h1zM-310 15535v-1h-1v1h1zM-240 15542l1 4l16 -7l3 -2l6 -5h1l3 -3l1 -1l1 -1l4 -5l10 -23l1 -14l-1 -1v2l-10 11l-1 1l-5 1v-5l9 -9h1v-2l1 -1l4 -4l-1 -5l-5 -7h-13l-1 1v-1l-2 -1h1h1l1 1v-1v-1h4l1 1v-1h5l-1 -3l-6 -9l-12 -24h-1v2l-7 8h-1l-4 1l-6 2h-4l-12 3l-2 1l-11 4l-3 2l-6 1h-1l-1 1v-1l-1 1h-1l-1 1h-1h-1l-1 1l-1 -1h-2h-4l-3 1l-2 1h-1h-1v1l-4 2v-1h1l2 -2h-4l1 -3l-2 1v-1l-1 -1h-3l-18 -8l-9 -6l-9 -7l-4 -4v-1l-4 -3l-1 -1l-5 -6l-1 -2h-2l-2 -2l-1 -4l-1 -1l1 -1l-1 -1l-1 -4l-1 -12l1 -17v-1h-11l-5 -1l-6 -1l-2 -2l-6 -15l-2 -5l-2 -17l1 -1l-1 -1v-1l1 -12l1 -4l4 -9l1 -2l4 -2v-3l2 -2l2 -2l3 -3l2 -3l3 -4l-2 -1l-2 -1l-4 -1l-2 -1l-1 -1l-5 -3v-1l-2 -1l-1 -5l1 -6l1 -4l2 -7v-2l2 -3l6 -3l2 -1h10l3 1l5 1l5 3h1l2 2h1v-24l-1 -2l1 -1l-1 -1l-1 -3l-1 -3v-2v-2l-2 -1v-3h2l1 2l3 4l1 2l2 2v3l2 8v21l1 5h-1h2l1 -4l5 -11l8 -22l11 -22l2 -1h3v2l-1 4l-3 6l-1 2l-4 2v2l-5 8l-4 10l-3 9l-1 2l-1 2l-1 2l-4 11l-1 1l-1 1l1 1l2 -1l5 -1l1 -2h2h4l1 -2h2l9 -2l14 -2l16 2l10 2l4 1l9 3h4h13l2 1h1l4 1l2 1l1 2h1l3 7l3 9l5 8l7 14l1 9v6l-1 1l1 1l-1 1v3l-2 8v1l1 1l1 3l1 3l4 6l2 3v2l1 3l-2 2l1 1v1l3 7l1 7l2 15v1l1 -1v-1l3 -2l1 -1l2 3l-1 13l-6 11l-4 7l-1 5l-2 2l-1 2v2l10 19l5 10l7 10l1 2l8 1l6 1v1l1 3l-2 2l-3 3l-1 1l-1 1v1l-2 27l-6 15l-2 3l-3 4l-2 3l-1 1l-5 5h-1l-2 2l-2 1l-11 7l-5 2l-1 1h-1l-9 2l-10 21l-1 8l1 1l13 5v1l2 -1v1v1h1l1 -1l1 2v1l-1 1l1 2v3l-2 5h-2l-3 -3l-2 -3l-4 -3l-7 -2l-1 -1v-2l-2 -1l1 -15l6 -15l1 -2v-1l-33 -1l-1 -1l-1 1l-1 -1l-4 -1v15l1 1l-1 1l-1 7h13l5 -1v2l-2 1l-1 1v3l-10 2h-1l-1 1l-1 -1l-4 1l-2 -1l-3 -1v-1v-4l2 -2v-2l1 -1v-1l1 -1l-1 -21l-9 -4l-3 -1l-5 -1l-1 -1l-2 1l-1 -1l-4 -1l-16 -5l-2 -1l-4 -2l-6 -8l-2 -1l-5 -5l-5 -6l-3 -3v-10l1 -1l1 -2l1 -3l1 -2v-3l-6 -2l-2 -1l-4 -5v-2l-1 -4l-1 -2l1 -1l-1 -2l2 -2l6 -2l9 -4l5 -1v-5l3 -11l1 1v1l1 1l-2 1l1 3v2l-1 4v3l2 -1v-3l1 -3l1 -3l3 -6v-1l2 -1v1l1 1l-1 1v1l-1 2h-1l-1 1l1 1l-1 1l-1 4l1 1h-1v3v1l-1 2v2h2l2 2l-2 2h-4l-5 12v1v1l1 -1l2 -1l5 -3l3 -3l1 -1l2 -1l9 -6v2l-3 2l-2 2l-2 1v1l-2 1l-11 8l-2 1l-1 1h1l7 -1l1 1v-1l2 -1v1v1l4 -4h1l-2 3v1l4 -1l1 1l1 -1l2 -1l1 -1l2 -1l1 -2l4 -2l1 -1l2 -2l1 -1l1 -2l3 -1l1 -1h2l2 -2h3l-2 1l-19 14v2l9 -1v1l1 -1l1 -1l1 -1v-1v-1l1 -1v1l1 -1l5 -4l1 -2l2 -1l4 -2l3 -1l1 -1h2l2 -2h1l2 -1l-1 -1h-1h-2l1 -2l6 -1v-1l-7 2v-1l2 -1l2 -2l4 -1l3 -1l1 -2l2 3v2l-6 6l-7 4l-3 1l-4 2l-5 3v-1h-1v1h-1v1l-1 1l-1 2l-1 -1l-1 1l-2 4l-2 3l-3 4l-2 2v1l-5 4l-1 2h-1v2l-3 1l1 1l10 -1l8 -3l3 -1l2 2l1 -2l1 1l1 -1l-1 -1h-1v-1h3l2 1l1 -1h5l1 -1l1 -1h-2l-1 -1h4l4 2v-2l3 1l1 -1h5v-1h-3l-1 -1h5l5 2v-1l4 1l1 -1h-1l-4 -1l10 2h2l1 4l-3 2l-1 -1v1h-1h-1v1h-1v1h-1v1l-3 2h-1l-5 4l-1 1h-2l-2 3h-2v2h-2l-1 2h-2l-1 1l1 1h-2l-2 3v1h-1v1l-2 -1l-2 2h-1v2h-1l-2 2h-2l-1 1v1h2l-3 2l-3 1v1l-3 2h1l4 1l4 1l3 1v-2h3l1 2l2 2l4 1l1 1v-1l2 1v-2l4 1l1 2l1 -1v-1h5l2 -1l2 1l2 1v1l-1 1h-15v1l3 1l2 1v-1l1 1h3v-1l1 2h2l1 1l1 -1l1 1l1 -1l9 1l1 -1l1 1h2l1 -1l1 1l9 -2v-5h1v3l1 1v-1l1 -3z"/></g><g class="f live" data-f="2" fill="var(--live,#000)" fill-rule="evenodd"><path class="chunk" data-i="0" d="M-299 15270l-2 2h-1l5 -7l4 -2v-1l2 2h-1h-1l-2 3h-1l-3 3zM70 15211h-2l-1 -1h1l1 -1v1h1h1l-1 1zM65 15210l-3 1v-1l1 -1l1 -1v1h1v1zM23 15175l-1 -1h-2v-1l1 -1l1 1l1 -1v2v1zM85 15139h2l1 2l1 1l-1 1v1l-6 5h-2l-1 -1l2 -1h1l5 -4l-2 -2v-2zM85 15141v1v1l-2 -1l-15 -1v-1h11v-1l-15 -2l-1 1l-1 -1l-1 1h-2v-1l1 -2l17 3l1 -1l2 1l5 1l-4 1v1h4zM58 15137l-2 -1h-2l-4 -1v-2l2 1l1 1l1 -1l3 1l1 2zM57 15139l-11 -3v-1l11 3v1zM49 15135l-6 -2l1 -1h2l1 1l1 -1l1 1v2z"/><path class="chunk" data-i="1" d="M34 15101v-1h-1v1h1zM32 15104v-1l-1 1h1zM30 15107v-1l-1 1v1l1 -1zM28 15109v-1h-1v1h1zM27 15110v-1h-1v1h1zM24 15112v-1h-1v1h1zM21 15116v-1h-1v1h1zM15 15119h-1v1l1 -1zM12 15120h-1h1zM9 15123h-1h1zM11 15123v-1h-1v1h1zM8 15127l1 -1l-1 -1l-1 1l1 1zM10 15127l1 -2h-1v1v1zM13 15128l1 -1h-2v1h1zM23 15130v-1h-1l-1 1h2zM25 15130v-1h-1v1h1zM16 15131l1 -1h-3l-1 1h3zM33 15132v-1h-1v1h1zM20 15132v-1h-1v1h1zM23 15132v-1h-2v1h2zM60 15084v-1h-1v1h1zM53 15087h-2v1h-1l-1 1h1v1h-2v-1l-1 1l-2 1l-1 2l-1 -1v1h-1v1h-1v1l-4 2v1h1l-3 4h-1h-1v1h1l-1 1h-1v2l-3 3l-3 2v1l-1 1h-1l-1 1l-1 1l-3 2h-1l-1 1h1l-1 1l-2 1l-1 1l-1 -1v1l-1 1v2l-1 1l1 1l4 1h1l-1 1h-1v1l27 3v1l-2 -1l-1 1l-1 -1v1l-1 -1l-2 -1l-1 1l1 1h-1v1h-1l-3 -1v-1l1 -1h-1l-3 -1l-4 3h-1l-1 -1l-2 1l-6 -2l-3 -1h-2l-1 -1v-1l-1 -2l1 -3l2 -2l1 -1l6 -4v1l1 -1h1h-1v-1l8 -7l5 -3v-2l2 -1v-1l2 -2l16 -12l3 -2h2l1 -1l2 -1l2 -1h2v1h1l-2 1v1h-2v-1h-1v1h-1v1h-2h-1l-1 1zM29 15066v-1h-1v1h1zM31 15067v-1h-1l1 1zM32 15067l1 -1h-1v1zM34 15067v-1h-1v1h1zM35 15067h-1h1zM37 15068v-1h-1v1h1zM44 15070v-1h-1h-1l2 1zM46 15070v-1h-1v1h1zM47 15071v-1h-1v1h1zM49 15071v-1h-1v1h1zM54 15072l1 -1h-2v1h1zM57 15073v-1h-1v1h1zM62 15073l1 -1l-2 1h1zM63 15074l1 -1h-2v1h1zM62 15082v-1l2 -2l-1 -3l-8 -3l-4 -1l-1 -1l-1 1l-8 -2l-1 -1h-2v-1h-1h-4v-1h-1l-5 -1v-1l1 -1l8 1l23 6l4 1h1l2 2l-2 1h1v2l1 1v-1v-2l1 1v3h-1h-1v1l-1 1h-1v1h-1zM23 15064v-1h-1v1h1zM26 15065v-1h-1v1h1zM27 15065h-1h-3l-3 -1l1 -1l-2 -1l-1 -1h-2l-1 -1l-4 -1v-1h-1l-1 -2v-1h-1l-1 -1l-1 -4h1v3h1v-1l2 -1v2l1 3l1 2l3 2h2l8 3l3 1h-1v1zM14 15043h-2h-1l2 -2h2v1h-1v1zM17 15040h1l1 -1l1 -1v-1l2 -1l1 1v1l-5 4l-1 -2zM15 15041v-2l4 -4h1v2h-1v1v1h-1h-1v1l-2 1zM23 15008v-1h-1v1h1zM26 15009v-1h-1v1h1zM31 15018v-1l-1 -1v2h1zM24 15032h-2l-2 1h-1l1 -2h2l1 -3l3 -6v-3l3 -2l-1 -4l1 -1l-2 -2h-3h-3v-3l1 -1l8 1l2 1l1 3l1 3l-2 9l-2 3l-1 1l-1 -2l-2 2v2l-1 -1l-2 2l1 2zM332 15260h-1l-1 -1l-1 2l-1 -1h-1l-1 -2v-1h2h1l2 -2h1l1 2v1l1 1l-2 1zM344 15239h-9l-1 -1v-1l2 -2v-1l3 -2l3 -1l1 -4l1 -3l2 -2v-2l9 -31l3 -8v-5l1 -1l-1 -1l1 -1v-2l2 -3v-1l4 -4l2 2v12l-1 9l-10 21l-4 15l-6 14v1l-2 2z"/><path class="chunk" data-i="2" d="M272 15244h-5l-1 -2l-2 -1l-1 -1l-3 2h-3v-3l1 -3h2l4 -4l-1 -13l-1 -1l1 -1l-1 -1v-6l-2 -16l1 -4l4 -25l1 -13l1 -1h1l-1 -1v-1h2v4h-1l1 1l-4 34l3 18l3 13l3 18l1 2l-1 1v3l-2 1zM268 15152h-1v1l1 -1z"/><path class="chunk" data-i="3" d="M-318 15484l1 -2l2 1h-1v1h-2zM-328 15474h1l2 -1l5 -2l1 -1v1l1 1v1l-3 -1l-3 3h-1h-1l-2 -1z"/><path class="chunk" data-i="4" d="M-319 15470h1h1v1v1h-1v-1l-1 -1zM-329 15470l2 -1l5 -3l-1 2l-4 2h-2zM-317 15470v-1l2 -1l3 -2h2v2h-1l-2 2h-4zM-305 15469v-1l3 -2l3 -1v1l-2 1l-2 1l-2 1zM-327 15462h1h1v1l-2 -1zM-310 15466v-1l10 -5l3 -1l1 1l-2 1l-1 2l-1 -2l-1 1v2h-2l-1 1l-1 -1h-1v2h-2l-1 1l-1 -1zM-319 15458v-1h-1v1h1zM-323 15461v-1l1 -1l1 -1l1 -1h1v2h-1l-2 2h-1zM-319 15457l1 -1v-1v1h1v-3l1 -1h1l-1 2l-1 3h-2z"/><path class="chunk" data-i="5" d="M-314 15451v-1h2v1v1l-1 1h-1l1 -1v-1h-1zM-264 15418l-1 -1v1l-7 2l-16 1h-2h-1l-1 -1l-1 -1l1 -1h1l2 1h2l15 -4l13 -6l7 -2l5 -3l1 -1h1l1 -1l1 1h2l1 2l-1 3l-1 2h-2l-2 2l-2 1h-2l-3 2l-5 1l-5 1l-1 1zM-332 15456h-1v-3h-1v-1h1l2 -1v1h1l1 -1v1l-1 2l-2 2zM-331 15453h-1v1l1 -1zM-331 15455v-1h-1v1h1zM-248 15380l-8 1v-1l4 -1l1 1h1v-2h3l1 -2h1l1 -1h2l4 -3l3 -1v4l-1 1l-1 -1l-3 2h-2v1l1 1h-1l-6 1zM-250 15358l-2 -1v-2v-1l2 -1l2 -2l5 -1v1l1 1l-1 1v2h-1l-1 1l-1 -1l-3 2l-1 1zM-278 15385h-15v-2l-3 -1l-3 -1h-1l-2 -2l-1 -1l-4 -4l-1 -2h2l2 1l1 1l1 2l1 2l2 1l6 1l1 2l1 -1l14 1h1l2 -1h3l1 1l-2 2h-1l-3 1h-2zM-283 15368l-5 1l-2 -2h1l-1 -1l6 -4l4 -1l5 -1h2h2l1 2l-3 3l-2 1l-5 2h-3zM-326 15304l-1 1h-2v-4l1 -2l2 -2v-2l1 1l-1 2l-1 2l1 3h-2v1h2zM-367 15334l-1 -1v-2v-1l1 -2v-1l1 1v5l-1 1z"/><path class="chunk" data-i="6" d="M-350 15319l-1 -1l1 -9l1 -1v1l-1 1v9zM-295 15286v-1h-1v1h1zM-296 15287v-1h-1v1h1zM-313 15289l1 -1h-2v1h1zM-296 15289l1 -1h-1v1zM-301 15290v-1l-1 1h1zM-295 15290v-1h-1v1h1zM-297 15292l1 -1l-1 -1l-1 2h1zM-314 15292v-1h-1v1h1zM-305 15292v-1h-1v1h1zM-307 15293v-1h-1v1h1zM-298 15293v-1h-1v1h1zM-311 15295v-1h-1v1h1zM-299 15295v-1l-1 1h1zM-300 15295h-1h1zM-301 15298v-1h-1v1h1zM-318 15298h1v-1h1v-1h1h1l1 -1v-1h-2l-1 -2v-1l2 -1l-1 -1l1 -3h1l1 1l1 -1v-1l2 -2l-1 -1h1l1 -1l3 -5h1l1 -3h1v2l-5 8l-4 6v1l-2 1h1h3l6 -3h2l2 -3h2v-2h1l2 -3h2v-2h1l2 -3h1l3 -4l3 -2l2 -2l1 1h1l-1 2l-1 2h-1l-3 3v-1l-1 1v1l-1 2l-1 -1l-1 2l-1 1v1v1h-1v-1l-1 1h-1l-2 4v2v1l-4 4v2l-1 1h1v1l-1 1v1h-2l-2 -2l1 -2l2 -3v-1v-1l-1 1l-2 1l-4 2l-6 3l-6 2l1 -1zM-365 15207l1 -1h-1v1zM-364 15208h-1h1zM-363 15211v-1h-1v1h1zM-365 15212l1 -1h-1l-1 1h1zM-363 15212v-1h-1v1h1zM-372 15276l3 -2h3l1 -2h2h2l5 -3l1 -1l-1 -1l-1 -3l-2 -2l-1 -2l-3 -3l-2 -1l-8 -6l-4 -4l-2 -1h-5h-3l-3 3l-1 2l-4 5l-1 4l1 7v2l3 3l1 1l4 1l5 2l10 1zM-348 15265v-1h-2l1 1h1zM-361 15278l-1 -1h-1l1 1h1zM-359 15278h-2v1l2 1v1v1l-2 2l-1 -1l-1 1h-7l-9 8l-4 6l-2 2l-1 3v2v3h1l1 1h-3v3l-1 1h1l1 1l1 1h-1l-1 -1v1l1 4h-1v1h2l1 6l-1 1l1 1l1 1l1 1l-1 1l1 1v3h2l1 5l2 2l2 1h2v1l-1 2l-4 1l-1 -2h-1l-1 -2l-3 -5l-1 -3l-1 -3l-3 -14v-12h-2l-1 4l-2 1v2l-1 5l5 31l2 14h3h3l8 -1l1 -1l1 1v-1v-5l2 -2l1 -4l1 -2l3 -5l3 -4l1 -2l4 -2l4 -4l5 -4h1l17 -13l8 -4l1 -1l2 -2l4 -1l12 -4h3l5 -1l1 -1l1 1l4 -1h20l6 1l4 2l5 3l6 3l7 5l5 6l-1 1l3 4l2 1h3l4 -16v-9l-5 -13l-1 -3l-3 -3l-3 -5l-2 -3l-9 -7l-1 -1l-2 -1l-2 -1l-5 -3l-2 -1l-4 -1l-1 -1l-1 1l-1 -1l-4 -1l-6 -2l-2 -1l-4 -1l-18 -1h-1v1h-1h-1h-3l-1 1l-1 -1l-1 1h-2l-1 1h-1v1h-2l-2 2l-6 2l-2 2l-1 -1l-1 2h-1l-2 2l-2 -1l-3 2l-1 1l-10 3l-1 2h-3l-4 2l-1 1v1h-1v-1h-1v1h-1l1 1l1 1h-1l-1 -1v1zM-386 15322v-1h-1v1h1zM-268 15444l6 -1l5 -2l4 -1l4 -1l10 -5l10 -7l1 -4l-4 -6v-3l2 -3l3 2l2 2v2h2v-5v-30l-1 -20l-6 -18l-1 -3l-4 -5l-7 -7l-1 -2v-2l1 -2h-3l-2 -3h-2l-2 -2l-3 -1l-2 -3l-2 -1l-3 -1l-4 -2l-10 -3l-18 -2v1l-1 -1l-11 2l-7 3l-5 1l-2 3l-5 3l-3 1l-1 3l-6 5l-7 4l-1 1l-6 3l-4 4l-12 18v5h1l3 3v3l-2 3h-1l-1 1l1 1l1 5l-1 1l1 1l1 8l5 14v1h-1l-1 1l2 2l-1 1l1 2l-1 1l1 1l-1 1l5 5l23 19l4 2l13 2l14 1l6 1l24 3zM-383 15334v-1h-1v1h1zM-375 15345v-1v1zM-358 15399h-1h1zM-334 15449v-1h-1v1h1zM-345 15461h-2h2zM-351 15466v-1l-1 -1v2h1zM-349 15465v-1h-1v1h1zM-357 15475l1 -1l-1 -1l1 -1v-1l1 -3l1 -2l-1 -1l-1 1l-4 1l-2 2l-2 1l-1 1v2l4 2h4zM-309 15447v-1h-1l-1 1h2zM-311 15448v-1v2v-1zM-308 15448l1 -1h-1v1zM-285 15457v-2h-1v2h1zM-287 15464l2 -2h-1h-1l-2 1l1 1h1zM-291 15464v-1h-1v1h1zM-289 15465v-1h-1v1h1zM-193 15476l2 -2l3 -5l-2 -3h-2h-1v3v3v4zM-350 15467v-1h-1v1h1zM-352 15468v-1h-1v1h1zM-352 15469h-1h1zM-353 15472v-1h-1v1h1zM-344 15486v-2l-1 1v1h1zM-313 15540l4 -4l4 -2l2 -1v-2l4 -1l1 -2l2 -3l4 -3l15 -14l3 -2l7 -6v-1l2 -1l-1 -1h-9l-23 3l-2 1l-1 1l-1 -1l-2 1l-11 2l-14 3h-8h-2l-1 -1v-4l1 -2l10 -10l-2 -2l-9 -2v-1l-1 1h-1l-2 3h-1l-2 2l-1 1v1l-1 1v-1l-1 1l-3 3v1l2 4l-1 1v1h-1v-1h-1l-1 -1v-1v-2l-1 1l-1 3l1 1l-1 1l-1 6l2 2h1l3 2l3 3h2l2 1l2 2l9 6l16 10l5 3zM-350 15488h2v-1l1 -1l1 -1v-1v-1l-1 1l-2 -1h-3l-1 2v3v1l2 -3h1v1l-2 2l1 2l1 -3zM-346 15488l1 -1h-1l-1 1h1zM-347 15489v-1h-1v1h1zM-348 15490v-1h-1v2l1 -1zM-349 15492v-1h-1v1h1zM-352 15494v-1l-1 -1v1l1 1zM-351 15493v-1v1zM-354 15499v-1v1zM-288 15468v-1h-1v1h1zM-295 15474v-1l-1 -1v2h1zM-299 15477v-1h-1v1h1zM-326 15490v-1h-1v1h1zM-301 15499v-1l-3 -1v1l3 1zM-305 15499l1 -1h-3l-1 1h3zM-308 15500v-1h-2v1h2zM-314 15501l1 -1h-3l-1 1h3zM-319 15503v-1h-2v1h2zM-326 15504v-1h-3l-1 1h4zM-302 15536v-1h-1v1h1zM-262 15494v-1h-2v1h2zM-259 15497v-1l-1 -1v1l1 1zM-307 15540v-1h-1v1h1zM-311 15540v-1h-1v1h1zM-309 15542v-1h-1v1h1zM-246 15534v5l20 -1h4l10 -2l1 -1l2 -2l1 -1v-3l2 -8l7 -27l1 -9h-1l-1 1l-11 8h-1l-4 1l1 -3l8 -7h1l1 -1h1l6 -4v-4v-11l-12 2l-2 1v-1v-1l-1 -1h1h1l1 1v-1l1 -1h3l1 1l1 -1v-2h4v-3l-3 -10l-17 -17l-2 -1v2l-10 10h-2l-5 3l-6 2l-4 1l-7 2l-2 1l-9 1h-4l-8 -1l-2 -1l-1 1l-1 -1l-1 1l-2 -1h-2h-2l-1 -1l-2 1l-1 -1l-4 -1l-4 -1h-3l-2 2l-1 -1v1l-1 1l-2 3v-1l-1 -1h1l2 -2l-1 -1l-2 1l1 -4v-1l-1 2l-1 -1v-1h-1l-10 -2l-10 -3l-12 -8l-4 -5v-1l-4 -5h-2l-3 -7l-2 -2h-2l-1 -1l-1 -4l-1 -1l1 -1l-1 -1l-1 -2l-3 -11l-3 -21v-2h-11h-5l-4 -1h-1l-2 -10l-1 -6l-3 -23l1 -1l-1 -2l1 -1l-2 -10l1 -2l2 -6v-1l3 -2v-2l2 -2l1 -3l4 -4l1 -3l5 -5l-2 -1l-4 -1l-5 -1l-2 -2h-2l-4 -7v-1l-2 -3v-8l1 -6l2 -4l4 -5l1 -1l3 -2l5 -3h2l6 -1l2 1l4 2l5 4l2 1l3 5l1 -1l-4 -32v-1l1 -1v-1l-1 -2v-2l1 -1v-1l-1 -2v-1h3v1l1 3v2l2 1v2l1 6l5 31l3 7h1l1 -7l6 -16l8 -20l3 -24l2 -1l4 -1l1 2v4l-2 7v3l-3 3v1l-2 9l-2 9l-4 9v3l-3 2v4l-6 15v1l-1 2h3l6 -3v-2l4 -1l4 -1l2 -2l2 -1l8 -3l9 -2l14 -1l11 1h5l10 4l3 1l10 3l2 2h1l4 2l3 1l2 2h1l6 6l6 8l4 8l6 15l1 8l-1 6l-1 1l1 1l-1 1v3l-4 8l-1 1l1 1l1 2l1 2l5 4l1 2l1 3l1 3l-3 2l1 1v1l2 7v7v14h1v-1l2 -3h1l3 2l-2 16l-2 17l-1 7v5l-2 2v1v2l15 14l4 6l3 11l1 3l4 2l4 1v2l1 4l-2 3l-2 4h-1l-1 2l-1 1l-3 19l-3 20l-1 5l-2 8l-1 4l-1 2l-3 3h-1l-2 2h-2l-20 2l-7 1l-1 1l-1 -1l-9 1l-4 29v6l1 1l17 4l2 2l1 -1v1l1 1l1 -1l1 2l1 1l-1 1l1 1v3l-1 4h-2l-3 -3l-2 -4l-5 -2l-13 -4h-2l-1 -2h-2l1 -11l4 -21l1 -3v-3l-30 3h-1l-1 1l-1 -1l-6 1v8l1 1h-1v6l13 3l4 1v2l-2 1h-1l-1 4l-8 1l-1 -2l-1 2l-1 -1h-3l-2 -2l-3 -1l-1 -2v-4l1 -2v-2l1 -1l-1 -1h1l-1 -12l-7 -1l-2 -1l-3 -1l-1 -1l-1 1l-1 -1l-2 -1l-14 -9l-3 -1l-6 -5l-10 -7l-3 -2l-5 -4l-4 -4l-1 -4l2 -12l1 -2l1 -3l1 -5v-2l1 -4l-7 -2h-1l-5 -3l-1 -2l-1 -3l-1 -1l1 -1v-1l1 -2l5 -2l8 -3l4 -1l1 -3l4 -8v-1l2 1v1h1l-3 2l1 2v2l-1 2l-1 1l1 1l2 -1v-2l2 -2l2 -2l5 -7l1 -1l1 -2l1 1v1h1l-1 1v1l-3 3h-1l-1 1h1l-2 2l-1 2l1 1h-1l-1 1l-1 1l1 1l-2 1v1h2l2 1l-2 1h-4l-5 8v2l1 -1l1 -1l5 -2l3 -2h1v-1h2l10 -5l-1 3l-3 1l-2 1l-2 1l-1 1h-2l-10 6l-1 1l-1 1h1l4 1l1 1l1 -1v-1l1 -1l-1 2l1 1l3 -4h1l-2 3v1l3 1v1l1 -1h2v-1h1h2l2 -1v-1l4 -1h1l3 -2h2l1 -1l3 -1h2l1 -1l2 -2l3 1l-2 1l-23 9v2l12 3l1 1l1 -1h1h1v-1h1v-1h1h-1v-1h2l1 1v-1l7 -3v-1l2 -2l3 -2l2 -2l2 -2h1l2 -2h2l1 -2v-1h-2l-1 -1h-3l2 -3l7 -1l1 -1h-1l-9 1v-1h-1l2 -2l4 -1l5 -1h5l2 -1l2 3v2l-8 8l-7 5l-2 2l-4 3l-4 2l-1 -1v1h-1v1l-1 1l-1 2l-1 -1h-1l1 1l-4 3l-3 1l-5 2l-3 2l-1 1l-6 4l-1 2h-2v2l-2 2l16 -2l14 -3h4l3 1v-1h2l-1 -1h-1v-1l3 1l2 1v-1h4h1v-1h-1l-1 -1h3l2 2l1 -1h2v-1l4 1v-1h-2l-1 -2l4 1l4 1v-1l5 1v-1v-1h-5h11l3 1v5l-4 3v-1h-1v1h-1v1h-1v1h-1v1h-1h-1l-2 2h-1l-4 3h1h-1v1h-2l-1 2h-1l-1 1l-1 1l-1 1v1l-1 -1l-1 1l1 2h-2l-2 3l-1 1h-1l-2 3h-2v2h-2l-3 4h-1l-2 2l1 1h1l-3 2l-3 2l-1 2l-2 1l1 1l2 1l3 1h3l1 -2h3v2l2 1h4h2l1 -1l1 1h1v-2l6 -1l1 1l1 -1v-1l6 -2l3 -2h2h1v1l-1 2l-18 5v1h5h1l1 -1l2 1l3 -1l1 -1l1 1l2 -1l1 1v-1h1l1 -1l7 -1v-1l1 1l1 -1l1 1l5 -3l1 -4l1 -1l-1 4h1l1 -4z"/></g><g class="f jolt-f live" data-f="3" fill="var(--live,#000)" fill-rule="evenodd"><path class="chunk" data-i="0" d="M-303 15267l-2 1l6 -4l3 -1h1l-1 1l-2 1h-2l-3 2zM64 15208h-2l-2 -2l1 -1l1 -1v2l2 1v1zM58 15205l-2 1l-1 -1l1 -1v-1l1 -1v1l1 1v1zM28 15175l-1 -1h-2l-1 -1l1 -2l2 1l1 -1v1l1 2h-1v1zM86 15136h1v3l1 1l-1 1v1l-3 6h-1l1 -2v-1l2 -4v-3v-2zM86 15138v2h-1v-1l-8 -1v-1h6v-1l-9 -2v2l-1 -1l-1 1h-2l-1 -1l1 -2l12 1l1 -1v1l3 2l-2 1v1h2zM68 15136h-3h-2l-9 1v-2l5 -1l1 1l2 -1h5l1 2zM67 15139l-21 1l1 -2l20 -1v2zM52 15137h-11l1 -1l4 -1l2 1l2 -1h2v2z"/><path class="chunk" data-i="1" d="M34 15093l1 -1h-1v1zM31 15096v-1h-1v1h1zM28 15100l1 -2h-1l-1 1l1 1zM25 15101v-2h-1v2h1zM24 15102v-1h-1v1h1zM20 15105l1 -2h-1l-1 2h1zM17 15112v-2h-1v2h1zM12 15119v-2l-1 2h1zM10 15120v-1h-1v1h1zM9 15125v-2h-1v1l1 1zM10 15125v-1h-1v1h1zM9 15130v-1l-1 -1v1l1 1zM10 15131v-2l-1 -1v1l1 2zM12 15133v-1h-1v1h1zM17 15137v-1h-1v1h1zM18 15137v-1v1zM13 15137v-1l-1 -1v1l1 1zM26 15139v-1l-2 -1v1l2 1zM15 15138v-1v1zM17 15139v-1l-1 -1v1l1 1zM51 15081v-1h-1v1h1zM46 15085h-1v1h-1l1 1v1h-1v-2l-1 1l-1 3v-1h-1v1h-1v1h-2h-1l1 2l-4 2v-1h-1h-1l1 2h-1h-1v2l-5 4l-3 1l-1 1l1 1l-2 3l-1 -2l-1 2l-1 3l-3 4v-2l-1 1v1h-1l1 1v3h-2l-1 2v-1v1l-1 3h1l-1 2v3l1 2l2 2v1l-1 -1v2l27 1v2h-3l-2 1l-1 -1l-2 1l-1 -1h-3l1 2h-1v1l-1 -1l-3 -1h-1l1 -1v-1h-3l-3 2h-1v-1l-1 1l-3 -2l-2 -2l-1 -1l-1 -2v-1l-1 -2v-5l1 -4l1 -2l4 -6v1l1 -1l1 -1l-1 -1l9 -11l6 -3l1 -2h2v-2l3 -1l10 -7l1 -2h1l1 -2h1l2 -3h1v1l-1 2v2h-1l-1 -1v1l-1 1h-1v1h-1v1zM31 15069v-1h-1v1h1zM33 15069h-1v1l1 -1zM35 15069l-1 -1v1h1zM36 15068v-1l-1 1v1l1 -1zM37 15069v-1h-1v1h1zM39 15068v-1l-1 1v1l1 -1zM44 15067v-1l-1 1v1l1 -1zM45 15066v-1v1v1v-1zM46 15067v-1h-1v1h1zM47 15066v-1v1h-1h1zM50 15065v-1l-1 1v1l1 -1zM51 15065v-1v1l-1 1l1 -1zM54 15065l1 -1h-1v1zM55 15066v-1h-1v1h1zM52 15077v-2l2 -3v-5l-4 -1l-3 1l1 -1h-1v1l-5 2l-1 -1l-1 1v-1h-1l-1 1l-2 1l-1 -1l-1 1h-5v-2h1v-1l8 -1l15 -3h2l1 1l1 1l-1 1v1v3h1v-4l1 1l-1 5v1l-1 -1h-1v2h-1v1v1h-1v1h-1zM25 15068v-1h-1v1h1zM28 15069v-2l-1 1v1h1zM29 15068l-1 1l-3 1l-3 -2l1 -2h-2v-1h-1l-1 -1h-1l-2 -3v-1h-1v-3v-1h-1v-1v-5l1 3v-2l2 -2v3v5v2l2 3l1 1l7 3l3 1h-1v1zM19 15040l-1 1v-1v-2h2v1h-1v1zM21 15037v-1h1v-1l1 -1v1v1l-2 3v-2zM20 15038l-1 -1l2 -4l1 1v1l-1 1v1h-1v1zM24 15019v-1l-1 -1v1l1 1zM28 15019v-1h-1v1h1zM31 15025v-1h-1v1h1zM24 15032h-1l-1 1l-1 -1l1 -1h1v-1l3 -3v-2l3 -1v-2l1 -1l-2 -1h-2h-4v-2l2 -2h8l2 1v3v2l-3 6l-3 1l-1 1v-1v-1l-2 1v1l-1 1v1zM327 15263h-1l-1 -1l-1 1l-1 -1l-2 -2l1 -1l1 1h1l1 -1h1l1 2l2 1l-2 1zM334 15233h-6v-2v-2l2 -3l1 -2l2 -3h2l3 -4l2 -3l2 -1l1 -1l15 -23l2 -9l1 -4l1 -1l-1 -1l1 -1v-2l3 -2v-1l4 -2l1 1l-4 9l-3 7l-8 21l-8 10l-11 15l-1 2l-1 2z"/><path class="chunk" data-i="2" d="M272 15246h-3l-1 -1h-1v-1l-1 2h-2v-3v-2h1l2 -2l-1 -13l-1 -1l1 -1l-2 -2l-1 -8l-8 -22v-5l5 -22l3 -17h1v-1v-1v-1h1l-1 5l-1 1l1 1l-1 32l8 24l2 20v14l1 1l-1 1v1l-1 1zM264 15150v-1h-1v1h1z"/><path class="chunk" data-i="3" d="M-320 15486v-1l2 -2l2 1l-1 1h-1v1h-2zM-331 15475v-1l2 -1l6 -3l3 -1v1h1v1h-4l-4 4h-1l-1 1l-2 -1z"/><path class="chunk" data-i="4" d="M-320 15469v-1h1h2l-1 1v1h-1v-1h-1zM-335 15472v-1l2 -2l7 -4l-1 2l-5 4l-3 1zM-317 15468v-1l2 -1l5 -3l2 -1v2l-2 1l-2 2l-5 1zM-303 15464l4 -2h2v1h-1l-2 1h-3zM-335 15462v-1h1l2 -1v1v1l1 -1l-1 2l-3 -1zM-308 15462l1 -1l9 -4h2v1h1l-2 1v1l-1 -1h-1v1h-1l-1 1l-1 -1l-1 1v1h-2l-1 1l-2 -1zM-323 15456v-1h-1v1h1zM-329 15460l1 -1l-2 -1l2 -2h2l1 -2l4 1l-1 2h-2l-3 3h-2zM-321 15455v-2l2 1v-1l1 -2l2 -1l1 1l-2 1l-1 2l-3 1z"/><path class="chunk" data-i="5" d="M-313 15450v-1h3l1 1v1l-3 1v-1l1 -1h-1h-1zM-266 15420v-1l-1 1l-7 -1l-17 -4l-3 -1l-2 -2h-1l-2 -2l2 -2h2l2 1l3 1l18 3h9h5l4 -1v-1h1l1 -1l2 1l3 1l1 2l1 3l-1 2l-2 -1l-2 2h-2h-2h-2h-5l-4 -1l-1 1zM-342 15451h-1l1 -5l-1 -1h1l1 -1l1 -1v1v1l1 -1l1 1l-2 4l-2 2zM-341 15447l1 -1h-1l-1 1h1zM-341 15449v-1h-1v1h1zM-253 15371l-7 2l1 -1l4 -2v1l1 -1v-1l2 -1l3 -2v1l2 -1l1 -1l5 -2h2l-1 3l-1 1l-1 -1l-3 1h-2v1v1l-6 2zM-247 15357h-3l1 -1l2 -1l4 -1l5 -1v1l-1 1l-1 1h-1h-1l-4 1h-1zM-276 15385l-18 5v-1l-3 -1h-2l-1 -1l-1 -1v-1l-1 -4v-3h1l1 2l1 1v2v2l1 1l6 1v1l1 -1l15 -4l2 -1l1 -1l2 -2l1 1l-1 1l-1 1l-2 2l-2 1zM-282 15370l-4 1l-1 -1l1 -2v-1l2 -7h3l3 -2h2l2 1v2l-2 3l-1 1l-3 3l-2 2zM-327 15299l-1 1l-1 -1l1 -2l1 -2l1 -1v-1h1l-1 2l-1 1v2h-1v1h1zM-366 15330l-1 -1l-1 -2v-2v-2h1l2 5v1l-1 1z"/><path class="chunk" data-i="6" d="M-353 15309h-1l2 -6h2l-1 1l-2 5zM-304 15276l1 -1h-2v1h1zM-305 15278v-2l-1 1v1h1zM-319 15283v-1l-1 1h1zM-304 15280v-1h-1v1h1zM-311 15282v-2l-1 1v1h1zM-303 15281v-1h-1v1h1zM-306 15283v-1v-1l-2 2v1l2 -1zM-321 15287l1 -1h-1v1zM-315 15285v-2l-1 1v1h1zM-317 15286v-1h-1v1h1zM-308 15285v-1h-1l-1 1h2zM-320 15289l1 -1h-1v1zM-309 15288v-2h-1v2h1zM-310 15289v-1h-1v1h1zM-311 15293v-1h-1l-1 1h2zM-323 15294v-1l1 -1v-1v-1h1v-1v-1v-1v-1l1 -1v-1l1 -3l1 -1v1v-1l1 -1l2 -2l-1 -1l1 -1h1l4 -4l1 -1l2 -2h1l-1 1l-7 7l-4 6l-1 2l-1 1l2 -1l6 -5l1 -1l3 -2l2 -1l1 -1h2l2 -2l3 -1v-1h2l2 -1h2l3 -2l3 -1l2 -1h1l1 1v1v1h-1l-3 2l-1 -1v1l-2 1l-1 -1l-2 2h-1h-1l1 1h-1l-1 -1l-2 1h-1l-3 3l-1 2v2l-5 6l-1 2l-1 2l1 1v2l-1 1l1 2h-3l-3 -4l1 -4l2 -4l1 -2h-1l-1 1l-1 1l-4 3l-4 5l-3 3l1 -1zM-372 15204v-1h-1v1h1zM-371 15206v-1h-1v1h1zM-368 15211v-2h-1v1l1 1zM-369 15213v-1l-1 -1v1l1 1zM-366 15213l-1 -1h-1l1 1h1zM-370 15280l4 -2h2l3 -2l2 -1l2 -1l5 -5l2 -2l-1 -1l-1 -3l-1 -3l-1 -1l-2 -3h-1l-8 -4l-6 -2l-5 -1h-10l-5 1l-5 5l-1 2l-2 5l1 4l4 4l1 1l4 3h2l3 2l5 1l9 3zM-346 15262v-1h-1l1 1zM-360 15283v-1l-1 -1v2h1zM-358 15283h-2l2 3l-1 1v1l-2 1l-2 -1h-1l-6 -1l-7 6l-2 6l-1 2v5l-1 2v4h1v1l-1 1l-1 4v1h1v2l-1 -1v1l-1 4l-1 1h1h1l-1 3h-1l1 1h-1h1l-1 1h1v1h1l1 2l3 2h1l2 1l4 2v1l-1 1l-7 -2l-2 -1h-1l-3 -2l-2 -2v-1v-1l2 -7l3 -14l-1 -1v1l-1 5l-2 3l-1 3l-3 4l-7 14l2 17l5 2l4 1l11 -1h2v1l1 -1l1 -5l2 -2l2 -4l2 -1l2 -4l2 -5v-3l2 -4l3 -6l4 -6l2 -1l18 -11l6 -1h1l1 -2l2 1l10 -3h3h9l2 -2l1 2l10 -1l23 3l4 2l3 1l4 1l5 1l7 2l6 3l-1 1l4 3l2 1l2 1l7 -12v-5l-6 -6l-3 -2l-3 -3l-4 -6l-2 -4l-8 -16h-1l-2 -4l-3 -1l-7 -4l-3 -1h-7l-1 -1l-1 1l-2 -1l-5 1l-6 -1h-1h-3h-7v-1l-1 1v1l-1 -1h-3l-1 1l-1 -1l-1 1h-2h-2l-1 -1l-1 1h-3l-3 1l-7 1l-3 2l-1 -1l-1 1h-1l-2 2l-2 -1l-3 1v2l-8 5v2l-3 2l-4 3l-2 2v1l-1 1l-1 -1v1h-1v1h1v2h-1h-1v-1h-1v1zM-383 15327v-1l-1 1h1zM-272 15447l10 -3l10 -4l6 -2l4 -1l8 -3l9 -4l1 -3l-6 -3v-3l3 -2l5 1l2 2l1 1h2l1 -5l-6 -36l-8 -23l-1 -14l1 -4l-2 -8l-6 -9l-2 -2v-2v-2h-3l-2 -2h-2h-2h-3l-2 -2h-1l-2 -1h-3l-8 -1h-25l-2 1l-1 -2l-15 1l-7 1l-4 -1l-1 1l-5 1h-2l-2 2l-8 4l-7 6l-2 1l-4 6l-3 7l-7 17l-1 3h1l2 3v2l-3 3h-1l1 2l-1 4l-1 1l1 2l1 10l8 21v3h-2l3 3l-1 1v1l2 1l-2 1l2 1l-1 1l7 4l17 5l3 1l16 8l14 7l4 2h22zM-384 15332h-1h1zM-374 15339v-1h-1v1h1zM-359 15407v-2h-2v1l2 1zM-341 15440v-1h-1v1h1zM-350 15460v-1l-1 1h1zM-353 15468v-3l-1 2l1 1zM-352 15467v-2l-1 1l1 1zM-360 15475h1l1 -1h-1l1 -1l1 -1l1 -2l2 -4h-1v1l-3 1l-2 1h-1l-2 1v2l1 3h2zM-307 15448l1 -1h-1h-1l1 1zM-308 15448v-1h-1v1h1zM-304 15449v-1h-1v1h1zM-289 15458v-1h-1l1 1zM-288 15463l1 -1l-1 -1h-1l-1 1l1 1h1zM-291 15462l-1 -1v1h1zM-289 15463l-1 -1h-1l1 1h1zM-195 15466l2 -2l4 -5l-2 -2h-2h-2l-1 2l1 3l-1 3l1 1zM-353 15469v-1l-1 1h1zM-354 15470v-1h-1v1h1zM-355 15471l1 -1h-1v1zM-356 15474v-1v1zM-345 15483v-1h-2v1h2zM-309 15539l3 -5l4 -3l1 -2v-1l4 -2v-1l2 -2l4 -1l23 -11l3 -2l5 -9v-1l1 -2h-1l-6 3l-33 11h-4h-1l-1 -1l-2 1h-10l-8 -2l-5 -2l-2 -1l-2 -3v-4v-2l6 -7l-1 -2l-10 -4l-1 -1l-1 1l-1 -1l-2 2l-2 -1l-2 2h-1l-1 1l-1 -1l-2 1l-5 3l-1 1l5 3l-2 1v1l-1 1l-1 -1h-1l-2 -2v-1l-2 -1h-1l-2 4l2 1l-2 1l2 9l3 4l3 1l7 5l4 5l4 2l2 1l3 3l9 8l15 3h5zM-353 15483h3v-1h2v-1h-1l-1 1l-3 -1l-4 -1l-1 1l-1 2l1 1l2 -2h2v1l-3 1l2 1l2 -2zM-347 15484v-1h-1l-1 1h2zM-349 15484l-1 -1v1h1zM-350 15485v-1h-2v1h2zM-352 15486v-1h-1v1h1zM-357 15487v-1h-1v1h1zM-355 15486h1h-2h1zM-360 15491v-1h-1v1h1zM-288 15466v-1l-1 -1v2h1zM-293 15470v-1h-1v1h1zM-297 15474v-1h-1v1h1zM-325 15492v-1l-1 -1v2h1zM-304 15509v-1l-3 -1v1l3 1zM-308 15509l1 -1l-4 -1v1l3 1zM-312 15509l1 -1l-2 -1v1l1 1zM-316 15508h1l-3 -1v1h2zM-319 15508l-1 -1v-1v2h1zM-323 15507v-1l-2 -1v1l2 1zM-299 15531v-1h-1v1h1zM-258 15494l1 -1h-1l-1 1h1zM-256 15495v-1h-1v1h1zM-302 15536v-1h-1v1h1zM-306 15538v-1h-1v1h1zM-304 15538v-1l-1 1v1l1 -1zM-247 15538l2 4h16l5 -1l10 -4l2 -1l3 -3l1 -2l1 -2l2 -8l2 -23l1 -17h-1v2l-7 10h-1l-3 -1v-4l5 -7l1 -1l1 -1l1 -1l4 -6l1 -6l-2 -8l-13 6l-1 1v-1h-1v-1h1h1v-1l1 -1l3 -1h1l1 -1l5 -2v-2l-3 -5l-9 -17h-2v1l-8 7h-1l-3 2l-4 2l-4 2l-11 5l-3 1l-17 3h-6l-9 -1l-1 -1l-1 1l-1 -1l-1 1l-1 -1h-2h-1l-1 -1l-1 -1l-2 -1l-3 -1l-2 -1l-2 1h-1v1l-3 2v-1l-1 -1h2l1 -1l-1 -1h-3l1 -3h-1h-1v-1l-3 -1l-17 -8l-7 -4l-5 -3l-3 -1l-5 -2h-1l-6 -4l-2 -2h-3l-2 -2l-3 -4l-1 -1l1 -1l-2 -1l-1 -4l-5 -14l1 -24v-2h-14h-5l-5 -1l-2 -2l-2 -16l1 -6l4 -10h1l-1 -1h1l3 -7l1 -3l5 -9v-2l2 -5v-3l2 -2v-4l2 -5l1 -2l2 -4l-1 -1l-3 -2l-4 -2l-3 -2h-2l-6 -5l-1 -1l-3 -2l-4 -5l-2 -5v-4l3 -6v-2l3 -4l9 -4l3 -1l13 1l5 1l6 3l6 3l1 1l3 3v-1l-10 -28l-1 -1l1 -1l-1 -2l-2 -4l-1 -3l-1 -2l-1 -2l-2 -3v-2h3l1 2l4 7l1 2l2 3l1 4l4 9l8 21l2 6l1 -6l2 -8l11 -19l5 -32l1 -1l3 2v2l1 5l-1 7v3l-2 4v2l-4 12l-5 10l-4 5l-1 2l-2 1v1l-2 11v2l-1 1l1 1l2 -1l3 -3l1 -2h2l4 -1l3 -1h2l12 -2l14 -1h10h3h2l7 1h5h17l2 3h2l6 3l3 1l2 4h1l5 12l7 12l7 8l8 9l-1 4l-2 4h-2l1 1l-1 1l-1 2l-5 9l-1 1v1v3l1 3v5v2v3v3l-2 2v1v1l2 7l4 8l7 18l1 1v-1v-1l2 -2l1 1l4 4l3 13l-1 15l-2 8l-2 5l-2 2l-1 1v2l8 14l3 5l4 5v1h8h4v2l-1 4l-2 2l-4 5h-1l-2 2l-1 2l-4 34l1 14v3l-1 7l-1 5v2l-6 5h-1l-3 3h-3l-18 2h-4h-1l-1 -1h-7l-5 32l-1 10l1 2l18 6l1 1l2 -1v1v1h1l1 -1l2 2v1l-1 1l1 1v3l-2 3h-3l-4 -1l-1 -3l-6 -2l-12 -4l-2 -2v-2l-2 -1v-17l5 -26l1 -2v-2l-37 3v-2l-1 2v-1l-2 1l-3 13l1 1l-1 1l-1 5l9 1l4 1l1 1l-1 2h-2l1 3l-9 -2v-1l-1 1l-1 -1h-3l-1 -1h-2v-1l1 -3l1 -1l1 -1h1v-1v-1l2 -18l-5 -1h-1h-4l-1 -1l-1 1h-1h-3l-17 -2h-3l-5 -3l-10 -8l-4 -3l-9 -8l-9 -9l-3 -7l1 -14l1 -2l2 -3l3 -4l1 -1l1 -2l-4 -2h-1l-2 -4v-1l1 -3v-1l1 -1l1 -2l1 -1l5 -1l5 -4l2 -1l1 -5l3 -13h1v1v1l-1 3l-1 3v2l-1 4l-1 3v1l1 -2l1 -3l1 -4l1 -4l5 -8l1 -1l2 -2v1v1l-1 1v1l-3 3l-1 1v1l-2 3l-1 4v1v1l-1 1v2v2l-1 2v2h1l1 1l-1 2l-3 1l-3 8v1v1l1 -1h1l3 -2l2 -2v-1l2 -1l10 -7v3l-4 2l-2 2l-2 1v1l-2 1l-7 5h-1h-1v1h6l1 1v-1h1v1h1l2 -2h1l-1 2l4 1l1 1v-1h2h1v-1l2 1l1 -2l5 -2h1l3 -2h2l2 -3l4 -1l2 -1l2 -1l2 -2h4l-2 1l-26 14v1l12 5l1 1v-1h2v-1h1v-1h2l-1 -1v-1v-1l2 1v1l1 -1l8 -5l1 -3l2 -1l4 -4l2 -1l1 -3l2 1l1 -2h1l1 -1l-1 -1h-1v-1h-1l-2 -1l1 -2l5 1v-1l-6 -1l-1 -1l1 -1h2h3l4 1l1 -1l4 3v2l-5 4l-5 4l-2 2l-3 3l-5 4l-1 -1v1h-1v1l-2 3l-2 2l-1 -2v1v1l-5 4l-3 2l-4 3h-2l-1 2l-3 2l-1 1h-1v2l-1 1l1 1l9 3l11 1l6 1l3 1l1 -1l2 1l1 -1l-1 -1h-2l1 -1h3l4 2l1 -1l6 -1l2 -1v-1h-2l-1 -1h4l4 1v-1l3 -1h1v-1l4 -1l-1 -1h-2l-1 -1h5h3v-1l3 -1l1 -1h-1l-3 1l7 -3h2l-1 3l-2 3v1l-1 1v1l-1 1v1v1l-2 3h-1l-2 4h-1v1l-2 1l-2 1l-1 1l-1 1h-1l-2 1l-2 1h-1v1h-2l-4 1l-1 1h-2l-3 1l-1 1l-1 1h-1l-3 2l-1 1l-2 1l1 1l1 -1l-2 3l-2 3v1l-2 3h1h2h3l2 -1l1 -2l2 -1v2l1 2l3 -1v1l1 -2v2l1 -1v-2h4l1 1v-1l1 -2h5l3 -1h2l1 1v1l-2 2l-15 2v2h2h1l1 -1v1h3l1 -1l1 1h1l1 1l1 -1l1 1l1 -1l10 1l2 -1l1 1h1l1 -1l1 1h8l-1 -3h1l1 2v1l1 -1l-1 -2z"/></g><path class="grain" fill="#000" fill-rule="evenodd" d="M56 15239h-2v-1h2v1zM57 15238h-1v-1h1v1zM59 15237h-1v-1h1v1zM54 15236h-1v-1h1v1zM62 15235h-2v-1h2v1zM57 15234h-1v-1h1v1zM65 15233h-1v-1h1v1zM66 15232v-1l2 -1l-2 2zM70 15230l-1 -1v-1h1v2zM71 15228h-1v-1h1v1zM75 15226h-1v-1h1v1zM77 15224h-1v-1h1v1zM77 15222h-1v-1h1v1zM76 15218l-1 -1v-1h1v2zM75 15216h-1v-1h1v1zM74 15215h-1v-1h1v1zM72 15213h-2v-1h2v1zM73 15212h-1v-1h1v1zM70 15212h-1v-1h1v1zM-3 15274h-1v-1h1v1zM4 15273h-1v-1h1v1zM5 15272h-1v-1h1v1zM4 15271h-1v-1h1v1zM-2 15273l-1 -1l3 -2h1l-3 3zM5 15270h-1v-1h1v1zM2 15270h-1v-1h1v1zM8 15268h1l-1 1v-1zM8 15269v1h-2l1 -2l1 1zM3 15269h-1v-1h1v1zM10 15268h-1v-1h1v1zM7 15268l1 -1v1h-1zM4 15268h-1v-1h1v1zM12 15267h-1v-1h1v1zM6 15267h-2v-1h2v1zM11 15266h-1v-1h1v1zM7 15266h-1v-1h1v1zM14 15266h-2l2 -2h1l-1 2zM9 15265h-1v-1h1v1zM16 15264h-1l1 -1h1l-1 1zM10 15264h-1v-1h1v1zM12 15263h-1v-1h1v1zM19 15262h-1v-1h1v1zM18 15261h-1v-1h1v1zM15 15261h-1v-1h1v1zM16 15260h-1v-1h1v1zM23 15259h-1v-1h1v1zM21 15259h-1v-1h1v1zM17 15259h-1v-1h1v1zM19 15258h-1v-1h1v1zM26 15257h-1v-1h1v1zM24 15257h-1v-1h1v1zM20 15257h-1l1 -1h1l-1 1zM22 15256h-1v-1h1v1zM29 15255h-1v-1h1v1zM23 15255h-1v-1h1v1zM30 15254h-1v-1h1v1zM25 15254h-1v-1h1v1zM31 15253h-1v-1h1v1zM26 15253h-1v-1h1v1zM33 15252h-1v-1h1v1zM27 15252h-1v-1h1v1zM34 15251h-1v-1h1v1zM29 15251h-1v-1h1v1zM36 15250h-1v-1h1v1zM30 15250h-1v-1h1v1zM35 15249h-1v-1h1v1zM37 15249l-1 -1v-1l1 1v1zM33 15248h-1v-1h1v1zM41 15247h-1v-1h1v1zM36 15246h-1v-1h1v1zM45 15245h-1v-1h1v1zM38 15245h-1v-1h1v1zM47 15244h-1v-1h1v1zM40 15244h-1v-1h1v1zM48 15243h-1l1 -1h1l-1 1zM42 15243h-1v-1h1v1zM50 15242h-1v-1h1v1zM52 15241h-1v-1h1v1zM49 15239h-1v-1h1v1zM52 15237h-1v-1h1v1zM-296 15273h-1v-1h1v1zM-295 15272h-1v-1h1v1zM-310 15270h-1v-1h1v1zM-291 15267h-1v-1h1v1zM-293 15264h-1v-1h1v1zM-307 15263h-1v-1h1v1zM-308 15261h-1v-1h1v1zM-306 15261l-1 -1v-1l1 1v1zM-307 15259h-1v-1h1v1zM-305 15259l-1 -1v-1l1 1v1zM-306 15257h-1v-1h1v1zM-304 15256h-1v-1h1v1zM-305 15255h-1v-1h1v1zM-354 15273h-1l1 -1h1l-1 1zM-340 15269h-1v-1h1v1zM-338 15266h-1v-1h1v1zM-337 15265h-1v-1h1v1zM-336 15264h-1v-1h1v1zM-334 15262h-1v-1h1v1zM-365 15214h-1v-1h1v1zM70 15210h-1v-1h1v1zM64 15210h-1v-1h1v1zM59 15208h-3v-1h2v-1h1v2zM54 15207h-2v-1h2v1zM58 15206h-2v-1h2v1zM56 15158h-1l1 -1h1l-1 1zM53 15158h-1v-1h1v1zM58 15157h-1l1 -1h1l-1 1zM60 15156h-1v-1h1v1zM64 15155h-1v-1h1v1zM62 15155h-1v-1h1v1zM60 15154h-2v-1h2v1zM66 15154l-1 -1v-1h1v2zM62 15153h-1v-1h1v1zM68 15153l-1 -1v-1l1 1v1zM70 15150v1l-1 -1h1zM66 15151h-2v-1h2v1zM70 15149h4v1h-2v1l-2 -1v-1zM69 15150h-1h-1l1 -2l2 1l-1 1zM72 15148h-1v-1h1v1zM49 15205l-1 1v-1h1zM46 15206h-1v-1h1v1zM49 15204h1h1l-1 1h-1v-1zM48 15205l-1 -1h1v1zM43 15205h-1v-1h1v1zM48 15204v-1l1 1h-1zM37 15204h-1v-1h1v1zM40 15203h-1v-1h1v1zM32 15203h-1v-1h1v1zM36 15202h-2v-1h2v1zM30 15202h-1v-1h1v1zM26 15201h-2v-1h2v1zM30 15200h-1v-1h1v1zM21 15201h-1l-1 -1l1 -1h4v1l-3 1zM26 15199h-1l1 -1h1l-1 1zM20 15199h-1v-1h1v1zM18 15199h-1v-1h1v1zM22 15198h-1l1 -1h1l-1 1zM16 15198h-2v-1h2v1zM20 15197h-1v-1h1v1zM14 15197h-2v-1h2v1zM10 15197h-1v-1h1v1zM16 15196h-1v-1h1v1zM11 15196h-1v-1h1v1zM8 15195h-1v-1h1v1zM9 15194h-1v-1h1v1zM7 15194h-1v-1h1v1zM6 15193h-1v-1h1v1zM8 15192h-1v-1h1v1zM9 15191h-1v-1h1v1zM6 15190h-1v-1h1v1zM8 15190l-2 -2v-2l2 1h1v1l-1 2zM12 15186h-1v-1h1v1zM10 15188l-1 -2l1 -1l1 1v2h-1zM13 15185h-1v-1h1v1zM9 15185l-1 -1v-1l1 1v1zM13 15183h-1v-1h1v1zM11 15183h-1v-1h1v1zM16 15182h-1v-1h1v1zM14 15182h-1v-1h1v1zM15 15181h-1v-1h1v1zM12 15181h-1v-1h1v1zM16 15180h-1v-1h1v1zM19 15179h-1v-1h1v1zM17 15179h-1v-1h1v1zM15 15179h-1v-1h1v1zM20 15178h-1v-1h1v1zM16 15177h-1v-1h1v1zM18 15176h-1v-1h1v1zM24 15175h-1v-1h1v1zM22 15176l-1 -1v-1h1v2zM26 15173v1l-1 -1h1zM23 15174h-1v-1h1v1zM20 15175h-2v-1l2 -1v1v1zM26 15172h1l-1 1v-1zM22 15173h-1v-1h1v1zM29 15172h-1v-1h1v1zM31 15171h-1v-1h1v1zM30 15170h-2v-1h2v1zM32 15170l-1 -1v-1h1v2zM28 15169h-1v-1h1v1zM36 15168h-1v-1h1v1zM34 15169h-1v-1l1 -1l1 1l-1 1zM31 15168h-1v-1h1v1zM38 15167h-1l1 -1h1l-1 1zM32 15167h-1v-1h1v1zM41 15166h-1v-1h1v1zM43 15164l-1 1l-1 -1h2zM35 15165h-1v-1h1v1zM43 15163l1 1h-1v-1zM41 15164h-1l1 -1v1zM46 15163h-1v-1h1v1zM41 15163v-1l2 1h-2zM48 15162h-1v-1h1v1zM41 15162h-1v-1h1v1zM50 15161h-1v-1h1v1zM46 15161h-1v-1h1v1zM52 15160h-1v-1h1v1zM49 15160h-1v-1h1v1zM50 15159h-1v-1h1v1zM-368 15208h-1v-1h1v1zM-368 15206l-1 -1v-1h1v2zM74 15147h-2v-1h2v1zM76 15149h-2v-1l4 -3l1 1l-3 3zM75 15146h-1v-1h1v1zM76 15145h-1l1 -1h1l-1 1zM79 15143h-1v-1h1v1zM81 15142h-1v-1h1v1zM82 15141h-1v-1h1v1zM83 15140h-1v-1h1v1zM58 15139h-1v-1h1v1zM56 15139h-3l1 -1h2v1zM70 15137h-3l1 -1h2v1zM66 15137h-3l1 -1h2v1zM53 15090v-1h1v1h-1zM54 15089v-1h2v1h-2zM56 15088v-1h1v1h-1zM57 15087v-1h1v1h-1zM52 15139h-3l1 -1h2v1zM48 15139h-1v-1h1v1zM43 15139h-1v-1h1v1zM32 15139h-1v-1h1v1zM42 15138h-1v-1h1v1zM35 15137h5v1l-4 1l-2 -1h1v-1zM29 15139l-1 -1v-1l1 1v1zM27 15138h-1v-1h1v1zM14 15125v-2h1v1l-1 1zM18 15119v-1h1l-1 1zM16 15116v-1h1v1h-1zM41 15099h-1v-1h1v1zM43 15097l-1 1v-1h1zM43 15097v-1h1v1h-1zM44 15096v-1h1v1h-1zM48 15094h-1v-1h1v1zM49 15092l-1 1v-1h1zM51 15091v-1h2l-1 1h-1zM61 15083v-1h1v1h-1zM62 15082v-1h1v1h-1zM63 15080h1l-1 1v-1zM63 15074v-1h1v1h-1zM18 15062h-2l-1 -2h2l1 2zM15 15060h-3v-1h3v1zM12 15059h-1v-1h1v1zM11 15056l-1 1h-1v-2h1v1h1zM9 15055h-1v-1v-2h1v3zM8 15052h-1l1 -1v1zM7 15050l-1 -1v-1h1v2zM12 15045l2 -1v2l-2 1v-2zM15 15044h-1v-1h1v1zM9 15047v-1l3 -3v1v1l-2 2h-1zM13 15043h-1v-1h1v1zM14 15042h-1v-1h1v1zM16 15040h1v-1h2l-3 4l-1 -1l1 -2zM25 15031v1l-1 2h-1l1 -3h1zM25 15031v-1h1v1h-1zM26 15028l2 -1v1l-2 2v-2zM28 15019h-1v-1h1v1zM260 15160l-1 -1v-1h1v2zM262 15155h-1v-1h1v1zM263 15153h-1v-1h1v1zM267 15146l-1 -1v-1h1v2zM266 15144h-1v-1h1v1zM81 15572v-1h1v1h-1zM82 15571v-1h1l-1 1zM0 15577h-1v-1h1v1zM-9 15576h-1v-1h1v1zM19 15575h-1v-1h1v1zM14 15574v2h-1v-2h1zM8 15575v-1h1v1h-1zM-4 15575h-2v-1h2v1zM20 15574h-1v-1h1v1zM14 15574v-1h1v1h-1zM0 15574h-1v-1h1v1zM-2 15574h-1v-1h1v1zM-6 15574h-1v-1h1v1zM-8 15574h-1v-1h1v1zM-3 15573h-1v-1h1v1zM0 15572h-2v-1h3l-1 1zM14 15571h-1v-1h1v1zM-8 15571h-4v-1h5l-1 1zM26 15570h-1v-1h1v1zM4 15570h-4v-1h4v1zM-6 15569h-1v-1h1v1zM24 15568h-1l1 -1h1l-1 1zM22 15567v3h-1v-3h1zM-11 15568h-1v-1h1v1zM22 15566h1l-1 1v-1zM21 15567h-1v-1h1v1zM8 15567h-1v-1h1v1zM21 15566l1 -1v1h-1zM10 15566h-1v-1h1v1zM28 15565l-2 2l-1 -1l2 -2l1 1zM23 15565h-1v-1h1v1zM9 15565h-1v-1h1v1zM-6 15565l-2 1v-2h2v1zM27 15564l1 -1v1h-1zM21 15564h-1v-1h1v1zM-6 15564v-1l1 1h-1zM-10 15565l-1 -1l1 -1h2v1l-2 1zM28 15563v-1h1l-1 1zM25 15563h-1v-1h1v1zM-7 15563h-1v-1h1v1zM24 15562h-1v-1h1v1zM26 15561h-2v-1h2v1zM11 15561h-1v-1h1v1zM-4 15560h-2v-1h2v1zM-8 15559h-1v-1h1v1zM-2 15558h-1v-1h1v1zM-1 15557h-1v-1h1v1zM-3 15557h-1v-1h1v1zM-2 15555h-1v-1h1v1zM5 15550h1v1l-1 -1zM-5 15553l-1 -1v-2h1v3zM16 15543v-1l2 -1v1l-2 1zM15 15542h-1v-1h1v1zM16 15541h-1v-1h1v1zM11 15540h-1v-1h1v1zM22 15539h-1v-1h1v1zM23 15537h-1v-1h1v1zM26 15535h-1v-1h1v1zM28 15534h-1v-1h1v1zM30 15533h-1v-1h1v1zM23 15533h-1v-1h1v1zM34 15532h-1v-1h1v1zM31 15532h-1v-1h1v1zM24 15532h-1l1 -1h1l-1 1zM-12 15575h-1v-1h1v1zM-13 15573h-1v-1h1v1zM-12 15564h-1v-1h1v1zM-246 15539h-1v-1h1v1zM-245 15539v-3h1v3h-1zM53 15505h-1v-1h1v1zM55 15504h-1v-1h1v1zM56 15503l-2 -1h-1l1 -1l4 -1l-2 3zM55 15500h-1v-1h1v1zM61 15498h-1v-1h1v1zM53 15498h-1v-1h1v1zM59 15500l-1 -1l-2 -2h-3l1 -1h4l1 2v2zM56 15489h-1v-1h1v1zM54 15489h-1v-1h1v1zM58 15488h-1v-1h1v1zM55 15488h-1v-1h1v1zM59 15486h-1v-1h1v1zM57 15487h-1l-1 -1l1 -1l1 1v1zM58 15485h-1v-1h1v1zM61 15484h-1v-1h1v1zM59 15484h-1v-1h1v1zM60 15483h-1v-1h1v1zM58 15482h-1v-1h1v1zM59 15481h-1v-1h1v1zM56 15471h-1v-1h1v1zM61 15468h-1v-1h1v1zM58 15468h-2v-1h3l-1 1zM55 15468h-1v-1h1v1zM33 15531h-1v-1h1v1zM12 15531h-1v-1h1v1zM37 15530h-1v-1h1v1zM34 15530h-1v-1h1v1zM21 15530l-3 1v-1l2 -1h4v1h-3zM38 15529h-1v-1h1v1zM40 15528h-1v-1h1v1zM36 15528h-1v-1h1v1zM32 15528h-1v-1h1v1zM21 15528h-1v-1h1v1zM18 15528h-1v-1h1v1zM43 15527h-1v-1h1v1zM38 15527h-1v-1h1v1zM25 15527h-1v-1h1v1zM23 15527h-1v-1h1v1zM42 15526h-1v-1h1v1zM40 15526h-1v-1h1v1zM24 15526h-1v-1h1v1zM20 15527h-2v-1l2 -1l1 1l-1 1zM34 15527h-2v-1l2 -2h1v2l-1 1zM29 15525h-1v-1h1v1zM27 15525h-1v-1h1v1zM22 15525h-1v-1h1v1zM17 15525h-1v-1h1v1zM45 15525l-1 -1v-1l1 1v1zM34 15524h-1v-1h1v1zM18 15524h-1v-1h1v1zM42 15524h-3l1 -1l2 -1h1l-1 2zM28 15523h-1l1 -1h1l-1 1zM24 15524h-2l2 -2h1l-1 2zM26 15522h-1l1 -1h1l-1 1zM41 15521h-1v-1h1v1zM31 15521h-1v-1h1v1zM28 15521h-1v-1h1v1zM36 15520h-1v-1h1v1zM30 15520h-1v-1h1v1zM32 15519h-2v-1l2 -1l1 1l-1 1zM41 15517h-1v-1h1v1zM34 15517h-1l1 -1h1l-1 1zM39 15516h-1v-1h1v1zM36 15516h-1v-1h1v1zM38 15515h-1v-1h1v1zM42 15514h-1v-1h1v1zM39 15514h-1v-1h1v1zM46 15511h-1v-1h1v1zM47 15510h-1v-1h1v1zM48 15509h-1v-1h1v1zM50 15508h-1v-1h1v1zM51 15507h-1v-1h1v1zM34 15506h-1v-1h1v1zM42 15504h-2v-1h2v1zM45 15503h-1v-1h1v1zM51 15501h-1v-1h1v1zM39 15501h-1v-1h1v1zM35 15501h-1v-1h1v1zM41 15501l-1 -1v-1l1 1v1zM48 15499h-2v-1h2v1zM36 15499h-1v-1h1v1zM50 15498h-2v-1h3l-1 1zM46 15498h-1v-1h1v1zM44 15500h-2v-3h2v3zM45 15497h-1v-1h1v1zM38 15498h-2l2 -2h1l-1 2zM46 15496h-1v-1h1v1zM37 15496h-1v-1h1v1zM50 15495h-1v-1h1v1zM48 15496l-1 -1v-1h1v2zM42 15495h-2v-1h2v1zM39 15494h-1v-1h1v1zM43 15494l-1 -1v-1h1v2zM46 15491h-1v-1h1v1zM47 15490h-1v-1h1v1zM44 15490h-1v-1h1v1zM48 15489h-1v-1h1v1zM49 15488h-1v-1h1v1zM52 15484l-1 4h-1l-1 -2l3 -2zM48 15481h-3l1 -1h3l-1 1zM44 15480h-2v-1h2v1zM39 15481l-1 -1v-1l1 1v1zM50 15479h-3l1 -1h3l-1 1zM40 15480l-1 -2h1h1v2h-1zM56 15476h-6v-1h6v1zM48 15476h-1l1 -1h1l-1 1zM46 15477h-2v-1v-1l2 1v1zM39 15475h-1v-1h1v1zM46 15475l-1 -1l1 -1h2v1l-2 1zM43 15474h-1v-1h1v1zM39 15474l1 -1v1h-1zM51 15472h-1v-1h1v1zM45 15473h-1l-1 -1l1 -1l1 1v1zM43 15472h-1v-1h1v1zM48 15471h-2v-1h2v1zM50 15470h-2v-1h2v1zM46 15470h-1v-1h1v1zM54 15469h-4v-1h4v1zM50 15468h-1v-1h1v1zM-267 15501h1v-1h1v2l-2 -1zM-265 15500v-1h1v1h-1zM-264 15499v-1h1l-1 1zM-263 15498v-1h1v1h-1zM-300 15529v-1h1l-1 1zM-299 15527l1 1h-1v-1zM-296 15526h-1v-1h1v1zM-294 15525h-1v-1h1v1zM-293 15524h-1v-1h1v1zM-289 15520l-1 1v-1h1zM-289 15519l1 1h-1v-1zM-285 15518h-1v-1h1v1zM-284 15516v1l-1 -1h1zM-284 15516v-1h1v1h-1zM-283 15514h1l-1 1v-1zM-279 15513h-1v-1h1v1zM-278 15512h-1v-1h1v1zM-276 15511h-1v-1h1v1zM-275 15510h-1v-1h1v1zM-274 15508v1l-1 -1h1zM-274 15507l1 1h-1v-1zM-270 15506h-1v-1h1v1zM-269 15505h-1v-1h1v1zM-268 15504h-1v-1h1v1zM-301 15499v-1h1h2v1h-3zM-295 15497v-1l3 1h-3zM-290 15496h-2v-1h3l-1 1zM-285 15494l1 -1h2v1h-3zM-282 15493v-1l3 1h-3zM-274 15491v-1h4v1h-4zM-317 15487v-1h1v1h-1zM-311 15483v-1h1v1h-1zM-301 15480l-1 1v-1h1zM-308 15481h-1v-1h1v1zM-301 15480v-1h1v1h-1zM-307 15480h-1v-1h1v1zM-305 15479h-1v-1h1v1zM-331 15480v-1l3 -1l1 2h-4zM-304 15478h-1v-1h1v1zM-328 15478v-1h2v1h-2zM-301 15476h-1v-1h1v1zM-298 15473h-1v-1h1v1zM-296 15472h-1v-1h1v1zM-330 15472h-1v-1h1v1zM-295 15471h-1v-1h1v1zM-328 15471h-1v-1h1v1zM-293 15470h-1l1 -1v1zM-304 15470v-1h2v1h-2zM-327 15470h-1v-1h1v1zM-293 15469v-1h1v1h-1zM-292 15468v-1h2v1h-2zM-322 15468v-1h2v1h-2zM-325 15468h-1v-1h1v1zM-350 15490h-1v-1h1v1zM-350 15489v-1h1l-1 1zM-349 15488l1 -1h1v1h-2zM-351 15488l1 -1v1h-1zM-335 15483v-1l1 -1h1v1h-1v1h-1zM-331 15482h-1v-1h-1v-1h1h1v2zM-337 15479v-1l1 -1h2v1l-2 1h-1zM-334 15477v-1h1l-1 1zM-337 15478h-1h-1l1 -2h1v2zM-333 15476l3 -3h1v1l-3 2h-1zM-342 15471h-2v-1h2v1zM-342 15470v-1l1 1h-1zM-339 15469h-1v-1h1v1zM53 15467h-1v-1h1v1zM69 15425h-1v-1h1v1zM67 15425h-1v-1h1v1zM60 15425h-1v-1h1v1zM58 15425h-1v-1h1v1zM55 15425h-1v-1h1v1zM71 15424h-1v-1h1v1zM61 15424h-1v-1h1v1zM74 15423h-1v-1h1v1zM69 15423h-1v-1h1v1zM56 15423h-1v-1h1v1zM53 15423h-1v-1h1v1zM72 15422h-1l1 -1h1l-1 1zM76 15421h-2v-1h3l-1 1zM54 15412v-1l2 -2l3 -1v2l-3 1l-2 1zM61 15408h-1h-1l1 -2h1v2zM62 15406l-2 -2l2 -1v3zM45 15421h-1v-1h1v1zM46 15417h-2v-1h2v1zM50 15415h-2v-1h2v1zM52 15414h-2v-1h2v1zM-290 15467v-1h1l-1 1zM-320 15467v-1h1l-1 1zM-323 15467h-1v-1h1v1zM-295 15466l1 -1h2v1h-3zM-319 15466l1 -2h2l-2 2h-1zM-320 15465h-1v-1h1v1zM-326 15464v-1h2v1h-2zM-327 15463v-1h1v1h-1zM-316 15464v-2h1v-1h2v2l-3 1zM-315 15461h-1v-1h1v1zM-315 15460l1 -1v1h-1zM-314 15459v-1l1 1h-1zM-313 15459h1l2 -2h2v1l-4 3h-1v-2zM-322 15458h-1v-1h1v1zM-313 15457h-1v-1h1v1zM-314 15455v-1h1l-1 1zM-296 15415h-2v-1h2v1zM-343 15458h-1v-1h1v1zM-342 15457h-1v-1h1v1zM-340 15455h-1v-1h1v1zM-339 15454l-1 -1v-1h1v2zM-341 15453h-1v-1h1v1zM-340 15452h-1v-1h1v1zM-339 15451h-1v-1h1v1zM-347 15449h-1v-1h1v1zM-334 15448h-1v-1h1v1zM-346 15445l-3 -3h1v-2h1l1 4v1zM-337 15440h-1v-1h1v1zM-345 15437l1 1l-1 1v-2zM-345 15439v3h-1v-2v-3v1v1h1zM-343 15436l-1 -1v-1h1v2zM-346 15437v-3h1v3h-1zM-344 15434h-1v-1h1v1zM60 15403h-2v-1h2v1zM57 15402h-1v-1h1v1zM55 15402h-1v-1h1v1zM54 15401h-2v-1h2v1zM52 15402h-1v-1h1v1zM47 15401h-5v-1l2 -1v1l2 -1h1v2zM35 15400h-1v-1h1v1zM33 15400h-1v-1h1v1zM28 15399h-1v-1h1v1zM30 15398h-1v-1h1v1zM25 15398h-1v-1h1v1zM23 15396h-1v-1h1v1zM24 15392h-1v-1h1v1zM28 15387h-1v-1h1v1zM34 15384h-1v-1h1v1zM38 15378h-1v-1h1v1zM39 15377h-1v-1h1v1zM40 15376h-1l1 -1h1l-1 1zM42 15375h-1v-1h1v1zM43 15374h-1v-1h1v1zM44 15373h-1v-1h1v1zM48 15369h-1v-1h1v1zM50 15367h-1v-1h1v1zM51 15366h-1v-1h1v1zM38 15365h-2v-1h3l-1 1zM34 15365h-1l1 -1h1l-1 1zM28 15365h-1v-1h1v1zM44 15364h-2v-1h3l-1 1zM41 15364h-1v-1h1v1zM52 15365l-4 -1v-1h2l2 -1l1 2l-1 1zM20 15363h-1v-1h1v1zM15 15362h-1v-1h1v1zM11 15361h-1v-1h1v1zM7 15359l-1 -1v-1l1 1v1zM6 15357h-1v-1h1v1zM6 15355h-1v-1h1v1zM8 15351h-1v-1h1v1zM9 15349h-1v-1h1v1zM10 15348h-1v-1h1v1zM11 15347h-1v-1h1v1zM12 15345h-1v-1h1v1zM18 15340h-1v-1h1v1zM-259 15379h-1v-1h1v1zM-258 15378l-1 -1v-1h1v2zM-252 15376h-1v-1h1v1zM-260 15376h-1v-1h1v1zM-262 15375h-2v-1l2 -1l1 1l-1 1zM-252 15359h-1v-1h1v1zM30 15331h-1v-1h1v1zM28 15328h-1v-1h1v1zM29 15327h-1v-1h1v1zM31 15326h-1v-1h1v1zM38 15325h-1v-1h1v1zM32 15325h-1v-1h1v1zM33 15324h-1v-1h1v1zM40 15323h-1v-1h1v1zM41 15322h-1v-1h1v1zM35 15322h-1v-1h1v1zM44 15320h-1v-1h1v1zM38 15320h-1v-1h1v1zM39 15319h-1v-1h1v1zM43 15318h-1v-1h1v1zM40 15318l-1 -1l3 -1v1h-2v1zM36 15316h-2v-1h2v1zM33 15316h-1v-1h1v1zM45 15315h-1v-1h1v1zM16 15315h-1v-1h1v1zM44 15314h-1v-1h1v1zM29 15314h-1v-1h1v1zM26 15314h-1v-1h1v1zM22 15314h-1v-1h1v1zM17 15314h-1v-1h1v1zM41 15313h-1v-1h1v1zM13 15313h-1v-1h1v1zM10 15313h-1l1 -1h1l-1 1zM4 15313h-1v-1h1v1zM35 15312h-1v-1h1v1zM6 15312h-2v-1h2v1zM28 15311h-2v-1h2v1zM23 15311h-1v-1h1v1zM21 15311h-1v-1h1v1zM16 15311h-2v-1h2v1zM4 15311h-2v-1h2v1zM1 15311h-1v-1h1v1zM-2 15310h-1v-1h1v1zM-4 15309h-2v-1h3l-1 1zM-8 15308h-1l1 -1h1l-1 1zM-10 15307h-1v-1h1v1zM-11 15306h-1v-1h1v1zM-11 15285h-1v-1h1v1zM-11 15282h-1v-1h1v1zM-10 15281h-1v-1h1v1zM-6 15280h-1v-1h1v1zM-4 15278h-1v-1h1v1zM-6 15277h-2v-1h2v1zM0 15276h-1v-1h1v1zM-5 15276h-1v-1h1v1zM-12 15305h-1v-1h1v1zM-14 15303h-1v-1h1v1zM-15 15301h-1v-1h1v1zM-16 15297h-1v-1h1v1zM-15 15293h-1v-1h1v1zM-14 15292l-1 -1v-1h1v2zM-16 15290h-1v-1h1v1zM-13 15289h-1v-1h1v1zM-12 15287h-1v-1h1v1zM-14 15287h-1v-1h1v1zM-12 15283h-1v-1h1v1zM-235 15299h-1v-1h1v1zM-232 15298h-1l1 -1h1l-1 1zM-239 15298h-1v-1h1v1zM-238 15297h-1v-1h1v1zM-241 15297h-1v-1h1v1zM-242 15296h-1v-1h1v1zM-298 15301h-1l1 -1h1l-1 1zM-326 15303l2 -1l4 -2l-2 3l-4 1v-1zM-324 15301h-1v-1h1v1zM-320 15299l-1 -1h1v1zM-294 15298h-1v-1h1v1zM-296 15298h-1v-1h1v1zM-298 15299l-1 -1v-1l1 1v1zM-320 15298v-1h1v1h-1zM-319 15297v-1h1v1h-1zM-318 15296v-1h1v1h-1zM-317 15295v-1h1v1h-1zM-324 15295h-1v-1h1v1zM-323 15294l-1 -1v-1h1v2zM-322 15292h-1v-1h1v1zM-320 15288h-1v-1h1v1zM-319 15287h-1v-1h1v1zM-296 15285h2v1l-2 1v-2zM-306 15286h-1v-1h1v1zM-293 15285h-1v-1h1v1zM-305 15285h-1v-1h1v1zM-292 15284h-1l1 -1h1l-1 1zM-304 15284h-1v-1h1v1zM-303 15283h-1v-1h1v1zM-314 15283h-1v-1h1v1zM-302 15281h-1v-1h1v1zM-301 15280h-1v-1h1v1zM-316 15280h-1v-1h1v1zM-300 15279h-1v-1h1v1zM-299 15277h-1v-1h1v1zM-298 15276h-1v-1h1v1zM-361 15338h-1v-1h1v1zM-364 15338h-1l1 -1h1l-1 1zM-366 15337l-2 -3l2 -1l1 1v2l-1 1zM-350 15321h-1v-1h1v1zM-369 15324h-1v-2l-1 -2l1 -1l1 1v4zM-370 15319h-1v-1h1v1zM-352 15319l-1 -1v-2h1v3zM-369 15317h-1v-1h1v1zM-386 15316h-1v-1h1v1zM-369 15314l-1 -1v-1h1v2zM-364 15312h-1v-1h1v1zM-385 15311l-1 -1v-2h1v3zM-357 15307h-1v-1h1v1zM-352 15304h-1v-1h1v1zM-351 15303h-1v-1h1v1zM-383 15304l-1 -1v-1h1v2zM-365 15302h-1v-1h1v1zM-351 15301h-1v-1h1v1zM-347 15300h-1v-1h1v1zM-350 15300h-1v-1h1v1zM-366 15299h-1v-1h1v1zM-349 15297h-1v-1h1v1zM-381 15297h-1v-1h1v1zM-366 15295h-1v-1h1v1zM-364 15294h-1v-1h1v1zM-348 15293h-1v-1h1v1zM-365 15290h-1v-1h1v1zM-346 15287h-1v-1h1v1zM-364 15286h-1v-1h1v1zM-362 15285h-1v-1h1v1zM-360 15282h-1v-1h1v1zM-359 15280h-1v-1h1v1zM-358 15279l-1 -1v-1l1 1v1zM-360 15277v1l-1 -1h1zM-343 15276h-1v-1h1v1zM-1 15275h-1v-1h1v1zM-4 15275h-1v-1h1v1zM-359 15275v-1h1v1h-1zM449 15594h-1v-1h1v1zM447 15594h-1v-1h1v1zM444 15594h-1v-1h1v1zM457 15593h-1v-1h1v1zM454 15593h-2v-1h2v1zM439 15593h-1v-1h1v1zM450 15592h-2v-1h2v1zM447 15592h-1v-1h1v1zM444 15592h-1v-1h1v1zM442 15592h-2v-1h2v1zM462 15591h-1v-1h1v1zM460 15591h-1v-1h1v1zM458 15591h-3l1 -1h2v1zM437 15591h-1v-1h1v1zM460 15589h-1l1 -1h1l-1 1zM425 15587h-1v-1h1v1zM421 15586h-1v-1h1v1zM416 15585h-1v-1h1v1zM418 15586h-1v-3l1 1v2zM414 15584h-3l1 -1h2v1zM401 15581h-1v-1h1v1zM402 15580h-1v-1h1v1zM398 15581h-2v-1v-1l2 1v1zM393 15580h-1v-1h1v1zM390 15580h-1v-1h1v1zM396 15579h-2v-1h2v1zM392 15579h-1v-1h1v1zM389 15579h-1v-1h1v1zM385 15579h-1v-1h1v1zM422 15578h-1l1 -1h1l-1 1zM390 15578h-1v-1h1v1zM387 15578h-1v-1h1v1zM421 15577h-1v-1h1v1zM378 15577h-1l1 -1h1l-1 1zM422 15576h-1v-1h1v1zM424 15575h-1v-1h1v1zM420 15575h-1v-1h1v1zM418 15575h-1v-1h1v1zM416 15574h-1v-1h1v1zM422 15573h-1v-1h1v1zM414 15573h-1v-1h1v1zM418 15572h-1l1 -1h1l-1 1zM408 15572h-1v-1h1v1zM402 15572h-2v-1h2v1zM398 15572h-1v-1h1v1zM417 15571h-1v-1h1v1zM412 15572h-3v-2h1v1h2v1zM405 15572l-1 -1v-1h1v2zM400 15571h-1v-1h1v1zM394 15571h-1l1 -1h1l-1 1zM392 15571h-1v-1h1v1zM390 15571h-2v-1h2v1zM386 15571h-1l1 -1h1l-1 1zM415 15570h-1v-1h1v1zM396 15570h-1l1 -1h1l-1 1zM412 15569h-5l1 -1h4v1zM406 15569h-3l1 -1h2v1zM401 15568h-1v-1h1v1zM395 15568h-1v-1h1v1zM399 15567h-1v-1h1v1zM417 15566h-1v-1h1v1zM413 15566h-1v-1h1v1zM394 15566h-2v-1h3l-1 1zM390 15566h-1l1 -1h1l-1 1zM388 15566h-1v-1h1v1zM386 15566h-2v-1h2v1zM382 15566h-1l1 -1h1l-1 1zM373 15567l-1 -1v-1l1 1v1zM376 15565h-1l1 -1h1l-1 1zM419 15564h-1v-1h1v1zM410 15565l-1 -1l1 -1l1 1l-1 1zM402 15564h-1v-1h1v1zM374 15564h-1l1 -1h1l-1 1zM407 15563h-1v-1h1v1zM401 15563h-1v-1h1v1zM394 15562h-1v-1h1v1zM419 15561h-1v-1h1v1zM408 15560h-1l1 -1h1l-1 1zM402 15560h-1v-1h1v1zM400 15560h-1v-1h1v1zM389 15560h-1v-1h1v1zM401 15559h-1v-1h1v1zM385 15559h-1v-1h1v1zM382 15559h-1v-1h1v1zM396 15558h-1v-1h1v1zM376 15558h-1l1 -1h1l-1 1zM385 15557h-1v-1h1v1zM374 15558h-2v-2l2 2zM382 15556h-1v-1h1v1zM377 15555h-1v-1h1v1zM319 15570h-1v-1h1v1zM322 15570l-2 -2h2v2zM324 15568h-2v-1h2v1zM325 15567h-1v-1h1v1zM314 15567h-1v-1h1v1zM321 15567l-1 -1v-1l1 1v1zM318 15566h-1v-1h1v1zM367 15565h-1v-1h1v1zM364 15564h-1v-1h1v1zM372 15563h-2v-1h2v1zM362 15563h-1v-1h1v1zM363 15562h-1v-1h1v1zM359 15562h-1v-1h1v1zM370 15562h-4l2 -2v1h2v1zM360 15561h-1l1 -1h1l-1 1zM354 15561h-1v-1h1v1zM364 15560h-1v-1h1v1zM352 15560h-2v-1h2v1zM312 15559h-2v-1h2v1zM309 15559h-1v-1h1v1zM348 15558h-1v-1h1v1zM366 15558l-1 -1l6 -1l-1 1h-4v1zM354 15557h-1v-1h1v1zM350 15558l-1 -2h1h1v2h-1zM352 15556h-1v-1h1v1zM348 15556h-1l1 -1h1l-1 1zM351 15555h-1v-1h1v1zM372 15554h-1v-1h1v1zM370 15554h-3l1 -1h2v1zM350 15554h-1v-1h1v1zM347 15554h-1v-1h1v1zM366 15553h-5l1 -1h4v1zM360 15553h-1v-1h1v1zM354 15552h-5l1 -1h4v1zM366 15549h-3l1 -1h2v1zM362 15549h-1v-1h1v1zM350 15549h-1v-1h1v1zM339 15548l-1 1v-1h1zM372 15549h-4v-1l2 -1l2 1v1zM369 15547h-1v-1h1v1zM364 15547h-3l1 -1h2v1zM360 15548h-3l1 -1l2 -1v2zM354 15548h-4v-1h2l4 -1l-2 2zM342 15547h-1v-1h1v1zM367 15547h-1l-1 -1l1 -1l1 1v1zM352 15546h-5l1 -1h4v1zM341 15546h-1v-1h1v1zM365 15545h-1v-1h1v1zM367 15544h-1v-1h1v1zM362 15545l-1 -1v-1l1 1v1zM360 15545h-2l-1 -1l1 -1l2 1v1zM340 15544h-2v-1h2v1zM357 15543h-1v-1h1v1zM345 15543h-1v-1h1v1zM341 15543h-1v-1h1v1zM340 15542h-1v-1h1v1zM337 15542h-1h-1l1 -2h3l-1 1l-1 1zM306 15567h-2v-1h3l-1 1zM299 15566h-1v-1h1v1zM297 15566h-1v-1h1v1zM304 15565v1h-2h-1l2 -2l1 1zM276 15555h-1l1 -1h1l-1 1zM264 15549h-2v-1h3l-1 1zM260 15549h-1v-1h1v1zM261 15545l-1 1l-2 -1h3zM257 15545v-1h1v1h-1zM262 15526v-1h2v1h-2zM261 15525v-1h1v1h-1zM262 15524v-1h1v1h-1zM263 15523v-1h1v1h-1zM264 15522v-1h1v1h-1zM265 15519l1 1l-1 1v-2zM244 15519l2 -1v2h-2v-1zM268 15517v1l-1 -1h1zM247 15518h-1v-1h1v1zM268 15517v-1h1l-1 1zM248 15517h-1v-1h1v1zM269 15516l1 -1v1h-1zM254 15516h-1v-1h1v1zM249 15516h-1v-1h1v1zM256 15515h-1v-1h1v1zM270 15515v-2h1v1l-1 1zM257 15514h-1v-1h1v1zM271 15512h1l-1 1v-1zM251 15513h-1v-1h1v1zM261 15512h-1v-1h1v1zM264 15511h-1v-1h1v1zM252 15510v1l-1 -1h1zM266 15510h-2v-1h2v1zM268 15509h-1l1 -1h1l-1 1zM252 15510v-2h1v2h-1zM245 15506l1 -1v1h-1zM246 15505v-1h2v1h-2zM253 15462h-1v-1h1v1zM251 15462h-1v-1h1v1zM248 15462h-2v-1h2v1zM254 15461h-1v-1h1v1zM247 15457h-1v-1h1v1zM250 15456h-2v-1h2v1zM252 15455h-2v-1h3l-1 1zM266 15454h-2v-1h3l-1 1zM264 15455h-2l-1 -1l1 -1l2 1v1zM254 15454h-1l1 -1h1l-1 1zM268 15453h-1v-1h1v1zM260 15453h-3l1 -1h2v1zM252 15453h-1l1 -1h1l-1 1zM248 15453h-1v-1h1v1zM272 15453h-3l1 -1l2 -1v1v1zM264 15452h-3l1 -1h2v1zM255 15452h-1v-1h1v1zM267 15452h-1h-1l1 -2h1v2zM254 15451h-1v-1h1v1zM265 15450h-1v-1h1v1zM258 15451h-2v-1l2 -1v1v1zM255 15450h-1v-1h1v1zM251 15450h-1v-1h1v1zM268 15449h-1v-1h1v1zM262 15449h-1l1 -1h1l-1 1zM259 15449h-1v-1h1v1zM261 15448h-1v-1h1v1zM250 15448h-1v-1h1v1zM259 15447h-1v-1h1v1zM262 15446h-1v-1h1v1zM255 15446h-1v-1h1v1zM249 15446h-1v-1h1v1zM247 15446h-1v-1h1v1zM252 15445l-1 -1v-1l1 1v1zM260 15442h-1v-1h1v1zM256 15442h-1l1 -1h1l-1 1zM250 15441h-1v-1h1v1zM256 15440h-2v-1h2v1zM253 15440h-1v-1h1v1zM251 15440h-1v-1h1v1zM248 15441h-2v-1l2 -1v1v1zM249 15439h-1v-1h1v1zM272 15355v-1l2 -2l1 2h-1l-2 1zM240 15553h-4v-1v-1l2 1v-1l2 1v1zM238 15546h1l-1 1v-1zM224 15536h-4v-1h4v1zM228 15535h-3l1 -1h3l-1 1zM230 15532h-1v-1h1v1zM228 15532h-1v-1h1v1zM240 15531h-1v-1h1v1zM234 15531h-3l1 -1h3l-1 1zM241 15530h-1v-1h1v1zM237 15530h-1v-1h1v1zM240 15529h-3l1 -1h2v1zM200 15521h-1l1 -1h1l-1 1zM198 15519h-2v-1h2v1zM183 15519h-1v-1h1v1zM213 15517h-1v-1h1v1zM210 15517h-1v-1h1v1zM211 15516h-1v-1h1v1zM214 15515h-1v-1h1v1zM199 15515h-1v-1h1v1zM227 15514v-1h1v1h-1zM220 15514h-1v-1h1v1zM233 15512h1v1l-1 -1zM228 15513v-1h1v1h-1zM234 15512v-1h2v1h-2zM229 15512v-1h1v1h-1zM236 15511v-1l2 1h-2zM239 15510h-1v-1h1v1zM213 15510l1 -1v1h-1zM241 15509h-1v-1h1v1zM243 15508h-1l1 -1v1zM232 15508v-1h1v1h-1zM224 15508v-1h2v1h-2zM206 15508v-1h1v1h-1zM245 15507h-2v-1h1h1v1zM220 15507h-1v-1h1v1zM216 15507v-1h1l-1 1zM212 15507v-1h1l-1 1zM207 15506h1l-1 1v-1zM221 15506h-1v-1h1v1zM217 15506v-1h1v1h-1zM213 15506v-1h1v1h-1zM211 15506l1 -1v1h-1zM206 15506v-1l1 1h-1zM212 15505v-1h1v1h-1zM209 15505h-1v-1h1v1zM235 15504v-1h1v1h-1zM213 15504l1 -1v1h-1zM203 15504h-1v-1h1v1zM234 15503v-1h1v1h-1zM231 15503v-1h1v1h-1zM228 15503v-1h1v1h-1zM214 15503v-1h1l-1 1zM210 15504h-1l1 -2h2l-2 2zM215 15502v-1h1v1h-1zM213 15502h-1v-1h1v1zM215 15501h-1v-1h1v1zM208 15502h-1v-2h1l1 2h-1zM213 15500h-1v-1h1v1zM211 15499l-1 1v-1h1zM209 15500h-1v-1h1v1zM211 15498h1l-1 1v-1zM207 15499h-1v-1h1v1zM235 15498l1 -1v1h-1zM210 15499h-1v-2l2 1h-1v1zM215 15496h-1v-1h1v1zM216 15495h-1v-1h1v1zM212 15497l-1 -1l1 -2h1v2l-1 1zM214 15494h-1v-1h1v1zM210 15496l-1 -1l1 -2l1 1l-1 2zM208 15494h-2v-1h2v1zM218 15492v2h-2l1 -2h1zM212 15493h-1v-1h1v1zM218 15492v-1h1v1h-1zM213 15492h-1v-1h1v1zM217 15492h-1l-2 1v-1l3 -3v3zM215 15490h-1v-1h1v1zM217 15489v-1h1v1h-1zM218 15488v-1h1v1h-1zM221 15482l1 -1v1h-1zM224 15481l-1 -1v-1l1 1v1zM226 15479h-2v-1h2v1zM227 15478h-1v-1h1v1zM229 15476h-1v-1h1v1zM231 15474h-1v-1h1v1zM218 15473l1 1h-1v-1zM232 15473h-1v-1h1v1zM221 15471h-1v-1h1v1zM239 15467h-1v-1h1v1zM239 15465h-1v-1h1v1zM243 15457l-1 1v-1h1zM243 15456h1h1l-1 1h-1v-1zM242 15457h-2v-1h2v1zM242 15456v-1l1 1h-1zM234 15456h-1v-1h1v1zM235 15454h-1v-1h1v1zM237 15451h-1v-1h1v1zM273 15310l-1 1v-1h1zM271 15311h-1v-1h1v1zM293 15310h-1v-1h1v1zM273 15309l1 1h-1v-1zM272 15310h-1v-1h1v1zM268 15310h-1v-1h1v1zM272 15309v-1h1v1h-1z"/></svg>