<svg xmlns="http://www.w3.org/2000/svg" viewBox="-54 22707 712 542"><g class="s" data-r fill="#000" fill-rule="evenodd"><path class="chunk" data-i="0" d="M103 23157l-1 1l-4 -1h-1l1 -1h2l2 -2l2 1l-1 1h-1v1h1zM107 23155v-1h-1v1h1zM103 23156h1v-1l4 -3h1v1l-1 1h1l-1 2l-5 1v-1zM109 23152v-1h1l2 -1l-1 3v-1h-1h-1zM117 23150l-3 2l-1 -2h1h1l-1 -2h3v2zM124 23144v2l-2 1h-2l-1 1h1v1h-2v-3l2 -1v1h2l1 -3v1h1zM134 23134v-1h-1v1h1zM136 23137v-1h-1v1h1zM134 23139v-1h-1v1h1zM134 23141l2 -1h1l-1 -2l-2 2v1zM133 23141v-1h-1v1h1zM142 23144v-2h1l-1 -1h-2l-2 -1l-1 2l1 1l2 -1l2 2zM177 23141v1l2 2l-1 10l-2 2v1l-2 -1v1l-2 -1v1h-2v-2l-2 -2v-2h-8v1l-2 -2l1 -2h-1l-12 -1l-5 -1h-4l-5 -2v-2l-2 -1l-2 -1v-2h-2v1l-1 -1v-2l1 1l1 -1l-1 -3l2 -1l2 -1v1h4v1l2 -1v2h-1l2 2v2l1 1l4 -1l-1 2h1l2 -1l1 1h-1v1h6v-1l2 1l2 1l2 -2h6v1l2 -1l5 1l5 -1v1h3zM158 23142v-1h-1v1h1zM160 23142v-1h-1v1h1zM148 23145l1 -1v-2h-3v1l-2 -1h-1l1 2l4 1zM154 23145v-1h14v-2l-2 1h-2v-1l-2 1l-9 1l1 1zM174 23144l1 -1h-1l-4 -1h-1l1 2h4zM138 23144v-1h-2v1h2zM152 23145v-1l-1 -1v1l1 1zM140 23145l1 -1h-1l-1 1h1zM176 23148h1l-1 -4h-1v2l1 2zM146 23146l1 -1h-3l-1 1h3zM150 23147l1 -1h-1l-1 1h1zM158 23147l1 -1h-5l-1 1h5zM166 23147v-1h-6v1h6zM174 23147v-1h-1v1h1zM162 23150v-2h-1v1l1 1zM166 23149l1 -1h-3v1h2zM176 23153l1 -1l-1 -4h-1v4l1 1zM160 23150v-1h-1v1h1zM164 23150v-1h-1v1h1zM168 23150v-1h-1v1h1zM173 23154v-4h-1v4h1zM175 23154v-1h-1v1h1zM176 23155v-1h-1v1h1z"/><path class="chunk" data-i="5" d="M264 22939v1l-3 -1h1v-1h1l1 1zM354 22825l-5 -1l-9 -2l-2 1v-1l2 -2v1h3l15 -1l6 -1l1 1v3l-9 1l-2 1zM349 22822v-1h-1v1h1zM344 22789l-2 -3l-1 -2h1v1l2 -1l1 2v2l-1 1zM344 22734v-1h-1v1h1zM345 22736v-2h-1l-1 2h1h1zM342 22737l1 -1h-1l-1 1h1zM338 22740l2 -1v-1v-1l-2 1l-2 2h2zM310 22784l1 -3l3 -7l12 -24h2l1 -2l1 -2l4 -4l2 -2h-2l-7 4l-1 2l-5 10l-4 4l-1 6l-2 2l-1 2l-3 10l-1 4h1zM377 22842l15 -3v-2l2 -1l7 -4l1 -5l3 -8v-2l1 -3l1 -2h-1l1 -5l1 -5l1 -2h-1l-1 -18l-2 -2l1 -2h-1v-2l-1 -2h1l-1 -2l-2 -4l-1 -4l-3 -2v-3h-2l-2 -3v-1l-2 1l-4 -4v-2l-2 -1v1h-1v-2h-3l-2 -2h-1l-2 -2h-1l-2 -1v1l-2 -1l-11 -2l-3 -1h-2l-2 1l-6 2l-2 1l-4 2l-11 9l-3 7l-1 2l-3 2v2l-2 2l-1 6l-3 2l-4 13l-1 5l1 2h-1l2 16l1 3v2l1 4h2v1l5 5l10 6l2 1l2 2l20 4l4 1v1l2 -1v1l13 -2zM305 22799v-1h-1v1h1zM304 22803v-1l-1 -1v1l1 1zM300 22816l1 -3l1 -5l1 -4h-1l-1 3l-1 5l-1 4h1zM299 22818v-2h-1v1l1 1zM298 22821v-1l-1 -1v1l1 1zM297 22824v-2h-1v1l1 1zM296 22826v-1h-1v1h1zM309 22786v-2h-1v1l1 1zM414 22825v-1h-1v1h1zM441 22842l5 -3l1 -1l-1 -4h-2l-2 2h-2l-2 -2v-1l5 -7l3 -2h1v-2h2v-2h1v-1h-2l-4 3l-2 1l-2 -3l1 -3l1 -4l1 -3l1 -6l-2 2v2l-2 2l-2 7l-7 23h-1h-1l1 2h2v-2l2 1h2v1l2 -1l3 1zM449 22814v-1h-1v1h1zM374 22919l2 -3l16 -11l2 -1l3 -4l-1 -4h-4l-2 1l-4 4h-2l-1 -1l5 -6h2l2 -1l4 -1v-2l-1 -2h-1l-2 -2v-3h2v-4h-2l-2 -1v-2l-1 -11v-1l-3 -3l-2 -1l-2 -1v1h-2l-3 -2h-1l-4 -4v-1l-2 1h-2v-1l-2 1l-14 -3v-1l-2 1v-1l-12 -4l-8 -4h-3l-7 5l-3 1l-1 1l-4 3l-2 4l-2 3l2 4v2l1 1l5 5l8 1l6 -12l1 -2l7 -7l1 1v2l-3 4v1l-8 12v1l-1 2l3 2l3 2v2l-1 1l-8 -2l-1 1l-1 3l-4 8v2h4v1l2 -1h2l14 1h2l2 2h2l1 2l-1 1h-2l-6 -3h-2v1l-2 -1v1h-19v3l3 1l6 3l10 4l37 10l3 1zM336 22857v-1h-1v1h1zM413 22837v-1l2 -2l-1 -2v-2l-1 -1v1l-1 2v2l-1 3h2zM411 22838v-1h-1v1h1zM412 22839v-1h-1v1h1zM405 22857v-1l-1 -6l-2 -3h-2v-1l-2 1l-1 1h-2l-3 1l-4 1l-1 1l11 1l4 1l2 1v2l1 1zM404 22859v-1h-1v1h1zM401 22861v-1l-1 -1v1l1 1zM403 22860v-1h-1v1h1zM310 22898h1l-1 -2h-2l-1 1h1l2 1zM308 22927l8 -3h5l37 -1l1 -1h-1h-2l-3 -2h-3l-2 -2h-2l-13 -4l-18 -8h-1l-2 -1v1v1l-4 8l-4 8v1l-1 2h1l4 1zM273 22950v-1h-1v1h1zM339 22896v-1h-1v1h1zM342 22897v-1h-1v1h1zM345 22898v-1h-1v1h1zM406 22893v-1h-1v1h1zM384 22921l16 -1v-2l1 -2h-1l-1 -6l-1 -1l-2 2l-2 1l-8 5l-4 3v1h2zM272 22956v1l-4 -1l-2 -2l1 -2l2 -4l13 -13l4 -2l8 -3l3 -1l1 -4l2 -5l1 -2l1 -2l2 -2v-2l2 -2l1 -4l1 -2h-2l-5 -2l-11 -6l-3 -2h-1l-2 1v-1h-2l-1 -2l1 -4l2 -1l2 1v-1l2 1l6 1l2 2h2l2 2h13l1 -3l2 -2v-2l2 -2l1 -4l2 -2l-1 -1l-4 -1l-2 -2l-4 -1l-4 -6v-2l-2 -4v-5l2 -2v-2l6 -6l5 -2l1 -1l6 -5v-1h-2v-2h-2l-5 -5l-3 -6l-2 -6l-1 -5h-2l-1 4l-4 12l-2 4l-2 8l-2 4v2l-2 4l-1 3v2l-2 2l-1 4l-2 1h-2v1l-4 -4h1l1 -6l2 -13l9 -32l17 -48v-3l2 -2v-1h2l2 -3l1 -2l3 -5l1 -1l3 -4h2l5 -4h1l2 -2l4 -1l4 -1l4 -1h14l26 5l4 1l2 1l4 2l2 1l1 1v2l5 2l5 6l1 3l1 5h2l1 2l4 9v2v15l2 18l1 31l-1 3l-4 5h-6l-1 -1v-2l-1 -4l-2 1h-1v1l-1 2h-2l5 6l1 6h1l-1 2l2 1l8 -9l1 -4l3 -2v-2l8 -17l1 -3h1l-1 -2h1l2 -9l2 -7l4 -4l4 1h2l2 6l-1 8l4 1v2v6v2l-3 3h-2l-1 1l4 4l1 6l-2 2v2l-6 4h-2h-4l-3 1v2l-15 12v3l-2 2v2l-2 1l-2 1l-4 4l-2 1l-2 1l1 2l-3 3h-1v2l1 5h2l9 -6h1l4 -3h2l3 3l-1 2l-17 18l1 4l2 8v7l-1 4l-1 4h-2l-4 1v1h2l3 1l8 2l5 1l2 -1v2h1v-2h1h1l-1 2h2v-1l4 4h6l3 3l-1 6l-2 2l-6 1l-4 5v1l-4 5v2l-2 1h-1h-3h-2l-2 -3v-2h1l-1 -2l1 -3l3 -6v-1l1 -2l-1 -1h-3l-8 -3l-11 -4l-4 -1l-9 -3l-3 -1l-2 -2l-6 -1l-2 2l-10 6l-8 6l-12 8l-2 3l-3 1l-3 1l-3 3l-3 1l-2 3l-2 2h-1h-7h-2l-2 3h-4l-1 -1v-2l-3 -7l-1 -5l3 -2l8 1l2 3h2l4 1v-1l2 -3l5 -3h1l2 -2h2l4 -3l14 -9l4 -2l2 -2l2 -2h-20v-1l-2 1l-14 1l-24 3l-4 2l-6 2l-4 4l-2 2l-8 7l-1 1h1l-1 2l1 1h-2v1h2zM101 22941v-1l-1 -1v1l1 1zM105 22940v-1h-1v1h1zM103 22941v-1h-1v1h1zM115 22941v-1h-1v1h1zM98 22944l1 -2h-1l-1 1l1 1zM97 22945v-1h-1v1h1zM180 22939v-1h-1v1h1zM129 22941v-1l-1 -1l-1 1l1 1h1zM132 22940v-1h-1v1h1zM150 22940v-1h-16l-1 1h17zM156 22940v-1h-2v1h2zM158 22940l1 -1h-1l-1 1h1zM162 22940v-1h-1v1h1zM164 22940l1 -1h-1l-1 1h1zM171 22940v-1h-1v1h1zM176 22940v-1h-1v1h1zM118 22941l1 -1h-1l-1 1h1zM122 22941v-1h-2v1h2zM126 22941v-1h-1v1h1zM196 22937v-1h-8v1h8zM198 22937l1 -1h-1l-1 1h1zM202 22937v-1h-1v1h1zM205 22937v-1h-1v1h1zM184 22938v-1h-2v1h2zM190 22940v-2h-2l2 2zM194 22940l1 -1h-1l-2 -1l-1 2h1h2zM198 22940v-2l-2 2h2zM200 22939v-1h-1v1h1zM211 22939v-1h-1v1h1zM213 22939v-1h-1v1h1zM182 22940v-1h-1v1h1zM201 22940v-1h-1v1h1zM205 22940v-1h-1v1h1zM181 22942v-2h-1v1l1 1zM261 22939h-2l-1 -1v1l-8 -1v-1l-2 1v-1h-3v1v1l-1 -1v-1l-21 1l-3 1v-1h-1v1h-2l-3 -1v2h-1l-1 1l-2 -2h-4v2h-18l-2 -2l-2 1h-1l1 1h1l-1 1l-6 1l-2 -2v1l-2 -1v1h-8v-1l-2 1l-2 -1v1h-2v-1l-2 1l-2 -1v1h-4l-2 -1v1l-2 -1v1l-2 -1v1h-2l-2 -1v1h-16l-2 1v-1h-2v1l-2 -1h-7l-1 -1v1h-2v1l-2 -1h-1h-3v-1l-1 1h-1v1l-2 -1v2h-2v2h-2v1l-3 -3h1h1v-2h-1l1 -2v-1h1l2 -2l2 1l2 -1v1h4l2 1v-1v-1l1 1v1h2v-1l1 -1v1h2v1l2 -1h1h4h3v1l2 -1h3l1 1v-1h2l2 -1v1l2 -1h2v1l2 -1h1l3 1l2 -1v1l2 -1l2 1l2 -1v1l2 -1l8 1l2 -1v1h2v-1l2 1h4l2 -1v1l2 -1v1l2 -1l9 -1l53 -2v1l2 -1h2l2 1v-1l2 1h2l2 1v-1l2 2l2 -1h2l3 2v1z"/></g><g class="f live" data-r data-f="0" fill="var(--live,#000)" fill-rule="evenodd"><path class="chunk" data-i="0" d="M14 23046v-1h2v1h1v-3l5 -2l2 -2v1l1 2l-3 2v-1l-1 1l-1 2l-4 2l-2 1v-1v-1l1 -1h-1zM34 23036v1l-5 2l-3 1l-1 -2h1l2 -1l2 -1v1l3 -2v1h1zM34 23035l2 -2l2 1v1h1l-1 1h-1h-3v-1z"/><path class="chunk" data-i="1" d="M53 23031h-1l-2 -1v-1h8v1l-5 1zM43 23033v-1h-1v1h1zM42 23035h-3v-1h-1v-2l-2 -2l1 -4l1 -1l1 1l-2 2l1 1l6 1l-1 2h1h1l3 1v-1v-1l1 1v1l5 -1h2h2h2v-2l-2 -2l7 -1l9 -2l4 -1v1l2 -2h10l2 -1v1h2l4 5v2h-1v-2h-1h-1l1 2h-1v2h1v-1l1 1v1h-7v1l-2 -1v1l-10 -1l-2 -1v2h1l-1 1l-2 1h-1l1 -2v-1l-2 1v-1l-16 2l-2 1v-1l-2 1l-9 -1l-1 -1v1zM49 23035v-1h-1v1h1zM88 23026h2v-1h-2l-2 1v-1h-4v1l2 1l4 -1zM92 23026l1 -1h-1l-1 1h1zM78 23028l2 -1h2v-1l-10 1v1h4l2 -1v1zM94 23028h1l-1 -2h-1v2h1zM70 23032l-1 -2l2 -2h-1l-3 1h-1l-1 1l3 2h2zM92 23029v-1h-2v1h2zM62 23032l2 -2v-1h-3v3h1zM82 23030v-1h-2v1h2zM93 23030v-1h-1v1h1zM65 23031v-1h-1v1h1zM77 23031v-1h-1v1h1zM94 23031v-1h-1v1h1zM72 23032v-1h-1v1h1zM57 23033v-1h-1v1h1zM66 23033l1 -1h-3l-1 1h3zM75 23033v-1h-1v1h1zM88 23033v-1h-1v1h1zM56 23034v-1h-1v1h1zM60 23034v-1h-2l-1 1h3zM62 23034v-1h-1v1h1zM53 23035v-1h-1v1h1zM426 23223h-2v-1l-1 -2h1v-2h1l1 3v2zM430 23222l-2 -2v1h-2v-1l2 -2v-1l1 1l1 4zM564 23199l-4 -1l-1 -2v-1l-5 1l-2 1v-1l-2 1l-16 2l-2 -1v1l-2 -1l-4 -1l-4 -1l-4 -4l-1 -3l-1 -5h-1l1 -1h1v-1l1 -2h-1v-2v-5l3 1h2l2 -2l1 4h1l-1 2v2h1l-1 2v1h1l1 1h-1l4 4l2 -2v2h2v-1l2 1l16 -2v-1l2 1v-1l4 -1l7 -2h3h2l3 4l-1 2h1l-4 7h-1l-2 1v2l-2 1zM520 23175v-1h-1v1h1zM524 23175v-1h-1v1h1zM523 23176v-1h-1v1h1zM520 23177v-1h-1v1h1zM521 23180v-2l-1 -1v3h1zM544 23190h7l5 -2h2l1 -2h-1h-1l-5 2h-6l-2 1v-1l-2 1l-9 1l-3 -1v1l-2 -1l-3 -3l-1 -9h-2v3l1 2h-1l1 2v2l5 5l16 -1zM519 23179v-1h-1v1h1zM520 23181v-1h-1v1h1zM521 23183v-1l-1 -1v1l1 1zM518 23184v-1h-1v1h1zM521 23186v-2h-1v1l1 1zM518 23188v-2h1l-1 -1h-1v3h1zM520 23187v-1h-1v1h1zM522 23190h1l-1 -4h-1v2l1 2zM524 23191v-1h-1v1h1zM558 23191v-1h-2l-1 1h3zM529 23194v-2h-3v-1l-1 1v1l4 1zM542 23194l10 -2v-1l-18 2l-1 1h9zM554 23192v-1h-1v1h1zM522 23194v-1h-1v1h1zM531 23194v-1h-1v1h1zM526 23195v-1h-1v1h1zM525 23196v-1h-1v1h1zM565 23195v-1h-1v1h1zM467 23208h-1v2h-1v-2h-1h-1l1 -1l2 -1l2 1l-1 1zM473 23208h-2v-2h-1v-1l3 -1h2l2 -1v1l-3 3l-1 1zM482 23203v1h-2l-1 -2h1h1l1 1zM494 23197v1l-4 1l-2 2h-2v-1l2 -2v-1h2v1h1v-2l1 -1h2v1h-1l1 1z"/><path class="chunk" data-i="2" d="M501 23191l1 1l-2 2l-1 -1h1v-1h1v-1zM494 23195v-1h2v-1l2 1h1l-1 1l-3 1l-1 -1zM281 23167h-3v-1h1v-2h3l-1 2v1zM294 23163v1h-4l-3 1l-5 1l1 -2v-1l4 -1h5v1h2zM286 23165v-1h-1v1h1zM292 23162v-1h2v-1h1v2h1h1l-1 1h-2v-1h-2zM301 23159v-1h2l4 -1v2l-5 1v-1h-1zM612 23091h-3v-2l-2 1h-1h-1l1 -2h4l2 -1v1h2v-1l2 1l4 -1v1l-2 1l-2 1v-1h-4v1h1l-1 1zM611 23090v-1h-1v1h1zM597 23088v-1l1 -1v-1l2 2h2v-1h1v2l1 2l-7 -1l1 -1h-1zM602 23089v-1h-2v1h2zM612 23085h-7l1 -1h7l-1 1z"/><path class="chunk" data-i="3" d="M528 23096l-1 -2l-1 -2l2 -2h2l1 2h-1l-1 4h-1zM529 23092v-1h-1v1h1zM368 23134l-2 -1v1h-3v-2l1 -1h2v1h1v-2h1v4zM440 23140l-4 -4h-2l-2 1v-1l-4 -1l-2 -2l-29 -1h-2l-1 1l-2 -1v1l-2 -1h-3l-5 -2l-2 -2h-2l-2 1l-2 2l-2 -1l-2 1l-2 -1v-1h3v-2h3v-1l2 1l1 -1l-1 -2h-2l-6 4h-2l2 -2h1l4 -2l2 -1v-3h-1l-2 2v-2l2 -1h2l2 -3l2 1h2l4 4l6 1l16 1v1l2 -1h2l2 1v-1h4l2 1v-1l7 1h3l3 2h1l2 -1v1h4l3 2l1 2v2v3v3h-2v-1l-1 1l-1 2zM382 23120v-2h-2l2 2zM383 23122v-2h-1v1l1 1zM414 23127v-2l-19 -1l-9 -1v-1l-2 2l4 1l2 1v-1l12 2v-1l2 1v-1h2l2 1v-1h2l4 1zM381 23124v-1h-1v1h1zM384 23126v-1h-1v1h1zM416 23127v-1l-1 -1v1l1 1zM420 23127v-1v-1h-2v1l2 1zM422 23127v-1l-1 -1v1l1 1zM386 23127l1 -1h-1l-1 1h1zM418 23127v-1h-1v1h1zM429 23128v-2h-1v1l1 1zM392 23128v-1h-4v1h4zM410 23129v-1l-1 -1v1l1 1zM417 23128v-1h-1v1h1zM421 23128v-1h-1v1h1zM426 23128l1 -1h-3l-1 1h3zM398 23129l1 -1h-3l-1 1h3zM401 23129v-1h-1v1h1zM404 23129l1 -1h-1l-1 1h1zM408 23129v-1h-2v1h2zM414 23129l1 -1h-3l-1 1h3zM428 23129v-1h-1v1h1zM391 23130v-1h-1v1h1zM431 23130v-1h-1v1h1zM402 23131v-1h-1v1h1zM405 23131v-1h-1v1h1zM410 23131v-1h-2v1h2zM416 23131l1 -1h-1l-1 1h1zM427 23131v-1h-1v1h1zM432 23131v-1h-1v1h1zM429 23132v-1h-1v1h1zM439 23131v-1h-1v1h1zM440 23133v-1h-1v1h1zM441 23135v-1l-1 -1v1l1 1zM441 23137v-1h-1v1h1zM628 23091h-1v1l-1 2h-1v-2h1v-1h-2l-1 -1v-2h-1h-1l1 -2h4l-1 -2v-1h2h3h2l1 3l1 2l-1 2h-2v-5l-1 1v4l-2 1zM628 23086v-1h2v-1l-3 1l1 1zM627 23090v-1h-1v1h1zM633 23087v-1h-1v1h1zM592 23084h-2v-1l1 -1h3v1h-2v1zM580 23075v-1h-1v1h1zM582 23075v-1h-1v1h1zM577 23076v-1h-1v1h1zM583 23076v-1h-1v1h1zM578 23080v-1h-1v1h1zM581 23083v-1h-1v1h1zM559 23093v-1h-1v1h1zM579 23084v-1h-1v1h1zM591 23087v-1h-1v1h1zM597 23089l-1 1h-2l-3 -2h-4v-2h-1l-4 -3v1v1h-2l-2 1v-2l-2 1l-9 5l-9 4l-2 2l-4 1v-1l2 -1h2l1 -1v-3h1l2 -1v1l1 -1v-1l1 1v1l1 -1l3 -3h2l2 -2l4 -2l2 -3v-2h-1v2h-4l1 -1h2l1 -3l-1 -2h2l3 -2h2l1 1l2 1v2h2v2h-1l1 1l-1 1l3 3l1 -1l-1 -2h2l1 2h-1v1l-1 3h1v-1h2v1l4 1v1h1v1zM565 23090v-1h-1v1h1zM516 23028l-13 -1v-2h-2v-2l2 1h2v2h1v-1l2 1l9 1l-1 1zM500 23023v1v1l-3 -3h1h1l1 1zM439 23046h-1v3h-3v-3l3 -2l2 1l-1 1z"/><path class="chunk" data-i="4" d="M292 23038l-2 -2l2 -2h2l1 2h-1h-1v2h-1zM281 23035v-1h1l2 -1l2 3v1l-2 -2l-2 1v-1h-1zM294 23028h-12v-1h13l-1 1zM542 23018h-2l2 -2h2v-1l1 1v1l-3 1zM594 23035l-2 -1v-2v-1l-1 1l-1 1v-1h-2v-2h-25l-7 -1l-4 -3h-1v-2l-1 -2l-2 1v-1v-1h2v-1h-1v-2h-1v1l-1 -1l2 -4h-1v1l-1 -1l3 -5h2l2 -2l4 1l3 2v4h1l-1 2v1h1l1 1h-1v2h4v1l2 -1l2 1l2 -1v1l2 -1h4v1l2 -1h6l2 -1v1l8 1l4 3v6l-2 2l-2 2h-2v1zM557 23013v-1h-1v1h1zM555 23016v-1h-1v1h1zM558 23018v-1h-1v1h1zM594 23025l1 -1l-1 -1h-1l-3 -1l-4 -1v1l-2 -1v1h-14v1l-2 -1l-8 -1l-4 -3v2l2 2l6 1l20 1h2l2 -1v1l2 -1l1 1l3 1zM561 23019v-1h-1v1h1zM555 23020v-1h-1v1h1zM556 23023v-1l-1 -1v1l1 1zM558 23024v-1h-2v1h2zM560 23025l1 -1h-1l-1 1h1zM566 23026v-1h-4v1h4zM596 23032l1 -2l1 -6h-3v2l2 2l-1 1l-2 -1v2l2 2zM575 23027v-1l-1 -1v1l1 1zM580 23028l1 -1h-1l-1 -1h5l1 -1h-7l-1 1h1v2h2zM590 23027v-2h-2l-1 1l1 1h2zM570 23027l1 -1h-1l-1 1h1zM573 23027v-1h-1v1h1zM586 23027v-1h-1v1h1zM565 23028v-1h-1v1h1zM574 23028v-1h-1v1h1zM577 23028v-1h-1v1h1zM594 23033l1 -1l-1 -1l-1 1v1h1zM496 23018v-1h-1v1h1zM491 23021v-1h-1v1h1zM486 23024v-1h-1v1h1zM482 23026v-1h-1v1h1zM481 23027v-1h-1v1h1zM479 23028v-1h-1v1h1zM476 23028l2 -2h1l6 -4h2v-2l3 -1l3 -3v-2h1l2 2l1 2l1 2l-2 1h-1v-1l-1 -1v1l-3 2l-7 4l-4 2l-2 1v-1h-2zM520 22934v-1h-1v1h1zM519 22935v-1h-1v1h1zM557 22935v-1h-1v1h1zM560 22935l1 -1h-1l-1 1h1zM563 22935v-1h-1v1h1zM540 22936l1 -1h-3v1h2zM544 22936v-1h-1v1h1zM550 22936l1 -1h-5v1h4zM554 22936v-1h-1v1h1zM559 22936v-1h-1v1h1zM611 22933v-1h-1v1h1zM606 22934v-1h-1v1h1zM569 22935v-1h-1v1h1zM605 22935v-1h-1v1h1zM610 22935l1 -1h-1l-1 1h1zM616 22935v-1h-1v1h1zM578 22936l1 -1h-7v1h6zM592 22936v-1h-1v1h1zM621 22941h-1v1h-1l1 -4l-2 1v-1h-4v1l-2 -1h-2v1l-2 -1v1h-10l-2 -1v1l-2 -1h-2v1l-2 -1v1l-2 -1l-2 1v-1l-2 1h-4l-2 -1v1l-2 -1h-2v1l-2 -1h-2v-1l-2 1l-6 -1v1l-2 -1h-4l-2 1v-1h-2l-2 1v-1h-2h-10v1l-2 -1v1l-2 -1v1h-11l1 -1h7l-1 -1h-17l1 1h2v1h-10l1 -3v2h5v-1h-4v-1h2v-1l2 1l6 -1v-1h-5l1 -1h7v2h1l2 1v-1h2v1l1 -1h3l2 1v-1h4l1 -2v2h3v-1l10 -1l6 1v-1v-1l1 1v1l1 -1v-1l2 2l12 -1l4 1l2 1v-1h3l1 1v-1l2 1h2v-1l2 1v-2l2 2l2 -1v1h1v-3h1l1 1h-1v2l2 -1h1l1 1v-1h2v-1l2 1l4 -1v1l2 -1l2 -1l2 1h2v-1l2 1v-1l2 1v-1l2 1l2 1v-1h1v2h4v2h1l-2 2v2l-2 1h-1l-1 -2l-1 1v1zM624 22940v-1h-1v1h1zM475 22939l-2 -1h-2l-2 1v-2h11v1l2 -1v1l2 -1l1 1l-3 2v-1h-4v-1l-2 1v-1h-1v1zM502 22938h-2l-2 -1v1v1l-6 -1h-3v-2h1v1h2l2 -1v2h2l-1 -2h1h6l1 2h-1z"/><path class="chunk" data-i="5" d="M244 23166l-2 -2h1v-2h1h1l-1 2v2zM192 23049l-2 -1h-2l-4 1v-1h3v-2l9 -1v1h1v-2h1v3l-6 2zM194 23047l1 -1h-1l-1 1h1zM182 23049h-3v-3h1v2h1v-2h1v2h1l-1 1z"/></g><g class="f live" data-f="1" fill="var(--live,#000)" fill-rule="evenodd"><path class="chunk" data-i="0" d="M15 23047v-1h1l1 1l1 -1v-1l5 -2l2 -2l1 1l1 1l-3 2l-1 -1l-1 1l-1 2l-4 1l-1 1h-1v-1l1 -1h-1zM38 23037l-1 1l-5 3l-3 1l-2 -1l1 -1l3 -1l2 -1l1 1l3 -3v1h1zM38 23036l3 -2h2v1h1l-1 1l-2 1h-3v-1z"/><path class="chunk" data-i="1" d="M56 23028l-1 1l-1 -2l5 -1l-1 1l-2 1zM48 23032v-1l-1 1v1l1 -1zM47 23035h-3l-1 -1v-2l-2 -1l1 -4v-1l2 1l-2 3l6 -1l1 1l-1 1h2h2v-1v-1l1 1v1l3 -2l1 -1h2h1v-1l-1 -2l5 -2l7 -2l4 -1v1l3 -1l11 1l1 -1l1 1h1l5 6v2l-1 -1v-1h-1h-1l1 1l-1 1v1l1 1l1 -1v2l-8 -1l-1 1l-1 -2l-1 1l-12 -2l-1 -1v1v1l1 1h-1l-3 1l1 -1v-2h-1l-1 1v-1l-11 3l-1 1l-1 -1v2h-7l-1 -1v1v1zM52 23033v-1v1zM86 23024h2v-1l-3 -1l-1 1l-1 -1h-3h-1l2 2h5zM91 23024l1 -1h-2l-1 1h2zM75 23024l1 -1h2h1h-10v1h4l1 -1l1 1zM93 23026h1l-2 -2v1v1h1zM66 23028l1 -1l-1 -1l2 -2h-3l-1 1h-1l2 3h1zM90 23027v-1h-1l-1 1h2zM61 23028l2 -3h-1h-1l-1 3h1zM78 23026l1 -1h-2l-1 1h2zM92 23028v-1h-2v1h2zM63 23027v-1l-1 1h1zM73 23027v-1h-1v1h1zM93 23029v-1h-1v1h1zM68 23028v-1l-1 1h1zM58 23030v-1h-1v1h1zM64 23029v-1h-2v1h2zM71 23029v-1h-1v1h1zM85 23030v-1h-1v1h1zM57 23031v-1l-1 1h1zM59 23031l1 -2l-2 1v1h1zM61 23030v-1h-1v1h1zM55 23033v-2v1l-1 1h1zM429 23226h-2v-1h-1l1 -1l-1 -1h1l1 2l1 1zM432 23226l-1 -2l-1 1h-1l2 -2l-1 -1h2l1 3l-1 1zM566 23200l-4 -1l-2 -2l-1 -2l-7 1l-1 1l-1 -2l-2 2l-20 1l-1 -2v2l-1 -2l-4 -1l-3 -2l-2 -4l-1 -4v-4v-1v-1h1v-1l1 -1l-1 -1l1 -2v-3l2 -1h1l2 -1v2l1 1l-1 1v2l-1 1v2h1h1l-1 1l2 4l2 -2v1v1h1l1 -1l1 2l19 -1h1l2 1l1 -1h4l8 -1l3 1l2 1l4 4v1l-1 1l1 1l-3 5h-2l-1 2l-2 2zM520 23171h-1v1l1 -1zM523 23171v-1h-1v1h1zM522 23172v-1h-1v1h1zM520 23173v-1h-1v1h1zM520 23176v-3l-1 2l1 1zM540 23187h9h6h2l2 -1l-1 -1h-2h-6h-9l-1 1l-1 -2l-1 1h-10h-2l-1 1l-1 -1h-1l-1 -3v-9h-1l-1 3l1 1l-1 1l1 1l-1 3l3 5h17zM519 23175v-1h-1v1h1zM519 23177v-1l-1 1h1zM520 23178v-1h-1v1h1zM518 23180v-1h-1v1h1zM519 23182v-2v1v1zM517 23184v-1l1 -2h-1v3zM518 23183l1 -1h-1v1zM520 23186v-1v-3h-1v2l1 2zM521 23187v-1h-1v1h1zM557 23190l1 -1h-3l-1 1h3zM524 23191v-2l-2 -1v-1l-1 1v1l3 2zM537 23191h12l1 -2l-22 1v1h9zM553 23191v-1h-2v1h2zM519 23191v-1v1zM526 23191v-1h-1v1h1zM522 23192v-1h-1v1h1zM521 23193v-1h-1v1h1zM567 23196v-1h-2l1 1h1zM468 23206l-1 1v1h-1v-1h-1v-1l2 -1h2l-1 1zM473 23205h-2v-1h-1l1 -1l2 -1h2l1 -1l1 1l-3 2l-1 1zM482 23200l-1 1h-1l-1 -1h2h1zM496 23195l-1 1l-4 1l-2 1l-2 1l-1 -1l3 -1v-1h1h1h1v-1l2 -1h2v1h-2h1h1z"/><path class="chunk" data-i="2" d="M504 23190h1v1l-2 1h-2h1l1 -1l1 -1zM496 23194v-1h2l1 -1l1 1h1l-4 1h-1zM278 23167h-2l-1 -1l2 -1v-2h2l1 1l-1 1l-1 2zM293 23163l-1 1l-4 1h-3l-5 1v-1l1 -1v-2h4h6v1h2zM284 23165v-2h-1v2h1zM291 23162v-1h1l2 -1v1v1l2 1v1l-3 -1l-1 -1h-1zM300 23160v-1h2l4 1v1h-5v-1h-1zM611 23089l-3 -1l-1 -1h-2h-1h-1l2 -1h4l2 -1l1 1h1l1 -1l1 1h5l-1 2l-2 -1l-1 1l-1 -1h-3h-1l1 1l-1 1zM610 23088v-1h-1v1h1zM595 23085v-1h1v-1h1l2 1h1l1 -1v1v2l1 1h-1l-6 -1h1l-1 -1zM599 23086l1 -1h-1l-1 1h1zM612 23083h-8v-1h9l-1 1z"/><path class="chunk" data-i="3" d="M527 23100l-1 -2l-1 -2l1 -2h1l2 2l-1 1v3h-1zM527 23096v-1h-1v1h1zM370 23136h-1l-1 1h-2v-1l1 -2h1l1 1v-1h1v2zM434 23139l-3 -5h-2v1l-1 -1l-2 -1l-2 -3l-25 2l-3 1h-2h-1l-1 1l-1 -1h-4l-5 -1h-2h-1l-3 1l-2 1h-3l-1 -1h2l1 -1l2 -1h1l2 -1l-1 -1h-2l-5 3h-1h-1l2 -1l1 -1l3 -1l2 -1v-2v-1l-2 2h-1l1 -1l1 -2h2l3 -3l1 1h3l4 3h6l16 -3l1 1l1 -2h3h1l1 -1l3 -1l1 1l1 -1h4l2 1l2 1h1l1 -1l1 2h3l2 3v2l1 2v4l-1 3h-1l-1 -1v1v1l-2 2zM383 23125v-1v-1h-1v1l1 1zM384 23127v-2h-1v1l1 1zM416 23124v-2l-19 4l-9 1l-1 -1l-2 2h1h4l1 1l1 -1l12 -1l1 -1l1 1l1 -2h2l1 1l1 -2l2 1l3 -1zM382 23128h-1v1l1 -1zM385 23130v-1h-1v1h1zM418 23124v-2h-1v1l1 1zM421 23123v-1l-1 -1v1l1 1zM423 23123v-1l-1 -1v1l1 1zM387 23130l1 -1h-2v1h1zM420 23124v-1h-1v1h1zM427 23124v-2v1v1zM393 23130v-1l-4 1h4zM413 23127v-1l-1 -1v1l1 1zM419 23125v-1h-1v1h1zM422 23124v-1h-1v2l1 -1zM426 23124v-1h-2l-1 1h3zM401 23129v-1l-4 1v1l4 -1zM404 23129v-1h-2v1h2zM407 23128l1 -1h-2v1h1zM410 23128l1 -1h-2v1h1zM417 23126v-1l-3 1v1l3 -1zM426 23125l1 -1h-1v1zM392 23131h-1v1l1 -1zM428 23126v-1v1zM404 23130h1h-2v1l1 -1zM408 23130v-1h-1v1h1zM412 23129l1 -1h-2v1h1zM418 23128l1 -1h-1l-1 2l1 -1zM426 23128v-2h-1v2h1zM429 23127v-1h-1v1h1zM427 23129v-2l-1 1v1h1zM434 23128v-2l-1 2h1zM435 23130v-1h-1v1h1zM436 23133v-2l-1 -1v1l1 2zM436 23135v-1h-1v1h1zM629 23091h-2v1l-2 1v-1l1 -1v-1h-1l-2 -1v-2h-1l-1 -1l2 -1h3h1l-1 -1v-1l2 -1h3l1 1l1 2v3l-1 2h-1v-5h-1v4l-1 2zM628 23086l1 -1h1l1 -1h-1h-2v2zM627 23089v-1h-1v1h1zM633 23087v-1h-1v1h1zM591 23082h-1v-1h1v-1h2v1h-1l-1 1zM583 23077v-1h-1v1h1zM585 23076h-1h1zM581 23077h-1v1l1 -1zM585 23077v-1v1zM582 23080h-1h1zM584 23082v-1l-1 1h1zM564 23095v-1l-2 1v1l2 -1zM582 23083v-1v1zM590 23084zM595 23086l-1 1h-1l-3 -1l-2 -1l-1 -1l-2 -2h-1v1l-1 1l-1 1v-1l-1 -1v1l-9 7l-9 5l-3 3l-4 1h-1l2 -2h2l2 -2v-2h2l1 -2l1 1h1v-2h1v2l1 -1v-1l3 -3h2l2 -2l3 -3l2 -2v-2l-1 1v1h-3v-1h2l1 -3h-1v-1h2l2 -1h2h1l1 1v1h1v1v1v1l1 1l1 -1v-1h1l1 1h-1v1l-1 2v1l1 -1h1l1 1h2v1h1v1zM570 23091v-1h-1v1h1zM516 23028l-14 -2v-1l-1 -1v-1h2l1 1v1h2v1l10 1v1zM500 23023v1h-1l-1 -2h1l1 1zM439 23048h-1v2h-2l-1 -2l2 -2l3 1h-1v1z"/><path class="chunk" data-i="4" d="M296 23040l-3 -3l2 -1h2l1 2h-1v2h-1zM283 23035v-1h1l2 -1l3 3v2h-1l-2 -3l-2 1l-1 -1zM297 23030l-14 -3v-1l14 3v1zM542 23016l-2 1v-1l1 -1l2 -1l1 -1v1v1l-2 1zM597 23036l-1 -2l-1 -3h-1v2h-1l-1 -1l-2 -1l-1 -2h-31l-6 -1l-3 -3h-1v-3l-1 -1l-1 1v-1v-1h1l1 -1l-1 -1v-1v-1l-1 2l-1 -1l2 -5l-1 1v-1l3 -6h1l2 -2l4 1l2 3l-1 3l1 1l-1 1v1h1l1 1l-1 1v1h3l1 1l1 -1l3 1l1 -1l2 1l1 -1h5l1 1l1 -1l9 1l1 -1l2 1l9 3l5 4l1 5l-2 2v1l-1 2h-3l-1 1zM554 23010v-1h-1v1h1zM552 23014v-1h-1v1h1zM554 23016v-1h-1v1h1zM596 23024l1 -1v-1h-2l-4 -2l-5 -1l-1 1l-1 -1l-1 1l-17 -1l-1 1l-1 -1h-9l-2 -3h-1v1l2 3l5 1h24l4 1l1 -1l1 1h1h2l4 2zM557 23016v-1h-1v2l1 -1zM552 23018v-1h-1v1h1zM552 23021v-2h-1v1l1 1zM553 23022l1 -1h-1l-1 1h1zM556 23023v-1h-1l-1 1h2zM561 23024v-2l-3 1l-1 1h4zM599 23033l2 -2v-7h-3v1l2 3l-1 1l-2 -1l1 3l1 2zM572 23025v-2l-2 -1v1l2 2zM579 23026l1 -1h-2l-1 -1h7l1 -1l-10 -1l-1 1l2 1v2h3zM591 23026v-2h-1l-2 1l1 1h2zM566 23025l1 -2h-2l-1 2h2zM569 23025v-2h-1v2h1zM587 23025l-1 -1h-1v1h2zM560 23026v-1h-1v1h1zM570 23026v-1h-1v1h1zM574 23026v-1h-1v1h1zM598 23034l1 -1l-2 -2l-1 1l1 1l1 1zM498 23018h-1h1zM493 23021v-1v1zM489 23023zM486 23025v-1v1zM486 23026v-1h-1v1h1zM484 23027v-1l-1 1v1l1 -1zM481 23028v-1l2 -1l1 -1l5 -3h1v-2l3 -1l2 -2l1 -1l1 -1l1 2v2l1 1l-1 1h-1v-1l-1 -1l-1 1l-2 1l-5 4l-3 3l-2 1v-1h-2zM518 22932v-1h-1v1h1zM517 22933v-1h-1v1h1zM558 22937v-1h-1v1h1zM561 22938v-1h-1l-1 1h2zM563 22938v-1h-1v1h1zM543 22936l1 -1h-3v1h2zM547 22936v-1h-1v1h1zM552 22937l1 -1h-4v1h3zM555 22938v-1h-1v1h1zM560 22939l-1 -1v1h1zM611 22931v-1v1v1v-1zM608 22933h-1v1l1 -1zM569 22939v-1h-1v1h1zM607 22935v-1l-1 1h1zM611 22933v-1l-1 1v1l1 -1zM614 22932v-1v1zM580 22940l1 -1h-8v1h7zM596 22938h-1v1l1 -1zM618 22937h-1l-1 1l1 -3l-1 -1v1h-1h-2l-1 1h-2v1l-1 -1l-1 2l-7 2l-1 -1l-1 1h-1h-2l-1 1l-1 -1l-1 1h-1h-1l-1 1l-1 -1l-2 1h-6h-1h-1h-1h-2l-1 1l-2 -1h-2l-1 -1l-1 1l-6 -2l-1 1l-1 -1l-4 -1l-1 1l-1 -1h-2v1l-1 -2l-2 1l-8 -2l-1 1l-2 -1l-1 1l-1 -2l-1 1h-13v-1h10l-1 -1l-23 -1l1 2h3v1h-11v-3l1 2h5v-2l-4 1l-1 -1l2 -1l1 -1l1 1l8 -1h1l-1 -1h-6l1 -1h9l1 2h2l1 1l2 -1h2v1l1 -1l4 1l2 1l1 -1h3l2 -2v2l2 1l1 -1l9 1l4 1l1 -1l-1 -1l1 1l1 1v-1h1l2 2l12 1h5l1 1l1 -1h3l1 1l1 -1l1 1h3l1 -1h1h1v-1h1l2 1l1 -1l1 1v-1l1 -2h1l-1 1v1h1l1 -1h1v1l1 -1l1 -1l1 -1l1 1l3 -2l1 -1l2 -1h1h1l1 -1l1 -1v1l1 -1h1h1v1l1 -1v1h3l1 2l-1 3v1l-2 2h-1l-1 -2v1v1zM620 22936v-1h-1v1h1zM475 22939l-2 -1h-1h-2v-1h9l1 1l1 -1v1l1 -1h1l-2 3v-1h-3v-1l-2 1v-1h-1v1zM498 22937h-3l-1 -1l-1 1v1h-4l-2 -1l-1 -1h1v1h2l1 -1v1h1h1l-1 -1v-1h5l2 2z"/><path class="chunk" data-i="5" d="M242 23163l-1 -1l1 -1v-1l1 -1v1v1l-1 2zM191 23047l-2 1h-1l-3 1v-1h2v-2l7 -2h1v-2l1 1v2l-5 2zM193 23045v-1l-1 1v1l1 -1zM184 23050h-3v-3l1 1v1h1v-2h1l-1 1l1 1v1z"/></g><g class="f live" data-f="2" fill="var(--live,#000)" fill-rule="evenodd"><path class="chunk" data-i="0" d="M17 23047l1 -1v1h1v-3l3 -3l2 -2v1v1l-2 3v-1v1l-1 1l-1 2l-3 2v1h-1l1 -1v-1v-1zM31 23034v1l-4 3l-2 1v-1v-1l2 -1l1 -1v1l3 -3v1zM31 23033l3 -2l1 1v1h1l-1 1h-1h-3v-1z"/><path class="chunk" data-i="1" d="M51 23029h-1l-2 -1l1 -1l8 1v1h-6zM40 23031v-1h-1v1h1zM39 23033h-3v-1h-1l1 -3l-2 -2l2 -3l1 -1l1 2l-3 2h1l5 1l1 1h-2l1 1h1l3 1l1 -2h1v2l6 -1h2h2h2v-1l-2 -2h1h7l8 -2l3 -1l1 1l1 -2l9 -1l1 -1l1 1h1l4 5v3l-1 -1v-1l-1 -1l-1 1l1 1l-1 1v1l1 1l1 -1v2h-6l-1 1l-1 -1l-1 1l-8 -2l-1 -1v1l1 1l-1 1h-2v-1v-1h-1h-1h-17l-1 1l-1 -1l-2 1h-10l-1 -1v1zM46 23032h1h-2h1zM85 23026l1 -1v-1h-2l-1 1l-1 -1l-2 1h-1l2 2l4 -1zM89 23025v-1h-1l-1 1h2zM77 23028v-1h2v-1l-7 1h-1l4 1l1 -1l1 1zM91 23027l-1 -2l-1 1v1h2zM69 23031l1 -1l-1 -1l1 -1v-1l-3 1h-2l2 3h2zM88 23029v-2h-1l-1 2h2zM61 23030l3 -2h-1h-2l-1 2h1zM79 23029l1 -1h-2v1h1zM89 23030v-1h-1v1h1zM65 23030v-1h-1v1h1zM76 23030v-1h-1v1h1zM90 23031v-1h-1v1h1zM71 23031v-1h-1l1 1zM56 23031v-1h-1v1h1zM66 23031h1l-4 -1v1h3zM74 23032v-1h-1v1h1zM85 23033v-1h-1v1h1zM55 23032v-1h-1v1h1zM59 23032v-1h-2l-1 1h3zM62 23032v-1h-2v1h2zM51 23032h-1h1zM428 23224h-2v-2l-1 -1l1 -1v-2l1 1l1 3v2zM431 23222l-1 -2l-1 1h-1l2 -3v-1l1 5zM564 23202l-4 -2l-2 -2l-1 -1h-5v1l-1 -1l-1 1h-15l-1 -1l-1 1l-1 -1l-5 -1l-6 -2l-5 -3l-1 -4l-1 -5l-2 -1h1h1l1 -2h1l-1 -2v-1v-5l3 1l1 1l2 -2l1 1l1 3l1 1l-1 1v2l2 1l-1 1v1l1 1h1l-1 1l4 4l2 -2l1 1v1h2v-1l2 1h14l1 -1l1 1l1 -1h3l8 -3h4h2l4 4v1l-1 1l1 1l-5 7h-1l-2 1v1l-2 2zM518 23173v-1h-1v1h1zM522 23174v-1h-1v1h1zM521 23175v-1h-1v1h1zM518 23175v-1h-1v1h1zM519 23179v-3l-1 -1v3l1 1zM543 23191h7l4 -1h2l1 -1v-1l-2 1l-5 1l-5 -1l-1 1l-1 -1l-1 1l-9 -1h-2h-1l-1 -1h-2l-3 -2l-2 -9l-2 -1v3l1 2h-1l2 1v3l6 5l15 1zM517 23177v-1h-1v1h1zM518 23179v-1h-1v1h1zM519 23182v-2l-1 -1v1l1 2zM516 23182v-1h-1v1h1zM520 23185l-1 -2l-1 -1v1l2 2zM516 23186v-1l1 -1v-1h-2v3h1zM518 23185v-1h-1v1h1zM522 23189v-1l-1 -3h-1v2l2 2zM524 23190v-1h-2v1h2zM556 23193v-1h-2l-1 1h3zM529 23193v-2h-2l-2 -1v1l4 2zM542 23194l8 -1h1l-17 -1v1l8 1zM552 23194v-1h-1l1 1zM521 23192v-1h-1v1h1zM532 23193v-1h-1v1h1zM526 23194v-1h-1l1 1zM525 23194v-1h-1v1h1zM564 23198v-1h-1v1h1zM468 23207l-1 1h-1v-1l-1 -1h-1l1 -1h3l1 1h-1v1zM474 23207h-2v-1l-1 -1l1 -1h2l2 -1h1v1l-2 2l-1 1zM481 23203l-1 1h-1v-2h1v1h1zM489 23196v1l-3 1l-1 3h-1l-1 -1l2 -2v-2h1l1 1v-2l1 -2h1v2v1z"/><path class="chunk" data-i="2" d="M496 23188l1 1v1l-2 2l-1 -1l1 -1h1v-1v-1zM489 23193h1l1 -1l1 -1v1h2l-1 1l-3 2v-1v-1h-1zM281 23167h-3v-1v-1h3v1v1zM295 23165v1h-5h-3l-5 1v-1v-1v-1h5h5l1 1h2zM286 23166v-1h-1v1h1zM292 23164l1 -1h1l1 -1l1 1v1h2l1 1h-1h-3l-1 -1h-2zM303 23162l1 -1l2 -1h4v2l-5 1v-1h-1h-1zM608 23089h-2v-1h-2l-1 1v-1l1 -1l3 -1l1 -1v1h1l1 -1l1 1l3 -1h1l-2 2h-1l-1 1v-1h-3v1l1 1h-1zM607 23088v-1h-1v1h1zM597 23087l1 -1v-1h1l1 1h1v-1l1 1v2v1l-5 -1h1l-1 -1zM601 23088v-1h-1l-1 1h2zM609 23083l-6 1l1 -1l5 -1v1z"/><path class="chunk" data-i="3" d="M534 23098l-2 -2l-1 -2l3 -3h1l1 2l-1 1l-1 3v1zM534 23093v-1h-1v1h1zM371 23135l-1 -1l-2 1h-2v-1l1 -2h2l1 1v-1v-1h1v3v1zM441 23138l-5 -4l-3 -1l-1 1l-1 -1l-5 -1l-2 -2h-29l-2 1l-1 1l-1 -1v1l-1 -1l-2 -1l-4 -1l-2 -1h-1l-3 1l-1 2l-1 -1l-3 2l-2 -2h1l2 -1v-2h3v-2l1 1l2 -1l-2 -2l-1 1l-6 4l-1 1l-1 -1l2 -2h1l4 -3l1 -1v-3l-2 2v-1l1 -2h2l2 -4l1 1h3l4 3l4 2h13l1 1l1 -1l3 1l1 1l1 -1h4l1 1l1 -1l7 1l3 1l3 2h2l1 -1l1 1l4 1l3 2l1 1l1 2l1 3v2h-2l-1 -1v1v1l-1 1zM383 23118l1 -1l-1 -1h-1v1l1 1zM385 23120v-2h-1v1l1 1zM411 23124v-1l-17 -1l-6 -1l-1 -1l-1 1v1l3 1l1 1l1 -1l8 1l1 -1l1 1l1 -1h2v1l2 -1l1 1h4zM383 23122v-1h-1v1h1zM386 23124v-1h-1v1h1zM413 23124v-1h-1v1h1zM417 23125v-1v-1h-1h-1l2 2zM419 23125v-1l-1 -1v1l1 1zM387 23125l1 -1h-1l-1 1h1zM415 23125v-1h-1v1h1zM427 23126v-1l-1 -1v1l1 1zM391 23126l1 -1h-3v1h2zM406 23126l1 -1l-1 -1v1v1zM414 23125l-1 -1v1h1zM418 23126v-1h-1v1h1zM424 23126l1 -1h-4l-1 1h4zM396 23127l1 -1h-3v1h2zM398 23126v-1l-1 2l1 -1zM401 23126l1 -1h-1l-1 1h1zM404 23126l1 -1h-2v1h1zM411 23126l1 -1h-4l-1 1h4zM426 23127v-1h-1v1h1zM391 23128v-1h-1v1h1zM430 23128v-1h-2l1 1h1zM399 23129v-1h-1v1h1zM401 23128v-1l-1 1h1zM405 23128l1 -1h-1l-1 1h1zM413 23128l1 -1h-2l-1 1h2zM425 23128h-1h1zM431 23129v-1h-1v1h1zM428 23129h-2h2zM439 23130l-1 -1h-1h1l1 1zM440 23131l-1 -1v1h1zM441 23133v-1l-1 -1v1l1 1zM442 23135v-1h-1v1h1zM624 23089l-1 1l-1 1l-1 2l-1 -1v-1l1 -1v-1h-2l-1 -2l-1 -1h-1v-1l1 -2h4l-1 -1v-2l2 -1h4l2 1l2 3v3v2h-3v-6l-1 1v4l-2 2zM623 23083l1 -1h1l1 -1h-1l-2 1v1zM622 23088v-1h-1v1h1zM630 23084v-1h-2v1h2zM593 23084h-1v-1l3 -1v1h-1l-1 1zM582 23076v-1h-1v1h1zM584 23076v-1h-1v1h1zM579 23077v-1h-1v1h1zM585 23077v-1h-1v1h1zM579 23081v-1h-1v1h1zM582 23084l1 -1h-2v1h1zM558 23092v-1h-1v1h1zM580 23085v-1h-1v1h1zM592 23087v-1h-1v1h1zM597 23088l-1 1h-1l-3 -1h-3l-1 -1l-1 -1l-3 -2h-1v1h-2l-2 1v-1h-1h-1l-11 5l-9 3l-1 3l-3 1h-1l1 -2h2l1 -2l1 -2l1 -1l1 -1v1h1v-1h1v1h1v-1l3 -2h2l2 -2l5 -1l3 -3v-2l-1 1v1h-4v-1h3l2 -3l-1 -1v-1h2l3 -2h2l1 1l2 1v2h2v2h-1v1h1l-1 1l2 3l2 -2l-1 -1h1l1 1v1v1l-1 2l1 -1h1l1 1l3 1v1v-1v1zM564 23089h-1h1zM514 23025l-10 1l-1 -2h-1v-1h1h2v1l1 -1l1 1h7v1zM501 23023v1l-1 1l-2 -2v-1h2v1h1zM444 23050l-1 3h-3v-2l3 -3l2 1h-1v1z"/><path class="chunk" data-i="4" d="M294 23040l-3 -2l1 -1h3l2 1h-1h-1l-1 1v1zM281 23038l1 -1h1l3 1v1h-1l-2 -1l-1 1v-1h-1zM296 23032l-14 1v-1l15 -1l-1 1zM539 23013h-1h-1l2 -1h2l1 -1v1v1h-3zM594 23038l-1 -1l-1 -2h-1v1h-1h-1l-1 -2l-23 -2l-9 -3l-4 -4l-1 -1l-1 -3l-2 -2l-1 1l-1 -1v-1h2l-1 -2v-1h-1l-1 1v-1l1 -4h-1h-1l3 -4h1l2 -2l5 2l3 3l1 3l1 1v1v1l2 1v1h-1l1 2l4 1l1 1h1l3 1h1l1 1l1 -1l4 1l1 1l1 -1l7 1l1 -1l1 1l9 1l4 3l-1 4l-2 2v1l-2 1h-2l-1 1zM555 23011l-1 -1h-1l1 1h1zM553 23014v-1h-1v1h1zM557 23017v-1l-1 -1v2h1zM594 23030l2 -1v-1h-2l-3 -1l-4 -1l-1 1l-1 -1l-1 1l-13 -2h-1l-1 -1l-10 -4l-4 -4v1v1l3 3l7 3l20 5h2l1 -1l1 1l1 -1l2 1l2 1zM560 23019v-1l-1 -1v1l1 1zM554 23018v-1h-1v1h1zM556 23022l-1 -2l-1 -1v1l2 2zM558 23023v-1h-2v1h2zM561 23025l1 -1h-2v1h1zM567 23028v-1l-3 -1l-1 1l4 1zM596 23035l2 -1l1 -5h-3v2l2 1l-2 1h-1v1l1 1zM576 23031v-2l-1 -1v1l1 2zM581 23032l1 -1h-2v-1l5 1l1 -1l-8 -1l1 2v1h2zM590 23032v-2h-1l-1 1v1h2zM572 23030v-1h-1l1 1zM574 23030v-1h-1l1 1zM587 23032v-1h-1v1h1zM567 23030v-1l-1 -1v1l1 1zM576 23031l-1 -1h-1l1 1h1zM578 23032v-1h-1v1h1zM595 23036l-1 -1h-1l1 1h1zM497 23019v-1h-1v1h1zM492 23023v-1h-1v1h1zM487 23026v-1h-1v1h1zM483 23028v-1h-1v1h1zM482 23028h-1h-1h2zM479 23029v-1h-1v1h1zM476 23029l2 -1l2 -1l6 -2l2 -1l1 -2l3 -1l2 -3v-2l1 -1l2 1l1 3l1 1l-1 2h-2v-2l-1 1l-3 2l-7 4l-5 2l-2 1v-1h-2zM520 22937v-1h-1v1h1zM519 22938v-1h-1v1h1zM562 22937v-1l-1 1h1zM565 22936l1 -1l-1 1l-1 1l1 -1zM568 22936v-1h-1v1h1zM542 22940h1h-4h3zM546 22940v-1h-1v1h1zM555 22939v-1l-5 1l-1 1l6 -1zM559 22939v-1h-1v1h1zM564 22937h-1v1l1 -1zM610 22929v-1h-2v1h2zM604 22930v-1h-2v1h2zM572 22934v-1v1v1v-1zM602 22931v-1h-1v1h1zM609 22931l1 -1h-2l-1 1h2zM616 22932v-1h-2v1h2zM578 22933l1 -1l-4 1l-1 2l4 -2zM588 22932v-2l-1 1v1h1zM621 22940h-1h-1l1 -3l-1 -1l-1 1l-1 -1l-3 -1l-2 1l-1 -1h-2l-1 1l-2 -1l-1 1l-12 -1l-1 -1l-1 1l-1 -1h-2l-1 1v-1l-1 1l-1 -1h-1l-1 1v-1l-1 2h-4v-1l-1 2v-1h-2v1l-1 -1l-1 1l-1 -1v1l-5 1l-1 1l-1 -1l-5 1l-1 1l-1 -1l-2 1l-2 1l-1 -1l-2 1h-12l-1 1l-1 -1l-1 1l-1 -1l-1 1h-11v-1h8l-1 -1l-16 -2l1 1l2 1l-1 1l-8 -2l1 -3v2l4 1v-1l-3 -1v-1h1l1 -1l1 2h5v-1l-4 -1v-1l6 2l1 1l1 1l1 1l1 -1h1l1 1v-1l4 1l1 1l1 -1h4l1 -2l1 2h3v-1l13 -2h7v-2h1v1h1v-1l1 -1l2 2l8 -4h3h1v-1h2v1l1 -2l1 1h1l1 -1v1l1 -1v-1h1l1 1l1 -1l1 1l1 -3h1v1l-1 1v1h1l1 -1h1l1 1v-1h2l1 -1l1 1h5l1 1l1 -1l4 -1l2 1l2 1l1 -1l1 1l1 -1l1 1h1l1 1h1l1 1h1h1v2l4 1v1l1 1l-2 2v1l-1 1h-2l-1 -2h-1v2zM624 22939v-1h-1v1h1zM470 22937l-2 -1h-2h-2v-2h12l1 2l2 -2l1 2l1 -1h2l-3 4l-1 -2h-4l-2 -2l-1 2l-1 -2l-1 1v1zM505 22939l-3 -1l-2 -1v2l-7 -2l-4 -1v-1v-1l2 1l2 1l1 -1h1l1 2h1h1l-2 -2h1l7 1l1 2v1z"/><path class="chunk" data-i="5" d="M241 23165l-1 -2l1 -1v-1l2 -1v1l-1 1v2l-1 1zM192 23045l-2 -1h-2h-3h-1l1 -1h2l1 -1h8v1l1 -1v-1l1 1l-1 2l-5 1zM195 23044v-1l-1 -1l-1 1l2 1zM183 23044h-4v-2h1v1h1v-1h1v1l1 1z"/></g><g class="f jolt-f live" data-f="3" fill="var(--live,#000)" fill-rule="evenodd"><path class="chunk" data-i="0" d="M10 23038v-1l2 -1l1 1h1l1 -2l5 -2l3 -2v1l1 1l-3 2l-1 -1l-1 1v1l-2 1l-5 3l-2 1v-1v-1l1 -1h-1zM33 23030v1l-4 1h-3l-2 -1l1 -1h3l1 -1l1 1l2 -1l1 1zM33 23029l2 -1l1 1l1 1v1h-1l-3 -1v-1z"/><path class="chunk" data-i="1" d="M47 23028h-1l-1 -2v-1l7 1l-1 1l-4 1zM40 23029v-1h-1v1h1zM39 23030h-2v-1h-1v-2l-2 -2v-3h1l1 1l-1 2l5 1v1v1h1l2 1v-1v-1l1 1v2h4l2 -1l2 1h1l1 -1l-2 -4h1h7l11 -2l4 -2l1 2l2 -3l12 3l1 -1l2 2h1l7 7l1 3l-1 -1l-1 -1l-2 -1v1l2 1l-1 1v2h1l1 -1l1 1v1h-7l-1 2l-2 -2l-1 2l-15 -3l-1 -2l-1 1v1l2 2l-1 1l-4 1l-1 -1l1 -1v-2l-1 -1l-1 2l-1 -2l-19 -1l-1 1l-1 -2l-1 1l-6 -3l-1 -1zM44 23032v-1h-1v1h1zM89 23027h1l1 -1l-3 -1l-1 2l-2 -2l-4 -1v1l2 2h6zM94 23028v-1l-2 -1v2h2zM77 23028l1 -2l3 1v-2h-12l-1 2h6l1 -1l2 2zM97 23031h1l-3 -3v1l1 2h1zM65 23033l1 -1l-2 -2l3 -3l-1 -1l-4 1h-2l-1 1l3 4l3 1zM94 23032v-1l-1 -1l-1 2h2zM55 23031l3 -3v-1h-3v3v1zM81 23032l1 -2h-2l-1 1l2 1zM96 23033v-1h-1v1h1zM59 23030v-1l-1 -1v2h1zM75 23032v-1h-1v1h1zM98 23035v-1l-2 -1l1 2h1zM68 23033v-1l-1 -1v2h1zM50 23031l1 -1h-1v1zM61 23034l1 -2l-5 -1v2l4 1zM73 23035v-1h-2v1h2zM91 23037v-1h-1v1h1zM49 23033l1 -2h-1v1v1zM53 23034v-2h-2l-1 1l3 1zM55 23034l1 -1l-2 -1v2h1zM47 23033v-1h-1v1h1zM426 23217l-2 1l1 -1l-1 -1l1 -1l1 -1l1 1l-1 1v1zM430 23216v-1l-2 1h-1l3 -2v-1h1l-1 2v1zM571 23203l-3 1l-1 -1v-1l-5 2l-1 1l-1 -1l-1 1l-25 2l-2 -2l-1 1l-1 -1l-6 -2l-6 -4l-4 -5l-1 -4l-1 -5l-1 -1l1 -1h1l1 -1l1 -1l-1 -2v-1v-6l4 1h1l3 -3v1l1 4l1 1l-1 1v3l1 1l-1 1v2l1 1h1l-1 2l4 5l3 -3v1l1 2l1 1l2 -2l1 2l21 -2l1 -1l1 1l1 -1l4 -1l6 -4h3h1l3 3v1l-1 1l1 1l-4 7l-1 2v1l-1 2zM517 23174l1 -1h-2v1h1zM522 23174v-1h-1v1h1zM521 23175v-1h-1v1h1zM517 23177v-2h-1v2h1zM518 23180v-3h-1v3h1zM549 23197l8 -1l6 -2l1 -1l1 -2h-2l-5 2l-8 1l-1 1l-2 -1l-1 1h-13l-4 -2l-1 2l-1 -2h-2l-3 -4v-12h-2l-1 4l1 1l-1 1l1 2v4l5 6l24 2zM516 23179v-1h-1v1h1zM517 23181v-1h-1v1h1zM518 23184v-2l-1 -1v2l1 1zM514 23185l1 -2h-2v1l1 1zM518 23187v-1l-1 -1v1l1 1zM514 23189v-2l2 -1h-1h-1l-1 2l1 1zM517 23188v-1h-2v1h2zM519 23193l1 -1l-1 -4l-1 -1v3l1 3zM521 23194v-1h-1v1h1zM565 23197v-1h-2l-1 2l3 -1zM527 23199v-2l-3 -1l-1 -1h-1v2l5 2zM546 23201l13 -2v-1l-25 2l-1 1h13zM562 23199l-1 -1h-1v1h2zM519 23197v-1h-1v1h1zM530 23200v-1h-1v1h1zM523 23200v-1l-1 -1v2h1zM522 23201v-1l-1 -1v1l1 1zM571 23199v-1v1v1v-1zM459 23204l-1 1l-1 1v1l-1 -1v-1h-1h-1l1 -1l2 -1h3h-1v1zM466 23203l-2 1v-2l-2 -1h1l3 -1l3 -2h3v1l-4 4h-2zM479 23197v2h-2l-2 -2l1 -1h2v1h1zM494 23191v1l-3 1l-3 2h-2l-1 -1l2 -2l1 -1h1l1 1l1 -1v-1l1 -1h2v1l-1 1h1z"/><path class="chunk" data-i="2" d="M500 23187l1 1v1l-1 1l-2 -2l1 1v-1h1v-1zM494 23189h1l1 -1l1 1h1v1h-3l-1 -1zM288 23175h-2h-1l1 -1l1 -2h2v1l-1 1v1zM298 23169v1l-2 2l-3 1l-3 1h-1l1 -1l1 -2l3 -1l3 -2v1h1zM293 23173v-1h-1v1h1zM297 23168l1 -1v-1h1v1h1v1l-2 1v-1h-1zM302 23163l1 -1l1 -1l3 -1v1l-4 3v-1h-1zM614 23091l-5 -1l-1 -2h-2h-2l-1 -1l2 -2l5 1l1 -1l2 2h1l1 -1l2 2h4h1l-1 2h-1l-1 1l-2 -2l-4 -1v1l1 2zM612 23090l-1 -2h-1v1l2 1zM591 23084v-2l2 -1v-1v-1l3 4h2l1 -2l1 1v3l1 2v1l-10 -3h2l-2 -1zM598 23086v-2h-2v2h2zM612 23083l-10 -3l1 -1l9 2v2z"/><path class="chunk" data-i="3" d="M527 23095l-1 -1l3 -2l1 -1l1 1l-1 1l-2 2h-1zM529 23093v-1h-1v1h1zM364 23129l-1 -1l-1 2h-1v-1l1 -2h1l1 1v-1l1 -1l-1 2v1zM440 23149l-6 -5l-2 -1l-1 1l-2 -1l-4 -3l-2 -3l-29 -12h-2l-2 1l-1 -1h-1l-1 -1h-4l-5 -1l-1 -1h-2l-3 1l-2 2l-1 -1l-3 2v-1l2 -1l1 -1l2 -1l2 -1v1l2 -1l-1 -1h-1l-6 4h-2l2 -2h1l5 -2l1 -1l1 -1l-2 1v-1l2 -1h1l3 -2l1 1h2l1 2h5l14 2l2 1l1 -1h3l1 2l1 -1h5l1 2l1 -1l8 2l3 2l4 2l2 1l1 -1l1 2h5l3 4l1 3l1 3v3v4h-2l-2 -1v1l-2 2zM380 23117h1v-1h-1v1zM381 23118v-1h-1v1h1zM410 23125v-2l-20 -3l-7 -1v-1l-2 1l4 1h1l11 2h1l1 1l1 -1h2l1 2l1 -1l2 1l4 1zM379 23119h-1h1zM381 23120h-1h1zM412 23126v-2l-1 -1v1l1 2zM416 23127l1 -1l-1 -1l-1 -1l-1 1l2 2zM419 23128v-2l-1 -1v1l1 2zM383 23121v-1h-1l-1 1h2zM415 23126l-1 -1h-1v1h2zM427 23131v-2l-1 -1v1l1 2zM388 23122v-1h-3h-1l4 1zM406 23126v-1l-1 -1v1l1 1zM414 23127l-1 -1h-1l1 1h1zM418 23129v-2h-1v1l1 1zM424 23130l1 -1l-4 -1l-1 1l4 1zM395 23123l-3 -1l-1 1h4zM397 23124v-1h-1v1h1zM401 23125v-1l-1 -1l-1 1l2 1zM404 23125l-1 -1l-1 1h2zM411 23128v-1l-3 -1l-1 1l4 1zM426 23132v-1l-1 -1v2h1zM387 23123v-1h-1v1h1zM429 23134v-1h-1v1h1zM399 23126v-1h-1l1 1zM402 23127v-1l-1 -1v1l1 1zM406 23128l1 -1h-2v1h1zM413 23131l1 -1l-2 -1v1l1 1zM424 23135l1 -2h-2v1l1 1zM430 23136v-1l-1 -1v2h1zM427 23137v-2h-1v1l1 1zM439 23138v-2h-1v1l1 1zM440 23141v-2h-1v1l1 1zM442 23143v-2h-2v1l2 1zM442 23146v-2h-2v2h2zM631 23094l-1 1v1l-1 1h-1v-1l1 -1l-1 -1h-1l-2 -2v-2l-2 -1l1 -2l3 1l-1 -2v-1h1l3 1l2 1l1 3l1 3v1h-1l-1 -5h-1l1 4l-1 1zM629 23089v-1h1v-1l-2 1l1 1zM629 23093v-1h-1v1h1zM634 23092l-1 -1v-1v1l1 1zM585 23077h-1l-1 -1h1l1 -1h2h1v1h-2h-1v1zM577 23069v-1l-1 1h1zM579 23068v-1l-1 1v1l1 -1zM574 23071l1 -1h-1v1zM579 23069l1 -1h-1l-1 1h1zM574 23074v-1h-1v1h1zM575 23077v-1l-1 1h1zM561 23089v-1h-1v1h1zM573 23078l1 -1h-1v1zM584 23081v-1h-1v1h1zM591 23085l-1 1h-3l-4 -2l-4 -2v-2h-1l-2 -3l-1 2h-2l-1 2v-1v-1l-1 1l-6 6l-5 3l-1 1l-4 1l1 -1h2l1 -1l1 -1l1 -1h1v-1h1v1v-1l2 -2l1 -1l1 -2l3 -3l2 -3l1 -2l-1 1v1l-3 1v-1l2 -1l2 -3l-1 -1h1l1 -1l3 -2l2 -1h1l1 1l-1 1l1 1v1l-1 1h1l-2 2l2 3l2 -2l-1 -2h2l1 2v1h-1l-1 1l-1 3v1l2 -1h1l1 1l4 2v1l1 1v1zM564 23086v-1v1zM514 23027l-16 -5v-2l-2 -1v-2h2l2 2v1l1 1l1 -1l1 2l12 4l-1 1zM495 23016v2l-1 1l-2 -4l1 -1h2l-1 1l1 1zM437 23040h-1l-1 2l-3 1v-2l3 -2h3h-1v1z"/><path class="chunk" data-i="4" d="M295 23040l-1 -3l1 -2h1v1v1l-1 1v1v1zM288 23039v-1l1 -1l1 -1l2 2v2h-1l-1 -2l-1 2v-1h-1zM297 23028l-9 2v-2l10 -2l-1 2zM541 23024h-2v-1l1 -1h3l1 -1l1 1v1l-4 1zM598 23036l-1 -2v-2v-1l-1 1v1v1l-1 -1h-1v-2l-28 4l-9 -1l-3 -2h-2v-2l-1 -1l-2 1v-1v-1h2l-1 -1v-1l-1 -1l-1 1l2 -5h-1l-1 1v-1l4 -6l1 -1l3 -2l6 1l2 4v3l1 1l-1 1l1 2h1l-1 1v2l4 -1l1 1l1 -1h4v-1h2l1 -1l4 -1l1 1l1 -2l7 -2v-1l2 1l7 -1l3 3l-1 6l-1 3v1l-1 2l-1 1l-1 1zM560 23020v-1h-1v1h1zM557 23023l1 -1h-2v1h1zM561 23025v-1h-1v1h1zM598 23024l1 -2l-1 -1h-1h-3h-3l-1 2l-1 -1l-1 1l-13 4l-1 1l-2 -1l-10 1l-3 -3l-1 1v1l3 2h6l22 -4l2 -1l1 -1l1 1l1 -2l1 1l3 1zM564 23026v-1h-1v1h1zM557 23027v-1h-1v1h1zM558 23030v-1l-1 -1v1l1 1zM560 23031v-1h-1l-1 1h2zM563 23031l1 -1h-2l-1 1h2zM569 23031l1 -1l-5 1v1l4 -1zM599 23032l1 -2l1 -8l-2 1v1l1 2l-1 2v-1l-1 1l1 2v2zM580 23030v-1h-1v1h1zM586 23030l1 -1h-2h-1l6 -2v-1l-7 2l-1 1h1l1 2l2 -1zM595 23027v-2h-2l-1 2l1 1l2 -1zM575 23031v-1l-1 1l-1 1l2 -1zM578 23031v-1h-1v1h1zM592 23028l-1 -1h-1l1 1h1zM568 23033v-1h-1v1h1zM579 23032v-1h-1v1h1zM583 23031l-1 -1h-1v1h2zM599 23033l-1 -2v1v1h1zM493 23009v-1l-1 1h1zM488 23013v-1h-1v1h1zM482 23017l1 -1h-1l-1 1h1zM478 23020l1 -1h-1v1zM478 23021v-1h-1v2l1 -1zM476 23023v-1h-1v1h1zM474 23023l1 -2l1 -1l6 -5l2 -1l1 -2l3 -2l3 -2l1 -3h1l1 2v3v1l-1 2h-2l1 -2l-1 -1l-1 2l-3 1l-7 7l-3 3l-2 1v-1h-1zM528 22937h-1v1l1 -1zM527 22939v-1h-1v1h1zM553 22931v-1h-1v1h1zM556 22931l1 -2h-2v2h1zM559 22930v-1h-1v2l1 -1zM543 22935v-2l-1 1v1h1zM544 22934v-1v1zM548 22933v-1h-2l-1 2l3 -1zM550 22932v-1l-1 2l1 -1zM554 22932l1 -1h-1l-1 1h1zM604 22934v-1h-1v1h1zM600 22934v-1v1zM566 22930v-1h-1v1h1zM600 22935v-1h-1l1 1zM604 22935l-1 -1v1h1zM609 22936v-1h-1v1h1zM578 22932v-1h-8v1h8zM591 22933h-1h1zM616 22943l-2 1v-1l1 -3l-1 -1l-1 1l-2 -1h-3h-1l-1 -1h-2l-1 1l-1 -2v1l-7 -2l-1 -1v1l-1 -1h-2h-1h-1l-1 -1h-1l-1 1l-1 -1l-1 1h-5l-1 -1h-2h-1h-2h-2h-1h-3l-1 -1l-1 1l-7 -1l-2 1v-1h-5l-1 2l-1 -1h-1l-1 1v-1l-1 1l-4 1l-1 2v-1l-1 1v-1l-1 2l-7 1v-1l6 -1v-1l-19 3l1 1h3v1h-14l1 -2l1 2l6 -1h1h-5l-1 -1h2l1 -1l2 1l8 -2h1l-1 -1l-6 1v-1l10 -1v1h2l1 1l1 -2h1l1 1v-1l3 -1v1l1 -2l2 -1l1 -2l-1 2h2v-2l5 -3h4l1 -1v-1l1 1l-1 1h1l1 -1v-1l2 2h13l5 1l2 1l1 -1l3 1v1l1 -1l1 1h2l1 -1l1 1v-1h1l2 2v-1l1 1v-2h1l1 1h-1v1h1h1l1 1v-1h1l1 1l3 -1l1 1v-1h2h2l2 1l1 -1l1 1l1 -1l1 1l1 -1l2 1h1l1 1l2 -1v1l1 1l5 1v2l2 1l-3 2v1l-2 2l-2 -1l-2 -2h-1v2zM620 22942v-1h-1v1h1zM476 22941h-2l-1 -1h-2v-2l8 2l1 1h1h1h1l-1 2l-1 -1h-2l-1 -1h-1l-1 -1v1zM504 22943h-4l-2 -1h-1v1h-7l-3 -1v-1h1l1 1h2l1 -1v1h1l1 1l1 -1h-1v-1h8l2 1v1z"/><path class="chunk" data-i="5" d="M239 23164l-2 -2h1v-1h1h1l-1 1l1 2h-1zM185 23050h-3h-3h-3h-1l1 -1h2v-2l11 -1l2 1l1 -1l-1 -1h2v3l-8 2zM188 23048l1 -1h-3v1h2zM174 23050l-3 -1v-2h1v2v-1v-1h1v1l1 2z"/></g><path class="grain" fill="#000" fill-rule="evenodd" d="M156 23151h-3l1 -1h3l-1 1zM152 23151h-2v-1h2v1zM148 23151l-6 -1v-1l4 1h2v1zM138 23149h-1v-1h1v1zM135 23148h-1v-1h1v1zM65 23166h-1v-1h1v1zM82 23164h-1v-1h1v1zM88 23163h-1v-1h1v1zM69 23163h-1v-1h1v1zM90 23162h-1v-1h1v1zM77 23162h-1v-1h1v1zM62 23162h-2v-1h2v1zM95 23161h-1v-1h1v1zM93 23161h-1v-1h1v1zM86 23161h-1v-1h1v1zM72 23161h-1v-1h1v1zM67 23161h-1v-1h1v1zM64 23161h-1v-1h1v1zM89 23160h-1v-1h1v1zM98 23159l-3 1l1 -1l4 -1v1h-2zM95 23159h-1v-1h1v1zM62 23160h-2l2 -2v2zM58 23162v-4h1v2h1l-2 2zM96 23158h-1v-1h1v1zM61 23156h-1v-1h1v1zM109 23154v-1h2v1h-1h-1zM113 23150h-1v-1h1v1zM132 23146h-1v-1h1v1zM131 23145h-1v-1h1v1zM124 23143h2v1h-2v-1zM129 23143h-1v-1h1v1zM123 23143v-1h1v1h-1zM177 23140h1l-1 1v-1zM174 23140v-1l3 1h-3zM147 23140h-1v-1h1v1zM127 23140h-1v-1h1v1zM172 23139h-1v-1h1v1zM139 23138h-1v-1h1v1zM125 23136h-1l1 -3v3zM125 23133v-1h1v1h-1zM133 23131h-1v-1h1v1zM128 23131h-1v-1h1v1zM132 23130h-1v-1h1v1zM178 23048h-1v-1h1v1zM142 23048h-1v-1h1v1zM175 23047h-1v-1h1v1zM178 23046h-2v-1h2v1zM172 23045h-2v-1h2v1zM161 23045h-1v-1h1v1zM158 23045h-2v-1h3l-1 1zM169 23045l-1 -1v-1l1 1v1zM145 23043h-1v-1h1v1zM167 23042h-1v-1h1v1zM148 23042h-2v-1h2v1zM142 23045l-3 -1v-3h3l1 1l-1 2h1l-1 1zM144 23041h-2v-1h3l-1 1zM138 23041h-1v-1h1v1zM160 23040h-1l1 -1h1l-1 1zM157 23040h-1v-1h1v1zM154 23040h-1v-1h1v1zM148 23041l-2 -1v-1h4v1l-2 1zM146 23039h-1v-1h1v1zM140 23039h-1v-1h1v1zM148 23037h-2v-1h2v1zM56 23039h-1v-1h1v1zM54 23039h-1v-1h1v1zM65 23037l-4 1l1 -1h1l3 -1h1l-1 1h-1zM70 23036l-2 1v-1l2 -1h2v1h-2zM79 23035h-1v-1h1v1zM68 23030h-1v-1h1v1zM58 23028h-2v-1h2v1zM64 23027h-1l1 -1h1l-1 1zM74 23025h-1v-1h1v1zM-10 23061h-1v-1h1v1zM-6 23060h-1v-1h1v1zM-3 23059h-1v-1h1v1zM2 23057h-1v-1h1v1zM4 23055h-1v-1h1v1zM6 23054h-1l1 -1h1l-1 1zM8 23053h-1l1 -1h1l-1 1zM-1 23053h-1v-1h1v1zM-11 23053h-1v-1h1v1zM14 23052h-1v-1h1v1zM10 23052h-1v-1h1v1zM6 23052h-1v-1h1v1zM17 23050h-1v-1h1v1zM19 23049h-1v-1h1v1zM12 23050l-2 1v-3l2 1h2v1h-2zM14 23047l-1 -1h1v1zM23 23046h-1v-1h1v1zM26 23044h-1v-1h1v1zM28 23043h-1v-1h1v1zM29 23042h-1v-1h1v1zM31 23041h-1v-1h1v1zM26 23041h-1v-1h1v1zM34 23040h-1v-1h1v1zM52 23039h-1v-1h1v1zM48 23039h-1l1 -1h1l-1 1zM38 23039h-1v-1h1v1zM46 23038h-4v-1h4v1zM40 23038h-1v-1h1v1zM42 23037h-2v-1h2v1zM43 23035l-1 1v-1h1zM33 23035v-1h1v1h-1zM51 23032h-1v-1h1v1zM46 23031l-1 -1l3 -1h1l-1 1h-2v1zM46 23028h-1l1 -1h1l-1 1zM44 23029l-2 -1h-1l1 -1h2l1 1l-1 1zM41 23027h-1v-1h1v1zM36 23027h-1v-1h1v1zM-26 23059h-1v-1h1v1zM-24 23058h-1v-1h1v1zM-13 23057h-1v-1h1v1zM-18 23057h-1v-1h1v1zM-20 23058h-2l2 -2v2zM-23 23057h-1v-1h1v1zM-29 23057h-1v-1h1v1zM-15 23054h-1v-1h1v1zM-19 23054h-1v-1h1v1zM-22 23054l-1 -1v-1h1v2zM-25 23056h-3l-1 -2l3 -2h2l-1 2v2zM-23 23051h-1l-1 -1l1 -1l1 1v1zM-25 23050h-1v-1h1v1zM178 22944h-1v-1h1v1zM171 22944h-1v-1h1v1zM168 22944h-1v-1h1v1zM129 22938l1 -1v1h-1zM113 22942l-1 1v-1h1zM104 22942v1l-1 -1h1zM439 23221h-1v-1h1v1zM444 23219h-2v-1h2v1zM437 23218h-1v-1h1v1zM440 23217h-1v-1h1v1zM452 23216h-1v-1h1v1zM461 23214h-1v-1h1v1zM454 23214h-1v-1h1v1zM444 23214h-1v-1h1v1zM456 23214l-1 -1v-1h1v2zM437 23213h-1v-1h1v1zM466 23212h-1v-1h1v1zM458 23213v-1l2 -1h1l-1 1l-2 1zM440 23212h-1v-1h1v1zM428 23225h-1v-1h1v1zM429 23224h-1v-1h1v1zM432 23220h-1v-1h1v1zM436 23219h-2v-1h2v1zM427 23219h-1v-1h1v1zM434 23218h-1v-1h1v1zM430 23219v-1l2 -1v1l-2 1zM428 23217h-1v-1h1v1zM429 23216h-1v-1h1v1zM427 23216h-1v-1h1v1zM432 23215h-1v-1h1v1zM435 23214h-1v-1h1v1zM568 23197h-1v-1h1v1zM547 23199h-1v-1h1v1zM501 23197h-1v-1h1v1zM504 23192h-1v-1h1v1zM500 23191v-1l1 1h-1zM505 23189h-1v-1h1v1zM536 23187h-1v-1h1v1zM534 23187h-1v-1h1v1zM508 23187h-1v-1h1v1zM501 23187h-1v-1h1v1zM542 23186h-1l1 -1h1l-1 1zM513 23186h-1v-1h1v1zM510 23186h-1v-1h1v1zM548 23185h-2v-1h3l-1 1zM512 23185h-1v-1h1v1zM505 23185h-1v-1h1v1zM556 23184h-1v-1h1v1zM554 23184h-1v-1h1v1zM513 23184h-1v-1h1v1zM506 23184h-1l1 -1h1l-1 1zM510 23182h-1v-1h1v1zM516 23181h-1v-1h1v1zM512 23181h-2v-1h2v1zM514 23179h-1v-1h1v1zM527 23178h-1v-1h1v1zM516 23179l-1 -1v-1l1 1v1zM528 23176h-1v-1h1v1zM527 23172h-1v-1h1v1zM516 23176h-1l1 -4v-2h1l-1 6zM524 23169h-1v-1h1v1zM521 23169h-1v-1h1v1zM469 23211h-1v-1h1v1zM462 23211h-1l1 -1h1l-1 1zM464 23210h-1v-1h1v1zM460 23210h-1v-1h1v1zM462 23209h-1l1 -1h1l-1 1zM468 23207h2v1l-2 1l-1 -1h1v-1zM483 23206h-1v-1h1v1zM478 23206h-1v-1h1v1zM479 23205l-1 -1v-1l1 1v1zM482 23202h2h1l-1 1h-2v-1zM486 23202h-1v-1h1v1zM481 23202l1 -1v1h-1zM496 23200h-1v-1h1v1zM494 23197v-1h1l-1 1zM499 23193h-1v-1h1v1zM490 23193h-1v-1h1v1zM500 23192h-1l1 -1v1zM497 23190h-1v-1h1v1zM498 23189h-1v-1h1v1zM312 23157h-1v-1h1v1zM310 23156h-1v-1h1v1zM317 23155h-1v-1h1v1zM318 23154h-1v-1h1v1zM314 23155l-1 -1l1 -1h1v1l-1 1zM321 23153h-1v-1h1v1zM317 23153h-1v-1h1v1zM322 23152h-1v-1h1v1zM318 23152h-1l1 -1h1l-1 1zM321 23151h-1v-1h1v1zM312 23151h-1v-1h1v1zM315 23150h-1v-1h1v1zM326 23149h-1v-1h1v1zM332 23148h-2v-1h2v1zM319 23148h-1v-1h1v1zM265 23169h-1v-1h1v1zM249 23169h-1v-1h1v1zM247 23169h-1v-1h1v1zM245 23168h-1v-1h1v1zM276 23168h-2l2 -2v2zM278 23166h-1v-1h1v1zM273 23168h-1v-3l1 1v2zM269 23166h-1v-1h1v1zM250 23165h-1v-1h1v1zM258 23164h-1v-1h1v1zM254 23165l-1 -1l1 -1h1v1l-1 1zM246 23166l-1 -2l3 -1l1 1l-3 2zM256 23163h-1v-1h1v1zM252 23163h-2v-1h3l-1 1zM301 23162h-1v-1h1v1zM302 23160v1l-1 -1h1zM298 23162l-2 -2h2l1 2h-1zM254 23161h-1v-1h1v1zM250 23161h-1v-1h1v1zM301 23160h-3v-1h3v1zM251 23160h-1v-1h1v1zM246 23160h-1v-1h1v1zM632 23092h-2v-1h2v1zM626 23098l-1 -1l1 -2l1 1l-1 2zM621 23096h-1v-1h1v1zM565 23096h-1v-1h1v1zM628 23095l-1 -1l3 -2v2l-2 1zM624 23096l-1 -1l1 -1h1l-1 2zM565 23094h-1v-1h1v1zM622 23093h-1l1 -1h1l-1 1zM571 23093h-1v-1h1v1zM568 23093h-2v-1h2v1zM624 23092h-1v-1h1v1zM573 23092h-1v-1h1v1zM569 23092h-1v-1h1v1zM619 23091h-1v-1h1v1zM616 23091h-2v-1h2v1zM605 23091h-1v-1h1v1zM571 23091h-1v-1h1v1zM622 23090h-3l1 -1h2v1zM572 23090h-1v-1h1v1zM574 23089h-1v-1h1v1zM576 23088h-1v-1h1v1zM616 23087h-1v-1h1v1zM613 23087h-1v-1h1v1zM596 23087v-1l1 1h-1zM578 23087h-2v-1h2v1zM624 23085h-5l1 -1h4v1zM618 23086l-4 -1v-1h4v2zM565 23085h-1v-1h1v1zM604 23085h-5v-1l1 -1v1h4v1zM592 23084h2v-1h4v1l-6 1v-1zM536 23108h-1v-1h1v1zM541 23102h-1v-1h1v1zM529 23102h-1v-1h1v1zM534 23101h-2v-1h2v1zM545 23100h-1v-1h1v1zM538 23100h-1v-1h1v1zM554 23099h-1v-1h1v1zM550 23099h-2v-1h2v1zM547 23100l-1 -1v-1h1v2zM533 23099h-1v-1h1v1zM531 23099h-1v-1h1v1zM552 23098h-2v-1h2v1zM544 23098h-2v-1h2v1zM536 23098h-1v-1h1v1zM541 23097h-1v-1h1v1zM530 23097h-1v-1h1v1zM561 23096h-1v-1h1v1zM531 23096h-1v-1h1v1zM562 23095h-1v-1h1v1zM551 23095h-1v-1h1v1zM556 23094h-1v-1h1v1zM549 23094h-1v-1h1v1zM540 23094h-1v-1h1v1zM554 23092h-1v-1h1v1zM534 23092h-1l1 -1h1l-1 1zM532 23091h-1v-1h1v1zM550 23090h-1v-1h1v1zM535 23090h-1v-1h1v1zM533 23090h-1v-1h1v1zM559 23088h-1v-1h1v1zM554 23088h-1v-1h1v1zM532 23088h-2v-1h3l-1 1zM528 23088h-1l1 -1h1l-1 1zM562 23084h-1v-1h1v1zM321 23147h-1v-1h1v1zM332 23146h-1v-1h1v1zM339 23145h-1v-1h1v1zM335 23145h-1v-1h1v1zM326 23145h-1v-1h1v1zM342 23144h-1v-1h1v1zM328 23144h-1l1 -1h1l-1 1zM343 23143h-1v-1h1v1zM340 23143h-1v-1h1v1zM330 23143h-1v-1h1v1zM346 23142h-1l1 -1h1l-1 1zM336 23141h-3l1 -1h2v1zM352 23140h-1v-1h1v1zM338 23140h-1v-1h1v1zM340 23139h-1v-1h1v1zM358 23138h-1v-1h1v1zM356 23138h-1v-1h1v1zM354 23138h-1v-1h1v1zM348 23138h-1v-1h1v1zM352 23137h-3l1 -1h2v1zM343 23137h-1v-1h1v1zM360 23137l-1 -1l1 -1l1 1l-1 1zM358 23136h-1v-1h1v1zM363 23135h-1v-1h1v1zM354 23135h-1l1 -1h1l-1 1zM347 23135h-1v-1h1v1zM361 23134h-1v-1h1v1zM356 23134h-1v-1h1v1zM349 23134h-1v-1h1v1zM352 23133h-1v-1h1v1zM372 23132h-1v-1h1v1zM358 23134l-1 -1l1 -2l1 1l-1 2zM355 23132h-1v-1h1v1zM356 23131h-1v-1h1v1zM360 23132v-1l2 -1l2 -1v1l-2 1l-2 1zM366 23129h-1v-1h1v1zM359 23129l-1 -1v-1l1 1v1zM363 23126l-1 1l-1 -1l1 -1l4 -1l-2 2h-1zM368 23124h-1l3 -3l1 1l-3 2zM565 23083h-1v-1h1v1zM568 23081h-1v-1h1v1zM586 23079v-1h2v2l-2 -1zM569 23079h-1v-1h1v1zM589 23078h-1v-1h1v1zM574 23077h-1v-1h1v1zM592 23036h-1v-1h1v1zM590 23034h-1v-1h1v1zM567 23033h-1v-1h1v1zM564 23082h-1v-1h1v1zM561 23032h-1v-1h1v1zM558 23031h-1v-1h1v1zM524 23031h-1l1 -1h1l-1 1zM530 23030h-1l1 -1h1l-1 1zM539 23028h-1v-1h1v1zM519 23028h-1v-1h1v1zM540 23027h-1v-1h1v1zM530 23027h-1v-1h1v1zM526 23027h-1l1 -1h1l-1 1zM544 23026h-2v-1h2v1zM532 23026h-2v-1h3l-1 1zM525 23026h-1v-1h1v1zM524 23027h-2l-1 -1l1 -1l2 1v1zM520 23026h-1v-1h1v1zM518 23026h-1v-1h1v1zM514 23026h-1v-1h1v1zM510 23026h-1l1 -1h1l-1 1zM527 23025h-1v-1h1v1zM544 23024h-1v-1h1v1zM540 23024h-3l1 -1h3l-1 1zM534 23024h-1v-1h1v1zM530 23025h-2v-1v-1l2 1v1zM547 23023h-1v-1h1v1zM543 23023h-1v-1h1v1zM532 23023h-1l1 -1h1l-1 1zM515 23023h-1v-1h1v1zM512 23023h-1v-1h1v1zM500 23022h1l-1 1v-1zM546 23022h-2v-1h2v1zM540 23022h-3l1 -1h2v1zM536 23023h-2v-1l2 -1v1v1zM526 23022h-3l1 -1h3l-1 1zM522 23023l-1 -1v-1l1 1v1zM510 23022h-1v-1h1v1zM508 23022h-1v-1h1v1zM548 23021h-1v-1h1v1zM542 23021h-2v-1h2v1zM532 23021h-2v-1h2v1zM506 23021h-1v-1h1v1zM536 23020h-3l1 -1h2v1zM507 23020h-1v-1h1v1zM504 23021l-1 -1v-1l1 1v1zM438 23052h-1v-1h1v1zM446 23048l-2 -2h2v2zM440 23046v1l-1 -1h1zM440 23045h2v1h-2v-1zM452 23044h-1v-1h1v1zM444 23044l-2 -2h2l1 2h-1zM441 23043h-1v-1h1v1zM449 23042h-1v-1h1v1zM438 23042h-1v-1h1v1zM446 23042l-1 -1l1 -1h1l-1 2zM460 23040h-1v-1h1v1zM442 23040h-1v-1h1v1zM462 23039h-1v-1h1v1zM455 23039h-1v-1h1v1zM444 23039h-1v-1h1v1zM465 23037h-1v-1h1v1zM448 23037h-1v-1h1v1zM468 23036h-2v-1h2v1zM450 23036h-1v-1h1v1zM470 23035h-1v-1h1v1zM452 23035h-1v-1h1v1zM471 23034h-1v-1h1v1zM454 23034h-1v-1h1v1zM473 23033h-1v-1h1v1zM469 23033h-1v-1h1v1zM471 23032h-1v-1h1v1zM475 23032l-1 -1v-1h1v2zM460 23031h-1v-1h1v1zM482 23030h-1v-1h1v1zM478 23029l-2 2v-1v-1h2zM472 23031l-1 -1l1 -1h2v1l-2 1zM484 23029h-1v-1h1v1zM476 23029h-2v-1h2v1zM486 23028h-1v-1h1v1zM499 23027h-1v-1h1v1zM487 23027h-1v-1h1v1zM489 23026h-1v-1h1v1zM471 23025h-1v-1h1v1zM492 23024h-1v-1h1v1zM494 23023h-1v-1h1v1zM499 23022l1 -1v1h-1zM499 23021h-1v-1h1v1zM435 23051h-1v-1h1v1zM433 23049h-1v-1h1v1zM433 23045h-1v-1h1v1zM435 23043h-1v-1h1v1zM261 23038h-1v-1h1v1zM296 23037h-1v-1h1v1zM282 23036v1l-1 -1h1zM289 23037l-1 -1v-1l1 1v1zM281 23036h-3l-2 1v-1v-1h5v1zM274 23036h-1l1 -1h1l-1 1zM272 23036h-1v-1h1v1zM270 23037h-5l1 -1l2 -1v1h2v1zM249 23036h-1v-1h1v1zM298 23036l-1 -1v-1h1v2zM290 23035h-1v-1h1v1zM288 23035h-2v-1h2v1zM253 23035h-1v-1h1v1zM295 23034h-1v-1h1v1zM263 23034h-1v-1h1v1zM260 23034h-3l1 -1h3l-1 1zM298 23033h-1v-1h1v1zM294 23033h-1v-1h1v1zM290 23033h-1v-1h1v1zM268 23033h-2v-1h3l-1 1zM264 23033h-1l1 -1h1l-1 1zM250 23034l-1 -1v-1h1v2zM247 23033h-1v-1h1v1zM289 23032h-1v-1h1v1zM278 23032h-5l1 -1h5l-1 1zM294 23031h-1v-1h1v1zM284 23031h-1l1 -1h1l-1 1zM282 23031h-2v-1h2v1zM260 23031h-1v-1h1v1zM251 23031h-1v-1h1v1zM297 23031l-1 -1v-1l1 1v1zM266 23030h-2v-1h2v1zM263 23030h-1v-1h1v1zM275 23029h-1v-1h1v1zM272 23029h-2v-1h2v1zM280 23028h-2v-1h3l-1 1zM277 23028h-1v-1h1v1zM253 23028h-1v-1h1v1zM590 23019h-1v-1h1v1zM583 23019h-1v-1h1v1zM569 23019h-1v-1h1v1zM544 23020h-2l2 -2h2v1l-2 1zM538 23019h-2v-1h2v1zM539 23018h-1v-1h1v1zM536 23018h-1v-1h1v1zM502 23019h-1v-1l1 -1l1 1l-1 1zM547 23016h-1v-1h1v1zM502 23016h-1v-1h1v1zM546 23015h-1v-1h1v1zM500 23017l-2 -1v-1h2v1v1zM491 23016h-1v-1h1v1zM492 23014h-1v-1h1v1zM498 23013h-1v-1h1v1zM496 23012h-1v-1h1v1zM272 22955l1 1h-1v-1zM623 22941l-1 2l-1 -1v-1h2zM597 22933v-1h1v1h-1zM581 22933v-1h1v1h-1zM591 22932h-1v-1h1v1zM587 22932h-1v-1h1v1zM580 22932h-2v-1h2v1zM575 22932h-1v-1h1v1zM570 22931h-1l1 -1h1l-1 1zM567 22931h-1v-1h1v1zM520 22938h-3l1 -1h3l-1 1zM505 22938l-1 -1v-1h1v2zM507 22935v-1h1v1h-1zM532 22933h-1v-1h1v1zM526 22934v-2h4v1l-3 1h-1zM524 22933h-2v-1h3l-1 1zM512 22933h-2v-1h2v1zM509 22933h-1v-1h1v1zM504 22933h-2v-1h3l-1 1zM550 22932h-2v-1h2v1zM546 22932h-1l1 -1h1l-1 1zM542 22932h-1v-1h1v1zM537 22932v-1h3v2l-2 -1h-1zM535 22932h-1v-1h1v1zM564 22932h-1l-3 -1h-1l1 -1h4l1 2h-1zM476 22939v1l-1 -1h1zM486 22939h-1v-1h1v1zM460 22939h-1v-1h1v1zM488 22939h-1v-1l1 -1l1 1l-1 1zM468 22939l-2 -1v-1h2v1v1zM466 22939h-5l1 -1l2 -1v1h2v1zM465 22937h-1v-1h1v1zM456 22937h-1v-1h1v1zM441 22936h-1v-1h1v1zM438 22936h-1v-1h1v1zM491 22934h-1v-1h1v1zM440 22934h-1l1 -1h1l-1 1zM438 22934h-1v-1h1v1zM429 22936h-1v-1h1v1zM433 22934h-1v-1h1v1zM430 22934h-2v-1h3l-1 1zM426 22934h-1l1 -1h1l-1 1zM348 22899h-1l1 -1h1l-1 1zM288 22947v1l-2 -1h2zM288 22946h1l-1 1v-1zM286 22947l-1 -1h1v1zM286 22946v-2l2 2h-2zM272 22943h-1l1 -1h1l-1 1zM270 22943h-1v-1h1v1zM268 22942h-3l1 -1h2v1zM264 22942h-1v-1h1v1zM270 22940h-1v-1h1v1zM259 22939l1 1v1h-5l1 -1l2 -1h1zM254 22940h-1v-1h1v1zM252 22940h-1v-1h1v1zM264 22938h1l-1 1v-1zM268 22940h-3l1 -1h1v-1v-1l1 1v2zM263 22938l1 -1v1h-1zM261 22938l1 -1v1h-1zM337 22851h-1v-1h1v1zM375 22788h-1v-1h1v1zM376 22787h-1v-1h1v1zM342 22820h-2v-1h2v1zM340 22785h-1v-1h1v1zM372 22788l-3 -2l-1 -2l2 -1h1v1l2 2l-1 2zM243 23161h-1v-1h1v1zM181 23148h-1v-1h1v1zM181 23146h-1v-1h1v1zM180 23143h-1v-1h1v1zM192 23051h-1v-1h1v1zM200 23049h-1v-1h1v1zM208 23047h-1v-1h1v1zM186 23047h-1v-1h1v1zM207 23045h-1v-1h1v1zM202 23046v-1l2 -1l-2 2zM201 23046h-1h-1l1 -2h1v2zM208 23044h-1l1 -1h1l-1 1zM202 23044h-1v-1h1v1zM214 23042v1l-1 -1h1zM212 23043h-2v-1h2v1zM207 23043h-1v-1h1v1zM205 23043h-1v-1h1v1zM203 23043h-1v-1h1v1zM214 23041h2v1h-2v-1zM210 23042h-1v-1h1v1zM218 23042l-1 -1v-1h1v2zM213 23042h-1v-2l2 1l-1 1zM217 23040h-1v-1h1v1zM226 23039h-1v-1h1v1zM221 23039h-1v-1h1v1zM228 23038h-1v-1h1v1zM210 23038h-1v-1h1v1zM230 23037h-1l1 -1h1l-1 1zM226 23037h-1v-1h1v1zM233 23036h-1v-1h1v1zM234 23035h-1v-1h1v1zM222 23035h-1v-1h1v1zM238 23034h-1v-1h1v1zM224 23034h-1v-1h1v1zM235 23033h-1v-1h1v1zM242 23030h-1v-1h1v1zM234 23030h-1v-1h1v1zM236 23029h-1v-1h1v1zM238 23028h-1v-1h1v1zM241 23026h-1v-1h1v1zM244 23025h-1v-1h1v1zM224 22941h-1l1 -1h1l-1 1zM222 22941h-1v-1h1v1zM215 22940l-1 1v-1h1zM210 22941h-3l1 -1h2v1zM220 22939v1l-1 -1h1zM215 22940l1 -1h1v1l-1 1l-1 -1zM242 22939h-5l1 -1h4v1zM232 22939h-1v-1h1v1zM230 22939h-1v-1h1v1zM226 22939h-1l1 -1h1l-1 1zM224 22939h-1v-1h1v1z"/></svg>