<svg xmlns="http://www.w3.org/2000/svg" viewBox="-631 13534 1478 466"><g class="wash s"><path class="w" fill="#8fd96f" opacity="0.501961" fill-rule="evenodd" d="M-476 13706v-3l-2 1l2 2zM-472 13704v-1h-2v1h2zM-468 13704v-1h-2l-1 1h3zM-471 13706v-1h-1v1h1zM-468 13706v-1h-1v1h1zM-479 13707v-1h-1v1h1zM-474 13708l1 -1h-1l-4 -1l2 2h2zM-470 13707v-1h-1v1h1zM-467 13707v-1h-1v1h1zM-465 13707v-1h-1v1h1zM-461 13707v-1h-1v1h1zM-471 13709v-1h-1v1h1zM-466 13712l-1 -2h-2l1 2h2zM-463 13712v-2h-1l-2 -1v1l2 2h1zM-474 13714l2 1l3 -1h-3l3 -1l-1 -3l-3 2l-5 -1l-1 1l1 2h4zM-467 13715v-1h-1v1h1zM-461 13715v-1h-1v1h1zM-476 13716l1 -1h-1l-1 1h1zM-460 13716l1 -1h-1l-1 1h1zM-464 13717v-1h-1v1h1zM-457 13718v-2h-1v1l1 1zM-467 13718v-1h-1v1h1zM-459 13718v-1h-1v1h1zM-476 13719v-1h-1v1h1zM-472 13719v-1h-1v1h1zM-468 13721v-3h-2l1 2l1 1zM-460 13719v-1h-1v1h1zM-456 13719v-1h-1v1h1zM-465 13721v-2h-2v2h2zM-461 13720v-1h-1v1h1zM-457 13721v-1l-1 -1v1l1 1zM-477 13721v-1h-1v1h1zM-473 13721v-1h-1v1h1zM-455 13721v-1h-1v1h1zM-462 13722v-1h-1v1h1zM-456 13722v-1h-1v1h1zM-470 13723v-1h-1v1h1zM-463 13723v-1h-1v1h1zM-459 13723v-1h-1v1h1zM-450 13723v-1h-1v1h1zM-464 13724v-1h-1v1h1zM-462 13724v-1h-1v1h1zM-460 13724v-1h-1v1h1zM-458 13725v-1l-1 -1v1l1 1zM-451 13725v-1l-1 -1v1l1 1zM-465 13725v-1h-1v1h1zM-456 13725v-1h-1v1h1zM-463 13726v-1h-1v1h1zM-462 13727l2 -1v-1l-2 1v1zM-457 13726v-1h-1v1h1zM-453 13726v-1h-1v1h1zM-459 13727v-1h-1v1h1zM-463 13728v-1h-1v1h1zM-454 13728v-1h-1v1h1zM-464 13729v-1h-1v1h1zM-461 13729v-1h-1v1h1zM-469 13730v-1h-1v1h1zM-462 13730v-1h-1v1h1zM-456 13730l1 -1h-1l-1 1h1zM-463 13731v-1h-1v1h1zM-460 13732v-1h-1v1h1zM-457 13733v-1h-1v1h1zM-454 13733v-1h-2v1h2zM-462 13735v-1v-1l-2 1v1h2zM-460 13735v-1l-1 -1v1l1 1zM-456 13734v-1h-1v1h1zM-453 13734v-1h-1v1h1zM-464 13736v-1h-1v1h1zM-455 13736v-1h-1v1h1zM-460 13737v-1h-1v1h1zM-456 13737v-1h-1v1h1zM-446 13719v-1h-1v1h1zM-469 13738v-1h-1v1h1zM-466 13737l1 -1h-1v-1l-1 1h-1v1h1v1l1 1v-1v-1zM-462 13738v-1h-2v1h2zM-455 13738v-1h-1v1h1zM-470 13740v-2h-1v1l1 1zM-461 13740v-2h-1v1l1 1zM-472 13740v-1h-1v1h1zM-468 13740v-1h-1v1h1zM-462 13742v-2h-2v-1l-2 1v1l4 1zM-467 13741v-1h-1v1h1zM-453 13741v-1h-1v1h1zM-479 13742l7 -5l1 -2l2 -1l5 -2l-2 -2l-1 3l-1 -2l-2 2l-4 1l-3 3l-1 2l-2 1l-2 2h-3l-1 4l2 2l4 -4l1 -2zM-470 13742v-1h-2v1h2zM-472 13743v-1h-1v1h1zM-468 13746l2 -2v-1h-2l-2 3h2zM-478 13745v-1h-1v1h1zM-475 13747v-1l-1 -1v1l1 1zM-472 13747v-1l-1 -1v1l1 1zM-466 13746v-1h-1v1h1zM-470 13747v-1h-1v1h1zM-478 13749v-1l-1 -1v1l1 1zM-470 13750h1l-3 -3l-1 1l1 1l2 1zM-465 13749v-1l-1 -1v1l1 1zM-480 13749v-1h-1v1h1zM-475 13749v-1h-1v1h1zM-468 13749v-1h-1v1h1zM-467 13751v-1l-1 -1v1l1 1zM-474 13751l1 -1h-1l-1 1h1zM-464 13751v-1h-1v1h1zM-471 13752v-1h-1v1h1zM-469 13752v-1h-1v1h1zM-478 13753v-1h-1v1h1zM-482 13756v-1h-1v1h1zM-466 13756v-1h-1v1h1zM-464 13756v-1h-1v1h1zM-448 13756v-1h-1v1h1zM-479 13757v-1h-1v1h1zM-472 13757v-1h-1v1h1zM-475 13758v-1h-1v1h1zM-449 13758v-1h-1v1h1zM-472 13759v-1h-2v1h2zM-452 13760h1v-2h-1h-1l1 2zM-483 13762v-2l-1 -1v3h1zM-456 13760l1 -1h-1l-1 1h1zM-453 13760v-1h-1v1h1zM-458 13762v-2h-2l-1 1h1l2 1zM-474 13763v-1l-1 -1v1l1 1zM-465 13762v-1h-1v1h1zM-461 13762v-1h-1v1h1zM-449 13762v-1h-1v1h1zM-468 13764l-2 -2v1h-2v1h4zM-466 13763v-1h-2v1h2zM-464 13763l1 -1h-1l-1 1h1zM-454 13763v-1h-2v1h2zM-450 13763v-1h-1v1h1zM-479 13764v-1h-1v1h1zM-474 13765v-1h-2v1h2zM-462 13765l1 -1h-3v1h2zM-479 13766v-1h-1v1h1zM-468 13766l1 -1h-5l-1 1h5zM-455 13766v-1h-1v1h1zM-452 13765l1 -1h-1v-1l-1 1h-1v1h1l1 1v-1zM-448 13767l-2 -2l-1 1l2 2l1 -1zM-482 13767v-1h-1v1h1zM-478 13768v-2h-1v1l1 1zM-463 13767v-1h-1v1h1zM-458 13769l1 -3l-3 1l2 2zM-479 13769v-1h-1v1h1zM-475 13769v-1h-1v1h1zM-463 13769v-1h-1v1h1zM-460 13769v-1h-2v1h2zM-454 13770l2 -2h-2l-1 2h1zM-480 13770v-1h-1v1h1zM-478 13770v-1h-1v1h1zM-472 13770v-1h-1v1h1zM-470 13770v-1h-1v1h1zM-465 13770v-1h-1v1h1zM-462 13771l1 -1l-1 -1l-1 1v1h1zM-464 13771v-1h-1v1h1zM-448 13771v-1h-1v1h1zM-477 13772v-1h-1v1h1zM-466 13772v-1h-1v1h1zM-463 13772v-1h-1v1h1zM-457 13772v-1h-1v1h1zM-451 13773v-1l-1 -1l-1 1l1 1h1zM-473 13773v-1h-1v1h1zM-468 13773v-1h-1v1h1zM-459 13773v-1h-1v1h1zM-449 13773v-1h-1v1h1zM-470 13774v-1h-1v1h1zM-460 13774v-1h-2v1h2zM-453 13774v-1h-1v1h1zM-450 13774v-1h-1v1h1zM-471 13775v-1h-1v1h1zM-463 13775v-1h-1v1h1zM-455 13775v-1h-1v1h1zM-452 13775v-1h-1v1h1zM-448 13776h1l-1 -2h-2v2h2zM-464 13776v-1h-2v1h2zM-451 13776v-1h-1v1h1zM-466 13777v-1h-2v1h2zM-458 13777v-1h-2v1h2zM-452 13777v-1h-2v1h2zM-458 13780l2 -2l-2 -1l-1 3h1zM-454 13778v-1h-2v1h2zM-459 13779v-1h-1v1h1zM-463 13781v-1h-1v1h1zM-461 13783l3 -1l-2 -2l-3 1v2h2zM-454 13781v-1h-2l-1 1h3zM-449 13780l-4 -1l2 2l1 3l3 1l-1 -3l-1 -2zM-453 13783v-1l-1 -1v1l1 1zM-484 13783v-1h-1v1h1zM-480 13785v-1h-1v1h1zM-476 13785v-1h-1v1h1zM-458 13785v-1h-1v1h1zM-476 13789l-2 -2l-1 -2l-1 3l4 1zM-462 13786l1 -1h-1l-1 1h1zM-456 13786v-1h-1v1h1zM-475 13787v-1h-1v1h1zM-464 13787v-1h-2v1h2zM-452 13786l-2 -3l-1 3l-1 1h-4v2l6 -1l2 2l2 2l2 -1l2 -1v-4h-6zM-472 13788v-1h-1v1h1zM-467 13788v-1h-1v1h1zM-493 13789v-1h-1v1h1zM-486 13789v-1h-1v1h1zM-473 13790v-2h-1v1l1 1zM-471 13789v-1h-1v1h1zM-463 13789v-1h-1v1h1zM-482 13790v-1h-2v1h2zM-475 13791v-1l-1 -1l-1 1l1 1h1zM-467 13790v-1h-1v1h1zM-457 13790v-1h-1v1h1zM-493 13791v-1h-1v1h1zM-485 13791v-1h-1v1h1zM-478 13793l1 -1l-1 -1l-2 -1h-1l3 3zM-466 13791v-1h-1v1h1zM-464 13791l1 -1h-1l-1 1h1zM-459 13791v-1h-1v1h1zM-461 13793v-1l-1 -1l-1 1l1 1h1zM-482 13794l1 -2h-1l-1 1l1 1zM-469 13792l-3 -1l2 2l2 2l1 -1l-2 -2zM-486 13795l2 -1v-1l-2 1v1zM-480 13795v-1l-1 -1v1l1 1zM-475 13794v-1h-1v1h1zM-464 13794v-1h-1v1h1zM-487 13795v-1h-1v1h1zM-476 13795v-1h-2v1h2zM-474 13795v-1h-1v1h1zM-472 13796h2l-2 -2l-2 1l2 1zM-465 13795v-1h-1v1h1zM-459 13795v-1h-1v1h1zM-452 13794l2 -2l-3 1l-1 -3v3l-2 3l1 2l3 -1l1 -1l-1 -2zM-448 13795l1 -1h-1l-1 1h1zM-479 13796v-1h-1v1h1zM-467 13796v-1h-1v1h1zM-482 13797v-1h-1v1h1zM-469 13797v-1h-1v1h1zM-456 13797v-1h-1v1h1zM-484 13798v-1h-2v1h2zM-474 13798v-1h-1v1h1zM-471 13798v-1h-1v1h1zM-464 13798v-1h-1v1h1zM-460 13800l1 -2l-1 -1h-2v3h2zM-458 13798v-1h-1v1h1zM-477 13799v-1h-1v1h1zM-455 13799v-1h-1v1h1zM-476 13800v-1h-1v1h1zM-474 13800l1 -1h-1l-1 1h1zM-490 13801v-1h-1v1h1zM-464 13801l1 -1h-1l-1 1h1zM-456 13801v-1h-1v1h1zM-439 13753v-1h-1v1h1zM-436 13754v-1h-1v1h1zM-442 13757l1 -1l-1 -2h-1v2l1 1zM-440 13756l2 -2l-2 1v1zM-435 13756h1l-1 -1l-1 -1v1l-1 1h1v1l1 -1zM-445 13758v-1h-1v1h1zM-443 13759v-1l-1 -1v1l1 1zM-440 13758l1 -1h-3v1h2zM-446 13760l1 -1h-1l-1 1h1zM-437 13760v-1h-1v1h1zM-434 13761v-1l-1 -1v1l1 1zM-447 13761v-1h-1v1h1zM-440 13761v-1h-1v1h1zM-446 13762v-1h-1v1h1zM-443 13762v-1h-1v1h1zM-441 13762v-1h-1v1h1zM-439 13762v-1h-1v1h1zM-447 13763v-1h-1v1h1zM-433 13763v-1h-1v1h1zM-444 13766v-2l-1 -1v3h1zM-441 13764v-1h-1v1h1zM-439 13764v-1h-1v1h1zM-447 13765v-1h-1v1h1zM-442 13765v-1h-1v1h1zM-435 13764h1l-1 -1l-1 -1v1l-1 1h1v1l1 -1zM-440 13767v-1h-1v1h1zM-437 13767v-1h-1v1h1zM-445 13769v-1h-1v1h1zM-446 13770v-1h-1v1h1zM-444 13770v-1h-1v1h1zM-446 13773l1 -1h-1l-1 1h1zM-447 13774v-1h-1v1h1zM-444 13777v-1h-1v1h1zM-439 13782v-1h-1v1h1zM-445 13786v-2l-1 -1v3h1zM-439 13787v-1h-1v1h1zM-441 13788v-1h-1v1h1zM-442 13791l1 -1h-1v-1l-1 1h-1v1h1l1 1v-1zM-447 13793v-1h-1v1h1zM-445 13794v-1h-1v1h1zM-438 13804l2 -2v-2h-1l-1 2v2zM-430 13802h1v-2h-5l-1 1h1l4 1zM-477 13802v-1h-1v1h1zM-461 13804v-2l-1 -1v3h1zM-458 13802v-1h-1v1h1zM-454 13802v-1h-1v1h1zM-451 13802v-1h-1v1h1zM-490 13803v-1h-1v1h1zM-483 13802l4 -1l-1 -3l-4 2l-2 2l2 1l1 -1zM-466 13803v-1h-1v1h1zM-480 13804l1 -1h-1l-1 1h1zM-468 13804l1 -1h-1l-1 1h1zM-449 13804v-1h-1v1h1zM-481 13805v-1h-1v1h1zM-469 13805v-1h-1v1h1zM-458 13805v-1h-1v1h1zM-453 13805v-1h-1v1h1zM-451 13805v-1h-1v1h1zM-483 13806v-1h-1v1h1zM-472 13807l1 -1l-1 -1l-2 1v1h2zM-450 13806v-1h-1v1h1zM-485 13807v-1h-1v1h1zM-452 13807v-1h-2v1h2zM-474 13808v-1h-1v1h1zM-471 13808v-1h-1v1h1zM-465 13809v-1l-1 -1v1l1 1zM-458 13808v-1h-1v1h1zM-455 13808v-1h-1v1h1zM-488 13808l2 -2l2 -2h-6l-3 2l2 2l2 2l1 -2zM-476 13810l1 -2h-1l-2 2h2zM-461 13809v-1h-1v1h1zM-456 13810v-2h-2l-2 1l-1 1h5zM-454 13810v-2h-1v1l1 1zM-481 13812l2 -2l-3 1l-1 1h2zM-475 13811v-1h-1v1h1zM-472 13811v-1h-1v1h1zM-462 13812l1 -1h-1l-2 -1v2h2zM-476 13812v-1h-1v1h1zM-474 13812v-1h-1v1h1zM-458 13812v-1h-1v1h1zM-478 13813v-1h-1v1h1zM-471 13813v-1h-1v1h1zM-469 13813v-1h-1v1h1zM-465 13813v-1h-1v1h1zM-460 13813l1 -1h-1l-1 1h1zM-479 13814v-1h-1v1h1zM-474 13814v-1h-1v1h1zM-467 13814v-1h-1v1h1zM-463 13814v-1h-1v1h1zM-492 13819v-5h-1v4l1 1zM-484 13815v-1h-2v1h2zM-481 13815v-1h-1v1h1zM-476 13815l1 -1h-1l-1 1h1zM-472 13816h1l-1 -2h-1v2h1zM-468 13816l-2 -2v2h2zM-448 13815l1 -1h-3v1h2zM-488 13818l2 -2v-1l-4 1v2h2zM-482 13816v-1h-1v1h1zM-480 13816v-1h-1v1h1zM-450 13816v-1h-2v1h2zM-485 13817v-1h-1v1h1zM-474 13817l1 -1h-1l-1 1h1zM-462 13820l6 -2l4 -1l-3 -1l-8 4l-2 1l3 -1zM-476 13818v-1h-2v1h2zM-470 13818v-1h-2v1h2zM-490 13819v-1h-1v1h1zM-478 13819v-1h-1v1h1zM-491 13820v-1h-1v1h1zM-488 13820v-1h-1v1h1zM-480 13821v-1l-1 -1v1l1 1zM-493 13821v-1h-1v1h1zM-490 13821v-1h-1v1h1zM-482 13821v-1h-2v1h2zM-469 13822v-1h-1v1h1zM-466 13822v-1h-2v1h2zM-494 13823v-1h-1v1h1zM-488 13823l1 -1h-1l-1 1h1zM-476 13823v-1h-1v1h1zM-472 13823v-1h-1v1h1zM-495 13825v-1h-1v1h1zM-440 13802v-1h-1v1h1zM-444 13803l1 -1h-1l-1 1h1zM-427 13803v-1h-1v1h1zM-446 13804v-1h-1v1h1zM-428 13804v-1h-1v1h1zM-432 13805v-1h-1v1h1zM-438 13806v-1h-2v1h2zM-428 13812v-2v-4l-2 4v2h2zM-436 13811l1 -5l-2 4l1 1zM-443 13808v-1h-1v1h1zM-439 13808v-1h-1v1h1zM-440 13809v-1h-1v1h1zM-432 13809v-1h-1v1h1zM-441 13811v-1h-1v1h1zM-426 13811v-1h-1v1h1zM-440 13813l1 -1v-1h-1l-1 1l1 1zM-435 13812v-1h-1v1h1zM-432 13812v-1h-2v1h2zM-424 13812v-1h-2v1h2zM-445 13814v-2h-1v1l1 1zM-441 13819l-1 -7v6l1 1zM-434 13813v-1h-1v1h1zM-439 13816v-2h-1v1l1 1zM-432 13815l1 -1h-1l-1 1h1zM-428 13815v-1h-1v1h1zM-420 13816v-1h-1v1h1zM-434 13817v-1h-1v1h1zM-425 13818v-2h-1v1l1 1zM-423 13817v-1h-1v1h1zM-422 13818v-1h-1v1h1zM-432 13820l-2 -2l-2 1l4 1zM-428 13819l1 -1h-1l-1 1h1zM-430 13820v-1h-1v1h1zM-424 13820l1 -1h-1l-1 1h1zM-438 13821v-1h-1v1h1zM-437 13822l-4 1l-4 1l-7 3l-26 1l-2 -1h-6h-4h-6l-1 -3l1 -2l2 -4h-4v-3l3 1l1 -2l2 -3l-2 -2l-2 -1l-2 -4l1 -4l3 1l2 -2l2 -1l4 -1l-3 -1v-3l3 -1l-5 -1l-2 1l-2 2l1 -7v-5l1 -5l4 1l6 2l3 1l2 2l6 3h4l4 -1v-3l-2 -2h-4l-2 -3l-6 -2l-14 -4l3 -26l1 -3l1 -2l-1 -6v-3l1 -3v-3l1 -5l1 -2l1 -3l2 -1h3l-1 -2l-4 -1l6 -2l-4 -2l1 -2l1 -2l2 -1l4 -1l8 2l2 2h3l1 2v3l-2 2h3l1 3l2 1l1 2l2 -1l1 2l2 -1l2 -1l4 -1l2 -2l2 -8l4 -3l4 -2l3 1l5 11l1 3l2 2l1 3v3l2 1l2 2l4 8l4 22l2 8l-4 6l-2 3l-1 3l-2 5l-2 4l1 3l4 1l6 -13l2 -4l4 18v3v4l-3 2l2 4l1 3l4 4l1 3l2 2l1 8l-10 2l-6 1h-6l-2 -2l-6 -3l-3 -1h-3h-3h-5l-1 1z"/><path class="w" fill="#2e48dd" opacity="0.301961" fill-rule="evenodd" d="M-84 13734v-1h1v1h-1z"/><path class="w" fill="#2e48dd" opacity="0.301961" fill-rule="evenodd" d="M-82 13733v-1h2v1h-2z"/><path class="w" fill="#2e48dd" opacity="0.301961" fill-rule="evenodd" d="M-80 13732v-1h2l3 -1l-1 1l-4 1z"/><path class="w" fill="#2e48dd" opacity="0.301961" fill-rule="evenodd" d="M-89 13735l-3 2l-4 1l-2 2l-1 6l-1 2h-5l-3 -2l-3 -4v-10l4 -8l3 -2l6 -3l24 -9l9 -3l-1 5l-8 8l-16 8l-2 4l2 2l1 1z"/><path class="w" fill="#2e48dd" opacity="0.301961" fill-rule="evenodd" d="M265 13774l-45 1l-7 -1l-1 -2l-3 -2v-5l3 -5l2 2l1 -2l1 -2l38 -3l5 1h10l6 4v7l-1 3l-2 2l-3 1l-4 1z"/><path class="w" fill="#2e48dd" opacity="0.298039" fill-rule="evenodd" d="M340 13612l3 1l2 2l9 1l7 -2l23 -12l20 -13l2 -1l2 -2l4 1l4 1l2 2l5 1l5 1h4l3 1l14 -2l34 -9h5l1 -2l1 -4l-4 -4h-4l-3 2l-44 12h-6l-6 -2l-6 -2l-2 -2l1 -2l2 -2l2 -2l8 -5l13 -8l3 -1h4l3 1l4 3l1 3v5l-2 4l2 2l42 -23l3 -1h9l4 1l2 3l1 4v7l-1 3l-4 8l-1 2l-5 5h-9l-3 -1l-2 -2h-2l-29 15l-10 4l-3 1h-15l-3 -1l-6 -2h-3l-4 1l-52 29l-6 3h-4h-11l-4 -1l-3 -3l-3 -7v-4l2 -5l2 -1l2 -1zM454 13579v-1h-1v1h1z"/><path class="w" fill="#2e48dd" opacity="0.301961" fill-rule="evenodd" d="M191 13610l-2 4l2 2l11 -6l28 -6h7l12 2l6 1l26 7l3 1l4 3v10l-1 4l-5 2h-8l-26 -6l-11 -2h-5l-24 6l-8 4l-20 10l-8 4l-21 4l-21 16l-2 2l-16 6l-13 2l-4 1l-20 -3h-3l-3 -2l-11 -6l-4 -4l-2 -2v-8l2 -2l2 -2l4 -1l3 -1l7 -1l1 1l1 2l-1 3l-1 3l6 2l3 1l7 1l12 -1l4 -1l6 -2l4 -2l3 -2l13 -10l4 -4l1 -6l1 -3l1 -3l1 -2l2 -4l10 -12l6 -4l6 4l2 1l4 1l4 1l4 1l8 -1l4 -1l3 -2h2zM189 13617v-1h-1v1h1z"/><path class="w" fill="#2e48dd" opacity="0.301961" fill-rule="evenodd" d="M162 13599l2 -3l4 -2h12l4 2l4 2l2 2l-2 2l-6 1h-9l-4 -1l-5 -2l-2 -1z"/><path class="w" fill="#2e48dd" opacity="0.301961" fill-rule="evenodd" d="M10 13737l-2 3l-1 4l-1 3l12 -1l17 -2l4 -2l16 -2l47 2l5 4v9l-1 3l-2 3l-5 1l-53 2l-39 6l-17 -1l-4 -1l-5 -6v-11l1 -3l2 -8l1 -3h19h6zM6 13748v-1h-1v1h1z"/><path class="w" fill="#2e48dd" opacity="0.301961" fill-rule="evenodd" d="M-43 13723l-3 -2l-6 -4l-4 -7l-2 -2l-6 -1l23 -5l23 -2l13 2l5 1l6 3l4 4l2 3l1 15l-3 1l-2 -1l-4 1h-12l-2 1v-4l1 -3h-34z"/><path class="w" fill="#2e48dd" opacity="0.301961" fill-rule="evenodd" d="M-75 13730l1 -2l2 -1l10 -6l4 3l2 2h-4l-11 4h-4z"/></g><g class="wash f" data-f="0"><path class="w" fill="#8fd96f" opacity="0.501961" fill-rule="evenodd" d="M-498 13820v-1h2v1h-2z"/><path class="w" fill="#8fd96f" opacity="0.501961" fill-rule="evenodd" d="M-497 13813l1 1l-1 1v-2z"/><path class="w" fill="#8fd96f" opacity="0.501961" fill-rule="evenodd" d="M-495 13811h-1v-1h1v1z"/><path class="w" fill="#8fd96f" opacity="0.501961" fill-rule="evenodd" d="M-495 13809h1v1l-1 -1z"/><path class="w" fill="#8fd96f" opacity="0.501961" fill-rule="evenodd" d="M-498 13811v-3h1v5h-1v-1v-1z"/><path class="w" fill="#8fd96f" opacity="0.501961" fill-rule="evenodd" d="M-489 13808l1 -1v1h-1z"/><path class="w" fill="#8fd96f" opacity="0.501961" fill-rule="evenodd" d="M-491 13808h-1v-1h1v1z"/><path class="w" fill="#8fd96f" opacity="0.501961" fill-rule="evenodd" d="M-490 13806h-1l1 -1h1l-1 1z"/><path class="w" fill="#8fd96f" opacity="0.501961" fill-rule="evenodd" d="M-484 13802v-1l1 1h-1z"/><path class="w" fill="#8fd96f" opacity="0.501961" fill-rule="evenodd" d="M-443 13791v-1h1v1h-1z"/><path class="w" fill="#8fd96f" opacity="0.501961" fill-rule="evenodd" d="M-436 13764v-1h1v1h-1z"/><path class="w" fill="#8fd96f" opacity="0.501961" fill-rule="evenodd" d="M-436 13756v-1h1v1h-1z"/><path class="w" fill="#8fd96f" opacity="0.501961" fill-rule="evenodd" d="M-481 13799h1v1l-1 -1z"/><path class="w" fill="#8fd96f" opacity="0.501961" fill-rule="evenodd" d="M-492 13799l-2 -1l5 -2l-2 2l-1 1z"/><path class="w" fill="#8fd96f" opacity="0.501961" fill-rule="evenodd" d="M-496 13795v-1h1l-1 1z"/><path class="w" fill="#8fd96f" opacity="0.501961" fill-rule="evenodd" d="M-494 13794l3 -1l-1 2l-2 -1z"/><path class="w" fill="#8fd96f" opacity="0.501961" fill-rule="evenodd" d="M-470 13793v-1h1l-1 1z"/><path class="w" fill="#8fd96f" opacity="0.501961" fill-rule="evenodd" d="M-491 13793v-1h1h1v1h-2z"/><path class="w" fill="#8fd96f" opacity="0.501961" fill-rule="evenodd" d="M-450 13790v-2h1l-1 2z"/><path class="w" fill="#8fd96f" opacity="0.501961" fill-rule="evenodd" d="M-448 13788h-1l1 -1h1l-1 1z"/><path class="w" fill="#8fd96f" opacity="0.501961" fill-rule="evenodd" d="M-450 13788h-2v-1h2v1z"/><path class="w" fill="#8fd96f" opacity="0.501961" fill-rule="evenodd" d="M-452 13787l-1 -1h1v1z"/><path class="w" fill="#8fd96f" opacity="0.501961" fill-rule="evenodd" d="M-451 13781v-1h1h1l-1 1h-1z"/><path class="w" fill="#8fd96f" opacity="0.501961" fill-rule="evenodd" d="M-453 13765v-1h1v1h-1z"/><path class="w" fill="#8fd96f" opacity="0.501961" fill-rule="evenodd" d="M-482 13745h-1l1 -1h1l-1 1z"/><path class="w" fill="#8fd96f" opacity="0.501961" fill-rule="evenodd" d="M-484 13745h-1v-1h1v1z"/><path class="w" fill="#8fd96f" opacity="0.501961" fill-rule="evenodd" d="M-479 13742h-1v-1h1v1z"/><path class="w" fill="#8fd96f" opacity="0.501961" fill-rule="evenodd" d="M-479 13741v-1h1v1h-1z"/><path class="w" fill="#8fd96f" opacity="0.501961" fill-rule="evenodd" d="M-478 13740v-1h1v1h-1z"/><path class="w" fill="#8fd96f" opacity="0.501961" fill-rule="evenodd" d="M-477 13738h1l-1 1v-1z"/><path class="w" fill="#8fd96f" opacity="0.501961" fill-rule="evenodd" d="M-416 13717l1 1h-1v-1z"/><path class="w" fill="#8fd96f" opacity="0.501961" fill-rule="evenodd" d="M-417 13715h1v1h-1v-1z"/><path class="w" fill="#8fd96f" opacity="0.501961" fill-rule="evenodd" d="M-418 13712h1v2h-1v-2z"/><path class="w" fill="#8fd96f" opacity="0.501961" fill-rule="evenodd" d="M-419 13710h1v2h-1v-2z"/><path class="w" fill="#8fd96f" opacity="0.501961" fill-rule="evenodd" d="M-420 13708h1v2h-1v-2z"/><path class="w" fill="#8fd96f" opacity="0.501961" fill-rule="evenodd" d="M-421 13706h1v2h-1v-2z"/><path class="w" fill="#8fd96f" opacity="0.501961" fill-rule="evenodd" d="M-422 13705l1 1h-1v-1z"/><path class="w" fill="#8fd96f" opacity="0.501961" fill-rule="evenodd" d="M-467 13737v-1h1v1h-1z"/><path class="w" fill="#8fd96f" opacity="0.501961" fill-rule="evenodd" d="M-469 13734h-1v-1h1v1z"/><path class="w" fill="#8fd96f" opacity="0.501961" fill-rule="evenodd" d="M-483 13714l1 -1v1h-1z"/><path class="w" fill="#8fd96f" opacity="0.501961" fill-rule="evenodd" d="M-485 13714l1 -1v1h-1z"/><path class="w" fill="#8fd96f" opacity="0.501961" fill-rule="evenodd" d="M-474 13714l-1 -2h1h1v2h-1z"/><path class="w" fill="#8fd96f" opacity="0.501961" fill-rule="evenodd" d="M-479 13702v-1h1v1h-1z"/><path class="w" fill="#8fd96f" opacity="0.501961" fill-rule="evenodd" d="M-476 13701h-2v-1h2v1z"/></g><g class="wash f" data-f="1"><path class="w" fill="#8fd96f" opacity="0.501961" fill-rule="evenodd" d="M-495 13821v-1h1v1v1l-1 -1z"/><path class="w" fill="#8fd96f" opacity="0.501961" fill-rule="evenodd" d="M-495 13815h1l-1 1v-1z"/><path class="w" fill="#8fd96f" opacity="0.501961" fill-rule="evenodd" d="M-493 13813h-1v-1h1v1z"/><path class="w" fill="#8fd96f" opacity="0.501961" fill-rule="evenodd" d="M-493 13811v1v-1z"/><path class="w" fill="#8fd96f" opacity="0.501961" fill-rule="evenodd" d="M-496 13812v-2h1v5v-1h-1v-2z"/><path class="w" fill="#8fd96f" opacity="0.501961" fill-rule="evenodd" d="M-488 13811v-1h1v1h-1z"/><path class="w" fill="#8fd96f" opacity="0.501961" fill-rule="evenodd" d="M-490 13811l-1 -1v-1l1 1v1z"/><path class="w" fill="#8fd96f" opacity="0.501961" fill-rule="evenodd" d="M-489 13809h-1v-1h2l-1 1z"/><path class="w" fill="#8fd96f" opacity="0.501961" fill-rule="evenodd" d="M-483 13805v-1h1v1h-1z"/><path class="w" fill="#8fd96f" opacity="0.501961" fill-rule="evenodd" d="M-441 13791v-1h1v1h-1z"/><path class="w" fill="#8fd96f" opacity="0.501961" fill-rule="evenodd" d="M-434 13766l2 -1v1h-2z"/><path class="w" fill="#8fd96f" opacity="0.501961" fill-rule="evenodd" d="M-434 13759v-1h1v1h-1z"/><path class="w" fill="#8fd96f" opacity="0.501961" fill-rule="evenodd" d="M-480 13801h1v2l-1 -2z"/><path class="w" fill="#8fd96f" opacity="0.501961" fill-rule="evenodd" d="M-491 13802l-2 -2l5 -2l-2 2l-1 2z"/><path class="w" fill="#8fd96f" opacity="0.501961" fill-rule="evenodd" d="M-496 13798v-1h1v1h-1z"/><path class="w" fill="#8fd96f" opacity="0.501961" fill-rule="evenodd" d="M-494 13797l4 -2l-2 3l-2 -1z"/><path class="w" fill="#8fd96f" opacity="0.501961" fill-rule="evenodd" d="M-468 13794v-1h1v1h-1z"/><path class="w" fill="#8fd96f" opacity="0.501961" fill-rule="evenodd" d="M-490 13795v-1h1l1 1h-2z"/><path class="w" fill="#8fd96f" opacity="0.501961" fill-rule="evenodd" d="M-448 13790v-2h1l-1 2z"/><path class="w" fill="#8fd96f" opacity="0.501961" fill-rule="evenodd" d="M-445 13788h-2v-1h2v1z"/><path class="w" fill="#8fd96f" opacity="0.501961" fill-rule="evenodd" d="M-448 13788h-1l-1 -1h1h1v1z"/><path class="w" fill="#8fd96f" opacity="0.501961" fill-rule="evenodd" d="M-450 13787h-1v-1h1v1z"/><path class="w" fill="#8fd96f" opacity="0.501961" fill-rule="evenodd" d="M-450 13782v-1h2v1h-2z"/><path class="w" fill="#8fd96f" opacity="0.501961" fill-rule="evenodd" d="M-454 13769v-1h1v1h-1z"/><path class="w" fill="#8fd96f" opacity="0.501961" fill-rule="evenodd" d="M-483 13744h-2v-2l2 1v1z"/><path class="w" fill="#8fd96f" opacity="0.501961" fill-rule="evenodd" d="M-486 13743h-1v-1h1v1z"/><path class="w" fill="#8fd96f" opacity="0.501961" fill-rule="evenodd" d="M-481 13740h-1l-1 -1h2v1z"/><path class="w" fill="#8fd96f" opacity="0.501961" fill-rule="evenodd" d="M-481 13739l-1 -1h1v1z"/><path class="w" fill="#8fd96f" opacity="0.501961" fill-rule="evenodd" d="M-481 13738v-1h1v1h-1z"/><path class="w" fill="#8fd96f" opacity="0.501961" fill-rule="evenodd" d="M-480 13736h1l-1 1v-1z"/><path class="w" fill="#8fd96f" opacity="0.501961" fill-rule="evenodd" d="M-418 13721h1v1h-1v-1z"/><path class="w" fill="#8fd96f" opacity="0.501961" fill-rule="evenodd" d="M-419 13718l1 1v1h-1v-1v-1z"/><path class="w" fill="#8fd96f" opacity="0.501961" fill-rule="evenodd" d="M-421 13714h1v1v2l-1 -1v-2z"/><path class="w" fill="#8fd96f" opacity="0.501961" fill-rule="evenodd" d="M-422 13711l1 1v2h-1v-1v-2z"/><path class="w" fill="#8fd96f" opacity="0.501961" fill-rule="evenodd" d="M-424 13709h1h1v2h-1l-1 -2z"/><path class="w" fill="#8fd96f" opacity="0.501961" fill-rule="evenodd" d="M-425 13706h1v1v2l-1 -1v-2z"/><path class="w" fill="#8fd96f" opacity="0.501961" fill-rule="evenodd" d="M-426 13704h1v1v1l-1 -1v-1z"/><path class="w" fill="#8fd96f" opacity="0.501961" fill-rule="evenodd" d="M-470 13735v-1h2v1h-2z"/><path class="w" fill="#8fd96f" opacity="0.501961" fill-rule="evenodd" d="M-472 13731h-1v-1h1v1z"/><path class="w" fill="#8fd96f" opacity="0.501961" fill-rule="evenodd" d="M-487 13711l1 -1v1h-1z"/><path class="w" fill="#8fd96f" opacity="0.501961" fill-rule="evenodd" d="M-488 13711z"/><path class="w" fill="#8fd96f" opacity="0.501961" fill-rule="evenodd" d="M-478 13710l-1 -1h1h1v1h-1z"/><path class="w" fill="#8fd96f" opacity="0.501961" fill-rule="evenodd" d="M-481 13701v-1l1 1h-1z"/><path class="w" fill="#8fd96f" opacity="0.501961" fill-rule="evenodd" d="M-479 13700h-1h1h1h-1z"/></g><g class="wash f" data-f="2"><path class="w" fill="#8fd96f" opacity="0.501961" fill-rule="evenodd" d="M-495 13822l2 -1l1 1h-3z"/><path class="w" fill="#8fd96f" opacity="0.501961" fill-rule="evenodd" d="M-493 13817h1l-1 1v-1z"/><path class="w" fill="#8fd96f" opacity="0.501961" fill-rule="evenodd" d="M-491 13814l-1 1v-1l1 -1v1z"/><path class="w" fill="#8fd96f" opacity="0.501961" fill-rule="evenodd" d="M-491 13813l1 -1l-1 1z"/><path class="w" fill="#8fd96f" opacity="0.501961" fill-rule="evenodd" d="M-495 13815v-3h1l1 5h-1l-1 -1v-1z"/><path class="w" fill="#8fd96f" opacity="0.501961" fill-rule="evenodd" d="M-485 13810v-1h1v1h-1z"/><path class="w" fill="#8fd96f" opacity="0.501961" fill-rule="evenodd" d="M-487 13811h-1v-1h1v1z"/><path class="w" fill="#8fd96f" opacity="0.501961" fill-rule="evenodd" d="M-486 13808l-1 1v-1l2 -1l-1 1z"/><path class="w" fill="#8fd96f" opacity="0.501961" fill-rule="evenodd" d="M-481 13803v-1l1 1h-1z"/><path class="w" fill="#8fd96f" opacity="0.501961" fill-rule="evenodd" d="M-443 13790v-1h1v1h-1z"/><path class="w" fill="#8fd96f" opacity="0.501961" fill-rule="evenodd" d="M-435 13764v-1h1l-1 1z"/><path class="w" fill="#8fd96f" opacity="0.501961" fill-rule="evenodd" d="M-434 13756v-1h1v1h-1z"/><path class="w" fill="#8fd96f" opacity="0.501961" fill-rule="evenodd" d="M-479 13800h1v1l-1 -1z"/><path class="w" fill="#8fd96f" opacity="0.501961" fill-rule="evenodd" d="M-489 13802l-2 -2l4 -2l-1 2l-1 2z"/><path class="w" fill="#8fd96f" opacity="0.501961" fill-rule="evenodd" d="M-494 13797v-1h1v1h-1z"/><path class="w" fill="#8fd96f" opacity="0.501961" fill-rule="evenodd" d="M-492 13796l3 -1l-1 2l-2 -1z"/><path class="w" fill="#8fd96f" opacity="0.501961" fill-rule="evenodd" d="M-468 13794v-1h1v1h-1z"/><path class="w" fill="#8fd96f" opacity="0.501961" fill-rule="evenodd" d="M-489 13795v-1h1h1v1h-2z"/><path class="w" fill="#8fd96f" opacity="0.501961" fill-rule="evenodd" d="M-448 13790v-1h1l-1 1z"/><path class="w" fill="#8fd96f" opacity="0.501961" fill-rule="evenodd" d="M-446 13789h-1v-1h2l-1 1z"/><path class="w" fill="#8fd96f" opacity="0.501961" fill-rule="evenodd" d="M-448 13789h-1v-1h1v1z"/><path class="w" fill="#8fd96f" opacity="0.501961" fill-rule="evenodd" d="M-449 13788l-1 1v-1h1z"/><path class="w" fill="#8fd96f" opacity="0.501961" fill-rule="evenodd" d="M-447 13784v-1l1 -1v1l-1 1z"/><path class="w" fill="#8fd96f" opacity="0.501961" fill-rule="evenodd" d="M-448 13767v-2h1v2h-1z"/><path class="w" fill="#8fd96f" opacity="0.501961" fill-rule="evenodd" d="M-482 13746h-2l1 -1h2l-1 1z"/><path class="w" fill="#8fd96f" opacity="0.501961" fill-rule="evenodd" d="M-485 13746h-1v-1h1v1z"/><path class="w" fill="#8fd96f" opacity="0.501961" fill-rule="evenodd" d="M-479 13743h-1v-1h1v1z"/><path class="w" fill="#8fd96f" opacity="0.501961" fill-rule="evenodd" d="M-479 13742v-1h1l-1 1z"/><path class="w" fill="#8fd96f" opacity="0.501961" fill-rule="evenodd" d="M-478 13741v-1h1l-1 1z"/><path class="w" fill="#8fd96f" opacity="0.501961" fill-rule="evenodd" d="M-477 13739h1l-1 1v-1z"/><path class="w" fill="#8fd96f" opacity="0.501961" fill-rule="evenodd" d="M-412 13718h1h-1z"/><path class="w" fill="#8fd96f" opacity="0.501961" fill-rule="evenodd" d="M-413 13716h1v1l-1 -1z"/><path class="w" fill="#8fd96f" opacity="0.501961" fill-rule="evenodd" d="M-414 13713h1v1v1h-1v-2z"/><path class="w" fill="#8fd96f" opacity="0.501961" fill-rule="evenodd" d="M-415 13712h1v1v1l-1 -1v-1z"/><path class="w" fill="#8fd96f" opacity="0.501961" fill-rule="evenodd" d="M-416 13710l1 1v1l-1 -1v-1z"/><path class="w" fill="#8fd96f" opacity="0.501961" fill-rule="evenodd" d="M-418 13708h1v1l1 1h-1l-1 -2z"/><path class="w" fill="#8fd96f" opacity="0.501961" fill-rule="evenodd" d="M-419 13707h1v1h-1v-1z"/><path class="w" fill="#8fd96f" opacity="0.501961" fill-rule="evenodd" d="M-468 13738v-1h1v1h-1z"/><path class="w" fill="#8fd96f" opacity="0.501961" fill-rule="evenodd" d="M-470 13735h-1v-1h1v1z"/><path class="w" fill="#8fd96f" opacity="0.501961" fill-rule="evenodd" d="M-483 13712v-1l1 1h-1z"/><path class="w" fill="#8fd96f" opacity="0.501961" fill-rule="evenodd" d="M-485 13711v-1l1 1h-1z"/><path class="w" fill="#8fd96f" opacity="0.501961" fill-rule="evenodd" d="M-476 13714v-1l-1 -1l1 -1h1v2l-1 1z"/><path class="w" fill="#8fd96f" opacity="0.501961" fill-rule="evenodd" d="M-481 13699v-1h1v1h-1z"/><path class="w" fill="#8fd96f" opacity="0.501961" fill-rule="evenodd" d="M-479 13698h-1l1 -1h1l-1 1z"/></g><g class="wash f jolt-f" data-f="3"><path class="w" fill="#8fd96f" opacity="0.501961" fill-rule="evenodd" d="M-502 13816l1 -1h1v1h-2z"/><path class="w" fill="#8fd96f" opacity="0.501961" fill-rule="evenodd" d="M-498 13807v1l-1 2l1 -3z"/><path class="w" fill="#8fd96f" opacity="0.501961" fill-rule="evenodd" d="M-496 13805h-1l1 -1v1z"/><path class="w" fill="#8fd96f" opacity="0.501961" fill-rule="evenodd" d="M-495 13803h1l-1 1v-1z"/><path class="w" fill="#8fd96f" opacity="0.501961" fill-rule="evenodd" d="M-498 13805l1 -3h1l-2 5h-1l1 -2z"/><path class="w" fill="#8fd96f" opacity="0.501961" fill-rule="evenodd" d="M-490 13802v-1h1h1l-1 1h-1z"/><path class="w" fill="#8fd96f" opacity="0.501961" fill-rule="evenodd" d="M-491 13802h-1v-1h1v1z"/><path class="w" fill="#8fd96f" opacity="0.501961" fill-rule="evenodd" d="M-489 13800h-1v-1h2l-1 1z"/><path class="w" fill="#8fd96f" opacity="0.501961" fill-rule="evenodd" d="M-483 13797v-1l1 1h-1z"/><path class="w" fill="#8fd96f" opacity="0.501961" fill-rule="evenodd" d="M-446 13787v-2h1v2h-1z"/><path class="w" fill="#8fd96f" opacity="0.501961" fill-rule="evenodd" d="M-436 13759v-1h1v1h-1z"/><path class="w" fill="#8fd96f" opacity="0.501961" fill-rule="evenodd" d="M-436 13754l1 -1v1h-1z"/><path class="w" fill="#8fd96f" opacity="0.501961" fill-rule="evenodd" d="M-480 13795v1v-1z"/><path class="w" fill="#8fd96f" opacity="0.501961" fill-rule="evenodd" d="M-488 13795h-1l4 -2l-2 1l-1 1z"/><path class="w" fill="#8fd96f" opacity="0.501961" fill-rule="evenodd" d="M-490 13794v-1h1l-1 1z"/><path class="w" fill="#8fd96f" opacity="0.501961" fill-rule="evenodd" d="M-488 13793l3 -1l-2 1h-1z"/><path class="w" fill="#8fd96f" opacity="0.501961" fill-rule="evenodd" d="M-473 13790v-1h1l-1 1z"/><path class="w" fill="#8fd96f" opacity="0.501961" fill-rule="evenodd" d="M-485 13792l1 -1l1 1h-1h-1z"/><path class="w" fill="#8fd96f" opacity="0.501961" fill-rule="evenodd" d="M-455 13785v-3l1 1l-1 2z"/><path class="w" fill="#8fd96f" opacity="0.501961" fill-rule="evenodd" d="M-452 13782h-2l1 -1h2l-1 1z"/><path class="w" fill="#8fd96f" opacity="0.501961" fill-rule="evenodd" d="M-455 13782h-2v-1h1l1 1z"/><path class="w" fill="#8fd96f" opacity="0.501961" fill-rule="evenodd" d="M-457 13781h-1l-1 -1h2v1z"/><path class="w" fill="#8fd96f" opacity="0.501961" fill-rule="evenodd" d="M-455 13773v-1h2l-1 1h-1z"/><path class="w" fill="#8fd96f" opacity="0.501961" fill-rule="evenodd" d="M-454 13761h1l1 -1l-1 1h-1z"/><path class="w" fill="#8fd96f" opacity="0.501961" fill-rule="evenodd" d="M-479 13748l-2 -1v-1l2 1v1z"/><path class="w" fill="#8fd96f" opacity="0.501961" fill-rule="evenodd" d="M-482 13747h-2v-1h1l1 1z"/><path class="w" fill="#8fd96f" opacity="0.501961" fill-rule="evenodd" d="M-476 13745h-1h-1v-1h2v1z"/><path class="w" fill="#8fd96f" opacity="0.501961" fill-rule="evenodd" d="M-476 13744l-1 -1l2 1h-1z"/><path class="w" fill="#8fd96f" opacity="0.501961" fill-rule="evenodd" d="M-475 13744v-1h1v1h-1z"/><path class="w" fill="#8fd96f" opacity="0.501961" fill-rule="evenodd" d="M-474 13742l2 1h-2v-1z"/><path class="w" fill="#8fd96f" opacity="0.501961" fill-rule="evenodd" d="M-413 13719h1v1h-1v-1z"/><path class="w" fill="#8fd96f" opacity="0.501961" fill-rule="evenodd" d="M-414 13717l1 1h-1v-1z"/><path class="w" fill="#8fd96f" opacity="0.501961" fill-rule="evenodd" d="M-415 13715h1v1h-1v-1z"/><path class="w" fill="#8fd96f" opacity="0.501961" fill-rule="evenodd" d="M-416 13713h1v2h-1v-1v-1z"/><path class="w" fill="#8fd96f" opacity="0.501961" fill-rule="evenodd" d="M-417 13711h1v1v1l-1 -1v-1z"/><path class="w" fill="#8fd96f" opacity="0.501961" fill-rule="evenodd" d="M-417 13709l1 1l-1 1h-1l1 -2z"/><path class="w" fill="#8fd96f" opacity="0.501961" fill-rule="evenodd" d="M-418 13708l1 1h-1v-1z"/><path class="w" fill="#8fd96f" opacity="0.501961" fill-rule="evenodd" d="M-460 13743v-1h2v1h-2z"/><path class="w" fill="#8fd96f" opacity="0.501961" fill-rule="evenodd" d="M-462 13739h-1h-1v-1h1l1 1z"/><path class="w" fill="#8fd96f" opacity="0.501961" fill-rule="evenodd" d="M-487 13717v-1h1v1h-1z"/><path class="w" fill="#8fd96f" opacity="0.501961" fill-rule="evenodd" d="M-490 13717v-1h1l1 1h-2z"/><path class="w" fill="#8fd96f" opacity="0.501961" fill-rule="evenodd" d="M-474 13716l-2 -2h1h2l1 1l-1 1h-1z"/><path class="w" fill="#8fd96f" opacity="0.501961" fill-rule="evenodd" d="M-482 13702v-2l1 1v1h-1z"/><path class="w" fill="#8fd96f" opacity="0.501961" fill-rule="evenodd" d="M-480 13701l-1 -1v-1h2l-1 2z"/></g><g class="s" data-r fill="#000" fill-rule="evenodd"><path class="chunk" data-i="0" d="M-376 13968h2v-1h2v3h2v1l-8 2l-2 -3h1l1 -2l2 1v-1zM-374 13971l1 -1h-3v1h2zM-364 13968v1h-3l-1 -2v-1h1v-1l3 2h-2v1h2zM-376 13967v-2l2 -1h2l2 -1v-1l2 1h1v2h-1l-2 -1v1l-2 1l-2 1h-2zM-384 13959l2 1h1l-1 -2l4 1v1h-2v2h-2l-2 -1v-2zM-373 13957l1 -1l2 1l2 -1v2h1l-1 1h-3l-1 -1l-1 -1zM-413 13969h-1v1v1l-1 -1l-1 -2h2h2h-1v1zM-412 13968h1v-2l1 -1l2 1v1h-2v1l2 1h1l-1 1h-2v-1l-1 1l-1 1l-1 -2h1v-1zM-404 13965v-1l2 -1v1h3l1 1h1l1 1v1l-4 -1l-2 -1v1v1l-2 -1h1l-1 -1zM-386 13961v-1h-1v1h1zM-392 13963v-1h-1v1h1zM-390 13963v-1h-1v1h1zM-394 13964l1 -1h-1l-1 1h1zM-399 13964v-1l5 -1l2 -2h-1l1 -1h1v1l1 1v-1h3v-2h1l1 1v1l1 1l1 1l-1 1l-2 -1h-1l1 2h-2v-1l-2 2l-2 -1l-2 2l-3 -1v-1h-1h-1z"/><path class="chunk" data-i="1" d="M-422 13954v2h-4l-1 -2v-2h1l1 1l1 1v-1h1v1h1zM-421 13953v-1h-1v1h1zM-423 13953v-1h-1v-2l2 1v-1h2v2h1l-1 2h-2v-1h-1zM-475 13954l-1 1l-2 -1v-1h2v1h1zM-463 13948v-1h-1v1h1zM-471 13949l1 -1v-1l2 1h3v-2h3v1l1 -1v-1l2 1h-1v1h1l-1 1l-8 2v-1l-4 3v-2h1v-1zM-476 13953v-1h-2l1 -2v-2l1 -2h-1l1 -2h4h1l-1 2l-2 -1l-1 1l-1 4v1l2 -1v-2l3 1h-1v1h-1l-1 3v-1h-1v1h-1zM-558 13938v1h-2l-1 -1l1 -1h1v1h1zM-559 13937v-1l1 -1l1 1l1 2h-2v-1h-1zM-570 13914h-2l-2 -2l2 -1v1l2 -2h4l-4 4zM-568 13912v-1h-1v1h1zM-570 13906h1v2l-1 1h-2v-1l1 -1h1v-1z"/><path class="chunk" data-i="2" d="M-207 13930h-12h-2l-7 -5v-3l-3 -2l-1 -4l-2 -2v-2l-2 -5l-2 -8v-17l2 -2v-4l2 -4l6 -15l1 -1l8 -8l1 -4l2 -2h1l3 -2l6 -4l6 -3l3 -1l5 -1h15l4 1l6 2l4 2h1l5 4l1 3v2l1 3l2 2l1 2l3 4l1 2l1 3v1l1 2h-1v6h1l-1 2h1l-1 2l-1 11l-3 9l-3 3h-2l-2 -1l1 -4v-2l1 -4l2 -14h1l-1 -2v-2h1l-1 -2h1l-1 -2v-2l-1 -2l-2 -2l-1 -2v-2l-1 -2l-2 -2l-1 -2v-2l-1 -2l-1 -2l-4 -1l-2 -2l-7 -1h-16h-2l-3 2h-2l-4 3l-5 3l-1 1l-3 3l-1 1l-8 10l-6 16l-4 12v3h1l-1 2h1l1 5l1 5l1 2l5 14l3 2l3 1h11l4 -1l4 -4v-1h2v-1l6 -6l3 -2l1 -2l2 -6l1 -2v-14l-1 -2l-5 -12h-3l-2 1l-4 3h-2l-1 2l-2 4l-2 2l-1 5v4h-3l1 -4l1 -9l2 -2l1 -3v-1l8 -8h3h6h1l3 2l1 2l6 12v2v17v2l-2 5l-2 2v2l-8 7l-4 3v2l-6 6l-3 1h-2l-4 1zM-231 13820l-1 -1v-1h2v1h1v1h-2zM-223 13817v-1h-1v1h1zM-224 13818v-1h-1v1h1zM-227 13819l1 -1h-1l1 -2h-1l1 -2l2 1h2v1h1l-1 2h-2l-2 2h-1v-1zM-432 13820h-5v-2h1v1l2 -1l2 2zM-441 13819l-1 -1l-1 -4l-1 -2h2l1 6v1zM-428 13812h-2l1 -2h-1l1 -4v-1l1 1v2h1l-1 2l1 2h-1zM-497 13823h-1l-2 -3h2h2v2h-1v1zM-462 13820l-3 1l1 -1h1l8 -4h3v1l-2 1h-2l-6 2zM-498 13815v-1h-1l-1 -1v-1l2 -1v1v1h1v2h-1z"/><path class="chunk" data-i="3" d="M-481 13812l-1 1l-1 -1l1 -1h2v-1h1v2h-2zM-495 13811v-1h-1v1h1zM-497 13813v-5h1v1h1l1 1v-1l2 1h1v2h-1v-1l-2 1l1 2h-1h-1v2l-2 -1l1 -1l-1 -1zM-490 13806l1 -1h-1l-1 1h1zM-491 13808v-1h-1v1h1zM-489 13808h-2l-2 1v-3l3 -2l6 -1v1h-2h-1l1 2l-2 1l-1 1zM-147 13771v-1h3l1 2v1h-3v-1v-1h-1zM-144 13772v-1h-1v1h1zM-484 13801v-1l3 -1l1 1v-1l1 1v1l-4 1l-1 -1zM-492 13799l-2 2v-1h-3v-1l1 -3h-1l1 -1l1 -1h1v1h2l1 -2h2v3l-5 1v1l2 1zM-455 13796h-1l2 -3h1l1 -1h2l-2 2l-2 2h-1zM-448 13788l1 -1h-1l-1 1h1zM-450 13788v-1h-2v-1h6v4l-2 1l-2 1v-2l1 -2h-1zM-476 13789l-2 -1v1h-3v-1l1 -1v1h1v-3l1 1v1h2v1v1z"/><path class="chunk" data-i="4" d="M-450 13790h-2l-2 -2h-4l-2 1l-1 -1l1 -1h2v-1l2 1h2v-1h-1v-2h-1v-1h2l2 3h-1l1 1v1h2v2zM-449 13780l2 2h-1l1 2v1l-2 -1h-1h-1l1 -2l-1 -1h1l1 -1zM-458 13769l-2 -1v-1h2v-1h1v2l-1 1zM-479 13742l-1 2l-2 4h-2l-2 -2l1 -4h2l1 1l1 -1h-1v-1h2v1h1zM-484 13745v-1h-1v1h1zM-482 13745l1 -1h-1l-1 1h1zM-447 13716h-1v-7l1 1v6zM-479 13741h1v-1h1v-1l1 -1h-1v-1l3 -1h1l-1 -2l4 -1v1h1l-1 1h-1v2h-1l-6 5h-1v-1zM-453 13717h-1v1v1l-1 -1v-2h1h1v1zM-474 13714h-4l-1 -2l1 -1l5 1h-1h-1l1 2zM-473 13712h2v-2h1l1 2v1h-3v1h2h1l-1 2l-2 -1l-2 -1h1v-2z"/><path class="chunk" data-i="5" d="M-476 13706l-2 -1h-1l1 -1l2 -1l1 1v2h-1zM-439 13693l8 -1l5 -2l8 -5l4 -3l2 -2h1l-1 -2l3 -2l1 -2v-2l1 -2l2 -2h-1l1 -2l-1 -2h1l1 -8l1 -2h-1v-4h1l-1 -2v-2l-2 -2l1 -2h-1l-1 -3l-1 -4l-4 -16l-2 -3l-2 -5l-2 -3l-2 -3l-2 -4l-2 -3l-12 -11h-1v-2l-8 -5l-2 -2h-1l-2 -2l-11 -3l-5 1l-5 -1l-9 -1l-2 -3l-2 1l-2 1l-2 2l-2 1l-3 2l-4 7h-2l-7 14l-2 4l-1 3l-3 10v2l-1 2l-1 2h1l-1 2h1l-2 2v4h1l-1 2l1 2h-1l1 8h-1l1 2h-1l1 2l-1 2h1v2l-1 3l3 11l3 8l1 2l2 4l1 2l6 4l17 8l5 2l13 4l5 -1h3l17 -2zM-468 13572v-1h-1v1h1zM-465 13573v-1h-1v1h1zM-521 13666v-2h-1l1 -2h-1l-1 -10h-1v4v6l1 4h2zM-476 13701v-1h-2v1h2zM-410 13727v-1h-1v1h1zM-381 13734l-1 -1l-14 -4l-6 -1l-8 -1l2 3l8 12l2 2l1 3l2 3v2h1l1 -2l2 -2l3 -4l2 -4l5 -6zM-501 13768l3 -12l-2 -2h-1l-5 6l-4 6l5 2h4zM-556 13884v-1l6 -1l2 -1v1l2 -1l10 -2l1 -1v-2l1 -3l-6 -27l-2 -1l-4 -1l-4 -1l-4 3l-4 26l-1 2h1l-3 7v1l-1 2l3 -1l3 1zM-528 13872l4 -4l8 -10l2 -3l2 -2v-1l1 -2h-1v-2l-2 -1l-4 3h-2l-1 2l-1 2l-2 2l-2 8l-2 2v2l-1 2l1 1v1zM-414 13827h4v1l2 -1l6 -1l10 -2h2l2 -2v-3v-6l-2 -13l-6 -30l-1 -5v-1l-1 -1v1l-3 4l-3 4v1l-2 2v2l-4 12l-2 1h-2l-2 -1v-3h-1l2 -2v-2l2 -5l1 -3l2 -2v-1l3 -5l1 -1l3 -3l2 -4h2l-1 -5v-2l-3 -5l-6 -8l-2 -2l-1 -1l-4 -8l-1 -2h-1l-2 -1l1 -2l-1 -1v-2l-1 -1l-2 -2l-1 -3l-4 -10l-1 -1l-1 -1v-1h-1v1h-1l-2 -1l-3 1l-6 1h-9l-2 2h-2v-1l-2 1h-2v1h-1l-3 -1v1l-2 -2l-6 -2h-2l-4 1v-1h-1l-1 -2h-4v3h1l-1 2h2v1v1l-2 -1v1v2l2 -1l4 1v1l-5 1l-2 -1v2h1l4 1l1 2h-1h-2v-1l-1 1h-1v-1l-1 1h-1v4v2h-1v5v3h-1v3v3l-2 4v6h1v1l-2 1l-3 18l-1 6l1 1h2l14 4l5 2h1l2 1v2h4l2 2v3l-4 1h-4l-6 -3l-2 -2l-3 -1l-6 -2h-2l-2 -1l-2 -1h-2l-1 6l-6 31v11l2 2l2 1v-1l4 1h4v-1l2 1h2l2 -1v1h6v1l2 -1v1h26h28v-1l2 1v-1l2 1h6v-1zM-445 13928l30 -1l1 -73h-1l1 -2h-1l-1 -16l1 -2h-1l-46 -1l-1 1h1v4l2 7l1 6l1 11h1l-1 2l1 14h-1l1 2v8l-1 2h1v6l1 2h-1l1 2l1 11l2 17h8zM-572 13886v-2h-2l-4 -4v-2l-2 -2h-2l-2 -1v1l1 3v1l3 4h2l2 1l4 1zM-589 13901v-1h1l-2 -2h-2l-2 -2l-2 1h-1v-1l-2 -2l1 -2l1 -4h1l2 -1v1l2 -1l9 1l-1 -1l-2 -1v-2l-1 -2l-1 -3v-6v-1l2 -2l8 1l5 5v2l2 3v1l-1 2l2 1h2v-1l2 1v-1v-5l6 -31l1 -6l3 -4h13h2l2 2h1l2 2v1l2 4l4 15v1l1 -1l1 -4l-2 -2l2 -2v2h1l1 -8l4 -3l1 -1l5 -2l3 -2h1l3 2l1 2v2l1 2v5v3l-2 2l-1 1v2l-1 1l-11 12l8 -1h12l5 5l1 5l2 13h-1l1 2l1 10l1 2h-1v10l1 2h-1l1 2l1 6l1 1l31 -3v-5l-3 -49l-1 -2h1l-1 -2h1l-4 -36l-2 -1h-4l-2 1v-1l-2 1h-2l-2 -1v1h-2l-2 -1v1h-16l-2 1v-1l-4 -1h-2l-2 -3l-2 -2v-12l8 -38l1 -4l-5 -1l-3 -1h-3l-2 -2h-2v-2v-4v-2h2v-2l16 -16v-3l6 -17l1 -5l1 -5h1l-1 -2h1l1 -6l2 -7v-1l-2 -3l-2 1l-2 -2l-4 -1l-2 -2l-2 -1l-6 -2v-2h-3l-1 -2l-4 -7l-1 -2l-1 -3l-2 -2v-2h-1v2l-6 -1h-3v-1v-1l-1 1v1l-3 1l-2 2h-4l-3 -2l1 -6l6 -26l8 -22l6 -18l1 -2l2 -2l3 -6l4 -7v-4l1 -1l3 -3h1v-1l-1 -2h-2l-2 -2h-2l-2 -2l1 -2v-1l4 1h2l6 4l1 1l1 -1h-1v-4l2 -2h1v-2l1 -2l4 1h2h11v1l1 1l2 -2l7 -1v2h1v-1l2 2l2 -1l1 2h-1v2l17 5l2 1l9 6l8 6l6 6v1h2l1 1v2h1h1l-1 2h1l1 3l6 8l4 7l2 5l4 14v1l2 2l-1 2h1v2l1 2l3 10l-1 2h1v2h-1l1 2v1l-1 3l-1 2h1l-1 2l-1 10l-2 2v2l-2 2v2l-9 9l-6 3l-2 2h-2l-2 2v3l2 4v1h1v2h1v2h1v2h1v2h1v1v1h1v1v1h1l1 4l2 1h1h14l13 3l5 2h1l3 2l1 3l-1 3l-1 2l-4 7h-2v2h-2l-1 1v2l-8 8l5 27l6 28v8l-1 3l-2 6l-7 1l-6 1l-2 1v-1l-2 1h-4l-2 1v-1l-1 1l-1 18h1l-1 2h1v10h-1l1 2l-1 14l-1 2h1l-1 2h1v2l-1 2h1l-1 2v2l1 2h-1l1 2h-1l1 2v2l-1 2l2 22h3v1l2 -1v1l2 -1l11 1h2v5h-1v1l4 1l2 -1v1l10 2l2 2v1h-2v1l-2 -1l-42 -6l-16 -1v1l-2 -1v1h-2l-2 -1v1h-12v4l12 -1l6 -2l2 1v-1h4l2 2v4l-2 1h-2l-2 1v-1l-8 1v-1l-2 1l-3 1h-1l-2 1v-1l-2 1h-4l-2 -1v1h-1l-1 -2l-1 -3l1 -6l-7 -1h-2l-3 2h-2v-1l-2 1l-16 1l-1 1l-1 4l-2 2l-3 1l-25 2l-2 1v-1l-2 1l-11 2l-6 2l-17 4h-12h-2h-5l-13 2v1l-2 -1v1h-2v1l-2 -1v1l-4 2l-3 2v2h-2v-4l3 -3l2 -1l4 -2h2l18 -4l1 -2l-2 -13l-2 -7l-1 -5l-4 -12l-1 -3v-2l-2 -2h1l-1 -1zM-576 13921h2l1 1h-1l3 6l2 14h1v-1h2v3v1l2 -1h4v1l1 -1v-1l7 1l1 -1h-1l-1 -1h1l6 -1v1l2 -2h5l6 -2l-6 -42h1l-1 -2h1l-1 -2h1v-2l-2 -1v1l-14 4h-4h-1l2 2l1 4l2 2l1 2l5 13l4 13v2l2 2l-1 4l-1 1v-1h-2l-2 -7l-1 -3h-1v1h-2v-1l2 -2v-1l-4 -8l-1 -4l-2 -7l-1 -2v-1l-2 1v2h-2l-2 2h-2l2 -3h2l2 -3l1 -2h-1h-1l1 -2h-1v-2l-1 -1h-9v3h-1v-2h-1v2l-1 1v-3l-2 1v-1l-2 1l-6 1v1l-2 -1h-2l3 4l2 4l2 3l2 5h-1l1 2l1 3v2h1v2h1l1 -1l-1 -1zM-522 13875v-1h-1v1h1zM-512 13935l12 -3v-3l-1 -4l-3 -25v-10h-1l1 -2h-1l-1 -4l-2 -2l-18 4v1l-2 -1v1l-8 1v2l9 46l8 -1l4 1l3 -1zM-536 13894v-2h-1v1l1 1zM-560 13895v-1h-1v1h1zM-559 13897v-1h-1v1h1zM-557 13900v-1h-1v1h1zM-575 13925v-1h-1v1h1zM-572 13928v-2h-1v1l1 1zM-574 13928v-1h-1v1h1zM-580 13950v-1h-2v1h2zM-589 13952v-1h-1v1h1zM-594 13953l1 -1h-1l-1 1h1zM-601 13956v-1h-1v1h1zM-603 13958v-1h-1v1h1zM-567 13945v-3h-1v2l1 1zM-570 13946v-2l-1 -1v3h1zM-564 13946v-1h-1v1h1zM-566 13947v-1h-1v1h1zM-387 13934v-1h-1v1h1zM-380 13935v-1h-1v1h1zM-375 13936v-1h-1v1h1zM533 13741h1v-1h2l-2 2h-1v-1zM534 13735h-1v-1l1 -2h2l1 2h-3v1zM40 13629l-2 -1v-2v-1l2 1h1v-2h1l2 2v1h-2l-2 2z"/><path class="chunk" data-i="6" d="M320 13600v-1h4l1 1l-1 1l-2 -1v2l-2 1v-1v-1l1 -1h-1zM-50 13860l1 2v2h-2h-7h-2l-1 -2v-2l3 -4l2 1h2l3 2v1h1zM-192 13786v-2l-2 2h2zM-194 13787v-1h-1v1h1zM-195 13789v-1l-1 -1v1l1 1zM-197 13793v-1l-1 -1v1l1 1zM-199 13795v-1h-1v1h1zM-201 13798v-2h-1l-1 2h1h1zM-205 13801v-1h-1v1h1zM-162 13772v-1h-1v1h1zM-169 13773v-1h-1v1h1zM-170 13774v-1h-1v1h1zM-167 13774v-1h-1v1h1zM-155 13774v-1h-1v1h1zM-147 13774v-1h-1v1h1zM-157 13775v-1h-1v1h1zM-174 13776v-1h-1v1h1zM-171 13776v-1h-1v1h1zM-148 13776v-1h-1v1h1zM-138 13776v-1h-1v1h1zM-176 13777v-1h-1v1h1zM-136 13777v-1h-2v1h2zM-178 13778l1 -1h-3v1h2zM-184 13779l1 -1h-1l-1 1h1zM-186 13780v-1h-1v1h1zM-134 13781v-1l-2 -1v1v1h2zM-133 13780v-1h-1v1h1zM-188 13781v-1h-1v1h1zM-189 13782v-1h-1v1h1zM-132 13782v-1h-1v1h1zM-129 13782v-1h-1v1h1zM-190 13783v-1h-1v1h1zM-191 13784v-1h-1v1h1zM-128 13784v-1h-2v1h2zM-124 13789v-1l-2 -1v1v1h2zM-122 13791l1 -1v-1h-3v1l2 1zM-120 13792v-1h-1v1h1zM-116 13795v-1l-2 -2v-1l-2 1v2l4 1zM-115 13796v-1h-1v1h1zM-114 13799l1 -1l-1 -2l-1 1l1 2zM-110 13801v-1v-2l-2 2l2 1zM-281 13849v-1h-1v1h1zM-281 13851v-1h-1v1h1zM-208 13803l2 -1v-1l-2 1v1zM-209 13804v-1h-1v1h1zM-210 13805v-1h-1v1h1zM-211 13806v-1h-1v1h1zM-213 13809v-1h-1v1h1zM-214 13810v-1h-1v1h1zM-216 13812v-1h-1v1h1zM-217 13813v-1h-1v1h1zM-235 13824v-1h-1v1h1zM-237 13825v-1h-1v1h1zM-240 13826v-1h-1v1h1zM-247 13827v-1h-1v1h1zM-248 13828v-1h-2v1h2zM-108 13804h1l-3 -3v1l2 2zM-105 13807v-1l-1 -2h-1v3h2zM-102 13810l-2 -3l-1 1l1 2h2zM-100 13819v-1l-1 -6l-1 -1v1l1 6l1 1zM-97 13820v-1h-1v1h1zM-98 13825v-3l-2 -2l1 4l1 1zM-96 13823v-1h-1v1h1zM-96 13828l-2 -2v2h2zM-96 13832h1v-3l-2 1l1 2zM-92 13841v-1l-1 -6l-1 -1l-1 1v1l1 3l1 2l1 1zM-90 13838v-1h-1v1h1zM-91 13843v-1l-1 -1v1l1 1zM-90 13846v-2h-1v1l1 1zM-87 13846v-1h-1v1h1zM-88 13851v-1l-1 -4h-1l1 4l1 1zM-86 13849v-1h-1v1h1zM-85 13851v-1h-1v1h1zM-87 13854v-2h-1v1l1 1zM-84 13853v-1h-1v1h1zM-84 13862l-2 -8h-1l1 6l2 2zM-82 13859v-1h-1v1h1zM-82 13861v-1h-1v1h1zM-82 13863v-1h-1v1h1zM-85 13866v-2h-1v1l1 1zM-306 13922v-1h-1v1h1zM-295 13928v-1h-1v1h1zM-128 13919v-1h-1v1h1zM-132 13921l1 -1h-1l-1 1h1zM-134 13922v-1h-1v1h1zM-136 13924v-1h-1v1h1zM-138 13926v-1h-1v1h1zM-139 13927v-1h-1v1h1zM-82 13869v-1h-1v1h1zM-86 13872v-1h-1v1h1zM-92 13876v-1h-1v1h1zM-88 13877v-1h-1v1h1zM-95 13880v-1h-1v1h1zM-85 13884v-1h-1v1h1zM-83 13885v-1h-1v1h1zM-98 13886v-1h-1v1h1zM-84 13887v-1l-1 -1v1l1 1zM-83 13889v-1h-1v1h1zM-101 13891v-1h-1v1h1zM-82 13891v-1h-1v1h1zM-81 13892v-1h-1v1h1zM-102 13894v-1h-1v1h1zM-81 13895v-1h-1v1h1zM-103 13896v-1h-1v1h1zM-78 13899v-1h-1v1h1zM-106 13900v-1h-1v1h1zM-79 13900v-1h-1v1h1zM-107 13901v-1h-1v1h1zM-78 13903v-1h-1v1h1zM-110 13904v-1h-1v1h1zM-77 13907v-1h-1v1h1zM-73 13907v-1h-1v1h1zM-114 13908v-1h-1v1h1zM-115 13909v-1h-1v1h1zM-116 13910v-1h-1v1h1zM-66 13911v-1h-2v1h2zM-118 13912v-1h-1v1h1zM-120 13913v-1h-1v1h1zM-121 13914v-1h-1v1h1zM-122 13915v-1h-1v1h1zM-125 13917v-1h-1v1h1zM-126 13918v-1h-1v1h1zM-141 13931v-1h-1v1h1zM-143 13933v-1h-1v1h1zM-145 13936v-1h-1v1h1zM-147 13939v-1h-1v1h1zM-149 13942v-1h-1v1h1zM-150 13943v-1h-1v1h1zM-153 13944v-1h-1v1h1zM-158 13947v-1h-1v1h1zM-162 13949v-1h-1v1h1zM-168 13953v-1h-1v1h1zM-177 13958v-1h-1v1h1zM-179 13959v-1h-1v1h1zM-190 13961v-1h-1v1h1zM-3 13827v-1h-1v1h1zM-6 13829v-1h-1v1h1zM-9 13831v-1h-1v1h1zM-12 13832v-1h-1v1h1zM-16 13834v-1h-1v1h1zM-59 13913v-1h-1v1h1zM-55 13918v-1h-1v1h1zM-45 13935v-1h-1v1h1zM-41 13941v-1h-1v1h1zM-40 13942v-1h-1v1h1zM-30 13943v-1h-1v1h1zM-36 13944v-1h-1v1h1zM-33 13945v-1h-1v1h1zM-24 13945v-1h-1v1h1zM-18 13946v-1h-2v1h2zM0 13950v-1h-1v1h1zM-2 13951l1 -1h-3l-1 1h3zM-20 13953v-1h4l1 -1l-6 1l1 1zM-6 13952l1 -1h-3l-1 1h3zM-12 13953l1 -1h-1l-1 1h1zM-9 13953v-1h-1v1h1zM-15 13954v-1h-1v1h1zM-13 13954v-1h-1v1h1zM-17 13955v-1h-1v1h1zM693 13654v-1h-1v1h1zM704 13655v-1v-1h-2v1l2 1zM688 13655v-1h-1v1h1zM696 13655v-1h-2v1h2zM682 13656l1 -1h-3l-1 1h3zM689 13656v-1h-1v1h1zM697 13656v-1h-1v1h1zM678 13657v-1h-2l-1 1h3zM684 13657l1 -1h-1l-1 1h1zM673 13658v-1h-1v1h1zM679 13658v-1h-1v1h1zM668 13659v-1h-1v1h1zM664 13660l1 -1h-1l-1 1h1zM670 13660v-1h-1v1h1zM662 13661v-1h-1v1h1zM656 13663v-1h-1v1h1zM650 13665v-1h-2v1h2zM648 13666v-1h-1v1h1zM645 13667v-1h-1v1h1zM653 13667v-1h-1v1h1zM642 13671v-1h-1v1h1zM730 13651v-1h-1v1h1zM720 13652v-1h-1v1h1zM722 13652l1 -1h-1l-1 1h1zM714 13654l1 -2h-1h-2l-1 1h1l2 1zM726 13653v-1h-2l-1 1h3zM716 13654v-1h-1v1h1zM708 13655v-1h-2l-1 1h3zM817 13644v-1h-1v1h1zM820 13647l1 -1h-1l-1 1h1zM774 13649v-1h-2v1h2zM575 13703v-1h-1v1h1zM570 13706v-1h-1v1h1zM568 13708v-1h-2v1h2zM566 13709v-1h-1v1h1zM564 13711v-1l-1 -1v1l1 1zM562 13712v-1h-1v1h1zM560 13714v-1h-1v1h1zM556 13717v-1h-1v1h1zM552 13720v-1h-1v1h1zM550 13723v-1h-1v1h1zM544 13728v-2h-1v1l1 1zM546 13727v-1h-1v1h1zM542 13729v-1h-1v1h1zM634 13674l1 -1h-1l-1 1h1zM628 13677v-1h-1v1h1zM626 13678v-1h-1v1h1zM624 13679v-1h-1v1h1zM622 13680v-1h-1v1h1zM614 13684v-1h-1v1h1zM446 13801v-1h-1v1h1zM509 13758v-1h-1v1h1zM496 13768v-1h-1v1h1zM494 13770v-1h-1v1h1zM483 13780v-1h-1v1h1zM481 13781v-1h-1v1h1zM480 13782v-1h-1v1h1zM477 13784v-1h-1v1h1zM475 13785v-1h-1v1h1zM474 13786v-1h-1v1h1zM470 13788v-1h-1v1h1zM476 13790v-1h-1v1h1zM466 13794v-1h-1v1h1zM459 13795v-1h-1v1h1zM457 13796v-1h-1v1h1zM462 13796v-1h-1v1h1zM455 13797v-1h-1v1h1zM461 13797v-1h-1v1h1zM452 13798v-1h-1v1h1zM459 13798v-1h-1v1h1zM450 13799v-1h-1v1h1zM456 13799v-1h-1v1h1zM454 13800v-1h-1v1h1zM527 13743v-2h1l1 -1h-3v2h-1l1 1h1zM524 13745v-1h-1v1h1zM522 13746l1 -1h-1l-1 1h1zM520 13748v-1h-1v1h1zM517 13751v-1h-1v1h1zM522 13752v-1h-1v1h1zM519 13755v-1h-1v1h1zM517 13757v-1h-1v1h1zM513 13761v-1h-1v1h1zM2 13825v-1h-2v1h2zM13 13825v-1h-1v1h1zM74 13934l6 -3l6 -5l2 -1l5 -5l2 -2l1 -3l1 -3l3 -6l1 -2l1 -3l4 -25l1 -6l-1 -1l-2 -1h-2l-2 -1v1h1l-1 2v1h-2l-2 1v-1l-5 -1l-5 -1l-4 -3h-1v-2l-1 -1h-2l-4 -1l-4 2l-13 6h-2l-1 2l-5 8h-2v2l-5 3l-5 5l9 10l2 4l1 2l1 4v5l1 3h-1v1l10 1v-1l2 1l8 1l2 2h1v3l1 2h-1l-1 3l-1 3v2l3 -2zM101 13864l1 1l1 -1h5h3l23 -2l2 1v-1l7 -1l2 1h1l2 -1v1l8 -1v1l2 -1h16l2 1l2 -2l52 -8v1l2 -1h2l2 -1v1l2 -1l31 -5h4l13 -2v-1l2 1v-1l9 -1l22 -3l25 -5v-1l2 1v-1l6 -1v-1l2 1l2 -1l2 -1v1l13 -4h2l3 -1l2 -1v1l2 -1l3 -1h3l4 -1v-1v-1l2 1l4 -1v-1v-1l2 1v-1h3v-1l1 -1v1l4 -1l2 -2h3v-1l1 -1v1l2 -1l4 -1v-2l2 1v-1l3 -1l37 -17l18 -11l2 -1l2 -2h1l1 1v-1h1v-1l1 -1h-1l7 -7l4 -4h2v1l1 -1l1 -1h-1l3 -3h1l1 1v-1l1 -1h-1l2 -3l15 -12v-1l1 -2l2 1v-1l4 -4l2 2l3 -2l1 -3h2l1 -1l3 -2v-1h-2v-2h2v-1l4 -4v2h1l1 -3v1l1 -1l1 -1h-1l3 -4h2v-2h2l2 -1v1l1 -1l1 -1h-1l3 -4l3 -2l7 -4l13 -8l2 -2h1l2 -2l2 1v-1l2 -2l4 -1v-1v-1l2 1v-2l2 1v-1v-1l2 1v-2l2 -1v1h1v-2h1v1l1 -1l1 -1v1h1v-2h1v1l2 -1h1l-1 -2l4 -1v-1l2 1v-1l1 -1l1 1v-1h2l1 -1v-2h1v1l2 -2l2 1v-1h2v-1v-1l2 1v-1l5 -1v-2h1v1l2 -1l13 -4l3 -1l2 1l1 -1l1 -1h-1v-1l14 -4h3v-1l2 1v-1v-1l2 1l4 -1v-1l2 1l2 -2l2 1v-1l54 -6v1l2 -1l35 -1l11 -2l2 1v-1l2 1v-1l2 1h4v-1l2 1l12 -1v-1l2 1h2l3 2v4l-4 1l-7 1l-16 1l-2 -1v1l-2 -1l-2 1v-1l-2 1l-12 1l-2 1v-1l-2 1h-40l-2 1v-1l-2 1h-4l-2 1v-1l-2 1v-1l-2 1l-27 1h-1h-1l1 2l-8 1l-2 -1v2l-12 2v-1l-1 1v1l-5 1v-1l-1 1v1l-3 1l-16 6h-2v-1l-1 1v1l-9 3l-52 30l-2 1l-2 3l-4 1l-2 1l1 2h-1h-2l-2 3h-2l-6 6v-1l-2 2v1l-2 -1v2l-2 -1v1l-1 2h1v1h-2v1l-2 -1l-1 1l1 2l-2 1v-1h-1v1h-1v1h-2l-3 4h-1v1h-2v1h-1v1h-1v1h-1v1l-1 1h1l-1 1h-1l-1 -1v1l-1 1h-1v1l-1 1h-1v1h1l-13 14l-2 -1v2l-2 1h-1v2l-3 1l-2 2l-1 1l-1 -1v1l-2 1v2l-2 1v-1h-1v2l-3 3l-4 2v1l-2 3l-1 -1l-1 -1l-1 1l1 2l-3 1l-1 -1v1h-2v1l-4 4v-1l-1 1l-1 1v-1l-2 1l-8 5l-3 1l-3 1l-2 2l-2 1l-5 2l-9 4l-5 3l-37 15l-12 3l-2 2l-6 1v-1h-1v2l-5 1l-4 -1v2l-2 -1v1l-2 -1v1h-2l-2 2h-2v-1l-2 2h-2v-1h-1v2h-1v-1l-2 2l-8 1l-2 2l-2 -1l-1 1h-2l-1 1l-2 -1l-2 2l-4 1l-15 3h-5v-1l-2 2h-6l-2 -1v2l-28 4l-9 2l-7 1v1l-2 -1v1l-14 1v1l-2 -1v1l-4 -1l-2 2v-1l-2 1v-1h-4l-2 2h-1l-3 -1v1v1l-1 -1v-1l-1 1v1l-2 -1l-2 1l-2 1h-2h-2l-3 1l-24 3l-45 2h-1l1 -2l-3 1l-2 1h-2v-2h-5l-2 1v-1h-2v1l-2 -1l-1 4l-1 2h1v2l-1 2h1l-1 1h-1v3h1l-1 2v2l-1 2h1l-1 2l-1 8h1l-1 2l-1 1v2l-1 3l-2 2l-3 4l-1 4v2h-2l-1 4l-2 1l-8 7l-12 7l-2 1l-2 2h-4l-1 -2l1 -5l2 -5v-4h-2l-4 -1v-1l-2 1l-12 -1l-3 -2l-2 -16l-3 -2v-2l-6 -6l-2 2l1 9l1 4l-1 5v2l-2 2l-1 7l-1 9l3 3l2 1l-1 2l-1 2h-4l-44 12l-10 1l-3 -3l1 -2h2v-2l-13 -5h-1l-4 -3v-2h-2v-2l-2 -2l-1 -4l-2 -2v-2l-8 -8l-3 -4l-10 -2l-2 -2l-4 -4l-4 -5l-4 -10v-3l-2 -2v-2l-2 -3v-3l-4 4l-4 6l-1 2l-1 2l-2 2l-4 6l-4 4h-1v2l-17 12l-2 1l-2 1l-7 6l-1 2l-6 9v1l-4 4h-1l-3 2l-17 10l-1 1l-2 2l-5 1l-9 2l-2 1l-4 2l-2 1l-4 1l-1 -1l-1 -5l-5 -2l-10 -3l-4 1l-16 9l-2 1l-3 1l-2 2h-1l-5 2h-4l-5 -1v-2h-1l-3 -3l-10 -16l-7 -8l-2 -5l-2 -1l-4 -2l-8 -5l-4 -4l-2 -1l-6 -2l-2 -1l-4 -2l-2 -1l-1 -4l-1 -13v-2l-2 -3l-4 -6l-2 -3v-3l2 -3l2 -3l4 -5l1 -3l1 -1h2v-2l2 -2v-1l2 -2l5 -4h1l2 -2l8 -1v-1l2 1l2 -1v1h3l1 -3v2h2l-1 -2h1l1 -2v-2h1l-1 -1v-1l1 -1v1l3 -2v-3h1v-1l2 -2l2 -1l8 -5l3 -1l6 -2l1 -2v1l2 2v-1h2v-1h1v-2l1 -1l2 1l2 -2l1 2l1 1l1 -1v-2h1v1l1 -1l1 -2h2v1l1 -1l1 -1v1h1v-2h1v1l1 -1l1 -1v1h1v1l-1 1h1l-2 2l-5 2l-10 4l-14 4h-2l-2 1l-1 1l1 1h4l6 5l2 2v1l1 3l-1 2h-2l-6 -4l-2 -2h-2l-6 6l-1 2l-3 5l-1 2h-1l-4 3v-1l-2 1h-12l-2 2l-2 -1l-2 2l-4 2l-1 3l-9 10l-1 2l-2 2v4l4 4l1 1v2l1 1l2 2l-1 14l4 4h1l3 2l8 4l10 7l2 2l4 1l2 2v2l2 2l6 8l1 2l5 8l4 6l6 6l4 -1l4 -1l2 -2l3 -1l3 -1l13 -8l4 -2h4l10 2l3 1l2 1l4 2l3 2l5 -4h2l8 -2h2l2 -2h2l2 -2l12 -8h2l2 -2h2l2 -2h1l1 -2l1 -2l5 -7l1 -3l7 -7l4 -1h2l2 -3h2l6 -6h2l12 -13v-1l2 -3v-2l2 -2l4 -7l1 -1l3 -4l1 -4l1 -1l4 -1l1 -4l-1 -2h1v-2h-1l1 -2h-1v-2l-2 -2h1l-1 -1l-1 -1h1l-2 -2l1 -2l-2 -2v-2l-2 -2l1 -2h-2v-5h-2v-1h1v-2h-1h-1l1 -2l-2 -2l-1 -3l-3 -7v-4l-2 -2h1l-3 -4v-1h-2v-2h-2l-1 -1v-2l-1 -1h-2v-1l-4 -4h-1l-6 -4v-2l-5 -5h-2l-3 -3v-1h-2v-2h-1l-1 -1h1v-1h-2l-2 1v-2h-2l-6 1v-1h2v-1l-9 1v-2h-1v1l-2 -1h-3l-3 2h-2l-2 2l-4 1l-2 2l-8 1l-4 5h-2l-1 3l-1 1v-1h-1v4h-1l-3 2v2l-1 1l-6 4l-5 5l-5 5l-4 3h-1l-1 -1v-1h1v-3h1v-1h2v-1h-2v-1l4 -1h2v-3l10 -8l4 -4l2 -4l1 -3h1l3 -3v-1h2v-1l1 -2h2v-1l2 1v-1l4 -1v-1l2 1h1l4 -2l2 -1v-2h1v-1h2v1l2 -1l2 -1v1l2 -1h2v-2h3l-1 1h-1v2h1v-1l1 1v1h2l1 1v-1l1 -1h-1v-1h2l1 2l-1 1v1h2v-2l2 -1h1l-2 2l1 1l3 -2v1l1 1v1l6 1v-2l2 1h2v2l2 1h1l1 2v1v1l2 -2l1 1l1 2l2 -1l1 1l-1 2l-2 2l2 1l1 -2h2v2h1l2 -1v2v1l2 -1v1h2v1h-1l1 1l4 1v3h2l1 1h-1l4 4v2l2 1h1l1 3l4 5l1 3h-1v1h1l1 1l-1 2l2 2v2h1l-1 2l2 2l1 3v2h2v1h-1l1 2l1 4l2 2l1 4l4 10v3l1 7h-1l1 2h-1l2 2l3 2l-1 2h-2l-2 -2h-2l-2 5l-1 1l-1 2h2l-1 2h1v2l2 1v-1h1l1 4h-1l1 1v1v1l2 -1l1 6l1 2h-1l1 1h1v3h-1v1h1l1 1v-1l1 1v1l-1 1h1l1 1l5 3l3 1l2 2v-1h2v2l2 -1l3 3v1h1l2 1v2h2l1 2h-1v1h1l1 1l1 1l-1 1h1l1 1v-1l2 2l1 3l-1 1h1l1 1v1h2l-1 2v1h1l1 1h-1v1l2 1l2 1l-1 1h1v1h2h9v1l1 1v-1l4 3l6 -1l3 2v2l-2 2l1 1l10 -3l25 -6l3 -1l2 -1v-14v-3l4 -8v-4l-1 -3v-12l1 -3v-2l1 -3v-16l-2 -2l-1 -2l-4 -6v-2l-1 -2h-1l-4 -4l-4 -6v-2h-2v-2l-5 -4l-1 -3v-4l2 -5l1 -2h-3l-4 1l-2 2l-2 1l-6 3l-2 1l-2 1l-4 4h-2l-2 3v1h-2l-1 3l-1 2h-2v1l-2 -1v2h-1v-3h2v-1l1 -1v1h1v-2h-1h-1l1 -1h2v-1l-1 -2h1l1 -1h1l1 -1v-1h1l1 -1h-1h-1v-2l1 -1h2l2 -1l-1 -2l1 -1l2 1v-1l2 1h1v-2h1v1l2 -1v-2l2 1v-1v-1l8 -2v-1l2 1v-1l8 -1l2 3l-1 3l-1 5l-1 6l2 2l1 2h2l3 6l1 2l4 4h2l1 2l1 2h-1l1 1l3 3v2l2 2v3h2l2 13h1l2 -3h2l4 -5l4 -5v-2l1 -2l2 -1h2l1 -1l2 -2l3 -1l7 -2l5 -1h9h2l2 5h4v1l1 -1l1 1h2l2 -2l2 1l3 1h-1l-1 1h1h1zM253 13853v-1h-1v1h1zM255 13853v-1h-1v1h1zM227 13855v-1h-1v1h1zM236 13855v-1h-1v1h1zM238 13855v-1h-1v1h1zM241 13855v-1h-1v1h1zM216 13857l2 -1h2v-1l-4 1v1zM223 13856v-1h-1v1h1zM228 13856v-1h-1v1h1zM232 13856v-1h-2v1h2zM212 13859l2 -2v1h1v-2h-3l-2 2l2 1zM222 13857v-1h-2v1h2zM225 13857v-1h-1v1h1zM209 13858v-1h-1v1h1zM233 13858v-1h-1v1h1zM204 13859l1 -1h-3v1h2zM207 13859v-1h-1v1h1zM210 13859v-1h-1v1h1zM225 13859v-1h-1v1h1zM198 13860v-1h-1v1h1zM202 13860v-1h-1v1h1zM217 13860v-1h-1v1h1zM193 13861v-1h-1v1h1zM195 13861v-1h-1v1h1zM212 13861l1 -1h-1l-1 1h1zM203 13863v-1h-1v1h1zM195 13864v-1h-1v1h1zM310 13843l1 -1h-1l-1 1h1zM271 13850v-1h-1v1h1zM261 13852v-1h-1v1h1zM370 13830v-1h-1v1h1zM358 13837v-1h-1v1h1zM354 13838v-1h-1v1h1zM441 13803v-1h-1v1h1zM440 13804v-1h-1v1h1zM445 13804v-1h-1v1h1zM432 13808v-1h-1v1h1zM430 13809v-1h-1v1h1zM421 13813v-1h-1v1h1zM417 13814v-1h-1v1h1zM415 13815v-1h-1v1h1zM410 13817l1 -1h-1l-1 1h1zM408 13818v-1h-1v1h1zM407 13819v-1h-1v1h1zM404 13820v-1h-1v1h1zM401 13821v-1h-1v1h1zM397 13822v-1h-1v1h1zM393 13824v-1h-1v1h1zM385 13826v-1h-1v1h1zM450 13802v-1h-1v1h1zM33 13873v-1h-1v1h1zM32 13894v-1h-1v1h1zM104 13866v-1h-1v1h1zM105 13867v-1h-1v1h1zM95 13921v-1h-1v1h1zM90 13926v-1h-1v1h1zM89 13927v-1h-1v1h1zM88 13928v-1h-1v1h1zM86 13929v-1h-1v1h1zM155 13869v-1h-1v1h1zM157 13869v-1h-1v1h1zM162 13869v-1h-1v1h1zM166 13869l1 -1h-3l-1 1h3zM169 13869v-1h-1v1h1zM174 13869v-1h-2l-1 1h3zM144 13870v-1h-1v1h1zM132 13871v-1h-1v1h1zM28 13933v-3l-1 -1v3l1 1zM28 13938v-1h-1v1h1zM29 13939v-1h-1v1h1zM23 13944v-1h-1v1h1zM18 13945v-1h-1v1h1zM15 13946v-1h-1v1h1zM9 13948v-1h-1v1h1zM71 13937v-1h-1v1h1z"/></g><g class="f live" data-r data-f="0" fill="var(--live,#000)" fill-rule="evenodd"><path class="chunk" data-i="5" d="M-447 13668l-2 1l-5 1l-6 2l-9 -1l-3 -1l-3 -2l-5 -10h-1l1 -2h2l1 2v1h1l2 1v2l2 1l1 1l5 2h2v-1l2 1v-1l5 -1l4 -1l5 -2l4 -1l2 2v2l-4 4h-1zM-479 13624l-4 -1v-3l-1 -2l2 -1l1 -1h-1l2 -2l2 2h4v2h1l-1 2l-2 2h-1l-2 2zM-446 13618l-3 1l-5 2l-2 -3v-2l2 -3h8l1 1l-1 4zM265 13748h-11l-12 -2l-4 -1l-2 -1l-2 -1l-7 -4v-2h-2l-1 -2l-2 -5v-4v-2l2 -1h4l2 3v1l4 5v2l2 2h2l4 2l3 1l6 1l13 1v-1l2 1v-1h5l9 -2l6 -1l2 3l-1 4v2h-2l-20 2z"/><path class="chunk" data-i="6" d="M366 13598v-1h-1v1h1zM330 13607v-1h-1v1h1zM328 13608v-1h-1v1h1zM329 13609v-1h-1v1h1zM339 13612h-6l-9 -2v-1h2l1 -1l-2 -2h1h1l-1 -1h-2v-1h-1v-1l3 1h2l2 1v-1l2 1v-1l2 1h2v-1l2 1v-1l6 -1l7 -2l6 -2l30 -13h2l1 -1l2 -2l3 -1l9 -4h2l2 -1v-1l2 1l4 3h1l2 2l4 2h2l6 2h6l44 -10v-2l3 -2h4l4 4l-1 3v1l-1 2h-5l-34 9l-14 2l-3 -1h-2l-2 1v-1l-5 -1l-5 -1l-2 -2l-4 -1l-2 -1l-2 -2v1l-7 3l-11 5l-21 9l-19 7l-10 2v1h-1zM154 13606v-1h-2l-1 -1v-2h-1l-2 -2v-1l-1 -2l-1 -3l-2 -1l-8 9l-3 2l-4 2l-8 6h-1l-2 2l-3 1l-20 8l-3 1l-2 2h-2l-15 5l-10 1h-11v1l-2 -1h-1l-3 -2h-2v-1h3h9l2 -1v1l2 -1h5l9 -3l10 -3l4 -1l2 -2l2 -1l10 -4l21 -10l8 -6l3 -2l5 -6l3 -4v-4h-1l1 -2l2 -3h2v-1l2 1h2l2 3v2h1l-1 2h1l2 7l2 5l3 2l2 1l2 1l5 2l4 1h9l6 -1l2 -2l2 -1l1 -1l5 -3l2 -1v-2h2h4h2l2 2v2v2v2l-2 1l-3 1l-6 4l-4 2h-1l-3 2h-2l-2 2h-1l-2 1v-1l-2 1l-8 1l-4 -1l-2 -1v1l-2 -1l-4 -1l-2 -2v1l-4 -4h-2zM48 13630l1 -1h-1l-1 1h1zM53 13631v-1h-1v1h1zM-15 13737h-3v-1l-2 1v-1l-16 -2l-8 -2h-2l-5 -4h-2v-2l-3 -1l-2 -1l-3 -4l-1 -1v1v1l-10 6l-2 1l-1 2l-3 1h-2v1h-2v1h-1h-1v1h-2v1h-3l-1 -1l-2 -2v-3l2 -1l14 -8h2l8 -8l1 -5h1l6 1h2v2l4 7l6 4l2 2h1l2 1l3 2h3l21 4h2l1 -1l1 1v-1l2 1v-1h12l2 -1v1l2 -1l2 1v-1l2 1v-1h1l1 1l8 1l1 2l1 8l-2 2l-4 -1l-2 -3v-1h-6h-4v-1l-2 1h-19z"/></g><g class="f live" data-f="1" fill="var(--live,#000)" fill-rule="evenodd"><path class="chunk" data-i="5" d="M-449 13665l-2 1l-5 2l-4 1l-6 1l-3 -1l-1 -2l-5 -7l-1 -1l2 -1l1 -1l1 1v1h2l1 1v1l1 1l1 1l3 1h1l1 -1l1 1v-1l3 -1l4 -1l4 -3h4l2 2v2l-4 3h-1zM-481 13626l-4 -2l-1 -4l-2 -1l2 -2l1 1v-1l-1 -1l1 -2l3 3h5l1 2l1 1l-1 2v1l-1 2h-2l-2 1zM-442 13621l-2 1l-5 3l-3 -3v-4l2 -3h8l1 2l-1 4zM263 13749l-10 -2l-13 -3l-4 -2l-2 -1l-2 -1l-4 -2v-1h-1l-1 -1l-1 -3v-4l1 -1l2 -2h4l1 1l1 2l1 3v1l1 2h2l3 1l2 1l6 1l12 1l1 -1l1 1l1 -1l4 -1l10 -1h6l2 3l-1 6l-1 2h-1l-20 2z"/><path class="chunk" data-i="6" d="M367 13595v-1h-1v1h1zM331 13611v-1h-1v1h1zM329 13612v-1h-1v1h1zM330 13613v-1h-1v1h1zM342 13613l-7 1h-10h-1l1 -1h2l1 -1l-3 -1h1h1l1 -1h-1h-3v-1h-1h4h2h2l1 -1l1 1l2 -1l1 1l2 -1l1 -1l2 1l1 -1l6 -2l7 -4l5 -3l26 -14h2l2 -1l2 -2l2 -1l8 -4l2 -2h1l1 -2l1 1h1l3 3h1l2 2l4 3l2 1l6 2h6l47 -3v-2l2 -2h7l4 3v3l-1 1l-1 2h-5l-38 6l-15 2h-3l-2 -1l-1 1l-1 -1l-4 -2l-5 -2l-2 -3l-4 -1l-2 -2l-2 -2v1l-7 3l-12 5l-19 8l-14 11l-10 3l-1 1h-1zM157 13607l-1 -1h-2l-2 -2v-1h-2l-2 -2l-1 -1l-1 -2l-1 -3l-2 -2l-11 11l-3 1l-3 4l-7 4h-1l-1 2h-3l-20 6l-3 1l-3 2l-3 1l-15 6l-10 2l-9 -1l-1 1l-1 -1l-1 -1l-2 -1l-1 -1h-1l1 -1h2l8 1l1 -1l1 1v-1l5 -1l8 -3l10 -4l5 -1l2 -2l3 -1l12 -2l18 -9l7 -6l3 -2l6 -6v-2l4 -3v-4l-1 -1l1 -1v-1l3 -2h1l1 -1l1 1l2 1l2 3l1 2l1 1l-1 1l1 1l3 6l4 4l4 2l3 1l2 2l6 2h4l6 1l5 -1l1 -2h1l1 -1h1l6 -3l2 -1v-2h2l4 -1l2 1l2 2l1 2l-1 2v1l-2 2h-4l-7 3l-4 2h-1l-2 2l-2 1l-1 1h-1l-1 1l-1 -1l-1 1l-6 2l-3 -1l-1 -1l-1 1l-1 -1l-4 -1l-3 -2l-1 1l-5 -4h-2zM48 13630l1 -1h-1l-1 1h1zM52 13631v-1h-1v1h1zM-17 13736h-2l-1 -1l-2 1l-1 -2l-16 -4l-8 -2l-2 -1l-5 -3l-1 -1v-1l-3 -1h-1l-2 -2v-1l-1 1l-7 8l-2 2l-1 1v1l-3 1l-2 1l-1 1h-1v1h-1h-1v1h-2l-1 1h-2h-2l-1 -1l1 -3h2l15 -10l1 -1l7 -10v-3l1 -1l4 1h2v1l2 4l6 2l2 2l2 1l3 1l4 1l22 8h2h1v1l1 -1l1 1l1 -1l11 3l1 -1l1 1l1 -1h1l1 2l1 -1l1 1l1 -1h1l2 1l8 1l3 1l2 7l-2 2l-4 -1l-3 -2l-1 -1h-6l-4 -1l-1 -1l-1 1l-21 -3z"/></g><g class="f live" data-f="2" fill="var(--live,#000)" fill-rule="evenodd"><path class="chunk" data-i="5" d="M-448 13667l-1 1h-5l-5 1h-10h-4l-3 -2l-4 -8l-1 -1l2 -1h1l1 1v1h2l1 2v1l2 1h1l6 2h1h2h1h1l4 -1l4 -1l4 -3l2 -1l2 2v2l-3 3l-1 1zM-475 13626h-3l-1 -4l-1 -1l2 -1h1v-1l-1 -1l1 -1l2 1h4v2h1l-1 1v1l-1 2l-1 1l-2 1zM-445 13617l-4 1l-5 2l-2 -2v-2l3 -1l7 -1l2 1l-1 2zM264 13748h-12l-13 -2l-4 -1l-2 -1l-2 -2l-7 -5l-1 -2h-1l-1 -3l-3 -6v-4l1 -2l1 -2h4l3 3v2l3 6l1 2l3 3h1l5 3l3 1l7 1l12 1l1 -1l1 1l1 -1h5l9 -1h6l3 3v4v1h-2l-22 2z"/><path class="chunk" data-i="6" d="M365 13597v-1h-1v1h1zM331 13605v-1h-1v1h1zM329 13606v-1v1zM330 13607v-1h-1v1h1zM336 13610h-4l-5 -1h-1l1 -1l1 -1l-1 -2l1 -1l1 -1h-1h-1l-1 -1l2 -1l1 1l1 1l1 -2l1 1l1 -1v1h2v-1l1 1l1 -1l4 -1l7 -2l7 -1l29 -12l2 -1h2l2 -3l3 -1l10 -4l2 -1h2l1 -1l1 1l1 1l2 3h2l2 2l4 2l2 1l6 2h7l47 -9l1 -2l2 -3h4l2 3v5v1l-2 2l-3 1l-35 8l-14 1l-4 -1h-3l-1 1l-1 -1l-5 -1l-7 -2l-2 -2l-4 -1l-2 -1l-1 -2l-1 1l-7 3l-12 7l-19 7l-22 6l-9 2v1h-1zM155 13608h-1l-1 -2l-1 -1h-1l-1 -2v-1l-1 -2l-1 -3l-2 -2l-7 8l-2 2l-4 3l-9 6l-2 1l-2 2l-3 1l-24 7h-3l-1 2h-2l-14 2h-11h-12l-1 1l-2 -1l-1 -1l-4 -1h-1h-1l1 -1l2 -1h12l1 -1l1 1l1 -1h7l9 -2l8 -1h3l2 -2h2l10 -3l27 -12l7 -6l3 -1l4 -5v-1l3 -3l-1 -3l-1 -2h1v-1l3 -3h1l1 -1l2 1h2l3 3v2l2 1l-2 1l2 2l1 7l2 4l2 3l2 1l2 1l5 1l4 1l10 -2l6 -2l2 -2l1 -1l2 -1l4 -5l1 -1l1 -1l1 -2h4h1l1 1l1 2l-1 2v1l-2 2l-2 1l-5 5l-3 2l-1 1l-2 2h-2l-2 1l-2 1l-1 1l-1 -1l-1 1l-10 1h-5l-1 -1l-1 1h-1h-4l-2 -2l-1 1l-3 -3h-1zM45 13627l1 -1h-2l-1 1h2zM50 13628v-2h-1v2h1zM-15 13739l-3 -1l-2 -1l-1 1l-1 -1l-17 -3l-7 -3l-1 -1l-5 -3l-1 -1v-1l-3 -2l-1 -1l-3 -4v-1h-1l-1 1l-11 6l-2 1l-2 1v1h-4l-1 1l-1 1h-1l-1 1h-1l-1 1v1h-1l-1 1h-2l-1 -1l-1 -1v-4l1 -1l15 -9l1 -1l11 -7l1 -4h1l6 1h2l1 2l3 8l4 5l2 2l2 2l2 1l2 1l24 5l2 -1h2v1l2 -1l1 1l1 -1l15 -1l2 -1l1 1l1 -1h1l1 1l1 -1l1 1l1 -1l1 1l6 1l1 2l1 9l-2 3h-3l-2 -3v-2h-5h-4l-1 -1l-1 1l-23 -1z"/></g><g class="f jolt-f live" data-f="3" fill="var(--live,#000)" fill-rule="evenodd"><path class="chunk" data-i="5" d="M-451 13668l-3 1l-7 1h-8l-8 -2l-2 -2l-1 -3l-1 -7l-1 -1l1 -2h1l1 1v1l1 1v1v1l1 1l3 2l1 1l1 -2l1 2l1 -2h5l5 -1l7 -4h5l4 4v3l-5 5l-2 1zM-476 13624l-5 -1v-3l-1 -1l2 -1h1h1l-2 -1l3 -1l2 2h6v1l1 1l-1 1v1l-2 1h-2l-3 1zM-447 13619l-1 1l-2 3l-1 -2v-3l2 -3l3 -2v2l-1 4zM269 13755l-14 -4l-15 -6l-5 -2l-2 -2l-3 -2l-5 -6l-1 -1h-1v-2l-2 -4v-3v-1l1 -1l3 1l1 2l1 1l2 4v1l2 3h2l4 3l3 2l8 3l18 5h2l1 1l2 -1l6 1l11 -2l5 -1l1 3l-1 5l-1 1l-1 1l-22 1z"/><path class="chunk" data-i="6" d="M362 13595v-1h-1v1h1zM328 13602v-1h-1v1h1zM326 13603v-1h-1v1h1zM327 13603h-1h1zM338 13606l-6 -1l-10 -1h-1h1l2 -1h1l-2 -1h1l1 -1h-1h-2h-1v-1h3l2 1h2l1 -1l1 1l1 -1l1 1h2l1 -1l1 1v-1h5l6 -1l5 -2l32 -15l1 -1h1l2 -1h2l9 -1l2 -1h2h1l2 1h1l6 4h2l4 2l6 4l3 1l7 3h7l39 -18l1 -1l3 -2h6l3 1l-2 1v1l-2 1l-5 1l-32 20l-13 3h-2l-3 -1l-1 1l-1 -1l-5 -1l-7 -3l-3 -3l-6 -2l-3 -2l-2 -2h-1l-8 1l-10 4l-24 10l-17 4h-8v1h-1zM158 13604h-1h-1l-1 -1v-1h-2h-1l-1 -1l-1 -1v-2h-2l-9 8l-3 1l-5 2l-9 3l-1 1l-2 2l-2 1l-14 13l-2 2l-2 2l-4 1l-22 4l-13 -1l-11 -3l-1 1l-1 -2l-1 -1l-2 -2l-2 -1v-1h2l8 4l1 -1l1 2l1 -1l6 1h13l15 -3l5 -1l3 -3l2 -1l9 -6l18 -11l9 -4l3 -1l6 -5v-1l2 -4l-1 -4v-1v-2v-1l2 -3l1 -2l1 1h1l3 2v2h1l-1 2h1l3 5l2 2l3 2h2l1 1l3 1h3h6l5 -2l3 -3l2 -1h2l6 -3l1 -1v-2h2l3 1l1 1l3 4l1 2v2v1l-1 1h-4l-7 4l-5 2l-2 1l-3 3h-3l-2 2h-1l-2 2v-2l-1 2h-6l-2 -1v-1l-1 1v-1l-2 -2l-2 -2v1l-3 -3h-1zM45 13630l1 -1h-1l-1 1h1zM49 13633v-1h-1v1h1zM-11 13743l-1 1l-1 -1l-1 1l-1 -1l-16 -3l-13 -4l-3 -2l-9 -5l-3 -2l-1 -1l-4 -2l-2 -2l-4 -3l1 -1l-1 -1v1l-1 1l-7 5l-1 1l-1 1h-2h-1v1h-1h-1v1h-2h-2h-1l-1 -1v-2l2 -1l9 -5h1l7 -9l2 -6h1h5l2 1v1l4 8l10 5l3 3h1l3 2l5 2l5 2l20 6h2v-1l1 2v-2l1 1l1 -1l11 -1l1 -1l1 1l1 -1h2h1h1h1l2 -1h1h1l9 -1l2 1l-1 3l-3 2h-3l-3 -1l-7 1l-4 2l-1 -1l-1 1l-16 6z"/></g><path class="grain" fill="#000" fill-rule="evenodd" d="M-367 13970h-1v-1h1v1zM-369 13970h-1v-1h1v1zM-364 13967l1 1h-1v-1zM-378 13968v-1h2v1h-2zM-368 13967v1h-3l1 -2v1h2zM-370 13966v-1h2v1h-2zM-364 13965h-2v-1h2v1zM-376 13961h-1l1 -1h1l-1 1zM-371 13959l-1 1l-2 -1h3zM-377 13959h-1v-1h1v1zM-365 13958h-1v-1h1v1zM-374 13959h-2v-2h2v2zM-378 13958h-1v-1h1v1zM-374 13957v-1l1 1h-1zM-381 13932h-1v-1h1v1zM-380 13931h-1v-1h1v1zM-438 13976h-1v-1h1v1zM-436 13974h-1v-1h1v1zM-442 13976v-2v-1l2 1l-2 2zM-432 13973h-3l1 -1h2v1zM-425 13972h-1v-1h1v1zM-430 13972h-2v-1h3l-1 1zM-438 13971h-3l1 -1h2v1zM-423 13970h-1v-1h1v1zM-437 13970h-1v-1h1v1zM-418 13970l-2 -2h2v2zM-401 13968h-1v-1h1v1zM-404 13969l-4 -1v-1h4l1 1l-1 1zM-417 13968h-1v-1h1v1zM-434 13968h-1v-1h1v1zM-414 13967h-1v-1h1v1zM-431 13967h-1v-1h1v1zM-412 13966h-1v-1h1v1zM-404 13966h-2h-1l2 -2l1 1v1zM-429 13965h-1v-1h1v1zM-405 13964l1 -1v1h-1zM-407 13964h-1v-1h1v1zM-421 13964h-1v-1h1v1zM-430 13964h-1v-1h1v1zM-419 13963h-1v-1h1v1zM-397 13962h-1v-1h1v1zM-402 13962h-2v-1h2v1zM-417 13962h-1v-1h1v1zM-423 13962h-1v-1h1v1zM-396 13961h-1v-1h1v1zM-401 13961h-1v-1h1v1zM-425 13961h-1v-1h1v1zM-397 13960h-1v-1h1v1zM-414 13960h-1v-1h1v1zM-423 13960h-1v-1h1v1zM-385 13959v-1h1v1h-1zM-389 13959h-1v-1h1v1zM-394 13959h-2v-1h2v1zM-412 13959h-1v-1h1v1zM-385 13957h-1v-1h1v1zM-390 13957h-1l1 -1h1l-1 1zM-409 13957h-1v-1h1v1zM-415 13957h-1v-1h1v1zM-386 13956h-1v-1h1v1zM-388 13956h-1v-1h1v1zM-407 13956h-1v-1h1v1zM-405 13955h-1v-1h1v1zM-412 13955h-1v-1h1v1zM-416 13955h-1v-1h1v1zM-418 13955h-1v-1h1v1zM-403 13954h-1v-1h1v1zM-410 13954h-1v-1h1v1zM-401 13953h-1v-1h1v1zM-408 13953h-2v-1h2v1zM-414 13953h-1v-1h1v1zM-425 13953v-1h1v1h-1zM-399 13952h-1v-1h1v1zM-404 13952h-1v-1h1v1zM-410 13952h-1v-1h1v1zM-397 13951h-1v-1h1v1zM-402 13951h-1l1 -1h1l-1 1zM-406 13952h-2l2 -2v2zM-418 13950h1v2h-2l1 -2zM-395 13950h-1v-1h1v1zM-398 13950h-2v-1h2v1zM-410 13950h-2v-1h2v1zM-413 13951h-3v-1l2 -1h1v2zM-445 13950h-1v-1h1v1zM-393 13949h-1v-1h1v1zM-396 13949h-1v-1h1v1zM-401 13949h-1v-1h1v1zM-412 13949h-1v-1h1v1zM-420 13950l-1 -2h1l2 2h-2zM-443 13949h-1v-1h1v1zM-392 13948h-1v-1h1v1zM-404 13948h-1l1 -1h1l-1 1zM-406 13949h-2l-2 -1v-1h2l2 1v1zM-414 13948h-2v-1h2v1zM-435 13948h-1v-1h1v1zM-437 13948h-1v-1h1v1zM-412 13947h-1v-1h1v1zM-392 13946h-1v-1h1v1zM-395 13948h-1v-3l1 1v2zM-397 13948h-1h-1l1 -2v-1l1 1v2zM-404 13946h-1l1 -1h1l-1 1zM-427 13946h-1v-1h1v1zM-430 13947h-3v-1l1 -1v1h2v1zM-394 13945h-1v-1h1v1zM-401 13945h-1v-1h1v1zM-422 13945h-2v-1h2v1zM-431 13945h-1v-1h1v1zM-399 13944h-1v-1h1v1zM-404 13944h-2v-1h2v1zM-418 13944h-1l1 -1h1l-1 1zM-441 13945h-2v-2h2v2zM-396 13943h-2v-1h2v1zM-414 13943h-1v-1h1v1zM-428 13943h-1v-1h1v1zM-432 13943h-2v-1h2v1zM-438 13944h-2v-2l2 1h1l-1 1zM-444 13943h-1v-1h1v1zM-446 13943h-1v-1h1v1zM-394 13942h-1v-1h1v1zM-399 13942h-1v-1h1v1zM-411 13942h-1v-1h1v1zM-427 13942h-1v-1h1v1zM-429 13942h-1v-1h1v1zM-436 13942h-2v-1h2v1zM-392 13941h-1v-1h1v1zM-424 13941h-1l1 -1h1l-1 1zM-434 13941h-1v-1h1v1zM-394 13940h-1v-1h1v1zM-397 13940h-1v-1h1v1zM-404 13940h-1v-1h1v1zM-420 13940h-1l1 -1h1l-1 1zM-392 13939h-1l1 -1h1l-1 1zM-398 13939h-1v-1h1v1zM-400 13939h-1v-1h1v1zM-414 13939h-3l1 -1h2v1zM-387 13938h-1v-1h1v1zM-390 13938h-1v-1h1v1zM-394 13938h-1v-1h1v1zM-411 13938h-1v-1h1v1zM-388 13937h-2v-1h2v1zM-403 13937h-1v-1h1v1zM-408 13937h-1v-1h1v1zM-404 13936h-1v-1h1v1zM-408 13935h-1v-1h1v1zM-471 13963h-1v-1h1v1zM-473 13963l-1 -1v-1l1 1v1zM-470 13961h-1v-1h1v1zM-471 13959h-1v-1h1v1zM-473 13960l-1 -1v-1h1v2zM-470 13956h-1v-1h1v1zM-468 13955h-1v-1h1v1zM-475 13954v-1h1v1h-1zM-468 13953h-2v-1h2v1zM-459 13952h-1v-1h1v1zM-464 13952h-2v-1h2v1zM-463 13951h-1v-1h1v1zM-459 13950h-1v-1h1v1zM-449 13949h-1v-1h1v1zM-458 13949h-1l1 -1h1l-1 1zM-480 13949h-1v-1h1v1zM-452 13948h-1v-1h1v1zM-455 13948h-1v-1h1v1zM-471 13947h-1v-1h1v1zM-448 13944h4l-2 2l-3 -1h1v-1zM-453 13946h-1v-1h1v1zM-449 13945h-1v-1h1v1zM-451 13945h-1v-1h1v1zM-459 13946h1v-2h2l1 2l-1 1h-3v-1zM-478 13947l-2 -1l2 -2v2v1zM-482 13947l-1 -1v-2h1v3zM-449 13944l1 -1v1h-1zM-455 13944h-1v-1h1v1zM-462 13944h-1v-1h1v1zM-466 13945h-4v-1l2 -1h2v2zM-449 13943h-1v-1h1v1zM-458 13943h-2v-1h2v1zM-461 13943h-1v-1h1v1zM-477 13944l-1 -1v-1h1v2zM-479 13943h-1v-1h1v1zM-466 13942h-1v-1h1v1zM-476 13942h-1v-1h1v1zM-468 13941h-1v-1h1v1zM-471 13941h-1v-1h1v1zM-473 13941h-1v-1h1v1zM-462 13940h-1v-1h1v1zM-466 13940h-1l1 -1h1l-1 1zM-567 13939h-1v-1h1v1zM-554 13937h-2v-1h2v1zM-552 13936h-2v-1h3l-1 1zM-540 13935h-1v-1h1v1zM-548 13935h-2v-1h2v1zM-556 13935h-1v-1h1v1zM-568 13936l-1 -1v-1h1v2zM-542 13933h-1v-1h1v1zM-556 13934v-1l2 -1l-2 2zM-540 13932h-1v-1h1v1zM-568 13932h-1v-1h1v1zM-538 13931h-1v-1h1v1zM-554 13932v-1l2 -2v1l-2 2zM-602 13962h-1v-1h1v1zM-75 13903l1 1h-1v-1zM-77 13901v-1h1v1h-1zM-82 13886h1l-1 1v-1zM-84 13881l-1 -1v-2h1v3zM-85 13878h-1v-1h1v1zM-69 13872h-1v-1h1v1zM-72 13872h-1v-1h1v1zM-76 13872h-1v-1h1v1zM-67 13871h-1v-1h1v1zM-74 13872l-1 -1v-1h1v2zM-69 13870h-1v-1h1v1zM-73 13870h-1v-1h1v1zM-75 13870h-1v-1h1v1zM-210 13891h-1v-1h1v1zM-210 13889h-1v-1h1v1zM-292 13882l-1 -1v-1h1v2zM-291 13880h-1v-1h1v1zM-293 13879l-1 -1v-1l1 1v1zM-294 13876l-1 -1v-1h1v2zM-292 13874h-1v-1h1v1zM-291 13872h-1v-1h1v1zM-292 13870h-1v-1h1v1zM-290 13869h-1v-1h1v1zM-363 13876h-1v-1h1v1zM-370 13877h-2v-1v-1l2 1h1l-1 1zM-367 13875h-1v-1h1v1zM-368 13874h-1v-1h1v1zM-365 13873h-1v-1h1v1zM-367 13873h-1v-1h1v1zM-363 13872h-1v-1h1v1zM-361 13870h-1v-1h1v1zM-364 13870h-1l1 -1h1l-1 1zM-362 13869h-1v-1h1v1zM-352 13867h-1v-1h1v1zM-357 13867h-1v-1h1v1zM-568 13926h-1v-1h1v1zM-572 13924h-1v-1h1v1zM-545 13921h-1v-1h1v1zM-560 13919h-1l1 -1h1l-1 1zM-563 13919h-1v-1h1v1zM-574 13920l-1 -1v-1h1v2zM-567 13917h-1v-1h1v1zM-573 13917h-1v-1h1v1zM-575 13917h-1v-1h1v1zM-567 13915h-1v-1h1v1zM-574 13912h-1v-1h1v1zM-564 13911h-1v-1h1v1zM-565 13910h-1v-1h1v1zM-572 13910h-1v-1h1v1zM-566 13909h-1v-1h1v1zM-573 13909h-1v-1h1v1zM-562 13908h-1l1 -1h1l-1 1zM-559 13907h-1v-1h1v1zM-568 13906h-1v-1h1v1zM-571 13907h-1v-2l2 1h-1v1zM-576 13907v-1l2 -1v1l-2 1zM-573 13905h-1v-1h1v1zM-567 13905l-1 -1v-1l1 1v1zM-566 13903h-1v-1h1v1zM-574 13903l-1 -1v-1l1 1v1zM-572 13904h-1v-4h1v4zM-563 13900h-1v-1h1v1zM-554 13899h-1v-1h1v1zM-555 13897h-1v-1h1v1zM-562 13897h-1v-1h1v1zM-552 13897h-2l-1 -1l1 -1l2 1v1zM-577 13921v-1l1 -1v1v1h-1zM-576 13915l-1 -1v-1l1 1v1zM-578 13910h-1v-1h1v1zM-579 13908h-1v-1h1v1zM-580 13907h-1v-1h1v1zM-579 13905h-1v-1h1v1zM-581 13905h-1v-1h1v1zM-580 13904h-1v-1h1v1zM-581 13902h-1v-1h1v1zM-589 13902h-1l1 -1v1zM-584 13901h-1v-1h1v1zM-582 13900h-1v-1h1v1zM-83 13849h-1v-1h1v1zM-87 13839h-1v-1h1v1zM-97 13814h1l-1 1v-1zM-99 13808h-1v-1h1v1zM-101 13805h-1v-1h1v1zM-256 13827v-1h2l2 2h-2v-1h-2zM-251 13826h-1v-1h1v1zM-245 13824h-1v-1h1v1zM-242 13823h-1v-1h1v1zM-231 13822v-1h2v1h-1h-1zM-240 13822h-2v-1h2v1zM-229 13821v-1h2l-1 1h-1zM-238 13821h-1v-1h1v1zM-236 13820h-1v-1h1v1zM-234 13819h-1v-1h1v1zM-229 13819v-1h-1v-1l3 1v1h-2zM-232 13818h-1v-1h1v1zM-230 13817h-1v-1h1v1zM-227 13815h-1v-1h1v1zM-223 13812h1v2l-2 -1l1 -1zM-224 13813l-1 -1h1v1zM-224 13812v-1l1 1h-1zM-221 13811h-1v-1h1v1zM-221 13810l1 -1v1h-1zM-216 13807h-1v-1h1v1zM-215 13806h-1v-1h1v1zM-214 13804h-1v-1h1v1zM-212 13802h-1v-1h1v1zM-288 13864h-1v-1h1v1zM-286 13852v-1l1 1h-1zM-284 13850h-1v-1h1v1zM-283 13848h-1h-1l1 -1h1v1zM-282 13844h-1l1 -1h1l-1 1zM-280 13842h-1v-1h1v1zM-279 13841h-1v-1h1v1zM-279 13840l1 -1v1h-1zM-274 13836h-1l1 -1h1l-1 1zM-272 13835h-1v-1h1v1zM-268 13833h-2v-1h2v1zM-267 13832h-1v-1h1v1zM-266 13831h-1v-1h1v1zM-264 13830h-1l1 -1h1l-1 1zM-267 13830h-1v-1h1v1zM-266 13829h-1v-1h1v1zM-262 13828h-2v-1h3l-1 1zM-260 13827h-1v-1h1v1zM-353 13864h-1v-1h1v1zM-432 13823h-2v-1h2v1zM-437 13822l1 -1v1h-1zM-427 13821v-1l2 1h-2zM-431 13821h1l2 -1v1v1l-3 -1zM-438 13821h-1v-1h1v1zM-424 13820h-1l1 -1h1l-1 1zM-430 13820h-1v-1h1v1zM-428 13819h-1l1 -1h1l-1 1zM-422 13818h-1v-1h1v1zM-423 13817h-1v-1h1v1zM-425 13818l-1 -1v-1h1v2zM-434 13817h-1v-1h1v1zM-420 13816h-1v-1h1v1zM-428 13815h-1v-1h1v1zM-432 13815h-1l1 -1h1l-1 1zM-439 13816l-1 -1v-1h1v2zM-434 13813h-1v-1h1v1zM-445 13814l-1 -1v-1h1v2zM-424 13812h-2v-1h2v1zM-432 13812h-2v-1h2v1zM-435 13812h-1v-1h1v1zM-440 13813l-1 -1l1 -1h1v1l-1 1zM-426 13811h-1v-1h1v1zM-441 13811h-1v-1h1v1zM-432 13809h-1v-1h1v1zM-440 13809h-1v-1h1v1zM-439 13808h-1v-1h1v1zM-443 13808h-1v-1h1v1zM-436 13811h-2v-1h1v-4h2l-1 3v2zM-438 13806h-2v-1h2v1zM-432 13805h-1v-1h1v1zM-428 13804h-1v-1h1v1zM-446 13804h-1v-1h1v1zM-427 13803h-1v-1h1v1zM-444 13803h-1l1 -1h1l-1 1zM-440 13802h-1v-1h1v1zM-468 13838h-1v-1h1v1zM-467 13837l-1 -1v-1l1 1v1zM-495 13825h-1v-1h1v1zM-498 13825h-1v-1h1v1zM-501 13824h-1v-1h1v1zM-472 13823h-1v-1h1v1zM-476 13823h-1v-1h1v1zM-488 13823h-1l1 -1h1l-1 1zM-494 13823h-1v-1h1v1zM-466 13822h-2v-1h2v1zM-469 13822h-1v-1h1v1zM-500 13822h-1v-1h1v1zM-482 13821h-2v-1h2v1zM-490 13821h-1v-1h1v1zM-493 13821h-1v-1h1v1zM-480 13821l-1 -1v-1l1 1v1zM-488 13820h-1v-1h1v1zM-491 13820h-1v-1h1v1zM-500 13820h-2v-1h2v1zM-478 13819h-1v-1h1v1zM-490 13819h-1v-1h1v1zM-498 13819v-1h4l-2 2v-1h-2zM-470 13818h-2v-1h2v1zM-476 13818h-2v-1h2v1zM-502 13818h-1v-1h1v1zM-474 13817h-1l1 -1h1l-1 1zM-485 13817h-1v-1h1v1zM-503 13817h-1v-1h1v1zM-450 13816h-2v-1h2v1zM-480 13816h-1v-1h1v1zM-482 13816h-1v-1h1v1zM-488 13818h-2v-2l4 -1v1l-2 2zM-498 13816h-1v-1h1v1zM-448 13815h-2v-1h3l-1 1zM-468 13816h-2v-2l2 2zM-472 13816h-1v-2h1l1 2h-1zM-476 13815h-1l1 -1h1l-1 1zM-481 13815h-1v-1h1v1zM-484 13815h-2v-1h2v1zM-492 13819l-1 -1v-4h1v5zM-463 13814h-1v-1h1v1zM-467 13814h-1v-1h1v1zM-474 13814h-1v-1h1v1zM-479 13814h-1v-1h1v1zM-499 13815h-3v-1l2 -1v1h1v1zM-460 13813h-1l1 -1h1l-1 1zM-465 13813h-1v-1h1v1zM-469 13813h-1v-1h1v1zM-471 13813h-1v-1h1v1zM-478 13813h-1v-1h1v1zM-458 13812h-1v-1h1v1zM-474 13812h-1v-1h1v1zM-476 13812h-1v-1h1v1zM-462 13812h-2v-2l2 1h1l-1 1zM-472 13811h-1v-1h1v1zM-475 13811h-1v-1h1v1zM-454 13810l-1 -1v-1h1v2zM-456 13810h-5l1 -1l2 -1h2v2zM-461 13809h-1v-1h1v1zM-476 13810h-2l2 -2h1l-1 2zM-488 13808v2h-1v-2h1zM-455 13808h-1v-1h1v1zM-458 13808h-1v-1h1v1zM-465 13809l-1 -1v-1l1 1v1zM-471 13808h-1v-1h1v1zM-474 13808h-1v-1h1v1zM-488 13807l1 1h-1v-1zM-495 13809v-1l1 -1v1v1h-1zM-498 13808v-1l1 1h-1zM-452 13807h-2v-1h2v1zM-485 13807h-1v-1h1v1zM-450 13806h-1v-1h1v1zM-472 13807h-2v-1l2 -1l1 1l-1 1zM-483 13806h-1v-1h1v1zM-451 13805h-1v-1h1v1zM-453 13805h-1v-1h1v1zM-458 13805h-1v-1h1v1zM-469 13805h-1v-1h1v1zM-481 13805h-1v-1h1v1zM-449 13804h-1v-1h1v1zM-468 13804h-1l1 -1h1l-1 1zM-480 13804h-1l1 -1h1l-1 1zM-466 13803h-1v-1h1v1zM-483 13802l-1 1v-1h1zM-490 13803h-1v-1h1v1zM-451 13802h-1v-1h1v1zM-454 13802h-1v-1h1v1zM-458 13802h-1v-1h1v1zM-461 13804h-1v-3l1 1v2zM-477 13802h-1v-1h1v1zM-484 13802h-2v-1h2v1zM-520 13861h-1v-1h1v1zM-522 13860h-1v-1h1v1zM-522 13858h-1l1 -1h1l-1 1zM-107 13798h-1v-1h1v1zM-126 13784h1v1h-1v-1zM-132 13779v-1l2 1h-2zM-191 13778h-1v-1h1v1zM-153 13777h-1v-1h1v1zM-189 13777h-1v-1h1v1zM-187 13776h-1v-1h1v1zM-184 13775h-3l1 -1h2v1zM-183 13774h-1v-1h1v1zM-141 13773h-1v-1h1v1zM-178 13774h-2l2 -2h1l-1 2zM-139 13772h-1v-1h1v1zM-175 13772h-1v-1h1v1zM-153 13771v-1h1v1h-1zM-157 13771v-1h1v1h-1zM-173 13771h-1l-1 -1h1h1v1zM-173 13770l1 -1v1h-1zM-156 13769h-2v-1h2v1zM-168 13769h-2v-1h2v1zM-171 13769h-1v-1h1v1zM-164 13768h-4v-1h5l-1 1zM-211 13801h-1v-1h1v1zM-208 13798h-1v-1h1v1zM-206 13797h-1v-1h1v1zM-199 13789l-1 -1v-1l1 1v1zM-198 13785h-1v-1h1v1zM-192 13779h-1v-1h1v1zM-430 13802l-4 -1h-1l1 -1h5v2h-1zM-438 13804v-2l1 -2h1v2l-2 2zM-445 13794h-1v-1h1v1zM-447 13793h-1v-1h1v1zM-442 13791v1l-1 -1h1zM-442 13790h1l-1 1v-1zM-443 13791h-1v-1h1v1zM-443 13790l1 -1v1h-1zM-441 13788h-1v-1h1v1zM-439 13787h-1v-1h1v1zM-445 13786h-1v-3l1 1v2zM-439 13782h-1v-1h1v1zM-444 13777h-1v-1h1v1zM-447 13774h-1v-1h1v1zM-446 13773h-1l1 -1h1l-1 1zM-444 13770h-1v-1h1v1zM-446 13770h-1v-1h1v1zM-445 13769h-1v-1h1v1zM-437 13767h-1v-1h1v1zM-440 13767h-1v-1h1v1zM-435 13764l-1 1v-1h1zM-442 13765h-1v-1h1v1zM-447 13765h-1v-1h1v1zM-435 13763l1 1h-1v-1zM-436 13764h-1l1 -1v1zM-439 13764h-1v-1h1v1zM-441 13764h-1v-1h1v1zM-444 13766h-1v-3l1 1v2zM-433 13763h-1v-1h1v1zM-436 13763v-1l1 1h-1zM-447 13763h-1v-1h1v1zM-439 13762h-1v-1h1v1zM-441 13762h-1v-1h1v1zM-443 13762h-1v-1h1v1zM-446 13762h-1v-1h1v1zM-440 13761h-1v-1h1v1zM-447 13761h-1v-1h1v1zM-434 13761l-1 -1v-1l1 1v1zM-437 13760h-1v-1h1v1zM-446 13760h-1l1 -1h1l-1 1zM-440 13758h-2v-1h3l-1 1zM-443 13759l-1 -1v-1l1 1v1zM-445 13758h-1v-1h1v1zM-435 13756l-1 1v-1h1zM-435 13755l1 1h-1v-1zM-436 13756h-1l1 -1v1zM-436 13755v-1l1 1h-1zM-440 13756v-1l2 -1l-2 2zM-442 13757l-1 -1v-2h1l1 2l-1 1zM-436 13754h-1v-1h1v1zM-439 13753h-1v-1h1v1zM-456 13801h-1v-1h1v1zM-464 13801h-1l1 -1h1l-1 1zM-490 13801h-1v-1h1v1zM-474 13800h-1l1 -1h1l-1 1zM-476 13800h-1v-1h1v1zM-477 13799h-1v-1h1v1zM-481 13799v-1h1v1h-1zM-492 13799v-1h1l-1 1zM-458 13798h-1v-1h1v1zM-460 13800h-2v-3h2l1 1l-1 2zM-464 13798h-1v-1h1v1zM-471 13798h-1v-1h1v1zM-474 13798h-1v-1h1v1zM-484 13798h-2v-1h2v1zM-491 13798l1 -1h1v1h-1h-1zM-497 13799h-1l-2 -1v-1h3v2zM-456 13797h-1v-1h1v1zM-469 13797h-1v-1h1v1zM-482 13797h-1v-1h1v1zM-467 13796h-1v-1h1v1zM-479 13796h-1v-1h1v1zM-489 13796h1l2 -1v1v1h-3v-1zM-498 13796h-1v-1h1v1zM-448 13795h-1l1 -1h1l-1 1zM-459 13795h-1v-1h1v1zM-465 13795h-1v-1h1v1zM-472 13796l-2 1v-2h2v-1l2 2h-2zM-474 13795h-1v-1h1v1zM-476 13795h-2v-1h2v1zM-487 13795h-1v-1h1v1zM-464 13794h-1v-1h1v1zM-475 13794h-1v-1h1v1zM-480 13795l-1 -1v-1l1 1v1zM-486 13795v-1l2 -1v1l-2 1zM-494 13794v-1h1v1h-1zM-469 13792l2 2l-1 1l-2 -2l1 -1zM-482 13794l-1 -1l1 -1h1l-1 2zM-493 13793v-1h1h1v1h-2zM-496 13794v-2h1v2h-1zM-461 13793h-1l-1 -1l1 -1l1 1v1zM-470 13792v-1l1 1h-1zM-470 13793h-3v-1l1 -1v1h2v1zM-491 13792v-1h5v1l-3 1v-1h-1h-1zM-454 13791v-1l1 1h-1zM-459 13791h-1v-1h1v1zM-464 13791h-1l1 -1h1l-1 1zM-466 13791h-1v-1h1v1zM-478 13793l-3 -3h1l2 1l1 1l-1 1zM-485 13791h-1v-1h1v1zM-493 13791h-1v-1h1v1zM-457 13790h-1v-1h1v1zM-467 13790h-1v-1h1v1zM-475 13791h-1l-1 -1l1 -1l1 1v1zM-482 13790h-2v-1h2v1zM-463 13789h-1v-1h1v1zM-471 13789h-1v-1h1v1zM-473 13790l-1 -1v-1h1v2zM-486 13789h-1v-1h1v1zM-493 13789h-1v-1h1v1zM-467 13788h-1v-1h1v1zM-472 13788h-1v-1h1v1zM-464 13787h-2v-1h2v1zM-475 13787h-1v-1h1v1zM-456 13786h-1v-1h1v1zM-462 13786h-1l1 -1h1l-1 1zM-458 13785h-1v-1h1v1zM-476 13785h-1v-1h1v1zM-480 13785h-1v-1h1v1zM-484 13783h-1v-1h1v1zM-453 13783l-1 -1v-1l1 1v1zM-454 13781h-3l1 -1h2v1zM-461 13783h-2v-2l3 -1l2 2l-3 1zM-463 13781h-1v-1h1v1zM-451 13781h-2v-2l4 1h-1h-1v1zM-459 13779h-1v-1h1v1zM-454 13778h-2v-1h2v1zM-458 13780h-1l1 -2v-1l2 1l-2 2zM-452 13777h-2v-1h2v1zM-458 13777h-2v-1h2v1zM-466 13777h-2v-1h2v1zM-451 13776h-1v-1h1v1zM-464 13776h-2v-1h2v1zM-448 13776h-2v-2h2l1 2h-1zM-452 13775h-1v-1h1v1zM-455 13775h-1v-1h1v1zM-463 13775h-1v-1h1v1zM-471 13775h-1v-1h1v1zM-450 13774h-1v-1h1v1zM-453 13774h-1v-1h1v1zM-460 13774h-2v-1h2v1zM-470 13774h-1v-1h1v1zM-449 13773h-1v-1h1v1zM-459 13773h-1v-1h1v1zM-468 13773h-1v-1h1v1zM-473 13773h-1v-1h1v1zM-451 13773h-1l-1 -1l1 -1l1 1v1zM-457 13772h-1v-1h1v1zM-463 13772h-1v-1h1v1zM-466 13772h-1v-1h1v1zM-477 13772h-1v-1h1v1zM-448 13771h-1v-1h1v1zM-464 13771h-1v-1h1v1zM-462 13771h-1v-1l1 -1l1 1l-1 1zM-465 13770h-1v-1h1v1zM-470 13770h-1v-1h1v1zM-472 13770h-1v-1h1v1zM-478 13770h-1v-1h1v1zM-480 13770h-1v-1h1v1zM-454 13770h-1l1 -2h2l-2 2zM-460 13769h-2v-1h2v1zM-463 13769h-1v-1h1v1zM-475 13769h-1v-1h1v1zM-479 13769h-1v-1h1v1zM-463 13767h-1v-1h1v1zM-478 13768l-1 -1v-1h1v2zM-482 13767h-1v-1h1v1zM-448 13767l-1 1h-2v-2l1 -1l2 1h1l-1 1zM-452 13765v1l-1 -1h1zM-455 13766h-1v-1h1v1zM-468 13766h-5l1 -1h5l-1 1zM-479 13766h-1v-1h1v1zM-452 13764h1l-1 1v-1zM-453 13765h-1v-1h1v1zM-462 13765h-2v-1h3l-1 1zM-474 13765h-2v-1h2v1zM-453 13764l1 -1v1h-1zM-479 13764h-1v-1h1v1zM-450 13763h-1v-1h1v1zM-454 13763h-2v-1h2v1zM-464 13763h-1l1 -1h1l-1 1zM-466 13763h-2v-1h2v1zM-468 13764h-4v-1h2v-1l2 2zM-449 13762h-1v-1h1v1zM-461 13762h-1v-1h1v1zM-465 13762h-1v-1h1v1zM-474 13763l-1 -1v-1l1 1v1zM-458 13762l-2 -1h-1l1 -1h2v2zM-453 13760h-1v-1h1v1zM-456 13760h-1l1 -1h1l-1 1zM-483 13762h-1v-3l1 1v2zM-452 13760l-1 -2h1h1v2h-1zM-472 13759h-2v-1h2v1zM-449 13758h-1v-1h1v1zM-475 13758h-1v-1h1v1zM-472 13757h-1v-1h1v1zM-479 13757h-1v-1h1v1zM-448 13756h-1v-1h1v1zM-464 13756h-1v-1h1v1zM-466 13756h-1v-1h1v1zM-482 13756h-1v-1h1v1zM-478 13753h-1v-1h1v1zM-469 13752h-1v-1h1v1zM-471 13752h-1v-1h1v1zM-464 13751h-1v-1h1v1zM-474 13751h-1l1 -1h1l-1 1zM-467 13751l-1 -1v-1l1 1v1zM-468 13749h-1v-1h1v1zM-475 13749h-1v-1h1v1zM-480 13749h-1v-1h1v1zM-465 13749l-1 -1v-1l1 1v1zM-470 13750l-2 -1l-1 -1l1 -1l3 3h-1zM-478 13749l-1 -1v-1l1 1v1zM-470 13747h-1v-1h1v1zM-466 13746h-1v-1h1v1zM-472 13747l-1 -1v-1l1 1v1zM-475 13747l-1 -1v-1l1 1v1zM-478 13745h-1v-1h1v1zM-468 13746h-2l2 -3h2v1l-2 2zM-472 13743h-1v-1h1v1zM-470 13742h-2v-1h2v1zM-453 13741h-1v-1h1v1zM-467 13741h-1v-1h1v1zM-480 13741v-1h1v1h-1zM-462 13742l-4 -1v-1l2 -1v1h2v2zM-468 13740h-1v-1h1v1zM-472 13740h-1v-1h1v1zM-479 13740l1 -1v1h-1zM-488 13739l1 1h-1v-1zM-461 13740l-1 -1v-1h1v2zM-470 13740l-1 -1v-1h1v2zM-478 13739v-1h1v1h-1zM-455 13738h-1v-1h1v1zM-462 13738h-2v-1h2v1zM-466 13737v1v1l-1 -1v-1h1zM-469 13738h-1v-1h1v1zM-446 13719h-1v-1h1v1zM-456 13737h-1v-1h1v1zM-460 13737h-1v-1h1v1zM-466 13736h1l-1 1v-1zM-467 13737h-1v-1h1v1zM-455 13736h-1v-1h1v1zM-464 13736h-1v-1h1v1zM-467 13736l1 -1v1h-1zM-453 13734h-1v-1h1v1zM-456 13734h-1v-1h1v1zM-460 13735l-1 -1v-1l1 1v1zM-462 13735h-2v-1l2 -1v1v1zM-454 13733h-2v-1h2v1zM-457 13733h-1v-1h1v1zM-460 13732h-1v-1h1v1zM-470 13733v-2h2v1l-1 1h-1zM-463 13731h-1v-1h1v1zM-469 13733h2v-3h1l2 2l-2 2h-3v-1zM-456 13730h-1l1 -1h1l-1 1zM-462 13730h-1v-1h1v1zM-469 13730h-1v-1h1v1zM-461 13729h-1v-1h1v1zM-464 13729h-1v-1h1v1zM-454 13728h-1v-1h1v1zM-463 13728h-1v-1h1v1zM-459 13727h-1v-1h1v1zM-453 13726h-1v-1h1v1zM-457 13726h-1v-1h1v1zM-462 13727v-1l2 -1v1l-2 1zM-463 13726h-1v-1h1v1zM-456 13725h-1v-1h1v1zM-465 13725h-1v-1h1v1zM-451 13725l-1 -1v-1l1 1v1zM-458 13725l-1 -1v-1l1 1v1zM-460 13724h-1v-1h1v1zM-462 13724h-1v-1h1v1zM-464 13724h-1v-1h1v1zM-450 13723h-1v-1h1v1zM-459 13723h-1v-1h1v1zM-463 13723h-1v-1h1v1zM-470 13723h-1v-1h1v1zM-456 13722h-1v-1h1v1zM-462 13722h-1v-1h1v1zM-455 13721h-1v-1h1v1zM-473 13721h-1v-1h1v1zM-477 13721h-1v-1h1v1zM-457 13721l-1 -1v-1l1 1v1zM-461 13720h-1v-1h1v1zM-465 13721h-2v-2h2v2zM-449 13718v2h-1v-2h1zM-456 13719h-1v-1h1v1zM-460 13719h-1v-1h1v1zM-468 13721l-1 -1l-1 -2h2v3zM-472 13719h-1v-1h1v1zM-476 13719h-1v-1h1v1zM-452 13719l-1 -1v-1h1v1v1zM-459 13718h-1v-1h1v1zM-467 13718h-1v-1h1v1zM-449 13718v-2h1v1v1h-1zM-457 13718l-1 -1v-1h1v2zM-464 13717h-1v-1h1v1zM-455 13716h-1h-1v-1h1l1 1zM-460 13716h-1l1 -1h1l-1 1zM-476 13716h-1l1 -1h1l-1 1zM-453 13715h-1v-1h1v1zM-458 13715l-1 -1h1v1zM-461 13715h-1v-1h1v1zM-467 13715h-1v-1h1v1zM-482 13714v1l-1 -1h1zM-485 13715v-1h1v1h-1zM-450 13714h-1v-1h1v1zM-456 13714h-1l1 -1h1l-1 1zM-457 13713h-1v-1h1v1zM-452 13713l-2 -1v-1h2l1 1l-1 1zM-459 13712h-3v-1h2l1 1zM-451 13711h-1v-1h1v1zM-456 13711h-2v-1h2v1zM-463 13712h-1l-2 -2v-1l2 1h1v2zM-466 13712h-2l-1 -2l1 -1l1 1l1 2zM-453 13709h-1v-1h1v1zM-457 13709h-1v-1h1v1zM-460 13710v-2h1l-1 2zM-471 13709h-1v-1h1v1zM-455 13708h-1v-1h1v1zM-492 13708h-1v-1h1v1zM-449 13707h-1v-1h1v1zM-461 13707h-1v-1h1v1zM-465 13707h-1v-1h1v1zM-467 13707h-1v-1h1v1zM-470 13707h-1v-1h1v1zM-474 13708h-2l-2 -2l4 1h1l-1 1zM-479 13707h-1v-1h1v1zM-450 13706h-2v-1h2v1zM-460 13706v-1l1 1l-1 1v-1zM-468 13706h-1v-1h1v1zM-471 13706h-1v-1h1v1zM-452 13705h-2v-1h2v1zM-468 13704h-3l1 -1h2v1zM-472 13704h-2v-1h2v1zM-481 13705v-1l1 -1v1v1h-1zM-480 13703v-1h1h1v1h-2zM-481 13703h-1v-1h1v1zM-490 13703h-1v-1h1v1zM-480 13656h-1v-1h1v1zM-454 13622h-1v-1h1v1zM-479 13614h-1v-1h1v1zM128 13872h-1v-1h1v1zM122 13872h-1v-1h1v1zM71 13869h-1v-1h1v1zM74 13867h-2v-1h2v1zM75 13866h-1v-1h1v1zM43 13891h-1v-1h1v1zM41 13891h-1v-1h1v1zM44 13889v1l-1 -1h1zM44 13888h1l-1 1v-1zM43 13889h-1v-1h1v1zM43 13888l1 -1v1h-1zM50 13885h-1v-1h1v1zM51 13884h-1v-1h1v1zM53 13882h-1v-1h1v1zM54 13881h-1v-1h1v1zM57 13879h-1v-1h1v1zM458 13802h-1v-1h1v1zM355 13831h-1v-1h1v1zM101 13863l1 1h-1v-1zM78 13864h-1v-1h1v1zM93 13862h-1v-1h1v1zM90 13862v-1l1 1h-1zM28 13858h1l-1 1v-1zM525 13749v-1h1v1h-1zM526 13748v-1h1v1h-1zM527 13747v-1h1v1h-1zM528 13746v-1h1v1h-1zM531 13744v-1h1v1h-1zM532 13743v-1h1l-1 1zM536 13740v-1h1v1h-1zM537 13738h1l-1 1v-1zM540 13738h-1v-1h1v1zM532 13738h-1v-1h1v1zM461 13801h-1v-1h1v1zM464 13799h-1v-1h1v1zM469 13796h-1v-1h1v1zM470 13795h-1v-1h1v1zM454 13795h-1v-1h1v1zM472 13794h-1v-1h1v1zM481 13787l-1 1v-1h1zM483 13778l1 -1v1h-1zM484 13777v-1h1v1h-1zM501 13771l-1 1v-1h1zM498 13765v-1h1v1h-1zM503 13761v-1h1v1h-1zM445 13799h-1v-1h1v1zM447 13798h-1v-1h1v1zM619 13675v-1h1v1h-1zM622 13674h-1v-1h1v1zM541 13737h-1v-1h1v1zM542 13736h-1v-1h1v1zM532 13736h-1v-1h1v1zM543 13734l-1 1v-1h1zM543 13734v-1h1v1h-1zM536 13732v-1h2v1h-2zM546 13723v-1h1v1h-1zM556 13715v-1h1v1h-1zM656 13661v-1h3v1h-3zM500 13645h-1v-1h1v1zM502 13644h-1v-1h1v1zM500 13643l-1 -1v-1l1 1v1zM502 13641l-3 -3h1l2 2v1zM44 13629h-1v-1h1v1zM46 13628h-2v-1h2v1zM40 13625h-1v-1h1v1zM322 13609l-1 -1l1 -1h1v1l-1 1zM324 13605v1l-1 -1h1zM323 13605h-1l-1 -1h1h1v1zM326 13601h-1v-1h1v1zM326 13598h-1v-2h1l1 2h-1zM322 13597h-2v-1v-1l2 1h1l-1 1zM320 13607h-1v-1h1v1zM320 13601h-2v-1h2v1zM318 13598h-1v-1h1v1zM-32 13941h-2v-1h2v1zM-34 13940h-1v-1h1v1zM-38 13939h2v1h-2v-1zM-44 13930h1l-1 1v-1zM-45 13930v-1h1v1h-1zM-49 13924v-1h1v1h-1zM-51 13920h1l-1 1v-1zM-57 13873h-1v-1h1v1zM-50 13859h2v1h-2v-1zM-51 13859v-1h1v1h-1zM-48 13858h-1v-1h1v1zM-46 13857h-1l1 -1h1l-1 1zM-41 13856h-1v-1h1v1zM-44 13856h-1v-1h1v1zM-56 13856h-1v-1h1v1zM-41 13854h-1v-1h1v1zM-31 13852h-1v-1h1v1zM-36 13851h2v1l-2 1l-1 -1h1v-1zM-37 13852h-1h-1l1 -1h1v1zM-37 13851v-1h1v1h-1zM-35 13850h-1v-1h1v1zM-30 13851l-2 -1l2 -2v2v1zM-33 13849h-1v-1h1v1zM-32 13848l-1 -1v-1h1v2zM-29 13846h-1v-1h1v1zM-25 13842h-1v-1h1v1zM-23 13839h-1v-1h1v1zM-23 13838v-1h1v1h-1zM-24 13838h-1l1 -1v1zM-22 13837v-1h1v1h-1zM-24 13837v-1l1 1h-1z"/></svg>